<svg id="icon" enable-background="new 0 0 24 24" height="512" viewBox="0 0 24 24" width="512" xmlns="http://www.w3.org/2000/svg"><path d="m5 .75 4.25 1.481-4.25 1.519-4.25-1.519z" fill="#ffc107"/><path d="m.75 2.25 4.25 1.481v5.519l-4.25-1.519z" fill="#ffd54f"/><path d="m9.25 2.25-4.25 1.481v5.519l4.25-1.519z" fill="#ffca28"/><path d="m22.25 15.75h-12.5c-.552 0-1 .448-1 1v5.5c0 .552.448 1 1 1h3.03c.52 0 1.01-.23 1.35-.63l1.075-1.408c.4-.524 1.189-.524 1.589 0l1.075 1.408c.34.4.83.63 1.35.63h3.03c.552 0 1-.448 1-1v-5.5c.001-.552-.447-1-.999-1z" fill="#00bcd4"/><path d="m5 4.461c-.083 0-.167-.014-.247-.042l-4.25-1.48c-.301-.105-.503-.389-.503-.708s.202-.603.503-.708l4.25-1.481c.16-.056.334-.056.494 0l4.25 1.481c.301.105.503.389.503.708s-.202.604-.503.708l-4.25 1.48c-.08.029-.164.042-.247.042zm-1.971-2.23 1.971.686 1.971-.686-1.971-.687z"/><path d="m5 9.961c-.083 0-.167-.014-.247-.042l-4.25-1.48c-.301-.105-.503-.389-.503-.708v-5.5c0-.414.336-.75.75-.75s.75.336.75.75v4.967l3.5 1.219 3.5-1.219v-4.967c0-.414.336-.75.75-.75s.75.336.75.75v5.5c0 .319-.202.604-.503.708l-4.25 1.48c-.08.029-.164.042-.247.042z"/><path d="m16.25 9.75c-.414 0-.75-.336-.75-.75v-3.25c0-.138-.112-.25-.25-.25h-2.5c-.414 0-.75-.336-.75-.75s.336-.75.75-.75h2.5c.965 0 1.75.785 1.75 1.75v3.25c0 .414-.336.75-.75.75z"/><path d="m16.23 10c-.002 0-.003 0-.005 0-.199-.001-.39-.082-.529-.223l-1.48-1.5c-.291-.295-.287-.77.008-1.061.293-.292.768-.288 1.061.007l.953.966.985-.973c.296-.292.77-.289 1.062.007.291.295.287.77-.007 1.061l-1.52 1.5c-.141.138-.33.216-.528.216z"/><path d="m5 9.961c-.414 0-.75-.336-.75-.75v-5.5c0-.414.336-.75.75-.75s.75.336.75.75v5.5c0 .414-.336.75-.75.75z"/><path d="m22.25 24h-3.281c-.521 0-1.011-.229-1.344-.629l-1.433-1.719c-.131-.156-.254-.157-.385 0l-1.432 1.718c-.334.4-.824.63-1.345.63h-3.28c-.965 0-1.75-.785-1.75-1.75v-5.5c0-.965.785-1.75 1.75-1.75h12.5c.965 0 1.75.785 1.75 1.75v5.5c0 .965-.785 1.75-1.75 1.75zm-6.25-3.938c.521 0 1.011.229 1.345.629l1.432 1.719c.048.057.118.09.192.09h3.281c.138 0 .25-.112.25-.25v-5.5c0-.138-.112-.25-.25-.25h-12.5c-.138 0-.25.112-.25.25v5.5c0 .138.112.25.25.25h3.281c.074 0 .145-.033.193-.091l1.431-1.717c.334-.4.824-.63 1.345-.63z"/><path d="m21.25 16.25c-.414 0-.75-.336-.75-.75v-1.75c0-.138-.112-.25-.25-.25h-8.5c-.138 0-.25.112-.25.25v1.75c0 .414-.336.75-.75.75s-.75-.336-.75-.75v-1.75c0-.965.785-1.75 1.75-1.75h8.5c.965 0 1.75.785 1.75 1.75v1.75c0 .414-.336.75-.75.75z"/><path d="m23.25 20h-2.5c-.414 0-.75-.336-.75-.75s.336-.75.75-.75h2.5c.414 0 .75.336.75.75s-.336.75-.75.75z"/><path d="m11.25 20h-2.5c-.414 0-.75-.336-.75-.75s.336-.75.75-.75h2.5c.414 0 .75.336.75.75s-.336.75-.75.75z"/></svg>
