<svg id="icon" enable-background="new 0 0 24 24" height="512" viewBox="0 0 24 24" width="512" xmlns="http://www.w3.org/2000/svg"><path d="m12 .75 4.25 1.481-4.25 1.519-4.25-1.519z" fill="#ffc107"/><path d="m7.75 2.25 4.25 1.481v5.519l-4.25-1.519z" fill="#ffd54f"/><path d="m16.25 2.25-4.25 1.481v5.519l4.25-1.519z" fill="#ffca28"/><path d="m21.25 23.25h-5.81c-.861 0-1.649-.487-2.033-1.258l-.289-.579c-.216-.432-.634-.69-1.118-.69s-.902.258-1.118.691l-.139.279c-.478.955-1.454 1.558-2.522 1.558h-5.471c-1.105 0-2-.895-2-2v-8.5c0-1.105.895-2 2-2h18.5c1.105 0 2 .895 2 2v8.5c0 1.104-.895 1.999-2 1.999z" fill="#00bcd4"/><path d="m8.25 19.25h-3.5c-.552 0-1-.448-1-1v-3.5c0-.552.448-1 1-1h3.5c.552 0 1 .448 1 1v3.5c0 .552-.448 1-1 1z" fill="#fff"/><path d="m19.25 19.25h-3.5c-.552 0-1-.448-1-1v-3.5c0-.552.448-1 1-1h3.5c.552 0 1 .448 1 1v3.5c0 .552-.448 1-1 1z" fill="#fff"/><path d="m21.25 24h-5.51c-1.048 0-1.991-.584-2.461-1.524l-.156-.301c-.222-.445-.64-.705-1.123-.705s-.901.26-1.119.695l-.165.319c-.466.932-1.408 1.516-2.456 1.516h-5.51c-1.517 0-2.75-1.233-2.75-2.75v-8.5c0-1.517 1.233-2.75 2.75-2.75h2.5c.414 0 .75.336.75.75s-.336.75-.75.75h-2.5c-.689 0-1.25.561-1.25 1.25v8.5c0 .689.561 1.25 1.25 1.25h5.51c.476 0 .905-.267 1.119-.695l.165-.319c.466-.932 1.409-1.516 2.457-1.516s1.991.584 2.461 1.524l.156.301c.219.438.647.704 1.124.704h5.51c.689 0 1.25-.561 1.25-1.25v-8.5c0-.689-.561-1.25-1.25-1.25h-2.5c-.414 0-.75-.336-.75-.75s.334-.749.748-.749h2.5c1.517 0 2.75 1.233 2.75 2.75v8.5c0 1.517-1.233 2.75-2.75 2.75z"/><path d="m8.25 20h-3.5c-.965 0-1.75-.785-1.75-1.75v-3.5c0-.965.785-1.75 1.75-1.75h3.5c.965 0 1.75.785 1.75 1.75v3.5c0 .965-.785 1.75-1.75 1.75zm-3.5-5.5c-.138 0-.25.112-.25.25v3.5c0 .138.112.25.25.25h3.5c.138 0 .25-.112.25-.25v-3.5c0-.138-.112-.25-.25-.25z"/><path d="m19.25 20h-3.5c-.965 0-1.75-.785-1.75-1.75v-3.5c0-.965.785-1.75 1.75-1.75h3.5c.965 0 1.75.785 1.75 1.75v3.5c0 .965-.785 1.75-1.75 1.75zm-3.5-5.5c-.138 0-.25.112-.25.25v3.5c0 .138.112.25.25.25h3.5c.138 0 .25-.112.25-.25v-3.5c0-.138-.112-.25-.25-.25z"/><path d="m12 4.461c-.083 0-.167-.014-.247-.042l-4.25-1.48c-.301-.105-.503-.389-.503-.708s.202-.603.503-.708l4.25-1.481c.159-.056.334-.056.493 0l4.25 1.481c.302.105.504.389.504.708s-.202.604-.503.708l-4.25 1.48c-.08.029-.164.042-.247.042zm-1.97-2.23 1.97.686 1.97-.686-1.97-.687z"/><path d="m12 9.961c-.083 0-.167-.014-.247-.042l-4.25-1.48c-.301-.105-.503-.389-.503-.708v-5.5c0-.414.336-.75.75-.75s.75.336.75.75v4.967l3.5 1.219 3.5-1.219v-4.967c0-.414.336-.75.75-.75s.75.336.75.75v5.5c0 .319-.202.604-.503.708l-4.25 1.48c-.08.029-.164.042-.247.042z"/><path d="m12 9.961c-.414 0-.75-.336-.75-.75v-5.5c0-.414.336-.75.75-.75s.75.336.75.75v5.5c0 .414-.336.75-.75.75z"/><path d="m3.75 11.25c-.414 0-.75-.336-.75-.75v-3.75c0-.414.336-.75.75-.75s.75.336.75.75v3.75c0 .414-.336.75-.75.75z"/><path d="m20.25 11.25c-.414 0-.75-.336-.75-.75v-3.75c0-.414.336-.75.75-.75s.75.336.75.75v3.75c0 .414-.336.75-.75.75z"/></svg>
