<svg id="icon" enable-background="new 0 0 24 24" height="512" viewBox="0 0 24 24" width="512" xmlns="http://www.w3.org/2000/svg"><path d="m9 11.5h6v3h-6z" fill="#607d8b"/><path d="m20.25 14.75h-16.5c-.552 0-1 .448-1 1v2.5c0 .552.448 1 1 1h16.5c.552 0 1-.448 1-1v-2.5c0-.552-.448-1-1-1z" fill="#00bcd4"/><path d="m21.25 11.25h-18.5c-1.105 0-2-.895-2-2v-3.5c0-1.105.895-2 2-2h18.5c1.105 0 2 .895 2 2v3.5c0 1.105-.895 2-2 2z" fill="#00bcd4"/><g fill="#fff"><path d="m5 8.75c-.689 0-1.25-.561-1.25-1.25s.561-1.25 1.25-1.25 1.25.561 1.25 1.25-.561 1.25-1.25 1.25z"/><path d="m10.5 9c-.827 0-1.5-.673-1.5-1.5s.673-1.5 1.5-1.5 1.5.673 1.5 1.5-.673 1.5-1.5 1.5z"/><path d="m19 8.708c-.666 0-1.208-.542-1.208-1.208s.542-1.208 1.208-1.208 1.208.542 1.208 1.208-.542 1.208-1.208 1.208z"/></g><path d="m20.25 20h-16.5c-.965 0-1.75-.785-1.75-1.75v-2.5c0-.965.785-1.75 1.75-1.75h16.5c.965 0 1.75.785 1.75 1.75v2.5c0 .965-.785 1.75-1.75 1.75zm-16.5-4.5c-.138 0-.25.112-.25.25v2.5c0 .138.112.25.25.25h16.5c.138 0 .25-.112.25-.25v-2.5c0-.138-.112-.25-.25-.25z"/><path d="m21.25 12h-18.5c-1.517 0-2.75-1.233-2.75-2.75v-3.5c0-1.517 1.233-2.75 2.75-2.75h18.5c1.517 0 2.75 1.233 2.75 2.75v3.5c0 1.517-1.233 2.75-2.75 2.75zm-18.5-7.5c-.689 0-1.25.561-1.25 1.25v3.5c0 .689.561 1.25 1.25 1.25h18.5c.689 0 1.25-.561 1.25-1.25v-3.5c0-.689-.561-1.25-1.25-1.25z"/><path d="m9.25 15.25c-.414 0-.75-.336-.75-.75v-3c0-.414.336-.75.75-.75s.75.336.75.75v3c0 .414-.336.75-.75.75z"/><path d="m14.75 15.25c-.414 0-.75-.336-.75-.75v-3c0-.414.336-.75.75-.75s.75.336.75.75v3c0 .414-.336.75-.75.75z"/><path d="m5 9.5c-1.103 0-2-.897-2-2s.897-2 2-2 2 .897 2 2-.897 2-2 2zm0-2.5c-.275 0-.5.224-.5.5s.225.5.5.5.5-.224.5-.5-.225-.5-.5-.5z"/><path d="m10.5 9.5c-1.103 0-2-.897-2-2s.897-2 2-2 2 .897 2 2-.897 2-2 2zm0-2.5c-.275 0-.5.224-.5.5s.225.5.5.5.5-.224.5-.5-.225-.5-.5-.5z"/><path d="m19 9.5c-1.103 0-2-.897-2-2s.897-2 2-2 2 .897 2 2-.897 2-2 2zm0-2.5c-.275 0-.5.224-.5.5s.225.5.5.5.5-.224.5-.5-.225-.5-.5-.5z"/></svg>
