<svg id="icon" enable-background="new 0 0 24 24" height="512" viewBox="0 0 24 24" width="512" xmlns="http://www.w3.org/2000/svg"><path d="m21.25 1.75h-18.5c-1.105 0-2 .895-2 2v1.5h22.5v-1.5c0-1.105-.895-2-2-2z" fill="#607d8b"/><path d="m21.25 22.25h-18.5c-1.105 0-2-.895-2-2v-15h22.5v15c0 1.105-.895 2-2 2z" fill="#fff"/><path d="m18.25 11.75h-12.5c-.552 0-1 .448-1 1v5.5c0 .552.448 1 1 1h3.28c.52 0 1.01-.23 1.35-.63l1.62-1.949 1.62 1.949c.34.4.83.63 1.35.63h3.28c.552 0 1-.448 1-1v-5.5c0-.552-.448-1-1-1z" fill="#00bcd4"/><path d="m18.25 20h-3.281c-.521 0-1.011-.229-1.344-.629l-1.433-1.719c-.131-.156-.254-.157-.385 0l-1.432 1.718c-.333.401-.823.63-1.344.63h-3.281c-.965 0-1.75-.785-1.75-1.75v-5.5c0-.965.785-1.75 1.75-1.75h12.5c.965 0 1.75.785 1.75 1.75v5.5c0 .965-.785 1.75-1.75 1.75zm-6.25-3.938c.521 0 1.011.229 1.345.629l1.432 1.719c.048.057.118.09.192.09h3.281c.138 0 .25-.112.25-.25v-5.5c0-.138-.112-.25-.25-.25h-12.5c-.138 0-.25.112-.25.25v5.5c0 .138.112.25.25.25h3.281c.074 0 .145-.033.193-.091l1.431-1.717c.334-.4.824-.63 1.345-.63z"/><path d="m17.25 12.25c-.414 0-.75-.336-.75-.75v-1.75c0-.138-.112-.25-.25-.25h-8.5c-.138 0-.25.112-.25.25v1.75c0 .414-.336.75-.75.75s-.75-.336-.75-.75v-1.75c0-.965.785-1.75 1.75-1.75h8.5c.965 0 1.75.785 1.75 1.75v1.75c0 .414-.336.75-.75.75z"/><path d="m19.25 16h-2.5c-.414 0-.75-.336-.75-.75s.336-.75.75-.75h2.5c.414 0 .75.336.75.75s-.336.75-.75.75z"/><path d="m7.25 16h-2.5c-.414 0-.75-.336-.75-.75s.336-.75.75-.75h2.5c.414 0 .75.336.75.75s-.336.75-.75.75z"/><path d="m21.25 23h-18.5c-1.517 0-2.75-1.233-2.75-2.75v-16.5c0-1.517 1.233-2.75 2.75-2.75h18.5c1.517 0 2.75 1.233 2.75 2.75v16.5c0 1.517-1.233 2.75-2.75 2.75zm-18.5-20.5c-.689 0-1.25.561-1.25 1.25v16.5c0 .689.561 1.25 1.25 1.25h18.5c.689 0 1.25-.561 1.25-1.25v-16.5c0-.689-.561-1.25-1.25-1.25z"/><path d="m23.25 6h-22.5c-.414 0-.75-.336-.75-.75s.336-.75.75-.75h22.5c.414 0 .75.336.75.75s-.336.75-.75.75z"/></svg>
