<svg id="icon" enable-background="new 0 0 24 24" height="512" viewBox="0 0 24 24" width="512" xmlns="http://www.w3.org/2000/svg"><path d="m22.25 4.75h-20.5c-.552 0-1 .448-1 1v12.5c0 .552.448 1 1 1h20.5c.552 0 1-.448 1-1v-12.5c0-.552-.448-1-1-1z" fill="#fff"/><path d="m18.25 3.75h-12.5c-.552 0-1 .448-1 1v5.5c0 .552.448 1 1 1h3.28c.52 0 1.01-.23 1.35-.63l1.62-1.949 1.62 1.949c.34.4.83.63 1.35.63h3.28c.552 0 1-.448 1-1v-5.5c0-.552-.448-1-1-1z" fill="#00bcd4"/><path d="m18.25 12h-3.282c-.521 0-1.011-.229-1.344-.63l-1.432-1.718c-.131-.156-.253-.156-.383 0l-1.433 1.719c-.334.4-.823.629-1.344.629h-3.282c-.965 0-1.75-.785-1.75-1.75v-5.5c0-.965.785-1.75 1.75-1.75h12.5c.965 0 1.75.785 1.75 1.75v5.5c0 .965-.785 1.75-1.75 1.75zm-6.25-3.938c.521 0 1.011.229 1.345.63l1.432 1.718c.048.057.118.09.192.09h3.282c.138 0 .25-.112.25-.25v-5.5c0-.138-.112-.25-.25-.25h-12.501c-.138 0-.25.112-.25.25v5.5c0 .138.112.25.25.25h3.282c.074 0 .144-.033.192-.09l1.432-1.718c.333-.4.823-.63 1.344-.63z"/><path d="m17.25 4.25c-.414 0-.75-.336-.75-.75v-1.75c0-.138-.112-.25-.25-.25h-8.5c-.138 0-.25.112-.25.25v1.75c0 .414-.336.75-.75.75s-.75-.336-.75-.75v-1.75c0-.965.785-1.75 1.75-1.75h8.5c.965 0 1.75.785 1.75 1.75v1.75c0 .414-.336.75-.75.75z"/><path d="m19.25 8h-2.5c-.414 0-.75-.336-.75-.75s.336-.75.75-.75h2.5c.414 0 .75.336.75.75s-.336.75-.75.75z"/><path d="m7.25 8h-2.5c-.414 0-.75-.336-.75-.75s.336-.75.75-.75h2.5c.414 0 .75.336.75.75s-.336.75-.75.75z"/><path d="m22.25 20h-20.5c-.965 0-1.75-.785-1.75-1.75v-12.5c0-.965.785-1.75 1.75-1.75.414 0 .75.336.75.75s-.336.75-.75.75c-.138 0-.25.112-.25.25v12.5c0 .138.112.25.25.25h20.5c.138 0 .25-.112.25-.25v-12.5c0-.138-.112-.25-.25-.25-.414 0-.75-.336-.75-.75s.336-.75.75-.75c.965 0 1.75.785 1.75 1.75v12.5c0 .965-.785 1.75-1.75 1.75z"/><path d="m16.25 24h-8.5c-.414 0-.75-.336-.75-.75s.336-.75.75-.75h8.5c.414 0 .75.336.75.75s-.336.75-.75.75z"/><path d="m12 24c-.414 0-.75-.336-.75-.75v-4c0-.414.336-.75.75-.75s.75.336.75.75v4c0 .414-.336.75-.75.75z"/></svg>
