<svg id="icon" enable-background="new 0 0 24 24" height="512" viewBox="0 0 24 24" width="512" xmlns="http://www.w3.org/2000/svg"><path d="m15.131 22.931c-1.067-1.067-1.099-2.101-1.1-2.152-.002-.223-.182-.404-.406-.404h-3.266c-.224 0-.406.184-.406.409 0 .044-.014 1.079-1.083 2.148-.255.255-.075.693.287.693h5.687c.361 0 .542-.438.287-.694z" fill="#90a4ae"/><path d="m23.25 16.5h-22.5v2.75c0 .552.448 1 1 1h20.5c.552 0 1-.448 1-1z" fill="#607d8b"/><path d="m23.25 16.5h-22.5v-10.75c0-.552.448-1 1-1h20.5c.552 0 1 .448 1 1z" fill="#fff"/><path d="m18.25 3.75h-12.5c-.552 0-1 .448-1 1v5.5c0 .552.448 1 1 1h3.28c.52 0 1.01-.23 1.35-.63l1.62-1.949 1.62 1.949c.34.4.83.63 1.35.63h3.28c.552 0 1-.448 1-1v-5.5c0-.552-.448-1-1-1z" fill="#00bcd4"/><path d="m18.25 12h-3.282c-.521 0-1.011-.229-1.344-.63l-1.432-1.718c-.131-.156-.253-.156-.383 0l-1.433 1.719c-.334.4-.823.629-1.344.629h-3.282c-.965 0-1.75-.785-1.75-1.75v-5.5c0-.965.785-1.75 1.75-1.75h12.5c.965 0 1.75.785 1.75 1.75v5.5c0 .965-.785 1.75-1.75 1.75zm-6.25-3.938c.521 0 1.011.229 1.345.63l1.432 1.718c.048.057.118.09.192.09h3.282c.138 0 .25-.112.25-.25v-5.5c0-.138-.112-.25-.25-.25h-12.501c-.138 0-.25.112-.25.25v5.5c0 .138.112.25.25.25h3.282c.074 0 .144-.033.192-.09l1.432-1.718c.333-.4.823-.63 1.344-.63z"/><path d="m17.25 4.25c-.414 0-.75-.336-.75-.75v-1.75c0-.138-.112-.25-.25-.25h-8.5c-.138 0-.25.112-.25.25v1.75c0 .414-.336.75-.75.75s-.75-.336-.75-.75v-1.75c0-.965.785-1.75 1.75-1.75h8.5c.965 0 1.75.785 1.75 1.75v1.75c0 .414-.336.75-.75.75z"/><path d="m19.25 8h-2.5c-.414 0-.75-.336-.75-.75s.336-.75.75-.75h2.5c.414 0 .75.336.75.75s-.336.75-.75.75z"/><path d="m7.25 8h-2.5c-.414 0-.75-.336-.75-.75s.336-.75.75-.75h2.5c.414 0 .75.336.75.75s-.336.75-.75.75z"/><path d="m22.25 21h-20.5c-.965 0-1.75-.785-1.75-1.75v-13.5c0-.965.785-1.75 1.75-1.75.414 0 .75.336.75.75s-.336.75-.75.75c-.138 0-.25.112-.25.25v13.5c0 .138.112.25.25.25h20.5c.138 0 .25-.112.25-.25v-13.5c0-.138-.112-.25-.25-.25-.414 0-.75-.336-.75-.75s.336-.75.75-.75c.965 0 1.75.785 1.75 1.75v13.5c0 .965-.785 1.75-1.75 1.75z"/><path d="m23.25 17.5h-22.5c-.414 0-.75-.336-.75-.75s.336-.75.75-.75h22.5c.414 0 .75.336.75.75s-.336.75-.75.75z"/><path d="m15.25 24h-6.5c-.303 0-.577-.183-.693-.463s-.052-.603.163-.817c1.041-1.041 1.265-2.552 1.267-2.567.054-.411.434-.7.841-.646.411.054.7.431.646.841-.008.059-.147 1.066-.744 2.152h3.523c-.591-1.081-.738-2.088-.746-2.147-.057-.41.229-.789.64-.846.412-.054.789.229.846.638.007.045.232 1.469 1.184 2.488.195.136.323.361.323.617 0 .414-.336.75-.75.75z"/></svg>
