<svg id="icon" enable-background="new 0 0 24 24" height="512" viewBox="0 0 24 24" width="512" xmlns="http://www.w3.org/2000/svg"><path d="m15.25 19.75h-14.5v1.5c0 1.105.895 2 2 2h10.5c1.105 0 2-.895 2-2z" fill="#607d8b"/><path d="m2.75.75h10.5c1.105 0 2 .895 2 2v17h-14.5v-17c0-1.105.895-2 2-2z" fill="#fff"/><path d="m22.25 7.75h-12.5c-.552 0-1 .448-1 1v5.5c0 .552.448 1 1 1h3.28c.52 0 1.01-.23 1.35-.63l1.62-1.949 1.62 1.949c.34.4.83.63 1.35.63h3.28c.552 0 1-.448 1-1v-5.5c0-.552-.448-1-1-1z" fill="#00bcd4"/><path d="m22.25 16h-3.282c-.521 0-1.011-.229-1.344-.63l-1.432-1.718c-.131-.156-.253-.156-.383 0l-1.433 1.719c-.333.4-.823.63-1.344.63h-3.282c-.965-.001-1.75-.786-1.75-1.751v-5.5c0-.965.785-1.75 1.75-1.75h12.5c.965 0 1.75.785 1.75 1.75v5.5c0 .965-.785 1.75-1.75 1.75zm-6.25-3.938c.521 0 1.011.229 1.345.63l1.432 1.718c.048.057.118.09.192.09h3.282c.138 0 .25-.112.25-.25v-5.5c0-.138-.112-.25-.25-.25h-12.501c-.138 0-.25.112-.25.25v5.5c0 .138.112.25.25.25h3.282c.074 0 .144-.033.192-.09l1.432-1.718c.333-.4.823-.63 1.344-.63z"/><path d="m21.25 8.25c-.414 0-.75-.336-.75-.75v-1.75c0-.138-.112-.25-.25-.25h-8.5c-.138 0-.25.112-.25.25v1.75c0 .414-.336.75-.75.75s-.75-.336-.75-.75v-1.75c0-.965.785-1.75 1.75-1.75h8.5c.965 0 1.75.785 1.75 1.75v1.75c0 .414-.336.75-.75.75z"/><path d="m23.25 12h-2.5c-.414 0-.75-.336-.75-.75s.336-.75.75-.75h2.5c.414 0 .75.336.75.75s-.336.75-.75.75z"/><path d="m11.25 12h-2.5c-.414 0-.75-.336-.75-.75s.336-.75.75-.75h2.5c.414 0 .75.336.75.75s-.336.75-.75.75z"/><path d="m15.25 20.5h-14.5c-.414 0-.75-.336-.75-.75s.336-.75.75-.75h14.5c.414 0 .75.336.75.75s-.336.75-.75.75z"/><path d="m13.25 24h-10.5c-1.517 0-2.75-1.233-2.75-2.75v-18.5c0-1.517 1.233-2.75 2.75-2.75h10.5c.664 0 1.306.245 1.807.688.31.275.339.749.064 1.059s-.748.339-1.059.064c-.226-.2-.515-.311-.812-.311h-10.5c-.689 0-1.25.561-1.25 1.25v18.5c0 .689.561 1.25 1.25 1.25h10.5c.689 0 1.25-.561 1.25-1.25v-2.5c0-.414.336-.75.75-.75s.75.336.75.75v2.5c0 1.517-1.233 2.75-2.75 2.75z"/></svg>
