<svg id="icon" enable-background="new 0 0 24 24" height="512" viewBox="0 0 24 24" width="512" xmlns="http://www.w3.org/2000/svg"><circle cx="12" cy="12" fill="#00bcd4" r="3.237"/><path d="m10.918 24c-3.705 0-5.918-6.102-5.918-12s2.213-12 5.918-12c2.126 0 4.015 2.129 5.052 5.696.116.398-.113.814-.511.93-.396.117-.814-.113-.93-.511-.815-2.803-2.232-4.615-3.611-4.615-2.354 0-4.418 4.907-4.418 10.5s2.064 10.5 4.418 10.5c1.347 0 2.7-1.668 3.531-4.353.097-.314.388-.528.716-.528.414 0 .755.336.755.75 0 .11-.023.214-.065.308-1.053 3.335-2.895 5.323-4.937 5.323z"/><path d="m15.25 7c-.198 0-.389-.079-.53-.22l-2-2c-.293-.293-.293-.768 0-1.061s.768-.293 1.061 0l1.389 1.389.98-1.308c.25-.331.718-.397 1.05-.15.331.249.398.719.15 1.05l-1.5 2c-.13.174-.33.283-.547.298-.018.002-.035.002-.053.002z"/><path d="m12 19c-4.983 0-12-1.828-12-5.89 0-2.065 1.971-3.864 5.407-4.936.395-.124.815.097.939.493s-.097.816-.493.939c-2.685.837-4.353 2.18-4.353 3.504 0 2.587 5.534 4.39 10.5 4.39 5.593 0 10.5-2.051 10.5-4.39 0-1.316-1.662-2.659-4.336-3.504-.395-.125-.614-.546-.489-.941s.544-.612.941-.489c3.422 1.081 5.384 2.88 5.384 4.934 0 3.687-6.102 5.89-12 5.89z"/><path d="m19.75 11.5c-.192 0-.384-.073-.53-.22l-2-2c-.154-.154-.233-.367-.218-.583.015-.217.124-.417.298-.547l2-1.5c.333-.247.802-.181 1.05.15.249.332.181.802-.15 1.05l-1.309.981 1.389 1.389c.293.293.293.768 0 1.061-.146.146-.338.219-.53.219z"/><path d="m12 16c-2.206 0-4-1.794-4-4s1.794-4 4-4 4 1.794 4 4-1.794 4-4 4zm0-6.5c-1.378 0-2.5 1.122-2.5 2.5s1.122 2.5 2.5 2.5 2.5-1.122 2.5-2.5-1.122-2.5-2.5-2.5z"/><path d="m12 13c-.551 0-1-.449-1-1s.449-1 1-1 1 .449 1 1-.449 1-1 1z"/></svg>
