<svg id="icon" enable-background="new 0 0 24 24" height="512" viewBox="0 0 24 24" width="512" xmlns="http://www.w3.org/2000/svg"><path d="m18.36 2.75h-12.72c-2.7 0-4.89 2.13-4.89 4.75s2.19 4.75 4.89 4.75c1.6 0 3.02-.75 3.91-1.9h4.9c.89 1.15 2.31 1.9 3.91 1.9 2.7 0 4.89-2.13 4.89-4.75s-2.19-4.75-4.89-4.75z" fill="#00bcd4"/><path d="m5.5 10c-.414 0-.75-.336-.75-.75v-3.5c0-.414.336-.75.75-.75s.75.336.75.75v3.5c0 .414-.336.75-.75.75z"/><path d="m7.25 8.25h-3.5c-.414 0-.75-.336-.75-.75s.336-.75.75-.75h3.5c.414 0 .75.336.75.75s-.336.75-.75.75z"/><path d="m18.359 13c-1.631 0-3.198-.704-4.264-1.9h-4.19c-1.066 1.196-2.633 1.9-4.264 1.9-3.11 0-5.641-2.467-5.641-5.5s2.531-5.5 5.641-5.5h12.718c3.11 0 5.641 2.467 5.641 5.5s-2.531 5.5-5.641 5.5zm-8.805-3.4h4.892c.232 0 .451.107.593.291.78 1.007 2.021 1.609 3.32 1.609 2.283 0 4.141-1.794 4.141-4s-1.858-4-4.141-4h-12.718c-2.283 0-4.141 1.794-4.141 4s1.858 4 4.141 4c1.299 0 2.54-.602 3.32-1.609.142-.183.361-.291.593-.291z"/><path d="m20.5 8.5c-.551 0-1-.449-1-1s.449-1 1-1 1 .449 1 1-.449 1-1 1z"/><path d="m16.5 8.5c-.551 0-1-.449-1-1s.449-1 1-1 1 .449 1 1-.449 1-1 1z"/><path d="m18.5 6.5c-.551 0-1-.449-1-1s.449-1 1-1 1 .449 1 1-.449 1-1 1z"/><path d="m18.5 10.5c-.551 0-1-.449-1-1s.449-1 1-1 1 .449 1 1-.449 1-1 1z"/><path d="m10.5 22c-.228 0-.453-.104-.601-.3-.249-.332-.181-.802.15-1.05l1.2-.9-1.2-.9c-.331-.249-.398-.719-.15-1.05.25-.331.719-.397 1.05-.15l2 1.5c.188.142.3.364.3.6s-.111.458-.3.6l-2 1.5c-.134.101-.292.15-.449.15z"/><path d="m12 20.5c-1.492 0-2.902-.072-4.192-.214-2.344-.242-7.808-1.07-7.808-3.536 0-1.066 1.015-1.938 3.017-2.593.469-.151.988.22.988.713 0 .356-.245.654-.577.731-1.599.532-1.928 1.041-1.928 1.149 0 .354 1.592 1.542 6.467 2.044 1.241.137 2.596.206 4.033.206.414 0 .75.336.75.75s-.336.75-.75.75z"/><path d="m15.413 20.35c-.386 0-.714-.296-.747-.688-.034-.413.272-.775.685-.81 5.091-.425 7.148-1.66 7.148-2.103 0-.135-.365-.639-1.987-1.167-.394-.128-.609-.552-.481-.946.128-.393.55-.608.946-.481 2.006.655 3.023 1.528 3.023 2.595 0 2.604-5.961 3.383-8.523 3.598-.022.001-.043.002-.064.002z"/></svg>
