<svg id="icon" enable-background="new 0 0 24 24" height="512" viewBox="0 0 24 24" width="512" xmlns="http://www.w3.org/2000/svg"><path d="m12 23.25c-6.204 0-11.25-5.047-11.25-11.25s5.046-11.25 11.25-11.25 11.25 5.047 11.25 11.25-5.046 11.25-11.25 11.25z" fill="#00bcd4"/><path d="m12 24c-6.617 0-12-5.383-12-12s5.383-12 12-12 12 5.383 12 12-5.383 12-12 12zm0-22.5c-5.79 0-10.5 4.71-10.5 10.5s4.71 10.5 10.5 10.5 10.5-4.71 10.5-10.5-4.71-10.5-10.5-10.5z"/><path d="m12 24c-3.645 0-6.5-5.271-6.5-12s2.855-12 6.5-12 6.5 5.271 6.5 12-2.855 12-6.5 12zm0-22.5c-2.71 0-5 4.809-5 10.5s2.29 10.5 5 10.5 5-4.809 5-10.5-2.29-10.5-5-10.5z"/><path d="m12 18.5c-6.729 0-12-2.855-12-6.5s5.271-6.5 12-6.5 12 2.855 12 6.5-5.271 6.5-12 6.5zm0-11.5c-5.691 0-10.5 2.29-10.5 5s4.809 5 10.5 5 10.5-2.29 10.5-5-4.809-5-10.5-5z"/></svg>
