<svg id="icon" enable-background="new 0 0 24 24" height="512" viewBox="0 0 24 24" width="512" xmlns="http://www.w3.org/2000/svg"><path d="m12 5.75 6.25 2.25-6.25 2.25-6.25-2.25z" fill="#ffc107"/><path d="m5.75 8 6.25 2.25v8l-6.25-2.25z" fill="#ffd54f"/><path d="m18.25 8-6.25 2.25v8l6.25-2.25z" fill="#ffca28"/><path d="m12 11c-.086 0-.172-.015-.254-.044l-6.25-2.25c-.298-.107-.496-.39-.496-.706s.198-.599.496-.706l6.25-2.25c.164-.06.344-.06.508 0l6.25 2.25c.298.107.496.39.496.706s-.198.599-.496.706l-6.25 2.25c-.082.029-.168.044-.254.044zm-4.036-3 4.036 1.453 4.036-1.453-4.036-1.453z"/><path d="m12 19c-.086 0-.172-.015-.254-.044l-6.25-2.25c-.298-.107-.496-.39-.496-.706v-8c0-.414.336-.75.75-.75s.75.336.75.75v7.473l5.5 1.98 5.5-1.98v-7.473c0-.414.336-.75.75-.75s.75.336.75.75v8c0 .316-.198.599-.496.706l-6.25 2.25c-.082.029-.168.044-.254.044z"/><path d="m.75 8c-.414 0-.75-.336-.75-.75v-4.5c0-1.517 1.233-2.75 2.75-2.75h4.5c.414 0 .75.336.75.75s-.336.75-.75.75h-4.5c-.689 0-1.25.561-1.25 1.25v4.5c0 .414-.336.75-.75.75z"/><path d="m21.25 24h-4.5c-.414 0-.75-.336-.75-.75s.336-.75.75-.75h4.5c.689 0 1.25-.561 1.25-1.25v-4.5c0-.414.336-.75.75-.75s.75.336.75.75v4.5c0 1.517-1.233 2.75-2.75 2.75z"/><path d="m23.25 8c-.414 0-.75-.336-.75-.75v-4.5c0-.689-.561-1.25-1.25-1.25h-4.5c-.414 0-.75-.336-.75-.75s.336-.75.75-.75h4.5c1.517 0 2.75 1.233 2.75 2.75v4.5c0 .414-.336.75-.75.75z"/><path d="m7.25 24h-4.5c-1.517 0-2.75-1.233-2.75-2.75v-4.5c0-.414.336-.75.75-.75s.75.336.75.75v4.5c0 .689.561 1.25 1.25 1.25h4.5c.414 0 .75.336.75.75s-.336.75-.75.75z"/><path d="m12 19c-.414 0-.75-.336-.75-.75v-8c0-.414.336-.75.75-.75s.75.336.75.75v8c0 .414-.336.75-.75.75z"/></svg>
