<svg id="icon" enable-background="new 0 0 24 24" height="512" viewBox="0 0 24 24" width="512" xmlns="http://www.w3.org/2000/svg"><path d="m13.25 12.75h-2.5c-.552 0-1 .448-1 1v1.25h4.5v-1.25c0-.552-.448-1-1-1z" fill="#00bcd4"/><circle cx="12" cy="9.5" r="1.5"/><path d="m14.25 15c-.414 0-.75-.336-.75-.75s-.336-.75-.75-.75h-1.5c-.414 0-.75.336-.75.75s-.336.75-.75.75-.75-.336-.75-.75c0-1.241 1.009-2.25 2.25-2.25h1.5c1.241 0 2.25 1.009 2.25 2.25 0 .414-.336.75-.75.75z"/><path d="m10.918 24c-3.705 0-5.918-6.102-5.918-12s2.213-12 5.918-12c2.126 0 4.015 2.129 5.052 5.696.116.398-.113.814-.511.93-.396.117-.814-.113-.93-.511-.815-2.803-2.232-4.615-3.611-4.615-2.354 0-4.418 4.907-4.418 10.5s2.064 10.5 4.418 10.5c1.347 0 2.7-1.668 3.531-4.353.097-.314.388-.528.716-.528.414 0 .755.336.755.75 0 .11-.023.214-.065.308-1.053 3.335-2.895 5.323-4.937 5.323z"/><path d="m15.25 7c-.198 0-.389-.079-.53-.22l-2-2c-.293-.293-.293-.768 0-1.061s.768-.293 1.061 0l1.389 1.389.98-1.308c.25-.331.719-.397 1.05-.15.331.249.398.719.15 1.05l-1.5 2c-.13.174-.33.283-.547.298-.018.002-.035.002-.053.002z"/><path d="m12 19c-4.983 0-12-1.828-12-5.89 0-2.065 1.971-3.864 5.407-4.936.396-.124.816.097.939.493.124.396-.097.816-.493.939-2.685.837-4.353 2.18-4.353 3.504 0 2.587 5.534 4.39 10.5 4.39 5.593 0 10.5-2.051 10.5-4.39 0-1.316-1.662-2.659-4.336-3.504-.395-.125-.614-.546-.489-.941s.546-.612.941-.489c3.422 1.081 5.384 2.88 5.384 4.934 0 3.687-6.102 5.89-12 5.89z"/><path d="m19.75 11.5c-.192 0-.384-.073-.53-.22l-2-2c-.154-.154-.233-.367-.218-.583.015-.217.124-.417.298-.547l2-1.5c.333-.247.802-.181 1.05.15.249.332.181.802-.15 1.05l-1.309.981 1.389 1.389c.293.293.293.768 0 1.061-.146.146-.338.219-.53.219z"/></svg>
