<svg id="icon" enable-background="new 0 0 24 24" height="512" viewBox="0 0 24 24" width="512" xmlns="http://www.w3.org/2000/svg"><path d="m15.25 23.25h-2.788c-.521 0-1.021-.203-1.394-.566l-.673-.655c-.777-.755-2.014-.755-2.79.001l-.67.652c-.374.364-.875.568-1.396.568h-2.789c-1.105 0-2-.895-2-2v-7h16.5v7c0 1.105-.895 2-2 2z" fill="#00bcd4"/><path d="m17.25 20.25h-2.5v-2.5h2.5z" fill="#0097a7"/><path d="m3.25 20.25h-2.5v-2.5h2.5z" fill="#0097a7"/><path d="m22.25.75h-8.5c-.55 0-1 .45-1 1v4.5c0 .55.45 1 1 1h2v3l3.25-3h3.25c.55 0 1-.45 1-1v-4.5c0-.55-.45-1-1-1z" fill="#607d8b"/><path d="m15.25 24h-2.813c-.818 0-1.588-.361-2.112-.99l-.365-.436c-.477-.571-1.444-.571-1.921 0l-.363.436c-.524.629-1.294.99-2.113.99h-2.813c-1.517 0-2.75-1.233-2.75-2.75v-7c0-.414.336-.75.75-.75h16.5c.414 0 .75.336.75.75v7c0 1.517-1.233 2.75-2.75 2.75zm-6.25-3.376c.818 0 1.588.361 2.113.99l.364.437c.238.286.588.45.96.45h2.813c.689 0 1.25-.561 1.25-1.25v-6.251h-15v6.25c0 .689.561 1.25 1.25 1.25h2.813c.372 0 .722-.164.96-.45l.364-.437c.525-.628 1.295-.989 2.113-.989z"/><path d="m17.25 15c-.207 0-.412-.084-.56-.25l-.75-.84c-.276-.309-.249-.783.06-1.059.31-.276.783-.249 1.059.06l.75.84c.276.309.249.783-.06 1.059-.143.127-.321.19-.499.19z"/><path d="m.75 15c-.143 0-.288-.041-.416-.126-.345-.23-.438-.695-.208-1.04l3-4.5c.139-.209.373-.334.624-.334h2.25c.223 0 .434.099.576.27.953 1.144 2.895 1.144 3.848 0 .142-.171.353-.27.576-.27h.35c.414 0 .75.336.75.75s-.336.75-.75.75h-.02c-.748.748-1.76 1.17-2.83 1.17s-2.082-.422-2.83-1.17h-1.519l-2.777 4.166c-.145.217-.382.334-.624.334z"/><path d="m17.25 21h-2.5c-.414 0-.75-.336-.75-.75v-2.5c0-.414.336-.75.75-.75h2.5c.414 0 .75.336.75.75s-.336.75-.75.75h-1.75v1h1.75c.414 0 .75.336.75.75s-.336.75-.75.75z"/><path d="m3.25 21h-2.5c-.414 0-.75-.336-.75-.75s.336-.75.75-.75h1.75v-1h-1.75c-.414 0-.75-.336-.75-.75s.336-.75.75-.75h2.5c.414 0 .75.336.75.75v2.5c0 .414-.336.75-.75.75z"/><path d="m11.25 19h-4.5c-.414 0-.75-.336-.75-.75s.336-.75.75-.75h4.5c.414 0 .75.336.75.75s-.336.75-.75.75z"/><path d="m15.75 11c-.102 0-.204-.021-.301-.063-.273-.12-.449-.389-.449-.687v-2.25h-1.25c-.965 0-1.75-.785-1.75-1.75v-4.5c0-.965.785-1.75 1.75-1.75h8.5c.965 0 1.75.785 1.75 1.75v4.5c0 .965-.785 1.75-1.75 1.75h-2.957l-3.035 2.801c-.141.131-.323.199-.508.199zm-2-9.5c-.136 0-.25.114-.25.25v4.5c0 .136.114.25.25.25h2c.414 0 .75.336.75.75v1.287l1.991-1.838c.139-.128.321-.199.509-.199h3.25c.136 0 .25-.114.25-.25v-4.5c0-.136-.114-.25-.25-.25z"/><circle cx="18" cy="4" r=".75"/><circle cx="20.75" cy="4" r=".75"/><circle cx="15.25" cy="4" r=".75"/></svg>
