<svg id="icon" enable-background="new 0 0 24 24" height="512" viewBox="0 0 24 24" width="512" xmlns="http://www.w3.org/2000/svg"><path d="m3.25 14.25h-2.5v-4.5h2.5z" fill="#607d8b"/><path d="m23.25 14.25h-2.5v-4.5h2.5z" fill="#607d8b"/><path d="m18.75 17.25h-3.234c-.619 0-1.204-.287-1.582-.777l-1.143-1.478c-.4-.518-1.182-.518-1.582 0l-1.145 1.479c-.379.489-.963.776-1.582.776h-3.232c-1.105 0-2-.895-2-2v-6.5c0-1.105.895-2 2-2h13.5c1.105 0 2 .895 2 2v6.5c0 1.105-.895 2-2 2z" fill="#00bcd4"/><path d="m8.25 13.25h-1.5c-.552 0-1-.448-1-1v-1.5c0-.552.448-1 1-1h1.5c.552 0 1 .448 1 1v1.5c0 .552-.448 1-1 1z" fill="#fff"/><path d="m17.25 13.25h-1.5c-.552 0-1-.448-1-1v-1.5c0-.552.448-1 1-1h1.5c.552 0 1 .448 1 1v1.5c0 .552-.448 1-1 1z" fill="#fff"/><path d="m12 4c-.414 0-.75-.336-.75-.75v-2.5c0-.414.336-.75.75-.75s.75.336.75.75v2.5c0 .414-.336.75-.75.75z"/><path d="m20.66 4.09c-.192 0-.384-.073-.53-.22-.293-.293-.293-.768 0-1.061l2.59-2.59c.293-.293.768-.293 1.061 0s.293.768 0 1.061l-2.59 2.59c-.147.147-.338.22-.531.22z"/><path d="m.75 24c-.192 0-.384-.073-.53-.22-.293-.293-.293-.768 0-1.061l2.59-2.59c.293-.293.768-.293 1.061 0s.293.768 0 1.061l-2.59 2.59c-.147.147-.339.22-.531.22z"/><path d="m3.34 4.09c-.192 0-.384-.073-.53-.22l-2.59-2.59c-.293-.293-.293-.768 0-1.061s.768-.293 1.061 0l2.59 2.59c.293.293.293.768 0 1.061-.147.147-.339.22-.531.22z"/><path d="m23.25 24c-.192 0-.384-.073-.53-.22l-2.59-2.59c-.293-.293-.293-.768 0-1.061s.768-.293 1.061 0l2.59 2.59c.293.293.293.768 0 1.061-.147.147-.339.22-.531.22z"/><path d="m18.75 18h-3.014c-1.048 0-1.99-.583-2.46-1.52l-.158-.317c-.217-.432-.635-.69-1.118-.69s-.901.258-1.118.691l-.158.316c-.47.937-1.412 1.52-2.46 1.52h-3.014c-1.517 0-2.75-1.233-2.75-2.75v-6.5c0-1.517 1.233-2.75 2.75-2.75h13.5c1.517 0 2.75 1.233 2.75 2.75v6.5c0 1.517-1.233 2.75-2.75 2.75zm-6.75-4.028c1.048 0 1.991.583 2.46 1.52l.158.317c.213.426.642.69 1.118.69h3.014c.689 0 1.25-.561 1.25-1.25v-6.5c0-.689-.561-1.25-1.25-1.25h-13.5c-.689.001-1.25.562-1.25 1.251v6.5c0 .689.561 1.25 1.25 1.25h3.014c.477 0 .905-.265 1.118-.691l.158-.316c.469-.938 1.412-1.521 2.46-1.521z"/><path d="m8.25 14h-1.5c-.965 0-1.75-.785-1.75-1.75v-1.5c0-.965.785-1.75 1.75-1.75h1.5c.965 0 1.75.785 1.75 1.75v1.5c0 .965-.785 1.75-1.75 1.75zm-1.5-3.5c-.138 0-.25.112-.25.25v1.5c0 .138.112.25.25.25h1.5c.138 0 .25-.112.25-.25v-1.5c0-.138-.112-.25-.25-.25z"/><path d="m17.25 14h-1.5c-.965 0-1.75-.785-1.75-1.75v-1.5c0-.965.785-1.75 1.75-1.75h1.5c.965 0 1.75.785 1.75 1.75v1.5c0 .965-.785 1.75-1.75 1.75zm-1.5-3.5c-.138 0-.25.112-.25.25v1.5c0 .138.112.25.25.25h1.5c.138 0 .25-.112.25-.25v-1.5c0-.138-.112-.25-.25-.25z"/><path d="m3.25 15h-2.5c-.414 0-.75-.336-.75-.75v-4.5c0-.414.336-.75.75-.75h2.5c.414 0 .75.336.75.75s-.336.75-.75.75h-1.75v3h1.75c.414 0 .75.336.75.75s-.336.75-.75.75z"/><path d="m23.25 15h-2.5c-.414 0-.75-.336-.75-.75s.336-.75.75-.75h1.75v-3h-1.75c-.414 0-.75-.336-.75-.75s.336-.75.75-.75h2.5c.414 0 .75.336.75.75v4.5c0 .414-.336.75-.75.75z"/><path d="m12 24c-.414 0-.75-.336-.75-.75v-2.5c0-.414.336-.75.75-.75s.75.336.75.75v2.5c0 .414-.336.75-.75.75z"/></svg>
