<svg id="icon" enable-background="new 0 0 24 24" height="512" viewBox="0 0 24 24" width="512" xmlns="http://www.w3.org/2000/svg"><path d="m20.25.75c-1.23 0-2.29.74-2.75 1.79-.46-1.05-1.52-1.79-2.75-1.79-1.65 0-3 1.34-3 2.99 0 3.24 5.75 7.51 5.75 7.51s5.75-4.27 5.75-7.51c0-1.65-1.35-2.99-3-2.99z" fill="#f44336"/><path d="m15.25 23.25h-2.788c-.521 0-1.021-.203-1.394-.566l-.673-.655c-.777-.755-2.014-.755-2.79.001l-.67.652c-.374.364-.875.568-1.396.568h-2.789c-1.105 0-2-.895-2-2v-7h16.5v7c0 1.105-.895 2-2 2z" fill="#00bcd4"/><path d="m17.25 20.25h-2.5v-2.5h2.5z" fill="#0097a7"/><path d="m3.25 20.25h-2.5v-2.5h2.5z" fill="#0097a7"/><path d="m17.5 12c-.157 0-.314-.05-.447-.148-.62-.46-6.053-4.601-6.053-8.114 0-2.061 1.683-3.738 3.75-3.738 1.063 0 2.054.446 2.75 1.194.696-.748 1.687-1.194 2.75-1.194 2.067 0 3.75 1.677 3.75 3.738 0 3.513-5.433 7.653-6.053 8.113-.133.099-.29.149-.447.149zm-2.75-10.5c-1.24 0-2.25 1.004-2.25 2.238 0 2.142 3.275 5.191 5 6.564 1.724-1.374 5-4.427 5-6.564 0-1.234-1.01-2.238-2.25-2.238-.897 0-1.707.527-2.063 1.343-.238.547-1.137.547-1.375 0-.355-.816-1.165-1.343-2.062-1.343z"/><path d="m15.25 24h-2.813c-.818 0-1.589-.36-2.112-.989l-.365-.437c-.477-.572-1.443-.571-1.92-.001l-.364.438c-.524.629-1.294.989-2.113.989h-2.813c-1.517 0-2.75-1.233-2.75-2.75v-7c0-.414.336-.75.75-.75h16.5c.414 0 .75.336.75.75v7c0 1.517-1.233 2.75-2.75 2.75zm-6.25-3.376c.819 0 1.589.36 2.112.99l.364.436c.238.286.588.45.96.45h2.813c.689 0 1.25-.561 1.25-1.25v-6.25h-15v6.25c0 .689.561 1.25 1.25 1.25h2.813c.372 0 .722-.164.96-.45l.364-.437c.525-.629 1.295-.989 2.114-.989z"/><path d="m.749 15c-.143 0-.287-.041-.415-.126-.345-.229-.438-.695-.208-1.04l3-4.5c.139-.209.373-.334.624-.334h2.25c.223 0 .434.099.576.27.953 1.145 2.895 1.145 3.848 0 .142-.171.353-.27.576-.27h.16c.414 0 .75.336.75.75 0 .347-.235.639-.555.725-.75.764-1.773 1.195-2.855 1.195-1.069 0-2.082-.422-2.83-1.17h-1.519l-2.777 4.166c-.145.217-.383.334-.625.334z"/><path d="m17.25 21h-2.5c-.414 0-.75-.336-.75-.75v-2.5c0-.414.336-.75.75-.75h2.5c.414 0 .75.336.75.75s-.336.75-.75.75h-1.75v1h1.75c.414 0 .75.336.75.75s-.336.75-.75.75z"/><path d="m3.25 21h-2.5c-.414 0-.75-.336-.75-.75s.336-.75.75-.75h1.75v-1h-1.75c-.414 0-.75-.336-.75-.75s.336-.75.75-.75h2.5c.414 0 .75.336.75.75v2.5c0 .414-.336.75-.75.75z"/><path d="m11.25 19h-4.5c-.414 0-.75-.336-.75-.75s.336-.75.75-.75h4.5c.414 0 .75.336.75.75s-.336.75-.75.75z"/></svg>
