<svg id="icon" enable-background="new 0 0 24 24" height="512" viewBox="0 0 24 24" width="512" xmlns="http://www.w3.org/2000/svg"><path d="m21.25 16.25h-5.81c-.861 0-1.649-.487-2.033-1.258l-.289-.579c-.216-.432-.634-.69-1.118-.69s-.902.258-1.118.691l-.139.279c-.478.955-1.454 1.558-2.522 1.558h-5.471c-1.105 0-2-.895-2-2v-8.5c0-1.105.895-2 2-2h18.5c1.105 0 2 .895 2 2v8.5c0 1.104-.895 1.999-2 1.999z" fill="#00bcd4"/><path d="m8.25 12.25h-3.5c-.552 0-1-.448-1-1v-3.5c0-.552.448-1 1-1h3.5c.552 0 1 .448 1 1v3.5c0 .552-.448 1-1 1z" fill="#fff"/><path d="m19.25 12.25h-3.5c-.552 0-1-.448-1-1v-3.5c0-.552.448-1 1-1h3.5c.552 0 1 .448 1 1v3.5c0 .552-.448 1-1 1z" fill="#fff"/><path d="m21.25 17h-5.514c-1.048 0-1.99-.583-2.46-1.52l-.158-.317c-.217-.432-.635-.69-1.118-.69s-.901.258-1.118.691l-.158.316c-.47.937-1.412 1.52-2.46 1.52h-5.514c-1.517 0-2.75-1.233-2.75-2.75v-8.5c0-1.517 1.233-2.75 2.75-2.75h18.5c1.517 0 2.75 1.233 2.75 2.75v8.5c0 1.517-1.233 2.75-2.75 2.75zm-9.25-4.028c1.048 0 1.991.583 2.46 1.52l.158.317c.213.426.642.69 1.118.69h5.514c.689 0 1.25-.561 1.25-1.25v-8.5c0-.689-.561-1.25-1.25-1.25h-18.5c-.689.001-1.25.562-1.25 1.251v8.5c0 .689.561 1.25 1.25 1.25h5.514c.477 0 .905-.265 1.118-.691l.158-.316c.469-.938 1.412-1.521 2.46-1.521z"/><path d="m8.25 13h-3.5c-.965 0-1.75-.785-1.75-1.75v-3.5c0-.965.785-1.75 1.75-1.75h3.5c.965 0 1.75.785 1.75 1.75v3.5c0 .965-.785 1.75-1.75 1.75zm-3.5-5.5c-.138 0-.25.112-.25.25v3.5c0 .138.112.25.25.25h3.5c.138 0 .25-.112.25-.25v-3.5c0-.138-.112-.25-.25-.25z"/><path d="m19.25 13h-3.5c-.965 0-1.75-.785-1.75-1.75v-3.5c0-.965.785-1.75 1.75-1.75h3.5c.965 0 1.75.785 1.75 1.75v3.5c0 .965-.785 1.75-1.75 1.75zm-3.5-5.5c-.138 0-.25.112-.25.25v3.5c0 .138.112.25.25.25h3.5c.138 0 .25-.112.25-.25v-3.5c0-.138-.112-.25-.25-.25z"/><path d="m20.25 4.5c-.414 0-.75-.336-.75-.75v-1c0-.689-.561-1.25-1.25-1.25h-12.5c-.689 0-1.25.561-1.25 1.25v1c0 .414-.336.75-.75.75s-.75-.336-.75-.75v-1c0-1.517 1.233-2.75 2.75-2.75h12.5c1.517 0 2.75 1.233 2.75 2.75v1c0 .414-.336.75-.75.75z"/><path d="m10.501 24c-.229 0-.454-.104-.601-.3-.249-.332-.182-.802.149-1.05l1.2-.9-1.2-.9c-.33-.248-.398-.719-.149-1.05.246-.331.718-.399 1.05-.15l2 1.5c.188.142.3.364.3.6s-.111.458-.3.6l-2 1.5c-.135.101-.293.15-.449.15z"/><path d="m12 22.5c-1.491 0-2.902-.072-4.192-.214-2.344-.242-7.808-1.07-7.808-3.536 0-.414.336-.75.75-.75s.75.336.75.75c0 .354 1.592 1.542 6.467 2.044 1.241.137 2.596.206 4.033.206.414 0 .75.336.75.75s-.336.75-.75.75z"/><path d="m15.413 22.35c-.386 0-.714-.296-.746-.688-.035-.413.271-.775.685-.81 5.092-.425 7.148-1.66 7.148-2.103 0-.414.336-.75.75-.75s.75.337.75.751c0 2.604-5.961 3.383-8.523 3.598-.022.001-.042.002-.064.002z"/></svg>
