<svg id="icon" enable-background="new 0 0 24 24" height="512" viewBox="0 0 24 24" width="512" xmlns="http://www.w3.org/2000/svg"><path d="m21.25 23.25h-18.5c-1.105 0-2-.895-2-2v-10h22.5v10c0 1.105-.895 2-2 2z" fill="#00bcd4"/><path d="m23.25 19.25h-2.5c-.552 0-1-.448-1-1v-2.5c0-.552.448-1 1-1h2.5z" fill="#fff"/><path d="m3.25 19.25h-2.5v-4.5h2.5c.552 0 1 .448 1 1v2.5c0 .552-.448 1-1 1z" fill="#fff"/><path d="m23.25 12h-22.5c-.236 0-.458-.111-.599-.299-.142-.188-.187-.432-.122-.659l2.6-9.03c.326-1.181 1.417-2.012 2.651-2.012h1.5c.353 0 .658.247.733.591l.072.332c.447 2.073 2.309 3.577 4.429 3.577 2.14 0 3.958-1.459 4.423-3.548l.081-.365c.076-.343.38-.587.732-.587h1.47c1.234 0 2.325.831 2.653 2.021l2.598 9.021c.065.227.02.47-.122.659-.141.188-.363.299-.599.299zm-21.503-1.5h20.507l-2.324-8.072c-.152-.55-.648-.928-1.21-.928h-.873c-.695 2.661-3.062 4.5-5.833 4.5-2.732 0-5.143-1.877-5.833-4.5h-.901c-.562 0-1.058.378-1.207.919z"/><path d="m21.25 24h-18.5c-1.517 0-2.75-1.233-2.75-2.75v-10c0-.414.336-.75.75-.75s.75.336.75.75v10c0 .689.561 1.25 1.25 1.25h18.5c.689 0 1.25-.561 1.25-1.25v-10c0-.414.336-.75.75-.75s.75.336.75.75v10c0 1.517-1.233 2.75-2.75 2.75z"/><path d="m23.25 20h-2.5c-.965 0-1.75-.785-1.75-1.75v-2.5c0-.965.785-1.75 1.75-1.75h2.5v1.5h-2.5c-.138 0-.25.112-.25.25v2.5c0 .138.112.25.25.25h2.5z"/><path d="m3.25 20h-2.5v-1.5h2.5c.138 0 .25-.112.25-.25v-2.5c0-.138-.112-.25-.25-.25h-2.5v-1.5h2.5c.965 0 1.75.785 1.75 1.75v2.5c0 .965-.785 1.75-1.75 1.75z"/><path d="m15.25 17.5h-6.5c-.414 0-.75-.336-.75-.75s.336-.75.75-.75h6.5c.414 0 .75.336.75.75s-.336.75-.75.75z"/></svg>
