<svg id="icon" enable-background="new 0 0 24 24" height="512" viewBox="0 0 24 24" width="512" xmlns="http://www.w3.org/2000/svg"><path d="m21.25 20.25h-18.5c-1.105 0-2-.895-2-2v-7.5c0-1.105.895-2 2-2h18.5c1.105 0 2 .895 2 2v7.5c0 1.105-.895 2-2 2z" fill="#00bcd4"/><path d="m14.25 11.25h-4.5c-.552 0-1-.448-1-1v-1.5h6.5v1.5c0 .552-.448 1-1 1z" fill="#fff"/><path d="m15.25 20.25h-6.5v-1.5c0-.552.448-1 1-1h4.5c.552 0 1 .448 1 1z" fill="#fff"/><path d="m14.25 12h-4.5c-.965 0-1.75-.785-1.75-1.75v-1.5c0-.414.336-.75.75-.75s.75.336.75.75v1.5c0 .136.114.25.25.25h4.5c.136 0 .25-.114.25-.25v-1.5c0-.414.336-.75.75-.75s.75.336.75.75v1.5c0 .965-.785 1.75-1.75 1.75z"/><path d="m21.25 21h-18.5c-1.517 0-2.75-1.233-2.75-2.75v-7.5c0-1.517 1.233-2.75 2.75-2.75h18.5c1.517 0 2.75 1.233 2.75 2.75v7.5c0 1.517-1.233 2.75-2.75 2.75zm-18.5-11.5c-.689 0-1.25.561-1.25 1.25v7.5c0 .689.561 1.25 1.25 1.25h18.5c.689 0 1.25-.561 1.25-1.25v-7.5c0-.689-.561-1.25-1.25-1.25z"/><circle cx="19.5" cy="14.5" r="1.5"/><path d="m20.25 9.5c-.414 0-.75-.336-.75-.75v-2c0-.689-.561-1.25-1.25-1.25h-12.5c-.689 0-1.25.561-1.25 1.25v2c0 .414-.336.75-.75.75s-.75-.336-.75-.75v-2c0-1.517 1.233-2.75 2.75-2.75h12.5c1.517 0 2.75 1.233 2.75 2.75v2c0 .414-.336.75-.75.75z"/><path d="m15.25 21c-.414 0-.75-.336-.75-.75v-1.5c0-.136-.114-.25-.25-.25h-4.5c-.136 0-.25.114-.25.25v1.5c0 .414-.336.75-.75.75s-.75-.336-.75-.75v-1.5c0-.965.785-1.75 1.75-1.75h4.5c.965 0 1.75.785 1.75 1.75v1.5c0 .414-.336.75-.75.75z"/></svg>
