<svg id="icon" enable-background="new 0 0 24 24" height="512" viewBox="0 0 24 24" width="512" xmlns="http://www.w3.org/2000/svg"><path d="m15.25 23.25h-2.788c-.521 0-1.021-.203-1.394-.566l-.673-.655c-.777-.755-2.014-.755-2.79.001l-.67.652c-.374.364-.875.568-1.396.568h-2.789c-1.105 0-2-.895-2-2v-7h16.5v7c0 1.105-.895 2-2 2z" fill="#00bcd4"/><path d="m17.25 20.25h-2.5v-2.5h2.5z" fill="#0097a7"/><path d="m3.25 20.25h-2.5v-2.5h2.5z" fill="#0097a7"/><path d="m15.25 24h-2.813c-.818 0-1.589-.36-2.112-.989l-.365-.437c-.477-.572-1.443-.571-1.92-.001l-.364.438c-.524.629-1.294.989-2.113.989h-2.813c-1.517 0-2.75-1.233-2.75-2.75v-7c0-.414.336-.75.75-.75h16.5c.414 0 .75.336.75.75v7c0 1.517-1.233 2.75-2.75 2.75zm-6.25-3.376c.819 0 1.589.36 2.112.99l.364.436c.238.286.588.45.96.45h2.813c.689 0 1.25-.561 1.25-1.25v-6.25h-15v6.25c0 .689.561 1.25 1.25 1.25h2.813c.372 0 .722-.164.96-.45l.364-.437c.525-.629 1.295-.989 2.114-.989z"/><path d="m.749 15c-.143 0-.287-.041-.415-.126-.345-.229-.438-.695-.208-1.04l3-4.5c.139-.209.373-.334.624-.334h2.25c.223 0 .434.099.576.27.955 1.146 2.893 1.146 3.848 0 .142-.171.353-.27.576-.27h2.25c.214 0 .418.092.561.252l4 4.5c.275.31.247.783-.063 1.059-.308.273-.782.249-1.059-.063l-3.776-4.248h-1.583c-.748.748-1.761 1.171-2.83 1.171s-2.082-.423-2.83-1.171h-1.519l-2.777 4.166c-.145.217-.383.334-.625.334z"/><path d="m17.25 21h-2.5c-.414 0-.75-.336-.75-.75v-2.5c0-.414.336-.75.75-.75h2.5c.414 0 .75.336.75.75s-.336.75-.75.75h-1.75v1h1.75c.414 0 .75.336.75.75s-.336.75-.75.75z"/><path d="m3.25 21h-2.5c-.414 0-.75-.336-.75-.75s.336-.75.75-.75h1.75v-1h-1.75c-.414 0-.75-.336-.75-.75s.336-.75.75-.75h2.5c.414 0 .75.336.75.75v2.5c0 .414-.336.75-.75.75z"/><path d="m11.25 19h-4.5c-.414 0-.75-.336-.75-.75s.336-.75.75-.75h4.5c.414 0 .75.336.75.75s-.336.75-.75.75z"/><circle cx="19.5" cy="7" r="1"/><path d="m21.544 5.38c-.196 0-.393-.077-.54-.229-.809-.838-2.199-.838-3.008 0-.288.298-.762.308-1.061.02-.298-.287-.307-.763-.02-1.061 1.379-1.432 3.789-1.432 5.168 0 .287.298.278.773-.02 1.061-.144.14-.332.209-.519.209z"/><path d="m23.25 3.11c-.196 0-.393-.077-.54-.229-.858-.891-1.998-1.381-3.21-1.381s-2.352.49-3.21 1.381c-.287.298-.762.308-1.061.02-.298-.287-.307-.762-.02-1.061 1.145-1.187 2.668-1.84 4.291-1.84s3.146.653 4.29 1.84c.287.299.278.773-.02 1.061-.145.14-.332.209-.52.209z"/></svg>
