<svg id="icon" enable-background="new 0 0 24 24" height="512" viewBox="0 0 24 24" width="512" xmlns="http://www.w3.org/2000/svg"><path d="m11.429 24v-1.516l-2.492.681c-.151.054-.341.085-.544.085-1.024 0-1.857-.833-1.857-1.857v-2.786h-1.857c-.521 0-.929-.408-.929-.929 0-.175.049-.342.144-.496l2.166-3.437c.294-.466.481-1.001.476-1.552-.05-5.075 4.443-9.132 9.651-8.345 3.603.544 6.492 3.484 6.983 7.095.291 2.14-.226 4.243-1.447 5.975-.812 1.153-1.26 2.522-1.26 3.932v3.15z" fill="#ffcc80"/><path d="m10.75 15.25h-8c-1.105 0-2-.895-2-2v-4.5c0-1.105.895-2 2-2h8c.552 0 1 .448 1 1v6.5c0 .552-.448 1-1 1z" fill="#00bcd4"/><path d="m18.78 4.665v-3.33c0-.41.339-.681.631-.496l2.618 1.665c.148.093.241.286.241.496s-.093.403-.241.496l-2.618 1.665c-.289.184-.631-.083-.631-.496z" fill="#f44336"/><path d="m22.25 12.5h-13.5c-.552 0-1-.448-1-1v-1.25c0-.552.448-1 1-1h13.5c.552 0 1 .448 1 1v1.25c0 .552-.448 1-1 1z" fill="#607d8b"/><path d="m18.75 6c-.137 0-.274-.038-.395-.112-.22-.137-.355-.378-.355-.638v-4.5c0-.26.135-.501.355-.638s.497-.148.73-.033l4.5 2.25c.254.127.415.387.415.671s-.161.544-.415.671l-4.5 2.25c-.106.053-.22.079-.335.079zm.75-4.037v2.073l2.073-1.036z"/><path d="m10.75 16h-8c-1.517 0-2.75-1.233-2.75-2.75v-4.5c0-1.517 1.233-2.75 2.75-2.75h8c.965 0 1.75.785 1.75 1.75v1.5h-1.5v-1.5c0-.136-.114-.25-.25-.25h-8c-.689 0-1.25.561-1.25 1.25v4.5c0 .689.561 1.25 1.25 1.25h8c.136 0 .25-.114.25-.25v-1.5h1.5v1.5c0 .965-.785 1.75-1.75 1.75z"/><path d="m20.33 24c-.414 0-.75-.336-.75-.75v-1.92c0-1.769.534-3.469 1.545-4.919.776-1.104 1.242-2.39 1.348-3.721.032-.413.382-.722.807-.688.413.033.721.394.688.807-.127 1.598-.685 3.141-1.614 4.462-.833 1.194-1.273 2.599-1.273 4.059v1.92c-.001.414-.337.75-.751.75z"/><path d="m22.75 10c-.312 0-.603-.195-.709-.506-.204-.593-.496-1.168-.868-1.708-.235-.341-.149-.808.192-1.043.342-.234.808-.149 1.043.192.45.653.804 1.35 1.052 2.072.134.392-.074.818-.466.953-.081.027-.163.04-.244.04z"/><path d="m8.589 7.5c-.169 0-.339-.057-.478-.173-.319-.264-.363-.738-.098-1.056 1.851-2.229 4.643-3.409 7.53-3.25.414.024.73.378.707.792s-.372.721-.792.707c-2.408-.143-4.744.847-6.291 2.71-.148.178-.362.27-.578.27z"/><path d="m8.14 24.07c-1.224 0-2.22-.996-2.22-2.22v-2.68h-1.68c-.695 0-1.24-.545-1.24-1.24 0-.228.067-.456.195-.659l1.52-2.42c.221-.351.684-.455 1.034-.236.351.221.457.684.236 1.034l-1.27 2.021h1.955c.414 0 .75.336.75.75v3.43c0 .397.323.72.72.72.067 0 .13-.009.178-.026l3.013-.921c.228-.069.474-.027.666.114.191.142.304.365.304.603v.91c0 .414-.336.75-.75.75-.38 0-.694-.283-.743-.649l-2.018.616c-.179.065-.409.103-.65.103z"/><path d="m3.75 16c-.414 0-.75-.336-.75-.75v-8.5c0-.414.336-.75.75-.75s.75.336.75.75v8.5c0 .414-.336.75-.75.75z"/><path d="m23.25 13.5h-14.5c-.965 0-1.75-.785-1.75-1.75v-1.5c0-.965.785-1.75 1.75-1.75h14.5c.414 0 .75.336.75.75v3.5c0 .414-.336.75-.75.75zm-14.5-3.5c-.138 0-.25.112-.25.25v1.5c0 .138.112.25.25.25h13.75v-2z"/></svg>
