<svg id="icon" enable-background="new 0 0 24 24" height="512" viewBox="0 0 24 24" width="512" xmlns="http://www.w3.org/2000/svg"><path d="m20.464 23.143h-8.786v-3.802l-2.742.931c-.151.054-.341.085-.544.085-1.024 0-1.857-.833-1.857-1.857v-2.786h-1.856c-.521 0-.929-.408-.929-.929 0-.175.049-.342.144-.496l2.166-3.437c.294-.465.482-1.001.476-1.552-.05-5.075 4.443-9.132 9.652-8.345 3.441.52 6.264 3.225 6.91 6.644.425 2.25-.048 4.485-1.3 6.319-.82 1.201-1.333 2.584-1.333 4.038z" fill="#ffcc80"/><path d="m10.5 12.25h-7.75c-1.105 0-2-.895-2-2v-4.5c0-1.105.895-2 2-2h7.75c.552 0 1 .448 1 1v6.5c0 .552-.448 1-1 1z" fill="#00bcd4"/><path d="m22.25 9.75h-13.5c-.552 0-1-.448-1-1v-1.5c0-.552.448-1 1-1h13.5c.552 0 1 .448 1 1v1.5c0 .552-.448 1-1 1z" fill="#607d8b"/><path d="m10.75 13h-8c-1.517 0-2.75-1.233-2.75-2.75v-4.5c0-1.517 1.233-2.75 2.75-2.75h8c.965 0 1.75.785 1.75 1.75v1.5c0 .414-.336.75-.75.75s-.75-.336-.75-.75v-1.5c0-.136-.114-.25-.25-.25h-8c-.689 0-1.25.561-1.25 1.25v4.5c0 .689.561 1.25 1.25 1.25h8c.136 0 .25-.114.25-.25v-1.5c0-.414.336-.75.75-.75s.75.336.75.75v1.5c0 .965-.785 1.75-1.75 1.75z"/><path d="m22.25 10.5h-13.5c-.965 0-1.75-.785-1.75-1.75v-1.5c0-.965.785-1.75 1.75-1.75h13.5c.965 0 1.75.785 1.75 1.75v1.5c0 .965-.785 1.75-1.75 1.75zm-13.5-3.5c-.138 0-.25.112-.25.25v1.5c0 .138.112.25.25.25h13.5c.138 0 .25-.112.25-.25v-1.5c0-.138-.112-.25-.25-.25z"/><path d="m3.75 13c-.414 0-.75-.336-.75-.75v-8.5c0-.414.336-.75.75-.75s.75.336.75.75v8.5c0 .414-.336.75-.75.75z"/><path d="m20.33 24h-8.78c-.414 0-.75-.336-.75-.75v-2.897l-2.011.614c-.18.065-.409.103-.649.103-1.224 0-2.22-.996-2.22-2.22v-2.68h-1.68c-.695 0-1.24-.545-1.24-1.24 0-.226.066-.453.193-.656l1.521-2.423c.219-.349.681-.457 1.033-.236.352.22.457.683.236 1.034l-1.267 2.021h1.954c.414 0 .75.336.75.75v3.43c0 .397.323.72.72.72.067 0 .132-.009.181-.027l3.011-.92c.226-.069.475-.027.665.114.191.142.304.365.304.603v3.16h7.28v-4.17c0-1.768.534-3.469 1.545-4.919.9-1.279 1.375-2.779 1.375-4.341 0-.414.336-.75.75-.75s.749.336.749.75c0 1.873-.569 3.672-1.646 5.202-.832 1.195-1.273 2.599-1.273 4.059v4.92c-.001.413-.337.749-.751.749z"/><path d="m22.82 7.18c-.314 0-.606-.199-.712-.513-1.03-3.09-3.903-5.167-7.148-5.167-2.24 0-4.353.995-5.793 2.729-.266.318-.737.362-1.057.098-.318-.265-.362-.738-.097-1.056 1.727-2.079 4.259-3.271 6.947-3.271 3.892 0 7.337 2.489 8.572 6.193.131.393-.082.818-.475.949-.078.026-.159.038-.237.038z"/></svg>
