<svg id="icon" height="511pt" viewBox="-138 0 511 511.25867" width="511pt" xmlns="http://www.w3.org/2000/svg"><path d="m126.253906 4.335938c-4.011718-5.78125-13.570312-5.78125-17.558594 0-6.996093 10.113281-23.234374 35.09375-23.234374 48.726562 0 17.640625 14.359374 32 32 32 17.644531 0 32-14.359375 32-32 0-13.632812-16.234376-38.613281-23.207032-48.726562zm0 0" fill="#ffc107"/><path d="m138.796875 85.0625h-42.667969c-5.886718 0-10.667968 4.777344-10.667968 10.664062v170.667969c0 5.886719 4.78125 10.667969 10.667968 10.667969h42.667969c5.886719 0 10.664063-4.78125 10.664063-10.667969v-170.667969c0-5.886718-4.777344-10.664062-10.664063-10.664062zm0 0" fill="#90a4ae"/><path d="m117.460938 255.257812c-64.703126 0-117.332032 52.628907-117.332032 117.335938 0 35.027344 15.488282 67.539062 42.667969 90.003906v37.996094c0 5.886719 4.777344 10.664062 10.664063 10.664062h42.667968c-5.886718 0-10.667968-4.777343-10.667968-10.664062v-21.335938c0-5.886718 4.78125-10.664062 10.667968-10.664062 5.886719 0 10.667969 4.777344 10.667969 10.664062v21.335938c0 5.886719-4.78125 10.664062-10.667969 10.664062h42.667969c-5.890625 0-10.667969-4.777343-10.667969-10.664062v-21.335938c0-5.886718 4.777344-10.664062 10.667969-10.664062 5.886719 0 10.664063 4.777344 10.664063 10.664062v21.335938c0 5.886719-4.777344 10.664062-10.664063 10.664062h42.664063c5.890624 0 10.667968-4.777343 10.667968-10.664062v-37.996094c27.179688-22.464844 42.667969-54.976562 42.667969-90.003906 0-64.707031-52.628906-117.335938-117.335937-117.335938zm0 0" fill="#b0bec5"/><path d="m191.574219 381.53125c-2.472657-12.566406-11.390625-20.375-22.867188-19.585938-16.195312.40625-38.507812 17.453126-40.449219 30.933594-1.257812 8.597656 1.042969 16.8125 6.507813 23.105469 5.886719 6.804687 15.082031 10.730469 25.191406 10.730469 8.152344 0 15.980469-4.074219 22.039063-11.457032 7.828125-9.535156 11.667968-23.082031 9.578125-33.726562zm0 0" fill="#455a64"/><path d="m65.964844 361.925781c-12.628906-.855469-20.460938 7.019531-22.957032 19.5625-2.109374 10.582031 1.707032 24.085938 9.515626 33.621094 6.125 7.464844 14.039062 11.582031 22.273437 11.582031 10.21875 0 19.476563-3.945312 25.40625-10.792968 5.441406-6.292969 7.746094-14.464844 6.484375-23.039063-1.980469-13.460937-24.425781-30.527344-40.722656-30.933594zm0 0" fill="#455a64"/><path d="m181.460938 511.257812h-128c-5.886719 0-10.664063-4.777343-10.664063-10.664062v-37.996094c-27.179687-22.464844-42.667969-54.976562-42.667969-90.003906 0-64.707031 52.652344-117.335938 117.332032-117.335938 64.683593 0 117.335937 52.628907 117.335937 117.335938 0 35.027344-15.488281 67.539062-42.667969 90.003906v37.996094c0 5.886719-4.777344 10.664062-10.667968 10.664062zm-117.332032-21.332031h106.667969v-32.492187c0-3.347656 1.554687-6.503906 4.222656-8.511719 24.449219-18.453125 38.441407-46.269531 38.441407-76.328125 0-52.929688-43.070313-96-96-96-52.925782 0-96 43.050781-96 96 0 30.058594 13.996093 57.875 38.445312 76.328125 2.664062 2.007813 4.222656 5.164063 4.222656 8.511719zm0 0"/><path d="m138.796875 511.257812c-5.890625 0-10.667969-4.777343-10.667969-10.664062v-21.335938c0-5.886718 4.777344-10.664062 10.667969-10.664062 5.886719 0 10.664063 4.777344 10.664063 10.664062v21.335938c0 5.886719-4.777344 10.664062-10.664063 10.664062zm0 0"/><path d="m96.128906 511.257812c-5.886718 0-10.667968-4.777343-10.667968-10.664062v-21.335938c0-5.886718 4.78125-10.664062 10.667968-10.664062 5.886719 0 10.667969 4.777344 10.667969 10.664062v21.335938c0 5.886719-4.78125 10.664062-10.667969 10.664062zm0 0"/><path d="m159.9375 426.691406c-10.261719 0-19.222656-3.816406-25.214844-10.730468-5.441406-6.292969-7.746094-14.503907-6.507812-23.101563 1.984375-13.460937 24.296875-30.527344 40.46875-30.933594 11.5625-.339843 20.375 7.019531 22.828125 19.582031 2.109375 10.648438-1.730469 24.195313-9.558594 33.730469-6.039063 7.378907-13.867187 11.453125-22.015625 11.453125zm-10.644531-30.269531c-.234375 2.21875.296875 4.09375 1.578125 5.589844 1.835937 2.132812 5.140625 3.347656 9.066406 3.347656 1.621094 0 3.648438-1.320313 5.566406-3.648437 4.117188-5.011719 5.867188-12.246094 5.121094-16.042969-.339844-1.597657-.746094-2.367188-.894531-2.515625-3.949219-1.238282-17.984375 8.148437-20.4375 13.269531zm-10.496094-2.027344h.210937zm0 0"/><path d="m74.796875 426.691406c-8.234375 0-16.148437-4.09375-22.273437-11.5625-7.808594-9.511718-11.625-23.015625-9.515626-33.621094 2.476563-12.5625 10.882813-20.265624 22.933594-19.5625 16.300782.40625 38.742188 17.453126 40.746094 30.914063 1.261719 8.554687-1.042969 16.746094-6.484375 23.039063-5.910156 6.847656-15.1875 10.792968-25.40625 10.792968zm-10.21875-43.367187c.085937 0-.363281.746093-.664063 2.34375-.746093 3.757812 1.003907 10.925781 5.101563 15.917969 1.960937 2.386718 4.050781 3.773437 5.78125 3.773437 4.011719 0 7.402344-1.257813 9.277344-3.414063 1.28125-1.46875 1.792969-3.304687 1.558593-5.503906-2.644531-5.460937-17.171874-14.527344-21.054687-13.117187zm0 0"/><path d="m138.796875 277.0625h-42.667969c-5.886718 0-10.667968-4.78125-10.667968-10.667969v-170.667969c0-5.886718 4.78125-10.664062 10.667968-10.664062h42.667969c5.886719 0 10.664063 4.777344 10.664063 10.664062v170.667969c0 5.910157-4.777344 10.667969-10.664063 10.667969zm-32-21.335938h21.332031v-149.332031h-21.332031zm0 0"/><path d="m117.460938 106.394531c-5.886719 0-10.664063-4.777343-10.664063-10.667969v-21.332031c0-5.886719 4.777344-10.667969 10.664063-10.667969 5.890624 0 10.667968 4.78125 10.667968 10.667969v21.332031c0 5.910157-4.777344 10.667969-10.667968 10.667969zm0 0"/><path d="m117.460938 85.0625c-17.640626 0-32-14.359375-32-32 0-13.632812 16.257812-38.613281 23.234374-48.726562 3.96875-5.78125 13.589844-5.78125 17.535157 0 6.976562 10.113281 23.230469 35.09375 23.230469 48.726562 0 17.640625-14.355469 32-32 32zm0-54.890625c-6.140626 10.34375-10.578126 19.648437-10.664063 22.910156 0 5.867188 4.800781 10.667969 10.664063 10.667969 5.867187 0 10.667968-4.78125 10.667968-10.667969-.105468-3.285156-4.523437-12.585937-10.667968-22.910156zm0 0"/></svg>
