<svg id="icon" height="512pt" viewBox="0 -6 512.04902 512" width="512pt" xmlns="http://www.w3.org/2000/svg"><path d="m511.371094 197.976562c-1.003906-2.710937-3.050782-4.910156-5.699219-6.082031l-24.617187-10.945312c-5.375-2.34375-11.582032-.019531-14.015626 5.3125-8.363281 18.21875-24.0625 53.140625-35.519531 82.710937-1.921875 4.90625.0625 10.472656 4.628907 13.097656l20.011718 11.433594c1.621094.917969 3.433594 1.386719 5.269532 1.386719 1.066406 0 2.152343-.167969 3.15625-.46875 2.835937-.875 5.140624-2.898437 6.441406-5.546875l39.914062-82.601562c1.261719-2.601563 1.410156-5.589844.429688-8.296876zm0 0" fill="#607d8b"/><path d="m383.242188 137.515625-63.0625-29.140625c-51.457032-22.699219-77.992188-27.734375-103.65625-32.574219-23.148438-4.398437-44.992188-8.515625-85.015626-26.925781-42.113281-19.371094-63.808593-44.796875-64.042968-45.054688-2.28125-2.710937-5.652344-4.117187-9.363282-3.7343745-3.542968.4062505-6.679687 2.5390625-8.300781 5.7382815l-48.617187 94.957031c-1.453125 2.816406-1.578125 6.144531-.320313 9.066406 17.664063 41.171875 47.210938 49.171875 75.796875 56.917969l5.121094 1.386719c12.5625 3.433594 36.542969 4.285156 66.898438 5.351562 47 1.664063 105.496093 3.734375 135.085937 16.578125 9.386719 4.054688 17.960937 9.960938 28.839844 17.429688 7.679687 5.289062 16.300781 11.199219 26.753906 17.554687 1.683594 1.027344 3.605469 1.539063 5.546875 1.539063 1.003906 0 2.003906-.152344 2.984375-.429688 2.882813-.832031 5.25-2.835937 6.59375-5.523437 11.796875-23.828125 24.769531-50.238282 33.898437-68.800782 1.257813-2.582031 1.429688-5.566406.46875-8.277343-.960937-2.707031-3.007812-4.863281-5.609374-6.058594zm0 0" fill="#607d8b"/><path d="m495.050781 176.449219c2.453125-5.203125.339844-11.433594-4.800781-14.058594l-94.933594-48.617187c-2.539062-1.28125-5.484375-1.496094-8.234375-.621094-2.710937.917968-4.949219 2.882812-6.207031 5.441406 0 0-43.992188 90.027344-64.171875 129.984375-14.71875 29.160156-78.25 50.582031-101.484375 56.382813-3.796875.960937-6.761719 3.925781-7.742188 7.703124-1.878906 7.316407 4.136719 14.355469 9.601563 19.648438 3.242187 3.132812 8 3.433594 12.09375 1.386719 2.347656-1.152344 4.097656-3.285157 5.054687-5.761719 27.050782-4.609375 61.398438-7.082031 81.367188 9.835938 8.042969 6.824218 13.097656 11.988281 17.386719 16.363281 8.894531 9.066406 15.339843 15.613281 35.542969 25.726562 6.183593 3.09375 11.878906 5.675781 17 8 12.246093 5.546875 17.386718 8.277344 19.265624 10.429688-5.398437 3.992187-9.835937 9.921875-13.226562 17.773437-1.238281 2.878906-1.175781 6.121094.234375 8.9375 1.363281 2.816406 3.925781 4.863282 6.933594 5.632813 22.078125 5.632812 38.269531 6.675781 47.421875 6.675781 5.3125 0 8.257812-.363281 8.554687-.40625 3.265625-.445312 6.1875-2.367188 7.832031-5.246094 1.664063-2.878906 1.898438-6.355468.617188-9.40625-9.257812-22.378906-31.105469-87.363281-21.332031-118.914062 12.734375-40.960938 52.839843-126.035156 53.226562-126.890625zm0 0" fill="#cfd8dc"/><path d="m394.378906 368.40625c-4.886718-2.21875-10.347656-4.691406-16.277344-7.636719-17.046874-8.511719-21.867187-13.441406-29.867187-21.589843-4.652344-4.734376-10.113281-10.28125-18.796875-17.664063-29.074219-24.660156-75.21875-19.261719-107.453125-13.011719-5.144531.980469-8.789063 5.546875-8.640625 10.773438.683594 23.59375 10.921875 35.730468 19.96875 46.441406 11.710938 13.886719 21.824219 25.878906 12.308594 68.222656-.535156 2.328125-2.15625 6.167969-3.839844 10.347656-4.289062 10.710938-7.105469 18.132813-7.105469 24.023438 0 17.640625 14.359375 32 32 32 17.644531 0 32-14.359375 32-32 0-4.566406-.765625-12.757812-2.921875-20.757812-1.769531-6.636719 4.84375-14.742188 19.136719-23.488282 5.332031-3.222656 28.371094-9.792968 35.96875-4.332031 3.433594 2.476563 2.34375 9.984375 1.386719 14.230469-.515625 2.347656-2.15625 6.1875-3.84375 10.410156-4.242188 10.667969-7.058594 18.070312-7.058594 23.9375 0 17.640625 14.355469 32 32 32 17.640625 0 32-14.359375 31.976562-33.472656-.765624-34.605469 6.871094-49.8125 14.316407-52.480469 3.347656-1.238281 5.886719-4.03125 6.742187-7.53125 5.226563-21.546875-12.84375-29.761719-32-38.421875zm0 0" fill="#f44336"/><path d="m461.429688 294.914062c-1.835938 0-3.648438-.46875-5.269532-1.386718l-20.011718-11.457032c-4.566407-2.625-6.550782-8.191406-4.628907-13.121093 10.792969-27.816407 25.28125-60.328125 35.519531-82.707031 2.433594-5.3125 8.574219-7.703126 14.039063-5.3125l24.636719 10.945312c2.648437 1.171875 4.695312 3.371094 5.675781 6.078125 1.003906 2.710937.855469 5.71875-.40625 8.320313l-39.914063 82.625c-1.28125 2.664062-3.605468 4.671874-6.421874 5.546874-1.085938.320313-2.152344.46875-3.21875.46875zm-6.679688-26.773437 2.027344 1.171875 30.164062-62.398438-4.90625-2.175781c-7.65625 16.960938-18.386718 41.214844-27.285156 63.402344zm0 0"/><path d="m344.882812 226.625c-1.941406 0-3.839843-.511719-5.523437-1.558594-10.496094-6.355468-19.113281-12.285156-26.835937-17.597656-10.839844-7.46875-19.414063-13.355469-28.757813-17.410156-29.589844-12.839844-88.042969-14.890625-135.042969-16.554688-30.378906-1.066406-54.378906-1.917968-66.941406-5.375l-5.101562-1.363281c-28.585938-7.746094-58.152344-15.746094-75.816407-56.941406-1.257812-2.921875-1.132812-6.226563.320313-9.066407l48.617187-94.933593c1.621094-3.175781 4.738281-5.332031 8.300781-5.714844 3.5625-.429687 7.082032 1 9.363282 3.730469.214844.257812 21.929687 25.6875 64.023437 45.058594 40.019531 18.410156 61.867188 22.527343 84.992188 26.902343 25.664062 4.863281 52.199219 9.855469 103.65625 32.574219l63.0625 29.164062c2.601562 1.191407 4.609375 3.410157 5.566406 6.121094.960937 2.6875.789063 5.675782-.46875 8.257813-9.085937 18.558593-22.078125 44.96875-33.875 68.820312-1.324219 2.664063-3.714844 4.671875-6.59375 5.503907-.9375.253906-1.941406.382812-2.945313.382812zm-322.367187-120.726562c13.546875 27.777343 33.132813 33.070312 59.734375 40.277343l5.164062 1.410157c10.175782 2.792968 35.367188 3.667968 62.058594 4.609374 48.789063 1.726563 109.503906 3.859376 142.78125 18.300782 11.242188 4.886718 21.035156 11.605468 32.363282 19.414062 4.863281 3.328125 10.089843 6.933594 15.957031 10.730469 8.277343-16.746094 16.769531-34.003906 23.808593-48.363281l-52.96875-24.488282c-49.070312-21.632812-74.390624-26.410156-98.882812-31.039062-24.445312-4.609375-47.53125-8.984375-89.941406-28.480469-29.011719-13.355469-49.152344-29.226562-60.5-39.617187zm0 0"/><path d="m446.21875 437.3125c-9.132812 0-25.324219-1.066406-47.445312-6.699219-3.03125-.765625-5.570313-2.835937-6.933594-5.628906-1.386719-2.816406-1.453125-6.082031-.214844-8.941406 3.394531-7.828125 7.828125-13.78125 13.226562-17.726563-1.875-2.175781-7.039062-4.90625-19.304687-10.476562-5.121094-2.300782-10.816406-4.882813-16.984375-7.976563-20.222656-10.132812-26.664062-16.660156-35.5625-25.75-4.285156-4.375-9.34375-9.515625-17.386719-16.339843-19.945312-16.960938-54.226562-14.488282-81.234375-9.855469-.941406 2.515625-2.730468 4.671875-5.144531 5.863281-4.050781 2.007812-8.894531 1.664062-12.117187-1.492188-5.460938-5.3125-11.519532-12.351562-9.621094-19.667968.984375-3.796875 3.96875-6.742188 7.765625-7.679688 23.234375-5.78125 86.742187-27.203125 101.460937-56.386718 20.160156-39.957032 64.171875-129.960938 64.171875-129.960938 1.257813-2.582031 3.5-4.542969 6.230469-5.441406 2.6875-.917969 5.652344-.679688 8.234375.640625l94.953125 48.621093c5.121094 2.621094 7.234375 8.832032 4.78125 14.035157-.40625.855469-40.511719 85.929687-53.183594 126.890625-9.773437 31.53125 12.09375 96.535156 21.332032 118.933594 1.28125 3.070312 1.042968 6.550781-.621094 9.40625-1.664063 2.859374-4.542969 4.800781-7.847656 5.226562-.320313.042969-3.242188.40625-8.554688.40625zm-25.003906-23.699219c6.570312 1.128907 12.160156 1.75 16.703125 2.066407-9.597657-26.921876-27.09375-84.136719-16.40625-118.652344 10.691406-34.582032 38.933593-96.683594 49.878906-120.320313l-76.117187-38.976562c-11.945313 24.40625-43.347657 88.445312-59.519532 120.445312-9.792968 19.414063-32.191406 34.519531-54.742187 45.503907 17.769531 1.410156 34.945312 6.378906 48.425781 17.816406 8.707031 7.402344 14.167969 12.949218 18.796875 17.683594 8 8.148437 12.84375 13.078124 29.867187 21.589843 5.886719 2.945313 11.347657 5.417969 16.234376 7.636719 19.15625 8.683594 37.269531 16.875 32.019531 38.421875-.683594 2.878906-2.582031 5.355469-5.140625 6.785156zm-5.207032-9.324219h.214844zm0 0"/><path d="m373.34375 500.289062c-17.644531 0-32-14.355468-32-32 0-5.84375 2.792969-13.269531 7.082031-23.9375 1.683594-4.199218 3.304688-8.0625 3.839844-10.410156.9375-4.242187 2.027344-11.753906-1.40625-14.226562-7.511719-5.421875-30.613281 1.109375-35.949219 4.328125-14.292968 8.746093-20.925781 16.875-19.15625 23.488281 2.15625 8.023438 2.921875 16.191406 2.921875 20.757812 0 17.644532-14.355469 32-32 32-17.640625 0-32-14.355468-32-32 0-5.84375 2.796875-13.269531 7.082031-23.9375 1.6875-4.199218 3.308594-8.0625 3.839844-10.410156 9.539063-42.367187-.597656-54.355468-12.308594-68.242187-9.023437-10.691407-19.261718-22.828125-19.96875-46.445313-.148437-5.226562 3.519532-9.792968 8.640626-10.773437 32.191406-6.25 78.402343-11.667969 107.457031 12.992187 8.703125 7.402344 14.164062 12.949219 18.792969 17.664063 8 8.148437 12.84375 13.078125 29.867187 21.613281 5.890625 2.941406 11.351563 5.417969 16.234375 7.636719 19.160156 8.679687 37.269531 16.875 32.023438 38.421875-.855469 3.476562-3.371094 6.292968-6.742188 7.507812-7.425781 2.6875-15.105469 17.878906-14.316406 52.480469.066406 19.136719-14.292969 33.492187-31.933594 33.492187zm-32-103.914062c7.957031 0 15.765625 1.601562 21.910156 5.996094 7.039063 5.054687 14.484375 15.445312 9.8125 36.242187-.683594 3.074219-2.644531 8.171875-4.863281 13.699219-1.878906 4.691406-5.378906 13.417969-5.546875 16.0625 0 5.800781 4.777344 10.582031 10.664062 10.582031 5.890626 0 10.667969-4.78125 10.667969-10.667969-.8125-35.945312 6.355469-59.648437 20.820313-70.035156-1.917969-2.175781-7.082032-4.910156-19.261719-10.433594-5.121094-2.304687-10.816406-4.886718-16.984375-7.980468-20.222656-10.132813-26.664062-16.660156-35.5625-25.746094-4.285156-4.375-9.34375-9.515625-17.386719-16.34375-19.625-16.683594-53.140625-14.570312-79.933593-10.070312 2.175781 10.347656 7.507812 16.683593 13.910156 24.277343 13.4375 15.9375 28.671875 33.984375 16.808594 86.679688-.683594 3.050781-2.644532 8.148437-4.863282 13.675781-1.878906 4.691406-5.375 13.417969-5.546875 16.0625 0 5.800781 4.777344 10.582031 10.667969 10.582031 5.886719 0 10.664062-4.78125 10.664062-10.667969 0-3.390624-.679687-9.621093-2.195312-15.210937-4.523438-16.9375 5.097656-32.832031 28.628906-47.210937 4.949219-3.007813 21.566406-9.492188 37.589844-9.492188zm0 0"/></svg>
