<svg id="icon" height="512pt" viewBox="-64 0 512 512.03427" width="512pt" xmlns="http://www.w3.org/2000/svg"><path d="m352.488281 264.441406c1.8125-25.921875 3.691407-55.191406-27.285156-71.210937-25.40625-13.144531-45.886719-36.714844-48.640625-56.042969-.320312-2.175781-1.300781-4.203125-2.816406-5.804688-26.023438-27.433593-80.554688-25.34375-96.617188-24.019531-26.625 2.152344-58.816406 9.941407-69.269531 25.34375-.917969 1.34375-1.515625 2.878907-1.75 4.480469-2.75 19.328125-23.230469 42.898438-48.640625 56.042969-30.972656 16.019531-29.097656 45.289062-27.285156 71.210937-22.675782 43.753906-43.6875 105.425782-19.113282 156.242188 28.992188 59.96875 112.640626 91.351562 182.207032 91.351562 67.605468 0 151.253906-31.382812 180.269531-91.351562 19.261719-39.808594 12.15625-92.371094-21.058594-156.242188zm-32.511719 207.507813c-1.214843 4.863281-5.566406 8.085937-10.347656 8.085937-.851562 0-1.707031-.109375-2.578125-.320312l-42.667969-10.667969c-5.738281-1.429687-9.195312-7.230469-7.765624-12.925781l8.425781-33.644532-44.691407-17.878906c-5.484374-2.195312-8.128906-8.402344-5.933593-13.84375 2.199219-5.441406 8.40625-8.148437 13.847656-5.929687l53.332031 21.332031c4.949219 1.984375 7.679688 7.316406 6.402344 12.480469l-8.085938 32.320312 32.320313 8.085938c5.695313 1.40625 9.171875 7.210937 7.742187 12.90625zm0 0" fill="#cfd8dc"/><g fill="#455a64"><path d="m116.648438 234.699219c-13.355469 0-26.324219 6.890625-36.585938 19.394531-13.269531 16.234375-20.074219 39.828125-16.535156 57.363281 3.90625 19.285157 16.300781 30.273438 34.113281 30.273438.382813 0 .746094 0 1.132813-.023438 29.503906-.746093 68.136718-32.191406 71.101562-52.117187 2.070312-13.78125-1.578125-26.898438-10.261719-36.96875-9.855469-11.371094-25.511719-17.921875-42.964843-17.921875zm0 0"/><path d="m302.570312 254.09375c-10.261718-12.503906-23.234374-19.394531-36.589843-19.394531-17.449219 0-33.105469 6.550781-42.941407 17.921875-8.683593 10.089844-12.332031 23.210937-10.261718 36.96875 2.964844 19.949218 41.601562 51.371094 71.105468 52.117187.382813.023438.746094.023438 1.128907.023438 17.8125 0 30.207031-10.988281 34.113281-30.273438 3.519531-17.535156-3.285156-41.128906-16.554688-57.363281zm0 0"/><path d="m212.648438 149.367188c-12.351563 0-21.332032 13.460937-21.332032 32 0-18.539063-8.980468-32-21.335937-32-12.351563 0-21.332031 13.460937-21.332031 32 0 15.210937 18.878906 34.261718 24.660156 39.746093 2.027344 1.917969 4.671875 2.921875 7.339844 2.921875 1.410156 0 2.859374-.300781 4.203124-.875 3.925782-1.6875 6.464844-5.527344 6.464844-9.792968 0 4.265624 2.539063 8.105468 6.464844 9.792968 1.34375.574219 2.792969.875 4.199219.875 2.667969 0 5.3125-1.003906 7.339843-2.921875 5.78125-5.484375 24.660157-24.535156 24.660157-39.746093 0-18.539063-8.980469-32-21.332031-32zm0 0"/></g><path d="m193.277344 512.035156c-69.589844 0-153.214844-31.382812-182.226563-91.351562-24.578125-50.816406-3.585937-112.511719 19.113281-156.242188-1.8125-25.921875-3.691406-55.191406 27.285157-71.191406 25.40625-13.164062 45.867187-36.734375 48.640625-56.042969.234375-1.597656.832031-3.136719 1.75-4.480469 10.453125-15.402343 42.644531-23.1875 69.269531-25.34375 16.105469-1.300781 70.613281-3.414062 96.617187 24.023438 1.515626 1.597656 2.496094 3.625 2.816407 5.824219 2.773437 19.304687 23.230469 42.878906 48.640625 56.042969 30.953125 16 29.097656 45.265624 27.285156 71.1875 33.234375 63.894531 40.320312 116.4375 21.054688 156.265624-28.992188 59.925782-112.617188 91.308594-180.246094 91.308594zm-66.601563-368.683594c-5.886719 29.164063-34.515625 55.914063-59.433593 68.820313-17.8125 9.21875-17.621094 24.683594-15.765626 51.199219l.191407 2.605468c.128906 1.984376-.300781 3.96875-1.214844 5.714844-17.132813 32.363282-42.519531 93.546875-20.183594 139.691406 24.898438 51.519532 101.570313 79.316407 161.046875 79.316407 61.4375 0 138.113282-27.796875 163.027344-79.316407 16.429688-33.917968 8.960938-80.917968-22.144531-139.691406-.914063-1.769531-1.320313-3.730468-1.214844-5.714844l.191406-2.605468c1.855469-26.515625 2.050781-41.980469-15.765625-51.199219-24.765625-12.800781-53.160156-39.253906-59.304687-68.179687-13.847657-12.074219-43.605469-18.070313-77.25-15.382813-28.074219 2.261719-46.65625 9.664063-52.179688 14.742187zm0 0"/><path d="m97.621094 341.75c-17.816406 0-30.210938-10.964844-34.113282-30.25-3.542968-17.554688 3.265626-41.152344 16.535157-57.363281 10.28125-12.546875 23.25-19.4375 36.605469-19.4375 17.453124 0 33.109374 6.53125 42.945312 17.921875 8.683594 10.070312 12.328125 23.1875 10.261719 36.96875-2.964844 19.925781-41.601563 51.371094-71.105469 52.117187-.382812.042969-.746094.042969-1.128906.042969zm19.027344-85.714844c-9.238282 0-16.53125 7.253906-20.074219 11.582032-9.214844 11.242187-14.421875 28.289062-12.117188 39.636718 2.367188 11.734375 7.488281 13.3125 13.695313 13.144532 20.78125-.472657 49.410156-26.136719 50.644531-33.941407l10.539063 1.578125-10.539063-1.578125c1.132813-7.640625-.703125-14.53125-5.351563-19.90625-5.804687-6.675781-15.554687-10.515625-26.796874-10.515625zm0 0"/><path d="m285.011719 341.75c-.382813 0-.746094 0-1.128907 0-29.503906-.765625-68.140624-32.191406-71.105468-52.117188-2.070313-13.78125 1.578125-26.898437 10.261718-36.96875 9.835938-11.433593 25.492188-17.964843 42.941407-17.964843 13.355469 0 26.328125 6.890625 36.589843 19.414062 13.269532 16.214844 20.074219 39.808594 16.53125 57.367188-3.882812 19.285156-16.296874 30.269531-34.089843 30.269531zm-51.15625-55.292969c1.234375 7.804688 29.867187 33.46875 50.644531 33.941407 6.464844.125 11.304688-1.410157 13.695312-13.164063 2.28125-11.347656-2.921874-28.394531-12.117187-39.636719-3.5625-4.308594-10.859375-11.5625-20.097656-11.5625-11.242188 0-20.988281 3.839844-26.769531 10.515625-4.652344 5.375-6.488282 12.265625-5.355469 19.90625l-10.539063 1.578125zm0 0"/><path d="m180.648438 224.035156c-2.667969 0-5.3125-1.003906-7.339844-2.921875-5.78125-5.484375-24.660156-24.554687-24.660156-39.746093 0-18.539063 8.980468-32 21.332031-32 12.355469 0 21.335937 13.460937 21.335937 32v32c0 4.265624-2.539062 8.105468-6.464844 9.792968-1.34375.597656-2.792968.875-4.203124.875zm0 0"/><path d="m201.980469 224.035156c-1.40625 0-2.855469-.277344-4.199219-.875-3.925781-1.6875-6.464844-5.527344-6.464844-9.792968v-32c0-18.539063 8.980469-32 21.332032-32 12.351562 0 21.332031 13.460937 21.332031 32 0 15.191406-18.878907 34.261718-24.660157 39.746093-2.027343 1.917969-4.671874 2.921875-7.339843 2.921875zm21.335937-42.667968h.210938zm0 0"/><path d="m309.628906 480.035156c-.851562 0-1.707031-.109375-2.578125-.320312l-42.667969-10.667969c-5.738281-1.429687-9.195312-7.210937-7.765624-12.925781l8.425781-33.644532-44.691407-17.878906c-5.484374-2.195312-8.128906-8.402344-5.933593-13.863281 2.199219-5.484375 8.429687-8.171875 13.847656-5.953125l53.332031 21.332031c4.949219 1.984375 7.679688 7.316407 6.402344 12.480469l-8.085938 32.320312 32.320313 8.085938c5.738281 1.429688 9.195313 7.210938 7.765625 12.925781-1.21875 4.886719-5.589844 8.109375-10.371094 8.109375zm0 0"/><path d="m223.316406 128.035156c-1.535156 0-3.117187-.34375-4.585937-1.023437-5.3125-2.519531-7.574219-8.898438-5.058594-14.210938l45.78125-96.425781c4.972656-8.277344 11.992187-13.398438 20.3125-15.421875 8.339844-2.027344 16.894531-.683594 24.191406 3.753906 7.316407 4.457031 12.457031 11.496094 14.484375 19.796875 2.003906 8.296875.660156 16.894532-3.796875 24.191406l-11.09375 18.21875c-3.050781 5.054688-9.644531 6.613282-14.65625 3.5625-5.035156-3.070312-6.636719-9.621093-3.5625-14.65625l11.09375-18.21875c1.472657-2.429687 1.941407-5.289062 1.257813-8.042968-.660156-2.773438-2.367188-5.117188-4.820313-6.613282-2.453125-1.472656-5.3125-1.941406-8.066406-1.257812-2.773437.683594-5.117187 2.390625-6.613281 4.820312l-45.226563 95.46875c-1.832031 3.816407-5.671875 6.058594-9.640625 6.058594zm0 0"/><path d="m159.316406 128.035156c-4.820312 0-9.195312-3.265625-10.367187-8.148437l-21.867188-90.070313c-1.324219-5.847656-7-9.578125-12.800781-8.171875-2.773438.617188-5.121094 2.304688-6.65625 4.714844-1.515625 2.410156-2.003906 5.269531-1.367188 8.042969l4.738282 20.820312c1.300781 5.71875-2.304688 11.457032-8.042969 12.757813-5.929687 1.300781-11.457031-2.304688-12.757813-8.042969l-4.734374-20.800781c-1.921876-8.320313-.449219-16.894531 4.09375-24.148438 4.566406-7.230469 11.648437-12.265625 19.992187-14.164062 17.171875-3.988281 34.386719 6.910156 38.3125 24.085937l21.824219 89.917969c1.367187 5.71875-2.132813 11.5-7.851563 12.886719-.851562.234375-1.683593.320312-2.515625.320312zm0 0"/><path d="m191.316406 128.035156c-1.023437 0-2.046875-.148437-3.074218-.449218-5.652344-1.707032-8.851563-7.636719-7.144532-13.289063l32-106.667969c1.683594-5.652344 7.65625-8.789062 13.269532-7.148437 5.652343 1.707031 8.851562 7.640625 7.144531 13.292969l-32 106.667968c-1.363281 4.605469-5.609375 7.59375-10.195313 7.59375zm0 0"/><path d="m148.648438 128.035156c-1.8125 0-3.625-.449218-5.289063-1.410156l-74.667969-42.664062c-5.121094-2.925782-6.890625-9.429688-3.988281-14.550782 2.941406-5.164062 9.515625-6.890625 14.570313-3.96875l74.667968 42.667969c5.117188 2.921875 6.890625 9.429687 3.988282 14.550781-1.984376 3.453125-5.589844 5.375-9.28125 5.375zm0 0"/><path d="m201.960938 128.035156c-4.96875 0-9.40625-3.5-10.433594-8.578125l-21.332032-106.664062c-1.171874-5.78125 2.582032-11.394531 8.382813-12.546875 5.484375-1.191406 11.371094 2.582031 12.546875 8.363281l21.332031 106.667969c1.171875 5.78125-2.582031 11.390625-8.382812 12.542968-.707031.148438-1.410157.214844-2.113281.214844zm0 0"/></svg>
