<svg id="icon" height="512pt" viewBox="0 0 512.04325 512" width="512pt" xmlns="http://www.w3.org/2000/svg"><path d="m254.003906 97.515625c-.808594-2.710937-2.667968-4.992187-5.164062-6.335937l-154.367188-83.433594c-31.019531-16.8125-69.972656-5.164063-86.742187 25.875-16.765625 31.019531-5.160157 69.953125 25.878906 86.742187 16.0625 8.703125 34.6875 10.003907 51.902344 3.777344l112.621093 60.882813c1.558594.855468 3.304688 1.300781 5.054688 1.300781 1.023438 0 2.046875-.148438 3.050781-.445313 2.710938-.8125 4.992188-2.667968 6.335938-5.164062l40.578125-75.09375c1.363281-2.472656 1.640625-5.398438.851562-8.105469zm-171.179687-23.316406c-3.882813 7.125-11.242188 11.175781-18.835938 11.175781-3.414062 0-6.871093-.808594-10.089843-2.539062-10.324219-5.609376-14.207032-18.558594-8.640626-28.925782 2.710938-5.011718 7.210938-8.683594 12.691407-10.304687 5.421875-1.621094 11.179687-1.023438 16.238281 1.664062l.019531.023438c10.304688 5.585937 14.1875 18.535156 8.617188 28.90625zm0 0" fill="#607d8b"/><path d="m510.6875 252.183594c-2.453125-8.195313-7.9375-14.933594-15.191406-18.859375l-246.398438-142.015625c-2.515625-1.429688-5.503906-1.835938-8.257812-1.027344-2.773438.792969-5.097656 2.667969-6.460938 5.207031l-81.152344 150.144531c-3.519531 6.507813-4.546874 14.015626-2.921874 21.738282.832031 4.03125 4.007812 7.253906 8 8.214844 3.964843 1 8.277343-.429688 10.878906-3.648438 24.296875-1.878906 29.332031.511719 45.824218 8.660156 4.882813 2.390625 10.539063 5.183594 17.683594 8.382813 14.464844 6.421875 20.183594 11.628906 26.859375 17.644531 6.996094 6.355469 14.933594 13.546875 32.492188 21.355469 15.210937 6.761719 28.007812 7.335937 39.335937 7.828125 14.015625.617187 23.296875 1.046875 34.09375 12.800781 10.21875 11.113281 15.890625 22.121094 14.441406 28.050781-.769531 3.136719-4.203124 5.824219-10.21875 8-.023437.023438-2.113281.832032-2.132812.855469-3.882812 1.429687-6.570312 4.96875-6.914062 9.109375-.363282 4.09375 1.707031 8.0625 5.269531 10.132812l27.839843 16.105469c4.757813 2.5625 9.941407 3.882813 15.191407 3.882813 3.070312 0 6.164062-.445313 9.195312-1.34375 8.191407-2.429688 14.933594-7.914063 19.007813-15.464844l70.996094-131.351562c4.097656-7.550782 4.992187-16.191407 2.539062-24.402344zm-55.234375 32.234375c-3.878906 7.125-11.242187 11.175781-18.835937 11.175781-3.414063 0-6.867188-.808594-10.089844-2.539062-5.015625-2.730469-8.683594-7.230469-10.304688-12.691407-1.621094-5.460937-1.046875-11.222656 1.6875-16.257812 2.6875-4.992188 7.1875-8.660157 12.671875-10.28125 5.417969-1.621094 11.175781-1.023438 16.234375 1.664062 0 .023438.019532.023438.042969.023438 10.28125 5.609375 14.121094 18.578125 8.59375 28.90625zm0 0" fill="#cfd8dc"/><path d="m381.214844 334.164062c-16.746094-18.238281-33.792969-19.007812-48.851563-19.667968-10.304687-.449219-20.078125-.894532-31.597656-6.015625-14.460937-6.421875-20.179687-11.625-26.855469-17.644531-7-6.355469-14.933594-13.542969-32.492187-21.351563-6.828125-3.050781-12.265625-5.71875-16.9375-8.023437-19.007813-9.363282-27.90625-13.140626-56.941407-10.773438-6.292968.46875-18.429687 5.910156-18.175781 16.34375.640625 22.207031 15.125 36.09375 30.464844 50.835938 25.238281 24.214843 53.804687 51.667968 44.289063 128.875-.257813 1.835937-2.644532 7.660156-4.226563 11.519531-4.074219 9.855469-6.527344 16.257812-6.527344 21.78125 0 17.644531 14.359375 32 32 32 17.644531 0 32-14.355469 32-32 0-4.566407-.765625-12.734375-2.921875-20.734375-3.09375-11.480469-5.183594-28.503906 1.472656-43.179688 3.691407-3.863281 23.082032-10.453125 31.550782-5.910156 3.136718 1.6875 3.882812 6.464844 2.15625 14.1875-.511719 2.347656-2.175782 6.207031-3.863282 10.429688-4.265624 10.625-7.058593 18.050781-7.058593 23.875 0 17.640624 14.355469 32 32 32 17.640625 0 32-14.359376 32-32 0-1.003907.125-2.410157.277343-4.03125.445313-5.761719 1.109376-13.613282-.363281-18.5625-2.988281-25.109376-2.988281-25.109376 14.378907-31.359376 16.363281-5.910156 21.886718-15.765624 23.65625-22.996093 4.246093-17.261719-8.210938-35.414063-19.433594-47.597657zm0 0" fill="#f44336"/><path d="m203.1875 186.304688c-1.707031 0-3.457031-.40625-5.054688-1.28125l-112.640624-60.882813c-17.152344 6.226563-35.777344 4.90625-51.882813-3.777344-15.039063-8.128906-26.003906-21.632812-30.910156-38.015625-4.886719-16.382812-3.09375-33.6875 5.03125-48.726562 8.128906-15.039063 21.632812-26.003906 38.019531-30.910156 16.359375-4.863282 33.683594-3.09375 48.722656 5.035156l154.390625 83.433594c2.496094 1.34375 4.351563 3.625 5.140625 6.335937.8125 2.707031.511719 5.632813-.832031 8.128906l-40.574219 75.070313c-1.921875 3.5625-5.613281 5.589844-9.410156 5.589844zm-117.035156-84.585938c1.75 0 3.5.425781 5.078125 1.277344l107.667969 58.199218 30.421874-56.296874-145-78.378907c-10.007812-5.421875-21.527343-6.613281-32.46875-3.351562-10.925781 3.265625-19.925781 10.582031-25.347656 20.609375-5.417968 10.027344-6.613281 21.546875-3.347656 32.46875s10.582031 19.925781 20.609375 25.34375c11.730469 6.378906 25.578125 6.742187 37.949219 1.089844 1.410156-.640626 2.925781-.960938 4.4375-.960938zm0 0"/><path d="m64.007812 85.375c-3.410156 0-6.890624-.832031-10.109374-2.558594-10.347657-5.589844-14.207032-18.558594-8.621094-28.90625 5.613281-10.324218 18.5625-14.230468 28.910156-8.617187 10.34375 5.585937 14.207031 18.558593 8.617188 28.90625-3.863282 7.125-11.222657 11.175781-18.796876 11.175781zm5.101563-30.695312-5.078125 9.363281h.019531zm0 0"/><path d="m436.617188 295.617188c-3.5 0-6.953126-.875-10.113282-2.582032-10.34375-5.589844-14.226562-18.558594-8.617187-28.90625 2.6875-4.992187 7.191406-8.660156 12.671875-10.304687 5.460937-1.640625 11.242187-1.023438 16.234375 1.6875 5.015625 2.707031 8.683593 7.207031 10.304687 12.671875 1.621094 5.460937 1.023438 11.21875-1.683594 16.234375-2.710937 5.011719-7.210937 8.660156-12.671874 10.28125-2.007813.617187-4.054688.917969-6.125.917969zm5.121093-30.71875-5.078125 9.363281h.019532zm0 0"/><path d="m408.96875 424.703125c-5.140625 0-10.324219-1.234375-15.144531-3.839844l-27.839844-16.125c-3.5625-2.070312-5.632813-6.019531-5.292969-10.136719.34375-4.117187 3.050782-7.65625 6.914063-9.085937.019531 0 2.109375-.832031 2.132812-.855469 5.992188-2.175781 9.429688-4.863281 10.195313-8 1.453125-5.929687-4.203125-16.9375-14.421875-28.074218-10.792969-11.730469-20.050781-12.160157-34.089844-12.777344-11.304687-.511719-24.105469-1.089844-39.335937-7.851563-17.582032-7.808593-25.515626-14.996093-32.511719-21.332031-6.65625-6.039062-12.398438-11.222656-26.839844-17.644531-7.144531-3.175781-12.84375-5.972657-17.707031-8.382813-16.46875-8.128906-21.4375-10.558594-45.84375-8.660156-2.582032 3.175781-6.828125 4.5625-10.839844 3.625-4.007812-.960938-7.144531-4.179688-8-8.191406-1.621094-7.722656-.617188-15.230469 2.925781-21.761719l81.128907-150.140625c1.367187-2.539062 3.710937-4.417969 6.484374-5.1875 2.710938-.808594 5.71875-.445312 8.234376 1.027344l246.378906 142.015625c7.277344 3.925781 12.757812 10.664062 15.191406 18.859375 2.453125 8.191406 1.558594 16.851562-2.519531 24.359375l-70.996094 131.371093c-5.78125 10.710938-16.808594 16.789063-28.203125 16.789063zm-16.382812-29.183594 11.648437 6.742188c4.925781 2.644531 11.390625.703125 14.1875-4.457031l70.996094-131.371094c1.34375-2.519532 1.664062-5.378906.851562-8.128906-.832031-2.730469-2.644531-4.972657-5.160156-6.335938l-237.164063-136.683594-72.894531 134.914063c23.230469-1.109375 32.148438 2.773437 49.429688 11.285156 4.671875 2.304687 10.089843 4.96875 16.9375 8.019531 17.558593 7.808594 25.492187 14.996094 32.492187 21.332032 6.652344 6.019531 12.394532 11.222656 26.855469 17.644531 11.542969 5.121093 21.292969 5.566406 31.617187 6.039062 15.785157.703125 32.105469 1.425781 48.851563 19.644531 11.203125 12.203126 23.660156 30.359376 19.4375 47.597657-1.023437 4.136719-3.285156 9.128906-8.085937 13.757812zm-19.222657-.808593h.214844zm0 0"/><path d="m245.363281 512.042969c-17.640625 0-32-14.355469-32-32 0-5.523438 2.453125-11.925781 6.507813-21.78125 1.578125-3.859375 3.988281-9.683594 4.246094-11.542969 9.515624-77.203125-19.074219-104.660156-44.289063-128.894531-15.339844-14.699219-29.800781-28.585938-30.464844-50.792969-.296875-10.371094 11.863281-15.851562 18.132813-16.363281 29.015625-2.304688 37.933594 1.429687 56.960937 10.792969 4.671875 2.304687 10.089844 4.972656 16.9375 8.023437 17.582031 7.808594 25.515625 14.996094 32.515625 21.332031 6.652344 6.039063 12.394532 11.242188 26.835938 17.664063 11.539062 5.121093 21.289062 5.566406 31.617187 6.015625 15.785157.703125 32.082031 1.429687 48.851563 19.648437 11.199218 12.203125 23.660156 30.355469 19.433594 47.59375-1.769532 7.210938-7.316407 17.066407-23.65625 22.976563-17.34375 6.273437-17.34375 6.273437-14.359376 31.382812 1.429688 4.949219.8125 12.820313.34375 18.558594-.152343 1.644531-.277343 3.050781-.277343 4.054688 0 17.640624-14.359375 32-32 32-17.644531 0-32-14.359376-32-32 0-5.847657 2.792969-13.269532 7.082031-23.9375 1.707031-4.203126 3.328125-8.0625 3.859375-10.410157 1.730469-7.703125 1.003906-12.457031-2.152344-14.164062-8.449219-4.503907-27.820312 2.023437-31.53125 5.90625-6.679687 14.699219-4.566406 31.703125-1.492187 43.160156 2.132812 8.042969 2.898437 16.210937 2.898437 20.777344 0 17.644531-14.355469 32-32 32zm-74.003906-240.277344c2.304687 10.15625 10.410156 18.367187 23.230469 30.675781 25.964844 24.917969 61.527344 59.074219 50.6875 146.882813-.554688 4.5625-2.921875 10.34375-5.671875 17.023437-1.773438 4.308594-4.738281 11.539063-4.90625 13.800782 0 5.78125 4.777343 10.5625 10.664062 10.5625 5.890625 0 10.667969-4.78125 10.667969-10.667969 0-3.390625-.683594-9.621094-2.199219-15.210938-5.714843-21.355469-4.519531-41.707031 3.480469-58.859375 5.652344-12.09375 36.457031-23.039062 55.65625-16.53125 7.359375 2.515625 23.789062 11.390625 17.453125 39.613282-.683594 3.074218-2.648437 8.171874-4.867187 13.699218-1.875 4.691406-5.375 13.417969-5.546876 16.0625.023438 5.78125 4.800782 10.558594 10.691407 10.558594 5.886719 0 10.664062-4.777344 10.664062-10.664062 0-1.429688.148438-3.457032.34375-5.761719.296875-3.710938.808594-9.917969.019531-12.820313-3.925781-31.9375-2.410156-44.460937 28.011719-55.46875 5.992188-2.175781 9.429688-4.863281 10.195313-8 1.453125-5.929687-4.203125-16.9375-14.421875-28.074218-10.792969-11.730469-20.050781-12.160157-34.089844-12.777344-11.285156-.511719-24.105469-1.089844-39.316406-7.828125-17.578125-7.808594-25.492188-15-32.492188-21.335938-6.65625-6.015625-12.394531-11.21875-26.855469-17.640625-7.148437-3.179687-12.84375-5.972656-17.707031-8.382812-15.980469-7.894532-21.121093-10.457032-43.691406-8.855469zm0 0"/></svg>
