<svg id="icon" height="512pt" viewBox="0 -96 512.02344 512" width="512pt" xmlns="http://www.w3.org/2000/svg"><path d="m507.746094 130.148438c-3.15625-2.390626-7.402344-2.816407-11.007813-1.089844-28.863281 13.804687-56.320312 25.578125-74.773437 17.410156-10.113282-4.4375-17.578125-14.976562-22.871094-32.238281-1.683594-5.566407-7.550781-8.679688-13.160156-7.125-12.929688 3.757812-30.167969 4.824219-39.789063-3.476563-7.808593-6.71875-10.496093-19.5625-8-38.1875.621094-4.714844-1.917969-9.257812-6.269531-11.175781-4.351562-1.941406-9.429688-.726563-12.480469 2.898437-7.894531 9.453126-21.015625 12.972657-32.683593 8.707032-12.734376-4.628906-20.03125-16.960938-20.03125-33.855469 0-5.890625-4.78125-10.667969-10.667969-10.667969s-10.667969 4.777344-10.667969 10.667969c0 16.894531-7.292969 29.226563-20.03125 33.855469-11.625 4.242187-24.789062.746094-32.679688-8.707032-3.03125-3.625-8.128906-4.820312-12.480468-2.921874-4.332032 1.921874-6.890625 6.484374-6.273438 11.179687 2.496094 18.625-.191406 31.464844-8 38.1875-9.621094 8.296875-26.859375 7.230469-39.785156 3.476563-5.613281-1.558594-11.480469 1.558593-13.164062 7.125-5.289063 17.257812-12.757813 27.796874-22.871094 32.234374-18.429688 8.148438-45.90625-3.582031-74.773438-17.40625-3.601562-1.707031-7.828125-1.28125-11.007812 1.109376-3.175782 2.386718-4.777344 6.335937-4.136719 10.261718 17.726563 108.007813 76.074219 138.28125 169.855469 178.730469 4.523437 1.941406 9.792968.554687 12.757812-3.371094s2.835938-9.367187-.277344-13.183593c-9.023437-11.03125-18.324218-27.414063-11.285156-42.902344 5.910156-13.035156 21.078125-21.398438 34.878906-24.023438 1.769532 2.882813 4.203126 5.570313 7.273438 7.980469v23.039063c0 4.308593 2.605469 8.214843 6.59375 9.855468 3.988281 1.664063 8.574219.746094 11.625-2.304687l18.433594-18.429688c3.925781.296875 8.105468.296875 12.03125 0l18.433594 18.429688c3.050781 3.050781 7.636718 3.992187 11.625 2.304687 3.992187-1.640625 6.59375-5.546875 6.59375-9.855468v-23.039063c3.070312-2.410156 5.503906-5.097656 7.273437-8 13.804687 2.625 28.972656 10.988281 34.878906 24.019531 7.042969 15.488282-2.257812 31.894532-11.285156 42.902344-3.113281 3.796875-3.21875 9.257812-.277344 13.183594 2.070313 2.753906 5.25 4.269531 8.511719 4.269531 1.429688 0 2.859375-.277344 4.226562-.875 93.78125-40.449219 152.128907-70.699219 169.855469-178.730469.640625-3.925781-.9375-7.875-4.117187-10.261718zm0 0" fill="#607d8b"/><path d="m337.78125 320.015625c-3.261719 0-6.460938-1.515625-8.511719-4.246094-2.964843-3.925781-2.835937-9.367187.277344-13.183593 9.027344-11.03125 18.328125-27.414063 11.285156-42.902344-5.90625-13.035156-21.074219-21.398438-34.878906-24.023438-1.769531 2.882813-4.203125 5.570313-7.273437 8v23.042969c0 4.308594-2.601563 8.210937-6.59375 9.855469-3.96875 1.664062-8.554688.746094-11.625-2.304688l-18.433594-18.433594c-3.945313.300782-8.128906.300782-12.03125 0l-18.433594 18.433594c-3.070312 3.050782-7.636719 3.96875-11.625 2.304688-3.988281-1.664063-6.59375-5.570313-6.59375-9.878906v-23.039063c-3.070312-2.410156-5.503906-5.097656-7.273438-8-13.800781 2.625-28.96875 10.988281-34.878906 24.019531-7.039062 15.488282 2.261719 31.894532 11.285156 42.902344 3.113282 3.796875 3.222657 9.257812.277344 13.183594-2.964844 3.949218-8.214844 5.335937-12.757812 3.371094-93.78125-40.449219-152.128906-70.699219-169.855469-178.730469-.640625-3.925781.9375-7.871094 4.136719-10.261719 3.160156-2.386719 7.40625-2.816406 11.007812-1.085938 28.867188 13.800782 56.34375 25.554688 74.773438 17.40625 10.113281-4.4375 17.582031-14.976562 22.871094-32.234374 1.707031-5.566407 7.574218-8.703126 13.164062-7.125 12.925781 3.753906 30.164062 4.820312 39.785156-3.476563 7.808594-6.722656 10.496094-19.5625 8-38.1875-.617187-4.714844 1.921875-9.257813 6.273438-11.179687 4.351562-1.898438 9.429687-.703126 12.480468 2.902343 7.890626 9.449219 21.03125 12.949219 32.679688 8.703125 12.738281-4.605468 20.03125-16.9375 20.03125-33.832031 0-5.890625 4.78125-10.667969 10.667969-10.667969s10.667969 4.777344 10.667969 10.667969c0 16.894531 7.296874 29.226563 20.03125 33.855469 11.648437 4.265625 24.789062.746094 32.683593-8.707032 3.027344-3.625 8.128907-4.839843 12.480469-2.898437 4.351562 1.917969 6.890625 6.460937 6.269531 11.175781-2.496093 18.625.191407 31.46875 8 38.1875 9.601563 8.300782 26.859375 7.234375 39.789063 3.476563 5.652344-1.554688 11.476562 1.558593 13.160156 7.125 5.292969 17.261719 12.757812 27.800781 22.871094 32.238281 18.472656 8.167969 45.910156-3.585938 74.773437-17.410156 3.582031-1.726563 7.828125-1.300782 11.007813 1.089844 3.179687 2.386718 4.777344 6.335937 4.136718 10.261718-17.726562 108.007813-76.074218 138.28125-169.855468 178.730469-1.386719.597656-2.816406.875-4.246094.875zm-39.125-106.5625h.34375c21.632812.683594 50.046875 12.695313 61.269531 37.398437 4.007813 8.832032 6.570313 21.054688 2.152344 35.988282 67.820313-30.804688 107.371094-58.28125 124.394531-129.769532-26.582031 11.476563-51.816406 18.410157-73.429687 8.894532-13.652344-5.992188-24.191407-18.132813-31.378907-36.136719-13.292968 2.28125-34.496093 3.113281-49.773437-10.070313-9.363281-8.0625-14.71875-19.667968-16-34.667968-11.496094 4.738281-24.636719 5.207031-36.820313.8125-9.707031-3.519532-17.640624-9.621094-23.402343-17.6875-5.757813 8.066406-13.695313 14.167968-23.402344 17.707031-12.203125 4.394531-25.34375 3.90625-36.820313-.808594-1.28125 14.996094-6.636718 26.601563-16 34.664063-15.277343 13.164062-36.460937 12.375-49.769531 10.070312-7.191406 18.007813-17.730469 30.144532-31.382812 36.140625-21.652344 9.511719-46.847657 2.558594-73.429688-8.898437 17.023438 71.488281 56.574219 98.945312 124.394531 129.773437-4.414062-14.933593-1.855468-27.160156 2.15625-35.992187 11.21875-24.703125 39.613282-36.714844 61.269532-37.394532 2.941406-.066406 5.671875.957032 7.722656 2.964844 2.066406 1.984375 3.242188 4.734375 3.285156 7.59375.042969.363282 1.152344 2.347656 5.289063 4.714844 3.265625 1.878906 5.289062 5.3125 5.355469 9.046875 2.324218-3.050781 6.164062-4.757813 10.152343-4.054687 6.722657 1.066406 14.445313 1.128906 21.269531.171874 4.546876-.640624 8.984376 1.703126 11.03125 5.800782.085938.148437.148438.320312.234376.46875v-2.175782c0-3.816406 2.046874-7.359374 5.355468-9.257812 4.136719-2.367188 5.226563-4.375 5.289063-4.734375.023437-2.882813 1.214843-5.613281 3.285156-7.597656 1.964844-1.917969 4.609375-2.964844 7.359375-2.964844zm0 0"/><path d="m352.011719 309.347656c-2.324219 0-4.691407-.769531-6.65625-2.324218-4.585938-3.691407-5.332031-10.390626-1.664063-15l42.667969-53.332032c3.691406-4.566406 10.410156-5.332031 14.996094-1.664062 4.585937 3.691406 5.335937 10.390625 1.664062 14.996094l-42.664062 53.335937c-2.113281 2.621094-5.226563 3.988281-8.34375 3.988281zm0 0"/><path d="m160.011719 309.347656c-3.136719 0-6.230469-1.367187-8.339844-4.011718l-42.667969-53.332032c-3.667968-4.609375-2.921875-11.308594 1.664063-15 4.609375-3.6875 11.308593-2.898437 14.996093 1.664063l42.667969 53.335937c3.667969 4.605469 2.921875 11.304688-1.664062 14.996094-1.960938 1.578125-4.308594 2.347656-6.65625 2.347656zm0 0"/><path d="m501.34375 21.347656h-490.664062c-5.890626 0-10.6679692-4.78125-10.6679692-10.667968 0-5.886719 4.7773432-10.664063 10.6679692-10.664063h490.664062c5.890625 0 10.667969 4.777344 10.667969 10.664063 0 5.886718-4.777344 10.667968-10.667969 10.667968zm0 0"/><path d="m277.34375 85.347656c-1.109375 0-2.238281-.171875-3.367188-.554687-5.589843-1.855469-8.597656-7.894531-6.742187-13.484375l21.332031-64c1.855469-5.589844 7.851563-8.597656 13.484375-6.742188 5.589844 1.859375 8.597657 7.894532 6.738281 13.484375l-21.332031 64c-1.492187 4.480469-5.652343 7.296875-10.113281 7.296875zm0 0"/><path d="m234.679688 74.679688c-4.226563 0-8.234376-2.539063-9.898438-6.699219l-21.335938-53.332031c-2.195312-5.460938.472657-11.667969 5.953126-13.867188 5.398437-2.195312 11.691406.46875 13.867187 5.953125l21.332031 53.332031c2.199219 5.460938-.46875 11.671875-5.949218 13.867188-1.304688.511718-2.648438.746094-3.96875.746094zm0 0"/></svg>
