<svg id="icon" height="512pt" viewBox="-43 0 512 512" width="512pt" xmlns="http://www.w3.org/2000/svg"><path d="m213.332031 0c-94.101562 0-170.664062 76.566406-170.664062 170.667969v288c0 5.886719 4.777343 10.664062 10.664062 10.664062h320c5.890625 0 10.667969-4.777343 10.667969-10.664062v-288c0-94.101563-76.566406-170.667969-170.667969-170.667969zm0 0" fill="#b0bec5"/><path d="m416 448h-405.332031c-5.890625 0-10.667969 4.777344-10.667969 10.667969v42.664062c0 5.890625 4.777344 10.667969 10.667969 10.667969h405.332031c5.886719 0 10.667969-4.777344 10.667969-10.667969v-42.664062c0-5.890625-4.78125-10.667969-10.667969-10.667969zm0 0" fill="#607d8b"/><path d="m373.332031 469.332031h-320c-5.886719 0-10.664062-4.777343-10.664062-10.664062v-288c0-94.101563 76.5625-170.667969 170.664062-170.667969 94.101563 0 170.667969 76.566406 170.667969 170.667969v288c0 5.886719-4.777344 10.664062-10.667969 10.664062zm-309.332031-21.332031h298.667969v-277.332031c0-82.347657-67.007813-149.335938-149.335938-149.335938-82.324219 0-149.332031 66.988281-149.332031 149.335938zm0 0"/><path d="m416 512h-405.332031c-5.890625 0-10.667969-4.777344-10.667969-10.667969v-42.664062c0-5.890625 4.777344-10.667969 10.667969-10.667969h405.332031c5.886719 0 10.667969 4.777344 10.667969 10.667969v42.664062c0 5.890625-4.78125 10.667969-10.667969 10.667969zm-394.667969-21.332031h384v-21.335938h-384zm0 0"/><path d="m288 149.332031h-149.332031c-5.890625 0-10.667969-4.777343-10.667969-10.664062 0-5.890625 4.777344-10.667969 10.667969-10.667969h149.332031c5.886719 0 10.667969 4.777344 10.667969 10.667969 0 5.886719-4.78125 10.664062-10.667969 10.664062zm0 0"/><path d="m266.667969 213.332031h-106.667969c-5.886719 0-10.667969-4.777343-10.667969-10.664062 0-5.890625 4.78125-10.667969 10.667969-10.667969h106.667969c5.886719 0 10.664062 4.777344 10.664062 10.667969 0 5.886719-4.777343 10.664062-10.664062 10.664062zm0 0"/></svg>
