<svg id="icon" height="512pt" viewBox="0 0 512.0146 512" width="512pt" xmlns="http://www.w3.org/2000/svg"><path d="m74.667969 512.007812c-2.539063 0-5.101563-.898437-7.125-2.730468-4.375-3.949219-4.738281-10.6875-.789063-15.0625l189.246094-210.304688v-273.234375c0-5.890625 4.777344-10.6679685 10.667969-10.6679685 5.886719 0 10.664062 4.7773435 10.664062 10.6679685v277.332031c0 2.644532-.980469 5.183594-2.730469 7.125l-192 213.332032c-2.109374 2.347656-5.011718 3.542968-7.933593 3.542968zm0 0"/><path d="m245.332031 512.007812c-.363281 0-.703125-.023437-1.066406-.042968-5.867187-.578125-10.132813-5.804688-9.554687-11.667969l21.332031-213.335937c.320312-3.09375 1.941406-5.886719 4.5-7.679688l213.335937-149.332031c4.796875-3.394531 11.476563-2.21875 14.847656 2.625 3.371094 4.820312 2.21875 11.476562-2.625 14.847656l-209.324218 146.515625-20.839844 208.46875c-.535156 5.503906-5.183594 9.601562-10.605469 9.601562zm0 0"/><path d="m501.332031 448.007812c-1.960937 0-3.945312-.535156-5.714843-1.664062l-234.667969-149.332031-235.691407-192.75c-4.566406-3.730469-5.246093-10.453125-1.515624-14.996094 3.734374-4.566406 10.457031-5.226563 15.019531-1.515625l234.667969 192 233.640624 148.589844c4.972657 3.15625 6.445313 9.769531 3.265626 14.71875-2.027344 3.199218-5.484376 4.949218-9.003907 4.949218zm0 0"/><path d="m266.667969 298.675781h-256c-5.890625 0-10.667969-4.78125-10.667969-10.667969 0-5.886718 4.777344-10.667968 10.667969-10.667968h256c5.886719 0 10.664062 4.78125 10.664062 10.667968 0 5.886719-4.777343 10.667969-10.664062 10.667969zm0 0"/><path d="m149.332031 512.007812c-.574219 0-1.171875-.042968-1.769531-.148437l-64-10.667969c-3.945312-.660156-7.1875-3.476562-8.40625-7.316406l-64-202.667969c-.445312-1.429687-.597656-2.964843-.425781-4.457031l21.332031-181.335938c.472656-4.09375 3.308594-7.550781 7.210938-8.875l224-74.664062c3.117187-1.089844 6.550781-.597656 9.300781 1.234375l192 128c2.988281 2.007813 4.757812 5.335937 4.757812 8.898437v256c0 4.523438-2.855469 8.574219-7.144531 10.070313l-213.335938 74.664063c-2.730468.941406-5.695312.746093-8.296874-.53125l-106.667969-53.335938c-2.664063-1.320312-4.671875-3.730469-5.480469-6.613281l-42.667969-149.332031c-.554687-1.960938-.53125-4.03125.042969-5.996094l32-106.664063c1.023438-3.414062 3.667969-6.082031 7.082031-7.125l138.667969-42.667969c3.15625-.960937 6.546875-.425781 9.257812 1.449219l106.667969 74.667969c2.644531 1.835938 4.285157 4.777344 4.523438 7.980469l10.664062 149.332031c.320313 4.4375-2.132812 8.574219-6.164062 10.453125l-138.667969 64c-3.390625 1.535156-7.296875 1.238281-10.386719-.8125l-64-42.664063c-2.285156-1.515624-3.90625-3.882812-4.503906-6.570312l-21.332031-96c-.597656-2.667969-.128906-5.460938 1.28125-7.808594l32-53.332031c1.148437-1.921875 2.878906-3.4375 4.949218-4.3125l74.664063-32c3.285156-1.429687 7.105469-1.085937 10.113281.917969l64 42.667968c3.414063 2.28125 5.226563 6.3125 4.648438 10.386719l-10.664063 74.667969c-.382812 2.625-1.707031 4.992188-3.734375 6.679688l-64 53.332031c-3.625 3.007812-8.808594 3.304687-12.757812.683593l-32-21.335937c-4.90625-3.261719-6.226563-9.875-2.964844-14.78125 3.242188-4.90625 9.855469-6.230469 14.785156-2.96875l25.363282 16.917969 54.722656-45.609375 9.128906-63.957031-53.589844-35.734376-66.195312 28.375-28.03125 46.71875 19.476562 87.660157 55.464844 36.96875 126.550781-58.410157-9.769531-136.917968-98.199219-68.714844-128.234375 39.46875-29.460937 98.21875 40.511719 141.824219 98.429687 49.214843 201.921875-70.699218v-242.707032l-182.910156-121.941406-212.632813 70.867188-20.265625 172.332031 61.332032 194.238281 57.558593 9.601563c5.804688.960937 9.75 6.464843 8.769531 12.265625-.855468 5.226562-5.375 8.917968-10.519531 8.917968zm0 0"/></svg>
