<svg id="icon" height="512pt" viewBox="-96 0 511 512" width="512pt" xmlns="http://www.w3.org/2000/svg"><path d="m319.363281 133.886719-64-128c-1.8125-3.605469-5.503906-5.886719-9.535156-5.886719h-170.664063c-4.035156 0-7.722656 2.28125-9.539062 5.886719l-64 128c-1.023438 2.050781-1.363281 4.375-.957031 6.636719l64 362.664062c.894531 5.101562 5.308593 8.8125 10.496093 8.8125h170.664063c5.183594 0 9.601563-3.710938 10.496094-8.8125l64-362.664062c.40625-2.261719.066406-4.585938-.960938-6.636719zm0 0" fill="#ffc107"/><path d="m274.714844 145.707031-40.382813-96.492187c-1.664062-3.96875-5.527343-6.546875-9.835937-6.546875h-128c-4.308594 0-8.171875 2.578125-9.835938 6.546875l-40.382812 96.492187c-.789063 1.898438-1.023438 3.988281-.660156 6.015625l55.507812 308.84375c.917969 5.054688 5.332031 8.765625 10.496094 8.765625h97.75c5.160156 0 9.578125-3.710937 10.496094-8.765625l55.507812-308.84375c.363281-2.027344.128906-4.117187-.660156-6.015625zm0 0" fill="#ffa000"/><path d="m245.828125 512h-170.664063c-5.1875 0-9.601562-3.710938-10.496093-8.8125l-64-362.664062c-.40625-2.261719-.066407-4.566407.957031-6.636719l64-128c1.816406-3.605469 5.503906-5.886719 9.539062-5.886719h170.664063c4.03125 0 7.722656 2.28125 9.535156 5.886719l64 128c1.027344 2.050781 1.367188 4.375.960938 6.636719l-64 362.664062c-.894531 5.101562-5.3125 8.8125-10.496094 8.8125zm-161.726563-21.332031h152.765626l61.824218-350.378907-59.453125-118.957031h-157.484375l-59.476562 118.957031zm0 0"/><path d="m209.371094 469.332031h-97.75c-5.164063 0-9.578125-3.6875-10.496094-8.789062l-55.507812-308.820313c-.363282-2.027344-.128907-4.117187.660156-5.996094l40.382812-96.488281c1.664063-3.992187 5.527344-6.570312 9.835938-6.570312h128c4.308594 0 8.171875 2.578125 9.835937 6.546875l40.382813 96.492187c.789062 1.898438 1.023437 3.988281.660156 5.996094l-55.507812 308.839844c-.917969 5.101562-5.335938 8.789062-10.496094 8.789062zm-88.832032-21.332031h79.914063l53.355469-296.960938-36.417969-87.039062h-113.789063l-36.4375 87.039062zm0 0"/></svg>
