<svg id="icon" height="512pt" viewBox="0 0 512 512.02035" width="512pt" xmlns="http://www.w3.org/2000/svg"><path d="m206.789062 366.699219c-40.984374 0-81.964843-15.597657-113.152343-46.785157l-67.882813-67.882812c-4.160156-4.160156-4.160156-10.921875 0-15.082031 4.160156-4.160157 10.921875-4.160157 15.082032 0l67.882812 67.882812c54.078125 54.078125 142.035156 54.035157 196.117188 0 26.195312-26.199219 40.597656-61.015625 40.597656-98.050781 0-37.03125-14.421875-71.871094-40.597656-98.046875l-75.433594-75.433594c-4.160156-4.160156-4.160156-10.921875 0-15.082031s10.921875-4.160156 15.082031 0l75.433594 75.433594c62.378906 62.378906 62.378906 163.882812 0 226.261718-31.167969 31.210938-72.148438 46.785157-113.128907 46.785157zm0 0"/><path d="m501.359375 512.019531c-2.730469 0-5.460937-1.042969-7.554687-3.113281l-369.960938-370.007812c-4.160156-4.15625-4.160156-10.921876 0-15.082032s10.921875-4.160156 15.082031 0l369.984375 369.984375c4.160156 4.160157 4.160156 10.921875 0 15.082031-2.089844 2.09375-4.820312 3.136719-7.550781 3.136719zm0 0"/><path d="m25.753906 277.78125c-4.523437 0-8.621094-2.859375-10.113281-7.277344l-15.082031-45.265625c-1.28125-3.84375-.277344-8.066406 2.582031-10.925781 2.878906-2.835938 7.101563-3.859375 10.921875-2.582031l45.246094 15.085937c4.910156 1.640625 7.917968 6.570313 7.167968 11.667969-.765624 5.121094-5.117187 8.960937-10.28125 9.109375-4.714843.128906-12.648437 1.726562-15.339843 4.414062-2.6875 2.691407-4.285157 10.648438-4.414063 15.339844-.148437 5.207032-3.96875 9.558594-9.109375 10.324219-.511719.085937-1.066406.109375-1.578125.109375zm0 0"/><path d="m131.351562 172.179688c-4.519531 0-8.617187-2.859376-10.109374-7.273438l-15.0625-45.25c-1.28125-3.839844-.277344-8.0625 2.582031-10.921875 2.859375-2.835937 7.101562-3.859375 10.902343-2.558594l45.246094 15.082031c4.929688 1.621094 7.9375 6.550782 7.167969 11.667969-.769531 5.121094-5.121094 8.960938-10.28125 9.109375-4.714844.128906-12.652344 1.730469-15.339844 4.417969s-4.289062 10.625-4.417969 15.339844c-.148437 5.183593-3.964843 9.511719-9.109374 10.28125-.511719.085937-1.042969.105469-1.578126.105469zm0 0"/><path d="m236.929688 66.582031c-4.519532 0-8.617188-2.859375-10.109376-7.277343l-15.0625-45.246094c-1.28125-3.839844-.277343-8.066406 2.582032-10.921875 2.878906-2.839844 7.082031-3.882813 10.921875-2.582031l45.25 15.082031c4.90625 1.640625 7.914062 6.570312 7.167969 11.667969-.769532 5.121093-5.121094 8.960937-10.285157 9.109374-4.714843.128907-12.648437 1.730469-15.335937 4.417969-2.691406 2.6875-4.289063 10.644531-4.417969 15.335938-.148437 5.1875-3.988281 9.539062-9.109375 10.304687-.53125.085938-1.066406.109375-1.601562.109375zm0 0"/><path d="m275.949219 369.554688c-13.738281 0-26.621094-2.023438-36.523438-8.660157-4.882812-3.285156-6.207031-9.898437-2.921875-14.804687 3.242188-4.90625 9.941406-6.207032 14.785156-2.921875 11.667969 7.828125 35.902344 4.925781 57.257813 2.410156 12.757813-1.515625 24.492187-3.007813 34.582031-2.433594-.363281-9.234375 1.046875-19.539062 2.476563-30.183593 2.496093-18.476563 5.308593-39.425782-2.433594-51.011719-3.285156-4.882813-1.984375-11.519531 2.921875-14.804688 4.863281-3.285156 11.476562-1.984375 14.785156 2.921875 12.265625 18.304688 8.875 43.5 5.867188 65.75-1.898438 13.976563-4.03125 29.78125-.277344 36.011719 2.539062 4.203125 1.898438 9.601563-1.578125 13.078125-3.480469 3.5-8.875 4.09375-13.058594 1.578125-6.292969-3.839844-24.617187-1.644531-40.765625.277344-11.4375 1.34375-23.574218 2.792969-35.117187 2.792969zm0 0"/></svg>
