<svg id="icon" height="506pt" viewBox="-8 0 506 506.74872" width="506pt" xmlns="http://www.w3.org/2000/svg"><path d="m299 421.414062-73.132812.277344c-108.609376 2.453125-225.492188 26.796875-225.492188 74.390625 0 5.886719 4.777344 10.667969 10.667969 10.667969h469.332031c5.886719 0 10.667969-4.78125 10.667969-10.667969 0-47.253906-103.105469-69.761719-192.042969-74.667969zm0 0" fill="#455a64"/><path d="m128.375 208.082031c-35.285156 0-64 23.9375-64 53.332031 0 5.890626 4.777344 10.667969 10.667969 10.667969h106.664062c5.886719 0 10.667969-4.777343 10.667969-10.667969 0-29.394531-28.714844-53.332031-64-53.332031zm0 0" fill="#455a64"/><path d="m462.132812 187.21875-71.488281-21.589844 15.425781-51.050781c1.707032-5.632813-1.472656-11.585937-7.125-13.289063l-61.25-18.519531c-5.609374-1.726562-11.582031 1.472657-13.289062 7.125l-15.445312 51.050781-71.488282-21.589843c-2.667968-.832031-5.632812-.511719-8.128906.8125-2.496094 1.34375-4.351562 3.605469-5.160156 6.3125l-18.496094 61.269531c-1.707031 5.632812 1.472656 11.585938 7.125 13.292969l71.488281 21.589843-21.613281 71.488282c-.808594 2.707031-.511719 5.628906.8125 8.125s3.605469 4.351562 6.3125 5.164062l61.269531 18.496094c1.027344.320312 2.070313.449219 3.09375.449219 4.589844 0 8.8125-2.964844 10.21875-7.574219l21.613281-71.46875 71.488282 21.589844c2.6875.855468 5.628906.535156 8.125-.808594 2.496094-1.324219 4.351562-3.605469 5.164062-6.316406l18.496094-61.269532c1.683594-5.632812-1.515625-11.582031-7.148438-13.289062zm0 0" fill="#90a4ae"/><path d="m384.417969 323.003906c-1.324219-2.496094-3.605469-4.351562-6.316407-5.160156l-142.953124-43.179688c-5.613282-1.6875-11.585938 1.492188-13.292969 7.125l-18.515625 61.269532c-.8125 2.707031-.511719 5.632812.808594 8.128906 1.324218 2.496094 3.605468 4.351562 6.316406 5.160156l30.636718 9.257813-28.824218 95.425781c-.445313 1.449219-.53125 2.921875-.363282 4.351562.042969.40625.277344.769532.363282 1.195313.234375 1.003906.511718 1.984375 1.023437 2.878906.066407.085938.042969.214844.109375.300781.234375.363282.617188.574219.875.917969.574219.703125 1.128906 1.386719 1.875 1.941407.511719.382812 1.089844.617187 1.6875.894531.53125.253906.957032.660156 1.535156.832031.234376.0625.46875.019531.703126.0625.214843.042969.382812.214844.617187.234375l63.640625 10.667969c.597656.085937 1.191406.148437 1.769531.148437 2.304688 0 4.5-.746093 6.3125-2.066406 1.816407-1.324219 3.203125-3.222656 3.90625-5.507813l26.453125-87.570312 30.632813 9.257812c1.027343.320313 2.070312.449219 3.09375.449219 4.589843 0 8.8125-2.96875 10.21875-7.574219l18.519531-61.269531c.789062-2.753906.488281-5.675781-.832031-8.171875zm0 0" fill="#607d8b"/><path d="m334.15625 326.355469c-1.023438 0-2.046875-.152344-3.09375-.449219l-61.269531-18.496094c-2.710938-.8125-4.96875-2.667968-6.316407-5.164062-1.320312-2.496094-1.621093-5.417969-.808593-8.125l21.589843-71.488282-71.445312-21.589843c-2.710938-.8125-4.972656-2.6875-6.316406-5.164063-1.34375-2.496094-1.640625-5.417968-.808594-8.128906l18.515625-61.269531c1.707031-5.652344 7.660156-8.808594 13.292969-7.125l71.484375 21.589843 15.425781-51.050781c.8125-2.707031 2.667969-4.96875 5.164062-6.3125 2.496094-1.324219 5.394532-1.644531 8.125-.8125l61.269532 18.519531c2.710937.808594 4.972656 2.664063 6.316406 5.160157 1.324219 2.496093 1.621094 5.417969.808594 8.128906l-15.421875 51.050781 71.488281 21.589844c2.707031.808594 4.96875 2.664062 6.3125 5.160156 1.324219 2.496094 1.621094 5.421875.8125 8.128906l-18.515625 61.269532c-1.707031 5.652344-7.640625 8.875-13.292969 7.125l-71.488281-21.589844-21.589844 71.46875c-1.40625 4.609375-5.652343 7.574219-10.238281 7.574219zm-47.957031-36.289063 40.851562 12.332032 21.589844-71.46875c1.707031-5.652344 7.660156-8.832032 13.292969-7.125l71.484375 21.589843 12.355469-40.855469-71.488282-21.585937c-2.710937-.8125-4.972656-2.667969-6.316406-5.164063-1.324219-2.496093-1.621094-5.417968-.808594-8.128906l15.421875-51.050781-40.875-12.351563-15.421875 51.050782c-.8125 2.710937-2.667968 4.972656-5.164062 6.316406-2.496094 1.320312-5.398438 1.640625-8.128906.808594l-71.488282-21.589844-12.351562 40.855469 71.488281 21.589843c5.652344 1.703126 8.832031 7.65625 7.125 13.289063zm0 0"/><path d="m356.492188 399.976562c-1.023438 0-2.070313-.152343-3.09375-.449218l-142.953126-43.179688c-5.65625-1.707031-8.832031-7.65625-7.125-13.289062l18.515626-61.269532c.808593-2.710937 2.667968-4.972656 5.164062-6.316406 2.496094-1.320312 5.417969-1.640625 8.125-.808594l142.957031 43.179688c5.652344 1.703125 8.832031 7.65625 7.125 13.289062l-18.519531 61.269532c-.808594 2.710937-2.664062 4.96875-5.160156 6.3125-1.558594.832031-3.285156 1.261718-5.035156 1.261718zm-129.644532-60.972656 122.539063 37.015625 12.351562-40.855469-122.539062-37.011718zm0 0"/><path d="m139.042969 250.75c-4.183594 0-8.171875-2.496094-9.859375-6.613281l-94.292969-229.441407c-2.238281-5.441406.363281-11.667968 5.804687-13.910156 5.417969-2.195312 11.691407.363282 13.910157 5.804688l94.292969 229.4375c2.238281 5.441406-.363282 11.671875-5.804688 13.910156-1.320312.554688-2.707031.8125-4.050781.8125zm0 0"/><path d="m15.199219 123.816406c-4.308594 0-8.359375-2.625-9.960938-6.890625-2.089843-5.503906.683594-11.671875 6.1875-13.761719l119.65625-45.4375c5.484375-2.136718 11.671875.660157 13.761719 6.183594 2.089844 5.503906-.683594 11.691406-6.1875 13.761719l-119.65625 45.441406c-1.261719.488281-2.539062.703125-3.800781.703125zm0 0"/><path d="m75.019531 143.785156c-7.445312 0-14.871093-1.582031-21.84375-4.714844-12.992187-5.847656-22.933593-16.386718-27.992187-29.71875-5.054688-13.3125-4.628906-27.796874 1.21875-40.789062 5.84375-12.992188 16.402344-22.933594 29.714844-27.988281 13.3125-5.078125 27.796874-4.628907 40.789062 1.214843 12.992188 5.824219 22.933594 16.382813 27.992188 29.71875 5.054687 13.308594 4.628906 27.796876-1.21875 40.789063-5.84375 12.992187-16.382813 22.933594-29.714844 27.988281-6.144532 2.347656-12.566406 3.5-18.945313 3.5zm.042969-85.378906c-3.839844 0-7.679688.707031-11.390625 2.09375-7.980469 3.046875-14.316406 9-17.816406 16.808594-3.496094 7.785156-3.753907 16.492187-.722657 24.46875 3.027344 8 9 14.316406 16.789063 17.835937 7.851563 3.519531 16.511719 3.753907 24.488281.726563 8-3.050782 14.316406-9.003906 17.816406-16.792969 3.496094-7.804687 3.753907-16.488281.722657-24.488281-3.027344-7.980469-9-14.316406-16.789063-17.8125-4.203125-1.898438-8.640625-2.839844-13.097656-2.839844zm0 0"/><path d="m480.375 506.75c-5.886719 0-10.667969-4.78125-10.667969-10.667969 0-17.683593-54.421875-46.871093-171.261719-53.355469-5.867187-.320312-10.390624-5.355468-10.050781-11.242187.320313-5.886719 4.972657-10.582031 11.242188-10.046875 88.300781 4.882812 191.40625 27.390625 191.40625 74.644531 0 5.910157-4.78125 10.667969-10.667969 10.667969zm0 0"/><path d="m11.042969 506.75c-5.890625 0-10.667969-4.78125-10.667969-10.667969 0-47.617187 116.882812-71.9375 225.492188-74.390625h.234374c5.78125 0 10.539063 4.609375 10.667969 10.433594.128907 5.886719-4.523437 10.773438-10.433593 10.902344-126.78125 2.855468-204.628907 32.832031-204.628907 53.054687 0 5.910157-4.777343 10.667969-10.664062 10.667969zm0 0"/><path d="m286.113281 485.414062c-1.023437 0-2.046875-.148437-3.09375-.445312-5.652343-1.707031-8.832031-7.660156-7.125-13.292969l26.453125-87.574219-40.851562-12.351562-28.84375 95.425781c-1.707032 5.652344-7.636719 8.894531-13.292969 7.125-5.652344-1.707031-8.832031-7.660156-7.125-13.289062l31.914063-105.644531c.8125-2.710938 2.667968-4.96875 5.164062-6.316407 2.496094-1.320312 5.417969-1.660156 8.128906-.808593l61.269532 18.515624c5.652343 1.707032 8.832031 7.660157 7.125 13.292969l-29.546876 97.792969c-1.34375 4.605469-5.589843 7.570312-10.175781 7.570312zm0 0"/><path d="m181.707031 272.082031c-5.886719 0-10.664062-4.777343-10.664062-10.667969 0-17.640624-19.136719-32-42.667969-32s-42.667969 14.359376-42.667969 32c0 5.890626-4.777343 10.667969-10.664062 10.667969-5.890625 0-10.667969-4.757812-10.667969-10.667969 0-29.394531 28.714844-53.332031 64-53.332031s64 23.9375 64 53.332031c0 5.910157-4.78125 10.667969-10.667969 10.667969zm0 0"/><path d="m117.707031 485.414062c-5.695312 0-10.410156-4.480468-10.644531-10.21875-1.238281-30.058593-7.402344-43.050781-19.050781-57.832031-3.648438-4.628906-2.859375-11.328125 1.769531-14.976562 4.628906-3.628907 11.351562-2.839844 14.976562 1.769531 13.847657 17.535156 22.144532 34.644531 23.617188 70.164062.234375 5.890626-4.332031 10.859376-10.21875 11.09375-.148438 0-.300781 0-.449219 0zm0 0"/><path d="m117.707031 485.414062c-5.054687 0-9.558593-3.605468-10.496093-8.765624-4.371094-24.257813 3.882812-37.058594 11.199218-48.34375 4.054688-6.25 7.875-12.160157 10.414063-20.605469 1.683593-5.65625 7.636719-8.8125 13.289062-7.148438 5.652344 1.707031 8.851563 7.636719 7.144531 13.292969-3.410156 11.367188-8.46875 19.175781-12.925781 26.089844-6.636719 10.238281-11.007812 17-8.105469 32.960937 1.042969 5.78125-2.796874 11.347657-8.597656 12.394531-.664062.082032-1.300781.125-1.921875.125zm0 0"/><path d="m334.15625 326.355469c-1.023438 0-2.046875-.152344-3.09375-.449219l-61.269531-18.496094c-2.710938-.8125-4.96875-2.667968-6.316407-5.164062-1.320312-2.496094-1.621093-5.417969-.808593-8.125l21.589843-71.488282-71.445312-21.589843c-2.710938-.8125-4.972656-2.6875-6.316406-5.164063-1.34375-2.496094-1.640625-5.417968-.808594-8.128906l18.515625-61.269531c1.707031-5.652344 7.660156-8.808594 13.292969-7.125l71.484375 21.589843 15.425781-51.050781c.8125-2.707031 2.667969-4.96875 5.164062-6.3125 2.496094-1.324219 5.394532-1.644531 8.125-.8125l61.269532 18.519531c2.710937.808594 4.972656 2.664063 6.316406 5.160157 1.324219 2.496093 1.621094 5.417969.808594 8.128906l-15.421875 51.050781 71.488281 21.589844c2.707031.808594 4.96875 2.664062 6.3125 5.160156 1.324219 2.496094 1.621094 5.421875.8125 8.128906l-18.515625 61.269532c-1.707031 5.652344-7.640625 8.875-13.292969 7.125l-71.488281-21.589844-21.589844 71.46875c-1.40625 4.609375-5.652343 7.574219-10.238281 7.574219zm-47.957031-36.289063 40.851562 12.332032 21.589844-71.46875c1.707031-5.652344 7.660156-8.832032 13.292969-7.125l71.484375 21.589843 12.355469-40.855469-71.488282-21.585937c-2.710937-.8125-4.972656-2.667969-6.316406-5.164063-1.324219-2.496093-1.621094-5.417968-.808594-8.128906l15.421875-51.050781-40.875-12.351563-15.421875 51.050782c-.8125 2.710937-2.667968 4.972656-5.164062 6.316406-2.496094 1.320312-5.398438 1.640625-8.128906.808594l-71.488282-21.589844-12.351562 40.855469 71.488281 21.589843c5.652344 1.703126 8.832031 7.65625 7.125 13.289063zm0 0"/><path d="m356.492188 399.976562c-1.023438 0-2.070313-.152343-3.09375-.449218l-142.953126-43.179688c-5.65625-1.707031-8.832031-7.65625-7.125-13.289062l18.515626-61.269532c.808593-2.710937 2.667968-4.972656 5.164062-6.316406 2.496094-1.320312 5.417969-1.640625 8.125-.808594l142.957031 43.179688c5.652344 1.703125 8.832031 7.65625 7.125 13.289062l-18.519531 61.269532c-.808594 2.710937-2.664062 4.96875-5.160156 6.3125-1.558594.832031-3.285156 1.261718-5.035156 1.261718zm-129.644532-60.972656 122.539063 37.015625 12.351562-40.855469-122.539062-37.011718zm0 0"/><path d="m139.042969 250.75c-4.183594 0-8.171875-2.496094-9.859375-6.613281l-94.292969-229.441407c-2.238281-5.441406.363281-11.667968 5.804687-13.910156 5.417969-2.195312 11.691407.363282 13.910157 5.804688l94.292969 229.4375c2.238281 5.441406-.363282 11.671875-5.804688 13.910156-1.320312.554688-2.707031.8125-4.050781.8125zm0 0"/><path d="m15.199219 123.816406c-4.308594 0-8.359375-2.625-9.960938-6.890625-2.089843-5.503906.683594-11.671875 6.1875-13.761719l119.65625-45.4375c5.484375-2.136718 11.671875.660157 13.761719 6.183594 2.089844 5.503906-.683594 11.691406-6.1875 13.761719l-119.65625 45.441406c-1.261719.488281-2.539062.703125-3.800781.703125zm0 0"/><path d="m75.019531 143.785156c-7.445312 0-14.871093-1.582031-21.84375-4.714844-12.992187-5.847656-22.933593-16.386718-27.992187-29.71875-5.054688-13.3125-4.628906-27.796874 1.21875-40.789062 5.84375-12.992188 16.402344-22.933594 29.714844-27.988281 13.3125-5.078125 27.796874-4.628907 40.789062 1.214843 12.992188 5.824219 22.933594 16.382813 27.992188 29.71875 5.054687 13.308594 4.628906 27.796876-1.21875 40.789063-5.84375 12.992187-16.382813 22.933594-29.714844 27.988281-6.144532 2.347656-12.566406 3.5-18.945313 3.5zm.042969-85.378906c-3.839844 0-7.679688.707031-11.390625 2.09375-7.980469 3.046875-14.316406 9-17.816406 16.808594-3.496094 7.785156-3.753907 16.492187-.722657 24.46875 3.027344 8 9 14.316406 16.789063 17.835937 7.851563 3.519531 16.511719 3.753907 24.488281.726563 8-3.050782 14.316406-9.003906 17.816406-16.792969 3.496094-7.804687 3.753907-16.488281.722657-24.488281-3.027344-7.980469-9-14.316406-16.789063-17.8125-4.203125-1.898438-8.640625-2.839844-13.097656-2.839844zm0 0"/><path d="m480.375 506.75c-5.886719 0-10.667969-4.78125-10.667969-10.667969 0-17.683593-54.421875-46.871093-171.261719-53.355469-5.867187-.320312-10.390624-5.355468-10.050781-11.242187.320313-5.886719 4.972657-10.582031 11.242188-10.046875 88.300781 4.882812 191.40625 27.390625 191.40625 74.644531 0 5.910157-4.78125 10.667969-10.667969 10.667969zm0 0"/><path d="m11.042969 506.75c-5.890625 0-10.667969-4.78125-10.667969-10.667969 0-47.617187 116.882812-71.9375 225.492188-74.390625h.234374c5.78125 0 10.539063 4.609375 10.667969 10.433594.128907 5.886719-4.523437 10.773438-10.433593 10.902344-126.78125 2.855468-204.628907 32.832031-204.628907 53.054687 0 5.910157-4.777343 10.667969-10.664062 10.667969zm0 0"/><path d="m286.113281 485.414062c-1.023437 0-2.046875-.148437-3.09375-.445312-5.652343-1.707031-8.832031-7.660156-7.125-13.292969l26.453125-87.574219-40.851562-12.351562-28.84375 95.425781c-1.707032 5.652344-7.636719 8.894531-13.292969 7.125-5.652344-1.707031-8.832031-7.660156-7.125-13.289062l31.914063-105.644531c.8125-2.710938 2.667968-4.96875 5.164062-6.316407 2.496094-1.320312 5.417969-1.660156 8.128906-.808593l61.269532 18.515624c5.652343 1.707032 8.832031 7.660157 7.125 13.292969l-29.546876 97.792969c-1.34375 4.605469-5.589843 7.570312-10.175781 7.570312zm0 0"/><path d="m181.707031 272.082031c-5.886719 0-10.664062-4.777343-10.664062-10.667969 0-17.640624-19.136719-32-42.667969-32s-42.667969 14.359376-42.667969 32c0 5.890626-4.777343 10.667969-10.664062 10.667969-5.890625 0-10.667969-4.757812-10.667969-10.667969 0-29.394531 28.714844-53.332031 64-53.332031s64 23.9375 64 53.332031c0 5.910157-4.78125 10.667969-10.667969 10.667969zm0 0"/><path d="m117.707031 485.414062c-5.695312 0-10.410156-4.480468-10.644531-10.21875-1.238281-30.058593-7.402344-43.050781-19.050781-57.832031-3.648438-4.628906-2.859375-11.328125 1.769531-14.976562 4.628906-3.628907 11.351562-2.839844 14.976562 1.769531 13.847657 17.535156 22.144532 34.644531 23.617188 70.164062.234375 5.890626-4.332031 10.859376-10.21875 11.09375-.148438 0-.300781 0-.449219 0zm0 0"/><path d="m117.707031 485.414062c-5.054687 0-9.558593-3.605468-10.496093-8.765624-4.371094-24.257813 3.882812-37.058594 11.199218-48.34375 4.054688-6.25 7.875-12.160157 10.414063-20.605469 1.683593-5.65625 7.636719-8.8125 13.289062-7.148438 5.652344 1.707031 8.851563 7.636719 7.144531 13.292969-3.410156 11.367188-8.46875 19.175781-12.925781 26.089844-6.636719 10.238281-11.007812 17-8.105469 32.960937 1.042969 5.78125-2.796874 11.347657-8.597656 12.394531-.664062.082032-1.300781.125-1.921875.125zm0 0"/></svg>
