<svg id="icon" height="512pt" viewBox="0 0 512 512" width="512pt" xmlns="http://www.w3.org/2000/svg"><path d="m501.761719 200.746094c-4.84375-26.601563-22.445313-114.261719-45.269531-125.054688-4.503907-2.132812-9.496094-2.007812-13.65625.339844-9.683594 5.375-14.183594 18.773438-19.859376 35.753906-11.199218 33.34375-21.953124 58.882813-49.644531 58.882813-21.375 0-30.226562 0-32-53.335938v-32c0-47.058593-38.269531-85.332031-85.332031-85.332031s-85.332031 38.273438-85.332031 85.332031v31.703125c-.109375 4.4375.210937 9.386719.597656 14.550782.894531 12.117187 1.8125 24.636718-4.4375 31.359374-4.757813 5.117188-14.230469 7.722657-28.160156 7.722657-27.285157 0-38.53125-29.933594-49.410157-66.09375-5.910156-19.582031-10.175781-33.726563-20.074218-39.230469-4.691406-2.601562-10.152344-2.472656-15.0625.40625-26.835938 15.785156-54.121094 154.003906-54.121094 222.25 0 91.03125 48 179.242188 91.113281 201.472656 27.585938 14.230469 41.515625 4.542969 55-4.78125 10.898438-7.550781 22.207031-15.359375 45.886719-15.359375 26.433594 0 36.566406 9.578125 48.296875 20.652344 10.925781 10.324219 23.296875 22.015625 47.703125 22.015625 16.917969 0 24.019531-18.835938 32.234375-40.640625 7.894531-20.949219 16.832031-44.691406 31.765625-44.691406 19.945312 0 23.9375 15.210937 28.136719 40.296875 2.5625 15.234375 4.953125 29.632812 16.429687 35.371094 6.761719 3.371093 14.953125 2.644531 24.339844-2.175782 32.449219-16.746094 63.914062-65.386718 80.191406-123.96875 7.234375-26.089844 10.902344-52.179687 10.902344-77.523437 0-26.925781-3.625-61.699219-10.238281-97.921875zm0 0" fill="#cfd8dc"/><g fill="#455a64"><path d="m288.660156 64c-3.902344.0625-7.421875 1.367188-10.304687 4.136719-3.964844 3.863281-6.355469 10.304687-6.355469 17.195312 0 12.375 6.71875 21.335938 16 21.335938s16-8.960938 16-21.335938c0-12.457031-6.164062-21.035156-15.339844-21.332031zm0 0"/><path d="m240 85.332031c0-12.457031-6.164062-21.035156-15.339844-21.332031-4.117187.0625-7.421875 1.367188-10.304687 4.136719-3.964844 3.863281-6.355469 10.304687-6.355469 17.195312 0 12.375 6.71875 21.335938 16 21.335938s16-8.960938 16-21.335938zm0 0"/><path d="m277.332031 149.332031c0-17.671875-9.550781-32-21.332031-32s-21.332031 14.328125-21.332031 32c0 17.675781 9.550781 32 21.332031 32s21.332031-14.324219 21.332031-32zm0 0"/></g><path d="m288 512c-24.40625 0-36.777344-11.691406-47.703125-22.015625-11.730469-11.09375-21.863281-20.652344-48.296875-20.652344-23.679688 0-34.988281 7.808594-45.886719 15.382813-13.503906 9.324218-27.4375 18.964844-55 4.777344-43.113281-22.269532-91.113281-110.460938-91.113281-201.492188 0-68.246094 27.285156-206.464844 54.121094-222.25 4.886718-2.859375 10.371094-3.007812 15.0625-.425781 9.898437 5.503906 14.164062 19.667969 20.074218 39.25 10.878907 36.160156 22.125 66.09375 49.410157 66.09375 13.929687 0 23.402343-2.605469 28.160156-7.722657 6.226563-6.699218 5.332031-19.222656 4.4375-31.359374-.386719-5.144532-.707031-10.113282-.597656-14.550782v-31.703125c0-47.058593 38.269531-85.332031 85.332031-85.332031s85.332031 38.273438 85.332031 85.332031v32c1.773438 53.335938 10.625 53.335938 32 53.335938 27.691407 0 38.445313-25.539063 49.621094-58.925781 5.699219-16.957032 10.175781-30.355469 19.863281-35.753907 4.160156-2.28125 9.152344-2.429687 13.652344-.339843 22.847656 10.816406 40.425781 98.472656 45.269531 125.078124 6.636719 36.242188 10.261719 71.015626 10.261719 97.941407 0 25.34375-3.667969 51.433593-10.921875 77.523437-16.277344 58.5625-47.746094 107.199219-80.191406 123.96875-9.386719 4.863282-17.578125 5.546875-24.34375 2.175782-11.453125-5.738282-13.867188-20.117188-16.425781-35.347657-4.179688-25.089843-8.171876-40.320312-28.117188-40.320312-14.933594 0-23.871094 23.742187-31.765625 44.691406-8.214844 21.804687-15.316406 40.640625-32.234375 40.640625zm-96-64c34.902344 0 50.453125 14.675781 62.953125 26.476562 9.941406 9.40625 17.132813 16.191407 33.046875 16.191407 2.878906-1.878907 8.535156-16.898438 12.289062-26.839844 9.8125-26.046875 22.015626-58.496094 51.710938-58.496094 39.445312 0 45.523438 36.375 49.171875 58.113281 1.152344 6.953126 2.902344 17.367188 5.058594 19.820313.148437-.214844 1.769531-.449219 4.882812-2.070313 26.582031-13.71875 55.125-59.222656 69.421875-110.699218 6.71875-24.257813 10.132813-48.382813 10.132813-71.828125 0-25.664063-3.519531-59.09375-9.898438-94.082031-9.921875-54.441407-22.699219-92.351563-30.421875-105.40625-2.347656 4.992187-5.015625 12.992187-7.167968 19.371093-9.792969 29.246094-24.597657 73.449219-69.847657 73.449219-43.539062 0-51.625-22.910156-53.332031-74.304688v-32.363281c0-35.285156-28.714844-64-64-64s-64 28.714844-64 64v32c-.105469 4.074219.214844 8.320313.535156 12.695313 1.109375 15.125 2.496094 33.917968-10.09375 47.445312-9.066406 9.769532-23.402344 14.527344-43.773437 14.527344-45.335938 0-60.097657-48.894531-69.847657-81.28125-2.175781-7.210938-4.925781-16.320312-7.402343-21.992188-14.355469 24.234376-40.085938 124.90625-40.085938 199.273438 0 80.960938 42.007813 163.136719 79.554688 182.527344 16.167969 8.363281 21.117187 4.886718 33.066406-3.347656 11.691406-8.085938 27.691406-19.179688 58.046875-19.179688zm0 0"/><path d="m288 106.667969c-9.28125 0-16-8.984375-16-21.335938 0-6.976562 2.304688-13.246093 6.335938-17.171875 2.859374-2.773437 6.699218-4.140625 10.28125-4.160156 9.195312.277344 15.382812 8.832031 15.382812 21.332031 0 12.351563-6.71875 21.335938-16 21.335938zm0 0"/><path d="m224 106.667969c-9.28125 0-16-8.984375-16-21.335938 0-6.976562 2.304688-13.246093 6.335938-17.171875 2.878906-2.773437 6.785156-4.140625 10.28125-4.160156 9.195312.277344 15.382812 8.832031 15.382812 21.332031 0 12.351563-6.71875 21.335938-16 21.335938zm0 0"/><path d="m277.332031 149.332031c0-17.671875-9.550781-32-21.332031-32s-21.332031 14.328125-21.332031 32c0 17.675781 9.550781 32 21.332031 32s21.332031-14.324219 21.332031-32zm0 0"/></svg>
