<svg id="icon" height="511pt" viewBox="-31 0 511 511.99901" width="511pt" xmlns="http://www.w3.org/2000/svg"><path d="m242.71875 56.445312c-30.039062-30.035156-29.527344-42.496093-29.503906-42.195312 1.8125-5.054688-.425782-10.6875-5.226563-13.121094-4.820312-2.386718-10.710937-.894531-13.695312 3.605469-.34375.511719-8.472657 12.757813-32.363281 53.910156-13.652344 23.507813-15.382813 47.574219-4.78125 66.027344 9.046874 15.679687 25.816406 24.660156 46.019531 24.660156 21.03125 0 41.980469-15.0625 50.898437-36.585937 8.234375-19.90625 3.992188-40.9375-11.347656-56.300782zm0 0" fill="#ffc107"/><path d="m288.5 192c-8 0-12.84375 6.824219-17.941406 14.058594-1.195313 1.683594-2.878906 4.050781-4.308594 5.824218-1.429688-1.003906-3.117188-2.261718-4.503906-3.308593-9.300782-6.996094-22.035156-16.574219-37.246094-16.574219-16.726562 0-23.894531 19.5625-30.828125 38.464844-3.050781 8.296875-8.683594 23.722656-10.921875 25.769531-4.054688-2.625-8.492188-20.820313-10.625-29.570313-4.523438-18.601562-8.445312-34.664062-22.292969-34.664062-10.816406 0-17.066406 7.742188-21.632812 13.394531-4.542969 5.65625-6.761719 7.9375-10.367188 7.9375-5.886719 0-10.664062 4.777344-10.664062 10.667969v192c0 5.886719 4.777343 10.664062 10.664062 10.664062h170.667969c5.886719 0 10.667969-4.777343 10.667969-10.664062v-213.335938c0-5.886718-4.78125-10.664062-10.667969-10.664062zm0 0" fill="#cfd8dc"/><path d="m395.167969 405.332031h-384c-5.890625 0-10.667969 4.777344-10.667969 10.667969 0 52.925781 43.070312 96 96 96h213.332031c52.929688 0 96-43.074219 96-96 0-5.890625-4.777343-10.667969-10.664062-10.667969zm0 0" fill="#607d8b"/><path d="m395.167969 426.664062c-29.398438 0-53.335938-23.933593-53.335938-53.332031 0-29.398437 23.9375-53.332031 53.335938-53.332031 29.394531 0 53.332031 23.933594 53.332031 53.332031 0 29.398438-23.9375 53.332031-53.332031 53.332031zm0-85.332031c-17.644531 0-32 14.359375-32 32 0 17.644531 14.355469 32 32 32 17.640625 0 32-14.355469 32-32 0-17.640625-14.359375-32-32-32zm0 0" fill="#607d8b"/><path d="m267.167969 149.332031h-128c-17.644531 0-32 14.359375-32 32v42.667969c0 5.886719 4.777343 10.664062 10.664062 10.664062 14.1875 0 21.867188-9.554687 26.988281-15.871093.660157-.832031 1.515626-1.875 2.347657-2.859375 1.492187 4.4375 3.070312 10.945312 4.242187 15.765625 5.207032 21.398437 11.09375 45.632812 30.421875 45.632812 17.367188 0 24.746094-20.09375 31.871094-39.53125 3.117187-8.445312 8.300781-22.613281 10.796875-24.46875 8.0625 0 17.128906 6.804688 24.425781 12.289063 6.699219 5.054687 12.011719 9.042968 18.242188 9.042968 9.277343 0 15.125-8.277343 20.796875-16.277343 1.28125-1.8125 3.117187-4.414063 4.269531-5.738281 4.050781-1.511719 6.933594-5.417969 6.933594-9.984376v-21.332031c0-17.640625-14.359375-32-32-32zm0 0" fill="#b0bec5"/><path d="m309.832031 512h-213.332031c-52.929688 0-96-43.074219-96-96 0-5.890625 4.777344-10.667969 10.667969-10.667969h384c5.886719 0 10.664062 4.777344 10.664062 10.667969 0 52.925781-43.070312 96-96 96zm-287.253906-85.335938c5.207031 36.140626 36.375 64 73.921875 64h213.332031c37.546875 0 68.714844-27.859374 73.921875-64zm0 0"/><path d="m395.167969 426.664062c-29.421875 0-53.335938-23.914062-53.335938-53.332031s23.914063-53.332031 53.335938-53.332031c29.417969 0 53.332031 23.914062 53.332031 53.332031s-23.914062 53.332031-53.332031 53.332031zm0-85.332031c-17.644531 0-32 14.359375-32 32 0 17.644531 14.355469 32 32 32 17.640625 0 32-14.355469 32-32 0-17.640625-14.359375-32-32-32zm0 0"/><path d="m203.167969 149.332031c-20.203125 0-36.972657-9.003906-46.019531-24.660156-10.601563-18.453125-8.851563-42.519531 4.78125-66.027344 23.890624-41.152343 32.019531-53.398437 32.363281-53.886719 3.007812-4.503906 8.894531-6.015624 13.695312-3.605468 4.820313 2.429687 7.039063 8.0625 5.226563 13.117187 0 0 0-.019531.019531-.019531.277344 0 .554687 13.289062 29.484375 42.21875 15.359375 15.359375 19.605469 36.394531 11.371094 56.296875-8.941406 21.527344-29.890625 36.566406-50.921875 36.566406zm-3.480469-112.726562c-4.777344 7.9375-11.113281 18.625-19.285156 32.75-9.597656 16.488281-11.371094 33.191406-4.757813 44.671875 5.1875 9.023437 14.957031 13.972656 27.523438 13.972656 12.242187 0 25.664062-10.070312 31.1875-23.425781 2.902343-6.933594 5.824219-20.480469-6.71875-33.042969-14.058594-14.039062-22.722657-25.621094-27.949219-34.925781zm0 0"/><path d="m288.5 426.664062h-170.667969c-5.886719 0-10.664062-4.777343-10.664062-10.664062v-234.667969c0-17.640625 14.355469-32 32-32h128c17.640625 0 32 14.359375 32 32v234.667969c0 5.886719-4.78125 10.664062-10.667969 10.664062zm-160-21.332031h149.332031v-224c0-5.867187-4.800781-10.667969-10.664062-10.667969h-128c-5.867188 0-10.667969 4.800782-10.667969 10.667969zm0 0"/><path d="m203.167969 170.664062c-5.890625 0-10.667969-4.777343-10.667969-10.664062v-42.667969c0-5.886719 4.777344-10.667969 10.667969-10.667969 5.886719 0 10.664062 4.78125 10.664062 10.667969v42.667969c0 5.886719-4.777343 10.664062-10.664062 10.664062zm0 0"/><path d="m181.832031 277.332031c-19.261719 0-25.171875-24.191406-30.355469-45.523437-1.195312-4.886719-2.796874-11.457032-4.289062-15.894532-.851562.980469-1.707031 2.046876-2.390625 2.878907-5.097656 6.335937-12.757813 15.871093-26.964844 15.871093-5.886719 0-10.664062-4.777343-10.664062-10.664062 0-5.890625 4.777343-10.667969 10.664062-10.667969 3.628907 0 5.824219-2.28125 10.347657-7.914062 4.542968-5.675781 10.792968-13.417969 21.652343-13.417969 13.890625 0 17.8125 16.105469 22.378907 34.75 2.132812 8.726562 6.550781 26.882812 10.5625 29.484375 2.195312-2.070313 7.871093-17.492187 10.941406-25.8125 6.933594-18.882813 14.125-38.421875 30.785156-38.421875 15.101562 0 27.816406 9.535156 37.097656 16.511719 1.429688 1.085937 3.15625 2.367187 4.652344 3.414062 1.429688-1.792969 3.136719-4.203125 4.328125-5.890625 5.101563-7.230468 9.921875-14.035156 17.921875-14.035156 5.886719 0 10.667969 4.777344 10.667969 10.664062 0 4.566407-2.882813 8.472657-6.914063 9.984376-1.152344 1.324218-2.964844 3.90625-4.222656 5.695312-5.675781 8.023438-11.542969 16.320312-20.863281 16.320312-6.273438 0-11.605469-4.007812-18.371094-9.085937-7.253906-5.460937-16.320313-12.246094-24.296875-12.246094-2.476562 1.878907-7.660156 16-10.773438 24.449219-7.167968 19.457031-14.570312 39.550781-31.894531 39.550781zm0 0"/></svg>
