<svg id="icon" height="512pt" viewBox="0 -1 512.31136 512" width="512pt" xmlns="http://www.w3.org/2000/svg"><path d="m481.925781 20.332031c-346.328125-62.785156-472.917969 40.597657-478.144531 45.035157-3.925781 3.308593-4.90625 8.960937-2.347656 13.417968l85.332031 149.335938c1.964844 3.433594 5.570313 5.375 9.28125 5.375 1.792969 0 3.605469-.449219 5.289063-1.386719 5.121093-2.945313 6.890624-9.453125 3.96875-14.570313l-42.707032-74.710937c.148438-.253906.277344-.511719.402344-.765625 41.003906-86.679688 281.238281-104.152344 416.746094-100.566406 6.613281-.191406 10.304687-4.03125 10.882812-9.578125.574219-5.546875-3.222656-10.605469-8.703125-11.585938zm0 0" fill="#455a64"/><path d="m500.207031 458.371094c-12.011719-30.316406-28.480469-71.851563-30.871093-118.742188-5.011719-98.773437-58.6875-255.464844-181.332032-255.464844-125.953125 0-177.257812 175.445313-181.332031 255.464844-2.390625 46.890625-18.839844 88.449219-30.871094 118.742188-8.640625 21.78125-13.84375 34.941406-11.5 44.371094 1.195313 4.757812 5.441407 8.085937 10.347657 8.085937h426.667968c4.886719 0 9.152344-3.328125 10.347656-8.085937 2.386719-9.429688-2.816406-22.589844-11.457031-44.371094zm0 0" fill="#607d8b"/><path d="m288.023438 148.164062c-64.703126 0-117.332032 52.648438-117.332032 117.332032 0 35.027344 15.488282 67.519531 42.667969 90.027344v37.972656c0 5.886718 4.777344 10.667968 10.664063 10.667968h42.667968c-5.886718 0-10.667968-4.78125-10.667968-10.667968v-21.332032c0-5.890624 4.78125-10.667968 10.667968-10.667968 5.886719 0 10.667969 4.777344 10.667969 10.667968v21.332032c0 5.886718-4.78125 10.667968-10.667969 10.667968h42.667969c-5.890625 0-10.667969-4.78125-10.667969-10.667968v-21.332032c0-5.890624 4.777344-10.667968 10.667969-10.667968 5.886719 0 10.664063 4.777344 10.664063 10.667968v21.332032c0 5.886718-4.777344 10.667968-10.664063 10.667968h42.664063c5.890624 0 10.667968-4.78125 10.667968-10.667968v-37.972656c27.179688-22.488282 42.667969-55 42.667969-90.027344 0-64.683594-52.652344-117.332032-117.335937-117.332032zm-17.257813 160.617188c-5.929687 6.867188-15.1875 10.816406-25.40625 10.816406-8.234375 0-16.128906-4.097656-22.25-11.5625-7.808594-9.515625-11.648437-23.042968-9.539063-33.621094 2.519532-12.566406 10.945313-19.585937 22.957032-19.585937 16.277344.425781 38.742187 17.453125 40.726562 30.914063v.019531c1.257813 8.554687-1.046875 16.726562-6.488281 23.019531zm81.792969-.640625c-6.078125 7.402344-13.910156 11.457031-22.058594 11.457031-10.113281 0-19.308594-3.925781-25.195312-10.730468-5.4375-6.316407-7.765626-14.507813-6.507813-23.105469 1.964844-13.460938 24.277344-30.527344 40.449219-30.933594 11.691406-.191406 20.375 7.019531 22.871094 19.605469 2.089843 10.644531-1.75 24.191406-9.558594 33.707031zm0 0" fill="#eceff1"/><path d="m96.023438 233.496094c-3.710938 0-7.292969-1.941406-9.277344-5.375l-85.335938-149.335938c-2.558594-4.457031-1.554687-10.109375 2.347656-13.417968 5.226563-4.4375 131.820313-107.820313 478.144532-45.035157 5.484375 1.003907 9.28125 6.039063 8.703125 11.585938-.574219 5.546875-4.457031 9.386719-10.878907 9.578125-135.464843-3.585938-375.722656 13.867187-416.726562 100.566406-.125.253906-.253906.511719-.402344.765625l42.6875 74.710937c2.921875 5.097657 1.152344 11.625-3.96875 14.570313-1.664062.917969-3.5 1.386719-5.292968 1.386719zm-71.273438-156.886719 25.558594 44.757813c44.414062-65.769532 182.484375-89.300782 291.027344-97.40625-196.285157-13.207032-291.15625 36.351562-316.585938 52.648437zm0 0"/><path d="m501.359375 510.828125h-426.667969c-4.886718 0-9.152344-3.328125-10.347656-8.085937-2.367188-9.429688 2.859375-22.589844 11.5-44.371094 12.011719-30.316406 28.480469-71.851563 30.871094-118.742188 4.074218-80.019531 55.378906-255.464844 181.332031-255.464844 122.644531 0 176.296875 156.691407 181.332031 255.464844 2.390625 46.890625 18.839844 88.449219 30.871094 118.742188 8.640625 21.78125 13.84375 34.941406 11.496094 44.371094-1.234375 4.757812-5.503906 8.085937-10.386719 8.085937zm-414.445313-21.332031h402.21875c-2.066406-6.359375-5.566406-15.148438-8.789062-23.253906-11.859375-29.910157-29.78125-75.113282-32.339844-125.546876-3.902344-76.757812-48.148437-235.199218-160-235.199218-110.761718 0-156.265625 161.515625-160 235.199218-2.558594 50.410157-20.480468 95.617188-32.339844 125.546876-3.203124 8.085937-6.679687 16.832031-8.75 23.253906zm0 0"/><path d="m352.023438 404.164062h-128c-5.886719 0-10.664063-4.78125-10.664063-10.667968v-37.972656c-27.179687-22.507813-42.667969-55-42.667969-90.027344 0-64.683594 52.628906-117.332032 117.332032-117.332032 64.707031 0 117.335937 52.648438 117.335937 117.332032 0 35.027344-15.488281 67.539062-42.667969 90.027344v37.972656c0 5.886718-4.777344 10.667968-10.667968 10.667968zm-117.332032-21.335937h106.667969v-32.46875c0-3.328125 1.554687-6.507813 4.246094-8.492187 24.425781-18.472657 38.417969-46.292969 38.417969-76.351563 0-52.925781-43.070313-96-96-96-52.925782 0-96 43.074219-96 96 0 30.039063 14.019531 57.878906 38.445312 76.351563 2.664062 2.007812 4.222656 5.164062 4.222656 8.492187zm0 0"/><path d="m309.359375 404.164062c-5.890625 0-10.667969-4.78125-10.667969-10.667968v-21.332032c0-5.890624 4.777344-10.667968 10.667969-10.667968 5.886719 0 10.664063 4.777344 10.664063 10.667968v21.332032c0 5.886718-4.777344 10.667968-10.664063 10.667968zm0 0"/><path d="m266.691406 404.164062c-5.886718 0-10.667968-4.78125-10.667968-10.667968v-21.332032c0-5.890624 4.78125-10.667968 10.667968-10.667968 5.886719 0 10.667969 4.777344 10.667969 10.667968v21.332032c0 5.886718-4.78125 10.667968-10.667969 10.667968zm0 0"/><path d="m330.5 319.597656c-10.113281 0-19.308594-3.925781-25.195312-10.730468-5.4375-6.316407-7.765626-14.507813-6.507813-23.105469 1.964844-13.460938 24.277344-30.527344 40.449219-30.933594 11.390625-.191406 20.375 7.019531 22.871094 19.605469 2.089843 10.644531-1.75 24.191406-9.578126 33.707031-6.058593 7.382813-13.890624 11.457031-22.039062 11.457031zm-10.644531-30.273437c-.234375 2.21875.296875 4.097656 1.578125 5.589843 1.835937 2.132813 5.140625 3.347657 9.066406 3.347657 1.621094 0 3.648438-1.320313 5.566406-3.667969 4.117188-5.011719 5.867188-12.222656 5.121094-16.042969-.320312-1.597656-.746094-2.347656-.894531-2.515625-4.117188-1.257812-17.984375 8.191406-20.4375 13.289063zm-10.496094-2.027344h.210937zm0 0"/><path d="m245.359375 319.597656c-8.234375 0-16.128906-4.097656-22.25-11.5625-7.808594-9.515625-11.648437-23.042968-9.539063-33.621094 2.496094-12.566406 11.160157-19.585937 22.957032-19.585937 16.277344.425781 38.742187 17.453125 40.726562 30.914063v.019531c1.257813 8.554687-1.046875 16.726562-6.488281 23.019531-5.929687 6.867188-15.1875 10.816406-25.40625 10.816406zm-9.214844-43.519531c-.386719 0-.726562.042969-1.003906.148437.085937 0-.34375.746094-.660156 2.347657-.75 3.753906.980469 10.921875 5.097656 15.914062 1.960937 2.386719 4.074219 3.773438 5.78125 3.773438 4.011719 0 7.402344-1.257813 9.277344-3.410157 1.261719-1.453124 1.792969-3.308593 1.582031-5.503906-2.476562-5.078125-15.105469-13.269531-20.074219-13.269531zm0 0"/></svg>
