<svg id="icon" height="512pt" viewBox="0 0 512 512" width="512pt" xmlns="http://www.w3.org/2000/svg"><path d="m330.667969 128c-7.105469 0-14.039063.574219-20.929688 1.429688-5.460937.660156-9.515625 5.398437-9.363281 10.902343.167969 5.503907 4.5 9.984375 10.003906 10.324219 32.875 2.027344 54.398438 5.953125 65.769532 9.363281-16.445313 4.949219-53.375 10.648438-109.480469 10.648438-56.726563 0-93.824219-5.804688-110.015625-10.796875 3.625-2.472656 5.480468-7.019532 4.351562-11.457032-1.34375-5.332031-6.402344-8.765624-11.96875-7.933593-82.175781 12.542969-149.035156 98.175781-149.035156 190.847656 0 99.625 76.566406 180.671875 170.667969 180.671875 27.304687 0 54.355469-7.039062 78.613281-20.394531 25.109375 13.355469 53.117188 20.394531 81.386719 20.394531 99.988281 0 181.332031-86.144531 181.332031-192s-81.34375-192-181.332031-192zm0 0" fill="#455a64"/><path d="m402.601562 228.457031c-.894531-2.664062-2.816406-4.882812-5.355468-6.164062-2.515625-1.257813-5.417969-1.492188-8.148438-.574219l-80.960937 26.984375c-5.585938 1.855469-8.59375 7.894531-6.738281 13.484375 7.445312 22.3125 28.285156 36.480469 50.621093 36.480469 5.570313 0 11.246094-.875 16.832031-2.730469 27.90625-9.324219 43.03125-39.574219 33.75-67.480469zm0 0" fill="#f44336"/><path d="m225.195312 248.703125-80.960937-26.984375c-2.6875-.917969-5.589844-.707031-8.148437.574219-2.539063 1.28125-4.460938 3.5-5.355469 6.164062-9.300781 27.90625 5.84375 58.15625 33.75 67.480469 5.589843 1.832031 11.242187 2.730469 16.832031 2.730469 22.335938 0 43.199219-14.144531 50.644531-36.460938 1.835938-5.609375-1.171875-11.648437-6.761719-13.503906zm0 0" fill="#f44336"/><path d="m394.667969 160c0-11.78125-57.308594-21.332031-128-21.332031-70.695313 0-128 9.550781-128 21.332031s57.304687 21.332031 128 21.332031c70.691406 0 128-9.550781 128-21.332031zm0 0" fill="#eceff1"/><path d="m351.9375 298.6875c-8.171875 0-16.300781-1.917969-23.789062-5.675781-12.757813-6.378907-22.25-17.320313-26.75-30.824219-1.855469-5.613281 1.171874-11.628906 6.738281-13.503906l80.941406-26.988282c5.609375-1.855468 11.625 1.152344 13.503906 6.742188 4.5 13.523438 3.476563 27.988281-2.902343 40.703125-6.378907 12.757813-17.324219 22.25-30.828126 26.753906-5.542968 1.875-11.242187 2.792969-16.914062 2.792969zm-25.21875-33.707031c2.902344 3.734375 6.613281 6.785156 10.945312 8.960937 7.660157 3.820313 16.296876 4.480469 24.449219 1.726563 8.105469-2.6875 14.675781-8.402344 18.496094-16.019531 2.175781-4.351563 3.304687-9.046876 3.390625-13.761719zm0 0"/><path d="m181.398438 298.6875c-5.675782 0-11.371094-.9375-16.917969-2.773438-13.503907-4.5-24.449219-13.992187-30.828125-26.75-6.378906-12.738281-7.402344-27.179687-2.898438-40.707031 1.898438-5.609375 7.933594-8.59375 13.503906-6.738281l80.9375 26.984375c5.589844 1.878906 8.597657 7.894531 6.742188 13.503906-4.503906 13.503907-13.996094 24.449219-26.753906 30.828125-7.488282 3.734375-15.617188 5.652344-23.785156 5.652344zm-32.066407-52.800781c.085938 4.714843 1.238281 9.386719 3.394531 13.761719 3.816407 7.617187 10.386719 13.332031 18.496094 16.019531 8.0625 2.730469 16.765625 2.09375 24.445313-1.726563 4.332031-2.175781 8.042969-5.226562 10.945312-8.960937zm0 0"/><path d="m311.703125 444.457031c-5.144531 0-9.6875-3.753906-10.519531-9l-6.675782-42.15625c-.917968-5.800781 3.050782-11.261719 8.875-12.203125 5.714844-.875 11.285157 3.050782 12.203126 8.875l6.675781 42.15625c.917969 5.800782-3.050781 11.261719-8.875 12.203125-.554688.082031-1.109375.125-1.683594.125zm0 0"/><path d="m355.667969 433.898438c-4.5 0-8.679688-2.859376-10.152344-7.382813l-13.183594-40.554687c-1.816406-5.609376 1.257813-11.605469 6.847657-13.4375 5.589843-1.835938 11.648437 1.257812 13.4375 6.847656l13.183593 40.554687c1.816407 5.609375-1.257812 11.605469-6.847656 13.441407-1.085937.359374-2.195313.53125-3.285156.53125zm0 0"/><path d="m397.417969 416.597656c-3.882813 0-7.617188-2.132812-9.492188-5.824218l-19.371093-38.015626c-2.6875-5.226562-.574219-11.667968 4.671874-14.335937 5.183594-2.644531 11.667969-.597656 14.335938 4.671875l19.371094 38.015625c2.6875 5.226563.574218 11.667969-4.671875 14.335937-1.558594.789063-3.199219 1.152344-4.84375 1.152344zm0 0"/><path d="m435.96875 393.003906c-3.285156 0-6.550781-1.515625-8.621094-4.394531l-25.085937-34.519531c-3.457031-4.777344-2.410157-11.433594 2.347656-14.890625 4.757813-3.433594 11.410156-2.429688 14.890625 2.347656l25.085938 34.515625c3.457031 4.78125 2.410156 11.4375-2.347657 14.890625-1.898437 1.386719-4.09375 2.050781-6.269531 2.050781zm0 0"/><path d="m221.632812 444.457031c-.554687 0-1.132812-.042969-1.6875-.125-5.824218-.941406-9.789062-6.402343-8.875-12.203125l6.679688-42.15625c.917969-5.824218 6.464844-9.75 12.203125-8.875 5.824219.941406 9.789063 6.402344 8.875 12.203125l-6.679687 42.15625c-.832032 5.246094-5.375 9-10.515626 9zm0 0"/><path d="m177.664062 433.898438c-1.089843 0-2.21875-.171876-3.285156-.511719-5.609375-1.835938-8.660156-7.828125-6.847656-13.441407l13.183594-40.554687c1.8125-5.609375 7.871094-8.679687 13.441406-6.847656 5.609375 1.835937 8.660156 7.832031 6.847656 13.441406l-13.183594 40.554687c-1.472656 4.5-5.65625 7.359376-10.15625 7.359376zm0 0"/><path d="m135.914062 416.597656c-1.640624 0-3.285156-.382812-4.84375-1.171875-5.246093-2.667969-7.359374-9.109375-4.671874-14.335937l19.371093-38.019532c2.667969-5.289062 9.175781-7.316406 14.335938-4.671874 5.25 2.667968 7.359375 9.109374 4.671875 14.335937l-19.371094 38.019531c-1.855469 3.730469-5.609375 5.84375-9.492188 5.84375zm0 0"/><path d="m97.367188 393.003906c-2.199219 0-4.375-.664062-6.273438-2.050781-4.777344-3.453125-5.804688-10.132813-2.347656-14.890625l25.089844-34.515625c3.476562-4.800781 10.152343-5.78125 14.890624-2.347656 4.777344 3.457031 5.800782 10.132812 2.34375 14.890625l-25.085937 34.519531c-2.070313 2.878906-5.3125 4.394531-8.617187 4.394531zm0 0"/><path d="m266.667969 426.667969c-70.890625 0-138.371094-26.753907-190.015625-75.308594-4.289063-4.03125-4.503906-10.792969-.449219-15.082031 4.054687-4.289063 10.792969-4.480469 15.082031-.449219 47.636719 44.824219 109.929688 69.503906 175.382813 69.503906 65.449219 0 127.742187-24.679687 175.402343-69.523437 4.285157-4.011719 11.050782-3.839844 15.082032.449218 4.03125 4.285157 3.839844 11.050782-.449219 15.082032-51.667969 48.574218-119.144531 75.328125-190.035156 75.328125zm0 0"/><path d="m266.667969 448c-5.890625 0-10.667969-4.777344-10.667969-10.667969v-42.664062c0-5.890625 4.777344-10.667969 10.667969-10.667969 5.886719 0 10.664062 4.777344 10.664062 10.667969v42.664062c0 5.890625-4.777343 10.667969-10.664062 10.667969zm0 0"/><path d="m330.667969 512c-28.289063 0-56.300781-7.039062-81.386719-20.394531-24.257812 13.355469-51.308594 20.394531-78.613281 20.394531-94.101563 0-170.667969-81.046875-170.667969-180.671875 0-92.671875 66.878906-178.28125 149.054688-190.847656 5.503906-.855469 10.605468 2.601562 11.949218 7.914062 1.128906 4.457031-.707031 9.003907-4.351562 11.457031 16.191406 5.011719 53.289062 10.816407 110.015625 10.816407 56.125 0 93.035156-5.699219 109.503906-10.648438-11.371094-3.410156-32.898437-7.335937-65.792969-9.363281-5.503906-.339844-9.835937-4.820312-10.003906-10.324219-.171875-5.503906 3.902344-10.21875 9.363281-10.902343 6.890625-.875 13.847657-1.429688 20.929688-1.429688 99.988281 0 181.332031 86.121094 181.332031 192s-81.34375 192-181.332031 192zm-81.472657-43.308594c1.855469 0 3.691407.472656 5.355469 1.429688 23.1875 13.441406 49.511719 20.546875 76.117188 20.546875 88.234375 0 160-76.566407 160-170.667969 0-66.433594-35.777344-124.117188-87.832031-152.320312-14.613282 20.972656-89.578126 24.320312-136.167969 24.320312-47.019531 0-122.988281-3.433594-136.554688-24.894531-61.675781 21.503906-108.78125 90.28125-108.78125 164.222656 0 87.851563 67.007813 159.339844 149.335938 159.339844 25.492187 0 50.75-7.082031 73.023437-20.460938 1.683594-1.023437 3.605469-1.515625 5.503906-1.515625zm136.191407-304.679687h.214843zm0 0"/><path d="m266.667969 192c-51.796875 0-138.667969-4.160156-138.667969-32s86.871094-32 138.667969-32 138.664062 4.160156 138.664062 32-86.867187 32-138.664062 32zm-109.589844-32c16.445313 4.949219 53.375 10.667969 109.589844 10.667969 56.210937 0 93.140625-5.71875 109.589843-10.667969-16.449218-4.949219-53.378906-10.667969-109.589843-10.667969-56.214844 0-93.144531 5.71875-109.589844 10.667969zm228.308594 4.011719h.214843zm0 0"/><path d="m394.667969 170.667969c-5.890625 0-10.667969-4.78125-10.667969-10.667969v-21.332031c0-64.683594-52.652344-117.335938-117.332031-117.335938-64.683594 0-117.335938 52.652344-117.335938 117.335938v21.332031c0 5.886719-4.777343 10.667969-10.664062 10.667969-5.890625 0-10.667969-4.78125-10.667969-10.667969v-21.332031c0-76.460938 62.207031-138.667969 138.667969-138.667969 76.457031 0 138.664062 62.207031 138.664062 138.667969v21.332031c0 5.886719-4.777343 10.667969-10.664062 10.667969zm0 0"/></svg>
