<svg id="icon" height="512pt" viewBox="0 0 512 512" width="512pt" xmlns="http://www.w3.org/2000/svg"><path d="m502.527344 457.386719-214.441406-214.441407c-4.011719-4.011718-11.09375-4.011718-15.082032 0l-30.167968 30.164063c-4.160157 4.160156-4.160157 10.921875 0 15.082031l214.445312 214.441406c6.207031 6.253907 14.421875 9.367188 22.613281 9.367188 8.191407 0 16.402344-3.113281 22.632813-9.34375 6.039062-6.039062 9.367187-14.082031 9.367187-22.636719 0-8.554687-3.328125-16.59375-9.367187-22.632812zm0 0" fill="#90a4ae"/><path d="m265.535156 54.378906c-58.324218-58.324218-152.875-58.324218-211.179687 0-58.300781 58.324219-58.324219 152.875 0 211.179688 58.328125 58.324218 152.875 58.324218 211.179687 0 8.128906-8.128906 15-17.003906 20.863282-26.347656-26.453126 35.5625-68.671876 58.6875-116.394532 58.6875-64.125 0-116.117187-51.988282-116.117187-116.117188 0-51.304688 41.578125-92.886719 92.886719-92.886719 41.046874 0 74.304687 33.261719 74.304687 74.304688 0 32.832031-26.625 59.457031-59.457031 59.457031-26.261719 0-47.550782-21.289062-47.550782-47.550781 0-21.015625 17.023438-38.039063 38.035157-38.039063 16.8125 0 30.445312 13.632813 30.445312 30.441406 0-16.808593-13.632812-30.441406-30.445312-30.441406-21.011719 0-38.035157 17.023438-38.035157 38.039063 0 26.261719 21.289063 47.550781 47.550782 47.550781 32.832031 0 59.457031-26.625 59.457031-59.457031 0-41.042969-33.257813-74.304688-74.304687-74.304688-51.308594 0-92.886719 41.582031-92.886719 92.886719 0 64.128906 51.992187 116.117188 116.117187 116.117188 47.722656 0 89.941406-23.144532 116.394532-58.6875 36.203124-57.644532 29.3125-134.636719-20.863282-184.832032zm0 0" fill="#ffd54f"/><path d="m159.9375 319.894531c-40.984375 0-81.964844-15.574219-113.152344-46.765625-62.378906-62.398437-62.378906-163.902344 0-226.257812 30.226563-30.230469 70.421875-46.871094 113.152344-46.871094s82.921875 16.640625 113.128906 46.871094c53.054688 53.03125 62.273438 134.484375 22.378906 198.015625 0 0 0 .019531-.019531.042969-6.59375 10.472656-14.125 19.988281-22.359375 28.199218-31.1875 31.191406-72.148437 46.765625-113.128906 46.765625zm-95.382812-138.09375c0 58.15625 47.296874 105.453125 105.429687 105.453125 42.816406 0 82.113281-19.839844 107.839844-54.421875 34.113281-54.378906 26.15625-124.929687-19.863281-170.921875-26.195313-26.199218-60.992188-40.621094-98.046876-40.621094-37.054687 0-71.828124 14.464844-98.046874 40.640626-54.058594 54.058593-54.058594 142.015624 0 196.097656 8.191406 8.171875 17.128906 15.101562 26.625 20.820312-27.671876-23.273437-45.269532-58.132812-45.269532-97.046875 0-57.085937 46.460938-103.550781 103.550782-103.550781 46.847656 0 84.96875 38.125 84.96875 84.972656 0 38.65625-31.464844 70.101563-70.097657 70.101563-32.109375 0-58.21875-26.136719-58.21875-58.21875 0-26.859375 21.84375-48.707031 48.703125-48.707031 22.65625 0 41.109375 18.433593 41.109375 41.109374 0 5.890626-4.78125 10.667969-10.667969 10.667969-5.886718 0-10.667968-4.777343-10.667968-10.667969 0-10.898437-8.871094-19.773437-19.773438-19.773437-15.105468 0-27.371094 12.265625-27.371094 27.371094 0 20.351562 16.53125 36.882812 36.886719 36.882812 26.898438 0 48.765625-21.867187 48.765625-48.765625 0-35.117187-28.542968-63.636718-63.636718-63.636718-45.332032.019531-82.21875 36.882812-82.21875 82.214843zm0 0"/><path d="m479.894531 512c-8.191406 0-16.40625-3.113281-22.636719-9.34375l-214.421874-214.441406c-4.160157-4.160156-4.160157-10.925782 0-15.085938l30.167968-30.164062c4.160156-4.160156 10.921875-4.160156 15.082032 0l214.441406 214.421875c12.480468 12.480469 12.480468 32.769531 0 45.246093-6.230469 6.253907-14.441406 9.367188-22.632813 9.367188zm-214.445312-231.339844 206.890625 206.890625c4.160156 4.160157 10.925781 4.160157 15.085937 0 4.160157-4.160156 4.160157-10.921875 0-15.082031l-206.890625-206.890625zm0 0"/></svg>
