<svg id="icon" height="512pt" viewBox="-75 0 512 512" width="512pt" xmlns="http://www.w3.org/2000/svg"><path d="m309.332031 448h-10.664062v-.535156c40.746093-34.601563 64-84.648438 64-138.132813 0-41.621093-13.78125-80.808593-39.894531-113.34375-2.027344-2.515625-5.078126-3.988281-8.320313-3.988281h-266.238281c-3.246094 0-6.292969 1.472656-8.320313 3.988281-26.113281 32.535157-39.894531 71.722657-39.894531 113.34375 0 53.484375 23.253906 103.554688 64 138.132813l-10.667969.535156c-17.640625 0-32 14.355469-32 32s14.359375 32 32 32h42.667969c4.03125 0 7.722656-2.28125 9.535156-5.886719l13.292969-26.5625c40.082031 14.765625 84.925781 14.765625 125.011719 0l13.289062 26.5625c1.816406 3.605469 5.503906 5.886719 9.539063 5.886719h42.664062c17.644531 0 32-14.355469 32-32s-14.355469-32-32-32zm0 0" fill="#455a64"/><path d="m309.332031 149.332031h-256c-17.640625 0-32 14.359375-32 32 0 17.644531 14.359375 32 32 32h256c17.644531 0 32-14.355469 32-32 0-17.640625-14.355469-32-32-32zm0 0" fill="#607d8b"/><g fill="#ffc107"><path d="m234.667969 106.667969c0 11.78125-9.550781 21.332031-21.335938 21.332031-11.78125 0-21.332031-9.550781-21.332031-21.332031 0-11.785157 9.550781-21.335938 21.332031-21.335938 11.785157 0 21.335938 9.550781 21.335938 21.335938zm0 0"/><path d="m170.667969 96c0 17.671875-14.328125 32-32 32-17.675781 0-32-14.328125-32-32s14.324219-32 32-32c17.671875 0 32 14.328125 32 32zm0 0"/><path d="m234.667969 32c0 17.671875-14.328125 32-32 32-17.675781 0-32-14.328125-32-32s14.324219-32 32-32c17.671875 0 32 14.328125 32 32zm0 0"/></g><path d="m309.332031 512h-42.664062c-4.035157 0-7.722657-2.28125-9.539063-5.886719l-13.265625-26.5625c-40.042969 14.785157-84.992187 14.785157-125.035156 0l-13.269531 26.5625c-1.835938 3.605469-5.527344 5.886719-9.558594 5.886719h-42.667969c-17.640625 0-32-14.355469-32-32s14.359375-32 32-32l10.667969-.535156c-40.746094-34.578125-64-84.628906-64-138.132813 0-41.621093 13.78125-80.808593 39.914062-113.320312 2.027344-2.5625 5.078126-4.011719 8.320313-4.011719h266.21875c3.222656 0 6.292969 1.449219 8.320313 4.011719 26.113281 32.511719 39.894531 71.699219 39.894531 113.320312 0 53.503907-23.253907 103.554688-64 138.132813v.535156h10.664062c17.644531 0 32 14.355469 32 32s-14.355469 32-32 32zm-36.074219-21.332031h36.074219c5.867188 0 10.667969-4.800781 10.667969-10.667969s-4.800781-10.667969-10.667969-10.667969h-21.332031c-5.886719 0-10.667969-4.777343-10.667969-10.664062v-16.234375c0-3.222656 1.453125-6.296875 3.992188-8.320313 38.140625-30.59375 60.007812-76.074219 60.007812-124.78125 0-35.027343-11.09375-68.09375-32.105469-96h-255.785156c-21.015625 27.90625-32.109375 60.972657-32.109375 96 0 48.707031 21.867188 94.1875 59.992188 124.800781 2.558593 2.003907 4.007812 5.078126 4.007812 8.300782v16.234375c0 5.886719-4.777343 10.664062-10.664062 10.664062h-21.335938c-5.867187 0-10.664062 4.800781-10.664062 10.667969s4.796875 10.667969 10.664062 10.667969h36.074219l14.699219-29.441407c2.519531-5.078124 8.578125-7.316406 13.78125-5.011718 40.257812 17.40625 86.636719 17.40625 126.871093 0 5.183594-2.285156 11.242188-.066406 13.78125 5.011718zm0 0"/><path d="m309.332031 213.332031h-256c-17.640625 0-32-14.355469-32-32 0-17.640625 14.359375-32 32-32h256c17.644531 0 32 14.359375 32 32 0 17.644531-14.355469 32-32 32zm-256-42.664062c-5.867187 0-10.664062 4.796875-10.664062 10.664062 0 5.867188 4.796875 10.667969 10.664062 10.667969h256c5.867188 0 10.667969-4.800781 10.667969-10.667969 0-5.867187-4.800781-10.664062-10.667969-10.664062zm0 0"/><path d="m64.960938 373.375c-4.03125 0-7.894532-2.304688-9.6875-6.207031-8.382813-18.238281-12.605469-37.675781-12.605469-57.835938 0-5.886719 4.777343-10.664062 10.664062-10.664062 5.890625 0 10.667969 4.777343 10.667969 10.664062 0 17.066407 3.585938 33.515625 10.644531 48.917969 2.453125 5.355469.128907 11.691406-5.226562 14.144531-1.449219.660157-2.964844.980469-4.457031.980469zm0 0"/><path d="m213.332031 128c-11.773437 0-21.332031-9.558594-21.332031-21.332031 0-11.777344 9.558594-21.335938 21.332031-21.335938 11.777344 0 21.335938 9.558594 21.335938 21.335938 0 11.773437-9.558594 21.332031-21.335938 21.332031zm0-21.355469 10.667969.023438zm0 0"/><path d="m138.667969 128c-17.644531 0-32-14.355469-32-32s14.355469-32 32-32c17.640625 0 32 14.355469 32 32s-14.359375 32-32 32zm0-42.667969c-5.867188 0-10.667969 4.800781-10.667969 10.667969s4.800781 10.667969 10.667969 10.667969c5.867187 0 10.664062-4.800781 10.664062-10.667969s-4.796875-10.667969-10.664062-10.667969zm0 0"/><path d="m202.667969 64c-17.644531 0-32-14.355469-32-32s14.355469-32 32-32c17.640625 0 32 14.355469 32 32s-14.359375 32-32 32zm0-42.667969c-5.867188 0-10.667969 4.800781-10.667969 10.667969s4.800781 10.667969 10.667969 10.667969c5.867187 0 10.664062-4.800781 10.664062-10.667969s-4.796875-10.667969-10.664062-10.667969zm0 0"/></svg>
