<svg id="icon" height="512pt" viewBox="0 0 512 512" width="512pt" xmlns="http://www.w3.org/2000/svg"><path d="m466.539062 259.476562c-2.027343-2.195312-4.863281-3.476562-7.871093-3.476562h-384c-5.824219 0-10.582031 4.691406-10.667969 10.515625-.363281 26.21875 9.472656 42.839844 18.15625 57.496094 8.574219 14.484375 15.976562 26.984375 13.90625 48.277343-.554688 5.652344 3.414062 10.730469 9.003906 11.582032 5.589844.855468 10.902344-2.859375 12.054688-8.382813 1.960937-9.515625 6.761718-14.65625 15.082031-16.128906 12.949219-2.238281 27.136719 5.226563 29.398437 8.898437 9.789063 15.828126 9.492188 36.179688 9.171876 57.746094l-.105469 11.328125c0 4.140625 2.410156 7.9375 6.183593 9.6875 3.734376 1.683594 8.214844 1.109375 11.371094-1.558593 7.832032-6.589844 26.6875-9.085938 43.585938-1.515626 10.707031 4.800782 23.617187 15 24.171875 36.332032.125 4.671875 3.261719 8.703125 7.742187 9.984375.980469.277343 1.984375.40625 2.945313.40625 3.539062 0 6.910156-1.75 8.917969-4.824219 15.273437-23.273438 48.660156-39.679688 76.691406-39.167969 10.878906.386719 25.449218 3.648438 33.109375 17.238281 2.367187 4.183594 7.316406 6.359376 11.988281 5.054688 4.695312-1.214844 7.957031-5.4375 7.957031-10.300781 0-10.007813-.277343-20.972657-.574219-32.085938-.578124-21.675781-1.472656-56.234375 1.941407-68.886719.449219.449219.917969.9375 1.449219 1.492188 2.304687 2.519531 5.695312 3.757812 9.003906 3.394531 3.371094-.382812 6.378906-2.304687 8.0625-5.25 3.839844-6.65625 8.492187-12.136719 13.398437-18.003906 12.671875-15.0625 27.050781-32.128906 30.65625-71.722656.296875-2.964844-.703125-5.910157-2.730469-8.128907zm0 0" fill="#ffcc80"/><path d="m352 320h-42.667969c-5.886719 0-10.664062 4.777344-10.664062 10.667969v42.664062c0 5.890625 4.777343 10.667969 10.664062 10.667969h42.667969c5.886719 0 10.667969-4.777344 10.667969-10.667969v-42.664062c0-5.890625-4.78125-10.667969-10.667969-10.667969zm0 0" fill="#ff9800"/><path d="m202.667969 298.667969h-21.335938c-5.886719 0-10.664062 4.777343-10.664062 10.664062v21.335938c0 5.886719 4.777343 10.664062 10.664062 10.664062h21.335938c5.886719 0 10.664062-4.777343 10.664062-10.664062v-21.335938c0-5.886719-4.777343-10.664062-10.664062-10.664062zm0 0" fill="#ff9800"/><path d="m349.3125 69.226562c-1.921875-3.242187-5.417969-5.226562-9.195312-5.226562h-146.902344c-3.773438 0-7.253906 1.984375-9.171875 5.226562-8.746094 14.785157-13.375 31.402344-13.375 48.105469 0 31.722657 16.191406 61.613281 42.664062 79.402344v27.265625c0 5.886719 4.78125 10.667969 10.667969 10.667969h85.332031c5.890625 0 10.667969-4.78125 10.667969-10.667969v-27.265625c26.476562-17.789063 42.667969-47.65625 42.667969-79.402344 0-16.703125-4.628907-33.320312-13.355469-48.105469zm0 0" fill="#ffc107"/><path d="m330.667969 0h-128c-17.644531 0-32 14.355469-32 32v42.667969c0 5.886719 4.777343 10.664062 10.664062 10.664062h170.667969c5.886719 0 10.667969-4.777343 10.667969-10.664062v-42.667969c0-17.644531-14.359375-32-32-32zm0 0" fill="#607d8b"/><path d="m266.667969 512c-5.890625 0-10.667969-4.777344-10.667969-10.667969v-277.332031c0-5.886719 4.777344-10.667969 10.667969-10.667969 5.886719 0 10.664062 4.78125 10.664062 10.667969v277.332031c0 5.890625-4.777343 10.667969-10.664062 10.667969zm0 0"/><path d="m501.332031 277.332031h-490.664062c-5.890625 0-10.667969-4.777343-10.667969-10.664062 0-5.890625 4.777344-10.667969 10.667969-10.667969h490.664062c5.890625 0 10.667969 4.777344 10.667969 10.667969 0 5.886719-4.777344 10.664062-10.667969 10.664062zm0 0"/><path d="m309.332031 234.667969h-85.332031c-5.886719 0-10.667969-4.78125-10.667969-10.667969v-27.265625c-26.453125-17.789063-42.664062-47.679687-42.664062-79.402344 0-16.722656 4.628906-33.34375 13.375-48.105469 1.917969-3.242187 5.398437-5.226562 9.171875-5.226562h146.921875c3.777343 0 7.253906 1.984375 9.175781 5.226562 8.726562 14.761719 13.355469 31.382813 13.355469 48.105469 0 31.722657-16.214844 61.613281-42.667969 79.402344v27.265625c0 5.886719-4.777344 10.667969-10.667969 10.667969zm-74.664062-21.335938h64v-22.503906c0-3.796875 2.023437-7.320313 5.289062-9.21875 23.402344-13.628906 37.375-37.652344 37.375-64.277344 0-11.132812-2.539062-21.867187-7.550781-32h-134.230469c-5.011719 10.132813-7.550781 20.867188-7.550781 32 0 26.625 13.972656 50.648438 37.375 64.300781 3.265625 1.898438 5.292969 5.417969 5.292969 9.195313zm0 0"/><path d="m352 85.332031h-170.667969c-5.886719 0-10.664062-4.777343-10.664062-10.664062v-42.667969c0-17.644531 14.355469-32 32-32h128c17.640625 0 32 14.355469 32 32v42.667969c0 5.886719-4.78125 10.664062-10.667969 10.664062zm-160-21.332031h149.332031v-32c0-5.867188-4.796875-10.667969-10.664062-10.667969h-128c-5.867188 0-10.667969 4.800781-10.667969 10.667969zm0 0"/><path d="m373.332031 85.332031h-213.332031c-5.886719 0-10.667969-4.777343-10.667969-10.664062 0-5.890625 4.78125-10.667969 10.667969-10.667969h213.332031c5.890625 0 10.667969 4.777344 10.667969 10.667969 0 5.886719-4.777344 10.664062-10.667969 10.664062zm0 0"/><path d="m298.667969 128c-2.730469 0-5.460938-1.046875-7.554688-3.113281-4.160156-4.160157-4.160156-10.925781 0-15.085938l10.667969-10.664062c4.160156-4.160157 10.921875-4.160157 15.082031 0 4.160157 4.160156 4.160157 10.921875 0 15.082031l-10.664062 10.667969c-2.070313 2.066406-4.800781 3.113281-7.53125 3.113281zm0 0"/><path d="m234.667969 128c-2.730469 0-5.460938-1.046875-7.554688-3.113281l-10.664062-10.667969c-4.160157-4.160156-4.160157-10.921875 0-15.082031 4.160156-4.160157 10.921875-4.160157 15.082031 0l10.667969 10.664062c4.15625 4.160157 4.15625 10.925781 0 15.085938-2.070313 2.066406-4.800781 3.113281-7.53125 3.113281zm0 0"/><path d="m266.667969 490.667969c-.984375 0-1.964844-.128907-2.925781-.429688-4.5-1.277343-7.613282-5.308593-7.742188-9.980469-.535156-21.335937-13.460938-31.554687-24.191406-36.332031-16.855469-7.574219-35.796875-5.054687-43.585938 1.515625-3.15625 2.664063-7.59375 3.242188-11.371094 1.554688-3.773437-1.726563-6.183593-5.523438-6.183593-9.664063l.105469-11.285156c.320312-21.566406.597656-41.941406-9.195313-57.769531-2.238281-3.667969-16.53125-11.15625-29.375-8.894532-8.339844 1.46875-13.121094 6.613282-15.105469 16.125-1.128906 5.546876-6.570312 9.195313-12.03125 8.386719-5.609375-.855469-9.558594-5.933593-9.023437-11.585937 2.089843-21.289063-5.3125-33.792969-13.886719-48.277344-8.683594-14.675781-18.519531-31.273438-18.15625-57.515625.085938-5.863281 4.5-10.921875 10.816406-10.515625 5.886719.085938 10.601563 4.90625 10.515625 10.816406-.296875 20.222656 7.234375 32.917969 15.167969 46.335938 5.25 8.851562 10.882812 18.367187 14.230469 30.1875 4.03125-2.371094 8.640625-4.054688 13.78125-4.949219 20.457031-3.734375 43.945312 6.867187 51.242187 18.6875 11.925782 19.285156 12.671875 41.386719 12.4375 63.125 14.679688-4.03125 32.640625-2.753906 48.34375 4.265625 15.230469 6.804688 26.257813 18.089844 32.105469 32.277344 21.289063-19.777344 53.226563-32.277344 80.363281-31.359375 11.605469.40625 21.949219 3.113281 30.613282 7.894531-.042969-2.050781-.109376-4.074219-.152344-6.144531-1.449219-55.746094-1.425782-85.140625 15.253906-91.925781 4.78125-1.941407 9.773438-1.535157 14.890625 1.214843 2.882813-3.839843 5.824219-7.359375 8.726563-10.792969 11.691406-13.890624 22.71875-27.007812 25.726562-59.925781.535156-5.867187 6.273438-10.027343 11.585938-9.664062 5.867187.53125 10.195312 5.738281 9.664062 11.582031-3.605469 39.597656-17.984375 56.664062-30.679688 71.722656-4.90625 5.847656-9.554687 11.351563-13.394531 18.007813-1.707031 2.941406-4.695312 4.882812-8.066406 5.246093-3.476563.449219-6.738281-.875-9.023437-3.390624-.511719-.554688-1.023438-1.066407-1.449219-1.492188-3.390625 12.648438-2.496094 47.210938-1.941407 68.882812.277344 11.09375.574219 22.058594.574219 32.066407 0 4.863281-3.261719 9.085937-7.957031 10.300781-4.691406 1.304688-9.597656-.871094-11.988281-5.054688-7.660157-13.589843-22.230469-16.851562-33.109375-17.238281-28.609375-.636719-61.417969 15.894531-76.691406 39.167969-2.007813 3.074219-5.398438 4.824219-8.917969 4.824219zm0 0"/><path d="m352 384h-42.667969c-5.886719 0-10.664062-4.777344-10.664062-10.667969v-42.664062c0-5.890625 4.777343-10.667969 10.664062-10.667969h42.667969c5.886719 0 10.667969 4.777344 10.667969 10.667969v42.664062c0 5.890625-4.78125 10.667969-10.667969 10.667969zm-32-21.332031h21.332031v-21.335938h-21.332031zm0 0"/><path d="m202.667969 341.332031h-21.335938c-5.886719 0-10.664062-4.777343-10.664062-10.664062v-21.335938c0-5.886719 4.777343-10.664062 10.664062-10.664062h21.335938c5.886719 0 10.664062 4.777343 10.664062 10.664062v21.335938c0 5.886719-4.777343 10.664062-10.664062 10.664062zm0 0"/><path d="m458.667969 277.332031c-2.730469 0-5.460938-1.042969-7.554688-3.113281-4.160156-4.160156-4.160156-10.921875 0-15.082031l21.335938-21.335938c4.160156-4.15625 10.921875-4.15625 15.082031 0 4.160156 4.160157 4.160156 10.925781 0 15.085938l-21.332031 21.332031c-2.070313 2.070312-4.800781 3.113281-7.53125 3.113281zm0 0"/><path d="m480 298.667969c-2.730469 0-5.460938-1.046875-7.550781-3.117188l-21.335938-21.332031c-4.160156-4.160156-4.160156-10.921875 0-15.082031 4.160157-4.160157 10.925781-4.160157 15.085938 0l21.332031 21.332031c4.160156 4.160156 4.160156 10.921875 0 15.082031-2.070312 2.070313-4.800781 3.117188-7.53125 3.117188zm0 0"/><path d="m32 298.667969c-2.730469 0-5.460938-1.046875-7.550781-3.117188-4.160157-4.160156-4.160157-10.921875 0-15.082031l21.332031-21.332031c4.160156-4.160157 10.921875-4.160157 15.082031 0 4.160157 4.160156 4.160157 10.921875 0 15.082031l-21.332031 21.332031c-2.070312 2.070313-4.800781 3.117188-7.53125 3.117188zm0 0"/><path d="m53.332031 277.332031c-2.730469 0-5.460937-1.042969-7.550781-3.113281l-21.332031-21.332031c-4.160157-4.160157-4.160157-10.925781 0-15.085938 4.160156-4.15625 10.921875-4.15625 15.082031 0l21.332031 21.335938c4.160157 4.160156 4.160157 10.921875 0 15.082031-2.070312 2.070312-4.800781 3.113281-7.53125 3.113281zm0 0"/></svg>
