<svg id="icon" height="512pt" viewBox="-11 0 512 512" width="512pt" xmlns="http://www.w3.org/2000/svg"><path d="m278.148438 188.011719c-7.359376-10.859375-19.5625-17.34375-32.9375-17.34375-13.121094 0-25.34375 6.484375-32.683594 17.34375s-8.832032 24.597656-3.96875 36.777343l11.242187 28.097657c1.070313 2.644531 3.136719 4.777343 5.785157 5.867187 2.644531 1.128906 5.609374 1.128906 8.234374 0 9.066407-3.800781 13.949219-3.800781 23.015626 0 1.324218.554688 2.710937.832032 4.117187.832032 1.410156 0 2.796875-.277344 4.117187-.832032 2.648438-1.109375 4.714844-3.222656 5.78125-5.867187l11.246094-28.097657c4.882813-12.160156 3.390625-25.917968-3.949218-36.777343zm0 0" fill="#455a64"/><path d="m245.339844 234.667969c-43.308594 0-74.667969 57.34375-74.667969 96 0 41.171875 33.492187 74.664062 74.667969 74.664062 41.171875 0 74.664062-33.492187 74.664062-74.664062 0-38.65625-31.359375-96-74.664062-96zm0 0" fill="#455a64"/><path d="m260.953125 259.605469c-1.386719 0-2.792969-.277344-4.117187-.832031-9.066407-3.796876-13.949219-3.796876-23.015626 0-2.625 1.128906-5.589843 1.128906-8.234374 0-2.648438-1.109376-4.714844-3.222657-5.785157-5.867188l-11.242187-28.09375c-4.863282-12.160156-3.390625-25.921875 3.96875-36.78125 7.359375-10.878906 19.5625-17.363281 32.683594-17.363281 13.355468 0 25.578124 6.484375 32.9375 17.34375 7.339843 10.859375 8.832031 24.597656 3.96875 36.777343l-11.242188 28.097657c-1.066406 2.644531-3.136719 4.777343-5.78125 5.867187-1.324219.574219-2.730469.851563-4.140625.851563zm-15.613281-24.9375c3.09375 0 6.207031.363281 9.40625 1.066406l7.550781-18.859375c2.261719-5.695312 1.625-11.839844-1.8125-16.894531-6.996094-10.347657-23.550781-9.984375-30.292969 0-3.433594 5.054687-4.074218 11.199219-1.8125 16.894531l7.550782 18.859375c3.199218-.703125 6.316406-1.066406 9.410156-1.066406zm0 0"/><path d="m245.339844 405.332031c-41.175782 0-74.667969-33.492187-74.667969-74.664062 0-38.65625 31.359375-96 74.667969-96 43.304687 0 74.664062 57.34375 74.664062 96 0 41.171875-33.492187 74.664062-74.664062 74.664062zm0-149.332031c-26.964844 0-53.335938 42.753906-53.335938 74.667969 0 29.417969 23.9375 53.332031 53.335938 53.332031 29.394531 0 53.332031-23.914062 53.332031-53.332031 0-31.914063-26.367187-74.667969-53.332031-74.667969zm0 0"/><path d="m223.960938 191.980469c-3.261719 0-6.484376-1.496094-8.574219-4.355469-6.441407-8.808594-14.550781-29.714844.9375-45.714844 4.097656-4.246094 10.859375-4.332031 15.082031-.257812 4.246094 4.097656 4.355469 10.859375.257812 15.082031-6.742187 6.957031.171876 17.21875.980469 18.347656 3.394531 4.78125 2.304688 11.433594-2.453125 14.847657-1.875 1.386718-4.054687 2.050781-6.230468 2.050781zm0 0"/><path d="m260.742188 192c-2.199219 0-4.394532-.660156-6.292969-2.070312-4.738281-3.453126-5.78125-10.089844-2.347657-14.824219.832032-1.195313 7.722657-11.414063.980469-18.347657-4.09375-4.222656-3.988281-10.988281.257813-15.082031 4.246094-4.074219 10.984375-4.011719 15.082031.253907 15.488281 16 7.378906 36.886718.9375 45.71875-2.089844 2.835937-5.332031 4.351562-8.617187 4.351562zm0 0"/><path d="m277.339844 213.332031c-2.539063 0-5.101563-.894531-7.125-2.730469-4.375-3.96875-4.738282-10.6875-.789063-15.082031l93.246094-103.59375v-81.257812c0-5.890625 4.777344-10.667969 10.667969-10.667969 5.886718 0 10.664062 4.777344 10.664062 10.667969v85.332031c0 2.625-.980468 5.164062-2.730468 7.148438l-96 106.664062c-2.109376 2.324219-5.011719 3.519531-7.933594 3.519531zm0 0"/><path d="m277.339844 234.667969c-4.03125 0-7.894532-2.285157-9.707032-6.1875-2.476562-5.355469-.128906-11.691407 5.226563-14.164063l136.9375-63.210937 62.65625-62.65625c4.160156-4.160157 10.921875-4.160157 15.082031 0 4.160156 4.160156 4.160156 10.921875 0 15.082031l-64 64c-.894531.894531-1.917968 1.621094-3.070312 2.152344l-138.667969 64c-1.429687.664062-2.964844.984375-4.457031.984375zm0 0"/><path d="m480.003906 298.667969c-2.730468 0-5.460937-1.046875-7.550781-3.117188l-60.222656-60.222656-144.042969 20.585937c-5.890625.640626-11.242188-3.222656-12.074219-9.066406s3.21875-11.222656 9.042969-12.054687l149.335938-21.332031c3.410156-.40625 6.675781.617187 9.042968 3.03125l64 64c4.160156 4.160156 4.160156 10.921874 0 15.082031-2.070312 2.046875-4.800781 3.09375-7.53125 3.09375zm0 0"/><path d="m416.003906 512c-4.96875 0-9.429687-3.5-10.453125-8.574219l-20.796875-103.960937-115.566406-136.554688c-3.796875-4.5-3.242188-11.21875 1.261719-15.039062 4.5-3.796875 11.21875-3.199219 15.039062 1.257812l117.332031 138.667969c1.175782 1.367187 1.964844 3.050781 2.304688 4.820313l21.332031 106.667968c1.152344 5.78125-2.601562 11.390625-8.359375 12.542969-.707031.109375-1.410156.171875-2.09375.171875zm0 0"/><path d="m213.339844 213.332031c-2.925782 0-5.824219-1.195312-7.9375-3.519531l-96-106.664062c-1.75-1.984376-2.730469-4.523438-2.730469-7.148438v-85.332031c0-5.890625 4.777344-10.667969 10.667969-10.667969 5.886718 0 10.664062 4.777344 10.664062 10.667969v81.257812l93.269532 103.59375c3.949218 4.394531 3.585937 11.113281-.789063 15.082031-2.046875 1.835938-4.605469 2.730469-7.144531 2.730469zm0 0"/><path d="m213.339844 234.667969c-1.496094 0-3.007813-.320313-4.460938-.984375l-138.664062-64c-1.152344-.511719-2.199219-1.234375-3.09375-2.132813l-64-64c-4.160156-4.160156-4.160156-10.921875 0-15.082031s10.921875-4.160156 15.082031 0l62.65625 62.65625 136.9375 63.210938c5.355469 2.476562 7.679687 8.8125 5.226563 14.164062-1.792969 3.882812-5.675782 6.167969-9.683594 6.167969zm0 0"/><path d="m10.671875 298.667969c-2.730469 0-5.460937-1.046875-7.550781-3.117188-4.160156-4.160156-4.160156-10.921875 0-15.082031l64-64c2.367187-2.367188 5.671875-3.390625 9.042968-3.027344l149.335938 21.332032c5.824219.832031 9.875 6.230468 9.042969 12.054687-.832031 5.84375-6.207031 9.789063-12.074219 9.066406l-144.019531-20.585937-60.226563 60.222656c-2.089844 2.089844-4.820312 3.136719-7.550781 3.136719zm0 0"/><path d="m74.671875 512c-.683594 0-1.386719-.0625-2.113281-.214844-5.78125-1.152344-9.511719-6.761718-8.359375-12.542968l21.332031-106.667969c.363281-1.769531 1.152344-3.433594 2.304688-4.820313l117.332031-138.664062c3.820312-4.460938 10.539062-5.035156 15.039062-1.261719 4.503907 3.820313 5.058594 10.539063 1.257813 15.042969l-115.5625 136.554687-20.777344 104c-1.003906 5.074219-5.460938 8.574219-10.453125 8.574219zm0 0"/><path d="m245.339844 362.667969c-5.890625 0-10.667969-4.78125-10.667969-10.667969v-64c0-5.886719 4.777344-10.667969 10.667969-10.667969 5.886718 0 10.664062 4.78125 10.664062 10.667969v64c0 5.886719-4.777344 10.667969-10.664062 10.667969zm0 0"/><path d="m266.671875 320h-42.667969c-5.886718 0-10.664062-4.777344-10.664062-10.667969 0-5.886719 4.777344-10.664062 10.664062-10.664062h42.667969c5.886719 0 10.667969 4.777343 10.667969 10.664062 0 5.890625-4.78125 10.667969-10.667969 10.667969zm0 0"/></svg>
