<svg id="icon" height="512pt" viewBox="0 -38 512.00029 512" width="512pt" xmlns="http://www.w3.org/2000/svg"><path d="m218.128906 123.058594-38.75-38.75 76.214844-76.214844c1.257812-1.261719 3.414062-.371094 3.414062 1.410156l.011719 31.914063c0 1.101562.894531 1.996093 2 1.996093l31.910157.015626c1.78125 0 2.671874 2.152343 1.414062 3.414062zm0 0" fill="#8cbafa"/><path d="m128.164062 123.058594 38.75-38.75-76.214843-76.214844c-1.261719-1.261719-3.414063-.371094-3.414063 1.410156l-.011718 31.914063c0 1.101562-.894532 1.996093-2 1.996093l-31.910157.015626c-1.78125 0-2.675781 2.152343-1.414062 3.414062zm0 0" fill="#8cbafa"/><path d="m210.992188 87.824219c0 20.902343-16.945313 37.84375-37.847657 37.84375-20.902343 0-37.84375-16.941407-37.84375-37.84375 0-20.902344 16.941407-37.847657 37.84375-37.847657 20.902344 0 37.847657 16.945313 37.847657 37.847657zm0 0" fill="#5692d8"/><path d="m7.5 99.753906v34.550782c0 6.589843 5.339844 11.929687 11.929688 11.929687h307.429687c6.589844 0 11.929687-5.339844 11.929687-11.929687v-34.550782c0-6.589844-5.339843-11.929687-11.929687-11.929687h-307.429687c-6.589844 0-11.929688 5.339843-11.929688 11.929687zm0 0" fill="#ed5176"/><path d="m326.859375 87.824219h-23.5c6.589844 0 11.929687 5.339843 11.929687 11.929687v34.550782c0 6.589843-5.339843 11.933593-11.929687 11.933593h23.5c6.589844 0 11.929687-5.34375 11.929687-11.933593v-34.550782c0-6.589844-5.339843-11.929687-11.929687-11.929687zm0 0" fill="#ba365f"/><path d="m32.027344 399.734375v-253.5h282.238281v253.503906c0 2.972657-2.414063 5.386719-5.390625 5.386719h-271.460938c-2.976562 0-5.386718-2.414062-5.386718-5.390625zm0 0" fill="#e9e9ea"/><path d="m288.753906 146.234375v253.5c0 2.976563-2.414062 5.390625-5.386718 5.390625h25.507812c2.976562 0 5.390625-2.414062 5.390625-5.390625v-253.5zm0 0" fill="#c5c4cc"/><path d="m32.027344 146.234375h282.238281v22.5h-282.238281zm0 0" fill="#c5c4cc"/><path d="m141.769531 87.824219h62.75v58.410156h-62.75zm0 0" fill="#8cbafa"/><path d="m141.769531 146.234375h62.75v258.890625h-62.75zm0 0" fill="#8cbafa"/><path d="m141.769531 146.234375h62.75v22.5h-62.75zm0 0" fill="#5692d8"/><path d="m173.070312 231.828125v186.078125c0 6.398438 5.1875 11.582031 11.585938 11.582031h259.566406c6.398438 0 11.585938-5.183593 11.585938-11.582031v-186.078125c0-6.398437-5.1875-11.582031-11.585938-11.582031h-259.566406c-6.398438 0-11.585938 5.183594-11.585938 11.582031zm0 0" fill="#ffcd34"/><path d="m444.222656 220.246094h-25c6.398438 0 11.582032 5.183594 11.582032 11.582031v186.078125c0 6.398438-5.183594 11.582031-11.582032 11.582031h25c6.398438 0 11.582032-5.183593 11.582032-11.582031v-186.078125c.003906-6.398437-5.183594-11.582031-11.582032-11.582031zm0 0" fill="#e69012"/><path d="m173.070312 323.910156h282.738282v31.929688h-282.738282zm0 0" fill="#ba365f"/><path d="m372.703125 220.246094h31.929687v209.246094h-31.929687zm0 0" fill="#ed5176"/><path d="m490.191406 369.933594-83.335937-8.375-10.707031-46.390625 71.226562-44.058594c9.078125-5.613281 20.582031 1.464844 19.839844 12.113281-1.664063 23.953125 3.5 46.328125 15.496094 67.128906 5.335937 9.246094-1.898438 20.652344-12.519532 19.582032zm0 0" fill="#ff76a4"/><path d="m309.960938 411.542969 71.226562-44.054688-10.710938-46.394531-83.332031-8.375c-10.621093-1.066406-17.855469 10.339844-12.519531 19.585938 11.996094 20.796874 17.160156 43.171874 15.496094 67.125-.742188 10.652343 10.761718 17.730468 19.839844 12.113281zm0 0" fill="#ff76a4"/><path d="m380.300781 305.085938c-13.449219 3.105468-21.832031 16.523437-18.730469 29.96875l5.492188 23.785156c3.105469 13.449218 16.523438 21.832031 29.972656 18.726562 13.445313-3.101562 21.832032-16.519531 18.726563-29.96875l-5.492188-23.785156c-3.101562-13.445312-16.523437-21.832031-29.96875-18.726562zm0 0" fill="#ba365f"/><path d="m509.207031 346.601562c-11.179687-19.382812-16.0625-40.527343-14.503906-62.855468.539063-7.785156-3.261719-15.121094-9.921875-19.140625-6.601562-3.988281-14.78125-3.9375-21.347656.121093l-51.304688 31.738282v-68.71875h32.089844c2.253906 0 4.089844 1.832031 4.089844 4.082031v13.789063c0 4.140624 3.359375 7.5 7.5 7.5s7.5-3.359376 7.5-7.5v-13.789063c0-10.523437-8.5625-19.082031-19.089844-19.082031h-232.195312v-59.011719h94.742187v36.507813c0 4.144531 3.359375 7.5 7.5 7.5s7.5-3.355469 7.5-7.5v-36.507813h5.09375c10.714844 0 19.429687-8.714844 19.429687-19.429687v-34.550782c0-10.714844-8.714843-19.429687-19.429687-19.429687h-55.394531l28.183594-28.179688c2.726562-2.722656 3.535156-6.785156 2.058593-10.34375-1.476562-3.566406-4.921875-5.867187-8.777343-5.867187l-26.417969-.019532-.007813-26.410156c0-3.855468-2.300781-7.300781-5.859375-8.773437-3.558593-1.476563-7.625-.667969-10.351562 2.058593l-49.285157 49.277344c-7.695312-6.007812-17.371093-9.59375-27.863281-9.59375-10.496093 0-20.167969 3.585938-27.859375 9.59375l-49.28125-49.277344c-2.726562-2.7304682-6.792968-3.535156-10.359375-2.058593-3.5625 1.472656-5.863281 4.917969-5.863281 8.769531l-.007812 26.414062-26.414063.019532c-3.851563 0-7.296875 2.300781-8.773437 5.859375-1.472657 3.5625-.664063 7.625 2.0625 10.351562l28.175781 28.179688h-55.394531c-10.710938 0-19.429688 8.714843-19.429688 19.429687v34.550782c0 10.714843 8.714844 19.429687 19.429688 19.429687h5.097656v47.777344c0 4.140625 3.355468 7.5 7.5 7.5 4.140625 0 7.5-3.359375 7.5-7.5v-47.777344h94.746094v243.886719h-94.742188v-166.113282c0-4.144531-3.359375-7.5-7.5-7.5-4.144531 0-7.5 3.355469-7.5 7.5v168.230469c0 7.105469 5.777344 12.882813 12.878906 12.882813h128.164063v5.289062c0 10.519532 8.558593 19.082032 19.078125 19.082032h259.566406c10.527344 0 19.089844-8.5625 19.089844-19.082032v-43.136718c27.6875 2.75 26.359375 2.730468 28.210937 2.730468 6.921875 0 13.371094-3.464844 17.175781-9.359375 4.214844-6.53125 4.410157-14.785156.511719-21.542969zm-328.632812-15.191406h85.574219c.460937 1.597656 1.121093 3.15625 1.980468 4.644532 2.316406 4.019531 4.367188 8.117187 6.144532 12.28125h-93.699219zm88.074219-16.910156c-.402344.621094-.769532 1.257812-1.097657 1.90625h-86.976562v-84.578125c0-2.25 1.832031-4.082031 4.078125-4.082031h180.554687v76.636718c-2.652343 2.199219-4.960937 4.832032-6.839843 7.835938-.023438.039062-.046876.074219-.070313.113281l-70.398437-7.074219c-7.6875-.777343-15.066407 2.765626-19.25 9.242188zm105.722656 42.652344-5.492188-23.78125c-2.167968-9.398438 3.710938-18.808594 13.109375-20.976563 1.316407-.304687 2.644531-.457031 3.96875-.457031 3.238281 0 6.417969.90625 9.234375 2.664062.828125.519532 1.605469 1.101563 2.328125 1.738282.160157.15625.324219.308594.496094.453125 2.449219 2.332031 4.167969 5.332031 4.949219 8.707031l5.488281 23.785156c1.714844 7.421875-1.578125 14.773438-7.527344 18.621094-.171875.097656-.34375.203125-.507812.316406-1.550781.925782-3.257813 1.617188-5.070313 2.039063-9.457031 2.179687-18.8125-3.734375-20.976562-13.109375zm22.757812-129.40625v71.183594c-5.382812-1.992188-11.1875-2.511719-16.921875-1.480469v-69.703125zm-200.105468-89.011719h-47.753907v-43.410156h47.753907zm134.265624-38.980469v34.550782c0 2.441406-1.984374 4.429687-4.429687 4.429687h-114.835937v-43.410156h41.289062.042969.039062 73.464844c2.441406 0 4.429687 1.988281 4.429687 4.429687zm-79.78125-76.96875.007813 18.628906c0 5.238282 4.261719 9.5 9.496094 9.5l18.644531.011719-29.40625 29.398438h-32.375c-1.046875-6.257813-3.378906-12.085938-6.710938-17.199219zm-48.953124 57.539063h-58.8125c3.34375-13.121094 15.257812-22.851563 29.402343-22.851563s26.0625 9.730469 29.410157 22.851563zm-135.914063-29.398438 18.632813-.011719c5.238281 0 9.5-4.261718 9.5-9.5l.003906-18.640624 40.351562 40.355468c-3.332031 5.113282-5.660156 10.9375-6.707031 17.195313h-32.382813zm-47.210937 87.808594c-2.441407 0-4.429688-1.984375-4.429688-4.429687v-34.550782c0-2.441406 1.988281-4.429687 4.429688-4.429687h73.460937.042969.039062 41.296875v43.410156zm129.84375 258.886719v-243.886719h47.75v59.011719h-12.371094c-10.519532 0-19.078125 8.558594-19.078125 19.082031v165.792969zm31.300781 20.289062v-54.570312h98.84375c2.097656 7.988281 3.261719 16.183594 3.46875 24.539062.105469 4.074219 3.441406 7.3125 7.496093 7.3125.0625 0 .125 0 .191407-.003906 4.140625-.101562 7.414062-3.542969 7.308593-7.683594-.285156-11.476562-2.144531-22.679687-5.546874-33.515625-.070313-.285156-.160157-.558593-.261719-.828125-2.714844-8.4375-6.371094-16.65625-10.953125-24.601562-.710938-1.230469-.871094-2.382813-.777344-3.351563.027344-.15625.050781-.3125.066406-.472656.175782-.945313.570313-1.679687.835938-2.089844.542968-.839843 2.132812-2.769531 5.152344-2.460937l67.117187 6.746094c-.25 3.25-.003906 6.554687.75 9.816406l5.492187 23.785156c.753907 3.265625 1.980469 6.339844 3.625 9.152344l-57.390624 35.492187c-1.078126.671875-2.234376.945313-3.425782.8125-4.121094-.453125-7.828125 2.507813-8.285156 6.625-.457031 4.117188 2.507812 7.824219 6.625 8.28125 4.527344.503907 9.035156-.507812 12.996094-2.972656l51.304687-31.730469v35.800782h-180.554687c-2.25-.003907-4.078125-1.832032-4.078125-4.082032zm199.632812 4.078125v-38.261719c3.574219 1.320313 7.335938 1.992188 11.144531 1.992188 1.917969 0 3.851563-.171875 5.777344-.515625v36.785156zm68.101563-4.078125c0 2.25-1.832032 4.078125-4.089844 4.078125h-32.089844v-43.71875c2.648438-2.195312 4.960938-4.828125 6.835938-7.832031.023437-.039062.046875-.074219.070312-.113281l29.273438 2.941406zm47.785156-57.902344c-.546875.839844-2.136719 2.769532-5.152344 2.46875l-34.121094-3.429687c-.167968-.023437-.335937-.039063-.503906-.050781l-32.496094-3.265625c.246094-3.25.003907-6.554688-.75-9.820313l-5.492187-23.785156c-.753906-3.261719-1.980469-6.339844-3.628906-9.148438l57.375-35.492187c2.570312-1.589844 4.847656-.558594 5.707031-.039063.886719.535157 2.925781 2.117188 2.707031 5.257813-1.769531 25.359375 3.773438 49.378906 16.476563 71.394531 1.574218 2.726563.4375 5.039063-.121094 5.910156zm0 0"/></svg>
