<svg id="icon" height="511pt" viewBox="1 -7 511.999 511" width="511pt" xmlns="http://www.w3.org/2000/svg"><path d="m38.339844 262.667969 23.628906 201.984375c1.753906 15 14.464844 26.3125 29.570312 26.3125h328.921876c15.105468 0 27.820312-11.3125 29.574218-26.3125l23.628906-201.984375zm116.890625 81.300781c0 8.207031-6.65625 14.863281-14.863281 14.863281-8.207032 0-14.859376-6.65625-14.859376-14.863281v-29.429688c0-8.210937 6.652344-14.863281 14.859376-14.863281 8.207031 0 14.863281 6.652344 14.863281 14.863281zm57.816406 96.164062c0 8.207032-6.65625 14.863282-14.863281 14.863282-8.207032 0-14.863282-6.65625-14.863282-14.863282v-29.433593c0-8.207031 6.65625-14.859375 14.863282-14.859375 8.207031 0 14.863281 6.652344 14.863281 14.859375zm57.816406-96.164062c0 8.207031-6.65625 14.863281-14.863281 14.863281s-14.863281-6.65625-14.863281-14.863281v-29.429688c0-8.210937 6.65625-14.863281 14.863281-14.863281s14.863281 6.652344 14.863281 14.863281zm57.816407 96.164062c0 8.207032-6.65625 14.863282-14.863282 14.863282-8.207031 0-14.863281-6.65625-14.863281-14.863282v-29.433593c0-8.207031 6.65625-14.859375 14.863281-14.859375 8.207032 0 14.863282 6.652344 14.863282 14.859375zm57.816406-96.164062c0 8.207031-6.65625 14.863281-14.863282 14.863281-8.207031 0-14.863281-6.65625-14.863281-14.863281v-29.429688c0-8.210937 6.65625-14.863281 14.863281-14.863281 8.207032 0 14.863282 6.652344 14.863282 14.863281zm0 0" fill="#ed5176"/><g fill="#ba365f"><path d="m249.5 301.1875c-1.964844-.957031-4.164062-1.511719-6.5-1.511719-8.207031 0-14.863281 6.652344-14.863281 14.863281v29.429688c0 8.207031 6.65625 14.863281 14.863281 14.863281 2.335938 0 4.535156-.554687 6.5-1.511719-4.945312-2.414062-8.363281-7.476562-8.363281-13.351562v-29.429688c0-5.875 3.417969-10.9375 8.363281-13.351562zm0 0"/><path d="m191.683594 397.351562c-1.964844-.957031-4.164063-1.511718-6.5-1.511718-8.207032 0-14.863282 6.652344-14.863282 14.863281v29.429687c0 8.207032 6.65625 14.863282 14.863282 14.863282 2.335937 0 4.535156-.554688 6.5-1.511719-4.945313-2.414063-8.363282-7.476563-8.363282-13.351563v-29.429687c0-5.875 3.417969-10.9375 8.363282-13.351563zm0 0"/><path d="m133.867188 301.1875c-1.964844-.957031-4.167969-1.511719-6.5-1.511719-8.207032 0-14.863282 6.652344-14.863282 14.863281v29.429688c0 8.207031 6.65625 14.863281 14.863282 14.863281 2.332031 0 4.535156-.554687 6.5-1.511719-4.945313-2.414062-8.363282-7.476562-8.363282-13.351562v-29.429688c0-5.875 3.417969-10.9375 8.363282-13.351562zm0 0"/><path d="m365.132812 301.1875c-1.964843-.957031-4.164062-1.511719-6.5-1.511719-8.207031 0-14.863281 6.652344-14.863281 14.863281v29.429688c0 8.207031 6.65625 14.863281 14.863281 14.863281 2.335938 0 4.535157-.554687 6.5-1.511719-4.945312-2.414062-8.363281-7.476562-8.363281-13.351562v-29.429688c0-5.875 3.417969-10.9375 8.363281-13.351562zm0 0"/><path d="m307.316406 397.351562c-1.964844-.957031-4.167968-1.511718-6.5-1.511718-8.207031 0-14.863281 6.652344-14.863281 14.863281v29.429687c0 8.207032 6.65625 14.863282 14.863281 14.863282 2.332032 0 4.535156-.554688 6.5-1.511719-4.945312-2.414063-8.363281-7.476563-8.363281-13.351563v-29.429687c0-5.875 3.417969-10.9375 8.363281-13.351563zm0 0"/><path d="m471.03125 285.167969 2.628906-22.5h-435.320312l2.628906 22.5zm0 0"/><path d="m447.660156 262.667969-23.628906 201.984375c-1.753906 15-14.464844 26.3125-29.570312 26.3125h26c15.105468 0 27.816406-11.3125 29.570312-26.3125l23.628906-201.984375zm0 0"/></g><path d="m7.5 219.175781v27.761719c0 8.6875 7.042969 15.730469 15.730469 15.730469h465.539062c8.6875 0 15.730469-7.042969 15.730469-15.730469v-27.761719c0-8.6875-7.042969-15.730469-15.730469-15.730469h-465.539062c-8.6875 0-15.730469 7.042969-15.730469 15.730469zm0 0" fill="#8cbafa"/><path d="m488.769531 203.445312h-26.835937c8.6875 0 15.730468 7.042969 15.730468 15.730469v27.761719c0 8.6875-7.042968 15.730469-15.730468 15.730469h26.835937c8.6875 0 15.730469-7.042969 15.730469-15.730469v-27.761719c0-8.6875-7.042969-15.730469-15.730469-15.730469zm0 0" fill="#5692d8"/><path d="m414.371094 242.085938c-6.242188 0-12.179688-3.671876-14.765625-9.785157l-85.460938-202.035156c-3.449219-8.148437.363281-17.550781 8.511719-21 8.152344-3.449219 17.554688.363281 21.003906 8.515625l85.460938 202.035156c3.449218 8.148438-.363282 17.554688-8.515625 21-2.035157.863282-4.152344 1.269532-6.234375 1.269532zm0 0" fill="#575b7a"/><path d="m97.628906 242.085938c6.242188 0 12.179688-3.671876 14.765625-9.785157l85.460938-202.035156c3.449219-8.148437-.363281-17.550781-8.511719-21-8.152344-3.449219-17.554688.363281-21.003906 8.515625l-85.460938 202.035156c-3.449218 8.148438.363282 17.550782 8.515625 21 2.035157.863282 4.152344 1.269532 6.234375 1.269532zm0 0" fill="#575b7a"/><path d="m393.996094 343.96875v-29.429688c0-12.332031-10.03125-22.363281-22.363282-22.363281-12.332031 0-22.363281 10.03125-22.363281 22.363281v29.429688c0 12.332031 10.03125 22.363281 22.363281 22.363281 12.332032 0 22.363282-10.03125 22.363282-22.363281zm-29.726563 0v-29.429688c0-4.058593 3.304688-7.363281 7.363281-7.363281 4.058594 0 7.363282 3.304688 7.363282 7.363281v29.429688c0 4.0625-3.304688 7.363281-7.363282 7.363281-4.058593 0-7.363281-3.300781-7.363281-7.363281zm0 0"/><path d="m336.179688 440.132812v-29.429687c0-12.332031-10.03125-22.363281-22.363282-22.363281-12.332031 0-22.363281 10.03125-22.363281 22.363281v29.429687c0 12.332032 10.03125 22.363282 22.363281 22.363282 12.332032 0 22.363282-10.03125 22.363282-22.363282zm-29.726563 0v-29.429687c0-4.0625 3.304687-7.363281 7.363281-7.363281 4.0625 0 7.363282 3.304687 7.363282 7.363281v29.429687c0 4.0625-3.304688 7.363282-7.363282 7.363282s-7.363281-3.304688-7.363281-7.363282zm0 0"/><path d="m162.730469 343.96875v-29.429688c0-12.332031-10.03125-22.363281-22.363281-22.363281-12.332032 0-22.363282 10.03125-22.363282 22.363281v29.429688c0 12.332031 10.03125 22.363281 22.363282 22.363281 12.332031 0 22.363281-10.03125 22.363281-22.363281zm-29.726563 0v-29.429688c0-4.058593 3.304688-7.363281 7.363282-7.363281 4.0625 0 7.363281 3.304688 7.363281 7.363281v29.429688c0 4.0625-3.304688 7.363281-7.363281 7.363281-4.058594 0-7.363282-3.300781-7.363282-7.363281zm0 0"/><path d="m220.546875 440.132812v-29.429687c0-12.332031-10.03125-22.363281-22.363281-22.363281-12.332032 0-22.363282 10.03125-22.363282 22.363281v29.429687c0 12.332032 10.03125 22.363282 22.363282 22.363282 12.332031 0 22.363281-10.03125 22.363281-22.363282zm-29.726563 0v-29.429687c0-4.0625 3.304688-7.363281 7.363282-7.363281s7.363281 3.304687 7.363281 7.363281v29.429687c0 4.0625-3.304687 7.363282-7.363281 7.363282s-7.363282-3.304688-7.363282-7.363282zm0 0"/><path d="m278.363281 343.96875v-29.429688c0-12.332031-10.035156-22.363281-22.363281-22.363281s-22.363281 10.03125-22.363281 22.363281v29.429688c0 12.332031 10.035156 22.363281 22.363281 22.363281s22.363281-10.03125 22.363281-22.363281zm-29.726562 0v-29.429688c0-4.058593 3.304687-7.363281 7.363281-7.363281s7.363281 3.304688 7.363281 7.363281v29.429688c0 4.0625-3.304687 7.363281-7.363281 7.363281s-7.363281-3.300781-7.363281-7.363281zm0 0"/><path d="m488.769531 195.949219h-61.597656l-76.605469-181.089844c-5.054687-11.949219-18.882812-17.554687-30.832031-12.5-11.945313 5.054687-17.550781 18.882813-12.5 30.828125l68.851563 162.761719h-240.171876l68.851563-162.761719c5.050781-11.945312-.554687-25.773438-12.5-30.828125-11.949219-5.054687-25.777344.554687-30.832031 12.5l-76.605469 181.089844h-61.597656c-12.808594 0-23.230469 10.421875-23.230469 23.230469v27.761718c0 12.808594 10.421875 23.230469 23.230469 23.230469h8.433593l3.921876 33.535156c.449218 3.820313 3.6875 6.628907 7.441406 6.628907.289062 0 .585937-.015626.878906-.050782 4.117188-.480468 7.0625-4.207031 6.578125-8.320312l-3.71875-31.792969h194.234375c4.140625 0 7.5-3.359375 7.5-7.5s-3.359375-7.5-7.5-7.5h-217.769531c-4.539063 0-8.230469-3.691406-8.230469-8.230469v-27.761718c0-4.535157 3.691406-8.226563 8.230469-8.226563h55.253906l-2.511719 5.941406c-2.449218 5.785157-2.5 12.179688-.136718 18.003907 2.359374 5.824218 6.847656 10.378906 12.636718 12.824218 2.921875 1.238282 6.003906 1.863282 9.15625 1.863282 9.472656 0 17.980469-5.636719 21.671875-14.363282l10.269531-24.273437h252.859376l10.269531 24.273437c3.691406 8.726563 12.199219 14.363282 21.671875 14.363282 3.152344 0 6.234375-.625 9.15625-1.863282 5.789062-2.449218 10.277344-7.003906 12.636718-12.824218 2.359376-5.824219 2.3125-12.21875-.136718-18.003907l-2.511719-5.945312h55.253906c4.539063 0 8.230469 3.691406 8.230469 8.230469v27.761718c0 4.535156-3.691406 8.226563-8.230469 8.226563h-217.769531c-4.140625 0-7.5 3.359375-7.5 7.5 0 4.144531 3.359375 7.5 7.5 7.5h194.234375l-22.648437 193.609375c-1.316407 11.222656-10.824219 19.6875-22.125 19.6875h-328.921876c-11.300781 0-20.8125-8.460938-22.125-19.6875l-15.417968-131.8125c-.480469-4.113282-4.199219-7.054688-8.320313-6.578125-4.117187.480469-7.0625 4.207031-6.578125 8.320312l15.417969 131.816407c2.199219 18.777343 18.113281 32.941406 37.023437 32.941406h328.921876c18.90625 0 34.824218-14.164063 37.019531-32.941406l22.855469-195.355469h8.433593c12.808594 0 23.230469-10.417969 23.230469-23.226563v-27.761718c0-12.808594-10.421875-23.230469-23.230469-23.230469zm-383.28125 33.429687c-1.339843 3.164063-4.425781 5.207032-7.859375 5.207032-1.136718 0-2.25-.226563-3.3125-.675782-2.097656-.886718-3.722656-2.539062-4.578125-4.648437s-.839843-4.425781.046875-6.523438l6.917969-16.351562c.003906-.011719.007813-.023438.015625-.035157l78.527344-185.648437c1.375-3.25 4.539062-5.203125 7.863281-5.203125 1.105469 0 2.230469.214844 3.308594.671875 4.328125 1.832031 6.363281 6.84375 4.53125 11.171875l-73.257813 173.183594c0 .003906-.003906.007812-.003906.011718zm316.773438-.117187c-.855469 2.109375-2.480469 3.761719-4.574219 4.648437-1.066406.449219-2.179688.675782-3.316406.675782-3.433594 0-6.519532-2.042969-7.859375-5.207032l-12.199219-28.839844c0-.003906-.003906-.011718-.007812-.015624l-73.253907-173.179688c-1.832031-4.328125.199219-9.339844 4.527344-11.171875 1.082031-.457031 2.207031-.671875 3.3125-.671875 3.324219 0 6.488281 1.953125 7.863281 5.203125l78.53125 185.652344c.003906.007812.007813.019531.011719.027343l6.917969 16.355469c.886718 2.097657.902344 4.414063.046875 6.523438zm0 0"/></svg>
