<svg id="icon" height="512pt" viewBox="-104 0 512 512.00032" width="512pt" xmlns="http://www.w3.org/2000/svg"><path d="m244.46875 174.496094-46.761719-68.417969c-5.503906-8.050781-14.625-12.863281-24.378906-12.863281h-89.539063c-9.753906 0-18.875 4.8125-24.378906 12.863281l-46.761718 68.417969c-3.355469 4.910156-5.148438 10.714844-5.148438 16.660156v294.691406c0 10.300782 8.351562 18.652344 18.652344 18.652344h204.8125c10.300781 0 18.652344-8.351562 18.652344-18.652344v-294.691406c0-5.945312-1.796876-11.75-5.148438-16.660156zm-115.910156 29.261718c-19.714844 0-35.695313-15.980468-35.695313-35.695312s15.980469-35.695312 35.695313-35.695312 35.695312 15.980468 35.695312 35.695312-15.980468 35.695312-35.695312 35.695312zm0 0" fill="#8cbafa"/><path d="m116.558594 134.4375c-3.75-1.335938-7.789063-2.070312-12-2.070312-19.714844 0-35.695313 15.980468-35.695313 35.695312s15.980469 35.695312 35.695313 35.695312c4.210937 0 8.25-.734374 12-2.070312-13.808594-4.929688-23.695313-18.121094-23.695313-33.625s9.886719-28.695312 23.695313-33.625zm0 0" fill="#5692d8"/><path d="m244.46875 174.496094-46.761719-68.417969c-5.503906-8.050781-14.625-12.863281-24.378906-12.863281h-23.996094c9.75 0 18.871094 4.8125 24.375 12.863281l46.761719 68.417969c3.355469 4.910156 5.148438 10.714844 5.148438 16.660156v294.691406c0 10.300782-8.351563 18.652344-18.652344 18.652344h24c10.300781 0 18.652344-8.351562 18.652344-18.652344v-294.691406c0-5.945312-1.796876-11.75-5.148438-16.660156zm0 0" fill="#5692d8"/><path d="m128.558594 251.519531c-66.859375 0-121.058594 54.199219-121.058594 121.058594v113.269531c0 10.300782 8.351562 18.652344 18.652344 18.652344h204.8125c10.300781 0 18.652344-8.351562 18.652344-18.652344v-113.269531c0-66.859375-54.199219-121.058594-121.058594-121.058594zm0 0" fill="#ffd2c0"/><path d="m225.617188 485.847656c0 10.300782-8.351563 18.652344-18.652344 18.652344h24c5.148437 0 9.8125-2.085938 13.1875-5.460938.84375-.84375 1.609375-1.769531 2.277344-2.761718.671874-.992188 1.25-2.050782 1.722656-3.167969.941406-2.230469 1.464844-4.683594 1.464844-7.261719v-113.269531c0-27.128906-8.925782-52.175781-24-72.359375zm0 0" fill="#edaa9d"/><path d="m131.050781 461.007812c4.140625 0 7.5-3.359374 7.5-7.5v-17.511718h1.566407c18.421874 0 33.40625-14.984375 33.40625-33.40625s-14.984376-33.40625-33.40625-33.40625h-23.117188c-10.148438 0-18.40625-8.257813-18.40625-18.410156 0-10.148438 8.257812-18.40625 18.40625-18.40625h44.242188c4.140624 0 7.5-3.355469 7.5-7.5 0-4.140626-3.359376-7.5-7.5-7.5h-22.691407v-17.511719c0-4.140625-3.359375-7.496094-7.5-7.496094-4.144531 0-7.5 3.355469-7.5 7.496094v17.511719h-6.550781c-18.421875 0-33.40625 14.988281-33.40625 33.40625 0 18.421874 14.984375 33.410156 33.40625 33.410156h23.117188c10.148437 0 18.40625 8.257812 18.40625 18.40625 0 10.148437-8.257813 18.40625-18.40625 18.40625h-44.242188c-4.140625 0-7.5 3.359375-7.5 7.5 0 4.144531 3.359375 7.5 7.5 7.5h27.675781v17.511718c0 4.140626 3.355469 7.5 7.5 7.5zm0 0"/><path d="m299.574219 68.390625c8.214843-24.539063 5.949219-44.839844-6.375-57.160156-12.320313-12.324219-32.621094-14.589844-57.160157-6.375-22.78125 7.628906-47.054687 23.554687-68.34375 44.84375-11.359374 11.359375-21.128906 23.457031-29.089843 36.015625h-54.820313c-12.234375 0-23.660156 6.03125-30.566406 16.132812l-7.355469 10.761719c-2.335937 3.421875-1.460937 8.085937 1.960938 10.425781 3.417969 2.335938 8.085937 1.457032 10.421875-1.960937l7.355468-10.761719c4.109376-6.011719 10.90625-9.597656 18.183594-9.597656h46.328125c-4.246093 8.523437-7.453125 16.929687-9.480469 24.878906-20.046874 3.734375-35.269531 21.355469-35.269531 42.46875 0 23.816406 19.375 43.195312 43.195313 43.195312 19.175781 0 35.476562-12.5625 41.097656-29.890624.066406-.179688.125-.363282.175781-.550782 1.25-4.03125 1.921875-8.316406 1.921875-12.753906 0-21.207031-15.359375-38.894531-35.539062-42.515625 2.382812-7.898437 6.066406-16.3125 10.882812-24.835937h26.230469c7.28125 0 14.078125 3.589843 18.1875 9.601562 8.277344 12.113281 37.949219 55.523438 46.757813 68.414062 2.515624 3.679688 3.84375 7.976563 3.84375 12.429688v121.199219c-21.628907-40.621094-64.417969-68.335938-113.558594-68.335938s-91.929688 27.714844-113.558594 68.335938v-121.199219c0-4.453125 1.328125-8.75 3.839844-12.429688l21.660156-31.6875c2.335938-3.417968 1.460938-8.085937-1.960938-10.425781-3.417968-2.335937-8.082031-1.457031-10.421874 1.960938l-21.660157 31.6875c-4.222656 6.183593-6.457031 13.40625-6.457031 20.894531v294.691406c0 14.421875 11.730469 26.152344 26.152344 26.152344h204.8125c14.417968 0 26.152344-11.730469 26.152344-26.152344v-49.34375c0-4.144531-3.359376-7.5-7.5-7.5-4.140626 0-7.5 3.355469-7.5 7.5v49.34375c0 6.148438-5.003907 11.152344-11.152344 11.152344h-204.8125c-6.148438 0-11.152344-5.003906-11.152344-11.152344v-113.269531c0-62.613281 50.941406-113.558594 113.558594-113.558594 62.613281 0 113.558594 50.941407 113.558594 113.558594v33.925781c0 4.144532 3.359374 7.5 7.5 7.5 4.140624 0 7.5-3.355468 7.5-7.5v-215.347656c0-7.484375-2.234376-14.710938-6.457032-20.894531l-12.605468-18.441407c5.726562-4.667968 11.3125-9.726562 16.675781-15.085937 21.289062-21.292969 37.214843-45.5625 44.84375-68.34375zm-171.015625 127.867187c-15.546875 0-28.195313-12.648437-28.195313-28.195312 0-11.847656 7.34375-22.011719 17.722657-26.179688-.671876 13.890626 3.105468 25.28125 11.140624 33.320313 5.511719 5.511719 12.757813 9.050781 21.328126 10.480469-5.171876 6.441406-13.109376 10.574218-21.996094 10.574218zm28.195312-28.195312c0 1.097656-.0625 2.183594-.1875 3.253906-7.125-.476562-12.738281-2.726562-16.734375-6.71875-6.355469-6.359375-7.367187-15.886718-6.597656-24.34375 13.332031 2.234375 23.519531 13.851563 23.519531 27.808594zm72.804688-28.671875-25.660156-37.542969c-6.90625-10.105468-18.332032-16.136718-30.570313-16.136718h-16.644531c6.257812-8.773438 13.496094-17.28125 21.617187-25.40625 19.683594-19.679688 41.878907-34.320313 62.5-41.226563 18.585938-6.222656 33.816407-5.21875 41.792969 2.757813 7.972656 7.972656 8.980469 23.203124 2.757812 41.792968-6.90625 20.621094-21.546874 42.816406-41.230468 62.5-4.695313 4.695313-9.574219 9.136719-14.5625 13.261719zm0 0"/></svg>
