<svg id="icon" height="512pt" viewBox="0 -15 512 512" width="512pt" xmlns="http://www.w3.org/2000/svg"><path d="m401.546875 27.105469h-205.445313c-16.574218 0-32.867187 4.289062-47.292968 12.453125l-6.933594 3.925781c-30.113281 17.042969-48.726562 48.964844-48.726562 83.566406v250.152344h50.234374v-214.839844c0-6.449219 3.640626-12.339843 9.402344-15.226562 10.910156-5.460938 23.851563 1.984375 24.617188 14.15625 0 0 4.496094 47.75 4.894531 63.722656.851563 33.933594-2.847656 154.390625-3.917969 188.148437-.15625 4.847657 3.730469 8.851563 8.582032 8.851563h223.726562c4.847656 0 8.738281-4.003906 8.582031-8.851563-1.074219-33.757812-4.769531-154.214843-3.917969-188.148437.398438-15.972656 4.894532-63.722656 4.894532-63.722656.765625-12.175781 13.707031-19.617188 24.613281-14.15625 5.765625 2.886719 9.40625 8.777343 9.40625 15.226562v214.839844h50.234375v-250.152344c0-34.601562-18.613281-66.523437-48.726562-83.566406l-6.933594-3.925781c-14.425782-8.164063-30.71875-12.453125-47.292969-12.453125zm0 0" fill="#6a7193"/><path d="m420.246094 161.292969c.269531-4.296875 2.058594-7.996094 4.738281-10.757813-1.320313-1.363281-2.871094-2.519531-4.625-3.398437-10.90625-5.460938-23.847656 1.980469-24.613281 14.15625 0 0-4.496094 47.75-4.894532 63.722656-.851562 33.933594 2.84375 154.390625 3.917969 188.148437.15625 4.847657-3.734375 8.851563-8.582031 8.851563h24.5c4.847656 0 8.738281-4.003906 8.582031-8.851563-1.074219-33.757812-4.769531-154.214843-3.917969-188.148437.398438-15.972656 4.894532-63.722656 4.894532-63.722656zm0 0" fill="#575b7a"/><path d="m455.773438 43.484375-6.933594-3.925781c-14.425782-8.164063-30.71875-12.457032-47.296875-12.457032h-24.5c16.578125 0 32.871093 4.292969 47.296875 12.457032l6.933594 3.925781c30.113281 17.039063 48.726562 48.964844 48.726562 83.566406v250.148438h24.5v-250.148438c0-34.601562-18.613281-66.527343-48.726562-83.566406zm0 0" fill="#575b7a"/><path d="m216.597656 154.796875 82.226563 86.441406 82.226562-86.441406-18.328125-42.957031 22.253906-14.027344-10.785156-60.027344c-3.148437-17.53125-18.402344-30.289062-36.210937-30.289062h-78.3125c-17.808594 0-33.0625 12.757812-36.210938 30.289062l-10.785156 60.027344 22.253906 14.027344zm0 0" fill="#e9e9ea"/><path d="m318.722656 27.105469h-39.796875c-19.613281 0-34.226562 18.128906-30.003906 37.285156 13.480469 61.132813 49.902344 159.40625 49.902344 159.40625s36.417969-98.273437 49.898437-159.40625c4.226563-19.15625-10.386718-37.285156-30-37.285156zm0 0" fill="#252d4c"/><path d="m207.054688 338.9375h-25.332032v-34.078125h25.332032c4.832031 0 8.75 3.914063 8.75 8.75v16.582031c-.003907 4.828125-3.917969 8.746094-8.75 8.746094zm0 0" fill="#8cbafa"/><path d="m151.542969 473.746094h-103.800781c-2.257813 0-4.09375-1.832032-4.09375-4.09375v-295.511719c0-2.257813 1.835937-4.09375 4.09375-4.09375h103.800781c2.261719 0 4.09375 1.835937 4.09375 4.09375v295.511719c0 2.261718-1.832031 4.09375-4.09375 4.09375zm0 0" fill="#f9aa4b"/><path d="m151.542969 170.050781h-24c2.261719 0 4.09375 1.832031 4.09375 4.09375v295.507813c0 2.261718-1.832031 4.09375-4.09375 4.09375h24c2.261719 0 4.09375-1.832032 4.09375-4.09375v-295.507813c0-2.261719-1.832031-4.09375-4.09375-4.09375zm0 0" fill="#c1762b"/><path d="m43.652344 275.632812v134.53125c16.472656 15.429688 38.613281 24.878907 62.964844 24.878907 18.015624 0 34.820312-5.175781 49.019531-14.113281v-156.0625c-14.199219-8.9375-31.003907-14.113282-49.019531-14.113282-24.351563 0-46.492188 9.449219-62.964844 24.878906zm0 0" fill="#c1762b"/><path d="m191.789062 321.898438c0 50.890624-41.253906 92.144531-92.144531 92.144531s-92.144531-41.253907-92.144531-92.144531c0-50.890626 41.253906-92.144532 92.144531-92.144532s92.144531 41.253906 92.144531 92.144532zm0 0" fill="#e9e9ea"/><path d="m136.152344 237.277344c21.882812 16.84375 35.984375 43.296875 35.984375 73.046875 0 50.890625-41.253907 92.144531-92.144531 92.144531-12.96875 0-25.3125-2.683594-36.507813-7.519531 15.546875 11.96875 35.019531 19.09375 56.160156 19.09375 50.890625 0 92.144531-41.253907 92.144531-92.144531 0-37.917969-22.90625-70.484376-55.636718-84.621094zm0 0" fill="#c5c4cc"/><path d="m481.445312 53.617188c-2.933593-2.917969-7.683593-2.90625-10.605468.03125-2.917969 2.9375-2.902344 7.6875.035156 10.609374 16.601562 16.5 26.125 39.386719 26.125 62.796876v242.648437h-35.234375v-207.339844c0-9.347656-5.191406-17.75-13.546875-21.929687-7.378906-3.695313-16.054688-3.445313-23.207031.667968-7.117188 4.09375-11.6875 11.410157-12.246094 19.59375-.289063 3.109376-4.519531 48.308594-4.914063 64.132813-.851562 33.953125 2.785157 152.921875 3.921876 188.574219.007812.304687-.09375.566406-.300782.785156-.148437.148438-.402344.328125-.785156.328125h-104.363281v-170.28125l80.160156-84.265625c2.066406-2.167969 2.640625-5.359375 1.464844-8.113281l-15.816407-37.078125 16.84375-10.617188c2.582032-1.628906 3.921876-4.664062 3.382813-7.671875l-10.785156-60.027343c-.113281-.621094-.238281-1.242188-.375-1.855469h20.339843c15.253907 0 30.332032 3.972656 43.609376 11.492187l2.992187 1.6875c1.164063.65625 2.433594.972656 3.683594.972656 2.617187 0 5.15625-1.371093 6.535156-3.8125 2.039063-3.605468.765625-8.183593-2.839844-10.222656l-2.984375-1.683594c-15.519531-8.789062-33.15625-13.433593-50.996094-13.433593h-26.769531c-8.015625-11.949219-21.621093-19.605469-36.789062-19.605469h-78.3125c-15.167969 0-28.769531 7.65625-36.785157 19.605469h-26.78125c-17.84375 0-35.476562 4.644531-50.980468 13.429687l-6.945313 3.921875c-32.398437 18.335938-52.527343 52.859375-52.527343 90.097657v35.5h-37.910157c-6.390625 0-11.589843 5.199218-11.589843 11.589843v71.015625c-22.066407 18.292969-36.148438 45.902344-36.148438 76.742188 0 30.835937 14.082031 58.445312 36.148438 76.738281v71.015625c0 6.390625 5.199218 11.589844 11.589843 11.589844h36.902344c4.140625 0 7.5-3.359375 7.5-7.5 0-4.144532-3.359375-7.5-7.5-7.5h-33.492187v-57.316406c14.363281 8.035156 30.90625 12.617187 48.496093 12.617187 17.59375 0 34.136719-4.585937 48.496094-12.617187v57.316406h-33.5c-4.140625 0-7.5 3.355468-7.5 7.5 0 4.140625 3.359375 7.5 7.5 7.5h36.898437c6.398438 0 11.601563-5.199219 11.601563-11.589844v-71.015625c16.007813-13.273437 27.8125-31.445313 33.089844-52.195313h10.820312c8.960938 0 16.25-7.289062 16.25-16.25v-16.589843c0-8.960938-7.289062-16.25-16.25-16.25h-10.820312c-5.277344-20.75-17.082031-38.925781-33.089844-52.195313v-71.015625c0-6.390625-5.203125-11.589843-11.601563-11.589843h-.660156v-.191407c0-3.628906 2.019532-6.894531 5.253906-8.515625 1.378907-.6875 2.8125-1.03125 4.265626-1.03125 4.402343 0 9.164062 3.347656 9.515624 8.949219.007813.078125.011719.15625.019532.230469.042968.476562 4.480468 47.675781 4.871094 63.195312.097656 4.125.136718 9.515625.117187 16.019532-.015625 4.144531 3.335937 7.511718 7.476563 7.523437h.023437c4.128906 0 7.484375-3.34375 7.5-7.476563.019531-6.640624-.023437-12.164062-.125-16.433593-.394531-15.820313-4.625-60.996094-4.917969-64.128907-.875-12.839843-11.601562-22.882812-24.476562-22.882812-3.796875 0-7.480469.878906-10.96875 2.613281-8.359375 4.1875-13.550782 12.59375-13.550782 21.9375v.191407h-35.230468v-35.5c0-31.84375 17.207031-61.367188 44.90625-77.042969l6.949218-3.921875c13.261719-7.515625 28.335938-11.488282 43.59375-11.488282h20.347657c-.136719.617188-.261719 1.234376-.375 1.859376l-10.78125 60.027343c-.539063 3.007813.796875 6.039063 3.382812 7.667969l16.84375 10.617188-15.820312 37.078124c-1.175781 2.753907-.597657 5.945313 1.464843 8.113282l80.160157 84.269531v170.28125c-109.960938-.191406-105.503907.714844-105.449219-1.121094l.203125-6.398437c.128906-4.140625-3.125-7.601563-7.265625-7.726563-4.125-.175781-7.597656 3.121094-7.726562 7.261719.3125 3.699219-2.171876 11.386719 4.320312 18.089844 3.058594 3.15625 7.160156 4.894531 11.554688 4.894531h223.726562c4.398438 0 8.5-1.738281 11.558594-4.894531 3.054687-3.152344 4.660156-7.308594 4.519531-11.695313-1.128906-35.554687-4.757813-154.167969-3.917969-187.722656.390625-15.53125 4.820313-62.734375 4.867188-63.207031.003906-.078125.011718-.15625.015625-.234375.207031-3.246094 1.941406-6.039063 4.757812-7.660157 2.820313-1.621093 6.105469-1.714843 9.015625-.257812 3.246094 1.625 5.261719 4.886719 5.261719 8.515625v214.839844c0 4.144531 3.359375 7.5 7.5 7.5h50.234375c4.140625 0 7.5-3.355469 7.5-7.5v-250.144531c0-27.375-11.136719-54.144532-30.554688-73.4375zm-274.394531 258.738281c.6875 0 1.25.558593 1.25 1.25v16.589843c0 .6875-.5625 1.25-1.25 1.25h-8.214843c.300781-3.140624.453124-6.324218.453124-9.542968s-.152343-6.40625-.453124-9.546875zm-22.761719 9.546875c0 46.671875-37.972656 84.644531-84.644531 84.644531-46.675781 0-84.644531-37.972656-84.644531-84.644531 0-46.675782 37.972656-84.648438 84.644531-84.648438 46.675781 0 84.644531 37.972656 84.644531 84.648438zm-84.644531-99.644532c-17.589843 0-34.132812 4.582032-48.496093 12.613282v-57.316406h96.992187v57.316406c-14.363281-8.03125-30.902344-12.613282-48.496094-12.613282zm199.179688-20.582031c-11.238281-31.714843-32.957031-95.273437-42.578125-138.898437-1.515625-6.886719.148437-13.988282 4.566406-19.488282 4.433594-5.519531 11.035156-8.683593 18.113281-8.683593h39.796875c7.078125 0 13.679688 3.164062 18.113282 8.683593 4.417968 5.5 6.082031 12.601563 4.566406 19.488282-9.621094 43.625-31.339844 107.183594-42.578125 138.898437zm-57.003907-86.894531c1.445313-3.386719.21875-7.320312-2.898437-9.285156l-17.976563-11.328125 9.890626-55.054688c.539062-2.992187 1.519531-5.8125 2.863281-8.390625.046875-.082031.089843-.164062.132812-.246094 4.976563-9.324218 14.777344-15.476562 25.835938-15.476562h78.3125c11.082031 0 20.90625 6.183594 25.871093 15.542969.007813.015625.019532.03125.027344.046875 1.382813 2.617187 2.386719 5.476562 2.929688 8.523437l9.890625 55.050781-17.972657 11.328126c-3.117187 1.964843-4.347656 5.902343-2.902343 9.289062l16.390625 38.421875-64.316406 67.613281c7.898437-21.769531 36.5625-102.253906 48.152343-154.808594 2.5-11.347656-.242187-23.054687-7.523437-32.117187-7.292969-9.078125-18.160156-14.285156-29.804688-14.285156h-39.796875c-11.644531 0-22.511719 5.207031-29.804687 14.285156-7.28125 9.0625-10.023438 20.769531-7.523438 32.117187 11.589844 52.554688 40.253906 133.035157 48.152344 154.808594l-64.316406-67.613281zm0 0"/><path d="m334.394531 273.078125h-2.800781c-4.140625 0-7.5 3.355469-7.5 7.5s3.359375 7.5 7.5 7.5h2.800781c4.144531 0 7.5-3.355469 7.5-7.5s-3.355469-7.5-7.5-7.5zm0 0"/><path d="m334.394531 319.289062h-2.800781c-4.140625 0-7.5 3.359376-7.5 7.5 0 4.144532 3.359375 7.5 7.5 7.5h2.800781c4.144531 0 7.5-3.355468 7.5-7.5 0-4.140624-3.355469-7.5-7.5-7.5zm0 0"/><path d="m123.261719 314.398438h-16.117188v-46.574219c0-4.144531-3.359375-7.5-7.5-7.5s-7.5 3.355469-7.5 7.5v54.074219c0 4.144531 3.359375 7.5 7.5 7.5h23.617188c4.140625 0 7.5-3.355469 7.5-7.5 0-4.140626-3.359375-7.5-7.5-7.5zm0 0"/></svg>
