<svg id="icon" height="511pt" viewBox="0 -23 511.99708 511" width="511pt" xmlns="http://www.w3.org/2000/svg"><path d="m487.988281 345.296875h-330.957031c-9.117188 0-16.507812-7.390625-16.507812-16.507813v-303.847656c0-9.117187 7.390624-16.507812 16.507812-16.507812h330.957031c9.117188 0 16.507813 7.390625 16.507813 16.507812v303.847656c.003906 9.117188-7.390625 16.507813-16.507813 16.507813zm0 0" fill="#c8e7f7"/><path d="m487.988281 8.433594h-24.953125c9.117188 0 16.507813 7.390625 16.507813 16.507812v303.847656c0 9.117188-7.390625 16.507813-16.507813 16.507813h24.953125c9.117188 0 16.507813-7.390625 16.507813-16.507813v-303.847656c.003906-9.117187-7.390625-16.507812-16.507813-16.507812zm0 0" fill="#8cbcd6"/><path d="m487.988281 8.433594h-330.957031c-9.117188 0-16.507812 7.390625-16.507812 16.507812v54.15625h363.976562v-54.15625c0-9.117187-7.394531-16.507812-16.511719-16.507812zm0 0" fill="#e9e9ea"/><path d="m487.988281 8.433594h-24.953125c9.117188 0 16.507813 7.390625 16.507813 16.507812v54.15625h24.953125v-54.15625c.003906-9.117187-7.390625-16.507812-16.507813-16.507812zm0 0" fill="#c5c4cc"/><path d="m198.902344 42.492188c0 7.113281-5.765625 12.878906-12.878906 12.878906-7.113282 0-12.878907-5.765625-12.878907-12.878906 0-7.113282 5.765625-12.878907 12.878907-12.878907 7.113281 0 12.878906 5.765625 12.878906 12.878907zm0 0" fill="#ed5176"/><path d="m254.53125 42.492188c0 7.113281-5.765625 12.878906-12.878906 12.878906-7.113282 0-12.878906-5.765625-12.878906-12.878906 0-7.113282 5.765624-12.878907 12.878906-12.878907 7.113281 0 12.878906 5.765625 12.878906 12.878907zm0 0" fill="#ffcd34"/><path d="m310.15625 42.492188c0 7.113281-5.765625 12.878906-12.878906 12.878906-7.113282 0-12.878906-5.765625-12.878906-12.878906 0-7.113282 5.765624-12.878907 12.878906-12.878907 7.113281 0 12.878906 5.765625 12.878906 12.878907zm0 0" fill="#aed559"/><path d="m185.554688 380.890625-28.355469 12.625-28.773438-64.625 29.84375-13.289063 33.300781 37.019532c8.117188 9.019531 5.070313 23.332031-6.015624 28.269531zm0 0" fill="#ffcd34"/><path d="m216.054688 136.1875 73.6875 165.503906c-33.007813-8.929687-69.191407-6.996094-102.875 7.996094l-52.902344 23.554688-45.597656-102.414063 52.902343-23.554687c33.683594-14.996094 59.335938-40.578126 74.785157-71.085938zm0 0" fill="#e9e9ea"/><path d="m278.042969 275.414062c-31.613281-5.796874-66.960938-1.988281-100.644531 13.007813l-52.902344 23.554687 9.46875 21.269532 52.90625-23.554688c33.679687-14.996094 69.863281-16.929687 102.871094-7.996094zm0 0" fill="#c5c4cc"/><path d="m315.933594 320.625c-8.1875 3.644531-17.777344-.039062-21.421875-8.226562l-83.222657-186.917969c-3.644531-8.1875.039063-17.777344 8.222657-21.421875 8.1875-3.644532 17.78125.035156 21.425781 8.222656l83.21875 186.921875c3.648438 8.183594-.035156 17.777344-8.222656 21.421875zm0 0" fill="#ed5176"/><path d="m118.839844 207.953125-85.070313 37.875c-5.875 2.617187-8.519531 9.5-5.902343 15.378906l43.046874 96.683594c2.617188 5.878906 9.5 8.519531 15.378907 5.90625l85.066406-37.875c5.878906-2.617187 8.523437-9.503906 5.90625-15.382813l-43.046875-96.683593c-2.617188-5.875-9.503906-8.519531-15.378906-5.902344zm0 0" fill="#575b7a"/><path d="m177.265625 310.539062-8.679687-19.492187c2.140624 4.808594-.886719 10.828125-6.765626 13.445313l-85.066406 37.875c-5.878906 2.617187-12.378906.839843-14.519531-3.96875l8.679687 19.492187c2.617188 5.878906 9.503907 8.523437 15.378907 5.90625l85.070312-37.875c5.875-2.617187 8.519531-9.503906 5.902344-15.382813zm0 0" fill="#252d4c"/><path d="m29.128906 264.042969c-19.515625 13.652343-27.28125 39.628906-17.230468 62.199219 10.050781 22.570312 34.550781 34.183593 57.753906 28.816406zm0 0" fill="#ed5176"/><path d="m202.015625 424.5625c-24.871094-27.292969-42.773437-58.257812-50.980469-89.59375l-58.296875 25.957031c8.691407 33.191407 28.265625 65.96875 55.476563 94.40625 2.804687 2.933594 7.148437 3.800781 10.851562 2.152344l39.785156-17.714844c5.976563-2.660156 7.570313-10.375 3.164063-15.207031zm0 0" fill="#8cbafa"/><path d="m202.015625 424.5625c-24.871094-27.292969-42.773437-58.257812-50.980469-89.59375l-19.449218 8.660156c9.75 30.648438 26.546874 62.105469 48.003906 90.921875 3.796875 5.097657 3.554687 12.214844-.496094 14.015625l19.757812-8.796875c5.976563-2.660156 7.570313-10.375 3.164063-15.207031zm0 0" fill="#5692d8"/><path d="m487.957031.5h-37.261719c-4.140624 0-7.5 3.355469-7.5 7.5 0 4.140625 3.359376 7.5 7.5 7.5h37.261719c4.984375 0 9.039063 4.054688 9.039063 9.039062v46.761719h-349.679688v-46.761719c0-4.984374 4.054688-9.039062 9.042969-9.039062h263.675781c4.140625 0 7.5-3.359375 7.5-7.5 0-4.144531-3.359375-7.5-7.5-7.5h-263.675781c-13.257813 0-24.042969 10.785156-24.042969 24.039062v177.371094c-5.117187-2.902344-11.5-3.425781-17.273437-.855468l-85.230469 37.945312c-4.679688 2.082031-8.265625 5.863281-10.101562 10.644531-1.496094 3.898438-1.683594 8.082031-.570313 12.03125-6.605469 5.734375-11.859375 12.910157-15.34375 21.03125-1.636719 3.804688.125 8.214844 3.929687 9.851563 3.808594 1.636718 8.214844-.125 9.851563-3.929688 1.941406-4.523437 4.617187-8.648437 7.902344-12.226562l32.363281 72.691406c-.144531.003906-.289062.003906-.4375.003906-16.789062 0-32.535156-9.84375-39.605469-25.726562-1.324219-2.976563-2.316406-6.089844-2.941406-9.257813-.804687-4.0625-4.75-6.699219-8.8125-5.898437-4.066406.804687-6.707031 4.75-5.902344 8.8125.84375 4.261718 2.171875 8.445312 3.953125 12.445312 9.519532 21.375 30.710938 34.621094 53.320313 34.621094 2.367187 0 4.746093-.144531 7.132812-.441406 3.566407 5.628906 9.765625 8.902344 16.21875 8.902344 2.113281 0 4.257813-.351563 6.339844-1.089844 9.832031 31.242187 28.71875 62.015625 55.003906 89.480468 3.300781 3.453126 7.820313 5.292969 12.410157 5.292969 2.34375 0 4.703124-.480469 6.929687-1.472656l39.863281-17.746094c4.996094-2.226562 8.648438-6.746093 9.769532-12.097656 1.125-5.363281-.414063-10.988281-4.105469-15.042969-8.769531-9.621094-16.589844-19.640625-23.367188-29.898437l4.386719-1.957031c7.511719-3.347657 12.800781-9.882813 14.507812-17.925782 1.707032-8.042968-.464843-16.15625-5.964843-22.261718l-16.980469-18.878907c2.796875-2.816406 4.632812-6.429687 5.300781-10.289062l4.445313-1.980469c29.6875-13.222656 63.15625-16.207031 94.644531-8.507812l3.304687 7.421874c2.582032 5.796876 7.265626 10.242188 13.1875 12.515626 2.769532 1.0625 5.648438 1.59375 8.523438 1.59375 3.285156 0 6.5625-.691407 9.652344-2.070313 5.800781-2.578125 10.246094-7.261719 12.519531-13.1875 2.273437-5.921875 2.105469-12.378906-.476563-18.179687l-83.382812-187.277344c-5.328125-11.96875-19.394531-17.367188-31.367188-12.039063-5.796874 2.578125-10.242187 7.265625-12.515624 13.1875-2.273438 5.925781-2.105469 12.378907.476562 18.175781l3.304688 7.425782c-13.621094 25.332031-34.550782 46.199218-59.859376 59.8125v-109.257813h349.679688v242.671875c0 4.984375-4.054688 9.042969-9.039062 9.042969h-264.332032c-4.140625 0-7.5 3.355469-7.5 7.5 0 4.140625 3.359375 7.5 7.5 7.5h264.328125c13.257813 0 24.039063-10.785156 24.039063-24.042969v-304.433594c.003906-13.257812-10.78125-24.039062-24.039063-24.039062zm-411.027343 354.582031-21.566407-48.4375c-23.503906-52.785156-22.496093-49.421875-21.648437-51.625.398437-1.039062 1.179687-1.863281 2.199218-2.316406l85.230469-37.945313c1.6875-.75 3.609375-.289062 4.789063 1.007813.078125.101563.15625.195313.238281.289063.1875.246093.347656.519531.480469.816406l43.128906 96.871094c.933594 2.101562-.011719 4.570312-2.113281 5.507812l-2.589844 1.148438c-.089844.039062-.183594.082031-.277344.125l-82.363281 36.671874c-2.105469.9375-4.574219-.011718-5.507812-2.113281zm118.285156 78.234375-39.867188 17.75c-.8125.359375-1.777344.164063-2.398437-.488281-25.148438-26.277344-43.035157-55.609375-52.023438-85.195313l6.269531-2.789062 38.34375-17.074219c9.234376 29.273438 26.515626 58.308594 50.351563 84.464844.964844 1.058594.648437 2.742187-.675781 3.332031zm-7.382813-66.335937c-.699219 3.296875-2.863281 5.976562-5.941406 7.34375l-6.1875 2.757812c-7.011719-12.394531-12.515625-25.046875-16.363281-37.707031l6.722656-2.992188 19.328125 21.488282c2.25 2.5 3.140625 5.820312 2.441406 9.109375zm29.566407-251.457031c.835937-2.183594 2.476562-3.914063 4.613281-4.863282 1.15625-.515625 2.363281-.757812 3.550781-.757812 3.355469 0 6.5625 1.9375 8.011719 5.195312l83.382812 187.28125c.953125 2.136719 1.015625 4.515625.175781 6.699219-.839843 2.183594-2.476562 3.910156-4.613281 4.863281-2.136719.949219-4.519531 1.015625-6.703125.175782-2.183594-.839844-3.910156-2.476563-4.859375-4.613282l-4.664062-10.476562c-.035157-.085938-.070313-.171875-.109375-.253906-6.050782-13.59375-75.582032-169.75-78.609375-176.550782-.949219-2.136718-1.015625-4.515625-.175781-6.699218zm-2.710938 37.089843 61.753906 138.699219c-31.386718-5.363281-63.980468-1.355469-93.234375 11.675781l-1.5.664063-39.585937-88.914063 1.496094-.664062c29.269531-13.027344 54.0625-34.5625 71.070312-61.460938zm0 0"/><path d="m165.003906 42.125c0 11.25 9.152344 20.402344 20.40625 20.402344 11.25 0 20.402344-9.152344 20.402344-20.402344 0-11.253906-9.152344-20.40625-20.402344-20.40625-11.253906 0-20.40625 9.152344-20.40625 20.40625zm25.808594 0c0 2.976562-2.425781 5.402344-5.402344 5.402344-2.980468 0-5.40625-2.425782-5.40625-5.402344 0-2.980469 2.425782-5.40625 5.40625-5.40625 2.976563 0 5.402344 2.425781 5.402344 5.40625zm0 0"/><path d="m220.738281 42.125c0 11.25 9.152344 20.402344 20.40625 20.402344 11.25 0 20.402344-9.152344 20.402344-20.402344 0-11.253906-9.152344-20.40625-20.402344-20.40625-11.253906 0-20.40625 9.152344-20.40625 20.40625zm25.808594 0c0 2.976562-2.421875 5.402344-5.402344 5.402344s-5.40625-2.425782-5.40625-5.402344c0-2.980469 2.425781-5.40625 5.40625-5.40625s5.402344 2.425781 5.402344 5.40625zm0 0"/><path d="m276.472656 42.125c0 11.25 9.15625 20.402344 20.40625 20.402344s20.402344-9.152344 20.402344-20.402344c0-11.253906-9.152344-20.40625-20.402344-20.40625s-20.40625 9.152344-20.40625 20.40625zm25.808594 0c0 2.976562-2.421875 5.402344-5.402344 5.402344-2.980468 0-5.40625-2.425782-5.40625-5.402344 0-2.980469 2.425782-5.40625 5.40625-5.40625 2.980469 0 5.402344 2.425781 5.402344 5.40625zm0 0"/><path d="m328.074219 192.730469c1.019531 0 2.054687-.207031 3.046875-.648438l43.761718-19.484375c3.78125-1.683594 5.484376-6.117187 3.800782-9.902344-1.6875-3.785156-6.117188-5.484374-9.902344-3.800781l-43.761719 19.484375c-3.785156 1.683594-5.484375 6.117188-3.800781 9.902344 1.242188 2.792969 3.984375 4.449219 6.855469 4.449219zm0 0"/><path d="m332.203125 112.800781c-3.453125-2.289062-8.105469-1.351562-10.398437 2.097657l-26.144532 39.355468c-2.289062 3.449219-1.351562 8.105469 2.101563 10.398438 1.273437.847656 2.714843 1.253906 4.140625 1.253906 2.429687 0 4.808594-1.179688 6.253906-3.351562l26.140625-39.355469c2.292969-3.449219 1.355469-8.105469-2.09375-10.398438zm0 0"/><path d="m329.40625 230.039062 46.738281 6.90625c.371094.054688.738281.082032 1.105469.082032 3.65625 0 6.859375-2.679688 7.410156-6.40625.601563-4.097656-2.226562-7.910156-6.324218-8.515625l-46.738282-6.90625c-4.097656-.605469-7.910156 2.226562-8.515625 6.324219-.605469 4.09375 2.226563 7.910156 6.324219 8.515624zm0 0"/></svg>
