<svg id="icon" height="512pt" viewBox="0 -52 512 512" width="512pt" xmlns="http://www.w3.org/2000/svg"><path d="m7.5 296.449219v39.070312c0 2.207031 1.789062 4 4 4h300.929688v-47.070312h-300.929688c-2.210938 0-4 1.789062-4 4zm0 0" fill="#ce675d"/><path d="m265.496094 292.449219h46.933594v47.070312h-46.933594zm0 0" fill="#aa4b44"/><path d="m17.757812 21.5v270.949219h273.539063v-270.949219c0-7.730469-6.269531-14-14-14h-245.539063c-7.730468 0-14 6.269531-14 14zm0 0" fill="#f9aa4b"/><path d="m277.296875 7.5h-25c7.730469 0 14 6.269531 14 14v270.949219h25v-270.949219c0-7.730469-6.269531-14-14-14zm0 0" fill="#c1762b"/><path d="m194.34375 106.238281-17.464844-13.140625c-.621094-.464844-1.472656-.464844-2.09375 0l-19.199218 14.449219c-.621094.464844-1.476563.46875-2.09375 0l-19.214844-14.449219c-.621094-.464844-1.472656-.464844-2.09375 0l-17.472656 13.140625c-1.148438.863281-2.789063.042969-2.789063-1.390625v-97.347656h85.210937v97.347656c0 1.433594-1.640624 2.253906-2.789062 1.390625zm0 0" fill="#ffeb96"/><path d="m50.34375 195.136719v54.203125c0 4.304687 3.492188 7.796875 7.796875 7.796875h82.941406c4.308594 0 7.796875-3.492188 7.796875-7.796875v-54.203125c0-4.304688-3.488281-7.796875-7.796875-7.796875h-82.941406c-4.304687 0-7.796875 3.492187-7.796875 7.796875zm0 0" fill="#f0f0f2"/><path d="m490.625 339.519531h-199.328125v-194.429687c0-7.664063 6.210937-13.875 13.875-13.875h95.8125c57.171875 0 103.515625 46.34375 103.515625 103.511718v90.917969c0 7.664063-6.210938 13.875-13.875 13.875zm0 0" fill="#8cbafa"/><path d="m400.984375 131.214844h-22.5c57.171875 0 103.515625 46.34375 103.515625 103.511718v90.917969c0 7.660157-6.210938 13.875-13.875 13.875h22.5c7.660156 0 13.875-6.214843 13.875-13.875v-90.917969c0-57.167968-46.34375-103.511718-103.515625-103.511718zm0 0" fill="#5692d8"/><path d="m400.984375 131.214844h-64.539063v68.832031c0 9.609375 7.789063 17.402344 17.402344 17.402344h9.984375c5.867188 0 11.339844 2.953125 14.554688 7.859375l14.355469 21.902344c3.21875 4.90625 8.6875 7.863281 14.554687 7.863281h97.203125v-20.347657c0-57.167968-46.34375-103.511718-103.515625-103.511718zm0 0" fill="#def6ff"/><path d="m498.21875 199.136719c-.578125-1.585938-1.199219-3.152344-1.851562-4.699219-1.636719-3.871094-3.503907-7.621094-5.582032-11.234375-.832031-1.445313-1.695312-2.867187-2.59375-4.269531-2.242187-3.5-4.691406-6.855469-7.328125-10.050782-8.964843-10.863281-20.105469-19.867187-32.753906-26.34375-.742187-.382812-1.492187-.753906-2.246094-1.117187-13.574219-6.542969-28.796875-10.207031-44.878906-10.207031h-22.492187c57.164062.003906 103.507812 46.347656 103.507812 103.511718v20.347657h22.5v-20.347657c0-12.503906-2.21875-24.492187-6.28125-35.589843zm0 0" fill="#c8e7f7"/><path d="m456.644531 343.679688c0 31.667968-25.671875 57.339843-57.339843 57.339843-31.667969 0-57.339844-25.671875-57.339844-57.339843 0-31.667969 25.671875-57.339844 57.339844-57.339844 31.667968 0 57.339843 25.671875 57.339843 57.339844zm0 0" fill="#575b7a"/><path d="m429.964844 295.234375c6.511718 9.300781 10.34375 20.617187 10.34375 32.835937 0 31.667969-25.671875 57.339844-57.339844 57.339844-11.28125 0-21.789062-3.269531-30.660156-8.894531 10.367187 14.808594 27.542968 24.503906 46.996094 24.503906 31.667968 0 57.339843-25.671875 57.339843-57.339843 0-20.390626-10.652343-38.277344-26.679687-48.445313zm0 0" fill="#252d4c"/><path d="m419.484375 343.679688c0 11.144531-9.035156 20.179687-20.179687 20.179687-11.148438 0-20.183594-9.035156-20.183594-20.179687 0-11.148438 9.035156-20.183594 20.183594-20.183594 11.144531 0 20.179687 9.035156 20.179687 20.183594zm0 0" fill="#f0f0f2"/><path d="m170.371094 343.679688c0 31.667968-25.671875 57.339843-57.339844 57.339843s-57.339844-25.671875-57.339844-57.339843c0-31.667969 25.671875-57.339844 57.339844-57.339844s57.339844 25.671875 57.339844 57.339844zm0 0" fill="#575b7a"/><path d="m143.691406 295.234375c6.511719 9.300781 10.347656 20.617187 10.347656 32.835937 0 31.667969-25.671874 57.339844-57.339843 57.339844-11.28125 0-21.792969-3.269531-30.660157-8.894531 10.367188 14.808594 27.542969 24.503906 46.992188 24.503906 31.667969 0 57.339844-25.671875 57.339844-57.339843 0-20.390626-10.648438-38.277344-26.679688-48.445313zm0 0" fill="#252d4c"/><path d="m133.210938 343.679688c0 11.144531-9.035157 20.179687-20.179688 20.179687s-20.179688-9.035156-20.179688-20.179687c0-11.148438 9.035157-20.183594 20.179688-20.183594s20.179688 9.035156 20.179688 20.183594zm0 0" fill="#f0f0f2"/><path d="m141.082031 264.636719c8.433594 0 15.296875-6.863281 15.296875-15.296875v-54.203125c0-8.433594-6.863281-15.296875-15.296875-15.296875h-82.941406c-8.433594 0-15.296875 6.863281-15.296875 15.296875v54.203125c0 8.433594 6.863281 15.296875 15.296875 15.296875zm-83.238281-15.296875v-54.199219c0-.164063.132812-.300781.296875-.300781h82.941406c.164063 0 .296875.136718.296875.300781v54.199219c0 .164062-.132812.296875-.296875.296875h-82.941406c-.164063 0-.296875-.132813-.296875-.296875zm0 0"/><path d="m75.609375 218.039062h16c4.144531 0 7.5-3.359374 7.5-7.5 0-4.140624-3.355469-7.5-7.5-7.5h-16c-4.140625 0-7.5 3.359376-7.5 7.5 0 4.140626 3.359375 7.5 7.5 7.5zm0 0"/><path d="m75.609375 241.4375h48.003906c4.140625 0 7.5-3.355469 7.5-7.5 0-4.140625-3.359375-7.5-7.5-7.5h-48.003906c-4.140625 0-7.5 3.359375-7.5 7.5 0 4.144531 3.359375 7.5 7.5 7.5zm0 0"/><path d="m475.632812 152.558594c-3.0625-2.785156-7.808593-2.558594-10.59375.507812-2.785156 3.0625-2.558593 7.808594.507813 10.59375 19.988281 18.164063 31.453125 44.070313 31.453125 71.070313v12.84375h-89.703125c-3.347656 0-6.445313-1.671875-8.28125-4.472657l-14.355469-21.902343c-4.617187-7.042969-12.402344-11.25-20.824218-11.25h-9.988282c-5.460937 0-9.902344-4.441407-9.902344-9.898438v-61.335937h57.042969c14.5625 0 28.546875 3.175781 41.566407 9.4375 3.730468 1.796875 8.210937.226562 10.007812-3.507813 1.796875-3.730469.226562-8.210937-3.507812-10.007812-15.0625-7.246094-31.234376-10.921875-48.066407-10.921875h-95.816406c-2.21875 0-4.359375.339844-6.371094.972656v-103.1875c0-11.855469-9.644531-21.5-21.5-21.5h-245.539062c-11.855469 0-21.5 9.644531-21.5 21.5v263.515625c-5.761719.621094-10.261719 5.511719-10.261719 11.433594v39.070312c0 6.339844 5.160156 11.5 11.5 11.5h14.191406c4.144532 0 7.5-3.359375 7.5-7.5s-3.355468-7.5-7.5-7.5h-10.691406v-32.070312h50.195312c-10.554687 11.539062-17.003906 26.894531-17.003906 43.730469 0 35.753906 29.085938 64.839843 64.839844 64.839843 34.632812 0 63.011719-27.292969 64.753906-61.5h134.644532c4.140624 0 7.5-3.359375 7.5-7.5s-3.359376-7.5-7.5-7.5h-13.632813v-39.351562c0-.070313.003906-.144531.003906-.21875v-147.558594c.105469-3.421875 2.921875-6.175781 6.371094-6.175781h23.773437v61.335937c0 13.726563 11.167969 24.898438 24.898438 24.898438h9.988281c3.347657 0 6.445313 1.671875 8.28125 4.472656l14.355469 21.902344c4.621094 7.042969 12.402344 11.25 20.828125 11.25h89.703125v63.066406c0 3.515625-2.863281 6.378906-6.378906 6.378906h-27.527344c-5.507812-30.207031-32.019531-53.179687-63.789062-53.179687-35.753907 0-64.839844 29.085937-64.839844 64.839844 0 35.753906 29.085937 64.839843 64.839844 64.839843 34.628906 0 63.007812-27.292969 64.753906-61.5h26.5625c11.789062 0 21.378906-9.589843 21.378906-21.378906v-90.910156c0-31.21875-13.253906-61.167969-36.367188-82.171875zm-314.765624 147.390625h122.929687v32.070312h-106.976563c-2.226562-12.222656-7.890624-23.257812-15.953124-32.070312zm-135.605469-15v-263.449219c0-3.585938 2.914062-6.5 6.5-6.5h72.660156v27.699219c0 4.144531 3.359375 7.5 7.5 7.5s7.5-3.355469 7.5-7.5v-27.695313h70.210937v78.304688l-8.242187-6.203125c-3.269531-2.460938-7.839844-2.460938-11.113281 0l-15.738282 11.84375-15.753906-11.84375c-3.273437-2.460938-7.839844-2.460938-11.109375 0l-8.253906 6.207031v-20.613281c0-4.140625-3.355469-7.5-7.5-7.5-4.140625 0-7.5 3.359375-7.5 7.5v32.148437c0 3.523438 1.960937 6.691406 5.113281 8.269532 3.15625 1.574218 6.867188 1.238281 9.683594-.882813l14.011719-10.539063 15.757812 11.851563c1.632813 1.226563 3.59375 1.839844 5.550781 1.839844 1.960938 0 3.921876-.613281 5.558594-1.847657l15.738282-11.84375 14.003906 10.535157c2.816406 2.121093 6.527344 2.460937 9.679687.886719 3.15625-1.578126 5.117188-4.746094 5.117188-8.269532v-89.847656h72.664062c3.582031 0 6.5 2.914062 6.5 6.5v123.230469c-.003906.117187-.003906.238281-.003906.359375v139.859375h-143.292969c-8.347656-3.917969-17.65625-6.109375-27.472656-6.109375-9.8125 0-19.125 2.191406-27.46875 6.109375zm87.769531 108.570312c-27.480469 0-49.839844-22.359375-49.839844-49.839843 0-27.484376 22.359375-49.839844 49.839844-49.839844 27.804688 0 49.839844 22.695312 49.839844 49.839844 0 27.480468-22.355469 49.839843-49.839844 49.839843zm286.273438 0c-27.484376 0-49.839844-22.359375-49.839844-49.839843 0-27.484376 22.355468-49.839844 49.839844-49.839844 26.203124 0 47.746093 20.324218 49.695312 46.039062.003906.109375.011719.222656.023438.332032.078124 1.144531.117187 2.300781.117187 3.464843.003906 27.484375-22.355469 49.84375-49.835937 49.84375zm0 0"/><path d="m399.304688 316c-15.265626 0-27.683594 12.414062-27.683594 27.679688 0 15.261718 12.417968 27.679687 27.683594 27.679687 15.261718 0 27.679687-12.417969 27.679687-27.679687 0-15.265626-12.417969-27.679688-27.679687-27.679688zm0 40.359375c-6.992188 0-12.683594-5.6875-12.683594-12.679687 0-6.992188 5.691406-12.683594 12.683594-12.683594 6.992187 0 12.679687 5.691406 12.679687 12.683594 0 6.992187-5.6875 12.679687-12.679687 12.679687zm0 0"/><path d="m113.03125 316c-15.261719 0-27.679688 12.414062-27.679688 27.679688 0 15.261718 12.417969 27.679687 27.679688 27.679687 15.265625 0 27.679688-12.417969 27.679688-27.679687 0-15.265626-12.417969-27.679688-27.679688-27.679688zm0 40.359375c-6.992188 0-12.679688-5.6875-12.679688-12.679687 0-6.992188 5.6875-12.683594 12.679688-12.683594s12.679688 5.691406 12.679688 12.683594c0 6.992187-5.6875 12.679687-12.679688 12.679687zm0 0"/></svg>
