<svg id="icon" height="511pt" viewBox="-64 1 511 511.999" width="511pt" xmlns="http://www.w3.org/2000/svg"><path d="m8.011719 266.941406v157.113282h210.28125v-157.113282c0-7.074218-5.734375-12.808594-12.808594-12.808594h-184.664063c-7.074218 0-12.808593 5.734376-12.808593 12.808594zm0 0" fill="#ed5176"/><path d="m205.484375 254.132812h-23.9375c7.074219 0 12.808594 5.734376 12.808594 12.808594v157.113282h23.9375v-157.113282c0-7.074218-5.734375-12.808594-12.808594-12.808594zm0 0" fill="#ba365f"/><path d="m8.011719 427.019531v28.949219c0 1.636719 1.328125 2.964844 2.964843 2.964844h222.972657v-34.878906h-222.972657c-1.636718 0-2.964843 1.328124-2.964843 2.964843zm0 0" fill="#f9aa4b"/><path d="m194.355469 424.054688h39.59375v34.878906h-39.59375zm0 0" fill="#c1762b"/><path d="m365.984375 458.933594h-147.691406v-144.0625c0-5.679688 4.601562-10.28125 10.28125-10.28125h70.992187c42.359375 0 76.699219 34.339844 76.699219 76.699218v67.363282c0 5.675781-4.601563 10.28125-10.28125 10.28125zm0 0" fill="#8cbafa"/><path d="m299.566406 304.589844h-22.5c42.359375 0 76.699219 34.339844 76.699219 76.699218v67.363282c0 5.675781-4.601563 10.28125-10.28125 10.28125h22.5c5.679687 0 10.28125-4.605469 10.28125-10.28125v-67.363282c0-42.359374-34.339844-76.699218-76.699219-76.699218zm0 0" fill="#5692d8"/><path d="m299.566406 304.589844h-47.820312v51.003906c0 7.121094 5.769531 12.890625 12.890625 12.890625h7.402343c4.34375 0 8.398438 2.191406 10.78125 5.824219l10.640626 16.230468c2.382812 3.636719 6.433593 5.824219 10.78125 5.824219h72.023437v-15.074219c0-42.359374-34.339844-76.699218-76.699219-76.699218zm0 0" fill="#def6ff"/><path d="m299.566406 304.589844h-22.5c42.359375 0 76.699219 34.339844 76.699219 76.699218v15.074219h22.5v-15.074219c0-42.359374-34.339844-76.699218-76.699219-76.699218zm0 0" fill="#c8e7f7"/><path d="m340.804688 462.015625c0 23.460937-19.019532 42.484375-42.484376 42.484375-23.464843 0-42.488281-19.023438-42.488281-42.484375 0-23.464844 19.023438-42.488281 42.488281-42.488281 23.464844 0 42.484376 19.023437 42.484376 42.488281zm0 0" fill="#575b7a"/><path d="m313.269531 462.015625c0 8.257813-6.691406 14.949219-14.949219 14.949219-8.257812 0-14.953124-6.691406-14.953124-14.949219s6.695312-14.953125 14.953124-14.953125c8.257813 0 14.949219 6.695312 14.949219 14.953125zm0 0" fill="#f0f0f2"/><path d="m128.691406 462.015625c0 23.460937-19.019531 42.484375-42.484375 42.484375-23.464843 0-42.488281-19.023438-42.488281-42.484375 0-23.464844 19.023438-42.488281 42.488281-42.488281 23.464844 0 42.484375 19.023437 42.484375 42.488281zm0 0" fill="#575b7a"/><path d="m101.15625 462.015625c0 8.257813-6.691406 14.949219-14.949219 14.949219-8.257812 0-14.953125-6.691406-14.953125-14.949219s6.695313-14.953125 14.953125-14.953125c8.257813 0 14.949219 6.695312 14.949219 14.953125zm0 0" fill="#f0f0f2"/><path d="m235.527344 229.316406-4.851563-8.402344c-2.078125-3.601562-.84375-8.207031 2.757813-10.285156l29.191406-16.855468 12.382812 21.445312-29.195312 16.851562c-3.601562 2.082032-8.207031.847657-10.285156-2.753906zm0 0" fill="#6a7193"/><path d="m158.019531 95.066406-4.851562-8.398437c-2.078125-3.601563-.84375-8.207031 2.757812-10.289063l29.191407-16.855468 12.382812 21.445312-29.191406 16.855469c-3.605469 2.078125-8.210938.847656-10.289063-2.757813zm0 0" fill="#6a7193"/><path d="m144.949219 256.101562 33.328125-88.507812-93.59375-15.875c-6.953125-1.964844-14.289063 1.515625-17.164063 8.144531-1.398437 3.226563-.253906 6.992188 2.699219 8.894531l49.867188 32.109376 2.875 59.238281c.167968 3.511719 2.855468 6.382812 6.351562 6.785156 7.175781.828125 13.859375-3.785156 15.636719-10.789063zm0 0" fill="#8cbafa"/><path d="m117.054688 198.914062 3.03125 1.953126 2.179687 44.921874c.722656-.085937 1.449219-.21875 2.171875-.410156l27.335938-7.402344 26.503906-70.382812-23.082032-3.914062-6.496093 3.75zm0 0" fill="#5692d8"/><path d="m319.648438 105.824219-84.660157 48.878906 39.722657 112.234375c3.339843 9.441406 14.433593 13.535156 23.109374 8.527344 4.523438-2.613282 7.488282-7.261719 7.945313-12.464844zm0 0" fill="#8cbafa"/><path d="m319.648438 105.824219-84.660157 48.878906 13.285157 37.542969 67.167968-38.777344zm0 0" fill="#5692d8"/><path d="m302.175781 75.558594-84.664062 48.882812-77.332031-90.515625c-6.507813-7.617187-4.507813-19.269531 4.167968-24.277343 4.523438-2.613282 10.035156-2.855469 14.769532-.652344zm0 0" fill="#8cbafa"/><path d="m365.261719 58.160156c-10.167969-16.546875-40.921875-16.375-57.742188-6.664062l-174.820312 100.933594-43.992188 43.769531c-4.914062 4.886719-5.921875 12.46875-2.457031 18.472656l4.964844 8.597656c3.464844 6 10.535156 8.917969 17.222656 7.109375l59.902344-16.21875 175.464844-101.304687c17.335937-10.007813 32.003906-37.53125 21.457031-54.695313zm0 0" fill="#e9e9ea"/><path d="m365.261719 58.160156c-1.097657-1.78125-2.441407-3.359375-3.96875-4.761718 1.195312 12.242187-13.910157 30.757812-29.023438 39.480468l-175.460937 101.304688-57.332032 20.675781c-5.800781 2.089844-11.335937 1.277344-14.070312-1.914063.246094.585938.519531 1.164063.84375 1.726563l4.964844 8.597656c3.464844 6 10.535156 8.917969 17.222656 7.109375l59.90625-16.21875 175.460938-101.304687c17.335937-10.007813 32.003906-37.53125 21.457031-54.695313zm0 0" fill="#c5c4cc"/><path d="m372.050781 338.425781c-2.113281-3.566406-6.71875-4.738281-10.277343-2.625-3.5625 2.113281-4.738282 6.714844-2.625 10.273438 6.292968 10.609375 9.621093 22.789062 9.621093 35.214843v7.574219h-64.523437c-1.824219 0-3.511719-.914062-4.511719-2.4375l-10.640625-16.230469c-3.78125-5.765624-10.15625-9.210937-17.054688-9.210937h-7.398437c-2.976563 0-5.394531-2.421875-5.394531-5.394531v-43.5h40.320312c15.066406 0 29.386719 4.757812 41.40625 13.753906 3.320313 2.480469 8.015625 1.804688 10.5-1.507812 2.480469-3.316407 1.804688-8.019532-1.511718-10.5-14.636719-10.957032-32.0625-16.746094-50.394532-16.746094h-47.746094c-.023437 0-.050781 0-.074218 0-.027344 0-.054688 0-.078125 0h-23.101563c-.941406 0-1.871094.074218-2.773437.21875v-30.367188c0-11.199218-9.109375-20.308594-20.308594-20.308594h-28.820313c-4.140624 0-7.5 3.355469-7.5 7.5 0 4.140626 3.359376 7.5 7.5 7.5h28.820313c2.925781 0 5.308594 2.378907 5.308594 5.308594v47.621094c-.003907.101562-.003907.203125-.003907.308594v101.6875h-103.792968c-6.335938-2.90625-13.375-4.53125-20.789063-4.53125-7.414062 0-14.457031 1.625-20.789062 4.53125h-49.90625v-149.617188c0-2.929687 2.382812-5.308594 5.308593-5.308594h71.78125c4.144532 0 7.5-3.359374 7.5-7.5 0-4.144531-3.355468-7.5-7.5-7.5h-71.78125c-11.199218 0-20.308593 9.109376-20.308593 20.308594.042969 167.839844-.109375 157.195313.121093 158.464844-.230468 1.492188-.082031.667969-.125 30.5625 0 5.769531 4.695313 10.460938 10.46875 10.460938h25.4375c2.242188 25.5 23.71875 45.570312 49.792969 45.570312s47.550781-20.070312 49.792969-45.570312h112.527344c2.242187 25.5 23.71875 45.570312 49.792968 45.570312 26.074219 0 47.550782-20.070312 49.792969-45.570312h17.875c9.804688 0 17.78125-7.976563 17.78125-17.78125v-67.359376c0-15.117187-4.054687-29.941406-11.71875-42.863281zm-161.261719 113.003907h-75.726562c-1.589844-7.351563-4.804688-14.105469-9.246094-19.871094h84.972656zm-195.28125-19.871094h31.085938c-4.441406 5.765625-7.65625 12.519531-9.246094 19.871094h-21.839844zm70.699219 65.441406c-19.292969 0-34.988281-15.695312-34.988281-34.984375 0-19.292969 15.695312-34.988281 34.988281-34.988281 18.378907 0 33.496094 14.25 34.882813 32.277344.003906.101562.011718.203124.019531.300781.054687.796875.082031 1.597656.082031 2.410156 0 19.289063-15.691406 34.984375-34.984375 34.984375zm212.113281 0c-19.292968 0-34.988281-15.695312-34.988281-34.984375 0-19.292969 15.695313-34.988281 34.988281-34.988281 19.289063 0 34.984376 15.695312 34.984376 34.988281 0 19.289063-15.695313 34.984375-34.984376 34.984375zm67.667969-45.570312h-18.8125c-4.867187-22.496094-24.925781-39.402344-48.855469-39.402344-23.933593 0-43.992187 16.90625-48.859374 39.402344h-23.671876v-27.167969c.003907-.066407.003907-.136719.003907-.207031v-109.300782c.058593-1.480468 1.28125-2.664062 2.773437-2.664062h15.679688v43.503906c0 11.242188 9.148437 20.390625 20.394531 20.390625h7.398437c1.824219 0 3.511719.914063 4.511719 2.4375l10.636719 16.230469c3.78125 5.769531 10.15625 9.210937 17.058594 9.210937h64.523437v44.789063c0 1.53125-1.25 2.777344-2.78125 2.777344zm0 0"/><path d="m298.320312 439.5625c-12.382812 0-22.453124 10.070312-22.453124 22.453125 0 12.378906 10.070312 22.453125 22.453124 22.453125 12.378907 0 22.449219-10.074219 22.449219-22.453125 0-12.382813-10.070312-22.453125-22.449219-22.453125zm0 29.90625c-4.109374 0-7.453124-3.347656-7.453124-7.453125 0-4.109375 3.34375-7.453125 7.453124-7.453125 4.109376 0 7.449219 3.34375 7.449219 7.453125 0 4.105469-3.339843 7.453125-7.449219 7.453125zm0 0"/><path d="m86.207031 439.5625c-12.382812 0-22.453125 10.070312-22.453125 22.453125 0 12.378906 10.070313 22.453125 22.453125 22.453125 12.378907 0 22.449219-10.074219 22.449219-22.453125 0-12.382813-10.070312-22.453125-22.449219-22.453125zm0 29.90625c-4.109375 0-7.453125-3.347656-7.453125-7.453125 0-4.109375 3.34375-7.453125 7.453125-7.453125s7.449219 3.34375 7.449219 7.453125c0 4.105469-3.339844 7.453125-7.449219 7.453125zm0 0"/><path d="m66.15625 175.066406 20.132812 12.960938-2.867187 2.851562c-6.710937 6.671875-8.535156 16.75-4.8125 25.273438l-9.332031 5.386718c-3.585938 2.070313-4.816406 6.65625-2.746094 10.246094 1.390625 2.40625 3.910156 3.75 6.503906 3.75 1.269532 0 2.5625-.324218 3.742188-1.007812l9.328125-5.382813c4.328125 5.867188 11.191406 9.265625 18.355469 9.261719 1.972656 0 3.96875-.253906 5.9375-.789062l3.910156-1.058594 1.160156 23.914062c.351562 7.214844 5.8125 13.046875 13.035156 13.871094.898438.097656 1.707032.144531 2.476563.144531 9.878906 0 18.5-6.597656 21.121093-16.097656l13.445313-35.707031 4.753906-1.285156c1.785157-.484376-1.765625 1.207031 66.789063-38.269532l4.917968 13.882813-12.328124 7.121093c-7.171876 4.144532-9.636719 13.351563-5.492188 20.523438l4.84375 8.394531c2.007812 3.484375 5.25 5.976563 9.128906 7.015625 1.296875.347656 2.605469.519532 3.914063.519532 2.601562 0 5.175781-.683594 7.496093-2.023438l5.929688-3.421875 12.140625 34.300781c2.335937 6.605469 7.449219 11.785156 14.027344 14.210938 14.648437 5.40625 30.226562-4.710938 31.574219-19.996094l11.585937-131.179688 22.734375-13.125c12.601562-7.277343 23.582031-22.105468 27.328125-36.898437 2.691406-10.632813 1.570313-20.390625-3.242187-28.222656-5.960938-9.703125-17.402344-15.644531-32.214844-16.730469-12.59375-.921875-25.925782 1.882812-35.664063 7.503906l-22.085937 12.75-119.402344-55.554687c-3.09375-1.4375-6.523438-2.199219-9.921875-2.199219-4.132813 0-8.203125 1.09375-11.757813 3.152344-6.074218 3.503906-10.238281 9.476562-11.421874 16.390625-1.1875 6.910156.742187 13.925781 5.296874 19.25l23.636719 27.667969-5.929687 3.421874c-3.480469 2.003907-5.972656 5.246094-7.011719 9.125-1.042969 3.882813-.507813 7.9375 1.5 11.414063l4.851563 8.402344c2.007812 3.476562 5.253906 5.960937 9.132812 6.996093 1.292969.34375 2.605469.515626 3.90625.515626 2.609375 0 5.179688-.683594 7.496094-2.019532l12.320312-7.113281 9.570313 11.203125-65 37.527344c-.5625.324218-1.082031.722656-1.542969 1.179687l-3.644531 3.625-37.46875-6.351562c-10.402344-2.714844-21.367188 2.597656-25.664063 12.523437-.796875 1.851563-1.199218 3.804688-1.199218 5.808594 0 5.015625 2.515624 9.632812 6.726562 12.347656zm71.773438 78.390625c-.097657.261719-.183594.527344-.25.796875-.78125 3.082032-3.539063 5.234375-6.699219 5.234375-.15625 0-.34375-.007812-.542969-.023437l-1.304688-26.917969 18.566407-5.027344zm104.09375-27.898437-4.84375-8.433594 9.914062-5.726562 3.308594 9.347656zm54.980468 40.597656c-3.84375 6.007812-12.871094 4.933594-15.226562-1.71875-4.378906-12.371094-12.226563-34.546875-31.476563-88.933594l58.65625-33.863281c-11.492187 126.261719-9.855469 121.214844-11.953125 124.515625zm-132.488281-174.835938-4.839844-8.441406 8.351563-4.816406 6.433594 7.53125zm67.28125 12.554688c3.589844-2.070312 4.816406-6.65625 2.75-10.242188-2.074219-3.589843-6.660156-4.816406-10.246094-2.75l-17.136719 9.894532c-12.019531-14.0625-41.0625-48.0625-61.285156-71.730469-1.648437-1.925781-2.347656-4.464844-1.917968-6.964844.433593-2.503906 1.9375-4.667969 4.148437-5.941406 2.34375-1.355469 5.351563-1.5 7.847656-.339844l109.859375 51.113281-15.484375 8.941407c-3.589843 2.070312-4.820312 6.65625-2.75 10.246093 2.074219 3.585938 6.660157 4.8125 10.246094 2.746094l27.820313-16.0625c.109374-.058594.21875-.121094.324218-.1875l25.296875-14.601562c17.140625-9.894532 41.347657-6.085938 47.601563 4.09375 3.335937 5.429687 2.644531 12.070312 1.476562 16.6875-2.773437 10.945312-11.113281 22.289062-20.285156 27.589844l-25.800781 14.894531c-.203125.105469-.402344.21875-.597657.34375l-76.007812 43.878906c-.179688.097656-.359375.199219-.53125.308594l-71.6875 41.386719-7.40625 2.003906c-.078125.019531-.15625.042968-.234375.0625-16.296875 4.414062-34.980469 9.472656-51.316406 13.898437-2.550781.683594-5.21875.019531-7.136719-1.640625l22.496094-12.988281c3.589844-2.070313 4.816406-6.65625 2.746094-10.246094-2.070313-3.585937-6.660157-4.8125-10.246094-2.742187l-22.492188 12.984375c-.480468-2.488281.28125-5.128907 2.152344-6.992188 11.007812-10.949219 26.15625-26.023437 37.398438-37.210937.144531-.132813.285156-.273438.417968-.414063l5.480469-5.457031zm-149.164063 55.0625c.261719.074219.523438.132812.792969.175781l27.273438 4.625-13.523438 13.460938-22.664062-14.59375c1.449219-3.015625 4.890625-4.585938 8.121093-3.667969zm0 0"/><path d="m323.097656 78.476562c2.390625-1.378906 5.4375-.863281 6.683594 1.117188l.089844.152344c.597656 1.035156.753906 2.242187.445312 3.40625-.3125 1.160156-1.054687 2.128906-2.085937 2.726562-3.589844 2.070313-4.816407 6.65625-2.746094 10.242188 1.390625 2.40625 3.910156 3.753906 6.5 3.753906 1.273437 0 2.5625-.324219 3.746094-1.007812 4.503906-2.597657 7.726562-6.800782 9.074219-11.835938 1.347656-5.027344.65625-10.28125-1.992188-14.867188l-.179688-.304687c-.019531-.03125-.039062-.0625-.058593-.09375-5.46875-8.894531-17.566407-11.710937-26.976563-6.28125-3.585937 2.070313-4.816406 6.65625-2.746094 10.246094 2.070313 3.585937 6.65625 4.8125 10.246094 2.746093zm0 0"/></svg>
