<svg id="icon" height="512pt" viewBox="0 -35 512 512" width="512pt" xmlns="http://www.w3.org/2000/svg"><path d="m410.550781 184.058594v-125.042969c0-28.453125-23.0625-51.515625-51.511719-51.515625h-268.175781c-28.449219 0-51.511719 23.0625-51.511719 51.515625v125.042969l-31.851562 68.355468v157.511719c0 13.835938 11.21875 25.054688 25.054688 25.054688h384.792968c13.839844 0 25.054688-11.21875 25.054688-25.054688v-157.511719zm-85.941406-85.472656c0 15.5-12.5625 28.0625-28.058594 28.0625h-143.195312c-15.5 0-28.0625-12.5625-28.0625-28.0625v-22.523438c0-15.496094 12.5625-28.058594 28.0625-28.058594h143.195312c15.496094 0 28.058594 12.5625 28.058594 28.058594zm0 0" fill="#f9aa4b"/><path d="m410.550781 184.058594v-125.042969c0-28.453125-23.0625-51.515625-51.511719-51.515625h-26c28.449219 0 51.511719 23.0625 51.511719 51.515625v125.042969l31.851563 68.355468v157.511719c0 13.835938-11.21875 25.054688-25.054688 25.054688h26c13.835938 0 25.054688-11.21875 25.054688-25.054688v-157.511719zm0 0" fill="#c1762b"/><path d="m178.734375 176.371094c-.851563-30.941406-5.394531-63.210938-12.421875-93.605469h-69.039062c-7.027344 30.394531-11.570313 62.664063-12.417969 93.605469-19.578125 14.425781-32.285157 37.632812-32.285157 63.816406v119.621094c0 14.242187 11.546876 25.789062 25.789063 25.789062h106.867187c14.246094 0 25.792969-11.546875 25.792969-25.789062v-119.621094c0-26.183594-12.710937-49.390625-32.285156-63.816406zm0 0" fill="#ce675d"/><path d="m178.734375 176.371094c-.851563-30.941406-5.394531-63.210938-12.417969-93.605469h-25.460937c7.027343 30.394531 11.570312 62.664063 12.417969 93.605469 19.578124 14.425781 32.285156 37.632812 32.285156 63.816406v119.621094c0 14.242187-11.546875 25.789062-25.789063 25.789062h25.460938c14.242187 0 25.789062-11.546875 25.789062-25.789062v-119.621094c0-26.183594-12.707031-49.390625-32.285156-63.816406zm0 0" fill="#aa4b44"/><path d="m168.785156 43.519531h-73.984375c-9.261719 0-16.769531 7.511719-16.769531 16.773438v5.703125c0 9.261718 7.507812 16.769531 16.769531 16.769531h73.988281c9.261719 0 16.769532-7.507813 16.769532-16.769531v-5.703125c0-9.261719-7.507813-16.773438-16.773438-16.773438zm0 0" fill="#8cbafa"/><path d="m168.785156 43.519531h-25.457031c9.261719 0 16.769531 7.511719 16.769531 16.773438v5.703125c0 9.261718-7.507812 16.769531-16.769531 16.769531h25.457031c9.265625 0 16.773438-7.507813 16.773438-16.769531v-5.703125c0-9.261719-7.507813-16.773438-16.773438-16.773438zm0 0" fill="#5692d8"/><path d="m131.796875 305.132812c-21.773437 0-39.421875-17.648437-39.421875-39.421874v-25.640626c0-21.769531 17.648438-39.417968 39.421875-39.417968 21.769531 0 39.417969 17.648437 39.417969 39.417968v25.640626c0 21.773437-17.648438 39.421874-39.417969 39.421874zm0 0" fill="#e9e9ea"/><path d="m365.046875 176.371094c-.851563-30.941406-5.390625-63.210938-12.417969-93.605469h-69.039062c-7.027344 30.394531-11.570313 62.664063-12.421875 93.605469-19.574219 14.425781-32.285157 37.632812-32.285157 63.816406v119.621094c0 14.242187 11.546876 25.789062 25.792969 25.789062h106.867188c14.242187 0 25.789062-11.546875 25.789062-25.789062v-119.621094c0-26.183594-12.707031-49.390625-32.285156-63.816406zm0 0" fill="#ce675d"/><path d="m365.046875 176.371094c-.851563-30.941406-5.390625-63.210938-12.417969-93.605469h-25.460937c7.027343 30.394531 11.570312 62.664063 12.421875 93.605469 19.574218 14.425781 32.285156 37.632812 32.285156 63.816406v119.621094c0 14.242187-11.546875 25.789062-25.789062 25.789062h25.457031c14.246093 0 25.792969-11.546875 25.792969-25.789062v-119.621094c-.003907-26.183594-12.710938-49.390625-32.289063-63.816406zm0 0" fill="#aa4b44"/><path d="m355.101562 43.519531h-73.984374c-9.265626 0-16.773438 7.511719-16.773438 16.773438v5.703125c0 9.261718 7.507812 16.769531 16.773438 16.769531h73.984374c9.261719 0 16.773438-7.507813 16.773438-16.769531v-5.703125c-.003906-9.261719-7.511719-16.773438-16.773438-16.773438zm0 0" fill="#8cbafa"/><path d="m355.101562 43.519531h-25.460937c9.261719 0 16.773437 7.511719 16.773437 16.773438v5.703125c0 9.261718-7.511718 16.769531-16.773437 16.769531h25.460937c9.261719 0 16.769532-7.507813 16.769532-16.769531v-5.703125c0-9.261719-7.507813-16.773438-16.769532-16.773438zm0 0" fill="#5692d8"/><path d="m318.109375 305.132812c-21.773437 0-39.421875-17.648437-39.421875-39.421874v-25.640626c0-21.769531 17.648438-39.417968 39.421875-39.417968s39.421875 17.648437 39.421875 39.417968v25.640626c0 21.773437-17.652344 39.421874-39.421875 39.421874zm0 0" fill="#e9e9ea"/><path d="m442.402344 409.925781v-157.511719h-434.902344v157.511719c0 13.835938 11.21875 25.054688 25.054688 25.054688h384.792968c13.839844 0 25.054688-11.21875 25.054688-25.054688zm0 0" fill="#8cbafa"/><path d="m442.402344 252.414062h-26v157.511719c0 13.835938-11.21875 25.054688-25.054688 25.054688h26c.867188 0 1.71875-.046875 2.5625-.128907 2.527344-.257812 4.941406-.890624 7.191406-1.839843.75-.320313 1.480469-.671875 2.1875-1.058594 1.421876-.769531 2.757813-1.675781 3.996094-2.695313.308594-.253906.613282-.519531.910156-.789062.851563-.773438 1.644532-1.605469 2.382813-2.484375.085937-.109375.175781-.21875.265625-.324219.300781-.375.589844-.761718.875-1.152344 2.945312-4.109374 4.683594-9.140624 4.683594-14.582031zm0 0" fill="#5692d8"/><path d="m502.585938 208.503906-26.882813-39.375h-110.695313l-26.878906 39.375c-1.25 1.828125-1.917968 3.988282-1.917968 6.203125v181.167969c0 6.078125 4.929687 11.007812 11.007812 11.007812h2.378906l10.007813 23.707032c1.125 2.660156 3.734375 4.390625 6.625 4.390625h108.25c2.890625 0 5.5-1.730469 6.625-4.390625l10.007812-23.707032h2.378907c6.078124 0 11.007812-4.929687 11.007812-11.007812v-181.167969c0-2.214843-.667969-4.378906-1.914062-6.203125zm0 0" fill="#e9e9ea"/><path d="m502.582031 208.503906-26.878906-39.375h-25.789063l26.878907 39.375c1.25 1.828125 1.917969 3.988282 1.917969 6.207032v181.164062c0 6.078125-4.929688 11.007812-11.011719 11.007812h-2.378907l-10.007812 23.707032c-1.125 2.660156-3.730469 4.390625-6.621094 4.390625h25.789063c2.890625 0 5.5-1.730469 6.621093-4.390625l10.011719-23.707032h2.378907c6.078124 0 11.007812-4.929687 11.007812-11.007812v-181.167969c0-2.214843-.667969-4.378906-1.917969-6.203125zm0 0" fill="#c5c4cc"/><path d="m336.210938 214.707031v181.167969c0 6.078125 4.929687 11.007812 11.007812 11.007812h146.273438c6.078124 0 11.007812-4.929687 11.007812-11.007812v-181.167969c0-1.039062-.160156-2.0625-.445312-3.050781h-167.398438c-.285156.988281-.445312 2.011719-.445312 3.050781zm0 0" fill="#aed559"/><path d="m504.054688 211.65625h-25.78125c.285156.988281.4375 2.015625.4375 3.054688v181.164062c0 6.078125-4.929688 11.007812-11.007813 11.007812h25.789063c.378906 0 .753906-.019531 1.125-.058593 2.222656-.222657 4.246093-1.109375 5.878906-2.457031.542968-.445313 1.042968-.945313 1.492187-1.488282.222657-.273437.433594-.558594.632813-.847656 1.1875-1.757812 1.878906-3.875 1.878906-6.15625v-181.167969c0-.003906 0-.011719 0-.015625-.003906-1.035156-.160156-2.054687-.445312-3.035156zm0 0" fill="#7fab38"/><path d="m460.289062 319.238281h-79.867187c-5.613281 0-10.167969-4.550781-10.167969-10.167969v-22.664062c0-5.613281 4.554688-10.167969 10.167969-10.167969h79.867187c5.613282 0 10.167969 4.554688 10.167969 10.167969v22.664062c0 5.617188-4.554687 10.167969-10.167969 10.167969zm0 0" fill="#e9e9ea"/><path d="m380.421875 268.738281c-9.742187 0-17.667969 7.925781-17.667969 17.671875v22.660156c0 9.742188 7.925782 17.667969 17.667969 17.667969h79.867187c9.742188 0 17.667969-7.925781 17.667969-17.667969v-22.660156c0-9.746094-7.925781-17.671875-17.667969-17.671875zm82.535156 17.671875v22.660156c0 1.472657-1.199219 2.667969-2.667969 2.667969h-79.867187c-1.46875 0-2.667969-1.195312-2.667969-2.667969v-22.660156c0-1.472656 1.199219-2.671875 2.667969-2.671875h79.867187c1.46875 0 2.667969 1.199219 2.667969 2.671875zm0 0"/><path d="m504.5 259.914062c4.144531 0 7.5-3.355468 7.5-7.5v-37.707031c0-3.734375-1.113281-7.34375-3.222656-10.433593l-18.871094-27.644532h1.59375c4.144531 0 7.5-3.359375 7.5-7.5 0-4.144531-3.355469-7.5-7.5-7.5h-73.449219v-102.617187c0-32.539063-26.472656-59.011719-59.011719-59.011719h-268.179687c-32.539063 0-59.007813 26.472656-59.007813 59.011719v23.757812c0 4.144531 3.355469 7.5 7.5 7.5 4.140626 0 7.5-3.355469 7.5-7.5v-23.757812c0-24.269531 19.742188-44.011719 44.007813-44.011719h268.179687c24.269532 0 44.011719 19.742188 44.011719 44.011719v102.617187h-53.839843c-4.144532 0-7.5 3.355469-7.5 7.5 0 4.140625 3.355468 7.5 7.5 7.5h1.59375l-13.941407 20.421875c-5.882812-2.566406-12.253906-3.902343-18.753906-3.902343-25.871094 0-46.917969 21.050781-46.917969 46.921874v4.839844h-24.8125v-4.71875c0-22.6875 10.933594-44.292968 29.238282-57.785156 1.863281-1.371094 2.984374-3.519531 3.050781-5.832031.75-27.324219 4.515625-57.039063 10.921875-86.304688h57.042968c3.621094 16.546875 6.402344 33.242188 8.285157 49.710938.472656 4.117187 4.199219 7.070312 8.304687 6.601562 4.113282-.472656 7.070313-4.1875 6.597656-8.304687-1.851562-16.21875-4.550781-32.644532-8.046874-48.941406 10.152343-2.90625 17.597656-12.269532 17.597656-23.339844v-5.703125c0-13.386719-10.886719-24.273438-24.269532-24.273438h-73.984374c-5.226563 0-10.070313 1.660157-14.035157 4.480469h-84.261719c-3.964843-2.820312-8.808593-4.480469-14.03125-4.480469h-73.988281c-13.382812 0-24.269531 10.890625-24.269531 24.273438v5.703125c0 11.070312 7.449219 20.429687 17.597656 23.335937-6.027344 28.1875-9.683594 56.734375-10.652344 83.261719-20.359374 16.398438-32.40625 41.394531-32.40625 67.59375v4.722656h-25.800781l26.878907-57.683594c.464843-.992187.703124-2.074218.703124-3.167968v-71.289063c0-4.144531-3.359374-7.5-7.5-7.5-4.140624 0-7.5 3.355469-7.5 7.5v69.628907l-31.09375 66.722656c-.429687.875-.6914058 1.847656-.7460932 2.871094v.011718c-.0039063.058594-.0039063.117188-.00781255.179688v.023437c-.00390625.066407-.00390625.136719-.00390625.203125v157.511719c0 17.953125 14.601562 32.558594 32.550781 32.558594h384.800781.074219 57.054688c5.917969 0 11.230469-3.523438 13.53125-8.976563l8.15625-19.316406c8.914062-1.320312 15.402343-8.765625 15.808593-17.402344.015626-.304687.023438-.617187.023438-.910156v-113.460938c0-4.140624-3.359375-7.5-7.5-7.5-4.144531 0-7.5 3.359376-7.5 7.5v113.460938c0 1.933594-1.574219 3.507812-3.511719 3.507812h-146.269531c-1.933594 0-3.507812-1.574218-3.507812-3.507812v-176.71875h153.289062v33.257812c0 4.140626 3.355469 7.5 7.5 7.5zm-94.15625-83.285156h.207031.203125 60.988282l18.792968 27.527344h-140.359375l18.792969-27.527344zm-124.152344 63.441406c0-17.601562 14.316406-31.921874 31.917969-31.921874 3.84375 0 7.617187.6875 11.167969 2.011718-.375 1.476563-.566406 3-.566406 4.546875v30.203125h-42.519532zm-54.8125.121094v4.71875h-12.859375v-4.71875c0-26.203125-12.046875-51.199218-32.40625-67.597656-.453125-12.457031-1.5-25.351562-3.105469-38.445312h83.886719c-1.609375 13.09375-2.65625 25.992187-3.109375 38.445312-20.355468 16.398438-32.40625 41.394531-32.40625 67.597656zm-38.320312-174.195312c-.085938-4.625.253906-6.878906-.476563-10.496094h64.738281c-.722656 3.59375-.390624 5.8125-.476562 10.496094 0 11.070312 7.449219 20.433594 17.601562 23.339844-2.128906 9.925781-3.957031 19.898437-5.480468 29.8125h-88.03125c-1.523438-9.914063-3.355469-19.886719-5.480469-29.8125 10.152344-2.902344 17.605469-12.269532 17.605469-23.339844zm162.042968-14.976563c5.113282 0 9.269532 4.160157 9.269532 9.273438v5.703125c0 5.109375-4.15625 9.269531-9.269532 9.269531h-73.984374c-5.113282 0-9.269532-4.160156-9.269532-9.269531v-5.703125c0-5.113281 4.15625-9.273438 9.269532-9.273438zm-269.570312 9.273438c0-5.113281 4.15625-9.269531 9.269531-9.269531h73.984375c5.113282 0 9.273438 4.15625 9.273438 9.269531v5.703125c0 5.113281-4.160156 9.269531-9.273438 9.269531h-73.984375c-5.109375 0-9.269531-4.15625-9.269531-9.269531zm-25.460938 179.898437c0-22.6875 10.929688-44.292968 29.238282-57.785156 1.859375-1.371094 2.984375-3.519531 3.046875-5.832031.75-27.308594 4.515625-57.023438 10.914062-86.304688h57.042969c6.402344 29.265625 10.167969 58.980469 10.921875 86.304688.0625 2.3125 1.1875 4.460937 3.046875 5.832031 18.308594 13.492188 29.238281 35.097656 29.238281 57.785156v4.71875h-24.800781v-4.839844c0-12.539062-4.882812-24.324218-13.742188-33.171874-8.855468-8.867188-20.640624-13.75-33.1875-13.75-25.871093 0-46.917968 21.050781-46.917968 46.921874v4.839844h-24.800782zm39.800782 4.71875v-4.839844c0-17.601562 14.316406-31.921874 31.917968-31.921874 8.535157 0 16.554688 3.320312 22.582032 9.359374 6.027344 6.019532 9.351562 14.03125 9.351562 22.5625v4.839844zm-84.871094 165.011719v-150.011719h313.710938v136.191406c0 .007813.003906.1875.003906.230469.011718.355469.023437.621094.046875.90625.65625 8.734375 7.316406 15.714844 15.777343 16.949219l5.613282 13.289062h-317.601563c-9.679687.003907-17.550781-7.875-17.550781-17.554687zm459.273438 17.558594h-107.835938l-5.53125-13.097657h118.898438zm0 0"/></svg>
