<svg id="icon" height="512pt" viewBox="-2 0 512 512" width="512pt" xmlns="http://www.w3.org/2000/svg"><path d="m64.824219 306.207031 20.523437 175.4375c1.527344 13.03125 12.566406 22.855469 25.6875 22.855469h285.695313c13.121093 0 24.164062-9.824219 25.6875-22.855469l20.523437-175.4375zm105.863281 76.789063c0 6.777344-5.492188 12.269531-12.269531 12.269531-6.777344 0-12.269531-5.492187-12.269531-12.269531v-24.300782c0-6.777343 5.492187-12.269531 12.269531-12.269531 6.777343 0 12.269531 5.492188 12.269531 12.269531zm47.734375 79.390625c0 6.777343-5.496094 12.269531-12.269531 12.269531-6.777344 0-12.273438-5.492188-12.273438-12.269531v-24.296875c0-6.777344 5.496094-12.273438 12.273438-12.273438 6.773437 0 12.269531 5.496094 12.269531 12.273438zm47.734375-79.390625c0 6.777344-5.496094 12.269531-12.273438 12.269531-6.777343 0-12.269531-5.492187-12.269531-12.269531v-24.300782c0-6.777343 5.492188-12.269531 12.269531-12.269531 6.777344 0 12.273438 5.492188 12.273438 12.269531zm47.730469 79.390625c0 6.777343-5.492188 12.269531-12.269531 12.269531-6.777344 0-12.269532-5.492188-12.269532-12.269531v-24.296875c0-6.777344 5.492188-12.273438 12.269532-12.273438 6.777343 0 12.269531 5.496094 12.269531 12.273438zm47.734375-79.390625c0 6.777344-5.496094 12.269531-12.269532 12.269531-6.777343 0-12.273437-5.492187-12.273437-12.269531v-24.300782c0-6.777343 5.496094-12.269531 12.273437-12.269531 6.777344 0 12.269532 5.492188 12.269532 12.269531zm0 0" fill="#aed559"/><path d="m67.457031 328.707031h372.851563l2.632812-22.5h-378.117187zm0 0" fill="#7fab38"/><path d="m416.15625 306.207031-20.523438 175.4375c-1.523437 13.03125-12.566406 22.855469-25.6875 22.855469h26.785157c13.121093 0 24.164062-9.824219 25.6875-22.855469l20.523437-175.4375zm0 0" fill="#7fab38"/><path d="m38.039062 268.429688v24.113281c0 7.546875 6.117188 13.660156 13.664063 13.660156h404.359375c7.546875 0 13.664062-6.113281 13.664062-13.660156v-24.113281c0-7.546876-6.117187-13.664063-13.664062-13.664063h-404.359375c-7.546875 0-13.664063 6.117187-13.664063 13.664063zm0 0" fill="#8cbafa"/><path d="m456.0625 254.765625h-24.011719c7.546875 0 13.664063 6.117187 13.664063 13.664063v24.113281c0 7.546875-6.117188 13.660156-13.664063 13.660156h24.011719c7.546875 0 13.664062-6.113281 13.664062-13.660156v-24.113281c0-7.546876-6.117187-13.664063-13.664062-13.664063zm0 0" fill="#5692d8"/><path d="m18.492188 456.089844c5.300781 1.140625 11.011718-.894532 14.324218-5.613282l109.464844-155.957031c4.414062-6.289062 2.894531-14.96875-3.398438-19.386719-6.292968-4.417968-14.972656-2.894531-19.386718 3.394532l-109.464844 155.957031c-4.414062 6.292969-2.894531 14.972656 3.394531 19.390625 1.574219 1.101562 3.296875 1.835938 5.066407 2.214844zm0 0" fill="#575b7a"/><path d="m489.277344 456.089844c-5.304688 1.140625-11.015625-.894532-14.324219-5.613282l-109.464844-155.957031c-4.417969-6.289062-2.898437-14.96875 3.394531-19.386719 6.292969-4.417968 14.972657-2.894531 19.390626 3.394532l109.460937 155.957031c4.417969 6.292969 2.898437 14.972656-3.394531 19.390625-1.574219 1.101562-3.296875 1.835938-5.0625 2.214844zm0 0" fill="#575b7a"/><path d="m284.792969 106.167969v-94.667969c0-2.210938-1.792969-4-4-4h-53.820313c-2.207031 0-4 1.789062-4 4v94.667969c0 3.167969-2.890625 5.570312-6 4.960937-7.964844-1.566406-15.925781-3.636718-23.890625-6.214844-6.066406-1.964843-11.101562 4.964844-7.332031 10.105469l56.542969 77.15625c5.742187 7.835938 17.4375 7.835938 23.179687 0l56.542969-77.15625c3.769531-5.140625-1.265625-12.070312-7.332031-10.105469-7.964844 2.578126-15.929688 4.648438-23.890625 6.214844-3.109375.609375-6-1.792968-6-4.960937zm0 0" fill="#ed5176"/><path d="m178.1875 382.996094v-24.300782c0-10.898437-8.867188-19.769531-19.769531-19.769531-10.902344 0-19.773438 8.867188-19.773438 19.769531v24.300782c0 10.898437 8.871094 19.769531 19.773438 19.769531 10.902343 0 19.769531-8.871094 19.769531-19.769531zm-24.539062 0v-24.300782c0-2.628906 2.136718-4.769531 4.769531-4.769531 2.628906 0 4.769531 2.140625 4.769531 4.769531v24.300782c0 2.628906-2.140625 4.769531-4.769531 4.769531-2.632813 0-4.769531-2.140625-4.769531-4.769531zm0 0"/><path d="m429.621094 420.050781c-4.113282-.484375-7.839844 2.464844-8.320313 6.578125l-6.332031 54.144532c-1.082031 9.25-8.921875 16.226562-18.238281 16.226562h-285.695313c-9.3125 0-17.15625-6.976562-18.238281-16.226562l-6.339844-54.207032c-.480469-4.117187-4.222656-7.058594-8.320312-6.578125-4.113281.480469-7.058594 4.207031-6.578125 8.320313l6.34375 54.207031c1.964844 16.808594 16.210937 29.484375 33.132812 29.484375h285.695313c16.925781 0 31.167969-12.675781 33.136719-29.484375l6.332031-54.144531c.484375-4.113282-2.460938-7.839844-6.578125-8.320313zm0 0"/><path d="m273.65625 382.996094v-24.300782c0-10.898437-8.871094-19.769531-19.773438-19.769531-10.902343 0-19.769531 8.867188-19.769531 19.769531v24.300782c0 10.898437 8.867188 19.769531 19.769531 19.769531 10.902344 0 19.773438-8.871094 19.773438-19.769531zm-24.542969 0v-24.300782c0-2.628906 2.140625-4.769531 4.769531-4.769531 2.632813 0 4.773438 2.140625 4.773438 4.769531v24.300782c0 2.628906-2.140625 4.769531-4.773438 4.769531-2.628906 0-4.769531-2.140625-4.769531-4.769531zm0 0"/><path d="m225.921875 462.386719v-24.296875c0-10.902344-8.871094-19.773438-19.773437-19.773438-10.902344 0-19.769532 8.871094-19.769532 19.773438v24.296875c0 10.902343 8.867188 19.773437 19.769532 19.773437 10.902343 0 19.773437-8.871094 19.773437-19.773437zm-24.542969 0v-24.296875c0-2.628906 2.140625-4.773438 4.773438-4.773438 2.628906 0 4.769531 2.140625 4.769531 4.773438v24.296875c0 2.632812-2.140625 4.773437-4.769531 4.773437-2.632813 0-4.773438-2.140625-4.773438-4.773437zm0 0"/><path d="m369.121094 382.996094v-24.300782c0-10.898437-8.871094-19.769531-19.769532-19.769531-10.902343 0-19.773437 8.867188-19.773437 19.769531v24.300782c0 10.898437 8.871094 19.769531 19.773437 19.769531 10.898438 0 19.769532-8.871094 19.769532-19.769531zm-24.542969 0v-24.300782c0-2.628906 2.140625-4.769531 4.773437-4.769531 2.628907 0 4.769532 2.140625 4.769532 4.769531v24.300782c0 2.628906-2.140625 4.769531-4.769532 4.769531-2.632812 0-4.773437-2.140625-4.773437-4.769531zm0 0"/><path d="m321.386719 462.386719v-24.296875c0-10.902344-8.867188-19.773438-19.769531-19.773438-10.902344 0-19.773438 8.871094-19.773438 19.773438v24.296875c0 10.902343 8.871094 19.773437 19.773438 19.773437 10.902343 0 19.769531-8.871094 19.769531-19.773437zm-24.539063 0v-24.296875c0-2.628906 2.140625-4.773438 4.769532-4.773438 2.632812 0 4.769531 2.140625 4.769531 4.773438v24.296875c0 2.632812-2.136719 4.773437-4.769531 4.773437-2.628907 0-4.769532-2.140625-4.769532-4.773437zm0 0"/><path d="m503.875 430.175781-58.1875-82.902343 3.929688-33.5625h6.445312c11.667969 0 21.160156-9.5 21.160156-21.171876v-24.109374c0-11.667969-9.492187-21.160157-21.160156-21.160157h-187.179688c-4.140624 0-7.5 3.359375-7.5 7.5s3.359376 7.5 7.5 7.5h187.179688c3.398438 0 6.160156 2.761719 6.160156 6.160157v24.109374c0 3.402344-2.761718 6.171876-6.160156 6.171876h-13.152344c-.015625 0-.035156 0-.050781 0h-31.257813l-17.191406-24.492188c-3.285156-4.683594-8.199218-7.804688-13.832031-8.792969-5.640625-.984375-11.320313.28125-16.003906 3.566407-4.679688 3.289062-7.804688 8.199218-8.792969 13.835937-.976562 5.585937.257812 11.222656 3.484375 15.878906h-210.765625c3.226562-4.660156 4.464844-10.292969 3.484375-15.878906-.988281-5.636719-4.109375-10.550781-8.792969-13.835937-4.683594-3.285157-10.359375-4.554688-16-3.566407-5.632812.988281-10.546875 4.109375-13.835937 8.792969l-17.1875 24.492188h-31.242188c-.066406-.003907-.140625-.003907-.210937 0h-13.011719c-3.394531 0-6.160156-2.769532-6.160156-6.171876v-24.109374c0-3.398438 2.765625-6.160157 6.160156-6.160157h187.179687c4.144532 0 7.5-3.359375 7.5-7.5s-3.355468-7.5-7.5-7.5h-187.179687c-11.667969 0-21.160156 9.492188-21.160156 21.160157v24.109374c0 11.671876 9.492187 21.171876 21.160156 21.171876h6.449219l3.929687 33.5625-58.1875 82.902343c-3.289062 4.683594-4.554687 10.363281-3.566406 16 .984375 5.636719 4.109375 10.550781 8.789063 13.835938 2.367187 1.660156 4.988281 2.808593 7.796874 3.410156 1.511719.324219 3.027344.484375 4.527344.484375 6.886719 0 13.445313-3.324219 17.515625-9.121094l99.019531-141.074218h231.816407l99.019531 141.074218c4.070312 5.796875 10.628906 9.121094 17.515625 9.121094 1.5 0 3.015625-.160156 4.527344-.484375 2.808593-.601563 5.429687-1.75 7.792969-3.410156 4.683593-3.285157 7.808593-8.199219 8.792968-13.835938.984375-5.632812-.28125-11.316406-3.566406-16zm-69.363281-116.464843-1.769531 15.125-10.613282-15.125zm-361.257813 0h12.386719l-10.617187 15.125zm-46.578125 132.457031c-1.484375 2.117187-4.078125 3.132812-6.605469 2.589843h-.003906c-.832031-.179687-1.617187-.523437-2.328125-1.023437-1.40625-.984375-2.339843-2.457031-2.636719-4.144531-.296874-1.6875.085938-3.390625 1.070313-4.792969 21.445313-30.554687 87.347656-124.453125 109.460937-155.957031.988282-1.402344 2.457032-2.339844 4.148438-2.636719.375-.066406.746094-.097656 1.121094-.097656 1.304687 0 2.582031.402343 3.671875 1.167969 1.40625.984374 2.339843 2.457031 2.636719 4.144531.296874 1.691406-.085938 3.394531-1.066407 4.796875l-8.117187 11.558594c-.066406.089843-.128906.183593-.191406.277343zm465.988281-2.578125c-.292968 1.6875-1.230468 3.160156-2.632812 4.144531-.710938.5-1.496094.84375-2.332031 1.023437-2.53125.542969-5.125-.472656-6.609375-2.589843l-101.15625-144.121094c-.0625-.09375-.128906-.183594-.195313-.277344l-8.113281-11.558593c-.984375-1.402344-1.363281-3.105469-1.066406-4.792969s1.230468-3.160157 2.632812-4.148438c1.09375-.765625 2.367188-1.164062 3.675782-1.164062.371093 0 .746093.03125 1.121093.097656 1.6875.292969 3.160157 1.230469 4.144531 2.632813 22.128907 31.527343 87.835938 125.144531 109.464844 155.960937.984375 1.402344 1.363282 3.105469 1.066406 4.792969zm0 0"/><path d="m236.242188 196.609375c4.164062 5.683594 10.59375 8.945313 17.640624 8.945313 7.046876 0 13.476563-3.261719 17.640626-8.945313l56.542968-77.15625c3.675782-5.007813 3.699219-11.5.0625-16.53125-3.585937-4.964844-9.917968-7.035156-15.753906-5.144531-6.65625 2.15625-13.398438 3.960937-20.082031 5.386718v-91.664062c0-6.339844-5.160157-11.5-11.5-11.5h-53.816407c-6.34375 0-11.5 5.160156-11.5 11.5v91.664062c-6.683593-1.421874-13.425781-3.230468-20.082031-5.386718-5.835937-1.890625-12.167969.179687-15.753906 5.144531-3.636719 5.03125-3.613281 11.523437.0625 16.53125zm-20.710938-78.125c3.679688.726563 7.460938-.230469 10.363281-2.617187 2.910157-2.394532 4.582031-5.929688 4.582031-9.699219v-91.167969h46.816407v91.167969c0 3.769531 1.667969 7.304687 4.582031 9.699219 2.902344 2.386718 6.683594 3.339843 10.363281 2.617187 7.3125-1.4375 14.710938-3.308594 22.023438-5.574219l-54.839844 74.832032c-1.304687 1.785156-3.328125 2.808593-5.539063 2.808593-2.214843 0-4.234374-1.023437-5.542968-2.808593l-54.839844-74.832032c7.320312 2.265625 14.714844 4.140625 22.03125 5.574219zm0 0"/></svg>
