<svg id="icon" height="512pt" viewBox="0 0 512.00181 512" width="512pt" xmlns="http://www.w3.org/2000/svg"><path d="m9.28125 414.640625 68.613281-93.117187h-25.238281c-7.4375 0-11.710938-8.457032-7.300781-14.445313l73.367187-99.5625h-20.15625c-7.433594 0-11.710937-8.457031-7.296875-14.445313l81.191407-110.183593 81.191406 110.183593c4.410156 5.988282.136718 14.445313-7.300782 14.445313h-20.15625l73.367188 99.5625c4.410156 5.988281.136719 14.445313-7.300781 14.445313h-25.238281l68.617187 93.117187c4.410156 5.984375.136719 14.445313-7.300781 14.445313h-311.761719c-7.433594 0-11.707031-8.457032-7.296875-14.445313zm0 0" fill="#aed559"/><path d="m335.640625 414.640625-68.617187-93.117187h25.242187c7.433594 0 11.707031-8.457032 7.296875-14.445313l-73.363281-99.5625h20.152343c7.4375 0 11.710938-8.457031 7.300782-14.445313l-81.191406-110.179687-17 23.070313 64.191406 87.113281c4.410156 5.984375.136718 14.441406-7.300782 14.441406h-15.445312c-1.953125 0-3.074219 2.222656-1.917969 3.792969l70.574219 95.769531c4.410156 5.988281.136719 14.445313-7.300781 14.445313h-20.53125c-1.949219 0-3.074219 2.222656-1.914063 3.792968l65.820313 89.324219c4.414062 5.988281.140625 14.445313-7.296875 14.445313h34c7.4375 0 11.710937-8.457032 7.300781-14.445313zm0 0" fill="#7fab38"/><path d="m121.589844 377.65625c0 10.394531-8.421875 18.816406-18.816406 18.816406-10.390626 0-18.816407-8.421875-18.816407-18.816406 0-10.390625 8.425781-18.816406 18.816407-18.816406 10.394531 0 18.816406 8.425781 18.816406 18.816406zm0 0" fill="#ed5176"/><path d="m216.285156 260.109375c0 10.390625-8.425781 18.816406-18.816406 18.816406-10.394531 0-18.816406-8.425781-18.816406-18.816406 0-10.394531 8.421875-18.816406 18.816406-18.816406 10.390625 0 18.816406 8.421875 18.816406 18.816406zm0 0" fill="#ffcd34"/><path d="m130.515625 84.300781-20.488281-17.753906c-7.144532-6.191406-3.332032-17.921875 6.085937-18.730469l27.011719-2.320312c3.953125-.339844 7.390625-2.839844 8.933594-6.492188l10.554687-24.976562c3.679688-8.703125 16.015625-8.703125 19.695313 0l10.554687 24.976562c1.542969 3.652344 4.980469 6.152344 8.933594 6.492188l27.015625 2.320312c9.414062.808594 13.226562 12.539063 6.085938 18.730469l-20.492188 17.753906c-3 2.597657-4.3125 6.640625-3.414062 10.5l6.144531 26.410157c2.140625 9.207031-7.839844 16.457031-15.933594 11.578124l-23.222656-14.003906c-3.394531-2.046875-7.644531-2.046875-11.042969 0l-23.21875 14.003906c-8.09375 4.878907-18.074219-2.371093-15.933594-11.578124l6.144532-26.410157c.898437-3.859375-.414063-7.902343-3.414063-10.5zm0 0" fill="#ffcd34"/><path d="m159.738281 118.785156c-3.125-2.046875-7.035156-2.046875-10.15625 0l-18.933593 12.414063c3.246093 3.210937 8.460937 4.367187 13.070312 1.589843l19.46875-11.742187zm0 0" fill="#e69012"/><path d="m228.808594 47.816406-27.015625-2.320312c-3.949219-.339844-7.386719-2.835938-8.933594-6.488282l-10.550781-24.980468c-3.511719-8.304688-14.890625-8.664063-19.121094-1.117188.1875.363282.375.722656.527344 1.117188l9.710937 24.980468c1.417969 3.652344 4.582031 6.148438 8.214844 6.488282l24.851563 2.320312c8.660156.808594 12.167968 12.542969 5.597656 18.730469l-18.851563 17.753906c-2.753906 2.597657-3.964843 6.640625-3.136719 10.503907l5.648438 26.40625c.609375 2.855468.148438 5.515624-.996094 7.691406l6.445313 3.886718c8.09375 4.878907 18.074219-2.371093 15.933593-11.578124l-6.140624-26.40625c-.898438-3.863282.414062-7.90625 3.410156-10.503907l20.492187-17.753906c7.144531-6.191406 3.332031-17.921875-6.085937-18.730469zm0 0" fill="#e69012"/><path d="m201.15625 429.085938v72.03125c0 1.320312-1.066406 2.394531-2.390625 2.394531h-52.613281c-1.320313 0-2.390625-1.070313-2.390625-2.394531v-72.03125zm0 0" fill="#ce675d"/><path d="m143.761719 429.085938h57.394531v23.109374h-57.394531zm0 0" fill="#aa4b44"/><path d="m395.5625 222.34375h-27.085938c-11.980468 0-21.691406 9.710938-21.691406 21.691406v19.679688c-13.484375 5.277344-22.851562 18.769531-21.925781 34.328125 1.027344 17.261719 15.054687 31.332031 32.3125 32.40625 20.105469 1.253906 36.804687-14.683594 36.804687-34.519531 0-14.65625-9.121093-27.175782-21.992187-32.214844v-9.3125c0-3.789063 3.070313-6.863282 6.863281-6.863282h16.28125c6.710938 0 12.570313-5.0625 13.003906-11.761718.476563-7.335938-5.335937-13.433594-12.570312-13.433594zm0 0" fill="#aed559"/><path d="m402.433594 295.929688h-86.097656c-56.367188 0-102.066407 45.695312-102.066407 102.066406v3.445312c0 56.371094 45.699219 102.070313 102.066407 102.070313h86.097656c56.371094 0 102.066406-45.699219 102.066406-102.070313v-3.445312c0-56.371094-45.695312-102.066406-102.066406-102.066406zm0 0" fill="#f9aa4b"/><path d="m402.433594 295.929688h-25.039063c56.371094 0 102.066407 45.695312 102.066407 102.066406v3.445312c0 56.371094-45.695313 102.066406-102.066407 102.066406h25.039063c56.371094 0 102.066406-45.695312 102.066406-102.066406v-3.445312c0-56.371094-45.695312-102.066406-102.066406-102.066406zm0 0" fill="#c1762b"/><g fill="#252d4c"><path d="m385.371094 469.355469-24.390625-12.425781c-1-.511719-2.1875-.511719-3.1875 0l-24.390625 12.425781c-1.210938.613281-2.667969.480469-3.742188-.351563l-40.972656-31.675781c-2.894531-2.238281-.859375-6.863281 2.746094-6.238281l36.722656 6.359375c.746094.128906 1.515625.011719 2.191406-.332031l27.445313-13.960938c1-.511719 2.183593-.511719 3.183593 0l27.445313 13.960938c.675781.34375 1.445313.460937 2.191406.332031l36.722657-6.359375c3.605468-.625 5.644531 4 2.746093 6.238281l-40.96875 31.675781c-1.074219.832032-2.53125.96875-3.742187.351563zm0 0"/><path d="m394.335938 376.121094 20.863281-19.546875c4.484375-4.203125 11.582031-3.761719 15.507812.964843l16.1875 19.484376c6.015625 7.242187-3.886719 25.363281-8.992187 17.453124-11.484375-17.804687-23.375-18.144531-35.597656.082032-5.570313 8.3125-15.269532-11.59375-7.96875-18.4375zm0 0"/><path d="m324.433594 376.121094-20.859375-19.546875c-4.484375-4.203125-11.582031-3.761719-15.511719.964843l-16.183594 19.484376c-6.015625 7.242187 3.886719 25.363281 8.988282 17.453124 11.488281-17.804687 23.375-18.144531 35.597656.082032 5.574218 8.3125 15.273437-11.59375 7.96875-18.4375zm0 0"/></g><path d="m98.570312 215.015625h5.316407l-19.773438 26.828125c-2.460937 3.335938-1.746093 8.03125 1.585938 10.488281 1.339843.988281 2.898437 1.464844 4.445312 1.464844 2.300781 0 4.574219-1.058594 6.042969-3.054687l28.578125-38.777344c1.679687-2.277344 1.933594-5.308594.65625-7.832032-1.273437-2.527343-3.863281-4.117187-6.691406-4.117187h-20.160157c-.640624 0-1.113281-.289063-1.402343-.863281-.285157-.566406-.238281-1.113282.140625-1.628906l41.003906-55.648438c3.179688-.023438 6.371094-.90625 9.28125-2.664062 23.09375-13.234376 23.589844-15.769532 26.515625-14l23.21875 14c2.910156 1.757812 6.101563 2.640624 9.277344 2.667968l41.007812 55.648438c.378907.511718.425781 1.058594.136719 1.625-.289062.574218-.757812.863281-1.398438.863281h-20.152343c-.066407 0-.132813 0-.199219 0h-40.417969c-4.144531 0-7.5 3.359375-7.5 7.5 0 4.144531 3.355469 7.5 7.5 7.5h36.832031l46.398438 62.96875c1.46875 1.996094 3.742188 3.050781 6.042969 3.050781 1.546875 0 3.105469-.476562 4.441406-1.460937 3.335937-2.457031 4.046875-7.152344 1.589844-10.488281l-39.84375-54.070313h5.304687c6.289063 0 11.957032-3.488281 14.789063-9.097656 2.835937-5.609375 2.277343-12.238281-1.449219-17.292969l-39.148438-53.125c3.773438-4.328125 5.257813-10.148438 3.898438-15.984375l-6.140625-26.410156c-.269531-1.15625.121094-2.355469 1.019531-3.136719l20.492188-17.753906c5.621094-4.871094 7.6875-12.292969 5.386718-19.367188-2.296874-7.078125-8.332031-11.867187-15.742187-12.503906l-27.015625-2.320312c-1.183594-.101563-2.203125-.84375-2.667969-1.9375l-10.550781-24.976563c-2.898438-6.851563-9.316406-11.109375-16.757812-11.109375-7.441407 0-13.859376 4.257812-16.757813 11.109375l-10.550781 24.976563c-.464844 1.09375-1.484375 1.835937-2.667969 1.9375l-27.015625 2.320312c-7.414062.636719-13.445312 5.425781-15.742188 12.503906-2.300781 7.074219-.234374 14.496094 5.386719 19.367188l20.492188 17.753906c.898437.777344 1.285156 1.980469 1.019531 3.136719l-6.144531 26.40625c-1.355469 5.839843.128906 11.65625 3.898437 15.984375l-39.148437 53.125c-3.730469 5.058594-4.285157 11.683594-1.453125 17.296875 2.835937 5.609375 8.503906 9.097656 14.792968 9.097656zm16.367188-154.136719c-1.390625-1.203125-1.1875-2.644531-.945312-3.398437.246093-.75.929687-2.035157 2.761718-2.191407l27.019532-2.320312c6.742187-.578125 12.5625-4.8125 15.199218-11.042969l10.550782-24.976562c1.097656-2.589844 4.765624-2.632813 5.878906 0l10.554687 24.976562c2.632813 6.230469 8.457031 10.464844 15.199219 11.042969l27.015625 2.320312c1.832031.15625 2.515625 1.441407 2.761719 2.191407.242187.753906.445312 2.191406-.945313 3.398437l-20.496093 17.753906c-5.109376 4.433594-7.335938 11.277344-5.804688 17.871094l6.140625 26.40625c.644531 2.753906-2.324219 4.921875-4.753906 3.457032l-23.21875-14.003907c-2.894531-1.746093-6.144531-2.621093-9.394531-2.621093-3.246094 0-6.496094.875-9.390626 2.621093l-23.21875 14.003907c-2.453124 1.480468-5.398437-.6875-4.757812-3.457032l6.144531-26.40625c1.53125-6.59375-.691406-13.441406-5.808593-17.871094zm0 0"/><path d="m76.460938 377.65625c0 14.511719 11.804687 26.316406 26.316406 26.316406 14.511718 0 26.316406-11.804687 26.316406-26.316406s-11.804688-26.316406-26.316406-26.316406c-14.511719 0-26.316406 11.804687-26.316406 26.316406zm37.632812 0c0 6.238281-5.078125 11.316406-11.316406 11.316406-6.238282 0-11.316406-5.078125-11.316406-11.316406s5.078124-11.316406 11.316406-11.316406c6.238281 0 11.316406 5.078125 11.316406 11.316406zm0 0"/><path d="m171.152344 260.109375c0 14.511719 11.804687 26.3125 26.316406 26.3125s26.316406-11.804687 26.316406-26.3125c0-14.511719-11.804687-26.316406-26.316406-26.316406s-26.316406 11.804687-26.316406 26.316406zm37.632812 0c0 6.238281-5.074218 11.3125-11.316406 11.3125-6.238281 0-11.316406-5.074219-11.316406-11.3125 0-6.242187 5.078125-11.316406 11.316406-11.316406 6.242188 0 11.316406 5.074219 11.316406 11.316406zm0 0"/><path d="m485.875 326.980469c-2.683594-3.152344-7.417969-3.53125-10.574219-.84375-3.152343 2.683593-3.53125 7.417969-.84375 10.570312 14.535157 17.066407 22.542969 38.832031 22.542969 61.285157v3.449218c0 44.914063-31.472656 82.617188-73.523438 92.207032 4.867188-4.96875 9.367188-10.949219 13.402344-17.882813 2.082032-3.582031.871094-8.171875-2.710937-10.253906-3.578125-2.085938-8.171875-.871094-10.253907 2.710937-10.421874 17.914063-24.042968 27.78125-38.355468 27.78125h-52.339844c-14.3125 0-27.933594-9.867187-38.355469-27.78125-2.085937-3.582031-6.675781-4.796875-10.253906-2.710937-3.582031 2.082031-4.796875 6.671875-2.710937 10.253906 4.027343 6.921875 8.519531 12.898437 13.382812 17.863281-19.070312-4.363281-36.523438-14.585937-49.730469-29.480468-2.75-3.101563-7.488281-3.386719-10.585937-.636719-3.101563 2.746093-3.386719 7.488281-.636719 10.585937 20.792969 23.457032 50.6875 36.910156 82.011719 36.910156h86.097656c60.414062 0 109.5625-49.148437 109.5625-109.566406v-3.445312c0-26.015625-9.277344-51.238282-26.125-71.015625zm0 0"/><path d="m225.367188 427.402344c-.050782-.238282-.117188-.46875-.191407-.695313-4.238281-15.300781-3.269531-26.316406-3.402343-28.710937 0-44.898438 31.445312-82.585938 73.46875-92.195313-7.179688 7.320313-13.515626 16.820313-18.679688 28.234375-1.707031 3.777344-.03125 8.21875 3.742188 9.925782 3.773437 1.710937 8.21875.03125 9.921874-3.738282 10.425782-23.039062 26.496094-36.792968 42.992188-36.792968h52.339844c16.496094 0 32.566406 13.753906 42.988281 36.792968 1.253906 2.769532 3.984375 4.410156 6.839844 4.410156 1.03125 0 2.082031-.21875 3.085937-.671874 3.773438-1.707032 5.449219-6.148438 3.742188-9.925782-5.167969-11.417968-11.503906-20.921875-18.6875-28.242187 10.671875 2.429687 20.863281 6.707031 30.152344 12.707031 3.476562 2.25 8.121093 1.25 10.367187-2.230469 2.25-3.476562 1.25-8.121093-2.226563-10.367187-17.695312-11.433594-38.230468-17.472656-59.382812-17.472656h-1.617188c-2.230468-12.558594-10.015624-23.375-21.328124-29.488282v-3.894531h15.640624c10.796876 0 19.800782-8.25 20.492188-18.792969.355469-5.53125-1.613281-11.019531-5.394531-15.054687-3.789063-4.039063-9.132813-6.355469-14.667969-6.355469h-27.082031c-16.09375 0-29.191407 13.09375-29.191407 29.191406v14.902344c-11.308593 6.113281-19.09375 16.929688-21.328124 29.488281h-1.621094c-67.46875 0-121.109375 61.042969-107.730469 133.15625h-192.03125c-.636719 0-1.105469-.289062-1.394531-.859375-.289063-.574218-.246094-1.125.132812-1.640625l66.371094-90.058593h53.058594c4.140625 0 7.5-3.359376 7.5-7.5 0-4.144532-3.359375-7.5-7.5-7.5h-56.847656c-.027344 0-.050782 0-.078126 0h-25.160156c-.640625 0-1.109375-.289063-1.398437-.859376-.292969-.574218-.246094-1.125.132812-1.640624l26.722657-36.261719c2.457031-3.335938 1.746093-8.027344-1.589844-10.488281-3.332032-2.453126-8.027344-1.742188-10.484375 1.589843l-26.726563 36.261719c-3.726562 5.066406-4.28125 11.695312-1.445312 17.308594 2.835937 5.605468 8.503906 9.089844 14.785156 9.089844h10.398438l-59.816407 81.164062c-3.726562 5.0625-4.277343 11.691406-1.441406 17.304688 2.835937 5.609374 8.5 9.09375 14.78125 9.09375h119.6875v64.53125c0 5.453124 4.4375 9.890624 9.890625 9.890624h52.613281c5.453125 0 9.890625-4.4375 9.890625-9.890624v-64.53125h3.867188c1.222656 3.613281 2.644531 7.167968 4.257812 10.667968 1.265625 2.746094 3.976563 4.363282 6.816406 4.363282 1.046876 0 2.117188-.222657 3.132813-.691407 3.761719-1.730469 5.40625-6.1875 3.671875-9.949219-2.039062-4.421874-3.71875-8.953124-5.039062-13.574218zm124.15625-156.703125c2.875-1.125 4.765624-3.898438 4.765624-6.984375v-19.679688c0-7.824218 6.367188-14.191406 14.191407-14.191406h27.078125c1.429687 0 2.75.574219 3.730468 1.617188.972657 1.039062 1.460938 2.398437 1.367188 3.824218-.171875 2.625-2.652344 4.761719-5.523438 4.761719h-16.28125c-7.917968 0-14.359374 6.441406-14.359374 14.359375v9.308594c0 3.085937 1.890624 5.859375 4.765624 6.984375 8.050782 3.152343 13.910157 9.742187 16.183594 17.726562h-52.101562c2.273437-7.984375 8.132812-14.574219 16.183594-17.726562zm-155.863282 225.308593h-42.394531v-59.421874h42.394531zm0 0"/><path d="m441.816406 403.890625c5.0625-.453125 9.710938-4.636719 12.4375-11.191406 2.484375-5.976563 3.375-14.492188-1.589844-20.46875l-16.1875-19.484375c-3.183593-3.835938-7.867187-6.214844-12.847656-6.523438-4.972656-.296875-9.917968 1.464844-13.558594 4.878906l-20.859374 19.546876c-4.914063 4.605468-6.316407 12.195312-3.761719 20.3125 2.316406 7.355468 6.917969 12.210937 12.3125 12.988281.496093.070312.988281.105469 1.476562.105469 3.621094 0 7.019531-1.917969 9.296875-5.320313 4.363282-6.503906 8.652344-10.230469 11.785156-10.230469h.035157c3.046875.027344 7.148437 3.6875 11.246093 10.039063 2.429688 3.761719 6.152344 5.703125 10.214844 5.347656zm-21.332031-30.386719c-.054687 0-.113281 0-.171875 0-7.269531 0-14.242188 4.085938-20.773438 12.160156-.410156-1.699218-.507812-3.402343-.046874-4.09375l20.835937-19.523437c.871094-.816406 1.851563-.890625 2.367187-.855469.511719.03125 1.480469.222656 2.242188 1.140625l16.152344 19.433594c.390625.699219.222656 2.308594-.242188 3.90625-6.289062-8.015625-13.121094-12.105469-20.363281-12.167969zm0 0"/><path d="m287.171875 398.542969c4.097656-6.355469 8.195313-10.011719 11.246094-10.039063h.035156c3.128906 0 7.421875 3.726563 11.785156 10.230469 2.277344 3.402344 5.675781 5.316406 9.292969 5.316406.492188 0 .984375-.035156 1.476562-.101562 5.394532-.777344 10-5.632813 12.316407-12.988281 2.554687-8.117188 1.152343-15.710938-3.761719-20.3125l-20.859375-19.550782c-3.640625-3.410156-8.582031-5.175781-13.5625-4.875-4.976563.308594-9.660156 2.6875-12.847656 6.523438l-16.183594 19.480468c-4.964844 5.976563-4.078125 14.492188-1.589844 20.472657 2.726563 6.554687 7.375 10.738281 12.4375 11.191406 4.0625.355469 7.785157-1.585937 10.214844-5.347656zm-9.25-12.867188c-.46875-1.589843-.648437-3.1875-.273437-3.859375l16.183593-19.484375c.761719-.917969 1.734375-1.105469 2.246094-1.140625.058594-.003906.125-.003906.195313-.003906.542968 0 1.402343.136719 2.171874.855469l20.835938 19.527343c.460938.6875.363281 2.394532-.046875 4.09375-6.53125-8.074218-13.503906-12.160156-20.777344-12.160156-.054687 0-.113281 0-.167969 0-7.246093.0625-14.078124 4.152344-20.367187 12.171875zm0 0"/><path d="m284.101562 443.261719 40.96875 31.675781c1.960938 1.515625 4.347657 2.292969 6.75 2.292969 1.707032 0 3.417969-.394531 4.984376-1.195313l22.582031-11.5 22.578125 11.5c3.777344 1.925782 8.382812 1.492188 11.738281-1.097656l40.96875-31.675781c4.011719-3.101563 5.386719-8.507813 3.34375-13.148438s-6.957031-7.277343-11.957031-6.414062l-35.414063 6.132812-26.257812-13.359375c-3.128907-1.59375-6.867188-1.59375-9.992188 0l-26.261719 13.359375-35.417968-6.132812c-4.996094-.859375-9.910156 1.773437-11.953125 6.414062-2.046875 4.640625-.671875 10.046875 3.339843 13.148438zm104.675782 19.410156-.007813-.003906c.003907 0 .007813.003906.011719.003906-.003906 0-.003906 0-.003906 0zm-61.894532-17.832031c2.328126.402344 4.765626.03125 6.867188-1.035156l25.636719-13.042969 25.636719 13.042969c2.101562 1.066406 4.542968 1.4375 6.871093 1.035156l20.890625-3.617188-26.261718 20.304688-22.140626-11.28125c-3.128906-1.59375-6.863281-1.59375-9.996093 0l-22.140625 11.28125-26.261719-20.304688zm0 0"/></svg>
