<svg id="icon" height="512pt" viewBox="-57 0 511 512" width="512pt" xmlns="http://www.w3.org/2000/svg"><path d="m299.035156 26.839844v42.113281h-260.308594c-8.488281 0-16.164062-3.441406-21.71875-9.007813-5.566406-5.550781-9.007812-13.242187-9.007812-21.71875 0-16.972656 13.765625-30.726562 30.726562-30.726562h240.972657c10.679687 0 19.335937 8.660156 19.335937 19.339844zm0 0" fill="#e9e9ea"/><path d="m279.699219 7.5h-23.625c10.683593 0 19.339843 8.65625 19.339843 19.339844v42.113281h23.621094v-42.113281c0-10.683594-8.65625-19.339844-19.335937-19.339844zm0 0" fill="#c5c4cc"/><path d="m323.964844 88.292969v353.507812c0 10.679688-8.660156 19.339844-19.339844 19.339844h-265.898438c-8.488281 0-16.164062-3.441406-21.71875-9.007813-5.566406-5.554687-9.007812-13.246093-9.007812-21.722656v-392.183594c0 8.476563 3.441406 16.167969 9.007812 21.71875 5.554688 5.566407 13.234376 9.007813 21.71875 9.007813h265.898438c10.683594 0 19.339844 8.660156 19.339844 19.339844zm0 0" fill="#8cbafa"/><path d="m14.726562 68.953125h24c-8.488281 0-16.164062-3.4375-21.71875-9.003906-5.566406-5.554688-9.007812-13.246094-9.007812-21.722657v29.980469c2.164062.484375 4.414062.746094 6.726562.746094zm0 0" fill="#5692d8"/><path d="m304.625 68.953125h-24c10.683594 0 19.339844 8.660156 19.339844 19.339844v353.507812c0 10.679688-8.65625 19.339844-19.339844 19.339844h24c10.683594 0 19.339844-8.660156 19.339844-19.339844v-353.507812c0-10.679688-8.65625-19.339844-19.339844-19.339844zm0 0" fill="#5692d8"/><path d="m48.945312 68.953125h-10.21875c-8.488281 0-16.164062-3.4375-21.71875-9.003906-5.566406-5.554688-9.007812-13.246094-9.007812-21.722657v392.1875c0 8.476563 3.441406 16.164063 9.007812 21.71875 5.554688 5.566407 13.234376 9.007813 21.71875 9.007813h10.21875zm0 0" fill="#b8d8ff"/><path d="m357.222656 485.808594 13.59375-13.59375 15.875 15.871094c3.753906 3.757812 3.753906 9.84375 0 13.597656s-9.839844 3.753906-13.597656 0zm0 0" fill="#575b7a"/><path d="m359.316406 448.285156 11.046875 11.046875c3.683594 3.679688 3.683594 9.652344 0 13.332031l-12.691406 12.691407c-3.679687 3.683593-9.652344 3.683593-13.332031 0l-11.046875-11.046875zm0 0" fill="#e9e9ea"/><path d="m360.097656 432.355469-154.785156-154.785157c-6.078125-6.078124-15.929688-6.078124-22.007812 0l-20.726563 20.726563c-6.078125 6.074219-6.078125 15.929687 0 22.007813l154.785156 154.789062c4.183594 4.179688 10.964844 4.179688 15.148438 0l27.589843-27.589844c4.179688-4.183594 4.179688-10.964844-.003906-15.148437zm0 0" fill="#575b7a"/><path d="m335.234375 459.8125-157.964844-157.960938c-5.039062-5.039062-5.039062-13.210937 0-18.25l-14.691406 14.695313c-6.078125 6.078125-6.078125 15.929687 0 22.007813l154.785156 154.789062c4.183594 4.179688 10.964844 4.179688 15.148438 0l15.277343-15.28125c-3.46875 3.464844-9.089843 3.464844-12.554687 0zm0 0" fill="#252d4c"/><path d="m169.394531 263.636719 13.921875 13.921875-20.75 20.75-13.921875-13.921875c-2.117187-2.117188-2.117187-5.542969 0-7.660157l13.089844-13.089843c2.117187-2.117188 5.542969-2.117188 7.660156 0zm0 0" fill="#e9e9ea"/><path d="m202.394531 360.125 42.734375-42.734375 19.539063 19.539063-42.734375 42.734374zm0 0" fill="#f9aa4b"/><path d="m202.394531 360.121094 16.574219-16.574219 19.539062 19.539063-16.574218 16.574218zm0 0" fill="#c1762b"/><path d="m158.257812 52.320312v16.628907h28.195313v-16.628907c0-3.886718-1.574219-7.414062-4.128906-9.960937-2.546875-2.558594-6.066407-4.132813-9.964844-4.132813-7.792969 0-14.101563 6.308594-14.101563 14.09375zm0 0" fill="#ba365f"/><path d="m91.8125 52.320312v68.207032c0 2.941406 3.234375 4.738281 5.734375 3.1875l25.507813-15.863282c1.210937-.753906 2.75-.753906 3.960937 0l25.507813 15.863282c2.5 1.554687 5.734374-.246094 5.734374-3.1875v-68.207032c0-7.785156 6.308594-14.09375 14.105469-14.09375h-66.449219c-7.792968 0-14.101562 6.308594-14.101562 14.09375zm0 0" fill="#ed5176"/><path d="m255.144531 228.332031h-137.378906c-7.605469 0-13.769531-6.164062-13.769531-13.769531v-50.460938c0-7.605468 6.164062-13.769531 13.769531-13.769531h137.378906c7.605469 0 13.769531 6.164063 13.769531 13.769531v50.460938c0 7.605469-6.164062 13.769531-13.769531 13.769531zm0 0" fill="#e9e9ea"/><path d="m391.996094 482.785156-12.050782-12.050781c1.664063-5.738281.238282-12.191406-4.277343-16.707031l-6.5625-6.5625c3.042969-6.710938 1.808593-14.902344-3.703125-20.410156l-146.335938-146.339844c2.140625-1.574219 4.714844-2.429688 7.425782-2.429688 3.355468 0 6.511718 1.308594 8.882812 3.683594l46.34375 46.34375c1.464844 1.464844 3.386719 2.195312 5.304688 2.195312 1.917968 0 3.839843-.730468 5.304687-2.195312 2.929687-2.929688 2.929687-7.675781 0-10.605469l-46.347656-46.347656c-5.203125-5.203125-12.125-8.070313-19.488281-8.070313-6.792969 0-13.210938 2.4375-18.25 6.90625-6.992188-5.308593-16.347657-6.09375-24.035157-2.355468l-9.507812-9.507813c-5.035157-5.03125-13.230469-5.03125-18.265625 0l-13.09375 13.09375c-5.035156 5.035157-5.035156 13.230469 0 18.265625l9.5 9.5c-1.519532 3.109375-2.320313 6.546875-2.320313 10.109375 0 6.160157 2.398438 11.953125 6.753907 16.308594l3.398437 3.398437c2.929687 2.925782 7.675781 2.925782 10.605469 0 2.929687-2.933593 2.929687-7.679687 0-10.609374l-3.394532-3.394532c-1.523437-1.523437-2.363281-3.546875-2.363281-5.699218 0-2.15625.839844-4.179688 2.363281-5.703126l20.726563-20.726562c3.144531-3.144531 8.257813-3.144531 11.402344 0l34.515625 34.519531-32.125 32.128907-9.84375-9.84375c-2.929688-2.925782-7.675782-2.925782-10.605469 0-2.929687 2.929687-2.929687 7.679687 0 10.609374l103.351563 103.351563h-228.859376v-377.191406h27.863282v44.078125c0 4.082031 2.21875 7.851562 5.789062 9.835937 1.703125.945313 3.585938 1.414063 5.464844 1.414063 2.066406 0 4.128906-.566406 5.941406-1.695313l23.527344-14.632812 23.527344 14.632812c3.472656 2.15625 7.84375 2.265625 11.410156.28125s5.785156-5.753906 5.785156-9.835937v-44.078125h133.050782c.074218.003906.152343.003906.230468.003906s.15625 0 .230469-.003906h5.355469c6.527344 0 11.839844 5.3125 11.839844 11.839843v271.320313c0 4.144531 3.359374 7.5 7.5 7.5 4.144531 0 7.5-3.355469 7.5-7.5v-271.320313c0-14.15625-11.015626-25.785156-24.925782-26.769531v-34.679687c0-14.800782-12.039062-26.839844-26.839844-26.839844h-240.96875c-21.078124 0-38.226562 17.148438-38.226562 38.226562 0 .179688 0 .355469.003906.535157v96.570312c0 4.140625 3.355469 7.5 7.5 7.5 4.144532 0 7.5-3.359375 7.5-7.5v-66.738281c.15625.117188.3125.234375.46875.351562l.046875.035157c.097657.074219.195313.144531.292969.214843.03125.023438.058594.046876.09375.070313.074219.054687.152344.105469.226562.160156 6.410157 4.566407 14.0625 7.027344 22.09375 7.027344.078126 0 .15625 0 .234376-.003906h2.484374v377.191406h-2.722656c-6.199218 0-12.027344-2.417969-16.417968-6.816406-4.386719-4.378907-6.800782-10.207031-6.800782-16.414063v-265.082031c0-4.140625-3.355468-7.5-7.5-7.5-4.144531 0-7.5 3.359375-7.5 7.5v265.082031c0 10.21875 3.980469 19.816406 11.191406 27.019532 7.214844 7.226562 16.8125 11.210937 27.027344 11.210937h261.582032l11.753906 11.753906c3.550781 3.550781 8.214844 5.328125 12.878906 5.328125 2.574219 0 5.148438-.542968 7.535156-1.625l6.5625 6.5625c3.300782 3.300782 7.636719 4.949219 11.96875 4.949219 1.597656 0 3.191406-.222656 4.738282-.671875l12.046874 12.050781c3.234376 3.230469 7.53125 5.011719 12.105469 5.011719 4.570313 0 8.867188-1.78125 12.097657-5.011719 3.234374-3.230469 5.015624-7.53125 5.015624-12.101562 0-4.574219-1.78125-8.871094-5.011718-12.101563zm-226.433594-212.371094 7.148438 7.144532-5.074219 5.070312-5.070313 5.074219-7.144531-7.144531zm-34.582031-168.929687c-1.835938-1.140625-3.890625-1.710937-5.945313-1.710937-2.054687 0-4.109375.570312-5.941406 1.707031l-19.78125 12.300781v-44.625c0-.066406.003906-.136719.003906-.207031 0-.070313-.003906-.136719-.003906-.207031v-16.421876c0-3.636718 2.960938-6.59375 6.601562-6.59375h45.875c-.085937.261719-.164062.523438-.238281.785157v.003906c-1.539062 5.515625-.363281 9.167969-.792969 22.226563-.003906.070312-.003906.140624-.003906.207031 0 .070312 0 .140625.003906.207031v44.625zm46.050781-53.808594c1.238281 1.234375 1.921875 2.882813 1.921875 4.644531v9.128907h-13.195313v-9.128907c0-3.636718 2.960938-6.59375 6.601563-6.59375 1.761719 0 3.414063.683594 4.671875 1.949219zm-138.304688-32.675781h240.972657c6.527343 0 11.839843 5.3125 11.839843 11.839844v34.609375h-97.582031v-9.128907c0-5.78125-2.253906-11.203124-6.316406-15.253906-4.074219-4.085937-9.496094-6.339844-15.277344-6.339844h-66.445312c-11.914063 0-21.605469 9.6875-21.605469 21.59375v9.128907h-45.589844c-12.875 0-23.21875-10.441407-23.21875-23.21875 0-.066407 0-.132813-.003906-.199219.109375-12.71875 10.484375-23.03125 23.226562-23.03125zm206.40625 312.996094 8.933594 8.933594-32.128906 32.128906-8.933594-8.929688zm77.535157 141.792968-13.847657-13.847656c-.066406-.070312-.136718-.140625-.207031-.207031l-76.070312-76.070313 32.128906-32.128906 90.125 90.125c1.25 1.25 1.25 3.289063 0 4.539063l-.746094.746093c-.011719.011719-.023437.023438-.035156.035157l-26.808594 26.808593c-1.25 1.25-3.289062 1.25-4.539062 0zm21.230469 4.523438 15.421874-15.421875 5.742188 5.746094c.738281.738281.75 1.933593.039062 2.6875l-12.730468 12.730469c-.753906.75-1.976563.75-2.726563 0zm35.996093 22.6875c-1.699219 0-1.703125-1.25-12.066406-11.191406l2.988281-2.988282c9.78125 10.195313 11.191406 10.359376 11.191406 12.066407 0 1.160156-.929687 2.113281-2.113281 2.113281zm0 0"/><path d="m117.765625 142.832031c-11.730469 0-21.269531 9.542969-21.269531 21.269531v50.464844c0 11.726563 9.539062 21.269532 21.269531 21.269532h137.378906c11.730469 0 21.269531-9.542969 21.269531-21.269532v-50.464844c0-11.726562-9.539062-21.269531-21.269531-21.269531zm143.648437 21.269531v50.464844c0 3.453125-2.8125 6.269532-6.269531 6.269532h-137.378906c-3.457031 0-6.269531-2.816407-6.269531-6.269532v-50.464844c0-3.457031 2.8125-6.269531 6.269531-6.269531h137.378906c3.457031 0 6.269531 2.8125 6.269531 6.269531zm0 0"/></svg>
