<svg id="icon" height="511pt" viewBox="-63 1 511 511.999" width="511pt" xmlns="http://www.w3.org/2000/svg"><g fill-rule="evenodd"><path d="m10.78125 36.691406v423.910156h301.21875c0-296.539062 0-215.867187 0-423.910156 0-14.648437-11.949219-26.605468-26.582031-26.605468h-62.019531v22.355468c0 10.003906-8.152344 18.164063-18.144532 18.164063h-87.726562c-9.992188 0-18.144532-8.164063-18.144532-18.164063v-22.355468h-62.019531c-14.636719 0-26.582031 11.957031-26.582031 26.605468zm0 0" fill="#bdd9ff"/><path d="m312 460.601562h-301.21875v14.707032c0 14.621094 11.945312 26.605468 26.582031 26.605468h248.054688c14.632812 0 26.578125-11.984374 26.578125-26.605468v-14.707032zm0 0" fill="#b3b0b5"/><path d="m117.527344 50.605469h87.722656c9.992188 0 18.148438-8.160157 18.148438-18.164063v-22.355468h-124.015626v22.355468c0 10.003906 8.152344 18.164063 18.144532 18.164063zm0 0" fill="#b3b0b5"/><path d="m361.875 123.769531-134.148438 26.777344c-6.90625 1.359375-12.539062 8.527344-12.539062 15.925781v32.273438c0 7.398437 5.632812 12.328125 12.539062 10.9375l134.148438-26.746094c5.832031-1.164062 10.785156-6.492188 12.144531-12.582031.253907-1.105469.394531-2.238281.394531-3.371094v-32.277344c0-7.394531-5.632812-12.324219-12.539062-10.9375zm0 0" fill="#ffd89e"/><path d="m215.1875 346.152344c0-19.070313-18.144531-33.550782-40.507812-32.359375-22.363282 1.1875-40.480469 17.625-40.480469 36.667969 0 19.066406 18.117187 33.546874 40.480469 32.359374 22.363281-1.191406 40.507812-17.628906 40.507812-36.667968zm0 0" fill="#ffc15a"/><path d="m293.429688 281.601562c0 19.042969 18.117187 33.523438 40.476562 32.332032 22.390625-1.191406 40.507812-17.597656 40.507812-36.667969 0-1.613281-.140624-3.199219-.394531-4.757813-2.71875-16.632812-19.644531-28.675781-40.109375-27.570312-22.363281 1.1875-40.480468 17.59375-40.480468 36.664062zm0 0" fill="#ffc15a"/></g><path d="m376.890625 117.945312c-4.660156-3.816406-10.851563-5.296874-16.988281-4.066406l-37.820313 7.550782v-84.738282c0-20.230468-16.449219-36.691406-36.664062-36.691406h-248.054688c-20.21875 0-36.664062 16.460938-36.664062 36.691406v154.460938c0 5.570312 4.511719 10.085937 10.082031 10.085937s10.085938-4.515625 10.085938-10.085937v-154.460938c0-9.109375 7.398437-16.523437 16.496093-16.523437h51.9375v12.273437c0 15.574219 12.660157 28.246094 28.226563 28.246094h87.722656c15.566406 0 28.230469-12.671875 28.230469-28.246094v-12.273437h51.9375c9.097656 0 16.496093 7.414062 16.496093 16.523437v88.761719l-76.136718 15.199219c-11.59375 2.285156-20.675782 13.625-20.675782 25.820312v144.863282c-8.835937-5.480469-19.691406-8.214844-30.957031-7.613282-27.585937 1.46875-50.027343 22.433594-50.027343 46.738282 0 10.988281 4.539062 21.347656 12.785156 29.167968 9.03125 8.5625 21.738281 13.34375 35.253906 13.34375 1.015625 0 2.035156-.027344 3.058594-.082031 27.601562-1.46875 50.058594-22.4375 50.058594-46.738281v-126.160156c.0625 0 .125.007812.191406.007812 1.402344 0 2.820312-.140625 4.234375-.425781l72.214843-14.398438v41.199219c-11.316406 8.691406-18.570312 21.417969-18.570312 35.226562 0 10.976563 4.539062 21.324219 12.78125 29.140626 1.789062 1.699218 3.730469 3.242187 5.789062 4.632812v135.144531h-281.046874v-169.398437c0-5.570313-4.515626-10.085938-10.085938-10.085938s-10.082031 4.515625-10.082031 10.085938v194.1875c0 20.230468 16.445312 36.691406 36.664062 36.691406h248.054688c20.214843 0 36.664062-16.460938 36.664062-36.691406v-152.003906c3.03125.507812 6.140625.78125 9.300781.78125 1.015626 0 2.035157-.027344 3.058594-.082032 27.601563-1.46875 50.058594-22.433594 50.058594-46.738281 0-.050781-.003906-.101563-.003906-.152344 0-.027343.003906-.050781.003906-.078125v-142.328125c0-6.691406-2.773438-12.804687-7.609375-16.761719zm-163.578125-85.503906c0 4.457032-3.613281 8.078125-8.058594 8.078125h-87.726562c-4.445313 0-8.058594-3.625-8.058594-8.078125v-12.273437h103.84375zm72.105469 459.390625h-248.054688c-9.097656 0-16.5-7.414062-16.5-16.523437v-4.621094h281.050781v4.621094c0 9.109375-7.398437 16.523437-16.496093 16.523437zm-111.273438-119.085937c-9.140625.492187-17.652343-2.339844-23.363281-7.753906-2.964844-2.808594-6.496094-7.613282-6.496094-14.53125 0-13.527344 14.164063-25.707032 30.929688-26.597657.675781-.035156 1.351562-.054687 2.019531-.054687 8.375 0 16.082031 2.800781 21.375 7.824218 2.964844 2.808594 6.496094 7.609376 6.496094 14.519532 0 13.523437-14.179688 25.703125-30.960938 26.59375zm51.597657-172.949219c-.125.027344-.21875.035156-.28125.039063-.082032-.167969-.1875-.519532-.1875-1.089844v-32.273438c0-2.78125 2.421874-5.640625 4.402343-6.03125.007813 0 .015625-.003906.027344-.003906l134.160156-26.78125c.125-.023438.214844-.035156.28125-.035156.078125.164062.1875.519531.1875 1.085937v32.273438c0 2.789062-2.441406 5.664062-4.425781 6.066406l-49.910156 9.949219c-.019532.003906-.035156.007812-.050782.011718zm96.339843 1.355469 41.78125-8.328125c.160157-.035157.3125-.085938.46875-.121094v49.746094c-8.839843-5.472657-19.699219-8.195313-30.972656-7.585938-3.878906.207031-7.648437.8125-11.277344 1.746094zm11.289063 102.710937c-9.132813.492188-17.65625-2.34375-23.371094-7.757812-2.960938-2.808594-6.488281-7.601563-6.488281-14.503907 0-8.355468 5.121093-16.03125 12.960937-20.980468.484375-.238282.941406-.511719 1.375-.824219 4.800782-2.726563 10.492188-4.46875 16.597656-4.792969h.011719c.691407-.039062 1.378907-.058594 2.0625-.058594 8.355469 0 16.035157 2.789063 21.3125 7.789063 2.964844 2.808594 6.5 7.609375 6.5 14.53125 0 13.757813-13.886719 25.691406-30.960937 26.597656zm0 0"/><path d="m10.582031 246.234375c5.570313 0 10.085938-4.515625 10.085938-10.082031v-.199219c0-5.570313-4.515625-10.085937-10.085938-10.085937-5.566406 0-10.082031 4.515624-10.082031 10.085937v.195313c0 5.570312 4.515625 10.085937 10.082031 10.085937zm0 0"/></svg>
