<svg id="icon" height="511pt" viewBox="0 -55 511.99869 511" width="511pt" xmlns="http://www.w3.org/2000/svg"><g fill-rule="evenodd"><path d="m123.855469 168.613281-86.300781-23.097656-18.09375 67.488281 85.925781 22.980469c.753906-23.269531 6.921875-46.398437 18.46875-67.371094zm0 0" fill="#d675a7"/><path d="m37.554688 145.515625 86.300781 23.097656c5.089843-9.300781 11.257812-18.128906 18.472656-26.382812 2.269531-2.613281 4.625-5.140625 7.09375-7.609375.207031-.203125.410156-.40625.640625-.640625 1.773438-1.742188 3.609375-3.457031 5.441406-5.113281l-77.722656-20.800782-28.15625-7.554687zm0 0" fill="#f9f9f9"/><path d="m388.144531 168.613281 86.273438-23.097656 18.09375 67.488281-85.894531 22.980469c-.785157-23.269531-6.953126-46.398437-18.472657-67.371094zm0 0" fill="#d675a7"/><path d="m474.417969 145.515625-86.273438 23.097656c-5.121093-9.269531-11.285156-18.128906-18.46875-26.382812-2.269531-2.613281-4.65625-5.140625-7.128906-7.609375-.203125-.203125-.40625-.40625-.609375-.609375-1.804688-1.773438-3.609375-3.488281-5.46875-5.144531l77.75-20.800782 28.128906-7.523437zm0 0" fill="#f9f9f9"/><path d="m180.636719 165.792969c41.621093-41.574219 109.078125-41.574219 150.699219 0 41.625 41.574219 41.625 108.945312 0 150.519531-41.621094 41.574219-109.078126 41.574219-150.699219 0-41.625-41.570312-41.625-108.945312 0-150.519531zm181.039062-32.042969c.027344.027344.058594.058594.085938.085938-.027344-.027344-.058594-.058594-.085938-.085938zm0 0c-1.714843-1.6875-3.433593-3.3125-5.207031-4.882812 1.71875 1.539062 3.375 3.109374 5.03125 4.738281.058594.027343.117188.085937.175781.144531zm-206.171875-4.882812h.027344c-1.804688 1.597656-3.578125 3.253906-5.324219 4.96875-.058593.058593-.113281.113281-.144531.144531 1.773438-1.742188 3.609375-3.457031 5.441406-5.113281zm232.640625 39.746093c-3.023437-5.492187-6.429687-10.867187-10.210937-16.039062-2.589844-3.542969-5.351563-7-8.257813-10.34375-2.269531-2.613281-4.65625-5.140625-7.128906-7.609375l-.609375-.609375c-.085938-.089844-.175781-.175781-.261719-.265625-.058593-.054688-.117187-.113282-.175781-.144532-1.628906-1.625-3.316406-3.195312-5.03125-4.734374-57.101562-51.101563-143.867188-51.101563-200.96875 0-1.800781 1.597656-3.546875 3.253906-5.292969 4.96875-.058593.058593-.117187.113281-.144531.144531l-.640625.636719c-2.472656 2.46875-4.828125 4.996093-7.097656 7.613281-7.210938 8.25-13.378907 17.082031-18.46875 26.378906-11.546875 20.976563-17.6875 44.101563-18.46875 67.371094-1.371094 40.210937 13.320312 80.824219 44.035156 111.503906 7.15625 7.148437 14.835937 13.421875 22.921875 18.828125 50.46875 33.699219 116.816406 33.699219 167.285156 0 8.085938-5.402344 15.761719-11.679688 22.917969-18.828125 30.71875-30.679687 45.40625-71.292969 44.070313-111.503906h-.03125c-.753907-23.265625-6.921876-46.394531-18.441407-67.367188zm0 0" fill="#d675a7"/><path d="m331.335938 165.792969c-41.625-41.574219-109.078126-41.574219-150.703126 0s-41.625 108.945312 0 150.519531 109.078126 41.574219 150.703126 0c41.625-41.570312 41.625-108.945312 0-150.519531zm-108.03125 72.078125 20.769531-46.21875h40.753906l-15.15625 37.070312 21.378906 14.671875-50.929687 58.773438 2.355468-47.996094zm0 0" fill="#f9f9f9"/><path d="m284.824219 191.648438h-40.75l-20.769531 46.222656 19.167968 16.300781-2.351562 47.992187 50.929687-58.773437-21.378906-14.671875zm0 0" fill="#ffc15a"/><path d="m77.78125 60.683594 49.59375 7.667968c11.632812 1.800782 22.601562-6.21875 24.40625-17.839843 1.800781-11.589844-6.226562-22.542969-17.859375-24.34375l-99.21875-15.339844c-11.605469-1.800781-22.601563 6.21875-24.375 17.808594-1.804687 11.621093 6.222656 22.574219 17.828125 24.375zm0 0" fill="#ffc15a"/><path d="m360.191406 50.511719c1.804688 11.621093 12.800782 19.640625 24.40625 17.839843l49.621094-7.667968 49.59375-7.671875c11.605469-1.800781 19.664062-12.753907 17.859375-24.375-1.800781-11.589844-12.765625-19.609375-24.402344-17.808594l-99.21875 15.339844c-11.605469 1.800781-19.632812 12.753906-17.859375 24.34375zm0 0" fill="#ffc15a"/></g><path d="m301.332031 133.679688c-5.125-2.164063-11.03125.238281-13.191406 5.367187-2.160156 5.121094.242187 11.03125 5.367187 13.191406 11.492188 4.84375 21.824219 11.800781 30.710938 20.679688 18.226562 18.207031 28.265625 42.402343 28.265625 68.136719 0 25.730468-10.039063 49.929687-28.265625 68.132812-37.625 37.578125-98.84375 37.578125-136.46875 0-18.226562-18.203125-28.261719-42.402344-28.261719-68.132812 0-25.734376 10.035157-49.929688 28.261719-68.136719 8.503906-8.492188 18.355469-15.234375 29.285156-20.042969 5.089844-2.242188 7.402344-8.183594 5.160156-13.273438-2.238281-5.09375-8.179687-7.402343-13.273437-5.164062-13.21875 5.820312-25.132813 13.972656-35.40625 24.230469-22.035156 22.011719-34.171875 51.269531-34.171875 82.386719 0 31.117187 12.136719 60.375 34.171875 82.386718 22.738281 22.707032 52.601563 34.0625 82.46875 34.0625s59.730469-11.355468 82.46875-34.0625c22.035156-22.011718 34.171875-51.269531 34.171875-82.386718 0-31.117188-12.136719-60.375-34.171875-82.386719-10.734375-10.722657-23.222656-19.128907-37.121094-24.988281zm0 0"/><path d="m216.785156 245.546875 15.386719 13.082031-2.113281 43.042969c-.207032 4.289063 2.324218 8.242187 6.3125 9.839844 1.214844.488281 2.488281.726562 3.746094.726562 2.863281 0 5.660156-1.222656 7.613281-3.476562l50.933593-58.773438c1.878907-2.167969 2.742188-5.03125 2.375-7.878906-.363281-2.84375-1.921874-5.398437-4.289062-7.019531l-14.683594-10.078125 12.082032-29.550781c1.269531-3.105469.910156-6.640626-.960938-9.425782s-5.003906-4.457031-8.359375-4.457031h-40.753906c-3.964844 0-7.558594 2.328125-9.183594 5.945313l-20.769531 46.222656c-1.835938 4.085937-.75 8.894531 2.664062 11.800781zm33.804688-43.828125h19.238281l-9.476563 23.191406c-1.792968 4.386719-.285156 9.429688 3.621094 12.113282l12.085938 8.292968-24.449219 28.214844.925781-18.867188c.152344-3.125-1.152344-6.140624-3.535156-8.167968l-13.40625-11.398438zm0 0"/><path d="m485.359375 62.964844c17.140625-2.660156 28.921875-18.753906 26.265625-35.875-2.664062-17.109375-18.761719-28.867188-35.894531-26.214844l-99.21875 15.339844h-.003907c-17.105468 2.65625-28.890624 18.722656-26.269531 35.84375 2.40625 15.503906 15.828125 26.621094 31.054688 26.621094 1.597656 0 3.214843-.125 4.839843-.375l38.015626-5.878907v27.910157l-65.152344 17.429687c-59.433594-49.621094-146.585938-49.625-206.019532-.007813l-65.125-17.4375v-27.890624l37.980469 5.871093c1.625.253907 3.238281.375 4.835938.375 15.230469 0 28.65625-11.117187 31.0625-26.617187 1.285156-8.269532-.746094-16.5625-5.722657-23.347656-4.96875-6.777344-12.269531-11.214844-20.550781-12.496094l-99.210937-15.339844c-8.292969-1.285156-16.601563.75-23.402344 5.734375-6.777344 4.96875-11.207031 12.25-12.46875 20.484375-1.285156 8.277344.746094 16.574219 5.710938 23.363281 4.964843 6.78125 12.257812 11.222657 20.535156 12.507813l41.089844 6.351562v25.613282l-15.480469-4.144532c-5.371094-1.4375-10.890625 1.75-12.332031 7.121094l-12.042969 44.917969c-.007813.03125-.019531.058593-.03125.085937-.007813.03125-.007813.0625-.015625.089844l-18.074219 67.394531c-.691406 2.582031-.332031 5.332031 1.003906 7.644531 1.335938 2.316407 3.539063 4.003907 6.121094 4.691407l30.316406 8.109375v131.296875l-23.226562 23.199219c-3.9375 3.929687-3.9375 10.304687-.007813 14.242187 1.964844 1.96875 4.546875 2.953125 7.125 2.953125 2.574219 0 5.148438-.980469 7.117188-2.945312l19.0625-19.039063 19.058594 19.039063c1.96875 1.964843 4.542968 2.945312 7.117187 2.945312 2.578125 0 5.160156-.984375 7.125-2.953125 3.929687-3.9375 3.925781-10.3125-.007813-14.242187l-23.226562-23.199219v-125.910157l27.9375 7.472657c.671875 41.910156 17.316406 81.210937 47.054688 110.914062 4.65625 4.648438 9.527343 8.941407 14.585937 12.902344l-17.84375 17.820313c-3.933594 3.929687-3.9375 10.304687-.007813 14.242187 1.96875 1.96875 4.546876 2.953125 7.125 2.953125 2.574219 0 5.152344-.980469 7.117188-2.945312l20.519531-20.492188c25.226563 14.984375 53.699219 22.480469 82.183594 22.476562 28.476563-.003906 56.957031-7.5 82.183594-22.480468l20.519531 20.496094c1.964844 1.964843 4.542969 2.945312 7.117188 2.945312 2.578124 0 5.15625-.984375 7.125-2.953125 3.929687-3.9375 3.925781-10.3125-.007813-14.242187l-17.84375-17.824219c5.054687-3.957031 9.929687-8.25 14.585937-12.898438 29.738282-29.703125 46.378907-69.003906 47.054688-110.914062l27.933594-7.472657v125.910157l-23.222656 23.199219c-3.9375 3.929687-3.941407 10.304687-.007813 14.242187 1.964844 1.96875 4.542969 2.953125 7.125 2.953125 2.574219 0 5.148437-.980469 7.117187-2.945312l19.058594-19.039063 19.0625 19.039063c1.964844 1.964843 4.542969 2.945312 7.117188 2.945312 2.578125 0 5.15625-.984375 7.125-2.953125 3.929687-3.9375 3.925781-10.3125-.007813-14.242187l-23.226562-23.199219v-131.296875l30.316406-8.105469c2.582031-.691406 4.78125-2.378906 6.121094-4.695313 1.335937-2.3125 1.695312-5.0625 1.003906-7.644531l-18.054687-67.3125c-.015626-.058593-.019532-.113281-.035157-.171875-.015625-.054687-.039062-.109375-.054687-.164062l-12.019532-44.8125c-1.4375-5.371094-6.957031-8.558594-12.328124-7.121094l-15.453126 4.136719v-25.636719zm-463.019531-24.40625c-1.789063-2.445313-2.519532-5.417969-2.058594-8.398438.449219-2.925781 2.035156-5.519531 4.46875-7.304687 1.976562-1.449219 4.296875-2.210938 6.679688-2.210938.578124 0 1.15625.046875 1.734374.136719l99.21875 15.339844c2.972657.457031 5.59375 2.058594 7.386719 4.503906 1.785157 2.433594 2.519531 5.394531 2.058594 8.34375-.953125 6.152344-6.753906 10.378906-12.914063 9.429688l-99.210937-15.339844c-2.957031-.457032-5.574219-2.054688-7.363281-4.5zm34.40625 74.285156 17.945312 4.804688c.316406.101562.632813.1875.960938.257812l60.417968 16.175781c-.003906.007813-.007812.011719-.007812.019531-6.402344 7.140626-12.097656 14.769532-17.054688 22.789063l-69.113281-18.5zm-24.949219 93.035156 12.878906-48.03125 64.625 17.292969c-6.804687 15.105469-11.234375 31.25-13.082031 47.964844zm323.632813 134.484375c-54.832032 54.765625-144.054688 54.765625-198.886719 0-26.554688-26.523437-41.179688-61.792969-41.179688-99.308593 0-.722657.015625-1.441407.027344-2.160157.234375-.839843.285156-1.707031.0625-2.578125 0 0-.003906-.003906-.003906-.003906.730469-22.101562 6.550781-43.3125 16.894531-62.289062.246094-.386719.472656-.785157.664062-1.207032 6.28125-11.253906 14.160157-21.710937 23.535157-31.070312 27.414062-27.386719 63.429687-41.078125 99.445312-41.078125 36.011719 0 72.027344 13.691406 99.441407 41.078125 9.375 9.359375 17.253906 19.8125 23.535156 31.066406.195312.425781.421875.828125.667968 1.21875 11.085938 20.332031 16.976563 43.222656 16.976563 67.019531 0 37.519531-14.621094 72.789063-41.179687 99.3125zm111.859374-182.515625 12.882813 48.03125-64.417969 17.226563c-1.847656-16.714844-6.269531-32.859375-13.078125-47.964844zm-5.214843-19.453125-69.109375 18.492188c-4.953125-8.007813-10.640625-15.625-17.035156-22.761719-.003907-.011719-.007813-.023438-.015626-.035156l79.3125-21.21875zm-79.023438-79.996093c-6.15625.953124-11.949219-3.273438-12.902343-9.410157-.941407-6.140625 3.292968-11.914062 9.441406-12.867187l99.21875-15.339844c6.167968-.960938 11.960937 3.261719 12.914062 9.398438.953125 6.144531-3.285156 11.921874-9.445312 12.878906zm0 0"/><path d="m255.796875 144.691406h.203125c5.5625 0 10.074219-4.507812 10.074219-10.070312s-4.511719-10.074219-10.074219-10.074219h-.203125c-5.5625 0-10.070313 4.511719-10.070313 10.074219s4.507813 10.070312 10.070313 10.070312zm0 0"/></svg>
