<svg id="icon" height="512pt" viewBox="-7 0 511 512" width="512pt" xmlns="http://www.w3.org/2000/svg"><g fill-rule="evenodd"><path d="m154.0625 283.769531 104.304688-104.390625c4.558593-4.5625 4.558593-11.984375 0-16.546875l-10.164063-10.175781-33.945313-33.972656-10.167968-10.171875c-4.527344-4.535157-11.976563-4.535157-16.503906 0l-104.304688 104.390625c-10.875 10.878906-12.941406 27.371094-6.171875 40.378906 1.554687 3.03125 3.621094 5.894531 6.171875 8.414062l22.027344 22.074219c2.546875 2.550781 5.378906 4.589844 8.410156 6.175781 12.992188 6.746094 29.472656 4.703126 40.34375-6.175781zm0 0" fill="#60a4ff"/><path d="m105.308594 283.769531-22.027344-22.074219c-2.550781-2.519531-4.617188-5.382812-6.171875-8.414062l-19.453125 19.464844c-5.238281 5.214844-5.238281 13.800781 0 19.015625l17.613281 17.625c5.238281 5.242187 13.789063 5.242187 19.027344 0l19.421875-19.441407c-3.03125-1.585937-5.863281-3.625-8.410156-6.175781zm0 0" fill="#cee3ff"/><path d="m214.257812 118.683594 33.945313 33.972656 39.5-39.527344-33.949219-33.972656zm0 0" fill="#ffd89e"/><path d="m253.753906 79.15625 33.949219 33.972656 39.496094-39.527344-33.945313-33.949218zm0 0" fill="#ffc15a"/><path d="m293.253906 39.652344 33.945313 33.949218 22.511719-22.527343c9.339843-9.351563 9.339843-24.625 0-33.976563-9.316407-9.351562-24.605469-9.351562-33.921876 0zm0 0" fill="#ffd89e"/></g><path d="m130.589844 246.503906c2.582031 0 5.164062-.984375 7.132812-2.957031l75.484375-75.542969c3.9375-3.941406 3.933594-10.324218-.003906-14.261718-3.941406-3.9375-10.324219-3.9375-14.261719.003906l-75.484375 75.542968c-3.933593 3.941407-3.933593 10.328126.007813 14.265626 1.96875 1.964843 4.546875 2.949218 7.125 2.949218zm0 0"/><path d="m495.542969 270.515625c-3.9375-3.9375-10.324219-3.9375-14.261719.003906l-210.402344 210.542969c-6.921875 6.941406-16.1875 10.761719-26.089844 10.765625-.003906 0-.007812 0-.015624 0-9.90625 0-19.1875-3.824219-26.128907-10.769531-14.398437-14.410156-14.394531-37.878906-.003906-52.304688l62.207031-62.226562 94.058594-94.132813c22.265625-22.28125 22.265625-58.535156 0-80.820312-10.75-10.757813-25.09375-16.683594-40.386719-16.683594s-29.636719 5.925781-40.386719 16.683594l-210.425781 210.597656c-6.941406 6.945313-16.21875 10.769531-26.121093 10.769531-9.90625 0-19.179688-3.824218-26.121094-10.769531-14.410156-14.421875-14.410156-37.886719-.003906-52.304687l35.011718-35.011719 1.660156 1.660156c4.4375 4.441406 10.347657 6.886719 16.644532 6.886719s12.210937-2.445313 16.648437-6.886719l14.6875-14.703125c4.410157 1.402344 8.996094 2.117188 13.582031 2.117188 11.410157 0 22.820313-4.34375 31.5-13.03125l104.304688-104.390626c8.488281-8.492187 8.488281-22.3125 0-30.804687l-3.039062-3.046875 32.367187-32.394531c.003906 0 .003906 0 .007813-.003907l39.496093-39.527343 22.507813-22.527344c13.289062-13.296875 13.289062-34.933594.011718-48.222656-6.410156-6.433594-14.972656-9.980469-24.105468-9.980469-9.128906 0-17.691406 3.546875-24.089844 9.96875l-22.539062 22.558594-39.492188 39.496094h-.003906l-32.363282 32.390624-3.03125-3.03125c-4.097656-4.101562-9.5625-6.359374-15.386718-6.359374-5.828125 0-11.292969 2.257812-15.386719 6.359374l-19.167969 19.183594c-3.9375 3.9375-3.933594 10.324219.003906 14.261719s10.324219 3.933594 14.261719-.007813l19.167969-19.179687c.367188-.371094.8125-.445313 1.121094-.445313s.753906.074219 1.121094.445313l54.277343 54.320313c.621094.617187.621094 1.667968 0 2.289062l-104.308593 104.390625c-7.699219 7.707031-19.328126 9.160156-28.523438 4.375-.019531-.011719-.042969-.019531-.0625-.03125-2.125-1.113281-4.117188-2.558594-5.898438-4.339844l-22.039062-22.085937c-1.71875-1.714844-3.144531-3.648438-4.261719-5.738282-.054687-.113281-.109375-.222656-.167969-.332031-1.746093-3.40625-2.675781-7.214843-2.675781-11.179687 0-6.550782 2.523438-12.6875 7.113281-17.28125l27.097657-27.117188c3.933593-3.9375 3.933593-10.324218-.007813-14.261718-3.9375-3.9375-10.324218-3.933594-14.261718.003906l-27.09375 27.121094c-8.394532 8.398437-13.015626 19.597656-13.015626 31.535156 0 4.6875.722657 9.257812 2.097657 13.59375l-14.6875 14.695312c-4.449219 4.429688-6.898438 10.34375-6.898438 16.65625 0 6.308594 2.449219 12.226563 6.878907 16.632813l1.695312 1.699219-35.019531 35.023437c-22.265625 22.28125-22.265625 58.535156 0 80.816406 10.75 10.761719 25.09375 16.6875 40.386719 16.6875 15.292968 0 29.636718-5.925781 40.386718-16.6875l210.425782-210.59375c6.941406-6.945312 16.214843-10.773437 26.121093-10.773437 9.902344 0 19.179688 3.828125 26.121094 10.773437 14.410156 14.421875 14.410156 37.886719 0 52.304688l-94.054687 94.132812-62.214844 62.230469c-22.242188 22.296875-22.238282 58.550781.007812 80.8125 10.75 10.761719 25.097656 16.6875 40.394532 16.6875h.023437c15.296875-.007812 29.628906-5.933594 40.355469-16.6875l210.394531-210.535156c3.9375-3.9375 3.9375-10.324219-.003906-14.261719zm-207.839844-171.652344-1.25-1.25-18.441406-18.457031 25.242187-25.242188 19.6875 19.691407zm35.230469-74.648437c2.597656-2.609375 6.085937-4.042969 9.816406-4.042969s7.214844 1.433594 9.824219 4.054687c5.433593 5.4375 5.433593 14.28125 0 19.71875l-15.378907 15.390626-19.683593-19.683594zm-69.179688 69.207031 8.855469 8.863281 10.839844 10.84375-25.242188 25.261719-9.746093-9.753906-9.945313-9.953125zm-188.964844 186.453125 11.203126-11.210938c.050781.050782.097656.105469.148437.15625l22.039063 22.085938c.054687.054688.109374.105469.164062.15625l-11.183594 11.195312c-.847656.847657-1.855468.972657-2.378906.972657-.527344 0-1.535156-.125-2.382812-.972657l-17.628907-17.644531c-.832031-.832031-.957031-1.835937-.957031-2.359375 0-.527344.125-1.53125.976562-2.378906zm0 0"/><path d="m140.585938 165.632812c2.582031 0 5.160156-.984374 7.128906-2.953124l.113281-.113282c3.9375-3.9375 3.9375-10.324218 0-14.261718s-10.320313-3.9375-14.261719 0l-.113281.113281c-3.9375 3.9375-3.9375 10.324219 0 14.261719 1.972656 1.96875 4.550781 2.953124 7.132813 2.953124zm0 0"/></svg>
