<svg id="icon" height="512pt" viewBox="-35 0 512 512" width="512pt" xmlns="http://www.w3.org/2000/svg"><g fill-rule="evenodd"><path d="m327.421875 415.640625h-226.46875c-11.226563 0-20.382813 9.152344-20.382813 20.375v45.539063c0 11.191406 9.15625 20.375 20.382813 20.375h239.113281c11.226563 0 20.382813-9.183594 20.382813-20.375v-45.539063c0-11.222656-9.15625-20.375-20.382813-20.375zm0 0" fill="#f6838d"/><path d="m117.648438 415.640625h209.773437v-98.839844c38.242187-29.246093 62.28125-51.945312 62.28125-107.742187v-42.675782c0-26.355468-7.539063-44.460937-20.808594-52.285156-4.789062-2.832031-10.316406-4.304687-16.496093-4.363281h-112.371094c-27.042969 0-42.011719 14.792969-44.929688 31.171875v27.34375c0 21.765625-19.535156 39.589844-43.429687 39.589844-23.898438 0-43.457031-17.824219-43.457031-39.585938v-12.101562c0 18.503906-15.167969 33.695312-33.707032 33.695312-18.539062 0-33.703125-15.164062-33.703125-33.695312v67.898437c0 56.984375 25.085938 79.457031 64.773438 109.636719 13.523437 10.316406 12.074219 6.09375 12.074219 22.925781zm0 0" fill="#ffd4be"/><path d="m108.210938 168.253906c0 21.761719 19.558593 39.585938 43.457031 39.585938 23.894531 0 43.429687-17.824219 43.429687-39.585938v-15.472656c-.683594-3.941406-.683594-7.964844 0-11.875v-91.246094c0-21.765625-19.535156-39.589844-43.429687-39.589844-23.898438 0-43.457031 17.796876-43.457031 39.589844zm0 0" fill="#ffbf9e"/><path d="m74.503906 189.847656c18.539063 0 33.707032-15.191406 33.707032-33.695312v-79.460938c0-18.53125-15.167969-33.691406-33.707032-33.691406-18.539062 0-33.703125 15.160156-33.703125 33.691406v79.460938c0 18.53125 15.164063 33.695312 33.703125 33.695312zm0 0" fill="#ffbf9e"/><path d="m195.097656 53.511719v87.394531c2.917969-16.378906 17.886719-31.171875 44.929688-31.171875h41.984375v-56.222656c0-23.886719-19.5625-43.441407-43.457031-43.441407-23.898438 0-43.457032 19.554688-43.457032 43.441407zm0 0" fill="#ffbf9e"/><path d="m282.011719 53.511719v56.222656h70.386719c6.179687.058594 11.707031 1.53125 16.496093 4.363281v-60.585937c0-23.886719-19.558593-43.441407-43.457031-43.441407-23.894531 0-43.425781 19.554688-43.425781 43.441407zm0 0" fill="#ffbf9e"/><path d="m80.570312 481.554688v-45.539063c0-4.25 1.304688-8.191406 3.542969-11.476563l-74.042969 36.78125 73.648438 31.058594c-2.015625-3.144531-3.148438-6.859375-3.148438-10.824218zm0 0" fill="#b3b0b5"/><path d="m360.449219 436.015625v45.539063c0 3.964843-1.136719 7.679687-3.148438 10.824218l73.648438-31.058594-74.046875-36.78125c2.242187 3.285157 3.546875 7.226563 3.546875 11.476563zm0 0" fill="#b3b0b5"/></g><path d="m163.289062 448.699219h-.367187c-5.5625 0-10.070313 4.507812-10.070313 10.070312s4.507813 10.070313 10.070313 10.070313h.367187c5.5625 0 10.070313-4.507813 10.070313-10.070313s-4.507813-10.070312-10.070313-10.070312zm0 0"/><path d="m220.890625 448.699219h-.367187c-5.5625 0-10.070313 4.507812-10.070313 10.070312s4.507813 10.070313 10.070313 10.070313h.367187c5.5625 0 10.070313-4.507813 10.070313-10.070313s-4.507813-10.070312-10.070313-10.070312zm0 0"/><path d="m278.46875 448.332031h-.371094c-5.5625 0-10.070312 4.507813-10.070312 10.070313s4.507812 10.070312 10.070312 10.070312h.371094c5.558594 0 10.070312-4.507812 10.070312-10.070312s-4.511718-10.070313-10.070312-10.070313zm0 0"/><path d="m435.429688 452.300781-71.96875-35.75c-5.589844-6.707031-14.003907-10.980469-23.394532-10.980469h-2.574218v-83.808593c13.488281-10.4375 24.488281-19.769531 33.625-30.125 3.679687-4.171875 3.28125-10.535157-.886719-14.214844-4.175781-3.679687-10.539063-3.28125-14.214844.890625-8.933594 10.121094-20.332031 19.503906-34.707031 30.480469-2.492188 1.90625-3.957032 4.867187-3.957032 8.003906v88.769531h-189.628906v-48.953125c0-1.621093.011719-3.039062.023438-4.296875.117187-12.078125-.875-15.636718-10.914063-22.847656-1.460937-1.050781-3.113281-2.238281-5.164062-3.800781-37.695313-28.664063-60.796875-48.910157-60.796875-101.621094v-31.089844c6.820312 4.394531 14.933594 6.957031 23.632812 6.957031 10.949219 0 20.964844-4.050781 28.648438-10.714843 8.53125 16.9375 27.066406 28.710937 48.515625 28.710937 24.054687 0 44.445312-14.816406 51.15625-35.132812 9.109375 6.855468 21.546875 11.242187 37.203125 11.242187h49.097656c9.496094 0 14.617188 7.191407 14.617188 13.960938v7.316406c-39.5 4.15625-72.433594 32.519531-81.921876 71.816406-1.308593 5.410157 2.015626 10.847657 7.425782 12.15625.792968.191407 1.585937.28125 2.371094.28125 4.542968 0 8.667968-3.097656 9.78125-7.707031 8.09375-33.523438 37.871093-56.933594 72.417968-56.933594 5.558594 0 10.070313-4.507812 10.070313-10.070312v-16.859375c0-16.761719-13.003907-34.101563-34.761719-34.101563h-49.097656c-21.394532 0-32.441406-10.410156-34.863282-22.035156v-10.011719c2.421876-11.621093 13.46875-22.027343 34.863282-22.027343h41.976562.007813.003906 70.308594c24.644531.179687 27.304687 32.632812 27.304687 46.578124v40.039063c0 5.5625 4.511719 10.070313 10.070313 10.070313 5.5625 0 10.074219-4.507813 10.074219-10.070313v-40.039063c0-19.792968-3.902344-35.703124-11.597657-47.285156-2.675781-4.03125-5.765625-7.453125-9.210937-10.253906v-55.332031c.003906-29.503907-24.011719-53.511719-53.527344-53.511719-17.867188 0-33.707031 8.816406-43.429688 22.320312-9.726562-13.503906-25.574218-22.320312-43.453124-22.320312-17.515626 0-33.089844 8.453125-42.863282 21.492188-9.660156-12.972657-25.789062-21.492188-44.023437-21.492188-26.136719 0-47.945313 17.472656-52.597657 40.488281-7.011718-4.769531-15.46875-7.558593-24.566406-7.558593-24.140625 0-43.777344 19.632812-43.777344 43.765624v147.355469c0 60.824219 27.222657 86.074219 68.738282 117.644531 2.265625 1.730469 4.121094 3.0625 5.617187 4.136719.882813.632813 1.84375 1.324219 2.519531 1.839844.039063 1.097656.019532 2.796875.003907 4.457031-.011719 1.308594-.027344 2.792969-.027344 4.484375v48.957031h-6.625c-9.394531 0-17.804687 4.277344-23.394531 10.980469l-71.96875 35.75c-3.523438 1.75-5.707032 5.398438-5.58593775 9.332031.12109375 3.933594 2.52734375 7.4375 6.15234375 8.96875l71.027344 29.953126c5.585937 6.96875 14.164062 11.445312 23.769531 11.445312h239.113281c9.609375 0 18.183594-4.476562 23.769532-11.449219l71.023437-29.949219c3.628906-1.53125 6.03125-5.035156 6.15625-8.96875.121094-3.9375-2.0625-7.582031-5.585937-9.332031zm-109.992188-432.15625c18.410156 0 33.386719 14.96875 33.386719 33.367188v46.640625c-2.085938-.296875-4.222657-.472656-6.425781-.488282h-60.316407v-46.152343c0-18.398438 14.960938-33.367188 33.355469-33.367188zm-86.882812 0c18.40625 0 33.382812 14.96875 33.382812 33.367188v46.152343h-31.910156c-14.355469 0-26 3.691407-34.863282 9.585938v-55.738281c.003907-18.398438 14.980469-33.367188 33.390626-33.367188zm-120.273438 29.515625c0-16.277344 14.976562-29.519531 33.386719-29.519531 18.394531 0 33.355469 13.242187 33.355469 29.519531v90.523438c-.339844 2.207031-.511719 4.429687-.511719 6.652344 0 2.222656.171875 4.445312.511719 6.652343v14.761719c0 16.277344-14.960938 29.519531-33.355469 29.519531-18.410157 0-33.386719-13.242187-33.386719-29.519531zm-67.410156 27.035156c0-13.027343 10.601562-23.625 23.632812-23.625s23.636719 10.597657 23.636719 23.625v79.457032c0 13.027344-10.605469 23.621094-23.636719 23.621094s-23.632812-10.597657-23.632812-23.621094zm19.628906 365.851563v33.328125l-36.285156-15.300781zm30.453125 49.308594c-3.546875 0-6.679687-1.796875-8.535156-4.53125-.109375-.191407-.222657-.378907-.347657-.5625-.902343-1.53125-1.425781-3.308594-1.425781-5.207031v-45.539063c0-5.683594 4.625-10.304687 10.308594-10.304687h239.113281c5.683594 0 10.308594 4.621093 10.308594 10.304687v45.539063c0 1.898437-.527344 3.675781-1.429688 5.207031-.121093.183593-.234374.371093-.34375.5625-1.855468 2.734375-4.988281 4.53125-8.535156 4.53125zm269.566406-15.980469v-33.328125l36.285157 18.027344zm0 0"/><path d="m375.34375 243.941406-.085938.199219c-2.191406 5.113281.179688 11.03125 5.289063 13.222656 1.296875.558594 2.640625.816407 3.964844.816407 3.90625 0 7.625-2.285157 9.261719-6.105469l.082031-.195313c2.191406-5.113281-.175781-11.035156-5.289063-13.226562-5.117187-2.191406-11.03125.175781-13.222656 5.289062zm0 0"/></svg>
