<svg id="icon" height="511pt" viewBox="0 -31 511.99986 511" width="511pt" xmlns="http://www.w3.org/2000/svg"><g fill-rule="evenodd"><path d="m103.601562 110.832031-33.792968-19.484375-27.425782-15.828125-27.457031-15.851562c-10.558593 18.300781-3.574219 53.164062 14.054688 81.464843-11.492188 39.820313-2.675781 75.949219 18.300781 100.671876-16.300781 46.4375 10.503906 84.285156 31.003906 92.875 19.148438 11.039062 52.097656 12.472656 75.75 5.882812 1.070313-.28125 19.628906-4.449219 20.640625-4.757812l5.492188-72.597657-58.066407-69.921875 87.042969-21.542968-60.601562-34.972657-11.347657-6.535156-33.421874-19.289063zm0 0" fill="#bdd9ff"/><path d="m389.925781 193.285156-58.09375 69.921875 5.492188 72.597657c1.042969.3125 19.597656 4.476562 20.667969 4.761718 23.625 6.585938 56.574218 5.152344 75.722656-5.886718 20.527344-8.589844 47.335937-46.4375 31.003906-92.871094 20.976562-24.726563 29.792969-60.855469 18.304688-100.675782 7.121093-11.402343 12.5-23.90625 15.683593-35.960937v-42.210937c-.480469-1.15625-1.015625-2.253907-1.632812-3.292969l-40.804688 23.570312-14.078125 8.109375-33.792968 19.484375-.167969.113281-33.425781 19.292969-24.722657 14.273438-47.195312 27.234375zm0 0" fill="#bdd9ff"/><path d="m236.625 213.113281 19.375-32.386719 19.375 32.382813 36.015625 8.898437-24.019531 28.921876 2.84375 37.875-34.214844-14.5-34.214844 14.5 2.84375-37.875-23.992187-28.917969zm95.207031 50.09375 58.09375-69.921875-87.042969-21.542968-46.882812-78.285157-46.855469 78.285157-87.042969 21.542968 58.066407 69.921875-5.492188 72.597657-1.4375 18.980468 82.761719-35.058594 82.761719 35.058594-1.4375-18.980468zm0 0" fill="#ffc15a"/><path d="m256 180.726562-19.375 32.386719-35.988281 8.894531 23.992187 28.921876-2.84375 37.875 34.214844-14.5 34.214844 14.5-2.84375-37.875 24.019531-28.921876-36.015625-8.894531zm0 0" fill="#ffd89e"/></g><path d="m408.238281 120.886719c1.894531 0 3.808594-.539063 5.503907-1.667969l.171874-.113281c4.566407-3.046875 5.800782-9.21875 2.753907-13.785157-3.042969-4.570312-9.214844-5.804687-13.785157-2.757812l-.167968.113281c-4.566406 3.042969-5.800782 9.21875-2.757813 13.785157 1.917969 2.871093 5.070313 4.425781 8.28125 4.425781zm0 0"/><path d="m290.210938 298.746094c-1.3125 0-2.628907-.261719-3.875-.789063l-30.335938-12.855469-30.335938 12.855469c-3.191406 1.351563-6.859374.945313-9.675781-1.074219-2.816406-2.023437-4.375-5.363281-4.117187-8.820312l2.542968-33.875-21.425781-25.832031c-2.1875-2.632813-2.863281-6.203125-1.792969-9.453125 1.070313-3.25 3.734376-5.722656 7.054688-6.542969l31.96875-7.902344 17.25-28.832031c1.792969-3 5.03125-4.835938 8.53125-4.835938 3.496094 0 6.734375 1.835938 8.527344 4.835938l17.25 28.828125 31.992187 7.90625c3.324219.820313 5.992188 3.292969 7.058594 6.542969 1.070313 3.253906.390625 6.824218-1.792969 9.457031l-21.453125 25.832031 2.542969 33.871094c.257812 3.457031-1.300781 6.796875-4.121094 8.820312-1.710937 1.230469-3.746094 1.863282-5.792968 1.863282zm-71.804688-70.890625 13.875 16.726562c1.644531 1.984375 2.453125 4.527344 2.261719 7.09375l-1.625 21.613281 19.203125-8.136718c2.480468-1.050782 5.277344-1.050782 7.757812 0l19.203125 8.136718-1.625-21.613281c-.191406-2.570312.621094-5.113281 2.265625-7.097656l13.890625-16.722656-20.621093-5.09375c-2.574219-.636719-4.789063-2.273438-6.148438-4.546875l-10.84375-18.125-10.84375 18.125c-1.359375 2.273437-3.570312 3.910156-6.144531 4.546875zm0 0"/><path d="m505.679688 54.695312c-1.316407-2.28125-3.488282-3.949218-6.035157-4.628906-2.546875-.6875-5.257812-.328125-7.542969.988282l-54.882812 31.683593c-4.753906 2.746094-6.382812 8.824219-3.636719 13.578125 2.742188 4.757813 8.824219 6.386719 13.578125 3.640625l44.441406-25.65625c1.515626 9.96875-.308593 23.355469-5.34375 37.457031-10.234374 28.648438-30.371093 52.269532-51.296874 60.175782-5.136719 1.941406-7.726563 7.675781-5.789063 12.8125 1.503906 3.980468 5.285156 6.429687 9.300781 6.429687 1.167969 0 2.355469-.207031 3.511719-.644531 13.835937-5.226562 25.742187-14.464844 35.578125-25.457031 2.632812 26.488281-4.425781 50.996093-19.378906 69.25-.722656.628906-1.34375 1.355469-1.847656 2.152343-8.464844 9.636719-19.21875 17.394532-32.003907 22.554688-5.089843 2.050781-7.550781 7.84375-5.496093 12.9375 1.5625 3.871094 5.285156 6.222656 9.21875 6.222656 1.238281 0 2.5-.234375 3.71875-.726562 10.023437-4.042969 19.226562-9.578125 27.402343-16.332032 4.273438 32.90625-14.769531 58.296876-29.300781 64.375-.386719.164063-.761719.347657-1.125.558594-15.675781 9.035156-45.582031 11.199219-68.085938 4.921875-.046874-.011719-.09375-.027343-.136718-.039062-.542969-.140625-2.175782-.515625-8.367188-1.925781-1.652344-.375-3.609375-.820313-5.472656-1.246094l-4.640625-61.3125 55.523437-66.828125c2.1875-2.632813 2.867188-6.203125 1.800782-9.457031-1.070313-3.25-3.734375-5.722657-7.054688-6.542969l-63.09375-15.617188 50.550782-29.175781c4.753906-2.742188 6.386718-8.824219 3.640624-13.578125-2.742187-4.757813-8.824218-6.386719-13.578124-3.640625l-63.449219 36.617188-41.859375-69.894532c-1.796875-2.996094-5.035156-4.832031-8.53125-4.832031-3.492188 0-6.730469 1.835937-8.527344 4.835937l-41.832031 69.890626-63.476563-36.621094c-4.753906-2.742188-10.832031-1.113282-13.578125 3.644531-2.742187 4.757813-1.109375 10.835937 3.644531 13.578125l50.574219 29.175781-63.089843 15.613281c-3.320313.824219-5.984376 3.296876-7.054688 6.546876-1.066406 3.25-.386719 6.820312 1.796875 9.453124l55.496094 66.832032-4.636719 61.316406c-1.953125.449219-4.015625.917969-5.742188 1.308594-5.964843 1.359375-7.539062 1.71875-8.070312 1.859375-.042969.011719-.089844.023437-.132812.039062-22.523438 6.273438-52.445313 4.113281-68.117188-4.921875-.363281-.210937-.738281-.398437-1.125-.558594-14.515625-6.082031-33.546875-31.46875-29.292969-64.367187 8.171875 6.746094 17.371094 12.28125 27.394531 16.324219 1.21875.492187 2.476563.726562 3.714844.726562 3.933594 0 7.660156-2.351562 9.222656-6.226562 2.054688-5.089844-.40625-10.882813-5.5-12.9375-37.257812-15.035156-57.402343-52.023438-53.222656-93.964844 9.839844 10.996094 21.757813 20.238281 35.601563 25.46875 1.15625.4375 2.34375.644531 3.507812.644531 4.019531 0 7.800781-2.453125 9.304688-6.433593 1.9375-5.136719-.652344-10.871094-5.789063-12.8125-20.941406-7.90625-41.085937-31.527344-51.320312-60.175782-5.039063-14.101562-6.863282-27.484375-5.347656-37.453125l44.441406 25.652344c4.753906 2.746094 10.832031 1.117187 13.578125-3.636719 2.746093-4.757812 1.117187-10.835937-3.636719-13.582031l-54.882812-31.679687c-2.285157-1.316407-5-1.671876-7.542969-.988282-2.550781.679688-4.71875 2.347656-6.039063 4.628906-8.660156 15.011719-8.40625 38.246094.707032 63.75 2.773437 7.761719 6.542968 16.035157 11.257812 24.164063-7.386719 28.746094-5.351562 56.792969 5.972656 81.363281 3.28125 7.117188 7.304688 13.753906 11.949219 19.855469-13.949219 47.890625 12.546875 88.789063 37.648437 99.765625 13.589844 7.648438 31.609376 10.855469 48.984376 10.855469 12.136718 0 23.957031-1.566407 33.734374-4.273438.714844-.171875 4.097657-.941406 7.171876-1.640625l-.417969 5.5c-.257813 3.457032 1.300781 6.800782 4.117187 8.824219 2.8125 2.023437 6.480469 2.433594 9.675782 1.082031l78.882812-33.421875 78.882812 33.417969c1.246094.527344 2.5625.789062 3.875.789062 2.050782 0 4.082032-.632812 5.800782-1.867187 2.816406-2.023437 4.375-5.367187 4.113281-8.824219l-.417969-5.507812c3.183594.722656 6.59375 1.5 7.175782 1.640625 9.773437 2.714843 21.597656 4.28125 33.742187 4.28125 17.367187 0 35.382813-3.207031 48.972656-10.855469 25.121094-10.972656 51.632813-51.867188 37.652344-99.765625 4.644531-6.105469 8.667969-12.738281 11.945313-19.855469 11.324218-24.566406 13.363281-52.609375 5.976562-81.355468 4.714844-8.132813 8.484375-16.40625 11.261719-24.171876 9.109375-25.503906 9.363281-48.742187.699219-63.75zm-181.492188 202.160157c-1.648438 1.984375-2.460938 4.53125-2.265625 7.101562l5.695313 75.3125-67.738282-28.695312c-2.480468-1.050781-5.277344-1.050781-7.757812 0l-67.738282 28.695312 5.695313-75.3125c.195313-2.570312-.617187-5.113281-2.265625-7.097656l-47.9375-57.730469 71.65625-17.734375c2.570312-.636719 4.78125-2.273437 6.140625-4.546875l38.332031-64.039062 38.355469 64.042968c1.359375 2.269532 3.566406 3.90625 6.136719 4.542969l71.652344 17.734375zm0 0"/><path d="m103.761719 120.886719c-1.894531 0-3.8125-.539063-5.507813-1.667969l-.167968-.113281c-4.566407-3.046875-5.800782-9.21875-2.757813-13.785157 3.046875-4.570312 9.21875-5.804687 13.785156-2.757812l.171875.113281c4.566406 3.042969 5.800782 9.21875 2.753906 13.785157-1.914062 2.871093-5.066406 4.425781-8.277343 4.425781zm0 0"/><path d="m467.863281 435.59375-21.597656-37.425781c-2.652344-4.601563-8.417969-6.265625-13.097656-3.886719-.15625.070312-.316407.148438-.480469.246094l-13.382812 7.726562-16.628907-28.8125c-2.746093-4.753906-8.824219-6.386718-13.578125-3.640625-4.757812 2.742188-6.386718 8.824219-3.640625 13.578125l21.597657 37.425782v.003906c1.84375 3.1875 5.183593 4.96875 8.617187 4.96875 1.6875 0 3.398437-.429688 4.960937-1.332032l13.382813-7.730468 16.628906 28.816406c1.839844 3.1875 5.183594 4.972656 8.617188 4.972656 1.6875 0 3.394531-.429687 4.960937-1.332031 4.753906-2.746094 6.386719-8.824219 3.640625-13.578125zm0 0"/><path d="m381.574219 1.832031c-4.757813-2.746093-10.835938-1.113281-13.578125 3.640625l-17.164063 29.742188-13.917969-8.039063c-4.707031-2.714843-10.710937-1.140625-13.492187 3.507813-.027344.046875-.058594.085937-.085937.136718l-22.132813 38.351563c-2.746094 4.753906-1.117187 10.835937 3.640625 13.578125 1.566406.90625 3.273438 1.332031 4.957031 1.332031 3.4375 0 6.78125-1.78125 8.621094-4.972656l17.164063-29.742187 13.914062 8.039062c1.566406.902344 3.277344 1.332031 4.964844 1.332031 3.195312 0 6.292968-1.558593 8.195312-4.34375.140625-.183593.28125-.386719.421875-.628906l22.132813-38.355469c2.746094-4.753906 1.113281-10.832031-3.640625-13.578125zm0 0"/><path d="m201.984375 69.171875-22.132813-38.351563c-.140624-.238281-.269531-.4375-.402343-.621093-2.898438-4.269531-8.640625-5.640625-13.179688-3.019531l-13.917969 8.035156-17.164062-29.738282c-2.742188-4.757812-8.820312-6.386718-13.578125-3.644531-4.753906 2.746094-6.382813 8.824219-3.640625 13.578125l22.132812 38.355469c.128907.226563.261719.417969.394532.589844 1.898437 2.808593 5.011718 4.382812 8.222656 4.382812 1.6875 0 3.398438-.429687 4.964844-1.332031l13.917968-8.039062 17.160157 29.742187c1.84375 3.191406 5.183593 4.972656 8.621093 4.972656 1.683594 0 3.394532-.425781 4.957032-1.332031 4.757812-2.742188 6.386718-8.824219 3.644531-13.578125zm0 0"/><path d="m116.539062 369.800781c-4.753906-2.746093-10.835937-1.113281-13.578124 3.640625l-16.628907 28.8125-13.382812-7.726562c-.164063-.09375-.316407-.171875-.464844-.238282-4.679687-2.386718-10.460937-.722656-13.117187 3.878907l-21.597657 37.425781c-2.742187 4.753906-1.113281 10.832031 3.640625 13.578125 1.566406.902344 3.277344 1.332031 4.960938 1.332031 3.4375 0 6.777344-1.785156 8.621094-4.972656l16.625-28.8125 13.382812 7.726562c1.566406.90625 3.277344 1.335938 4.960938 1.335938 3.160156 0 6.226562-1.527344 8.132812-4.25.152344-.191406.3125-.417969.488281-.726562l21.597657-37.425782c2.742187-4.753906 1.113281-10.835937-3.640626-13.578125zm0 0"/></svg>
