<svg id="icon" height="512pt" viewBox="0 -48 512 512" width="512pt" xmlns="http://www.w3.org/2000/svg"><g fill-rule="evenodd"><path d="m10.085938 170.449219v218.734375c0 9.203125 7.535156 16.730468 16.71875 16.730468h113.511718c9.210938 0 16.75-7.527343 16.75-16.730468v-218.734375c0-9.199219-7.539062-16.730469-16.75-16.730469h-113.511718c-9.183594 0-16.71875 7.53125-16.71875 16.730469zm0 0" fill="#d675a7"/><path d="m157.066406 170.449219v212.933593c0 12.398438 10.113282 22.53125 22.527344 22.53125h152.816406c12.382813 0 22.527344-10.132812 22.527344-22.53125v-293.582031c0-12.371093-10.144531-22.503906-22.527344-22.503906h-152.816406c-12.414062 0-22.527344 10.132813-22.527344 22.503906zm0 0" fill="#d7d6d8"/><path d="m354.9375 170.449219v218.734375c0 9.199218 7.535156 16.730468 16.714844 16.730468h113.515625c9.210937 0 16.746093-7.53125 16.746093-16.730468v-218.734375c0-9.199219-7.535156-16.730469-16.746093-16.730469h-113.515625c-9.179688 0-16.714844 7.53125-16.714844 16.730469zm0 0" fill="#d675a7"/><path d="m426.625 303.722656c-14.960938 0-27.089844 12.117188-27.089844 27.0625 0 14.945313 12.128906 27.0625 27.089844 27.0625s27.089844-12.117187 27.089844-27.0625c0-14.945312-12.125-27.0625-27.089844-27.0625zm0 0" fill="#d7d6d8"/><path d="m399.535156 229.839844c0 14.945312 12.128906 27.0625 27.089844 27.0625s27.089844-12.117188 27.089844-27.0625c0-14.945313-12.128906-27.0625-27.089844-27.0625s-27.089844 12.117187-27.089844 27.0625zm0 0" fill="#d7d6d8"/><path d="m255.984375 251.664062c33.238281 0 60.214844-26.917968 60.214844-60.125 0-33.203124-26.976563-60.125-60.214844-60.125s-60.183594 26.921876-60.183594 60.125c0 33.207032 26.945313 60.125 60.183594 60.125zm22.332031-60.125c0 12.3125-10.003906 22.308594-22.332031 22.308594-12.324219 0-22.300781-9.996094-22.300781-22.308594s9.976562-22.277343 22.300781-22.277343c12.328125 0 22.332031 9.964843 22.332031 22.277343zm0 0" fill="#d675a7"/><path d="m255.984375 213.84375c12.328125 0 22.332031-9.992188 22.332031-22.304688 0-12.316406-10.003906-22.277343-22.332031-22.277343-12.324219 0-22.300781 9.960937-22.300781 22.277343.003906 12.3125 9.976562 22.304688 22.300781 22.304688zm0 0" fill="#d7d6d8"/><path d="m283.898438 326.9375c0-15.402344-12.496094-27.855469-27.914063-27.855469-15.414063 0-27.882813 12.457031-27.882813 27.855469s12.46875 27.882812 27.882813 27.882812c15.417969 0 27.914063-12.484374 27.914063-27.882812zm0 0" fill="#d675a7"/><path d="m83.5625 360.253906c14.960938 0 27.085938-12.117187 27.085938-27.0625 0-14.945312-12.125-27.0625-27.085938-27.0625s-27.089844 12.117188-27.089844 27.0625c0 14.945313 12.125 27.0625 27.089844 27.0625zm0 0" fill="#d7d6d8"/><path d="m83.5625 259.308594c14.960938 0 27.085938-12.117188 27.085938-27.0625 0-14.945313-12.125-27.0625-27.085938-27.0625s-27.089844 12.117187-27.089844 27.0625c0 14.945312 12.125 27.0625 27.089844 27.0625zm0 0" fill="#d7d6d8"/></g><path d="m87.03125 44.5-13.605469 8.257812c-4.761719 2.890626-6.277343 9.09375-3.386719 13.855469v.003907c.003907 0 .003907 0 .003907.003906l23.007812 37.820312c1.898438 3.121094 5.222657 4.84375 8.625 4.84375 1.789063 0 3.59375-.476562 5.234375-1.46875 4.757813-2.894531 6.269532-9.101562 3.371094-13.859375l-17.761719-29.195312 13.617188-8.265625c4.761719-2.890625 6.277343-9.089844 3.386719-13.851563-.003907-.003906-.003907-.007812-.007813-.011719v-.003906l-23.039063-37.792968c-2.898437-4.7539068-9.105468-6.261719-13.859374-3.359376-4.757813 2.898438-6.261719 9.101563-3.363282 13.859376zm0 0"/><path d="m405.742188 109.226562c1.636718.996094 3.445312 1.472657 5.234374 1.472657 3.402344 0 6.722657-1.722657 8.625-4.839844l23.007813-37.792969c2.796875-4.59375 1.476563-10.527344-2.898437-13.535156-.136719-.105469-.285157-.207031-.445313-.304688-.007813-.007812-.019531-.011718-.027344-.019531h-.003906l-13.59375-8.265625 17.765625-29.199218c2.894531-4.757813 1.382812-10.960938-3.375-13.855469-4.761719-2.8984378-10.964844-1.386719-13.859375 3.371093l-23.011719 37.820313c-.015625.03125-.023437.054687-.042968.082031-2.832032 4.746094-1.3125 10.898438 3.421874 13.777344l13.589844 8.261719-17.761718 29.171875c-2.894532 4.757812-1.382813 10.960937 3.375 13.855468zm0 0"/><path d="m255.984375 288.996094c-20.933594 0-37.964844 17.019531-37.964844 37.941406 0 20.933594 17.03125 37.96875 37.964844 37.96875 20.953125 0 37.996094-17.035156 37.996094-37.96875 0-20.921875-17.042969-37.941406-37.996094-37.941406zm0 55.738281c-9.8125 0-17.796875-7.984375-17.796875-17.796875 0-9.800781 7.984375-17.773438 17.796875-17.773438 9.832031 0 17.828125 7.972657 17.828125 17.773438 0 9.8125-7.996094 17.796875-17.828125 17.796875zm0 0"/><path d="m255.984375 121.328125c-38.746094 0-70.269531 31.496094-70.269531 70.210937 0 38.714844 31.523437 70.210938 70.269531 70.210938 38.765625 0 70.300781-31.496094 70.300781-70.210938 0-38.714843-31.535156-70.210937-70.300781-70.210937zm0 120.253906c-27.625 0-50.097656-22.449219-50.097656-50.042969s22.472656-50.042968 50.097656-50.042968c27.644531 0 50.132813 22.449218 50.132813 50.042968s-22.488282 50.042969-50.132813 50.042969zm0 0"/><path d="m255.984375 159.148438c-17.855469 0-32.382813 14.53125-32.382813 32.390624 0 17.859376 14.527344 32.390626 32.382813 32.390626 17.875 0 32.414063-14.53125 32.414063-32.390626 0-17.859374-14.539063-32.390624-32.414063-32.390624zm0 44.613281c-6.734375 0-12.214844-5.484375-12.214844-12.222657 0-6.738281 5.480469-12.222656 12.214844-12.222656 6.753906 0 12.246094 5.484375 12.246094 12.222656 0 6.738282-5.492188 12.222657-12.246094 12.222657zm0 0"/><path d="m83.5625 296.046875c-20.5 0-37.175781 16.664063-37.175781 37.144531 0 20.484375 16.675781 37.148438 37.175781 37.148438 20.496094 0 37.171875-16.664063 37.171875-37.148438 0-20.480468-16.675781-37.144531-37.171875-37.144531zm0 54.125c-9.378906 0-17.003906-7.617187-17.003906-16.980469 0-9.363281 7.625-16.976562 17.003906-16.976562 9.375 0 17.003906 7.613281 17.003906 16.976562 0 9.363282-7.628906 16.980469-17.003906 16.980469zm0 0"/><path d="m83.5625 195.097656c-20.5 0-37.175781 16.664063-37.175781 37.148438s16.675781 37.144531 37.175781 37.144531c20.496094 0 37.171875-16.664063 37.171875-37.144531 0-20.480469-16.675781-37.148438-37.171875-37.148438zm0 54.125c-9.378906 0-17.003906-7.613281-17.003906-16.976562 0-9.363282 7.625-16.980469 17.003906-16.980469 9.375 0 17.003906 7.617187 17.003906 16.980469 0 9.363281-7.628906 16.976562-17.003906 16.976562zm0 0"/><path d="m485.167969 143.636719h-113.515625c-2.289063 0-4.507813.289062-6.632813.832031v-54.667969c0-17.96875-14.628906-32.589843-32.609375-32.589843h-152.816406c-17.984375 0-32.613281 14.621093-32.613281 32.589843v54.671875c-2.132813-.546875-4.363281-.835937-6.664063-.835937h-113.511718c-14.78125 0-26.804688 12.027343-26.804688 26.8125v218.734375c0 14.785156 12.023438 26.816406 26.804688 26.816406h113.511718c7.1875 0 13.71875-2.84375 18.542969-7.460938 5.636719 4.660157 12.863281 7.460938 20.734375 7.460938h152.816406c7.863282 0 15.089844-2.800781 20.726563-7.457031 4.816406 4.613281 11.339843 7.457031 18.515625 7.457031h113.515625c14.796875 0 26.832031-12.03125 26.832031-26.816406v-218.734375c0-14.785157-12.035156-26.8125-26.832031-26.8125zm6.664062 245.546875c0 3.605468-3.054687 6.648437-6.664062 6.648437h-113.515625c-3.59375 0-6.632813-3.042969-6.632813-6.648437 0-.714844-.074219-1.410156-.214843-2.082032.136718-1.222656.214843-2.460937.214843-3.71875v-61.910156c0-5.566406-4.511719-10.082031-10.082031-10.082031s-10.085938 4.515625-10.085938 10.082031v61.910156c0 6.863282-5.582031 12.449219-12.441406 12.449219h-152.816406c-6.863281 0-12.445312-5.585937-12.445312-12.449219v-61.910156c0-5.566406-4.515626-10.082031-10.082032-10.082031-5.570312 0-10.085937 4.515625-10.085937 10.082031v61.910156c0 1.257813.078125 2.496094.21875 3.71875-.140625.671876-.21875 1.367188-.21875 2.082032 0 3.605468-3.050781 6.648437-6.664063 6.648437h-113.511718c-3.597657 0-6.632813-3.042969-6.632813-6.648437v-218.734375c0-3.601563 3.035156-6.644531 6.632813-6.644531h113.511718c3.613282 0 6.664063 3.042968 6.664063 6.644531v61.542969c0 5.566406 4.515625 10.082031 10.085937 10.082031 5.566406 0 10.082032-4.515625 10.082032-10.082031v-142.191407c0-6.847656 5.582031-12.421875 12.445312-12.421875h152.816406c6.859375 0 12.441406 5.574219 12.441406 12.421875v142.191407c0 5.566406 4.515626 10.082031 10.085938 10.082031 5.566406 0 10.082031-4.515625 10.082031-10.082031v-61.542969c0-3.601563 3.039063-6.644531 6.632813-6.644531h113.515625c3.609375 0 6.664062 3.042968 6.664062 6.644531zm0 0"/><path d="m426.625 293.640625c-20.496094 0-37.171875 16.664063-37.171875 37.144531 0 20.480469 16.675781 37.148438 37.171875 37.148438 20.5 0 37.175781-16.664063 37.175781-37.148438 0-20.480468-16.675781-37.144531-37.175781-37.144531zm0 54.125c-9.375 0-17.003906-7.617187-17.003906-16.980469 0-9.363281 7.628906-16.976562 17.003906-16.976562 9.378906 0 17.007812 7.613281 17.007812 16.976562 0 9.363282-7.628906 16.980469-17.007812 16.980469zm0 0"/><path d="m426.625 192.695312c-20.496094 0-37.171875 16.664063-37.171875 37.144532 0 20.484375 16.675781 37.148437 37.171875 37.148437 20.5 0 37.175781-16.664062 37.175781-37.148437 0-20.480469-16.675781-37.144532-37.175781-37.144532zm0 54.125c-9.375 0-17.003906-7.617187-17.003906-16.980468 0-9.363282 7.628906-16.976563 17.003906-16.976563 9.378906 0 17.007812 7.613281 17.007812 16.976563 0 9.363281-7.628906 16.980468-17.007812 16.980468zm0 0"/><path d="m157.066406 266.664062c-5.570312 0-10.085937 4.511719-10.085937 10.082032v.171875c0 5.566406 4.515625 10.082031 10.085937 10.082031 5.570313 0 10.082032-4.515625 10.082032-10.082031v-.171875c0-5.570313-4.515626-10.082032-10.082032-10.082032zm0 0"/><path d="m354.9375 266.664062c-5.570312 0-10.085938 4.511719-10.085938 10.082032v.171875c0 5.566406 4.515626 10.082031 10.085938 10.082031 5.566406 0 10.082031-4.515625 10.082031-10.082031v-.171875c0-5.570313-4.515625-10.082032-10.082031-10.082032zm0 0"/></svg>
