<svg id="icon" height="512pt" viewBox="0 -17 512 512" width="512pt" xmlns="http://www.w3.org/2000/svg"><g fill-rule="evenodd"><path d="m334.734375 45.925781h-147.523437c-9.949219 0-18.078126 8.164063-18.078126 18.113281v23.863282c0 9.949218 8.132813 18.113281 18.078126 18.113281h147.523437c9.949219 0 18.082031-8.164063 18.082031-18.113281v-23.863282c0-9.949218-8.132812-18.113281-18.082031-18.113281zm0 0" fill="#ffc15a"/><path d="m107.835938 154.679688h-69.199219c-15.726563 0-28.566407 12.839843-28.566407 28.570312v257.105469c0 15.703125 12.839844 28.574219 28.566407 28.574219h434.726562c15.699219 0 28.566407-12.871094 28.566407-28.574219v-257.101563c0-15.734375-12.867188-28.570312-28.566407-28.570312h-365.527343zm0 0" fill="#d675a7"/><path d="m203.191406 354.703125v44.441406c0 4.960938 4.054688 8.988281 8.984375 8.988281h87.621094c4.957031 0 8.980469-4.027343 8.980469-8.988281v-44.441406c0-4.960937-4.023438-8.984375-8.980469-8.984375h-87.621094c-4.929687 0-8.984375 4.023438-8.984375 8.984375zm0 0" fill="#bdd9ff"/><path d="m47.875 154.679688h49.5625v-38.6875c0-3.515626-2.863281-6.40625-6.378906-6.40625h-43.183594c-3.515625 0-6.40625 2.890624-6.40625 6.40625v38.6875zm0 0" fill="#ffc15a"/><path d="m130.933594 284.667969h251.15625c27.882812 0 33.863281-14.65625 39.164062-30.1875l5.75-16.921875c5.300782-15.53125 4.136719-38.660156-23.945312-38.660156h-146.5625l-150.757813.167968c-28.082031.058594-25.019531 22.960938-19.75 38.492188l5.753907 16.921875c5.296874 15.53125 11.277343 30.1875 39.191406 30.1875zm0 0" fill="#bdd9ff"/><path d="m462.878906 376.839844c0-31.320313-25.390625-56.714844-56.703125-56.714844-31.339843 0-56.734375 25.394531-56.734375 56.714844 0 31.347656 25.394532 56.746094 56.734375 56.746094 31.3125 0 56.703125-25.398438 56.703125-56.746094zm0 0" fill="#ffc15a"/></g><path d="m501.929688 322.058594c-5.5625 0-10.070313-4.507813-10.070313-10.070313v-.195312c0-5.5625 4.507813-10.074219 10.070313-10.074219s10.070312 4.511719 10.070312 10.074219v.195312c0 5.5625-4.507812 10.070313-10.070312 10.070313zm0 0"/><path d="m162.019531 376.839844c0-31.320313-25.390625-56.714844-56.707031-56.714844-31.339844 0-56.730469 25.394531-56.730469 56.714844 0 31.347656 25.390625 56.746094 56.730469 56.746094 31.316406 0 56.707031-25.398438 56.707031-56.746094zm0 0" fill="#ffc15a" fill-rule="evenodd"/><path d="m430.785156 257.722656 5.75-16.914062c4.941406-14.484375 3.765625-28.898438-3.144531-38.558594-4.382813-6.125-13.199219-13.421875-30.332031-13.421875h-146.574219l-150.765625.167969c-12.855469.027344-22.253906 4.066406-27.9375 12.011718-6.675781 9.332032-7.121094 22.71875-1.328125 39.789063l5.757813 16.933594c5.023437 14.734375 12.621093 37.003906 48.71875 37.003906h80.765624c5.5625 0 10.070313-4.507813 10.070313-10.070313s-4.507813-10.070312-10.070313-10.070312h-80.765624c-20.679688 0-24.566407-8.445312-29.652344-23.359375l-5.753906-16.914063c-3.386719-9.980468-3.890626-18.050781-1.355469-21.597656 2.109375-2.949218 7.46875-3.578125 11.582031-3.585937l150.746094-.171875h146.5625c6.882812 0 11.578125 1.683594 13.953125 5.003906 3.042969 4.253906 3.222656 12.238281.457031 20.347656l-5.75 16.910156c-5.089844 14.921876-8.976562 23.367188-29.628906 23.367188h-80.792969c-5.5625 0-10.070313 4.507812-10.070313 10.070312s4.507813 10.070313 10.070313 10.070313h80.792969c36.066406 0 43.664062-22.265625 48.695312-37.011719zm0 0"/><path d="m389.097656 241.78125c0-5.5625-4.507812-10.070312-10.070312-10.070312h-246.054688c-5.5625 0-10.070312 4.507812-10.070312 10.070312s4.507812 10.070312 10.070312 10.070312h246.054688c5.5625 0 10.070312-4.507812 10.070312-10.070312zm0 0"/><path d="m406.175781 443.65625c36.820313 0 66.773438-29.972656 66.773438-66.816406 0-36.824219-29.953125-66.785156-66.773438-66.785156-36.835937 0-66.804687 29.960937-66.804687 66.785156 0 36.839844 29.96875 66.816406 66.804687 66.816406zm0-113.460938c25.710938 0 46.632813 20.925782 46.632813 46.644532 0 25.734375-20.921875 46.671875-46.632813 46.671875-25.730469 0-46.660156-20.9375-46.660156-46.671875 0-25.71875 20.929687-46.644532 46.660156-46.644532zm0 0"/><path d="m193.121094 354.703125v44.441406c0 10.507813 8.546875 19.058594 19.054687 19.058594h87.621094c10.507813 0 19.054687-8.550781 19.054687-19.058594v-44.441406c0-10.507813-8.546874-19.054687-19.054687-19.054687h-87.621094c-10.507812 0-19.054687 8.546874-19.054687 19.054687zm20.144531 1.085937h85.441406v42.273438h-85.441406zm0 0"/><path d="m256.496094 294.734375h.199218c5.5625 0 10.070313-4.507813 10.070313-10.070313s-4.507813-10.070312-10.070313-10.070312h-.199218c-5.5625 0-10.070313 4.507812-10.070313 10.070312s4.507813 10.070313 10.070313 10.070313zm0 0"/><path d="m38.511719 376.839844c0 36.839844 29.96875 66.8125 66.800781 66.8125 36.820312 0 66.777344-29.972656 66.777344-66.8125 0-36.828125-29.953125-66.785156-66.777344-66.785156-36.832031 0-66.800781 29.957031-66.800781 66.785156zm113.433593 0c0 25.734375-20.917968 46.671875-46.632812 46.671875-25.726562 0-46.660156-20.9375-46.660156-46.671875 0-25.71875 20.933594-46.644532 46.660156-46.644532 25.714844 0 46.632812 20.925782 46.632812 46.644532zm0 0"/><path d="m82.804688 376.839844c0 5.5625 4.507812 10.070312 10.070312 10.070312h24.878906c5.5625 0 10.070313-4.507812 10.070313-10.070312s-4.507813-10.070313-10.070313-10.070313h-24.878906c-5.5625 0-10.070312 4.507813-10.070312 10.070313zm0 0"/><path d="m393.734375 386.910156h24.878906c5.5625 0 10.074219-4.507812 10.074219-10.070312s-4.511719-10.070313-10.074219-10.070313h-24.878906c-5.5625 0-10.070313 4.507813-10.070313 10.070313s4.511719 10.070312 10.070313 10.070312zm0 0"/><path d="m501.929688 276.878906c5.5625 0 10.070312-4.507812 10.070312-10.070312v-83.554688c0-21.308594-17.332031-38.644531-38.636719-38.644531h-81.117187v-42.390625c0-17.613281-12.539063-32.386719-29.359375-35.652344v-2.527344c0-15.539062-12.628907-28.183593-28.152344-28.183593h-147.523437c-15.523438 0-28.152344 12.644531-28.152344 28.183593v2.535157c-16.722656 3.253906-29.386719 17.996093-29.386719 35.644531v42.390625h-22.164063v-28.617187c0-9.085938-7.378906-16.476563-16.445312-16.476563h-10.207031l10.875-88.210937c.679687-5.519532-3.242188-10.546876-8.761719-11.226563-5.519531-.683594-10.546875 3.242187-11.226562 8.761719l-11.179688 90.675781h-12.6875c-9.085938 0-16.476562 7.390625-16.476562 16.476563v29.308593c-17.855469 3.398438-31.398438 19.117188-31.398438 37.953125v257.105469c0 21.304687 17.332031 38.640625 38.636719 38.640625h434.726562c21.304688 0 38.636719-17.335938 38.636719-38.640625v-83.558594c0-5.5625-4.511719-10.070312-10.070312-10.070312-5.5625 0-10.074219 4.507812-10.074219 10.070312v83.558594c0 10.199219-8.292969 18.5-18.492188 18.5h-434.726562c-10.199219 0-18.496094-8.300781-18.496094-18.5v-257.105469c0-10.203125 8.296875-18.5 18.496094-18.5h434.726562c10.199219 0 18.492188 8.296875 18.492188 18.5v83.554688c0 5.5625 4.511719 10.070312 10.074219 10.070312zm-322.726563-212.839844c0-4.359374 3.664063-8.042968 8.007813-8.042968h147.523437c4.34375 0 8.007813 3.683594 8.007813 8.042968v23.863282c0 4.359375-3.664063 8.042968-8.007813 8.042968h-147.523437c-4.34375 0-8.007813-3.683593-8.007813-8.042968zm-29.386719 38.179688c0-6.433594 3.785156-11.984375 9.242188-14.589844v.273438c0 15.539062 12.628906 28.183594 28.152344 28.183594h147.523437c15.523437 0 28.152344-12.644532 28.152344-28.183594v-.242188c5.417969 2.65625 9.214843 8.265625 9.214843 14.558594v42.390625h-222.285156zm-80.351562 17.4375h.015625.019531 17.863281v24.953125h-35.824219v-24.953125zm0 0"/></svg>
