<svg id="icon" height="511pt" viewBox="-32 1 511 511.999" width="511pt" xmlns="http://www.w3.org/2000/svg"><g fill-rule="evenodd"><path d="m196.113281 224.050781 14.953125-92.714843-33.75-34.203126 3.507813-8.273437c-.367188.027344-4.246094.085937-4.613281.140625-139.644532 17.171875-210.035157 170.074219-135.34375 282.425781 15.628906 23.492188 36.667968 35.902344 36.667968 90.535157v39.953124h292.996094v-39.953124c0-54.632813 21.035156-67.042969 36.664062-90.535157 74.496094-112.039062 4.671876-264.460937-134.265624-282.3125-.734376-.085937-2.601563-.167969-3.339844-.253906l6.738281 7.453125 12.800781 14.167969zm0 0" fill="#f9f9f9"/><path d="m196.113281 224.050781 93.011719-113.570312-25.59375-28.335938 29.21875-72.058593h-.054688l-78.542968.453124-36.839844 86.59375 33.753906 34.203126zm0 0" fill="#ffc15a"/><path d="m179.523438 283.445312-37.96875-38.027343c-10.023438-10.003907-26.390626-10.003907-36.414063 0-20.527344 20.570312-20.527344 53.894531 0 74.4375 20.527344 20.574219 53.855469 20.574219 74.382813 0 10.023437-10.003907 10.023437-26.410157 0-36.410157zm0 0" fill="#b3b0b5"/><path d="m267.039062 283.445312 38-38.027343c9.992188-10.003907 26.386719-10.003907 36.382813 0 20.554687 20.570312 20.554687 53.894531 0 74.4375-20.527344 20.574219-53.824219 20.574219-74.382813 0-9.992187-10.003907-9.992187-26.410157 0-36.410157zm0 0" fill="#b3b0b5"/></g><path d="m430.140625 192.648438c-28.167969-61.785157-85.890625-104.066407-154.585937-113.34375l26.53125-65.425782c1.265624-3.121094.894531-6.664062-.996094-9.449218-1.875-2.773438-5-4.429688-8.339844-4.429688-.019531 0-.039062 0-.058594 0l-78.597656.453125c-4.019531.023437-7.640625 2.433594-9.214844 6.132813l-30.855468 72.53125c-27.246094 3.453124-52.757813 11.933593-75.835938 25.230468-4.820312 2.777344-6.480469 8.941406-3.703125 13.769532 1.863281 3.242187 5.253906 5.054687 8.742187 5.054687 1.703126 0 3.433594-.433594 5.015626-1.347656 18.265624-10.519531 38.257812-17.695313 59.550781-21.390625.484375 1.394531 1.273437 2.691406 2.351562 3.785156l30.15625 30.558594-14.132812 87.667968c-.726563 4.5 1.65625 8.925782 5.808593 10.800782 1.332032.601562 2.742188.890625 4.136719.890625 2.949219 0 5.835938-1.296875 7.796875-3.695313l93.011719-113.570312c3.03125-3.703125 3.023437-8.996094.0625-12.691406 51.011719 13.886718 92.917969 48.789062 114.820313 96.839843 24.601562 53.964844 19.742187 115.582031-12.992188 164.820313-3.003906 4.507812-6.238281 8.605468-9.664062 12.941406-13.449219 17.027344-28.695313 36.328125-28.695313 83.179688v29.867187h-67.054687v-60.695313c0-5.570312-4.511719-10.085937-10.078126-10.085937-5.5625 0-10.074218 4.515625-10.074218 10.085937v60.695313h-39.136719v-60.695313c0-5.570312-4.511719-10.085937-10.078125-10.085937s-10.074219 4.515625-10.074219 10.085937v60.695313h-39.136719v-60.695313c0-5.570312-4.511718-10.085937-10.078124-10.085937-5.5625 0-10.074219 4.515625-10.074219 10.085937v60.695313h-67.054688v-29.867187c0-46.851563-15.242187-66.152344-28.695312-83.179688-3.425781-4.335938-6.660157-8.433594-9.660157-12.941406-35.488281-53.363282-37.960937-121.472656-6.449218-177.746094 2.722656-4.859375.988281-11.007812-3.863282-13.730469-4.859374-2.722656-11-.992187-13.71875 3.867188-16.835937 30.070312-25.371093 63.898437-24.6875 97.832031.71875 35.703125 11.761719 70.609375 31.941407 100.953125 3.457031 5.195313 7.101562 9.808594 10.628906 14.273437 13.066406 16.542969 24.351563 30.828126 24.351563 70.671876v39.953124c0 5.570313 4.511718 10.085938 10.074218 10.085938h292.992188c5.566406 0 10.078125-4.515625 10.078125-10.085938v-39.953124c0-39.84375 11.285156-54.128907 24.351562-70.671876 3.523438-4.464843 7.167969-9.078124 10.628907-14.277343 36.625-55.085938 42.066406-124.007813 14.554687-184.363281zm-218.121094-3.925782 8.992188-55.78125c.515625-3.175781-.519531-6.40625-2.777344-8.691406l-29-29.390625 31.59375-74.273437 56.921875-.328126-23.558594 58.09375c-1.453125 3.585938-.730468 7.683594 1.863282 10.554688l6.257812 6.925781c.007812.007813.015625.019531.023438.027344l13.496093 14.941406zm0 0"/><path d="m67.652344 154.679688c2.582031 0 5.160156-.984376 7.125-2.953126l.140625-.140624c3.9375-3.9375 3.9375-10.324219 0-14.261719-3.933594-3.941407-10.3125-3.941407-14.25 0l-.140625.140625c-3.9375 3.9375-3.9375 10.324218 0 14.261718 1.96875 1.96875 4.546875 2.953126 7.125 2.953126zm0 0"/><path d="m142.332031 345.367188c16.75 0 32.488281-6.527344 44.304688-18.371094 6.757812-6.742188 10.480469-15.746094 10.480469-25.347656 0-9.601563-3.722657-18.601563-10.464844-25.335938l-37.984375-38.039062c-13.960938-13.933594-36.679688-13.933594-50.640625 0-.007813.003906-.011719.011718-.015625.015624-24.417969 24.46875-24.414063 64.257813 0 88.691407 11.832031 11.859375 27.570312 18.386719 44.320312 18.386719zm-30.070312-92.816407c6.113281-6.097656 16.0625-6.097656 22.164062-.007812l37.980469 38.042969c2.9375 2.929687 4.554688 6.859374 4.554688 11.0625 0 4.203124-1.617188 8.132812-4.570313 11.082031-8.023437 8.039062-18.699219 12.46875-30.058594 12.46875s-22.035156-4.429688-30.066406-12.476563c-16.5625-16.574218-16.5625-43.566406-.003906-60.171875zm0 0"/><path d="m348.542969 326.992188c11.847656-11.84375 18.371093-27.589844 18.371093-44.347657 0-16.75-6.519531-32.503906-18.367187-44.359375-6.734375-6.742187-15.726563-10.457031-25.316406-10.457031-9.585938 0-18.578125 3.714844-25.316407 10.457031l-37.996093 38.027344c-13.960938 13.96875-13.960938 36.703125 0 50.671875 11.84375 11.855469 27.585937 18.382813 44.324219 18.382813 16.742187 0 32.476562-6.527344 44.300781-18.375zm-74.375-36.417969 37.996093-38.027344c3.050782-3.054687 7.058594-4.578125 11.066407-4.578125 4.007812 0 8.015625 1.523438 11.066406 4.578125 8.039063 8.046875 12.464844 18.734375 12.464844 30.097656s-4.425781 22.042969-12.472657 30.085938c-8.023437 8.039062-18.695312 12.46875-30.046874 12.46875-11.355469 0-22.035157-4.429688-30.074219-12.476563-6.101563-6.105468-6.101563-16.042968 0-22.148437zm0 0"/></svg>
