<svg id="icon" height="512pt" viewBox="0 -82 512 512" width="512pt" xmlns="http://www.w3.org/2000/svg"><g fill-rule="evenodd"><path d="m501.914062 93.328125c0-20.933594-17.144531-38.03125-38.101562-38.03125v-19.738281c0-14-11.457031-25.472656-25.503906-25.472656h-364.617188c-14.042968 0-25.503906 11.472656-25.503906 25.472656v19.738281c-20.957031 0-38.101562 17.097656-38.101562 38.03125v161.398437c0 20.933594 17.144531 38.058594 38.101562 38.058594v19.710938c0 14.03125 11.460938 25.476562 25.503906 25.476562h364.617188c14.042968 0 25.503906-11.445312 25.503906-25.476562v-19.710938c20.957031 0 38.101562-17.125 38.101562-38.058594zm0 0" fill="#f9f9f9"/><path d="m318.484375 80.574219-94.429687 18.800781c-4.863282.96875-8.84375 5.996094-8.84375 11.191406v22.691406c0 5.171876 3.980468 8.636719 8.84375 7.667969l94.429687-18.800781c4.121094-.824219 7.59375-4.542969 8.558594-8.832031.199219-.765625.285156-1.5625.285156-2.355469v-22.695312c0-5.167969-3.980469-8.632813-8.84375-7.667969zm0 0" fill="#60a4ff"/><path d="m298.808594 165.664062c-15.726563.851563-28.492188 12.382813-28.492188 25.757813 0 13.40625 12.765625 23.574219 28.492188 22.75 15.753906-.851563 28.519531-12.382813 28.519531-25.757813 0-1.136718-.085937-2.273437-.285156-3.351562-1.90625-11.703125-13.820313-20.164062-28.234375-19.398438zm0 0" fill="#60a4ff"/><path d="m215.210938 236.78125c0-13.378906-12.765626-23.574219-28.492188-22.722656-15.75.824218-28.519531 12.355468-28.519531 25.761718 0 13.375 12.765625 23.542969 28.519531 22.71875 15.726562-.851562 28.492188-12.382812 28.492188-25.757812zm0 0" fill="#60a4ff"/><path d="m113.101562 199.375 2.902344-24.140625 11.515625-21.328125-21.527343-10.308594-16.234376-17.78125-16.207031 17.78125-21.527343 10.308594 11.488281 21.328125 2.929687 24.140625 23.316406-4.601562zm0 0" fill="#ffc15a"/><path d="m384.824219 152.828125 11.484375 21.300781 2.929687 24.167969 23.316407-4.628906 23.34375 4.628906 2.902343-24.167969 11.515625-21.300781-21.523437-10.3125-16.238281-17.804687-16.207032 17.804687zm0 0" fill="#ffc15a"/></g><path d="m473.898438 46.273438v-10.710938c0-19.609375-15.964844-35.5625-35.605469-35.5625h-137.554688c-5.570312.0078125-10.0625 4.726562-10.050781 10.296875.007812 5.566406 4.519531 10.070313 10.082031 10.070313h.015625l137.523438-.195313c8.503906 0 15.421875 6.902344 15.421875 15.390625v19.738281c0 5.566407 4.515625 10.082031 10.085937 10.082031 15.445313 0 28.015625 12.535157 28.015625 27.945313v161.402344c0 15.421875-12.570312 27.972656-28.015625 27.972656-5.570312 0-10.085937 4.515625-10.085937 10.082031v19.710938c0 8.488281-6.917969 15.390625-15.421875 15.390625h-364.617188c-8.5 0-15.421875-6.902344-15.421875-15.390625v-19.710938c0-5.570312-4.515625-10.082031-10.082031-10.082031-15.449219 0-28.019531-12.550781-28.019531-27.972656v-161.402344c0-15.410156 12.570312-27.945313 28.019531-27.945313 5.566406 0 10.082031-4.515624 10.082031-10.085937v-19.738281c0-8.484375 6.921875-15.390625 15.421875-15.390625h136.96875c5.570313 0 10.085938-4.515625 10.085938-10.082031 0-5.570313-4.515625-10.085938-10.085938-10.085938h-136.96875c-19.625 0-35.589844 15.953125-35.589844 35.5625v10.710938c-21.746093 4.640624-38.101562 23.976562-38.101562 47.054687v161.398437c0 23.09375 16.355469 42.4375 38.101562 47.082032v10.6875c0 19.609375 15.964844 35.558594 35.589844 35.558594h364.617188c19.625 0 35.589844-15.949219 35.589844-35.558594v-10.6875c21.746093-4.644532 38.101562-23.988282 38.101562-47.082032v-161.398437c0-23.078125-16.355469-42.414063-38.101562-47.054687zm0 0"/><path d="m205.125 110.566406v96.804688c-5.75-2.542969-12.257812-3.746094-18.953125-3.382813-20.988281 1.105469-38.058594 17.175781-38.058594 35.828125 0 8.523438 3.515625 16.554688 9.898438 22.613282 6.921875 6.570312 16.640625 10.238281 26.964843 10.238281.761719 0 1.523438-.019531 2.289063-.058594 20.96875-1.136719 38.027344-17.210937 38.027344-35.832031v-85.851563c.246093-.039062.488281-.0625.730469-.109375l91.21875-18.160156v26.34375c-5.75-2.546875-12.265626-3.757812-18.960938-3.40625-.003906 0-.011719 0-.019531 0-20.96875 1.136719-38.03125 17.207031-38.03125 35.828125 0 8.542969 3.519531 16.585937 9.910156 22.652344 6.917969 6.5625 16.621094 10.226562 26.929687 10.226562.757813 0 1.519532-.019531 2.28125-.058593 20.988282-1.136719 38.058594-17.207032 38.058594-35.828126 0-.078124-.003906-.152343-.003906-.226562 0-.039062.003906-.078125.003906-.117188v-99.828124c0-5.574219-2.339844-10.699219-6.429687-14.050782-3.976563-3.265625-9.253907-4.542968-14.464844-3.507812l-94.425781 18.800781c-9.511719 1.890625-16.964844 11.148437-16.964844 21.082031zm-18.933594 141.902344c-5.652344.296875-10.859375-1.40625-14.292968-4.667969-1.648438-1.5625-3.613282-4.21875-3.613282-7.980469 0-7.96875 8.683594-15.152343 18.960938-15.691406h.019531c.433594-.023437.859375-.035156 1.285156-.035156 5.109375 0 9.773438 1.671875 12.941407 4.671875 1.65625 1.570313 3.632812 4.234375 3.632812 8.015625 0 7.945312-8.679688 15.132812-18.933594 15.6875zm112.089844-48.367188c-5.628906.296876-10.824219-1.402343-14.257812-4.660156-1.652344-1.566406-3.621094-4.234375-3.621094-8.015625 0-7.945312 8.671875-15.128906 18.941406-15.691406 5.640625-.292969 10.84375 1.40625 14.277344 4.664063 1.652344 1.570312 3.621094 4.230468 3.621094 8.015624 0 7.949219-8.691407 15.132813-18.960938 15.6875zm-72.988281-93.535156c0-.375.472656-1.109375.835937-1.320312l91.113282-18.140625v19.828125c0 .378906-.46875 1.113281-.832032 1.320312l-91.117187 18.140625zm0 0"/><path d="m131.875 144.808594-19.757812-9.460938-14.914063-16.332031c-1.910156-2.089844-4.613281-3.285156-7.445313-3.285156h-.003906c-2.835937.003906-5.539062 1.199219-7.449218 3.292969l-14.882813 16.328124-19.753906 9.457032c-2.488281 1.191406-4.378907 3.351562-5.230469 5.972656-.855469 2.621094-.601562 5.480469.707031 7.90625l10.585938 19.652344 2.699219 22.25c.339843 2.785156 1.820312 5.300781 4.089843 6.949218 2.269531 1.644532 5.121094 2.273438 7.875 1.730469l21.363281-4.214843 21.394532 4.214843c.648437.128907 1.300781.191407 1.949218.191407 2.113282 0 4.191407-.664063 5.929688-1.925782 2.269531-1.648437 3.75-4.171875 4.085938-6.957031l2.667968-22.238281 10.605469-19.640625c1.3125-2.429688 1.570313-5.289063.71875-7.914063-.855469-2.625-2.746094-4.78125-5.234375-5.976562zm-24.746094 25.636718c-.601562 1.113282-.988281 2.332032-1.140625 3.585938l-1.601562 13.347656-12.679688-2.5c-1.289062-.253906-2.613281-.25-3.902343 0l-12.660157 2.5-1.621093-13.359375c-.152344-1.25-.535157-2.457031-1.132813-3.566406l-6.472656-12.019531 11.984375-5.742188c1.171875-.558594 2.222656-1.339844 3.097656-2.300781l8.761719-9.609375 8.785156 9.617188c.871094.957031 1.921875 1.734374 3.089844 2.296874l11.976562 5.734376zm0 0"/><path d="m389.226562 199.507812c.339844 2.789063 1.820313 5.308594 4.09375 6.957032 1.734376 1.253906 3.808594 1.917968 5.917969 1.917968.652344 0 1.3125-.066406 1.964844-.195312l21.351563-4.238281 21.382812 4.238281c2.753906.546875 5.613281-.078125 7.886719-1.726562 2.273437-1.652344 3.753906-4.171876 4.089843-6.960938l2.671876-22.265625 10.601562-19.609375c1.3125-2.429688 1.570312-5.289062.71875-7.914062s-2.746094-4.785157-5.234375-5.976563l-19.75-9.460937-14.914063-16.355469c-1.910156-2.097657-4.617187-3.292969-7.453124-3.292969 0 0 0 0-.003907 0-2.835937 0-5.542969 1.199219-7.453125 3.296875l-14.882812 16.351563-19.75 9.457031c-2.488282 1.191406-4.378906 3.351562-5.230469 5.976562-.855469 2.621094-.597656 5.480469.710937 7.90625l10.582032 19.621094zm21.476563-47.894531c1.171875-.5625 2.226563-1.347656 3.101563-2.308593l8.757812-9.621094 8.777344 9.628906c.875.957031 1.925781 1.738281 3.097656 2.300781l11.972656 5.734375-6.480468 11.984375c-.601563 1.113281-.988282 2.332031-1.140626 3.59375l-1.605468 13.359375-12.667969-2.511718c-.644531-.125-1.304687-.191407-1.960937-.191407s-1.316407.0625-1.964844.191407l-12.648438 2.511718-1.617187-13.371094c-.152344-1.253906-.539063-2.464843-1.136719-3.574218l-6.464844-11.988282zm0 0"/><path d="m255.816406 20.167969h.167969c5.570313 0 10.085937-4.515625 10.085937-10.082031 0-5.570313-4.515624-10.085938-10.085937-10.085938h-.167969c-5.570312 0-10.085937 4.515625-10.085937 10.085938 0 5.566406 4.515625 10.082031 10.085937 10.082031zm0 0"/></svg>
