<svg id="icon" height="512pt" viewBox="0 0 512 512" width="512pt" xmlns="http://www.w3.org/2000/svg"><g fill-rule="evenodd"><path d="m10.070312 255.984375c0 28.621094 23.210938 51.832031 51.832032 51.832031 3.710937 0 7.308594-.367187 10.796875-1.105468-9.125-33.15625-9.125-68.292969 0-101.421876-3.488281-.734374-7.085938-1.132812-10.796875-1.132812-28.621094 0-51.832032 23.207031-51.832032 51.828125zm0 0" fill="#e8e7e9"/><path d="m72.699219 205.289062c-9.125 33.128907-9.125 68.265626 0 101.421876 4.109375 14.847656 10.03125 29.328124 17.824219 43.046874 8.246093 14.5625 18.589843 28.277344 31 40.691407 12.441406 12.410156 26.125 22.753906 40.691406 31.03125 13.714844 7.761719 28.195312 13.714843 43.074218 17.824219 33.125 9.125 68.265626 9.125 101.421876 0 14.847656-4.109376 29.328124-10.0625 43.042968-17.824219 14.566406-8.277344 28.28125-18.621094 40.695313-31.03125 12.410156-12.414063 22.753906-26.128907 31.027343-40.691407 7.765626-13.71875 13.714844-28.199218 17.824219-43.046874 9.125-33.15625 9.125-68.292969 0-101.421876-4.109375-14.875-10.058593-29.355468-17.824219-43.070312-8.273437-14.566406-18.617187-28.253906-31.027343-40.695312-12.414063-12.410157-26.128907-22.753907-40.695313-31-13.714844-7.792969-28.195312-13.714844-43.042968-17.824219-33.15625-9.125-68.296876-9.125-101.421876 0-14.878906 4.109375-29.359374 10.03125-43.074218 17.824219-14.566406 8.246093-28.25 18.589843-40.691406 31-12.414063 12.441406-22.753907 26.128906-31 40.695312-7.792969 13.714844-13.714844 28.191406-17.824219 43.070312zm0 0" fill="#ffc15a"/><path d="m121.523438 390.449219c-12.414063-12.414063-22.753907-26.128907-31-40.695313-2.976563 1.957032-5.808594 4.222656-8.417969 6.832032-20.261719 20.230468-20.261719 53.046874 0 73.308593 20.234375 20.234375 53.046875 20.234375 73.308593 0 2.609376-2.609375 4.875-5.441406 6.804688-8.417969-14.566406-8.273437-28.253906-18.617187-40.695312-31.027343zm0 0" fill="#e8e7e9"/><path d="m306.710938 439.300781c-33.15625 9.125-68.296876 9.125-101.421876 0-.738281 3.457031-1.132812 7.085938-1.132812 10.769531 0 28.648438 23.207031 51.859376 51.828125 51.859376s51.832031-23.210938 51.832031-51.859376c0-3.683593-.371094-7.308593-1.105468-10.769531zm0 0" fill="#e8e7e9"/><path d="m349.753906 421.476562c1.957032 2.976563 4.222656 5.808594 6.832032 8.417969 20.230468 20.234375 53.046874 20.234375 73.308593 0 20.234375-20.261719 20.234375-53.078125 0-73.308593-2.609375-2.609376-5.441406-4.875-8.417969-6.832032-8.273437 14.566406-18.617187 28.28125-31.027343 40.695313-12.414063 12.410156-26.128907 22.753906-40.695313 31.027343zm0 0" fill="#e8e7e9"/><path d="m439.300781 205.289062c9.125 33.128907 9.125 68.265626 0 101.421876 3.457031.738281 7.085938 1.105468 10.769531 1.105468 28.648438 0 51.859376-23.210937 51.859376-51.832031s-23.210938-51.828125-51.859376-51.828125c-3.683593 0-7.308593.398438-10.769531 1.132812zm0 0" fill="#e8e7e9"/><path d="m421.476562 162.214844c2.976563-1.925782 5.808594-4.191406 8.417969-6.800782 20.234375-20.261718 20.234375-53.074218 0-73.308593-20.261719-20.261719-53.078125-20.261719-73.308593 0-2.609376 2.605469-4.875 5.441406-6.832032 8.414062 14.566406 8.246094 28.28125 18.589844 40.695313 31.003907 12.410156 12.441406 22.753906 26.128906 31.027343 40.691406zm0 0" fill="#e8e7e9"/><path d="m307.816406 61.902344c0-28.621094-23.210937-51.832032-51.832031-51.832032s-51.828125 23.210938-51.828125 51.832032c0 3.710937.394531 7.308594 1.132812 10.796875 33.125-9.125 68.265626-9.125 101.421876 0 .734374-3.488281 1.105468-7.085938 1.105468-10.796875zm0 0" fill="#e8e7e9"/><path d="m155.414062 82.105469c-20.261718-20.261719-53.074218-20.261719-73.308593 0-20.261719 20.234375-20.261719 53.046875 0 73.308593 2.605469 2.609376 5.441406 4.875 8.414062 6.804688 8.246094-14.566406 18.589844-28.253906 31.003907-40.695312 12.4375-12.410157 26.125-22.753907 40.691406-31-1.925782-2.976563-4.191406-5.808594-6.800782-8.417969zm0 0" fill="#e8e7e9"/><path d="m357.546875 154.453125c-56.078125-56.082031-147.015625-56.082031-203.09375 0-56.082031 56.078125-56.082031 147.015625 0 203.09375 56.078125 56.082031 147.015625 56.082031 203.09375 0 56.082031-56.078125 56.082031-147.015625 0-203.09375zm0 0" fill="#ffd89e"/><path d="m293.789062 315.664062-3.175781-41.824218 26.527344-31.9375-39.757813-9.832032-21.398437-35.734374-21.394531 35.734374-39.757813 9.832032 26.523438 31.9375-3.144531 41.824218 37.773437-16.011718zm0 0" fill="#f5737f"/></g><path d="m450.070312 317.886719c34.148438 0 61.929688-27.769531 61.929688-61.902344s-27.78125-61.898437-61.929688-61.898437c-1.21875 0-2.441406.046874-3.660156.117187-3.214844-9.96875-7.246094-19.726563-12.058594-29.183594.90625-.800781 1.796876-1.628906 2.667969-2.488281 24.121094-24.152344 24.117188-63.425781-.003906-87.546875-11.703125-11.703125-27.25-18.144531-43.785156-18.144531-16.539063 0-32.082031 6.445312-43.765625 18.144531-.859375.855469-1.683594 1.742187-2.484375 2.644531-9.464844-4.820312-19.230469-8.851562-29.207031-12.070312.070312-1.210938.113281-2.429688.113281-3.65625 0-34.132813-27.769531-61.902344-61.902344-61.902344s-61.898437 27.769531-61.898437 61.902344c0 1.21875.046874 2.441406.117187 3.660156-9.96875 3.21875-19.730469 7.246094-29.191406 12.0625-.804688-.90625-1.625-1.792969-2.476563-2.640625-11.699218-11.703125-27.25-18.144531-43.785156-18.144531s-32.082031 6.445312-43.761719 18.140625c-11.703125 11.6875-18.148437 27.230469-18.148437 43.769531 0 16.535156 6.441406 32.085938 18.144531 43.785156.847656.847656 1.734375 1.667969 2.640625 2.476563-4.816406 9.460937-8.847656 19.222656-12.0625 29.191406-1.21875-.070313-2.441406-.117187-3.660156-.117187-34.132813 0-61.902344 27.769531-61.902344 61.898437 0 34.132813 27.769531 61.902344 61.902344 61.902344 1.226562 0 2.445312-.042969 3.65625-.113281 3.21875 9.976562 7.25 19.742187 12.070312 29.207031-.902344.800781-1.785156 1.621093-2.640625 2.476562-11.703125 11.6875-18.148437 27.234375-18.148437 43.773438 0 16.535156 6.441406 32.082031 18.144531 43.785156 12.058594 12.058594 27.894531 18.089844 43.75 18.089844 15.863281 0 31.738281-6.042969 43.839844-18.128907.84375-.851562 1.65625-1.730468 2.445312-2.625 9.460938 4.816407 19.21875 8.84375 29.183594 12.058594-.070313 1.21875-.117187 2.441406-.117187 3.660156 0 34.148438 27.765624 61.929688 61.898437 61.929688s61.902344-27.78125 61.902344-61.929688c0-1.226562-.042969-2.445312-.113281-3.65625 9.972656-3.21875 19.734374-7.246093 29.199218-12.0625.796875.898438 1.625 1.789063 2.492188 2.664063 12.058594 12.0625 27.90625 18.09375 43.761718 18.09375 15.851563-.003906 31.710938-6.035156 43.792969-18.097656 24.121094-24.152344 24.117188-63.425781-.042969-87.582031-.859374-.855469-1.738281-1.667969-2.625-2.460938 4.816407-9.460938 8.84375-19.222656 12.0625-29.195312 1.210938.070312 2.429688.113281 3.65625.113281zm-66.742187 65.441406c-70.207031 70.199219-184.453125 70.199219-254.683594 0-70.203125-70.203125-70.203125-184.453125 0-254.683594 35.117188-35.105469 81.226563-52.652343 127.351563-52.652343 46.113281 0 92.234375 17.554687 127.332031 52.652343h-.003906c70.207031 70.230469 70.207031 184.480469.003906 254.683594zm108.527344-127.34375c0 22.464844-17.84375 40.835937-40.113281 41.714844 5.808593-27.476563 5.808593-55.949219-.003907-83.429688 22.273438.878907 40.117188 19.25 40.117188 41.714844zm-98.625-179.003906c11.152343 0 21.644531 4.347656 29.542969 12.246093 15.871093 15.871094 16.253906 41.464844 1.203124 57.800782-7.496093-11.554688-16.289062-22.503906-26.40625-32.625-10.109374-10.109375-21.046874-18.898438-32.589843-26.390625 7.722656-7.125 17.683593-11.03125 28.25-11.03125zm-137.246094-56.835938c22.464844 0 40.832031 17.832031 41.714844 40.082031-27.476563-5.804687-55.949219-5.804687-83.429688.007813.878907-22.257813 19.25-40.089844 41.714844-40.089844zm-179.003906 98.605469c0-11.152344 4.347656-21.632812 12.253906-29.527344 7.878906-7.894531 18.363281-12.242187 29.515625-12.242187 10.5625 0 20.527344 3.90625 28.261719 11.023437-11.546875 7.492188-22.492188 16.285156-32.609375 26.398438-10.113282 10.117187-18.90625 21.0625-26.398438 32.609375-7.117187-7.734375-11.023437-17.699219-11.023437-28.261719zm-56.835938 137.234375c0-22.464844 17.832031-40.835937 40.085938-41.714844-5.808594 27.480469-5.808594 55.953125-.003907 83.429688-22.25-.878907-40.082031-19.25-40.082031-41.714844zm69.082031 166.789063c-7.898437-7.898438-12.246093-18.390626-12.246093-29.542969 0-10.566407 3.90625-20.523438 11.03125-28.25 7.492187 11.542969 16.28125 22.480469 26.390625 32.589843 10.121094 10.117188 21.070312 18.910157 32.625 26.40625-16.378906 15.050782-41.941406 14.652344-57.800782-1.203124zm166.757813 69.082031c-22.464844 0-40.835937-17.847657-41.714844-40.117188 13.746094 2.90625 27.734375 4.371094 41.726563 4.371094 13.984375 0 27.96875-1.460937 41.703125-4.367187-.878907 22.269531-19.25 40.113281-41.714844 40.113281zm166.792969-69.085938c-15.898438 15.875-41.492188 16.257813-57.8125 1.203125 11.546875-7.496094 22.488281-16.289062 32.605468-26.402344 10.113282-10.117187 18.90625-21.058593 26.398438-32.605468 15.058594 16.355468 14.664062 41.925781-1.191406 57.804687zm0 0"/><path d="m364.675781 147.335938c-17.242187-17.273438-38.621093-30.320313-61.816406-37.730469-5.292969-1.691407-10.964844 1.230469-12.65625 6.53125-1.691406 5.296875 1.230469 10.964843 6.527344 12.65625 20.433593 6.527343 38.496093 17.550781 53.695312 32.78125 25.222657 25.21875 39.113281 58.753906 39.113281 94.425781s-13.890624 69.207031-39.113281 94.425781c-25.21875 25.222657-58.753906 39.113281-94.425781 39.113281s-69.207031-13.890624-94.425781-39.113281c-25.222657-25.21875-39.113281-58.753906-39.113281-94.425781s13.890624-69.207031 39.117187-94.433594c15.203125-15.230468 33.257813-26.253906 53.660156-32.773437 5.300781-1.691407 8.222657-7.359375 6.53125-12.65625-1.695312-5.300781-7.363281-8.222657-12.660156-6.53125-23.496094 7.507812-44.285156 20.203125-61.777344 37.726562-29.027343 29.023438-45.011719 67.617188-45.011719 108.667969s15.984376 79.644531 45.011719 108.667969c29.023438 29.027343 67.617188 45.011719 108.667969 45.011719s79.644531-15.984376 108.667969-45.011719c29.027343-29.023438 45.011719-67.617188 45.011719-108.667969s-15.984376-79.644531-45.003907-108.664062zm0 0"/><path d="m185.265625 238.757812c-1.082031 3.292969-.394531 6.910157 1.820313 9.578126l23.925781 28.804687-2.839844 37.769531c-.265625 3.5 1.316406 6.890625 4.171875 8.9375 2.851562 2.046875 6.566406 2.460938 9.800781 1.089844l33.84375-14.34375 33.875 14.34375c1.261719.535156 2.597657.800781 3.925781.800781 2.078126 0 4.136719-.644531 5.875-1.894531 2.855469-2.046875 4.433594-5.4375 4.167969-8.941406l-2.863281-37.761719 23.921875-28.804687c2.214844-2.664063 2.898437-6.285157 1.820313-9.578126-1.085938-3.292968-3.785157-5.796874-7.152344-6.632812l-35.6875-8.824219-19.242188-32.140625c-1.820312-3.035156-5.097656-4.894531-8.640625-4.894531-3.539062 0-6.820312 1.859375-8.640625 4.894531l-19.242187 32.140625-35.6875 8.824219c-3.367188.832031-6.070313 3.339844-7.152344 6.632812zm51.742187 3.085938c2.605469-.644531 4.84375-2.300781 6.222657-4.601562l12.753906-21.300782 12.753906 21.300782c1.378907 2.300781 3.617188 3.957031 6.222657 4.601562l24.167968 5.976562-16.261718 19.582032c-1.667969 2.011718-2.492188 4.589844-2.292969 7.199218l1.921875 25.34375-22.582032-9.566406c-1.257812-.53125-2.59375-.796875-3.929687-.796875s-2.671875.265625-3.929687.800781l-22.5625 9.5625 1.90625-25.351562c.195312-2.605469-.625-5.179688-2.292969-7.191406l-16.261719-19.582032zm0 0"/><path d="m255.984375 122.441406h.199219c5.5625 0 10.070312-4.507812 10.070312-10.070312s-4.507812-10.070313-10.070312-10.070313h-.199219c-5.5625 0-10.070313 4.507813-10.070313 10.070313s4.507813 10.070312 10.070313 10.070312zm0 0"/></svg>
