<svg id="icon" height="512pt" viewBox="0 -23 512.00038 512" width="512pt" xmlns="http://www.w3.org/2000/svg"><path d="m100.195312 168.277344v254.261718c0 18.359376 15.046876 33.375 33.382813 33.375h244.820313c18.363281 0 33.378906-15.015624 33.378906-33.375v-254.261718l11.503906 11.503906c8.671875 8.640625 22.8125 8.640625 31.480469 0l40.664062-40.652344c8.640625-8.640625 8.640625-22.808594 0-31.476562-82.542969-82.496094-65.230469-97.566406-170.46875-97.566406h-7.566406c0 26.175781-27.484375 47.394531-61.402344 47.394531-33.890625 0-61.375-21.21875-61.375-47.394531h-7.59375c-105.210937 0-87.925781 15.070312-170.441406 97.566406-8.640625 8.667968-8.640625 22.835937 0 31.476562l40.664063 40.652344c8.640624 8.640625 22.808593 8.640625 31.453124 0zm51.460938 83.152344c0-44.140626 27.851562-82.074219 66.8125-97.144532 11.621094-4.503906 24.199219-6.96875 37.320312-6.96875 57.265626 0 104.132813 46.859375 104.132813 104.113282v36.914062h-13.175781c-17.539063 0-31.90625 14.363281-31.90625 31.898438v36.601562h-118.101563v-36.601562c0-17.535157-14.339843-31.898438-31.90625-31.898438h-13.175781zm0 0" fill="#d675a7" fill-rule="evenodd"/><path d="m218.46875 154.285156c-38.960938 15.070313-66.8125 53.003906-66.8125 97.140625v36.914063h13.175781c17.566407 0 31.90625 14.363281 31.90625 31.902344v36.601562h118.101563v-36.601562c0-17.535157 14.367187-31.902344 31.90625-31.902344h13.175781v-36.914063c0-57.253906-46.867187-104.113281-104.132813-104.113281-13.121093.003906-25.699218 2.46875-37.320312 6.972656zm0 0" fill="#f9f9f9" fill-rule="evenodd"/><path d="m196.738281 366.929688h118.101563c5.570312 0 10.085937-4.515626 10.085937-10.085938v-36.601562c0-12.03125 9.789063-21.816407 21.820313-21.816407h13.179687c5.566407 0 10.082031-4.515625 10.082031-10.085937v-36.914063c0-62.964843-51.238281-114.195312-114.21875-114.195312-14.085937 0-27.867187 2.574219-40.957031 7.648437-21.269531 8.226563-39.472656 22.503906-52.636719 41.289063-13.492187 19.25-20.625 41.816406-20.625 65.257812v36.914063c0 5.570312 4.515626 10.085937 10.085938 10.085937h13.175781c12.03125 0 21.824219 9.785157 21.824219 21.8125v36.605469c-.003906 5.570312 4.511719 10.085938 10.082031 10.085938zm-31.90625-88.671876h-3.09375v-26.828124c0-38.511719 24.261719-73.773438 60.378907-87.742188 10.757812-4.171875 22.085937-6.289062 33.671874-6.289062 51.859376 0 94.050782 42.183593 94.050782 94.03125v26.828124h-3.09375c-23.152344 0-41.992188 18.832032-41.992188 41.984376v26.515624h-18.792968v-25.75c0-5.570312-4.515626-10.085937-10.085938-10.085937-5.566406 0-10.082031 4.515625-10.082031 10.085937v25.75h-19.984375v-25.75c0-5.570312-4.515625-10.085937-10.085938-10.085937-5.566406 0-10.082031 4.515625-10.082031 10.085937v25.75h-18.820313v-26.515624c0-23.152344-18.835937-41.984376-41.988281-41.984376zm0 0"/><path d="m502.554688 100.519531c-18.460938-18.449219-31.984376-33.617187-42.851563-45.804687-19.121094-21.441406-31.75-35.609375-50.636719-44.035156-17.664062-7.886719-39.675781-10.679688-84.109375-10.679688h-7.566406c-5.570313 0-10.085937 4.515625-10.085937 10.085938 0 20.570312-23.019532 37.308593-51.316407 37.308593-28.285156 0-51.292969-16.738281-51.292969-37.308593 0-5.570313-4.515624-10.085938-10.085937-10.085938h-7.59375c-44.429687 0-66.441406 2.796875-84.105469 10.683594-18.886718 8.429687-31.519531 22.601562-50.644531 44.050781-10.859375 12.183594-24.375 27.347656-42.832031 45.796875-12.582032 12.625-12.578125 33.140625.015625 45.726562l40.660156 40.65625c10.839844 10.835938 27.527344 12.351563 40.003906 4.546876v231.082031c0 23.960937 19.496094 43.457031 43.464844 43.457031h244.820313c23.964843 0 43.464843-19.496094 43.464843-43.457031v-81.449219c0-5.570312-4.515625-10.085938-10.085937-10.085938-5.570313 0-10.082032 4.515626-10.082032 10.085938v81.449219c0 12.839843-10.453124 23.285156-23.296874 23.285156h-244.820313c-12.847656 0-23.296875-10.445313-23.296875-23.285156v-254.265625c0-4.078125-2.457031-7.753906-6.226562-9.316406-3.765626-1.5625-8.101563-.695313-10.988282 2.1875l-11.503906 11.5c-4.738281 4.738281-12.453125 4.738281-17.191406 0l-40.664063-40.652344c-4.738281-4.738282-4.734375-12.464844 0-17.210938 18.855469-18.851562 32.585938-34.253906 43.617188-46.628906 36.855469-41.34375 42.707031-47.910156 118.304687-47.988281 5.945313 26.902343 35.234375 47.394531 70.359375 47.394531 18.621094 0 36.230469-5.675781 49.582031-15.980469 11.078126-8.550781 18.253907-19.457031 20.832032-31.414062 75.554687.082031 81.410156 6.652343 118.246094 47.96875 11.039062 12.378906 24.777343 27.789062 43.636718 46.632812 4.746094 4.761719 4.75 12.488281.011719 17.226563l-40.652344 40.640625c-4.753906 4.738281-12.488281 4.738281-17.230469.011719l-11.503906-11.503907c-2.886718-2.882812-7.222656-3.742187-10.992187-2.183593-3.765625 1.558593-6.222657 5.238281-6.222657 9.316406v83.0625c0 5.570312 4.515626 10.085937 10.085938 10.085937 5.566406 0 10.082031-4.515625 10.082031-10.085937v-59.890625c12.480469 7.789062 29.175781 6.277343 40.03125-4.539063l40.660157-40.652344c12.589843-12.585937 12.597656-33.101562 0-45.738281zm0 0"/><path d="m411.777344 286.046875c-5.570313 0-10.082032 4.515625-10.082032 10.085937v.171876c0 5.570312 4.511719 10.082031 10.082032 10.082031 5.570312 0 10.085937-4.511719 10.085937-10.082031v-.171876c0-5.570312-4.515625-10.085937-10.085937-10.085937zm0 0"/><path d="m218.101562 262.164062c5.570313 0 10.085938-4.515624 10.085938-10.085937v-29.519531c0-5.570313-4.515625-10.082032-10.085938-10.082032-5.570312 0-10.085937 4.515626-10.085937 10.082032v29.519531c0 5.570313 4.515625 10.085937 10.085937 10.085937zm0 0"/><path d="m293.078125 262.164062c5.570313 0 10.085937-4.515624 10.085937-10.085937v-29.519531c0-5.570313-4.515624-10.082032-10.085937-10.082032s-10.082031 4.515626-10.082031 10.082032v29.519531c0 5.570313 4.511718 10.085937 10.082031 10.085937zm0 0"/></svg>
