<svg id="icon" height="512pt" viewBox="-49 0 511 512" width="512pt" xmlns="http://www.w3.org/2000/svg"><g fill-rule="evenodd"><path d="m75.730469 469.433594h261.039062v-224.796875c-27.878906-2.886719-27.9375-44.007813-.054687-46.953125-1.914063-63.046875-49.210938-115.296875-110.074219-124.980469-2.554687 8.851563-10.738281 15.371094-20.390625 15.371094-9.625 0-17.808594-6.519531-20.359375-15.371094-59.867187 9.515625-106.636719 60.242187-109.964844 121.902344 11.984375 1.082031 21.441407 11.238281 21.441407 23.503906 0 12.320313-9.566407 22.503906-21.636719 23.503906zm0 0" fill="#e8e7e9"/><path d="m75.730469 448.289062v-206.675781c-.636719.054688-1.273438.082031-1.941407.082031h-39.640624c-.804688 0-1.609376-.027343-2.414063-.109374v238.308593c0 12.125 9.90625 22.035157 22 22.035157s21.996094-9.910157 21.996094-22.035157zm0 0" fill="#60a4ff"/><path d="m34.148438 241.695312h39.640624c.667969 0 1.304688-.027343 1.941407-.082031 12.070312-1 21.636719-11.183593 21.636719-23.503906 0-12.265625-9.457032-22.421875-21.441407-23.503906-.695312-.085938-1.414062-.113281-2.136719-.113281h-39.640624c-.75 0-1.527344.054687-2.273438.113281-11.902344 1.164062-21.304688 11.292969-21.304688 23.503906 0 12.152344 9.320313 22.253906 21.164063 23.476563.804687.082031 1.609375.109374 2.414063.109374zm0 0" fill="#ffc15a"/><path d="m34.148438 194.492188h39.640624c.722657 0 1.441407.03125 2.136719.113281 3.328125-61.660157 50.097657-112.386719 109.964844-121.902344-.527344-1.859375-.832031-3.804687-.832031-5.828125v-35.601562c0-1 .082031-1.972657.21875-2.941407-83.914063 10.183594-149.964844 80.527344-153.402344 166.273438.75-.054688 1.523438-.113281 2.273438-.113281zm0 0" fill="#60a4ff"/><path d="m185.890625 72.703125c2.550781 8.851563 10.734375 15.371094 20.359375 15.371094 9.652344 0 17.835938-6.519531 20.390625-15.371094.523437-1.859375.800781-3.804687.800781-5.828125v-35.601562c0-1-.054687-1.972657-.191406-2.941407-.417969-2.914062-1.414062-5.632812-2.886719-8.046875-3.746093-6.105468-10.457031-10.214844-18.113281-10.214844-7.628906 0-14.367188 4.109376-18.085938 10.214844-1.472656 2.414063-2.5 5.132813-2.886718 8.046875-.136719.96875-.222656 1.941407-.222656 2.941407v35.601562c.003906 2.023438.308593 3.96875.835937 5.828125zm0 0" fill="#ffc15a"/><path d="m226.640625 72.703125c60.859375 9.683594 108.15625 61.9375 110.074219 124.980469.832031-.082032 1.636718-.136719 2.496094-.136719h39.613281c.636719 0 1.273437.027344 1.914062.082031-2-87.105468-68.601562-159.003906-153.488281-169.300781.140625.972656.195312 1.945313.195312 2.941406v35.601563c0 2.027344-.277343 3.972656-.804687 5.832031zm0 0" fill="#60a4ff"/><path d="m378.824219 197.546875h-39.613281c-.859376 0-1.664063.054687-2.496094.136719-11.820313 1.25-21.113282 11.324218-21.113282 23.476562 0 12.15625 9.324219 22.253906 21.167969 23.476563.804688.082031 1.609375.109375 2.441407.109375h39.613281c.664062 0 1.304687-.027344 1.96875-.082032 12.066406-1 21.636719-11.183593 21.636719-23.503906 0-12.347656-9.597657-22.558594-21.691407-23.53125-.640625-.054687-1.277343-.082031-1.914062-.082031zm0 0" fill="#ffc15a"/><path d="m378.824219 244.746094h-39.613281c-.832032 0-1.636719-.027344-2.441407-.109375v235.261719c0 12.125 9.902344 22.03125 21.996094 22.03125 12.125 0 22.027344-9.90625 22.027344-22.03125v-235.234376c-.664063.054688-1.304688.082032-1.96875.082032zm0 0" fill="#60a4ff"/><path d="m134.820312 210.339844h141.195313c2.441406 0 4.4375-2 4.4375-4.441406v-9.433594c0-41.292969-33.757813-75.09375-75.035156-75.09375-41.277344 0-75.039063 33.800781-75.039063 75.09375v9.433594c.003906 2.441406 2 4.441406 4.441406 4.441406zm0 0" fill="#ffd89e"/><path d="m276.015625 333.851562h-141.195313c-2.441406 0-4.4375 1.996094-4.4375 4.4375v9.4375c0 41.289063 33.757813 75.0625 75.035157 75.0625 41.277343 0 75.039062-33.773437 75.039062-75.0625v-9.4375c0-2.441406-2-4.4375-4.441406-4.4375zm0 0" fill="#ff6977"/><path d="m288.058594 271c0-11.074219-9.074219-20.148438-20.167969-20.148438h-124.945313c-11.09375 0-20.164062 9.074219-20.164062 20.148438 0 11.097656 9.070312 20.171875 20.164062 20.171875h124.945313c11.09375 0 20.167969-9.074219 20.167969-20.171875zm0 0" fill="#bdd9ff"/></g><path d="m134.820312 220.410156h141.195313c8 0 14.507813-6.511718 14.507813-14.511718v-9.433594c0-46.957032-38.175782-85.160156-85.105469-85.160156-46.929688 0-85.109375 38.203124-85.109375 85.160156v9.433594c.003906 8 6.511718 14.511718 14.511718 14.511718zm5.628907-23.945312c0-35.851563 29.144531-65.019532 64.96875-65.019532s64.96875 29.167969 64.96875 65.019532v3.804687h-129.9375zm0 0"/><path d="m390.449219 189.546875c-5.640625-85.421875-70.707031-156.832031-155.332031-170.269531-4.710938-11.308594-15.875-19.277344-28.867188-19.277344s-24.15625 7.972656-28.867188 19.28125c-40.546874 6.460938-78.097656 26.53125-106.355468 57.003906-28.21875 30.433594-45.347656 69.347656-48.714844 110.296875-12.730469 4.804688-21.8125 17.121094-21.8125 31.527344 0 14.148437 8.777344 26.277344 21.164062 31.246094v46.867187c0 5.5625 4.511719 10.070313 10.070313 10.070313 5.5625 0 10.070313-4.507813 10.070313-10.070313v-44.457031h23.855468v228.128906c0 6.597657-5.347656 11.960938-11.925781 11.960938s-11.929687-5.363281-11.929687-11.960938v-95.566406c0-5.5625-4.507813-10.070313-10.070313-10.070313-5.558594 0-10.070313 4.507813-10.070313 10.070313v95.566406c0 17.703125 14.386719 32.105469 32.070313 32.105469s32.070313-14.402344 32.070313-32.105469v-.390625h240.894531v.390625c0 17.703125 14.386719 32.105469 32.070312 32.105469 17.695313 0 32.09375-14.402344 32.09375-32.105469v-227.308593c12.640625-4.851563 21.636719-17.105469 21.636719-31.425782 0-14.488281-9.191406-26.867187-22.050781-31.613281zm-152.933594-149.410156c71.5625 13.925781 126.246094 74.609375 132.578125 147.339843h-23.980469c-2.984375-29.109374-15.140625-56.839843-34.800781-78.980468-19.558594-22.03125-45.492188-37.40625-73.796875-43.933594zm-42.386719-8.863281c0-.277344.019532-.546876.039063-.816407.019531-.222656.042969-.453125.078125-.703125.003906-.023437.003906-.050781.007812-.074218.777344-5.382813 5.40625-9.535157 10.996094-9.535157 6.136719 0 11.125 4.992188 11.125 11.128907v35.601562c0 .460938-.039062.910156-.09375 1.351562-.019531.179688-.050781.355469-.078125.53125-.046875.261719-.101563.527344-.167969.789063-1.199218 4.847656-5.574218 8.457031-10.785156 8.457031-4.980469 0-9.210938-3.292968-10.621094-7.816406-.019531-.078125-.03125-.15625-.050781-.230469-.140625-.488281-.242187-.964843-.316406-1.429687-.011719-.078125-.023438-.152344-.035157-.226563-.023437-.167969-.039062-.332031-.054687-.496093-.023437-.308594-.046875-.617188-.046875-.929688v-35.601562zm-20.144531 8.875v24.417968c-57.324219 13.175782-101 61.546875-108.25 119.855469h-23.996094c7.589844-71.175781 62.066407-130.535156 132.246094-144.273437zm-140.835937 191.476562c-7.449219 0-13.507813-6.0625-13.507813-13.515625 0-6.976563 5.289063-12.738281 12.058594-13.464844.042969-.003906.085937-.007812.128906-.011719.4375-.042968.875-.070312 1.320313-.070312h39.640624c.441407 0 .875.027344 1.304688.066406.054688.007813.105469.015625.164062.019532 6.761719.734374 12.042969 6.488281 12.042969 13.460937 0 7.453125-6.0625 13.515625-13.511719 13.515625zm51.652343 227.738281v-209.820312c12.640625-4.851563 21.636719-17.105469 21.636719-31.433594 0-13.996094-8.570312-26.023437-20.734375-31.101563 6.199219-50.234374 43.953125-91.875 93.441406-102.953124 5.597657 8.480468 15.207031 14.09375 26.105469 14.09375 10.902344 0 20.511719-5.617188 26.109375-14.101563 50.859375 11.324219 88.820313 54.285156 93.789063 106.066406-12.101563 5.113281-20.617188 17.105469-20.617188 31.046875 0 14.140625 8.777344 26.265625 21.167969 31.242188v206.960937zm284.921875 20.53125c0 6.597657-5.363281 11.960938-11.957031 11.960938-6.578125 0-11.925781-5.363281-11.925781-11.960938v-225.074219h23.882812zm8.101563-245.21875h-39.613281c-7.464844 0-13.539063-6.0625-13.539063-13.515625 0-7.46875 6.074219-13.542968 13.539063-13.542968h39.613281c7.460937 0 13.535156 6.074218 13.535156 13.542968 0 7.453125-6.074219 13.515625-13.535156 13.515625zm0 0"/><path d="m31.734375 350.527344c5.5625 0 10.070313-4.511719 10.070313-10.074219v-.191406c0-5.5625-4.507813-10.070313-10.070313-10.070313-5.558594 0-10.070313 4.507813-10.070313 10.070313v.191406c0 5.5625 4.511719 10.074219 10.070313 10.074219zm0 0"/><path d="m187.136719 383.6875c5.5625 0 10.070312-4.507812 10.070312-10.070312v-.195313c0-5.5625-4.507812-10.070313-10.070312-10.070313s-10.070313 4.507813-10.070313 10.070313v.195313c0 5.558593 4.507813 10.070312 10.070313 10.070312zm0 0"/><path d="m227.390625 383.6875c5.558594 0 10.070313-4.507812 10.070313-10.070312v-.195313c0-5.5625-4.511719-10.070313-10.070313-10.070313-5.5625 0-10.070313 4.507813-10.070313 10.070313v.195313c-.003906 5.558593 4.507813 10.070312 10.070313 10.070312zm0 0"/><path d="m276.015625 323.777344h-141.195313c-8 0-14.507812 6.511718-14.507812 14.511718v9.4375c0 46.941407 38.175781 85.132813 85.105469 85.132813 46.929687 0 85.109375-38.191406 85.109375-85.132813v-9.4375c0-8-6.511719-14.511718-14.511719-14.511718zm-5.628906 23.949218c0 35.835938-29.144531 64.988282-64.96875 64.988282s-64.96875-29.152344-64.96875-64.988282v-3.804687h129.9375zm0 0"/><path d="m267.890625 240.78125h-124.945313c-16.671874 0-30.234374 13.554688-30.234374 30.21875 0 16.675781 13.5625 30.242188 30.234374 30.242188h124.945313c16.671875 0 30.238281-13.566407 30.238281-30.242188 0-16.664062-13.566406-30.21875-30.238281-30.21875zm0 40.320312h-124.945313c-5.566406 0-10.09375-4.53125-10.09375-10.105468 0-5.554688 4.527344-10.074219 10.09375-10.074219h124.945313c5.566406 0 10.09375 4.519531 10.09375 10.074219.003906 5.574218-4.527344 10.105468-10.09375 10.105468zm0 0"/></svg>
