<svg id="icon" height="512pt" viewBox="0 0 512.00013 512" width="512pt" xmlns="http://www.w3.org/2000/svg"><g fill-rule="evenodd"><path d="m287.515625 299.246094-68.570313-68.601563-60.210937-60.183593c26.351563-23.464844 49.332031-22.359376 68.710937-17.796876.027344 8.105469 3.089844 16.179688 9.238282 22.300782l100.363281 100.394531c6.148437 6.121094 14.222656 9.210937 22.300781 9.210937 4.558594 19.378907 5.695313 42.390626-17.765625 68.714844zm0 0" fill="#e8e7e9"/><path d="m337.046875 275.359375-100.363281-100.394531c-6.148438-6.121094-9.210938-14.195313-9.238282-22.300782-.027343-8.132812 3.0625-16.265624 9.238282-22.441406 12.296875-12.296875 32.414062-12.296875 44.710937 0l6.914063 6.914063 86.566406 86.59375 6.914062 6.886719c12.296876 12.300781 12.296876 32.445312 0 44.742187-6.179687 6.179687-14.308593 9.238281-22.441406 9.238281-8.078125-.027344-16.152344-3.117187-22.300781-9.238281zm0 0" fill="#ffc15a"/><path d="m374.875 223.730469-86.566406-86.59375c27.230468-36.300781 66.5625-60.160157 111.160156-78.550781l53.949219 53.980468c-18.386719 44.601563-42.21875 83.90625-78.542969 111.164063zm0 0" fill="#e8e7e9"/><path d="m287.515625 299.246094 54.066406 54.039062c-1.53125 1.726563-3.175781 3.457032-4.933593 5.214844l-128.554688 128.558594-183.132812-183.136719 128.558593-128.53125c1.757813-1.757813 3.484375-3.402344 5.214844-4.929687l60.210937 60.183593zm0 0" fill="#d675a7"/><path d="m216.792969 295.140625c13.34375 13.34375 9.148437 39.160156-9.324219 57.664063-18.503906 18.503906-44.316406 22.667968-57.660156 9.320312-13.375-13.34375-9.183594-39.160156 9.320312-57.664062 18.476563-18.503907 44.289063-22.667969 57.664063-9.320313zm0 0" fill="#ffc15a"/><path d="m24.960938 303.921875 183.132812 183.136719c-19.808594 19.808594-52.25 19.808594-72.058594 0l-55.535156-55.539063-55.539062-55.507812c-19.804688-19.835938-19.804688-52.253907 0-72.089844zm0 0" fill="#e8e7e9"/><path d="m453.417969 112.566406-53.949219-53.980468-5.496094-5.46875c-5.582031-5.609376-5.582031-14.792969 0-20.402344l18.417969-18.417969c5.609375-5.609375 14.789063-5.609375 20.402344 0l64.914062 64.945313c5.609375 5.613281 5.609375 14.765624 0 20.375l-18.390625 18.417968c-5.609375 5.613282-14.789062 5.613282-20.398437 0zm0 0" fill="#ffc15a"/></g><path d="m223.914062 288c-8.691406-8.675781-21.691406-12.355469-35.648437-10.097656-12.96875 2.09375-25.851563 8.996094-36.265625 19.429687-12.785156 12.78125-20.109375 28.960938-20.105469 44.378907.007813 10.988281 3.738281 20.519531 10.78125 27.546874 7.007813 7.003907 16.816407 10.757813 27.6875 10.757813 2.597657 0 5.253907-.214844 7.949219-.652344 12.964844-2.09375 25.855469-8.996093 36.292969-19.433593 10.421875-10.4375 17.316406-23.320313 19.414062-36.28125 2.261719-13.972657-1.417969-26.960938-10.097656-35.640626 0-.003906-.003906-.003906-.007813-.007812zm-23.574218 57.671875c-7.355469 7.355469-16.554688 12.375-25.246094 13.78125-4.402344.710937-12.617188 1.078125-18.164062-4.464844-4.015626-4.011719-4.863282-9.4375-4.863282-13.289062-.007812-9.957031 5.300782-21.214844 14.199219-30.113281 9.148437-9.164063 20.601563-14.203126 30.085937-14.203126 5.304688 0 9.992188 1.578126 13.316407 4.890626 9.21875 9.230468 4.945312 29.101562-9.328125 43.398437zm0 0"/><path d="m504.839844 72.113281-64.917969-64.945312c-9.558594-9.558594-25.105469-9.558594-34.664063 0l-18.433593 18.4375c-7.851563 7.890625-9.191407 19.867187-4.050781 29.1875-41.855469 18.753906-72.621094 40.453125-95.328126 67.265625-7.71875-7.191406-17.746093-11.144532-28.40625-11.144532-11.160156 0-21.632812 4.324219-29.488281 12.175782-5.011719 5.015625-8.582031 11.089844-10.515625 17.726562-18.363281-2.546875-40.632812-.316406-64.886718 20.289063-1.011719.484375-1.964844 1.128906-2.800782 1.96875-.542968.542969-1.003906 1.136719-1.398437 1.761719-1.183594 1.101562-2.367188 2.230468-3.558594 3.421874l-128.554687 128.527344c-.003907.003906-.003907.003906-.003907.007813-.003906 0-.003906.003906-.007812.003906-23.765625 23.804687-23.765625 62.535156.007812 86.347656l55.535157 55.507813 55.539062 55.539062c11.484375 11.484375 26.808594 17.808594 43.15625 17.808594 16.351562 0 31.675781-6.324219 43.160156-17.808594l128.554688-128.558594c1.652344-1.652343 3.195312-3.292968 4.675781-4.929687.09375-.089844.195313-.167969.289063-.261719.347656-.347656.652343-.71875.9375-1.101562 21.800781-24.820313 24.144531-47.617188 21.527343-66.347656 6.636719-1.933594 12.707031-5.496094 17.710938-10.5 15.90625-15.910157 16.25-41.570313 1.046875-57.90625 26.8125-22.71875 48.511718-53.488282 67.257812-95.339844 3.6875 2.046875 7.785156 3.089844 11.890625 3.089844 6.28125 0 12.558594-2.390626 17.339844-7.171876l18.386719-18.414062c4.617187-4.617188 7.160156-10.765625 7.160156-17.316406 0-6.550782-2.542969-12.699219-7.160156-17.320313zm-361.671875 407.816407-55.539063-55.542969-55.53125-55.503907c-13.464844-13.480468-15.539062-34.113281-6.238281-49.800781l167.074219 167.082031c-6.230469 3.691407-13.386719 5.664063-20.871094 5.664063-10.960938.003906-21.222656-4.222656-28.894531-11.898437zm197.558593-141.757813-46.082031-46.058594c-3.9375-3.933593-10.324219-3.933593-14.261719.003907-3.9375 3.941406-3.933593 10.324218.003907 14.265624l47.074219 47.046876-119.367188 119.371093-168.871094-168.878906 119.371094-119.34375 53.222656 53.199219c1.96875 1.96875 4.546875 2.953125 7.128906 2.953125 2.582032 0 5.164063-.984375 7.132813-2.957031 3.9375-3.9375 3.933594-10.324219-.003906-14.261719l-52.222657-52.199219c16.417969-11.46875 30.957032-12.414062 44.363282-10.222656 1.621094 7.921875 5.507812 15.1875 11.335937 21.003906l100.363281 100.394531c5.824219 5.824219 13.09375 9.703125 21.019532 11.320313 2.207031 13.410156 1.273437 27.945312-10.207032 44.363281zm33.929688-69.941406c-4.019531 4.023437-9.402344 6.242187-15.152344 6.265625-.097656-.003906-.195312-.007813-.289062-.007813-5.710938-.050781-11.042969-2.265625-15.035156-6.257812l-100.375-100.40625c-4.046876-4.039063-6.277344-9.4375-6.28125-15.207031-.003907-5.78125 2.230468-11.203126 6.289062-15.265626 4.042969-4.042968 9.453125-6.269531 15.226562-6.269531 5.777344 0 11.183594 2.226563 15.226563 6.269531l93.179687 93.183594c.167969.1875.347657.359375.527344.53125l6.683594 6.683594c8.402344 8.402344 8.402344 22.074219 0 30.480469zm1.015625-57.992188-73.882813-73.882812c21.863282-26.292969 52.5-47.429688 95.332032-65.832031l44.378906 44.363281c-18.398438 42.832031-39.535156 73.472656-65.828125 95.351562zm114.898437-117.746093-18.382812 18.414062c-1.664062 1.664062-4.476562 1.664062-6.140625 0l-59.15625-59.132812c-.195313-.214844-.402344-.421876-.617187-.617188l-5.152344-5.148438c-1.664063-1.675781-1.664063-4.503906-.019532-6.160156l18.417969-18.417968c.832031-.832032 1.953125-1.246094 3.074219-1.246094 1.117188 0 2.234375.414062 3.066406 1.246094l64.914063 64.945312s.003906.003906.003906.003906c1.089844 1.089844 1.253906 2.382813 1.253906 3.054688s-.164062 1.960937-1.261719 3.058594zm0 0"/><path d="m259.03125 256.5c-3.9375-3.941406-10.324219-3.941406-14.261719 0-3.9375 3.9375-3.9375 10.320312 0 14.261719l.140625.140625c1.96875 1.96875 4.550782 2.953125 7.132813 2.953125 2.578125 0 5.160156-.984375 7.128906-2.953125 3.9375-3.9375 3.9375-10.324219 0-14.261719zm0 0"/></svg>
