<svg id="icon" height="512pt" viewBox="0 -84 512 512" width="512pt" xmlns="http://www.w3.org/2000/svg"><g fill-rule="evenodd"><path d="m10.085938 90.441406v202.589844c0 22.492188 18.417968 40.886719 40.972656 40.886719h409.882812c22.527344 0 40.972656-18.394531 40.972656-40.886719v-202.589844c0-22.496094-18.445312-40.886718-40.972656-40.886718h-409.882812c-22.554688 0-40.972656 18.390624-40.972656 40.886718zm228.445312 190.566406c-14.140625 0-25.703125-11.546874-25.703125-25.695312v-127.183594c0-14.117187 11.5625-25.664062 25.703125-25.664062h186.707031c14.167969 0 25.730469 11.546875 25.730469 25.664062v127.183594c0 14.148438-11.5625 25.695312-25.730469 25.695312zm0 0" fill="#ff6977"/><path d="m62.734375 49.554688h108.667969v-23.34375c0-8.886719-7.28125-16.128907-16.152344-16.128907h-76.363281c-8.871094 0-16.152344 7.242188-16.152344 16.128907zm0 0" fill="#e8e7e9"/><path d="m256.128906 26.210938v23.34375h65.085938v-23.34375c0-8.886719-7.28125-16.128907-16.152344-16.128907h-32.785156c-8.867188 0-16.148438 7.242188-16.148438 16.128907zm0 0" fill="#e8e7e9"/><path d="m374.148438 26.210938v23.34375h65.085937v-23.34375c0-8.886719-7.253906-16.128907-16.148437-16.128907h-32.785157c-8.871093 0-16.152343 7.242188-16.152343 16.128907zm0 0" fill="#e8e7e9"/><path d="m425.238281 102.464844h-186.707031c-14.140625 0-25.703125 11.542968-25.703125 25.664062v127.183594c0 14.148438 11.5625 25.691406 25.703125 25.691406h186.707031c14.167969 0 25.730469-11.542968 25.730469-25.691406v-127.183594c0-14.117187-11.5625-25.664062-25.730469-25.664062zm0 0" fill="#bdd9ff"/><path d="m385.566406 164.769531c-14.90625 0-26.976562 12.082031-26.976562 26.964844s12.070312 26.964844 26.976562 26.964844c14.933594 0 27.003906-12.082031 27.003906-26.964844s-12.070312-26.964844-27.003906-26.964844zm0 0" fill="#60a4ff"/><path d="m358.589844 191.734375c0-14.882813 12.070312-26.964844 26.976562-26.964844h-107.363281c14.933594 0 27.003906 12.082031 27.003906 26.964844s-12.070312 26.964844-27.003906 26.964844h107.363281c-14.902344 0-26.976562-12.082031-26.976562-26.964844zm0 0" fill="#e8e7e9"/><path d="m305.207031 191.734375c0-14.882813-12.070312-26.964844-27.003906-26.964844-14.90625 0-26.976563 12.082031-26.976563 26.964844s12.070313 26.964844 26.976563 26.964844c14.933594 0 27.003906-12.082031 27.003906-26.964844zm0 0" fill="#60a4ff"/></g><path d="m460.941406 39.472656h-11.621094v-13.261718c0-14.453126-11.769531-26.210938-26.234374-26.210938h-32.785157c-14.46875 0-26.238281 11.757812-26.238281 26.210938v13.261718h-32.761719v-13.261718c0-14.453126-11.769531-26.210938-26.234375-26.210938h-32.785156c-14.46875 0-26.238281 11.757812-26.238281 26.210938v13.261718h-64.554688v-13.261718c0-14.453126-11.769531-26.210938-26.234375-26.210938h-76.367187c-14.46875 0-26.238281 11.757812-26.238281 26.210938v13.261718h-1.589844c-28.152344 0-51.058594 22.863282-51.058594 50.96875v202.589844c0 28.105469 22.90625 50.96875 51.058594 50.96875h409.882812c28.15625 0 51.058594-22.863281 51.058594-50.96875v-202.589844c0-28.105468-22.902344-50.96875-51.058594-50.96875zm-76.710937-13.261718c0-3.277344 2.78125-6.046876 6.070312-6.046876h32.785157c3.34375 0 6.066406 2.714844 6.066406 6.046876v13.261718h-44.921875zm-118.015625 0c0-3.277344 2.777344-6.046876 6.066406-6.046876h32.785156c3.289063 0 6.066406 2.769532 6.066406 6.046876v13.261718h-44.917968zm-193.398438 0c0-3.277344 2.78125-6.046876 6.070313-6.046876h76.363281c3.289062 0 6.066406 2.769532 6.066406 6.046876v13.261718h-88.5zm419.015625 266.820312c0 16.984375-13.859375 30.804688-30.890625 30.804688h-409.882812c-17.03125 0-30.886719-13.820313-30.886719-30.804688v-202.589844c0-16.988281 13.855469-30.804687 30.886719-30.804687h409.882812c17.03125 0 30.886719 13.816406 30.886719 30.804687v202.589844zm0 0"/><path d="m425.238281 92.382812h-186.707031c-19.730469 0-35.785156 16.035157-35.785156 35.746094v127.183594c0 19.726562 16.054687 35.777344 35.785156 35.777344h48.566406c5.570313 0 10.085938-4.515625 10.085938-10.085938 0-5.566406-4.515625-10.082031-10.085938-10.082031h-48.566406c-8.609375 0-15.617188-7-15.617188-15.609375v-127.183594c0-8.589844 7.007813-15.582031 15.617188-15.582031h186.707031c8.625 0 15.644531 6.992187 15.644531 15.582031v127.183594c0 8.574219-7.035156 15.574219-15.6875 15.609375l-48.367187.199219c-5.570313.023437-10.066406 4.554687-10.042969 10.125.019532 5.554687 4.53125 10.042968 10.082032 10.039062h.042968l48.367188-.195312c19.726562-.078125 35.773437-16.128906 35.773437-35.777344v-127.183594c0-19.710937-16.066406-35.746094-35.8125-35.746094zm0 0"/><path d="m422.65625 191.734375c0-20.425781-16.636719-37.046875-37.089844-37.046875h-107.363281c-20.4375 0-37.0625 16.621094-37.0625 37.046875 0 20.429687 16.625 37.046875 37.0625 37.046875h107.363281c20.453125 0 37.089844-16.617188 37.089844-37.046875zm-144.453125 16.882813c-9.316406 0-16.894531-7.570313-16.894531-16.882813 0-9.308594 7.578125-16.882813 16.894531-16.882813 9.328125 0 16.917969 7.574219 16.917969 16.882813 0 9.3125-7.589844 16.882813-16.917969 16.882813zm74.390625 0h-41.394531c2.609375-5.066407 4.089843-10.800782 4.089843-16.882813 0-6.078125-1.480468-11.8125-4.089843-16.882813h41.394531c-2.605469 5.070313-4.085938 10.804688-4.085938 16.882813 0 6.082031 1.480469 11.816406 4.085938 16.882813zm16.082031-16.882813c0-9.308594 7.578125-16.882813 16.890625-16.882813 9.332032 0 16.921875 7.574219 16.921875 16.882813 0 9.3125-7.589843 16.882813-16.921875 16.882813-9.3125 0-16.890625-7.570313-16.890625-16.882813zm0 0"/><path d="m79.847656 203.410156h-16.492187c-5.570313 0-10.082031 4.515625-10.082031 10.085938 0 5.566406 4.511718 10.082031 10.082031 10.082031h16.492187c5.570313 0 10.085938-4.515625 10.085938-10.082031 0-5.570313-4.515625-10.085938-10.085938-10.085938zm0 0"/><path d="m150.09375 203.410156h-16.492188c-5.570312 0-10.082031 4.515625-10.082031 10.085938 0 5.566406 4.511719 10.082031 10.082031 10.082031h16.492188c5.570312 0 10.085938-4.515625 10.085938-10.082031 0-5.570313-4.515626-10.085938-10.085938-10.085938zm0 0"/><path d="m79.847656 159.894531h-16.492187c-5.570313 0-10.082031 4.511719-10.082031 10.082031 0 5.570313 4.511718 10.082032 10.082031 10.082032h16.492187c5.570313 0 10.085938-4.511719 10.085938-10.082032 0-5.570312-4.515625-10.082031-10.085938-10.082031zm0 0"/><path d="m150.09375 159.894531h-16.492188c-5.570312 0-10.082031 4.511719-10.082031 10.082031 0 5.570313 4.511719 10.082032 10.082031 10.082032h16.492188c5.570312 0 10.085938-4.511719 10.085938-10.082032 0-5.570312-4.515626-10.082031-10.085938-10.082031zm0 0"/><path d="m79.847656 246.902344h-16.492187c-5.570313 0-10.082031 4.511718-10.082031 10.082031s4.511718 10.082031 10.082031 10.082031h16.492187c5.570313 0 10.085938-4.511718 10.085938-10.082031s-4.515625-10.082031-10.085938-10.082031zm0 0"/><path d="m150.09375 246.902344h-16.492188c-5.570312 0-10.082031 4.511718-10.082031 10.082031s4.511719 10.082031 10.082031 10.082031h16.492188c5.570312 0 10.085938-4.511718 10.085938-10.082031s-4.515626-10.082031-10.085938-10.082031zm0 0"/><path d="m79.847656 116.378906h-16.492187c-5.570313 0-10.082031 4.511719-10.082031 10.082032 0 5.566406 4.511718 10.082031 10.082031 10.082031h16.492187c5.570313 0 10.085938-4.515625 10.085938-10.082031 0-5.570313-4.515625-10.082032-10.085938-10.082032zm0 0"/><path d="m150.09375 116.378906h-16.492188c-5.570312 0-10.082031 4.511719-10.082031 10.082032 0 5.566406 4.511719 10.082031 10.082031 10.082031h16.492188c5.570312 0 10.085938-4.515625 10.085938-10.082031 0-5.570313-4.515626-10.082032-10.085938-10.082032zm0 0"/><path d="m332.097656 270.921875h-.199218c-5.570313 0-10.082032 4.515625-10.082032 10.085937 0 5.566407 4.511719 10.082032 10.082032 10.082032h.199218c5.566406 0 10.082032-4.515625 10.082032-10.082032 0-5.570312-4.515626-10.085937-10.082032-10.085937zm0 0"/></svg>
