<svg id="icon" height="512pt" viewBox="-114 0 512 512.00092" width="512pt" xmlns="http://www.w3.org/2000/svg"><g fill-rule="evenodd"><path d="m249.386719 219.914062c6.234375-82.691406-41.945313-129.335937-22.078125-158.410156 14.144531-20.683594-6.859375-21.875-37.382813-7.988281-14.710937 6.6875-31.660156 16.886719-47.925781 30.09375-27.578125 22.359375-53.3125 53.359375-63.289062 90.59375-13.488282 50.273437 13.917968 101.707031 60.851562 114.257813.792969.226562 1.617188.425781 2.4375.625 46.507812 10.9375 103.558594-18.164063 107.386719-69.171876zm0 0" fill="#f0cedf"/><path d="m78.710938 174.203125c9.976562-37.234375 35.710937-68.234375 63.289062-90.59375-9.324219-7.566406-18.847656-14.113281-28.058594-19.613281-10.230468-6.121094-20.066406-10.878906-28.765625-14.195313-25.507812-9.746093-41.210937-6.914062-28.484375 11.703125 19.867188 29.074219-28.316406 75.71875-22.109375 158.40625 3.855469 51.007813 60.878907 80.113282 107.417969 69.171875-.824219-.195312-1.644531-.394531-2.4375-.621093-46.933594-12.554688-74.339844-63.984376-60.851562-114.257813zm0 0" fill="#e199be"/><path d="m113.941406 64c9.210938 5.496094 18.734375 12.042969 28.058594 19.609375 16.265625-13.207031 33.214844-23.40625 47.925781-30.09375-6.71875-12.386719-10.742187-22.332031-6.605469-31.65625 9.609376-21.621094-19.074218-11.730469-46.761718 15.164063-7.9375 7.707031-15.757813 16.800781-22.617188 26.976562zm0 0" fill="#d675a7"/><path d="m113.941406 64c6.859375-10.175781 14.679688-19.269531 22.617188-26.976562-27.664063-26.894532-56.34375-36.785157-46.765625-15.164063 3.742187 8.390625.878906 17.230469-4.617188 27.941406 8.699219 3.316407 18.535157 8.078125 28.765625 14.199219zm0 0" fill="#d675a7"/><path d="m10.070312 325.300781v57.722657c0 31.769531 25.988282 57.753906 57.730469 57.753906h74.199219v-57.753906c0-31.738282-25.992188-57.722657-57.734375-57.722657zm0 0" fill="#ff6977"/><path d="m199.730469 325.300781c-31.742188 0-57.730469 25.984375-57.730469 57.722657v57.753906h74.199219c31.742187 0 57.730469-25.988282 57.730469-57.753906v-57.722657zm0 0" fill="#f8a2aa"/></g><path d="m273.929688 315.230469h-74.199219c-18.566407 0-35.40625 7.503906-47.664063 19.632812v-33.921875c3.402344.347656 6.828125.527344 10.265625.527344 20.105469 0 40.519531-5.890625 57.769531-17.09375 21.226563-13.789062 34.925782-34.070312 38.578126-57.105469.871093-5.492187-2.875-10.652343-8.367188-11.523437-5.496094-.878906-10.652344 2.878906-11.523438 8.371094-2.746093 17.324218-13.277343 32.726562-29.65625 43.367187-19.621093 12.746094-45.28125 17.058594-66.96875 11.25-19.976562-5.34375-36.597656-18.835937-46.800781-37.992187-10.324219-19.386719-12.785156-42.089844-6.925781-63.929688 9.226562-34.445312 33.214844-63.675781 59.480469-85.066406.265625-.191406.519531-.398438.765625-.621094 11.84375-9.558594 24.121094-17.53125 35.703125-23.667969 3.3125-1.753906 6.441406-3.289062 9.378906-4.632812.042969-.015625.082031-.039063.125-.054688 12.078125-5.511719 20.921875-7.753906 25.984375-8.292969-.253906.414063-.546875.863282-.878906 1.347657-12.414063 18.179687-4.917969 40.007812 3.761718 65.285156 2.039063 5.941406 4.148438 12.082031 6.191407 18.632813 1.65625 5.3125 7.304687 8.269531 12.613281 6.613281s8.265625-7.304688 6.609375-12.613281c-2.128906-6.828126-4.285156-13.105469-6.371094-19.175782-8.234375-23.980468-12.582031-38.003906-6.175781-47.378906 6.761719-9.902344 8.070312-18.296875 3.894531-24.957031-2.902343-4.625-9.484375-9.667969-24.382812-7.429688-6.144531.925781-13.078125 2.894531-20.460938 5.738281-3.128906-6.996093-3.664062-11.183593-2.152343-14.585937 7.128906-16.039063-1.628907-22.4375-4.484376-24.019531-8.609374-4.765625-21.980468-.710938-39.734374 12.050781-3.101563 2.226563-7.171876 5.363281-11.78125 9.382813-12.714844-10.992188-38.601563-30.464844-52.664063-20.667969-3.117187 2.171875-9.675781 8.78125-3.257813 23.265625 1.265626 2.839844 1.074219 6.289062-.800781 11.34375-15.425781-4.601563-26.417969-4.003906-32.734375 1.816406-4.089844 3.773438-9.363281 12.433594 1.3125 28.0625 6.402344 9.367188 2.058594 23.375-6.171875 47.324219-8.875 25.835937-21.035156 61.214843-17.660156 106.160156 1.804687 23.921875 14.167969 45.425781 34.808594 60.550781 17.882812 13.101563 40.515625 20.195313 62.644531 20.195313 3.328125 0 6.644531-.167969 9.933594-.492188v33.9375c-12.257813-12.128906-29.097656-19.632812-47.664063-19.632812h-74.199219c-5.5625 0-10.070312 4.507812-10.070312 10.070312v57.722657c0 37.398437 30.414062 67.824218 67.800781 67.824218h64.132813v51.082032c0 5.5625 4.507812 10.070312 10.066406 10.070312 5.5625 0 10.070312-4.507812 10.070312-10.070312v-51.082032h64.128907c37.386719 0 67.800781-30.425781 67.800781-67.824218v-57.722657c0-5.5625-4.507812-10.070312-10.070312-10.070312zm-101.515626-292.496094c-2.214843 8.949219.132813 17.710937 3.925782 26.167969-11.375 5.9375-23.148438 13.410156-34.347656 21.910156-4.453126-3.378906-9-6.597656-13.59375-9.632812 4.796874-6.203126 9.792968-11.710938 14.71875-16.523438.226562-.195312.449218-.394531.660156-.613281.0625-.0625.113281-.132813.171875-.195313 10.929687-10.527344 21.417969-17.597656 28.464843-21.113281zm-50.316406 14.722656c-3.65625 3.992188-7.382812 8.410157-11.058594 13.285157-4.171874-2.265626-8.328124-4.351563-12.4375-6.226563 2.640626-7.03125 3.964844-14.328125 2.113282-21.773437 5.382812 2.664062 12.910156 7.464843 21.382812 14.714843zm-77.472656 181.703125c-3.066406-40.808594 7.851562-72.574218 16.625-98.097656 8.675781-25.253906 16.171875-47.066406 3.753906-65.238281-.351562-.515625-.660156-.992188-.929687-1.429688 3.988281.40625 10.003906 1.9375 17.421875 4.769531.113281.042969.222656.089844.335937.128907 7.578125 2.921875 16.597657 7.191406 26.410157 13.003906.023437.015625.050781.039063.074218.054687.128906.085938.265625.144532.394532.226563 5.554687 3.308594 11.359374 7.109375 17.296874 11.4375-22.023437 19.800781-46.753906 49.253906-57.019531 87.578125-7.191406 26.785156-4.136719 54.707031 8.601563 78.621094 5.851562 10.984375 13.414062 20.492187 22.304687 28.242187-10.289062-2.691406-20.128906-7.246093-28.644531-13.484375-15.8125-11.589844-25.269531-27.859375-26.625-45.8125zm-24.488281 163.863282v-47.652344h64.128906c26.285156 0 47.664063 21.378906 47.664063 47.652344v47.679687h-64.128907c-26.28125 0-47.664062-21.386719-47.664062-47.679687zm243.726562 0c0 26.292968-21.382812 47.679687-47.664062 47.679687h-64.132813v-47.679687c0-26.273438 21.382813-47.652344 47.664063-47.652344h64.132812zm0 0"/><path d="m238.527344 181.6875v.195312c0 5.5625 4.507812 10.070313 10.066406 10.070313 5.5625 0 10.070312-4.507813 10.070312-10.070313v-.195312c0-5.5625-4.507812-10.074219-10.070312-10.074219s-10.066406 4.511719-10.066406 10.074219zm0 0"/></svg>
