<svg id="icon" height="512pt" viewBox="-32 0 512 512" width="512pt" xmlns="http://www.w3.org/2000/svg"><path d="m211.023438 10.085938c-300.769532 0-193.855469 244.734374-122.804688 383.992187 73.378906 143.785156 199.164062 143.785156 272.542969 0 71.027343-139.257813 177.964843-383.992187-122.832031-383.992187zm0 0" fill="#60a4ff" fill-rule="evenodd"/><path d="m205.746094 113.070312-43.632813 102.414063 39.960938 40.453125-17.699219 109.699219 110.152344-134.324219-30.292969-33.546875 34.597656-85.238281zm0 0" fill="#ffc15a" fill-rule="evenodd"/><path d="m307.175781 106.871094c-1.875-2.769532-5.003906-4.429688-8.34375-4.429688-.023437 0-.039062 0-.0625 0l-93.082031.546875c-4.019531.023438-7.640625 2.429688-9.21875 6.128907l-43.628906 102.414062c-1.605469 3.765625-.773438 8.128906 2.101562 11.042969l36.363282 36.8125-16.882813 104.640625c-.726563 4.5 1.65625 8.929687 5.808594 10.800781 1.335937.601563 2.742187.894531 4.140625.894531 2.949218 0 5.835937-1.296875 7.796875-3.691406l110.152343-134.324219c3.164063-3.859375 3.03125-9.453125-.3125-13.15625l-26.050781-28.851562 32.214844-79.378907c1.265625-3.121093.890625-6.664062-.996094-9.449218zm-52.28125 87.101562c-1.453125 3.582032-.734375 7.683594 1.859375 10.550782l24.472656 27.105468-80.945312 98.707032 11.746094-72.789063c.511718-3.179687-.523438-6.40625-2.78125-8.695313l-35.203125-35.640624 38.378906-90.09375 71.398437-.417969zm0 0"/><path d="m86.621094 175.875c1.636718.996094 3.445312 1.472656 5.234375 1.472656 3.402343 0 6.722656-1.722656 8.621093-4.84375l14.167969-23.28125c1.4375-2.355468 1.84375-5.199218 1.125-7.863281s-2.496093-4.921875-4.917969-6.238281l-7.351562-4 6.925781-12.828125c2.648438-4.898438.820313-11.019531-4.078125-13.664063-4.898437-2.648437-11.015625-.820312-13.660156 4.082032l-11.703125 21.671874c-2.640625 4.890626-.828125 10.996094 4.054687 13.652344l6.878907 3.742188-8.664063 14.238281c-2.894531 4.757813-1.386718 10.960937 3.367188 13.859375zm0 0"/><path d="m354.601562 175.875c1.640626.996094 3.445313 1.472656 5.234376 1.472656 3.402343 0 6.722656-1.722656 8.621093-4.84375l14.167969-23.28125c1.4375-2.355468 1.84375-5.199218 1.125-7.863281-.714844-2.664063-2.496094-4.921875-4.917969-6.238281l-7.347656-4 6.925781-12.828125c2.644532-4.898438.820313-11.019531-4.078125-13.664063-4.902343-2.648437-11.015625-.820312-13.664062 4.078125l-11.703125 21.675781c-2.640625 4.890626-.828125 10.996094 4.054687 13.652344l6.878907 3.742188-8.664063 14.238281c-2.898437 4.757813-1.386719 10.960937 3.367187 13.859375zm0 0"/><path d="m386.316406 342.332031c-4.980468-2.484375-11.035156-.460937-13.519531 4.523438l-.085937.171875c-2.484376 4.984375-.460938 11.039062 4.523437 13.527344 1.445313.71875 2.980469 1.058593 4.488281 1.058593 3.703125 0 7.269532-2.046875 9.03125-5.585937l.085938-.171875c2.484375-4.984375.460937-11.039063-4.523438-13.523438zm0 0"/><path d="m425.953125 70.511719c-15.15625-22.65625-37.941406-40.078125-67.726563-51.78125-31.625-12.429688-72.097656-18.730469-120.296874-18.730469h-26.90625c-49.65625 0-91.097657 6.691406-123.167969 19.886719-30.128907 12.394531-52.835938 30.824219-67.492188 54.765625-51.457031 84.058594 4.4375 217.3125 58.878907 324.007812 18.585937 36.421875 40.804687 64.777344 66.039062 84.277344 24.953125 19.285156 51.605469 29.0625 79.210938 29.0625 27.605468 0 54.257812-9.777344 79.210937-29.0625 25.234375-19.5 47.453125-47.855469 66.039063-84.277344 2.53125-4.960937.5625-11.03125-4.398438-13.566406-4.957031-2.53125-11.03125-.5625-13.5625 4.398438-33.1875 65.035156-79.585938 102.335937-127.289062 102.335937-47.707032 0-94.101563-37.300781-127.292969-102.335937-22.527344-44.152344-50.339844-102.085938-65.597657-158.648438-16.886718-62.609375-14.882812-111.613281 5.957032-145.660156 26.40625-43.140625 84.769531-65.015625 173.464844-65.015625h26.90625c86.320312 0 143.941406 20.710937 171.265624 61.558593 16.761719 25.058594 22.785157 58.761719 17.90625 100.171876-4.070312 34.578124-15.355468 73.941406-34.496093 120.339843-2.125 5.148438.324219 11.042969 5.472656 13.167969 5.144531 2.125 11.042969-.328125 13.164063-5.476562 44.886718-108.796876 49.699218-187.109376 14.710937-239.417969zm0 0"/></svg>
