<svg id="icon" height="512pt" viewBox="-15 0 512 512" width="512pt" xmlns="http://www.w3.org/2000/svg"><g fill-rule="evenodd"><path d="m298.222656 180.566406c8.585938 0 18.25-7.453125 15.613282-15.640625l-41.082032-127.074219c-12.214844-37.773437-51.199218-36.300781-63.074218 0l-16.234376 49.59375-25.359374 77.480469c-2.660157 8.1875 7.027343 15.640625 15.640624 15.640625zm0 0" fill="#b3b0b5"/><path d="m298.222656 180.566406h-114.496094c-8.582031 0-18.300781-7.453125-15.636718-15.640625l25.355468-77.480469-1.214843.285157c-76.644531 20.375-134.191407 87.59375-140.113281 169.152343-.339844 4.589844-.507813 9.238282-.507813 13.914063 0 19.835937 3.058594 40.46875 8.726563 60.871094 24.167968 87.199219 95.910156 170.261719 180.65625 170.261719 104.578124 0 189.378906-126.535157 189.378906-231.132813 0-87.992187-59.980469-161.953125-141.296875-183.238281-.058594 0-.199219-.027344-.257813-.054688l25.019532 77.421875c2.636718 8.1875-7.027344 15.640625-15.613282 15.640625zm4.476563 67.785156 25.191406-31.597656 25.160156 31.597656 37.089844 14.824219-21.507813 34.34375-2.292968 40.753907-38.449219-10.375-38.476563 10.375-2.269531-40.753907-21.503906-34.34375zm0 0" fill="#ffd4be"/><path d="m302.699219 248.351562-37.058594 14.824219 21.503906 34.34375 2.265625 40.753907 38.480469-10.371094 38.449219 10.371094 2.292968-40.753907 21.503907-34.34375-37.085938-14.824219-25.160156-31.59375zm0 0" fill="#d675a7"/><path d="m60.335938 331.671875c-5.667969-20.40625-8.730469-41.035156-8.730469-60.875 0-4.675781.171875-9.320313.511719-13.914063-3.597657-1.5-7.507813-2.324218-11.617188-2.324218-16.746094 0-30.429688 13.6875-30.429688 30.4375v23.664062c0 14.421875 10.144532 26.582032 23.660157 29.667969 2.238281.511719 4.503906.765625 6.769531.765625 7.539062 0 14.480469-2.804688 19.835938-7.421875zm0 0" fill="#ffbf9e"/><path d="m430.371094 270.796875c0 19.839844-3.058594 40.46875-8.695313 60.875 5.324219 4.617187 12.265625 7.421875 19.832031 7.421875 2.265626 0 4.53125-.253906 6.742188-.765625 13.515625-3.085937 23.6875-15.242187 23.6875-29.667969v-23.664062c0-16.75-13.714844-30.4375-30.429688-30.4375-4.109374 0-8.046874.824218-11.644531 2.324218.339844 4.589844.507813 9.238282.507813 13.914063zm0 0" fill="#ffbf9e"/></g><path d="m441.507812 244.488281c-.9375 0-1.867187.042969-2.792968.105469-10.257813-77.730469-65.566406-143.191406-142-165.363281l-14.378906-44.476563c-6.921876-21.40625-22.558594-34.722656-40.804688-34.753906-.023438 0-.042969 0-.066406 0-18.503906 0-34.351563 13.300781-41.355469 34.71875l-14.535156 44.40625c-20.296875 5.871094-39.417969 14.882812-56.886719 26.8125-4.589844 3.136719-5.773438 9.40625-2.632812 13.996094 1.949218 2.855468 5.109374 4.390625 8.324218 4.390625 1.957032 0 3.933594-.566407 5.671875-1.753907 11.796875-8.058593 24.4375-14.625 37.730469-19.636718l-19.273438 58.875c-1.960937 6.03125-.878906 12.328125 3.046876 17.734375 4.894531 6.738281 13.597656 11.09375 22.171874 11.09375h114.496094c8.535156 0 17.210938-4.339844 22.105469-11.058594 3.9375-5.402344 5.039063-11.703125 3.09375-17.738281 0-.003906 0-.011719-.003906-.015625l-19.019531-58.828125c69.089843 26.046875 115.902343 92.585937 115.902343 167.800781 0 49.476563-19.960937 105.050781-53.394531 148.664063-35.789062 46.6875-80.507812 72.398437-125.914062 72.398437-45.410157 0-90.128907-25.710937-125.917969-72.398437-20.570313-26.832032-36.027344-58.195313-44.886719-89.875-.089844-.425782-.210938-.84375-.355469-1.253907-5.316406-19.398437-8.152343-38.898437-8.152343-57.53125 0-30.3125 7.707031-60.28125 22.289062-86.664062 2.691406-4.867188.925781-10.996094-3.945312-13.6875-4.867188-2.6875-10.996094-.925781-13.683594 3.945312-12 21.707031-19.800782 45.597657-23.058594 70.199219-.921875-.0625-1.847656-.105469-2.78125-.105469-22.332031 0-40.5 18.171875-40.5 40.507813v23.664062c0 18.703125 13.238281 35.308594 31.492188 39.488282 2.957031.675781 5.988281 1.019531 9.007812 1.019531 4.769531 0 9.464844-.855469 13.878906-2.476563 9.886719 30.128906 25.152344 59.515625 44.710938 85.027344 18.640625 24.3125 39.847656 43.644531 63.035156 57.460938 25.425781 15.140624 51.957031 22.820312 78.863281 22.820312 26.910157 0 53.441407-7.679688 78.867188-22.824219 23.1875-13.8125 44.398437-33.144531 63.035156-57.460937 19.558594-25.515625 34.828125-54.902344 44.714844-85.035156 4.421875 1.628906 9.125 2.484374 13.902343 2.484374 3.039063 0 6.066407-.34375 8.988282-1.015624 18.257812-4.175782 31.511718-20.78125 31.511718-39.492188v-23.660156c0-22.335938-18.167968-40.507813-40.5-40.507813zm-143.285156-73.992187h-114.496094c-2.582031 0-5.246093-1.769532-5.933593-2.851563l41.460937-126.660156c4.207032-12.859375 12.714844-20.84375 22.214844-20.84375h.027344c9.367187.015625 17.46875 7.796875 21.675781 20.808594l40.957031 126.683593c-.667968 1.082032-3.324218 2.863282-5.90625 2.863282zm-257.722656 158.527344c-1.511719 0-3.039062-.171876-4.523438-.511719-9.175781-2.101563-15.835937-10.449219-15.835937-19.855469v-23.660156c0-11.230469 9.132813-20.367188 20.359375-20.367188.382812 0 .757812.035156 1.132812.054688-.0625 2.039062-.097656 4.074218-.097656 6.113281 0 18.324219 2.507813 37.390625 7.230469 56.429687-2.585937 1.164063-5.398437 1.796876-8.265625 1.796876zm421.367188-20.363282c0 9.402344-6.671876 17.75-15.882813 19.855469-1.457031.335937-2.960937.507813-4.476563.507813-2.875 0-5.695312-.632813-8.289062-1.808594 4.71875-19.03125 7.222656-38.097656 7.222656-56.414063 0-2.046875-.039062-4.082031-.101562-6.113281.386718-.023438.773437-.054688 1.167968-.054688 11.226563 0 20.359376 9.132813 20.359376 20.363282zm0 0"/><path d="m158.664062 288.765625v-9.695313c0-5.558593-4.507812-10.070312-10.070312-10.070312s-10.070312 4.511719-10.070312 10.070312v9.695313c0 5.558594 4.507812 10.070313 10.070312 10.070313s10.070312-4.511719 10.070312-10.070313zm0 0"/><path d="m279.355469 338.832031c.167969 3.03125 1.695312 5.824219 4.15625 7.601563 2.460937 1.777344 5.589843 2.351562 8.519531 1.5625l35.855469-9.664063 35.828125 9.664063c.863281.234375 1.746094.347656 2.621094.347656 2.097656 0 4.164062-.65625 5.898437-1.90625 2.460937-1.777344 3.988281-4.570312 4.15625-7.597656l2.148437-38.167969 20.132813-32.152344c1.585937-2.53125 1.964844-5.632812 1.039063-8.46875-.925782-2.839843-3.066407-5.121093-5.835938-6.226562l-34.609375-13.832031-23.5-29.511719c-1.910156-2.398438-4.808594-3.796875-7.875-3.796875h-.003906c-3.066407 0-5.964844 1.398437-7.875 3.792968l-23.527344 29.515626-34.585937 13.832031c-2.769532 1.109375-4.90625 3.390625-5.832032 6.226562-.925781 2.835938-.546875 5.9375 1.035156 8.46875l20.128907 32.148438zm27.085937-81.128906c1.621094-.648437 3.046875-1.707031 4.132813-3.070313l17.3125-21.714843 17.285156 21.710937c1.089844 1.367188 2.515625 2.425782 4.140625 3.078125l25.890625 10.34375-15.105469 24.125c-.902344 1.441407-1.425781 3.085938-1.519531 4.777344l-1.597656 28.363281-26.46875-7.140625c-1.714844-.460937-3.527344-.460937-5.242188 0l-26.492187 7.140625-1.578125-28.355468c-.09375-1.695313-.617188-3.34375-1.519531-4.785157l-15.105469-24.125zm0 0"/><path d="m327.890625 298.835938c5.558594 0 10.070313-4.511719 10.070313-10.070313v-9.695313c0-5.558593-4.511719-10.070312-10.070313-10.070312-5.5625 0-10.074219 4.511719-10.074219 10.070312v9.695313c0 5.558594 4.511719 10.070313 10.074219 10.070313zm0 0"/><path d="m240.886719 401.289062c-14.925781.152344-30.761719 1.9375-47.070313 5.308594-5.449218 1.125-8.949218 6.453125-7.824218 11.898438.984374 4.761718 5.175781 8.035156 9.851562 8.035156.675781 0 1.359375-.066406 2.046875-.207031 15.003906-3.101563 29.5-4.746094 43.097656-4.894531 13.625.148437 28.125 1.792968 43.09375 4.890624 5.449219 1.128907 10.777344-2.375 11.902344-7.820312 1.128906-5.445312-2.371094-10.773438-7.820313-11.902344-16.277343-3.371094-32.117187-5.15625-47.070312-5.308594-.070312-.003906-.136719-.003906-.207031 0zm0 0"/><path d="m101.652344 152.578125c2.199218 0 4.414062-.71875 6.269531-2.195313l.144531-.113281c4.347656-3.46875 5.0625-9.804687 1.59375-14.152343-3.464844-4.351563-9.800781-5.066407-14.152344-1.597657l-.140624.113281c-4.347657 3.464844-5.0625 9.804688-1.597657 14.152344 1.988281 2.496094 4.921875 3.792969 7.882813 3.792969zm0 0"/></svg>
