<svg id="icon" height="512pt" viewBox="0 0 512.00006 512" width="512pt" xmlns="http://www.w3.org/2000/svg"><g fill-rule="evenodd"><path d="m34.761719 93.921875c14.425781 14.429687 31.679687 22.914063 46.828125 24.386719l137.691406 137.710937 36.730469-36.707031-137.71875-137.710938c-1.472657-15.152343-9.925781-32.410156-24.382813-46.835937-25.074218-25.078125-58.628906-32.179687-74.988281-15.84375-16.332031 16.359375-9.234375 49.921875 15.839844 75zm0 0" fill="#ffc15a"/><path d="m393.707031 81.601562-137.691406 137.710938-36.730469 36.707031-198.144531 198.199219c-12.636719 12.613281-14.6875 31.195312-4.585937 41.296875 10.097656 10.097656 28.652343 8.050781 41.289062-4.589844l198.171875-198.199219 36.703125-36.707031 137.691406-137.710937c15.148438-1.472656 32.402344-9.957032 46.832032-24.386719 25.070312-25.078125 32.171874-58.640625 15.839843-75-16.359375-16.335937-49.917969-9.238281-74.992187 15.839844-14.457032 14.429687-22.910156 31.6875-24.382813 46.839843zm0 0" fill="#ffd89e"/><path d="m490.859375 454.21875-198.140625-198.199219-36.703125 36.707031 198.140625 198.199219c12.636719 12.640625 31.21875 14.691407 41.289062 4.589844 10.101563-10.101563 8.050782-28.683594-4.585937-41.296875zm0 0" fill="#ffc15a"/></g><path d="m306.957031 256.019531 128.144531-128.160156c17.015626-2.671875 34.773438-12.296875 49.257813-26.816406 29.441406-29.445313 36.402344-68.640625 15.847656-89.234375-.003906-.003906-.007812-.007813-.011719-.011719-20.589843-20.558594-59.78125-13.597656-89.21875 15.839844-14.519531 14.496093-24.148437 32.257812-26.816406 49.273437l-128.144531 128.160156-128.171875-128.160156c-2.667969-17.019531-12.296875-34.777344-26.8125-49.265625-29.441406-29.445312-68.632812-36.410156-89.238281-15.839843-20.554688 20.59375-13.59375 59.792968 15.839843 89.230468 14.496094 14.523438 32.253907 24.152344 49.265626 26.824219l128.160156 128.175781-191.027344 191.054688c-8.863281 8.847656-13.953125 20.484375-13.9609375 31.933594-.0039063 9.183593 3.3203125 17.570312 9.3632815 23.613281 6.261718 6.261719 14.683594 9.324219 23.566406 9.324219 11.035156 0 22.78125-4.730469 31.964844-13.914063l191.0625-191.089844 58.726562 58.5c1.964844 1.957031 4.535156 2.933594 7.105469 2.933594 2.582031 0 5.167969-.988281 7.132813-2.960937 3.925781-3.941407 3.914062-10.316407-.027344-14.242188l-58.699219-58.472656 22.449219-22.453125 191.03125 191.085937c5.035156 5.023438 8.042968 11.632813 8.046875 17.683594 0 2.691406-.601563 6.496094-3.476563 9.371094-2.84375 2.855468-6.628906 3.453125-9.304687 3.457031-.003907 0-.007813 0-.011719 0-6.058594 0-12.683594-3.011719-17.726562-8.054687l-65.351563-65.363282c-3.933594-3.933594-10.308594-3.933594-14.242187 0-3.929688 3.933594-3.929688 10.308594 0 14.242188l65.359374 65.363281c8.863282 8.867187 20.511719 13.953125 31.960938 13.953125h.027344c9.164062-.007812 17.527344-3.335938 23.539062-9.363281 6.042969-6.046875 9.367188-14.429688 9.363282-23.617188-.007813-11.445312-5.09375-23.085937-13.949219-31.921875zm-218.246093-144.832031c-1.652344-1.648438-3.824219-2.675781-6.148438-2.902344-13.34375-1.296875-28.550781-9.324218-40.683594-21.480468-20.746094-20.753907-28-48.582032-15.84375-60.757813 12.183594-12.164063 40.007813-4.914063 60.765625 15.84375 12.148438 12.128906 20.175781 27.335937 21.472657 40.683594.226562 2.324219 1.25 4.496093 2.902343 6.148437l130.601563 130.589844-22.480469 22.480469zm-37.988282 372.617188c-8.574218 8.578124-20.960937 10.679687-27.050781 4.589843-2.867187-2.867187-3.464844-6.671875-3.464844-9.363281.003907-6.050781 3.011719-12.664062 8.054688-17.691406l372.566406-372.617188c1.648437-1.652344 2.675781-3.824218 2.902344-6.148437 1.292969-13.347657 9.320312-28.554688 21.476562-40.691407 13.90625-13.90625 30.988281-21.75 44.414063-21.75 6.605468 0 12.328125 1.902344 16.347656 5.914063 12.144531 12.195313 4.890625 40.011719-15.855469 60.765625-12.125 12.148438-27.332031 20.179688-40.675781 21.476562-2.324219.222657-4.496094 1.25-6.148438 2.898438zm0 0"/><path d="m457.929688 196.273438-17.242188 29.882812-13.957031-8.0625c-4.8125-2.78125-10.972657-1.132812-13.753907 3.683594l-22.273437 38.585937c-2.78125 4.816407-1.132813 10.972657 3.683594 13.753907 1.585937.914062 3.316406 1.351562 5.027343 1.351562 3.476563 0 6.859376-1.804688 8.726563-5.035156l17.242187-29.863282 13.957032 8.0625c1.585937.917969 3.320312 1.351563 5.027344 1.351563 3.480468 0 6.863281-1.804687 8.730468-5.035156 0 0 0 0 0-.003907l22.277344-38.609374c2.777344-4.816407 1.125-10.976563-3.691406-13.753907-4.816406-2.777343-10.976563-1.125-13.753906 3.691407zm0 0"/><path d="m64.707031 244.953125s0 .003906.003907.003906c.035156.066407.082031.121094.121093.183594.074219.113281.144531.234375.214844.320313 1.917969 2.898437 5.101563 4.527343 8.386719 4.527343 1.710937 0 3.445312-.4375 5.03125-1.355469l13.929687-8.054687 17.238281 29.855469c1.867188 3.230468 5.25 5.035156 8.730469 5.035156 1.707031 0 3.4375-.433594 5.023438-1.351562 4.816406-2.777344 6.464843-8.9375 3.683593-13.753907l-22.273437-38.582031c0-.003906-.003906-.003906-.003906-.003906 0-.003906 0-.003906 0-.003906s-.003907-.003907-.003907-.003907c-.144531-.25-.289062-.472656-.433593-.671875-2.953125-4.28125-8.742188-5.648437-13.320313-3l-13.925781 8.054688-17.238281-29.878906c-2.78125-4.816407-8.9375-6.472657-13.753906-3.691407-4.816407 2.78125-6.46875 8.9375-3.6875 13.757813l22.273437 38.609375c.003906 0 .003906 0 .003906.003906zm0 0"/><path d="m355.101562 401.898438c-2.574218 0-5.144531-.980469-7.109374-2.9375l-.144532-.144532c-3.9375-3.925781-3.949218-10.300781-.023437-14.242187 3.925781-3.9375 10.300781-3.949219 14.238281-.023438l.144531.144531c3.941407 3.925782 3.949219 10.300782.023438 14.242188-1.964844 1.972656-4.546875 2.960938-7.128907 2.960938zm0 0"/></svg>
