<svg id="icon" height="512pt" viewBox="-31 0 512 512" width="512pt" xmlns="http://www.w3.org/2000/svg"><g fill-rule="evenodd"><path d="m23.523438 173.976562c-27.640626 47.894532-11.089844 109.703126 36.75 137.375l94.179687 54.414063 45.210937 26.144531 100.429688-174.171875-45.207031-26.144531-94.179688-54.414062c-10.976562-6.371094-22.691406-10.367188-34.570312-12.207032v43.847656c9.277343 6.710938 15.304687 17.648438 15.304687 29.996094 0 20.421875-16.523437 36.992188-36.921875 36.992188-20.425781 0-36.945312-16.570313-36.945312-36.992188 0-12.347656 6.023437-23.28125 15.304687-29.996094v-41.128906c-24.1875 6.941406-45.859375 22.859375-59.355468 46.285156zm0 0" fill="#60a4ff"/><path d="m67.574219 198.816406c0 20.421875 16.519531 36.992188 36.945312 36.992188 20.398438 0 36.921875-16.570313 36.921875-36.992188 0-12.351562-6.027344-23.285156-15.304687-29.996094-6.085938-4.390624-13.550781-6.996093-21.617188-6.996093-8.089843 0-15.558593 2.605469-21.640625 6.996093-9.28125 6.710938-15.304687 17.644532-15.304687 29.996094zm0 0" fill="#ffc15a"/><path d="m82.878906 168.820312c6.082032-4.390624 13.550782-6.996093 21.640625-6.996093 8.0625 0 15.53125 2.605469 21.613281 6.996093v-137.09375c0-11.898437-9.730468-21.640624-21.613281-21.640624-11.910156 0-21.640625 9.742187-21.640625 21.640624zm0 0" fill="#e8e7e9"/><path d="m300.09375 217.738281-100.429688 174.171875 57.882813 71.832032c.085937-.140626.167969-.28125.226563-.394532l135-234.109375c.085937-.144531.171874-.285156.226562-.398437zm0 0" fill="#e8e7e9"/><path d="m392.773438 229.238281-135 234.109375-.226563.394532c-8.628906 15.4375-.339844 29.800781 11.882813 35.523437h22.292968c3.929688-2.070313 7.523438-5.441406 10.351563-10.339844l135.003906-234.082031c16.832031-29.203125-26.988281-54.695312-44.078125-26.003906-.054688.113281-.140625.257812-.195312.371094zm0 0" fill="#ffc15a"/></g><path d="m432.601562 211.273438c-13.613281-7.847657-32.171874-7.449219-44.296874 6.851562l-84.957032-10.152344-43.414062-25.109375c-4.820313-2.789062-10.988282-1.136719-13.773438 3.683594-2.789062 4.820313-1.140625 10.988281 3.679688 13.777344l36.488281 21.101562-90.355469 156.703125-36.476562-21.097656-94.175782-54.410156c-43.15625-24.964844-57.988281-80.410156-33.058593-123.613282 9.417969-16.347656 23.539062-29.105468 40.535156-36.863281v21.953125c-9.398437 8.613282-15.304687 20.988282-15.304687 34.71875 0 25.960938 21.097656 47.078125 47.027343 47.078125 25.933594 0 47.03125-21.117187 47.03125-47.078125 0-13.746094-5.917969-26.132812-15.332031-34.746094v-26.523437c6.777344 2 13.289062 4.792969 19.457031 8.375l16.519531 9.515625c1.585938.914062 3.316407 1.347656 5.023438 1.347656 3.488281 0 6.878906-1.8125 8.746094-5.054687 2.777344-4.828125 1.117187-10.992188-3.707032-13.769531l-16.492187-9.5c-9.257813-5.378907-19.167969-9.320313-29.550781-11.777344v-84.960938c.003906-17.492187-14.214844-31.722656-31.695313-31.722656-17.492187 0-31.722656 14.230469-31.722656 31.722656v88.644532c-24.535156 8.875-44.949219 25.90625-58.003906 48.566406-30.480469 52.816406-12.339844 120.621094 40.4375 151.152344l94.175781 54.410156 43.582031 25.203125 52.84375 65.578125c-6.144531 17.597656 2.816407 33.773437 16.402344 41.605468 5.675781 3.273438 12.210937 5.117188 18.785156 5.117188 11.183594 0 22.464844-5.335938 29.789063-18.035156l135-234.082032.007812-.007812c11.628906-20.207031 2.15625-39.742188-13.214844-48.601562zm-339.640624-83.347657c0-.007812 0-.015625 0-.023437v-96.179688c0-6.371094 5.183593-11.554687 11.558593-11.554687 6.359375 0 11.535157 5.183593 11.535157 11.554687v121.441406c-.003907.003907-.007813.007813-.011719.007813-3.6875-.933594-7.546875-1.433594-11.519531-1.433594-3.980469 0-7.847657.503907-11.542969 1.441407-.007813-.003907-.011719-.007813-.019531-.011719zm11.558593 43.980469c14.816407 0 26.867188 12.074219 26.867188 26.910156 0 14.835938-12.050781 26.910156-26.867188 26.910156-14.8125 0-26.867187-12.074218-26.867187-26.910156 0-14.835937 12.054687-26.910156 26.867187-26.910156zm200.984375 56.632812 71.132813 8.5-120.476563 208.917969-44.3125-54.996093zm122.835938 21.273438-135 234.074219c-5.636719 9.78125-14.855469 9.085937-21.035156 5.523437-6.203126-3.578125-11.441407-11.230468-5.800782-21.023437l135.003906-234.113281c3.359376-5.824219 7.988282-7.933594 12.488282-7.933594 3.050781 0 6.046875.96875 8.539062 2.40625 6.210938 3.582031 11.457032 11.246094 5.804688 21.066406zm0 0"/><path d="m208.160156 176.097656.144532.113282c1.855468 1.488281 4.082031 2.210937 6.289062 2.210937 2.957031 0 5.886719-1.292969 7.878906-3.785156 3.480469-4.351563 2.773438-10.695313-1.574218-14.175781l-.140626-.113282c-4.347656-3.476562-10.691406-2.773437-14.171874 1.578125-3.476563 4.347657-2.773438 10.695313 1.574218 14.171875zm0 0"/></svg>
