<svg id="icon" height="512pt" viewBox="0 -47 512 512" width="512pt" xmlns="http://www.w3.org/2000/svg"><g fill-rule="evenodd"><path d="m255.984375 10.28125h-219.066406c-14.761719 0-26.832031 12.078125-26.832031 26.847656v100.105469h491.828124v-100.105469c0-14.769531-12.097656-26.847656-26.863281-26.847656zm0 0" fill="#d675a7"/><path d="m427.304688 137.234375h-417.21875v243.804687c0 14.769532 12.070312 26.875 26.832031 26.875h438.132812c14.765625 0 26.863281-12.101562 26.863281-26.875v-243.804687zm0 0" fill="#f9f9f9"/><path d="m128.871094 226.875c0-4.960938-4.054688-8.988281-9.011719-8.988281h-51.855469c-4.957031 0-9.011718 4.027343-9.011718 8.988281v22.199219c0 4.960937 4.054687 9.015625 9.011718 9.015625h51.855469c4.960937 0 9.011719-4.054688 9.011719-9.015625zm0 0" fill="#60a4ff"/><path d="m201.976562 287.882812h-25.925781c-4.960937 0-9.011719 4.054688-9.011719 8.988282v22.226562c0 4.929688 4.050782 8.984375 9.011719 8.984375h51.855469c4.957031 0 8.984375-4.054687 8.984375-8.984375v-22.226562c0-4.933594-4.027344-8.988282-8.984375-8.988282zm0 0" fill="#60a4ff"/><path d="m275.085938 249.070312c0 4.960938 4.050781 9.015626 9.007812 9.015626h51.855469c4.960937 0 8.984375-4.054688 8.984375-9.015626v-22.195312c0-4.960938-4.023438-8.988281-8.984375-8.988281h-51.855469c-4.957031 0-9.007812 4.027343-9.007812 8.988281zm0 0" fill="#60a4ff"/><path d="m383.128906 296.871094v22.226562c0 4.929688 4.054688 8.984375 8.984375 8.984375h51.882813c4.960937 0 8.984375-4.054687 8.984375-8.984375v-22.226562c0-4.933594-4.023438-8.988282-8.984375-8.988282h-51.882813c-4.929687 0-8.984375 4.054688-8.984375 8.988282zm0 0" fill="#60a4ff"/><path d="m86.027344 90.539062h100.507812c8.300782 0 15.128906-6.800781 15.128906-15.136718v-8.304688c0-8.335937-6.828124-15.140625-15.128906-15.140625h-100.507812c-8.332032 0-15.132813 6.804688-15.132813 15.140625v8.304688c0 8.335937 6.800781 15.136718 15.132813 15.136718zm0 0" fill="#60a4ff"/><path d="m277.890625 71.261719c0 12.558593 10.171875 22.738281 22.753906 22.738281 12.550781 0 22.726563-10.179688 22.726563-22.738281 0-12.585938-10.175782-22.765625-22.726563-22.765625-12.582031 0-22.753906 10.179687-22.753906 22.765625zm0 0" fill="#ffc15a"/><path d="m385.625 71.261719c0 12.558593 10.171875 22.738281 22.726562 22.738281 12.550782 0 22.753907-10.179688 22.753907-22.738281 0-12.585938-10.203125-22.765625-22.753907-22.765625-12.554687 0-22.726562 10.179687-22.726562 22.765625zm0 0" fill="#ffc15a"/></g><path d="m119.859375 207.804688h-15.84375v-30.910157c0-5.570312-4.515625-10.085937-10.085937-10.085937-5.570313 0-10.082032 4.515625-10.082032 10.085937v30.910157h-15.84375c-10.53125 0-19.097656 8.554687-19.097656 19.070312v22.199219c0 10.53125 8.566406 19.097656 19.097656 19.097656h15.84375v99.941406c0 5.570313 4.515625 10.082031 10.085938 10.082031 5.570312 0 10.082031-4.511718 10.082031-10.082031v-99.941406h15.84375c10.53125 0 19.097656-8.566406 19.097656-19.097656v-22.199219c-.003906-10.515625-8.566406-19.070312-19.097656-19.070312zm-1.074219 40.199218h-49.707031v-20.03125h49.707031zm0 0"/><path d="m186.535156 41.871094h-100.507812c-13.90625 0-25.21875 11.316406-25.21875 25.222656v8.308594c0 13.90625 11.3125 25.222656 25.21875 25.222656h100.507812c13.902344 0 25.214844-11.316406 25.214844-25.222656v-8.308594c0-13.90625-11.3125-25.222656-25.214844-25.222656zm5.042969 33.53125c0 2.738281-2.308594 5.054687-5.046875 5.054687h-100.503906c-2.785156 0-5.046875-2.269531-5.046875-5.054687v-8.304688c0-2.789062 2.261719-5.058594 5.046875-5.058594h100.507812c2.734375 0 5.046875 2.316407 5.046875 5.058594v8.304688zm0 0"/><path d="m300.644531 104.082031c18.089844 0 32.808594-14.722656 32.808594-32.820312 0-18.113281-14.71875-32.847657-32.808594-32.847657-18.109375 0-32.839843 14.734376-32.839843 32.847657 0 18.097656 14.730468 32.820312 32.839843 32.820312zm0-45.5c6.96875 0 12.640625 5.6875 12.640625 12.679688 0 6.976562-5.671875 12.652343-12.640625 12.652343-6.988281 0-12.667969-5.675781-12.667969-12.652343 0-6.992188 5.679688-12.679688 12.667969-12.679688zm0 0"/><path d="m441.1875 71.261719c0-18.113281-14.730469-32.847657-32.839844-32.847657-18.089844 0-32.808594 14.734376-32.808594 32.847657 0 18.097656 14.71875 32.824219 32.808594 32.824219 18.109375-.003907 32.839844-14.726563 32.839844-32.824219zm-45.476562 0c0-6.992188 5.667968-12.679688 12.640624-12.679688 6.984376 0 12.667969 5.6875 12.667969 12.679688 0 6.976562-5.683593 12.652343-12.667969 12.652343-6.972656 0-12.640624-5.675781-12.640624-12.652343zm0 0"/><path d="m335.949219 207.804688h-15.84375v-30.910157c0-5.570312-4.511719-10.085937-10.082031-10.085937-5.570313 0-10.085938 4.515625-10.085938 10.085937v30.910157h-15.84375c-10.53125 0-19.097656 8.554687-19.097656 19.070312v22.199219c0 10.53125 8.566406 19.097656 19.097656 19.097656h15.84375v99.941406c0 5.570313 4.515625 10.082031 10.085938 10.082031 5.570312 0 10.082031-4.511718 10.082031-10.082031v-99.941406h15.84375c10.515625 0 19.070312-8.566406 19.070312-19.097656v-22.199219c0-10.515625-8.554687-19.070312-19.070312-19.070312zm-1.101563 40.199218h-49.679687v-20.03125h49.679687zm0 0"/><path d="m443.996094 277.800781h-15.84375v-100.90625c0-5.570312-4.515625-10.085937-10.085938-10.085937-5.570312 0-10.082031 4.515625-10.082031 10.085937v100.90625h-15.871094c-10.515625 0-19.070312 8.554688-19.070312 19.070313v22.226562c0 10.515625 8.554687 19.070313 19.070312 19.070313h15.871094v29.945312c0 5.570313 4.511719 10.082031 10.082031 10.082031 5.570313 0 10.085938-4.511718 10.085938-10.082031v-29.945312h15.84375c10.511718 0 19.066406-8.554688 19.066406-19.070313v-22.226562c0-10.515625-8.550781-19.070313-19.066406-19.070313zm-1.101563 40.199219h-49.679687v-20.03125h49.679687zm0 0"/><path d="m227.90625 277.800781h-15.84375v-100.90625c0-5.570312-4.515625-10.085937-10.085938-10.085937-5.570312 0-10.085937 4.515625-10.085937 10.085937v100.90625h-15.839844c-10.53125 0-19.097656 8.554688-19.097656 19.070313v22.226562c0 10.515625 8.566406 19.070313 19.097656 19.070313h15.84375v29.945312c0 5.570313 4.511719 10.082031 10.082031 10.082031 5.570313 0 10.085938-4.511718 10.085938-10.082031v-29.945312h15.84375c10.515625 0 19.066406-8.554688 19.066406-19.070313v-22.226562c0-10.515625-8.554687-19.070313-19.066406-19.070313zm-1.101562 40.199219h-49.679688v-20.03125h49.679688zm0 0"/><path d="m501.128906 11.003906c-6.984375-6.972656-16.222656-10.804687-26.015625-10.804687-.023437 0-.046875 0-.070312 0l-174.269531.167969c-5.570313.003906-10.078126 4.527343-10.074219 10.09375.003906 5.566406 4.519531 10.074218 10.085937 10.074218h.011719l174.273437-.167968h.035157c4.417969 0 8.601562 1.742187 11.773437 4.910156 3.191406 3.1875 4.949219 7.394531 4.949219 11.851562v90.019532h-471.65625v-90.019532c0-9.242187 7.511719-16.761718 16.75-16.761718h174.09375c5.570313 0 10.085937-4.515626 10.085937-10.085938 0-5.566406-4.515624-10.082031-10.085937-10.082031h-174.097656c-20.355469 0-36.917969 16.566406-36.917969 36.929687v343.910156c0 20.382813 16.5625 36.960938 36.917969 36.960938h438.132812c20.375 0 36.949219-16.578125 36.949219-36.960938v-343.910156c0-9.851562-3.859375-19.128906-10.871094-26.125zm-26.078125 386.828125h-438.132812c-9.234375 0-16.75-7.53125-16.75-16.792969v-233.722656h471.660156v233.722656c0 9.261719-7.523437 16.792969-16.777344 16.792969zm0 0"/><path d="m256.183594 20.167969h.199218c5.570313 0 10.085938-4.515625 10.085938-10.082031 0-5.570313-4.515625-10.085938-10.085938-10.085938h-.199218c-5.570313 0-10.085938 4.515625-10.085938 10.085938 0 5.566406 4.515625 10.082031 10.085938 10.082031zm0 0"/></svg>
