<svg id="icon" enable-background="new 0 0 128 128" height="512" viewBox="0 0 128 128" width="512" xmlns="http://www.w3.org/2000/svg"><path d="m55.1 76h5.1v42.5h-5.1z" fill="#ebecee"/><path d="m85.5 33.4v22.6c0 15.4-12.5 27.9-27.9 27.9-1.4 0-2.8-.1-4.2-.3-13.6-2.1-23.7-13.8-23.7-27.6v-22.6z" fill="#ebecee"/><path d="m85.5 50.7v5.3c0 15.4-12.5 27.9-27.9 27.9-1.4 0-2.8-.1-4.2-.3-13.6-2.1-23.7-13.8-23.7-27.6v-6.7c7.8 2.8 18.2 4.9 27.9 2 7.4-2.2 14-3 19.6-2.5 2.9.2 5.7.9 8.3 1.9z" fill="#ff8f2b"/><g fill="#612c00"><path d="m39.9 116.8h-1c-1 0-1.8.8-1.8 1.8s.8 1.8 1.8 1.8h1c1 0 1.8-.8 1.8-1.8s-.9-1.8-1.8-1.8z"/><path d="m57.6 51.3c-.2-.9-1.2-1.5-2.1-1.3-.3.1-.6.1-.8.2-.9.2-1.6 1.1-1.4 2.1.2.9 1.1 1.6 2.1 1.4.3-.1.6-.1.9-.2 1-.3 1.6-1.2 1.3-2.2z"/><path d="m98.3 7.8h-14.6c-3.6 0-6.9 2.3-8.2 5.7l-6.9 18.2h-38.9c-1 0-1.7.8-1.8 1.7v22.6c0 14.7 10.8 27.2 25.3 29.3v31.4h-8.2c-1 0-1.8.8-1.8 1.8s.8 1.8 1.8 1.8h31.3c1 0 1.8-.8 1.8-1.8s-.8-1.8-1.8-1.8h-14.4v-26c0-1-.8-1.8-1.8-1.8s-1.8.8-1.8 1.8v26h-1.6v-31.1h.8c16.5 0 29.8-13.3 29.8-29.6v-22.6c0-1-.8-1.8-1.8-1.8h-13.1l6.4-17c.8-2 2.7-3.4 4.9-3.4h14.6c1 0 1.8-.8 1.8-1.8s-.8-1.6-1.8-1.6zm-40.7 74.3c-14.4 0-26.1-11.7-26.2-26.2v-4.2c5.2 1.7 10.7 2.6 16.2 2.7h1.9c1 0 1.7-.9 1.7-1.8 0-1-.9-1.7-1.8-1.7-6.1.2-12.2-.8-18-2.8v-13h35.8l-11.2 30.1c-.3.9.1 1.9 1 2.3.9.3 1.9-.1 2.3-1l5.7-15.1c7.2-1.3 13.6-1.1 18.8.6v4c0 14.4-11.7 26.1-26.2 26.1zm26.2-47v13.1c-5.7-1.5-11.6-1.7-17.4-.7l4.6-12.4z"/></g></svg>
