<svg id="icon" enable-background="new 0 0 128 128" height="512" viewBox="0 0 128 128" width="512" xmlns="http://www.w3.org/2000/svg"><path d="m118.5 49.7-22.2 15.6v50.4h-64.6v-50.4l-3.5-2.5-18.7-13.1 18.7-26.7c2.1-3.1 5.6-4.9 9.4-4.9h52.9c3.7 0 7.2 1.8 9.4 4.9z" fill="#5dbd52"/><path d="m118.5 49.7-22.2 15.6v50.4h-31.5l-.8-77.8 14.5-19.7h12c3.7 0 7.2 1.8 9.4 4.9l2.5 3.6z" fill="#4b9641"/><path d="m49.5 18.1 4.8-5.7 9.7 12.8v12.7z" fill="#ffda2d"/><path d="m78.5 18.1-4.8-5.7-9.7 12.8v12.7z" fill="#ffda2d"/><path d="m54.3 12.4h19.4l-9.7 12.8z" fill="#4b9641"/><g fill="#ffda2d"><path d="m52.2 36c0-1-1.2-1.9-2.9-2.2 1-1.4 1.2-2.8.5-3.5s-2.2-.5-3.5.5c-.3-1.6-1.1-2.8-2.1-2.8s-1.9 1.2-2.2 2.9c-1.4-1-2.8-1.2-3.5-.5s-.5 2.1.5 3.5c-1.7.3-2.9 1.1-2.9 2.2s1.2 1.9 2.9 2.2c-1 1.4-1.2 2.8-.5 3.5s2.2.5 3.5-.5c.3 1.7 1.1 2.9 2.2 2.9s1.9-1.2 2.2-2.9c1.4 1 2.8 1.2 3.5.5s.5-2.2-.5-3.5c1.6-.4 2.8-1.2 2.8-2.3z"/><path d="m85.2 94.7c0-1-1.2-1.9-2.9-2.2 1-1.4 1.2-2.8.5-3.5s-2.2-.5-3.5.5c-.3-1.7-1.1-2.9-2.2-2.9s-1.9 1.2-2.2 2.9c-1.4-1-2.8-1.2-3.5-.5s-.5 2.2.5 3.5c-1.7.3-2.9 1.1-2.9 2.2s1.2 1.9 2.9 2.2c-1 1.4-1.2 2.8-.5 3.5s2.2.5 3.5-.5c.3 1.7 1.1 2.9 2.2 2.9s1.9-1.2 2.2-2.9c1.4 1 2.8 1.2 3.5.5s.5-2.2-.5-3.5c1.7-.4 2.9-1.2 2.9-2.2z"/><path d="m40.7 103.1c1.2 1.7 1.5 3.4.6 4.3s-2.6.6-4.3-.6c-.3 2-1.4 3.4-2.6 3.4s-2.3-1.4-2.6-3.4l-.1.1v-12.7l.1.1c.3-2 1.4-3.4 2.6-3.4s2.3 1.4 2.6 3.4c1.7-1.2 3.4-1.5 4.3-.6s.6 2.6-.6 4.3c2 .3 3.5 1.4 3.5 2.6s-1.5 2.2-3.5 2.5z"/><path d="m102 28.3c-.7.7-2.2.5-3.5-.5-.3 1.7-1.1 2.9-2.2 2.9s-1.9-1.2-2.2-2.9c-1.4 1-2.8 1.2-3.5.5s-.5-2.2.5-3.5c-1.7-.3-2.8-1.1-2.8-2.2s1.2-1.9 2.8-2.2c-.5-.7-.8-1.4-.9-2.2h.3c3.7 0 7.2 1.8 9.4 4.9l2.5 3.6c.1.5 0 1.1-.4 1.6z"/><path d="m59.1 66.9c0-1-1.2-1.9-2.9-2.2 1-1.4 1.2-2.8.5-3.5s-2.2-.5-3.5.5c-.3-1.7-1.1-2.9-2.2-2.9s-1.9 1.2-2.2 2.9c-1.4-1-2.8-1.2-3.5-.5s-.5 2.2.5 3.5c-1.6.3-2.8 1.2-2.8 2.2s1.2 1.9 2.9 2.2c-1 1.4-1.2 2.8-.5 3.5s2.2.5 3.5-.5c.3 1.7 1.1 2.9 2.2 2.9s1.9-1.2 2.2-2.9c1.4 1 2.8 1.2 3.5.5s.5-2.2-.5-3.5c1.6-.3 2.8-1.2 2.8-2.2z"/><path d="m93.4 54.6c0-1.2-1.4-2.2-3.3-2.5 1.1-1.6 1.4-3.3.6-4.1s-2.5-.5-4.1.6c-.3-1.9-1.3-3.3-2.5-3.3s-2.2 1.4-2.5 3.3c-1.6-1.1-3.3-1.4-4.1-.6s-.5 2.5.6 4.1c-1.9.3-3.3 1.3-3.3 2.5s1.4 2.2 3.3 2.5c-1.1 1.6-1.4 3.3-.6 4.1s2.5.5 4.1-.6c.3 1.9 1.3 3.3 2.5 3.3s2.2-1.4 2.5-3.3c1.6 1.1 3.3 1.4 4.1.6s.5-2.5-.6-4.1c1.9-.3 3.3-1.3 3.3-2.5z"/></g><path d="m119.9 48.7-18.6-26.7c-2.5-3.5-6.5-5.6-10.8-5.6h-11.2l-4.3-5.1c-.3-.4-.8-.6-1.3-.6h-19.4c-.5 0-1 .2-1.3.6l-4.8 5.7c-.5.6-.5 1.5-.1 2.2l14.5 19.7c.1.1.6.7 1.4.7.9 0 1.3-.6 1.4-.7l14-19h8.4c-.8.6-1.4 1.6-1.4 2.7.1 1.4.9 2.6 2.2 3.2-.8 1.7 0 3.7 1.7 4.5.9.4 1.9.4 2.7 0 .6 1.3 1.8 2.1 3.2 2.2 1.4-.1 2.6-.9 3.2-2.2 1 .4 2.2.3 3.1-.2l13.5 19.3-13 9.1c-.8.5-1 1.6-.5 2.4s1.6 1 2.4.5h.1l14.5-10.1c.8-.7 1-1.8.4-2.6zm-55.9-26.4-6.2-8.1h12.3zm-9.7-7.1 8 10.6v6.8l-10.6-14.4zm11.5 17.3v-6.8l8-10.6 2.5 3zm33.6-6.2c-.8-.6-1.9-.4-2.4.4-.2.2-.3.5-.3.7-.1.4-.2.9-.4 1.2-.2-.4-.4-.8-.4-1.2-.2-1-1.1-1.6-2-1.4-.3 0-.5.1-.7.3-.3.3-.7.5-1.2.6.1-.4.3-.8.6-1.2.6-.8.4-1.9-.4-2.4-.2-.1-.5-.2-.7-.3-.4-.1-.9-.2-1.2-.4.4-.2.8-.4 1.2-.4.9-.2 1.5-1 1.4-1.9 2.3.6 4.3 1.9 5.6 3.9l2 2.8c-.5-.3-.8-.5-1.1-.7z" fill="#612c00"/><path d="m30 40.1v1.5c0 1 .8 1.8 1.7 1.8 1 0 1.8-.8 1.8-1.7v-1.5c0-1-.8-1.8-1.8-1.8-.9 0-1.7.7-1.7 1.7z" fill="#612c00"/><path d="m96.3 38.4c-1 0-1.8.8-1.8 1.8v12.5c-.5-.7-1.2-1.3-2-1.6.9-1.8.2-4.1-1.6-5-1.1-.6-2.3-.6-3.4 0-.6-2-2.7-3-4.7-2.4-1.1.4-2 1.3-2.4 2.4-1.8-.9-4.1-.2-5 1.6-.6 1.1-.6 2.3 0 3.4-2 .6-3 2.7-2.4 4.7.4 1.1 1.3 2 2.4 2.4-.9 1.8-.2 4.1 1.6 5 1.1.6 2.3.6 3.4 0 .6 2 2.7 3 4.7 2.4 1.1-.4 2-1.3 2.4-2.4 1.8.9 4.1.2 5-1.6.6-1.1.6-2.3 0-3.4.8-.4 1.5-.9 2-1.6v57.4h-28l-.8-68.8c0-1-.8-1.7-1.8-1.7-1 0-1.7.8-1.7 1.8l.8 68.7h-29.5v-2c.3.1.6.2 1 .2 1.6-.1 3.1-1.2 3.6-2.7 1.9 1 4.2.3 5.1-1.6.6-1.1.6-2.5 0-3.6 2-.6 3.1-2.7 2.5-4.8-.4-1.2-1.3-2.2-2.5-2.5 1-1.9.3-4.2-1.6-5.1-1.1-.6-2.5-.6-3.6 0-.6-1.5-2-2.6-3.6-2.7-.3 0-.6.1-1 .2v-41.8c0-1-.8-1.8-1.8-1.8s-1.8.8-1.8 1.8v14.3l-17.9-12.6 17.7-25.3c1.8-2.6 4.8-4.1 7.9-4.1h4.6c1 0 1.8-.8 1.8-1.8s-.8-1.8-1.8-1.8h-4.6c-4.3 0-8.3 2.1-10.8 5.6l-18.6 26.8c-.6.8-.4 1.9.4 2.4l21.5 15.1v49.4c0 1 .8 1.8 1.8 1.8h64.5c1 0 1.8-.8 1.8-1.8v-75.5c-.1-.9-.9-1.7-1.8-1.7zm-6.5 17c-1 .2-1.6 1.1-1.4 2 0 .3.1.5.3.7.4.5.7 1.2.7 1.9-.7 0-1.3-.3-1.9-.7-.8-.6-1.9-.4-2.4.4-.2.2-.3.5-.3.7-.1.7-.3 1.3-.8 1.9-.5-.5-.7-1.2-.8-1.9-.2-1-1.1-1.6-2-1.4-.3 0-.5.1-.7.3-.5.4-1.2.7-1.9.7.1-.7.3-1.3.7-1.9.6-.8.4-1.9-.4-2.4-.2-.2-.5-.3-.7-.3-.7-.1-1.3-.3-1.9-.8.5-.5 1.2-.7 1.9-.8 1-.2 1.6-1.1 1.4-2 0-.3-.1-.5-.3-.7-.4-.5-.7-1.2-.7-1.9.7 0 1.3.3 1.9.7.8.6 1.9.4 2.4-.4.2-.2.3-.5.3-.7.1-.7.3-1.3.8-1.9.5.5.7 1.2.8 1.9.2 1 1.1 1.6 2 1.4.3 0 .5-.1.7-.3.5-.4 1.2-.7 1.9-.7-.1.7-.3 1.3-.7 1.9-.6.8-.4 1.9.4 2.4.2.2.5.3.7.3.7.1 1.3.3 1.9.8-.6.4-1.3.7-1.9.8zm-56.2 39.1c.1-.7.4-1.4.9-2 .5.5.8 1.2.9 2 .2 1 1.1 1.6 2 1.4.3 0 .5-.1.7-.3.6-.5 1.3-.7 2-.8 0 .7-.3 1.4-.8 2-.6.8-.4 1.9.4 2.4.2.1.5.2.7.3.7.1 1.4.4 2 .9-.5.5-1.2.8-2 .9-1 .2-1.6 1.1-1.4 2 0 .3.1.5.3.7.5.6.7 1.3.8 2-.7 0-1.4-.3-2-.8-.8-.6-1.9-.4-2.4.4-.2.2-.3.5-.3.7-.1.7-.4 1.4-.8 2-.6-.5-.9-1.2-.9-2 0-.1 0-.1-.1-.2v-11.3c-.1-.1-.1-.2 0-.3z" fill="#612c00"/><path d="m41 28.4c-1.7-.8-3.7 0-4.5 1.7-.4.9-.4 1.9 0 2.7-1.3.6-2.1 1.8-2.2 3.2.1 1.4.9 2.6 2.2 3.2-.8 1.7 0 3.7 1.7 4.5.9.4 1.9.4 2.7 0 .7 1.7 2.7 2.6 4.4 1.9.9-.3 1.6-1 1.9-1.9 1.7.8 3.7 0 4.5-1.7.4-.9.4-1.9 0-2.7 1.3-.6 2.1-1.8 2.2-3.2-.1-1.4-.9-2.6-2.2-3.2.8-1.7 0-3.7-1.7-4.5-.9-.4-1.9-.4-2.7 0-.7-1.7-2.7-2.6-4.4-1.9-.9.3-1.6 1-1.9 1.9zm2.7 2.7c.1-.4.2-.9.4-1.2.2.4.4.8.4 1.2.2 1 1.1 1.6 2 1.4.3 0 .5-.1.7-.3.3-.3.7-.4 1.2-.6-.1.4-.3.8-.6 1.2-.6.8-.4 1.9.4 2.4.2.2.5.3.7.3.4.1.9.2 1.2.4-.4.2-.8.4-1.2.4-1 .2-1.6 1.1-1.4 2 0 .3.1.5.3.7.3.3.4.7.6 1.2-.4-.1-.8-.3-1.2-.6-.8-.6-1.9-.4-2.4.4-.2.2-.3.5-.3.7-.1.4-.2.9-.4 1.2-.2-.4-.4-.8-.4-1.2-.2-1-1.1-1.6-2-1.4-.3 0-.5.1-.7.3-.3.3-.7.4-1.2.6.1-.4.3-.8.6-1.2.6-.8.4-1.9-.4-2.4-.2-.2-.5-.3-.7-.3-.4-.1-.9-.2-1.2-.4.4-.2.8-.4 1.2-.4 1-.2 1.6-1.1 1.4-2 0-.3-.1-.5-.3-.7-.3-.3-.4-.7-.6-1.2.4.1.8.3 1.2.6.8.6 1.9.4 2.4-.4.2-.2.3-.4.3-.7z" fill="#612c00"/><path d="m67.3 94.7c.1 1.4.9 2.6 2.2 3.2-.8 1.7 0 3.7 1.7 4.5.9.4 1.9.4 2.7 0 .7 1.7 2.7 2.6 4.4 1.9.9-.3 1.6-1 1.9-1.9 1.7.8 3.7 0 4.5-1.7.4-.9.4-1.9 0-2.7 1.7-.7 2.6-2.7 1.9-4.4-.3-.9-1-1.6-1.9-1.9.8-1.7 0-3.7-1.7-4.5-.9-.4-1.9-.4-2.7 0-.7-1.7-2.7-2.6-4.4-1.9-.9.3-1.6 1-1.9 1.9-1.7-.8-3.7 0-4.5 1.7-.4.9-.4 1.9 0 2.7-1.3.4-2.1 1.7-2.2 3.1zm4.9-.5c1-.2 1.6-1.1 1.4-2 0-.3-.1-.5-.3-.7-.3-.3-.4-.7-.6-1.2.4.1.8.3 1.2.6.8.6 1.9.4 2.4-.4.2-.2.3-.5.3-.7.1-.4.2-.9.4-1.2.2.4.4.8.4 1.2.2 1 1.1 1.6 2 1.4.3 0 .5-.1.7-.3.3-.3.7-.4 1.2-.6-.1.4-.3.8-.6 1.2-.6.8-.4 1.9.4 2.4.2.2.5.3.7.3.4.1.9.2 1.2.4-.4.2-.8.4-1.2.4-1 .2-1.6 1.1-1.4 2 0 .3.1.5.3.7.3.3.4.7.6 1.2-.4-.1-.8-.3-1.2-.6-.8-.6-1.9-.4-2.4.4-.2.2-.3.5-.3.7-.1.4-.2.9-.4 1.2-.2-.4-.4-.8-.4-1.2-.2-1-1.1-1.6-2-1.4-.3 0-.5.1-.7.3-.3.3-.7.5-1.2.6.1-.4.3-.8.6-1.2.6-.8.4-1.9-.4-2.4-.2-.2-.5-.3-.7-.3-.4-.1-.9-.2-1.2-.4.4-.2.8-.3 1.2-.4z" fill="#612c00"/><path d="m58 59.9c-1-.9-2.5-1.2-3.8-.7-.7-1.7-2.7-2.6-4.4-1.9-.9.3-1.6 1-1.9 1.9-1.7-.8-3.7 0-4.5 1.7-.4.9-.4 1.9 0 2.7-1.7.7-2.6 2.7-1.9 4.4.3.9 1 1.6 1.9 1.9-.8 1.7 0 3.7 1.7 4.5.9.4 1.9.4 2.7 0 .7 1.7 2.7 2.6 4.4 1.9.9-.3 1.6-1 1.9-1.9 1.7.8 3.7 0 4.5-1.7.4-.9.4-1.9 0-2.7 1.7-.7 2.6-2.7 1.9-4.4-.3-.9-1-1.6-1.9-1.9.6-1.3.3-2.7-.6-3.8zm-2 7.4c-1 .2-1.6 1.1-1.4 2 0 .3.1.5.3.7.3.3.4.7.6 1.2-.4-.1-.8-.3-1.2-.6-.8-.6-1.9-.4-2.4.4-.2.2-.3.5-.3.7-.1.4-.2.9-.4 1.2-.2-.4-.4-.8-.4-1.2-.2-1-1.1-1.6-2-1.4-.3 0-.5.1-.7.3-.3.3-.7.4-1.2.6.1-.4.3-.8.6-1.2.6-.8.4-1.9-.4-2.4-.2-.2-.5-.3-.7-.3-.4-.1-.9-.2-1.2-.4.4-.2.8-.4 1.2-.4 1-.2 1.6-1.1 1.4-2 0-.3-.1-.5-.3-.7-.3-.3-.4-.7-.6-1.2.4.1.8.3 1.2.6.8.6 1.9.4 2.4-.4.2-.2.3-.5.3-.7.1-.4.2-.9.4-1.2.2.4.4.8.4 1.2.2 1 1.1 1.6 2 1.4.3 0 .5-.1.7-.3.3-.3.7-.4 1.2-.6-.1.4-.3.8-.6 1.2-.6.8-.4 1.9.4 2.4.2.2.5.3.7.3.4.1.9.2 1.2.4-.4.2-.8.4-1.2.4z" fill="#612c00"/></svg>
