<svg id="icon" enable-background="new 0 0 128 128" height="512" viewBox="0 0 128 128" width="512" xmlns="http://www.w3.org/2000/svg"><path d="m65.3 26.8c0 .2-.1.3-.3.4s-.4-.1-.4-.3c-1-3.8-4.8-6.1-8.6-5.3-.1 0-.2 0-.3.1-3.9 1-6.2 5-5.3 8.9v.1c0 .2-.1.3-.3.4s-.4-.1-.5-.3c-1-3.9-5-6.2-8.9-5.3s-6.2 5-5.3 8.9v.1c0 .2-.2.4-.4.4s-.3-.1-.4-.3c-1-3.9-5-6.3-8.9-5.3s-6.3 5-5.3 8.9c.1.2-.1.4-.3.4h-.1c-.2 0-.3-.1-.4-.3-3.2-12.5 4.3-25.2 16.8-28.4.1 0 .2-.1.3-.1 12.9-3 25.4 4.5 28.6 17-.1-.1 0 0 0 0z" fill="#ff596b"/><path d="m50.1 31c-.3 0-.4-.1-.5-.3-.5-1.9-1.7-3.5-3.3-4.5-1.5-.9-3.3-1.2-5.1-.9-.2 0-.3.1-.4.1-3.9 1-6.2 5-5.3 8.9.1.2-.1.4-.2.4h-.1c-.2 0-.3-.1-.4-.3-4.7-18.3 1.6-24.3 1.8-24.5.1-.1.2-.1.3-.1.4.1 8.7 2.3 13.4 20.6.2.3 0 .5-.2.6 0-.1 0-.1 0 0z" fill="#ebecee"/><path d="m103.2 79.3c0 21.7-17.6 39.2-39.3 39.2-3.9 0-7.8-.6-11.6-1.7-20.7-6.4-32.2-28.4-25.8-49.1 1.4-4.7 3.8-9 6.8-12.8l23.9-6.7 25.2 4.5 12.2 2.2c5.6 6.9 8.6 15.5 8.6 24.4z" fill="#5dbd52"/><path d="m94.6 54.8c-3.6-.6-7.3-.7-10.9-.4-7.1.4-13.9 2.8-19.7 6.9-21 15.2-30.6-6.5-30.6-6.5l9.1-10.1h43z" fill="#ebecee"/><g fill="#612c00"><path d="m118.5 116.8h-1.3c-1 0-1.8.8-1.8 1.8s.8 1.8 1.8 1.8h1.3c1 0 1.8-.8 1.8-1.8s-.8-1.8-1.8-1.8z"/><path d="m110.7 116.8h-30.2c14.8-6.6 24.4-21.2 24.4-37.5 0-5.9-1.3-11.7-3.7-17.1-.4-.9-1.4-1.3-2.3-.9s-1.3 1.4-.9 2.3c2.3 4.9 3.4 10.2 3.4 15.6 0 20.7-16.8 37.5-37.5 37.5s-37.4-16.7-37.4-37.4c0-8.5 2.9-16.7 8.2-23.3l8.5-9.5h41.5l5.5 6.2c-6.2-.4-17.5.2-27.2 7.2-6.5 4.7-16 8.5-24.2-.2-.6-.7-1.8-.7-2.5-.1-.7.7-.7 1.8-.1 2.5 2.2 2.4 5 4.3 8 5.4-1.9 4.5-5.5 16 1.8 27.4.5.8 1.6 1.1 2.4.6s1.1-1.6.6-2.4c0 0 0 0 0-.1-6.8-10.6-2.8-21.3-1.2-24.7.7.1 1.5.1 2.2.1 4.2 0 9.3-1.5 15.1-5.7 3.2-2.3 6.8-4 10.6-5 5.1 6.4 7 14.8 4.9 22.7-.2.9.3 1.9 1.2 2.1s1.9-.3 2.1-1.2c2.2-8.4.5-17.4-4.6-24.5 5-.9 10-1 15-.3.9.2 1.9-.4 2-1.4.1-.5-.1-1.1-.4-1.5l-9.1-10.1c-.3-.3-.8-.5-1.3-.5h-8.1l4.6-13.1c1.4-4.1 5.3-6.8 9.6-6.8h8.4c1 0 1.8-.8 1.8-1.8s-.8-1.8-1.8-1.8h-8.4c-5.8 0-11 3.7-12.9 9.1l-5 14.2h-26.6l-4.2-16.4c2.6.1 4.8 1.9 5.4 4.4.2.9 1.2 1.5 2.1 1.3s1.5-1.2 1.3-2.1c-.8-3 1.1-6.2 4.3-7s6.4 1.1 7.2 4.3c.2.9 1.2 1.5 2.1 1.3s1.5-1.2 1.3-2.1c-1.5-5.7-4.9-10.7-9.7-14-.8-.6-1.9-.4-2.4.4s-.4 1.9.4 2.4c1.7 1.2 3.2 2.7 4.5 4.3-3.8-.8-7.6.8-9.8 4-2.5-6.4-5.4-10.1-7.8-12.2 1.8-.1 3.6.1 5.3.5.9.2 1.9-.4 2.1-1.3s-.4-1.9-1.3-2.1c-3.8-.8-7.7-.8-11.4.2-13.2 3.4-21.2 16.9-17.8 30.1.2.9 1.2 1.5 2.1 1.3s1.5-1.2 1.3-2.1c-.8-3.2 1.1-6.4 4.3-7.2s6.4 1.1 7.2 4.3c.2.9 1.2 1.5 2.1 1.3s1.5-1.2 1.3-2.1c-.6-2.5.4-5.1 2.6-6.5l4 15.5h-1c-.5 0-1 .2-1.3.6l-9.1 10.1s0 0 0 0c-6 7-9.2 16-9.2 25.3 0 16.2 9.6 30.9 24.4 37.5h-38c-1 0-1.8.8-1.8 1.8s.8 1.8 1.8 1.8h101.2c1 0 1.8-.8 1.8-1.8s-.8-1.8-1.7-1.8zm-76.9-87.7c-.4-.3-.8-.6-1.3-.9-3.5-2.1-7.9-1.7-10.9 1 1.1-6.7 5.3-12.5 11.4-15.6-.9 2.8-1.4 5.8-1.3 8.8 0 1 .8 1.7 1.8 1.7 1 0 1.8-.8 1.8-1.7 0-5.5 1.4-8.6 2.2-9.9 1.7 1 5.4 3.8 8.5 11.3-4.9-1.9-10.3.5-12.2 5.3z"/><path d="m51.1 98.6c-.7.7-.6 1.8.1 2.5l.9.9c.7.6 1.8.6 2.5-.1.6-.7.6-1.8-.1-2.5-.3-.3-.6-.5-.8-.8-.8-.7-1.9-.7-2.6 0z"/></g></svg>
