<svg id="icon" enable-background="new 0 0 128 128" height="512" viewBox="0 0 128 128" width="512" xmlns="http://www.w3.org/2000/svg"><path d="m99 71.3h-70c0-19.3 15.7-35 35-35 1.8 0 3.7.1 5.5.4 17 2.7 29.5 17.3 29.5 34.6z" fill="#ffc900"/><path d="m87.2 62.7c.3.9 1.3 1.4 2.2 1 .9-.3 1.4-1.3 1-2.2-2-5.4-5.6-10.1-10.3-13.4-.8-.6-1.9-.4-2.4.4-.6.8-.4 1.9.4 2.4 4.3 3 7.4 7.1 9.1 11.8z" fill="#fff"/><path d="m73.9 48.6c.9.4 1.9 0 2.3-.9s0-1.9-.9-2.3c-.3-.1-.5-.2-.8-.3-.9-.4-1.9.1-2.3 1s.1 1.9 1 2.3c.2 0 .4.1.7.2z" fill="#fff"/><g fill="#612c00"><path d="m118.5 69.5h-17.8c-1-20.3-18.2-35.9-38.5-35-16.6.8-30.7 12.8-34.2 29.1-.2.9.4 1.9 1.4 2.1.9.2 1.9-.4 2.1-1.4 3.8-18 21.5-29.4 39.4-25.6 14.7 3.1 25.5 15.7 26.3 30.8h-87.7c-1 0-1.8.8-1.8 1.8s.8 1.7 1.8 1.7h109c1 0 1.8-.8 1.8-1.8s-.8-1.7-1.8-1.7z"/><path d="m111.4 79.5h-68.2c-1 0-1.8.8-1.8 1.8s.8 1.8 1.8 1.8h68.2c1 0 1.8-.8 1.8-1.8s-.9-1.8-1.8-1.8z"/><path d="m38.6 81.3c0-1-.8-1.8-1.8-1.8h-20.2c-1 0-1.8.8-1.8 1.8s.8 1.8 1.8 1.8h20.2c1-.1 1.8-.9 1.8-1.8z"/><path d="m102.6 89.5h-15.3c-1 0-1.8.8-1.8 1.8s.8 1.8 1.8 1.8h15.3c1 0 1.8-.8 1.8-1.8s-.8-1.8-1.8-1.8z"/><path d="m81.8 91.3c0-1-.8-1.8-1.8-1.8h-54.6c-1 0-1.8.8-1.8 1.8s.8 1.8 1.8 1.8h54.6c1-.1 1.8-.9 1.8-1.8z"/><path d="m90 99.5h-44.8c-1 0-1.8.8-1.8 1.8s.8 1.8 1.8 1.8h44.8c1 0 1.8-.8 1.8-1.8s-.8-1.8-1.8-1.8z"/><path d="m39.3 99.5h-1.3c-1 0-1.8.8-1.8 1.8s.8 1.7 1.8 1.7h1.3c1 0 1.8-.8 1.8-1.8s-.9-1.7-1.8-1.7z"/><path d="m79.1 109.5h-30.2c-1 0-1.8.8-1.8 1.8s.8 1.8 1.8 1.8h30.3c1 0 1.8-.8 1.8-1.8s-.9-1.8-1.9-1.8z"/><path d="m64 30.5c1 0 1.8-.8 1.8-1.8v-12c0-1-.8-1.8-1.8-1.8s-1.8.8-1.8 1.8v12c.1 1 .8 1.8 1.8 1.8z"/><path d="m94.1 42.9c.5 0 .9-.2 1.2-.5l24.4-24.4c.7-.7.7-1.8 0-2.5s-1.8-.7-2.5 0l-24.4 24.5c-.7.7-.7 1.8 0 2.5.3.3.8.4 1.3.4z"/><path d="m32.7 42.4c.7.7 1.8.7 2.5 0s.7-1.8 0-2.5l-24.5-24.4c-.7-.7-1.8-.7-2.5 0s-.7 1.8 0 2.5z"/></g></svg>
