<svg id="icon" enable-background="new 0 0 128 128" height="512" viewBox="0 0 128 128" width="512" xmlns="http://www.w3.org/2000/svg"><path d="m32.8 47.8h62.5v9.5h-62.5z" fill="#ffa500"/><path d="m91.6 57.3-1.9 16.5-3.1 27.5-2 17.2h-42.2l-1.7-17.2-2.7-27.5-1.6-16.5z" fill="#5dbd52"/><path d="m91.6 47.8h-55.2c0-11.7 9.5-21.2 21.2-21.3h12.8c11.7 0 21.2 9.5 21.2 21.3 0-.1 0-.1 0 0z" fill="#d1d1d1"/><path d="m89.7 73.8-3.1 27.5h-45.9l-2.7-27.5z" fill="#ffa500"/><g fill="#612c00"><path d="m53.5 55.5c-1 0-1.8.8-1.8 1.8s.8 1.8 1.8 1.8h2.3c1 0 1.8-.8 1.8-1.8s-.8-1.8-1.8-1.8z"/><path d="m95.2 46h-1.9c-.9-12-10.9-21.2-22.9-21.3h-1.2l6.6-11.6c.6-1.1 1.9-1.8 3.2-1.9h12.7c1 0 1.8-.8 1.8-1.8s-.8-1.8-1.8-1.8h-12.8c-2.6 0-4.9 1.4-6.2 3.6l-7.6 13.4h-7.5c-9.9 0-18.7 6.3-21.8 15.7-.3.9.3 1.9 1.2 2.2s1.8-.2 2.1-1.1c2.6-8 10.1-13.3 18.5-13.3h5.5l-.6 1.1c-.5.8-.2 1.9.7 2.4.8.5 1.9.2 2.4-.7l1.6-2.9h3.2c10.1 0 18.5 7.7 19.4 17.7h-57c-1 0-1.8.8-1.8 1.8v9.5c0 1 .8 1.8 1.8 1.8h2l5.8 59.7c.1.9.8 1.6 1.7 1.6h42.2c.9 0 1.6-.7 1.7-1.6l6.3-53.5c.1-1-.6-1.8-1.6-1.9s-1.8.6-1.9 1.5l-.8 7.4h-48.6l-1.3-13h7c1 0 1.8-.8 1.8-1.8s-.8-1.8-1.8-1.8h-10.8v-6h59v6h-29.5c-1 0-1.8.8-1.8 1.8s.8 1.8 1.8 1.8h31.2c1 0 1.8-.8 1.8-1.8v-9.5c0-.9-.8-1.7-1.8-1.7zm-7.4 29.5-4.7 41.3h-39.1l-1.3-13.7h36.3c1 0 1.8-.8 1.8-1.8s-.8-1.7-1.8-1.7h-36.7l-2.4-24.1z"/></g></svg>
