<svg id="icon" enable-background="new 0 0 128 128" height="512" viewBox="0 0 128 128" width="512" xmlns="http://www.w3.org/2000/svg"><path d="m113.5 61.3-26.8 27 4.5 11.2c.9 2.3-.2 5-2.5 5.9-.5.2-1.1.3-1.7.3h-46c-2.5 0-4.5-2-4.5-4.5 0-.6.1-1.1.3-1.7l4.5-11.2-26.8-27c-3-2.9-4.8-6.8-5-11 0-2.9 1.2-5.7 3.3-7.8 4.8-4.8 12.5-4.8 17.3 0-.4-1.3-.6-2.6-.6-3.9 0-6.8 5.5-12.2 12.2-12.3 4.2 0 8.1 2.1 10.3 5.6 1.3-6.6 7.8-10.9 14.4-9.6 4.8 1 8.6 4.8 9.6 9.6 3.6-5.7 11.2-7.4 16.9-3.7 4.7 3 6.8 8.9 5 14.2 4.8-4.8 12.5-4.8 17.3-.1 5.5 5.7 3.6 13.4-1.7 19z" fill="#ffa500"/><g fill="#612c00"><path d="m116.5 41.3c-2.6-2.6-6.2-4.1-9.9-4.1h-.1c-3.6 0-7.1 1.5-9.7 3.9-.2.1-.3.3-.4.4l-20 29c-.5.8-.3 1.9.4 2.4.8.5 1.9.3 2.4-.4l19.8-28.8c2-2 4.6-3.1 7.4-3.1 2.8 0 5.4 1.1 7.4 3.1 4.9 4.9 2.6 11.7-1.8 16.3l-26.5 27c-.5.5-.6 1.2-.4 1.9l4.5 11.2c.6 1.4-.1 3.1-1.6 3.6-.3.1-.7.2-1 .2h-13.1l1.8-13.3c.1-1-.5-1.8-1.5-2-1-.1-1.8.5-2 1.5v.1l-1.8 13.8h-12.8l-2.8-20.4c-.1-1-1-1.6-1.9-1.5-1 .1-1.6 1-1.5 1.9v.1l2.7 19.9h-13.1c-1.5 0-2.8-1.2-2.8-2.8 0-.4.1-.7.2-1l4.5-11.2c.3-.6.1-1.4-.4-1.9l-17.8-18.1c-.7-.7-1.8-.7-2.5 0s-.7 1.8 0 2.5l17.1 17.2-4.1 10.2c-1.3 3.2.3 6.9 3.5 8.2.7.3 1.5.5 2.3.5h46c3.5 0 6.3-2.8 6.3-6.3 0-.8-.2-1.6-.4-2.3l-4.1-10.2 26-26.2c6.6-7.1 7.3-15.6 1.7-21.3z"/><path d="m20.2 64.5c-.7-.7-1.8-.7-2.5 0s-.7 1.8 0 2.5l.7.8c.7.7 1.8.7 2.5 0s.7-1.8 0-2.5z"/><path d="m48.7 72.6c.5.8 1.6 1 2.4.4.8-.5 1-1.6.4-2.4l-19.8-28.8c-1.7-5.5 1.4-11.4 6.9-13.1 4.4-1.4 9.2.3 11.8 4.1l4.1 27c.1 1 1 1.6 2 1.5s1.6-1 1.5-2l-4.1-27.2c1.3-5.6 6.9-9.1 12.6-7.8 3.9.9 6.9 3.9 7.8 7.8l-4.1 27.2c-.1 1 .5 1.8 1.5 2 1 .1 1.8-.5 2-1.5l4.1-27c3.3-4.8 9.8-6 14.6-2.8 1.1.8 2.1 1.7 2.8 2.8.5.8 1.6 1 2.4.5s1-1.6.5-2.4c-4.3-6.4-13-8.1-19.4-3.8-.6.4-1.3.9-1.8 1.5-3.3-7-11.6-10-18.6-6.7-3 1.4-5.3 3.8-6.7 6.7-4.1-3.9-10.1-5-15.2-2.7-5.1 2.2-8.4 7.3-8.4 12.8-5.4-2.7-11.9-1.7-16.2 2.6-6.4 6.4-3.9 15.5 1.7 21.2.7.7 1.8.7 2.5 0s.7-1.8 0-2.5c-4.6-4.3-7-11.2-2-16.2 2-2 4.6-3.1 7.4-3.1 2.8 0 5.5 1.1 7.4 3.1z"/><path d="m73.2 83.6-.1.9c-.1 1 .5 1.8 1.5 2h.2c.9 0 1.6-.6 1.7-1.5l.1-.9c.1-1-.5-1.8-1.5-2-.9-.2-1.8.4-1.9 1.5 0-.1 0-.1 0 0z"/></g></svg>
