<svg id="icon" enable-background="new 0 0 128 128" height="512" viewBox="0 0 128 128" width="512" xmlns="http://www.w3.org/2000/svg"><path d="m114.4 47.9c0 .3-.2.5-.5.5s-.5-.2-.5-.5c0-4.9-3.4-9.2-8.2-10.3-.8-.2-1.6-.3-2.4-.3-5.8 0-10.6 4.7-10.6 10.6 0 .3-.2.5-.5.5s-.5-.2-.5-.5c0-5.8-4.7-10.6-10.6-10.6-5.8 0-10.6 4.7-10.6 10.6 0 .3-.2.5-.5.5s-.5-.2-.5-.5c0-5.8-4.7-10.6-10.6-10.6-5.8 0-10.6 4.7-10.6 10.6 0 .3-.2.5-.5.5s-.5-.2-.5-.5c0-18.6 15.1-33.7 33.7-33.8h.3c18.6.2 33.6 15.3 33.6 33.8z" fill="#ff596b"/><path d="m92.2 47.9c0 .3-.2.5-.5.5s-.5-.2-.5-.5c0-4.7-3.1-8.9-7.7-10.2-.9-.3-1.9-.4-2.9-.4-5.8 0-10.6 4.7-10.6 10.6 0 .3-.2.5-.5.5s-.5-.2-.5-.5c0-27.3 10.9-33.5 11.3-33.7.1-.1.3-.1.5 0 .5.2 11.4 6.4 11.4 33.7z" fill="#ebecee"/><path d="m14.1 90.1h91.3v5.9h-91.3z" fill="#b55607"/><path d="m88.5 96.1 20.2-35 5.2 3-18.5 32z" fill="#b55607"/><g fill="#612c00"><path d="m95.5 20.1c.2.1.4.2.7.4.8.5 1.9.2 2.4-.7.5-.8.2-1.9-.6-2.4-.2-.1-.5-.3-.7-.4-.9-.5-1.9-.1-2.4.7-.5.9-.2 2 .6 2.4z"/><path d="m118.5 111.6h-3.5l-7.8-15.9v-5.5c0-1-.8-1.8-1.8-1.8s-1.8.8-1.8 1.8v4.2h-5.3l17-29.4c.5-.8.2-1.9-.6-2.4l-5.1-3c-.8-.5-1.9-.2-2.4.6l-16.2 28.2h-8.6v-49.7c4.4.8 7.6 4.7 7.6 9.2 0 1 .8 1.8 1.8 1.8s1.8-.8 1.8-1.8c0-5.2 4.2-9.3 9.3-9.3 5.2 0 9.3 4.2 9.3 9.3 0 1 .8 1.8 1.8 1.8s1.8-.8 1.8-1.8c0-10.2-4.4-19.8-12.1-26.5-.7-.6-1.8-.6-2.5.2-.6.7-.6 1.8.2 2.5 4.2 3.6 7.3 8.3 9.2 13.5-5.4-4-12.9-3.1-17.3 2-1.2-12.2-4.8-19.1-7.7-22.8 1.4.2 2.7.5 4 .9.9.3 1.9-.3 2.1-1.2s-.3-1.9-1.2-2.1c-18.6-5.4-38 5.3-43.4 23.9-.9 3.2-1.4 6.4-1.4 9.7 0 1 .8 1.8 1.8 1.8s1.8-.8 1.8-1.8c0-5.2 4.2-9.3 9.3-9.3s9.3 4.2 9.3 9.3c0 1 .8 1.8 1.8 1.8s1.8-.8 1.8-1.8c0-4.5 3.2-8.3 7.6-9.2v49.7h-65c-1 0-1.8.8-1.8 1.8v5.9c0 1 .8 1.8 1.8 1.8h5.6l-6.7 13.6h-3.5c-1 0-1.8.8-1.8 1.8s.8 1.8 1.8 1.8h22.3c1 0 1.8-.8 1.8-1.8s-.8-1.8-1.8-1.8h-14.9l6.7-13.8h80.7l6.7 13.8h-28.6v-9.1c0-1-.8-1.8-1.8-1.8s-1.8.8-1.8 1.8v9.1h-38c-1 0-1.8.8-1.8 1.8s.8 1.8 1.8 1.8h77.8c1 0 1.8-.8 1.8-1.8s-.9-1.8-1.9-1.8zm-49-70.2c-3.5-6.1-11.4-8.2-17.5-4.6-.4.2-.8.5-1.1.7 3.9-11 13.5-19 25-20.8-2.4 3-5.3 8.3-6.9 16.9-.2 1 .5 1.9 1.4 2 .9.2 1.8-.5 2-1.4 2-11.2 6.4-16 8.2-17.5 2 1.7 7.2 7.3 8.8 21.8-5.1-4.9-13.2-4.7-18.1.4-.6.8-1.2 1.7-1.8 2.5zm-53.6 50.5h73.1l-1.4 2.4h-71.7zm75.7 2.4 17.8-30.8 2.1 1.2-17.1 29.6z"/></g></svg>
