<svg id="icon" enable-background="new 0 0 128 128" height="512" viewBox="0 0 128 128" width="512" xmlns="http://www.w3.org/2000/svg"><path d="m51.4 33.5c0 3.8-1.5 7.4-4.2 10.1-5.6 5.6-14.6 5.6-20.1 0s-5.6-14.6 0-20.1 14.6-5.6 20.1 0c2.7 2.6 4.2 6.2 4.2 10z" fill="#ffc900"/><path d="m51.4 33.5c0 3.8-1.5 7.4-4.2 10.1l-20.2-20.2c5.6-5.6 14.6-5.6 20.2 0 2.7 2.7 4.2 6.3 4.2 10.1z" fill="#ffda2d"/><path d="m91.8 33.5-2.5 23.3-5.4 51.1-1.1 10.6h-36.7l-1.1-10.6-6-56.4-1.9-18z" fill="#ebecee"/><path d="m89.3 56.8-5.4 51.1-1.1 10.6h-36.7l-1.1-10.6-6-56.5s9.7 6.8 28.4 2.3c8.9-2.1 16.2-.6 21.9 3.1z" fill="#ffda2d"/><path d="m83.9 107.9-1.1 10.6h-36.7l-1.1-10.6z" fill="#ebecee"/><g fill="#612c00"><path d="m54.1 106.2h-1.4c-1 0-1.8.8-1.8 1.8s.8 1.8 1.8 1.8h1.4c1 0 1.8-.8 1.8-1.8s-.8-1.8-1.8-1.8z"/><path d="m105.1 7.8h-24.5c-4.9 0-9.1 3.7-9.8 8.6l-2.2 15.4h-30.7l-8.2-8.2c5.5-4.2 13.3-3.1 17.5 2.4.1.1.2.3.3.4.5.8 1.6 1 2.4.5s1-1.6.5-2.4c-5-7.3-15-9.1-22.2-4.1-.8.5-1.5 1.1-2.1 1.8 0 0-.1.1-.1.1s-.1.1-.1.1c-6.2 6.3-6.1 16.4.2 22.6 3 2.9 7 4.6 11.2 4.6l.2 2.2 7.1 66.9c.1.9.8 1.6 1.7 1.6h36.7c.9 0 1.6-.7 1.7-1.6l9-85c.1-1-.6-1.8-1.6-1.9-.1 0-.1 0-.2 0h-19.8l2.1-15c.5-3.2 3.2-5.5 6.4-5.5h24.5c1 0 1.8-.8 1.8-1.8s-.8-1.7-1.8-1.7zm-39.4 44.5c-14.3 3.1-22.7-.6-25-1.9l-.1-1.3c2.9-.6 5.6-2.1 7.8-4.2 0 0 .1-.1.1-.1s.1-.1.1-.1c2.5-2.6 4.1-5.9 4.5-9.5h15.1zm-26.3-14.1 5.2 5.2c-1.3 1-2.8 1.7-4.5 2.1zm10.1-2.9c-.3 2.1-1.1 4.1-2.4 5.8l-5.7-5.8zm-24.9-1.8c0-2.7.9-5.3 2.5-7.5l8.3 8.3 1.3 11.7c-6.7-.3-12.1-5.8-12.1-12.5zm65.2 1.8-2 18.8c-3.5-1.8-7.3-2.8-11.1-2.9-1 0-1.8.7-1.8 1.7s.7 1.8 1.7 1.8c3.8.2 7.6 1.3 10.9 3.2l-5.1 48.4h-22.1c-1 0-1.8.8-1.8 1.8s.8 1.8 1.8 1.8h21.7l-.7 7.1h-33.6l-6.6-62.2c4.4 1.8 9.1 2.6 13.9 2.5 3.4 0 6.9-.4 10.2-1.1l-2.8 19.7c-.1 1 .5 1.8 1.5 2 1 .1 1.8-.5 2-1.5l5.7-41h18.2z"/></g></svg>
