<svg id="icon" enable-background="new 0 0 128 128" height="512" viewBox="0 0 128 128" width="512" xmlns="http://www.w3.org/2000/svg"><path d="m91.9 49.1c-2.5 9.2-2.7 18.9-.6 28.2.5 2.4.8 4.8.8 7.2 0 4.4-2.4 8.5-6.3 10.7-7.2 4.1-12.6 10.7-15.2 18.5-1.1 3.2-4.2 5.1-7.5 4.7-.7-.1-1.4-.3-2-.6-1.7-.9-3.1-2.4-3.7-4.2-2.6-7.8-8.1-14.4-15.3-18.4-1.9-1-3.4-2.6-4.5-4.4-1.1-1.9-1.6-4-1.6-6.1 0-2.4.2-4.9.8-7.2 2.1-9.3 1.9-19-.6-28.3-.8-1.5-1.3-3.1-1.4-4.7-.4-3.7.6-7.4 3-10.3.4-1.5.8-3 1.3-4.7 2-6.3 5.4-13.8 11-19.9h4.3s-5.4 6.5-9.4 19.6c0 .1-.1.2-.1.3.3-.1.6-.1.8-.2 6.1-1.3 12.3 1.6 15.1 7.1.1.2.2.4.4.6.7.9 1.7 1.4 2.8 1.4h.2c1.3 0 2.5-.7 3.1-1.8 1.9-3.7 5.3-6.3 9.4-7.2.2 0 .5-.1.7-.1.7-.1 1.5-.2 2.2-.2 1.2 0 2.5.2 3.7.5h.1c-4-13.4-9.5-20-9.5-20h4.1c7 7.7 10.6 17.6 12.3 24.6 2.3 2.9 3.4 6.6 3 10.3-.2 1.6-.7 3.2-1.4 4.6z" fill="#ff596b"/><g fill="#612c00"><path d="m78.5 98.4c-4.4 4-7.7 9.1-9.6 14.8-.8 2.4-3.1 3.9-5.6 3.5-2-.3-3.6-1.8-4.3-3.7-2.8-8.2-8.5-15.1-16.1-19.4-3.3-1.8-5.3-5.3-5.2-9 0-2.3.2-4.6.7-6.8 1.6-7 1.9-14.2.9-21.3-.1-1-1-1.6-2-1.5s-1.6 1-1.5 2c.9 6.7.6 13.5-.9 20.1-.6 2.5-.8 5.1-.8 7.6 0 5 2.7 9.6 7 12.1 6.8 3.8 12 10 14.5 17.5 1.1 3.2 3.8 5.5 7.1 6 .4.1.8.1 1.1.1 3.7 0 7-2.4 8.3-5.9 1.7-5.1 4.7-9.7 8.6-13.4.7-.7.8-1.8.1-2.5-.5-.8-1.6-.9-2.3-.2z"/><path d="m36.1 50.9c1 0 1.7-.8 1.7-1.8 0-.3-.1-.6-.2-.8-.7-1.3-1.1-2.7-1.3-4.1-.3-3.2.7-6.4 2.7-9 .2-.2.3-.4.3-.7 1.6-6.6 4.9-16 11.4-23.3h.1c-3.4 5.5-6 11.5-7.8 17.7-.3.9.3 1.9 1.2 2.1s1.8-.3 2.1-1.1c3.8-12.8 9.1-19.3 9.2-19.4.6-.7.5-1.8-.2-2.5-.3-.3-.7-.4-1.1-.4h-4.2c-.5 0-1 .2-1.3.6-7.2 7.8-10.8 17.9-12.6 25-2.5 3.2-3.6 7.3-3.1 11.3.2 1.9.8 3.6 1.6 5.3.3.7.9 1.1 1.5 1.1z"/><path d="m95.1 44.6c.5-4-.6-8.1-3.1-11.3-1.8-7.2-5.4-17.2-12.6-25-.4-.3-.9-.5-1.4-.5h-4.3c-1 0-1.8.8-1.7 1.8 0 .4.1.8.4 1.1 0 .1 4.6 5.6 8.3 16.6-6.3-.5-12.2 2.8-15.1 8.4-.3.6-.9.9-1.5.9h-.2c-.7 0-1.3-.4-1.7-1-1.8-3.5-4.9-6.1-8.6-7.4-.9-.3-1.9.1-2.2 1s.1 1.9 1 2.2c2.9 1 5.3 3.1 6.7 5.8.9 1.8 2.8 2.9 4.8 2.9h.2c2 0 3.8-1.1 4.7-2.8 2.6-5.1 8.5-7.7 14-6.1.9.3 1.9-.3 2.2-1.2.1-.3.1-.7 0-1-1.8-6.2-4.4-12.2-7.8-17.7h.1c6.5 7.4 9.8 16.7 11.4 23.3.1.2.2.5.3.7 2 2.5 3 5.8 2.6 9-.2 1.4-.6 2.8-1.3 4.1-.1.1-.1.2-.1.4-2.5 9.5-2.8 19.5-.6 29.1.5 2.2.7 4.5.7 6.8 0 3.8-2.1 7.3-5.4 9.1-.8.5-1.1 1.5-.7 2.4.5.8 1.5 1.1 2.4.7 4.4-2.5 7.1-7.1 7.2-12.2 0-2.6-.2-5.1-.8-7.6-2-9-1.8-18.3.5-27.2.8-1.8 1.4-3.5 1.6-5.3z"/><path d="m45.5 59.1c0 1 .8 1.8 1.8 1.8 9.7 0 14.5-3.3 16.7-5.6 1.6 1.7 4.6 3.9 9.9 5h.3c1 0 1.7-.8 1.7-1.8 0-.8-.6-1.6-1.4-1.7-7.1-1.4-8.9-5-9-5.2-.2-.4-.5-1-1.6-1-.9 0-1.3.4-1.6 1 0 .1-2.8 5.7-15.1 5.7-.9.1-1.7.9-1.7 1.8z"/><path d="m80.7 57.4c-.2 0-.5 0-.7 0-1 0-1.8.8-1.8 1.7 0 1 .8 1.8 1.7 1.8h.8c1 0 1.8-.8 1.8-1.8s-.8-1.7-1.8-1.7z"/></g></svg>
