<svg id="icon" enable-background="new 0 0 128 128" height="512" viewBox="0 0 128 128" width="512" xmlns="http://www.w3.org/2000/svg"><path d="m59.1 33.5c-9.2-24.2-25.3-22.8-25.3-22.8s-15.1 5.6-13.1 31.3c2 25.8 27 65.8 27 65.8l7.5-1.7 7.5-1.7c0 .1 5.5-46.8-3.6-70.9z" fill="#92d5f3"/><path d="m56.7 94.5-7.9 1.7-.8-22.3z" fill="#ebecee"/><path d="m95.5 30.3s-13.3-.2-19.3 20.2 1.3 58.4 1.3 58.4l6.2.9 6.2.9s18.1-34.3 18.2-55.5-12.6-24.9-12.6-24.9z" fill="#4b9641"/><path d="m88.2 101.2-6.5-.9 5.9-17.4z" fill="#ebecee"/><path d="m107.5 118.5h-87c.4-7.7 5.7-14.3 13.1-16.2 1.5-.4 3-.6 4.6-.6 3 0 6 .8 8.6 2.2 1.9 1.1 3.6 2.5 5 4.1 2.7-5.6 7.7-9.7 13.8-11.2 1.5-.4 3.1-.6 4.7-.6 8.3 0 15.7 5 18.9 12.6s0 0 0 0c7.6-2.5 15.7 1.7 18.2 9.2 0 .3.1.4.1.5z" fill="#ff8f2b"/><g fill="#612c00"><path d="m45.7 63.7c-.9.2-1.5 1.1-1.3 2.1l.2 1c.2.9 1.1 1.5 2.1 1.3s1.5-1.1 1.3-2.1l-.2-1c-.3-.9-1.2-1.5-2.1-1.3z"/><path d="m118.5 116.8h-9.8c-2.5-6.2-8.4-10.3-15.1-10.3-1.2 0-2.4.1-3.5.4-.7-1.4-1.5-2.7-2.5-3.9h.3c1 .1 1.8-.5 2-1.5 0-.1 0-.2 0-.3l-.6-18.4c0-1-.8-1.7-1.8-1.7-.7 0-1.4.5-1.6 1.2l-5.1 14.9c-1.2-.7-2.5-1.2-3.8-1.6-1.5-11.7-3.1-32 .7-44.7 4.3-14.1 12-17.7 15.7-18.6l-6 40.3c-.2 1 .5 1.9 1.4 2s1.9-.5 2-1.4c0 0 0 0 0-.1l6-40.3c3.3 1.9 9.6 7.6 9.5 22.3-.1 13.8-8.2 33.6-13 44.3-.4.9 0 1.9.8 2.3.9.4 1.9 0 2.3-.8 6-13.3 13.2-32 13.3-45.7.3-22.3-13.2-26.4-13.7-26.6h-.2c-.1 0-.2 0-.3 0-.6 0-14.7.1-21 21.4-3.7 12.3-2.6 30.7-.9 44.8-6.5-1-13 1-17.9 5.3l-.8-3.4 2.2-.5c.9-.2 1.5-1.1 1.3-2.1 0-.1-.1-.2-.1-.3l-8.7-20.6c-.4-.9-1.4-1.3-2.3-.9-.7.3-1.1 1-1.1 1.7l.9 22.3c0 1 .9 1.7 1.8 1.7h.3l2.2-.5 1.3 5.7c-.5.6-.9 1.2-1.3 1.9-1.6-1.5-3.4-2.6-5.4-3.5-6.8-11.8-22-40-23.5-59.6-1.5-19 6.4-26.3 10.1-28.7l10.2 45.8c.2.9 1.1 1.5 2.1 1.3s1.5-1.1 1.3-2.1l-10.2-45.8c4.4.6 14.7 3.9 21.4 21.5 5.9 15.7 5.5 41.7 4.7 55.8-.1 1 .7 1.8 1.6 1.8h.1c.9 0 1.7-.7 1.8-1.6 1-17.6 1-41.8-4.9-57.3-9.5-25.1-26.3-24-27-23.9 0 0-.1 0-.2 0-.1.2-.3.2-.3.2-.7.2-16.4 6.4-14.3 33.1 1.5 18.7 14.7 44.6 22.2 58-8.2-1.3-16.4 2.8-20.2 10.2-.5.8-.1 1.9.7 2.4s1.9.1 2.4-.7c4.1-7.8 13.8-10.8 21.6-6.8 1.8 1 3.5 2.3 4.8 3.9.6.7 1.7.8 2.5.2.2-.2.3-.4.5-.6 4.4-9.3 15.6-13.3 24.9-8.9.9.4 1.8.9 2.6 1.5 0 0 .1 0 .1.1 2.9 2.1 5.2 4.9 6.6 8.2.3.8 1.3 1.3 2.2 1 5.9-1.9 12.3.7 15.2 6.2h-13.7c-1 0-1.8.8-1.8 1.8s.8 1.8 1.8 1.8h27.2c1 0 1.8-.8 1.8-1.8s-.8-1.8-1.8-1.8zm-68.4-33.4 4.1 9.8-1.9.4-1.8.4zm36.1 9.2.2 6.6-2.4-.4z"/><path d="m84.6 116.8h-75.1c-1 0-1.8.8-1.8 1.8s.8 1.8 1.8 1.8h75.1c1 0 1.8-.8 1.8-1.8s-.8-1.8-1.8-1.8z"/></g></svg>
