<svg id="icon" enable-background="new 0 0 128 128" height="512" viewBox="0 0 128 128" width="512" xmlns="http://www.w3.org/2000/svg"><path d="m31 9.5h66v94.5h-66z" fill="#92d5f3"/><path d="m90.7 104h-59.7l59.7 13z" fill="#ebecee"/><g fill="#612c00"><path d="m31 97.6c1 0 1.8-.8 1.8-1.8v-84.5h64.2c1 0 1.8-.8 1.8-1.8s-.8-1.7-1.8-1.7h-66c-1 0-1.8.8-1.8 1.8v86.4c.1.8.8 1.6 1.8 1.6z"/><path d="m97 14.8c-1 0-1.8.8-1.8 1.8v85.8h-64.2c-1 0-1.7.8-1.8 1.7 0 .8.5 1.4 1.2 1.7.1 0 .1.1.2.1l59.6 13h.4c1 0 1.7-.8 1.8-1.7v-11.3h4.6c1 0 1.8-.8 1.8-1.8v-87.6c0-1-.8-1.7-1.8-1.7zm-8.1 100-41.7-9.1h41.7z"/><path d="m64 33.9c-9.6 0-17.4 7.8-17.4 17.4s7.8 17.5 17.4 17.5 17.4-7.8 17.4-17.5c0-9.6-7.8-17.4-17.4-17.4zm13.8 15.7h-7.1c0-3.9-.7-7.7-2.1-11.3 5 1.7 8.5 6.1 9.2 11.3zm-13.8 15.6c-.9-.2-3-4.3-3.3-12.2h6.5c-.2 8-2.4 12-3.2 12.2zm-3.2-15.6c.3-7.9 2.4-11.9 3.2-12.2.8.2 3 4.3 3.2 12.2zm-1.5-11.4c-1.3 3.6-2 7.5-2.1 11.3h-7.1c.8-5.1 4.3-9.5 9.2-11.3zm-9.1 14.9h7.1c0 3.9.7 7.7 2.1 11.3-5-1.7-8.5-6.1-9.2-11.3zm18.5 11.3c1.3-3.6 2-7.5 2.1-11.3h7.1c-.8 5.2-4.3 9.6-9.2 11.3z"/><path d="m79.7 80h-.9c-1 0-1.8.8-1.8 1.8s.8 1.8 1.8 1.8h.9c1 0 1.8-.8 1.8-1.8s-.9-1.8-1.8-1.8z"/><path d="m48.3 83.5h24.2c1 0 1.8-.8 1.8-1.8s-.8-1.7-1.8-1.7h-24.2c-1 0-1.8.8-1.8 1.8s.9 1.7 1.8 1.7z"/><path d="m48.3 91.4h31.3c1 0 1.8-.8 1.8-1.8s-.8-1.8-1.8-1.8h-31.3c-1 0-1.8.8-1.8 1.8s.9 1.8 1.8 1.8z"/></g></svg>
