<svg id="icon" enable-background="new 0 0 128 128" height="512" viewBox="0 0 128 128" width="512" xmlns="http://www.w3.org/2000/svg"><path d="m81.5 26.6h-9c-2.6 0-4.8-2.1-4.8-4.8 0-2.6 2.1-4.8 4.8-4.8h9z" fill="#d1d1d1"/><path d="m92.7 28.3v73.5h-11.2v-84.7c2 0 3.9.5 5.6 1.5.1 0 .2.1.3.2.7.5 1.4 1 2 1.6 2.1 2.1 3.3 5 3.3 7.9z" fill="#d1d1d1"/><path d="m34.6 26.6h-9c-2.6 0-4.8-2.1-4.8-4.8 0-2.6 2.1-4.8 4.8-4.8h9z" fill="#d1d1d1"/><g fill="#ebecee"><path d="m45.9 37.9h41.3v9.5h-41.3z"/><path d="m45.9 58.6h41.3v9.5h-41.3z"/><path d="m45.9 79.4h41.3v9.5h-41.3z"/><path d="m34.6 17.1c6.2 0 11.2 5 11.2 11.2v73.5h-11.2z"/></g><path d="m118.5 100.1h-24v-71.8c0-7.2-5.8-13-13-13h-9c-3.6 0-6.5 2.9-6.5 6.5s2.9 6.5 6.5 6.5h7.3v2.7c0 1 .8 1.7 1.8 1.7s1.8-.8 1.8-1.7v-12c4.5.8 7.7 4.8 7.7 9.3v71.8h-7.7v-9.5h3.8c1 0 1.8-.8 1.8-1.8v-9.5c0-1-.8-1.8-1.8-1.8h-3.8v-3.5c0-1-.8-1.8-1.8-1.8s-1.8.8-1.8 1.8v3.6h-32.2v-7.8h39.5c1 0 1.8-.8 1.8-1.8v-9.5c0-1-.8-1.8-1.8-1.8h-3.8v-7.8h3.8c1 0 1.8-.8 1.8-1.8v-9.5c0-1-.8-1.8-1.8-1.8h-39.5v-7.8c0-7.2-5.8-12.9-13-13h-9c-3.6 0-6.5 2.9-6.5 6.5s2.9 6.5 6.5 6.5h9c1 0 1.8-.8 1.8-1.8v-7.2c4.5.8 7.7 4.8 7.7 9.3v71.8h-7.7v-65.8c0-1-.8-1.8-1.8-1.8s-1.8.8-1.8 1.8v65.9h-15.4c-1 0-1.8.8-1.8 1.8s.8 1.8 1.8 1.8h101.1c1 0 1.8-.8 1.8-1.8s-.8-1.9-1.8-1.9zm-46-75.2c-1.7 0-3-1.3-3-3s1.3-3 3-3h7.3v6zm-49.9-3c0-1.7 1.3-3 3-3h7.3v6h-7.3c-1.6 0-3-1.4-3-3zm62.8 59.2v6h-37.8v-6zm0-14.7h-37.8v-6h37.8zm-5.6-9.5h-32.2v-7.8h32.2zm5.6-17.3v6h-37.8v-6zm-37.8 51h32.1v9.5h-32.1z" fill="#612c00"/><path d="m10.8 100.1h-1.3c-1 0-1.8.8-1.8 1.8s.8 1.8 1.8 1.8h1.3c1 0 1.8-.8 1.8-1.8s-.9-1.8-1.8-1.8z" fill="#612c00"/><path d="m108.7 109.1h-27.2c-1 0-1.8.8-1.8 1.8s.8 1.8 1.8 1.8h27.2c1 0 1.8-.8 1.8-1.8s-.9-1.8-1.8-1.8z" fill="#612c00"/><path d="m73.5 109.1h-54.2c-1 0-1.8.8-1.8 1.8s.8 1.8 1.8 1.8h54.2c1 0 1.8-.8 1.8-1.8s-.8-1.8-1.8-1.8z" fill="#612c00"/></svg>
