<svg id="icon" enable-background="new 0 0 128 128" height="512" viewBox="0 0 128 128" width="512" xmlns="http://www.w3.org/2000/svg"><path d="m118.5 46.8-22.2 15.6v50.4h-64.6v-50.4l-22.2-15.6 18.7-26.7c2.1-3.1 5.6-4.9 9.4-4.9h52.9c3.7 0 7.2 1.8 9.4 4.9z" fill="#92d5f3"/><path d="m82.9 16c0 10.4-8.5 18.9-18.9 18.9s-18.9-8.5-18.9-18.9c0-.3 0-.5 0-.8h37.7c.1.3.1.6.1.8z" fill="#ebecee"/><path d="m76.3 16c0 6.8-5.5 12.3-12.3 12.3s-12.3-5.5-12.3-12.3c0-.3 0-.5 0-.8h24.5c.1.3.1.6.1.8z" fill="#92d5f3"/><path d="m31.7 106.6h64.5v6.2h-64.5z" fill="#d1d1d1"/><g fill="#612c00"><path d="m119.9 45.8-18.7-26.7c-2.5-3.5-6.5-5.6-10.8-5.6h-45.3-.1c-.1 0-.2 0-.4.1h-.1c-.1 0-.1.1-.2.1h-.1c-.1 0-.1.1-.2.2 0 0 0 0-.1.1s-.1.1-.2.2c0 0 0 0-.1.1 0 .1-.1.1-.1.2 0 0 0 .1-.1.1 0 .1-.1.1-.1.2v.1.2.1.1.8c0 11.4 9.3 20.6 20.7 20.6 9 0 16.9-5.8 19.6-14.3.3-.9-.2-1.9-1.1-2.2s-1.9.2-2.2 1.1v.1c-2.9 9-12.5 14-21.5 11.1-6.8-2.3-11.5-8.4-11.9-15.5h3.1c.5 7.7 7.2 13.6 15 13 7-.5 12.6-6 13-13h12.5c3.2 0 6.1 1.5 7.9 4.1l17.7 25.2-13.3 9.3c-.8.6-1 1.6-.4 2.4s1.6 1 2.4.4l14.7-10.3c.8-.4 1-1.5.4-2.3zm-55.9-19.2c-5.4 0-10-4.2-10.5-9.6h21c-.5 5.4-5.1 9.6-10.5 9.6z"/><path d="m30 37.2v1.3c0 1 .8 1.8 1.7 1.8 1 0 1.8-.8 1.8-1.7v-1.3c0-1-.8-1.8-1.8-1.8-.9 0-1.7.8-1.7 1.7z"/><path d="m96.3 35.5c-1 0-1.8.8-1.8 1.8v73.7h-61v-2.7h54.8c1 0 1.8-.8 1.8-1.8s-.8-1.8-1.8-1.8h-54.8v-59.7c0-1-.8-1.8-1.8-1.8s-1.8.8-1.8 1.8v14l-18-12.6 17.7-25.2c1.8-2.6 4.8-4.1 7.9-4.1 1 0 1.8-.8 1.8-1.8s-.8-1.8-1.8-1.8c-4.3 0-8.3 2.1-10.8 5.6l-18.6 26.7c-.6.8-.4 1.9.4 2.4l21.5 15v49.4c0 1 .8 1.8 1.8 1.8h64.5c1 0 1.8-.8 1.8-1.8v-75.4c-.1-.9-.9-1.7-1.8-1.7z"/><path d="m87.3 46.8c1 0 1.8-.8 1.8-1.8s-.8-1.8-1.8-1.8h-9c-1 0-1.8.8-1.8 1.8s.8 1.8 1.8 1.8z"/></g></svg>
