<svg id="icon" enable-background="new 0 0 128 128" height="512" viewBox="0 0 128 128" width="512" xmlns="http://www.w3.org/2000/svg"><path d="m104.7 50.6-11 67.9h-9c0-3.1-2.5-5.6-5.6-5.6h-30.2c-3.1 0-5.6 2.5-5.6 5.6h-9l-.7-4.5-10.3-63.4z" fill="#4b9641"/><path d="m99.8 37c0 6.1-4.9 11-11 11-3.7 0-7.1-1.8-9.1-4.8-1 .7-2.2 1.4-3.3 1.9-2.3 1-4.8 1.5-7.2 1.5-1.9 0-3.8-.3-5.6-.9-3.4-1.1-6.5-3.2-8.7-6-4.2 6.8-13.1 8.9-19.8 4.7s-8.9-13.1-4.7-19.8c2.4-4 6.7-6.5 11.3-6.8h1c1.5 0 3 .2 4.4.7 1.9.6 3.6 1.6 5.1 2.9 2.7-6.9 9.4-11.5 16.8-11.7h.4c9.5 0 17.4 7.1 18.4 16.5.2-.2.6-.2 1.1-.2 6 0 10.9 4.9 10.9 11z" fill="#ff8f2b"/><path d="m19.5 37.2h88.9v13.4h-88.9z" fill="#e4474f"/><path d="m64 48.2c-2.4 0-4.4-2-4.4-4.4s2-4.4 4.4-4.4 4.4 2 4.4 4.4c0 2.5-2 4.4-4.4 4.4z" fill="#983729"/><g fill="#612c00"><path d="m103.7 56.7c-.9-.2-1.8.5-2 1.4l-.1.8c-.2 1 .5 1.9 1.4 2h.3c.9 0 1.6-.6 1.7-1.5l.1-.8c.2-.8-.4-1.7-1.4-1.9z"/><path d="m108.5 35.5h-78.1c-1.9-6.7 2-13.7 8.7-15.6 4.1-1.2 8.5-.2 11.7 2.6.7.6 1.8.6 2.5-.2.1-.1.2-.3.3-.5 3.4-8.6 13.2-12.8 21.7-9.4 5.8 2.3 9.8 7.6 10.5 13.8.1 1 1 1.7 1.9 1.6 3-.4 6 .7 8 3 .6.7 1.8.8 2.5.1.7-.6.8-1.8.1-2.5-2.4-2.6-5.7-4.2-9.3-4.2-2-11-12.6-18.2-23.6-16.1-6 1.1-11.2 5-14.1 10.4-7.5-4.9-17.5-2.7-22.3 4.7-2.4 3.6-3.2 8-2.2 12.3h-7.2c-1 0-1.8.8-1.8 1.8v13.4c0 1 .8 1.8 1.8 1.8h1.5c-.8 3.2-1.3 6.4-1.7 9.7-1 8.9.3 14.2 3.9 16.1.9.5 1.8.7 2.8.7l6.5 39.9c.1.8.9 1.5 1.7 1.5h9c1 0 1.8-.8 1.8-1.8 0-2.1 1.7-3.9 3.9-3.9h30.2c2.1 0 3.9 1.7 3.9 3.9 0 1 .8 1.8 1.8 1.8h9c.9 0 1.6-.6 1.7-1.5l8.3-51.6c.2-1-.5-1.9-1.4-2s-1.9.5-2 1.4l-8.1 50.1h-5.9c-.8-3.3-3.8-5.6-7.2-5.6h-30.4c-3.4 0-6.4 2.3-7.2 5.6h-5.9l-6.2-38.4c5.4-1.9 14.1-8.4 29.5-26h49.4c1 0 1.8-.8 1.8-1.8v-13.4c-.1-.9-.9-1.7-1.8-1.7zm-1.8 13.4h-44.6c.2-.3.5-.6.7-.8.4.1.8.2 1.2.2 2.4 0 4.4-2 4.4-4.4s-2-4.4-4.4-4.4-4.4 2-4.4 4.4c0 .7.2 1.3.5 1.9-19.4 23-28.5 28.6-32.7 29.4h-.1s-.1 0-.1 0c-.8.2-1.6.1-2.3-.2-2.7-1.4-2.8-8-1.8-14.8l1.4 8.6c.1.8.9 1.5 1.7 1.5h.3c1-.2 1.6-1.1 1.4-2l-2.6-15.8h22.8c1 0 1.8-.8 1.8-1.8s-.8-1.8-1.8-1.8h-26.8v-9.9h7.8 77.6z"/><path d="m67.5 16.2c-1 0-1.8.8-1.8 1.8v1.7c0 1 .8 1.8 1.8 1.8s1.8-.8 1.8-1.8v-1.7c-.1-1.1-.8-1.8-1.8-1.8z"/><path d="m76.2 26.6v1.7c0 1 .8 1.8 1.8 1.8s1.8-.8 1.8-1.8v-1.7c0-1-.8-1.8-1.8-1.8s-1.8.8-1.8 1.8z"/><path d="m40.8 26.1c-1 0-1.8.8-1.8 1.8v1.8c0 1 .8 1.8 1.8 1.8s1.8-.8 1.8-1.8v-1.7c0-1.1-.8-1.9-1.8-1.9z"/><path d="m54.9 28.5v1.7c0 1 .8 1.7 1.8 1.7s1.8-.8 1.8-1.7v-1.7c0-1-.8-1.8-1.8-1.8s-1.8.9-1.8 1.8z"/></g></svg>
