<svg id="icon" enable-background="new 0 0 128 128" height="512" viewBox="0 0 128 128" width="512" xmlns="http://www.w3.org/2000/svg"><path d="m9.5 105.4 36.3-18.4v-64.4l-36.3 18.4z" fill="#5dbd52"/><path d="m75.9 41c0-1 .2-2 .7-2.8l-30.8-15.6v64.4l36.3 18.4v-58c-3.4-.1-6.2-2.9-6.2-6.4z" fill="#4b9641"/><path d="m118.5 22.6v64.4l-9 4.6-27.3 13.8v-58c3.5 0 6.3-2.8 6.3-6.3 0-1-.2-2-.7-2.8l21.7-11z" fill="#5dbd52"/><path d="m82.2 25.6c-.9 0-1.8.1-2.7.2-7.4 1.3-12.8 7.7-12.8 15.2 0 6.3 8.4 16.6 12.8 21.6 1.6 1.8 2.7 2.9 2.7 2.9s15.4-15.9 15.4-24.5c0-8.5-6.9-15.4-15.4-15.4zm-6.3 15.4c0-3.5 2.8-6.3 6.3-6.3s6.3 2.8 6.3 6.3-2.8 6.3-6.3 6.3-6.3-2.8-6.3-6.3z" fill="#e4474f"/><g fill="#612c00"><path d="m45.8 38.8c-1 0-1.8.8-1.8 1.8v1.4c0 1 .8 1.8 1.8 1.8s1.8-.8 1.8-1.8v-1.4c0-1.1-.8-1.8-1.8-1.8z"/><path d="m118.5 80.3c1 0 1.8-.8 1.8-1.8v-55.9c0-1-.8-1.7-1.7-1.8-.3 0-.5.1-.8.2l-21.2 10.8c-5.1-8-15.7-10.3-23.7-5.2-2.1 1.3-3.9 3.1-5.2 5.2l-21.1-10.7s0 0-.1 0c-.5-.2-1-.2-1.5 0l-36.3 18.4c-.6.3-1 .9-1 1.6v64.3c0 1 .8 1.7 1.8 1.7.3 0 .5-.1.8-.2l35.5-18 35.5 18c.2.1.5.2.8.2.1 0 .3 0 .4-.1 0 0 .1 0 .1-.1.1 0 .1 0 .2-.1l36.3-18.4c.9-.4 1.2-1.5.8-2.4s-1.5-1.2-2.3-.8l-33.8 17.1v-27c0-1-.8-1.8-1.8-1.8s-1.8.8-1.8 1.8v27l-32.6-16.4v-36.5c0-1-.8-1.8-1.8-1.8s-1.8.8-1.8 1.8v36.5l-32.8 16.6v-60.4l32.8-16.6v8.6c0 1 .8 1.8 1.8 1.8s1.8-.8 1.8-1.8v-8.6l18.5 9.4c-.8 2-1.2 4.1-1.2 6.2 0 9 14.3 24 16 25.7.7.7 1.8.7 2.5 0 1.6-1.7 16-16.7 16-25.7 0-2.1-.4-4.2-1.2-6.2l18.5-9.4v53c.1 1 .8 1.8 1.8 1.8zm-36.3-17.3c-4.8-5.2-13.7-16.1-13.7-22 .1-7.6 6.3-13.7 13.8-13.6s13.5 6.1 13.6 13.6c0 5.9-9 16.8-13.7 22z"/><path d="m88.5 39.3c-1 0-1.8.8-1.8 1.8 0 2.5-2 4.5-4.5 4.5s-4.5-2-4.5-4.5 2-4.5 4.5-4.5c1 0 1.8-.8 1.8-1.8s-.9-1.8-1.8-1.8c-4.4 0-8 3.6-8 8s3.6 8 8 8 8-3.6 8-8c0-.9-.8-1.7-1.7-1.7z"/></g></svg>
