<svg id="icon" enable-background="new 0 0 128 128" height="512" viewBox="0 0 128 128" width="512" xmlns="http://www.w3.org/2000/svg"><ellipse cx="64" cy="76.4" fill="#983729" rx="29.7" ry="17.4"/><path d="m114 81.2c-4.3 4.7-9.6 5-15.6 3.4-8.7-2.3-18.6-8.7-28-11.4-3.8-1.1-7.9-1.2-11.7-.3-.3.1-.7.2-1 .3-13.6 4-28.3 15.5-38.8 11.4-1.9-.7-3.5-1.9-4.9-3.4-7.8-8.6-4-24.1-.1-34.3 2.2-6 8-9.9 14.3-9.9h71.6c6.4 0 12.1 3.9 14.3 9.9 3.8 10.2 7.7 25.7-.1 34.3z" fill="#b55607"/><path d="m109 76.7c-1.2 1.4-2.9 2.2-4.8 2.1-4.5 0-10.8-3-17-5.8-.9-.4-1.8-.8-2.7-1.2-.8-.4-1.7-.8-2.5-1.2-.9-.4-1.7-.8-2.6-1.1-2.2-.9-4.5-1.8-6.7-2.5-.2-.1-.4-.1-.6-.2-5.4-1.6-11.1-1.6-16.5 0-5.2 1.7-10.2 3.7-15.1 6.1-3.4 1.7-6.9 3.2-10.4 4.5-1.6.6-3.2 1-4.9 1.3-.5.1-1.1.1-1.6.1-.7 0-1.3-.1-1.9-.2-1.1-.3-2.1-1-2.8-1.8s-1.3-1.8-1.7-2.8c-2.1-5.3-1.1-13.9 2.9-24.6 1.3-3.4 4.5-5.6 8.1-5.6h71.6c1.5 0 3 .4 4.3 1.2.8.4 1.5 1 2 1.7.6.6 1.1 1.4 1.5 2.2.1.2.2.4.3.6 4.8 12.7 5.2 22.7 1.1 27.2z" fill="#b5e3e9"/><path d="m56.7 43.7-34.9 34.9c-1.1-.3-2.1-1-2.8-1.8s-1.3-1.8-1.7-2.8l30.2-30.2h9.2z" fill="#ebecee"/><path d="m64 43.7-33.7 33.7c-1.6.6-3.2 1-4.9 1.3l35-35z" fill="#ebecee"/><path d="m104.1 44.9-24.6 24.5c-2.2-.9-4.5-1.8-6.7-2.5l23.3-23.3h3.7c1.5.1 3 .5 4.3 1.3z" fill="#ebecee"/><path d="m107.6 48.7-23 23c-.8-.4-1.7-.8-2.5-1.2l24.1-24c.6.7 1.1 1.4 1.4 2.2z" fill="#ebecee"/><path d="m111.8 14.9v89.8c0 7.7-6.2 13.9-13.9 13.9h-24.9c-8 0-14.4-6.5-14.4-14.4v-10.6c1.8.2 3.6.3 5.4.3 1.8 0 3.6-.1 5.4-.3v9.9c0 2.4 1.9 4.3 4.3 4.3h21.5c3.2 0 5.8-2.6 5.8-5.8v-87.1c0-1.4.6-2.8 1.6-3.8.3-.3.7-.6 1.1-.9.8-.5 1.8-.7 2.7-.7 3 0 5.4 2.4 5.4 5.4z" fill="#5dbd52"/><g fill="#4b9641"><path d="m101 64.2h10.8v3.5h-10.8z"/><path d="m101 72.6h10.8v3.5h-10.8z"/><path d="m101 80.9h10.8v3.5h-10.8z"/><path d="m101 89.3h10.8v3.5h-10.8z"/><path d="m101 97.6h10.8v3.5h-10.8z"/></g><path d="m115.8 46.3c-.5-1.4-1.3-2.8-2.2-4v-20.5c0-1-.8-1.8-1.8-1.8s-1.8.8-1.8 1.8v42.4h-7.4v-49.3c0-2 1.6-3.7 3.6-3.7s3.7 1.6 3.7 3.6v.1c0 1 .8 1.8 1.8 1.8s1.8-.8 1.8-1.8c0-4-3.1-7.2-7.1-7.3-4 0-7.2 3.1-7.3 7.1v.2 27h-71c-4.3 0-8.2 2.7-9.7 6.7-5.2 13.7-5.4 24.1-.8 29.2 1.5 1.8 3.7 2.8 6.1 2.7 4.8 0 11.4-3.1 17.7-6 4.8-2.4 9.7-4.4 14.8-6 5.1-1.5 10.4-1.5 15.5 0 5.1 1.6 10 3.7 14.8 6 2.1 1 4.3 2 6.5 3 .9.4 1.9 0 2.3-.9s0-1.9-.9-2.3c-2.1-.9-4.3-1.9-6.4-2.9-4.9-2.5-10.1-4.6-15.3-6.2-5.7-1.6-11.7-1.6-17.4 0-5.3 1.6-10.4 3.7-15.3 6.2-6 2.8-12.2 5.7-16.2 5.7-1.3.1-2.6-.5-3.5-1.5-3.6-4-3-13.6 1.5-25.6 1-2.7 3.6-4.5 6.5-4.5h71v37.5c-4.3-1.1-9.1-3.3-14-5.6-4.6-2.3-9.4-4.3-14.3-5.9-4.5-1.3-9.2-1.3-13.7 0-4.9 1.6-9.7 3.6-14.4 5.9-11.3 5.3-21 9.8-27.5 2.6-7.4-8.1-3-23.8.2-32.5 2-5.3 7.1-8.8 12.7-8.8h57c1 0 1.8-.8 1.8-1.8s-.8-1.8-1.8-1.8h-57c-7.1 0-13.5 4.4-16 11-4.3 11.4-7.7 27 .5 36 2.7 3.2 6.8 5 10.9 4.9 6.4 0 13.6-3.4 20.6-6.6 4.5-2.2 9.1-4.1 13.9-5.7 3.8-1.1 7.9-1.1 11.7 0 4.8 1.5 9.4 3.4 13.8 5.7 1.9.9 3.7 1.7 5.5 2.5-4.6 5.5-14.4 9-25.2 9-8.3 0-16.2-2.1-21.6-5.8-.8-.5-1.9-.3-2.4.5s-.3 1.8.4 2.4c4.9 3.2 10.5 5.2 16.4 5.9v9.1c0 8.9 7.2 16.2 16.2 16.2h24.9c8.6 0 15.7-7 15.7-15.7v-20.5c.6-.5 1.2-1 1.7-1.6 8.2-9.1 4.8-24.6.5-36.1zm-13.1 38.1h7.4v4.8h-7.4zm7.4-3.5h-7.4v-4.8h7.4zm-7.4 11.9h7.4v4.8h-7.4zm7.4-25.1v4.8h-7.4v-4.8zm-12.2 49.2h-24.9c-7 0-12.7-5.7-12.7-12.7v-8.8c1.2.1 2.4.1 3.7.1 12.5 0 23.5-4.3 28.6-11.1 2.1.9 4.4 1.6 6.6 2.1v15.5c0 2.2-1.8 4-4 4h-21.5c-1.4 0-2.5-1.1-2.5-2.5v-3.2c0-1-.8-1.8-1.8-1.8s-1.8.8-1.8 1.8v3.2c0 3.3 2.7 6 6 6h21.5c4.1 0 7.5-3.4 7.5-7.5v-.9h7.4v3.6c.1 6.8-5.4 12.2-12.1 12.2zm15.7-38v-28.2c2.8 8.4 5.4 20.8 0 28.2z" fill="#612c00"/><path d="m91.4 38.8h1.5c1 0 1.8-.8 1.8-1.8s-.8-1.8-1.8-1.8h-1.5c-1 0-1.8.8-1.8 1.8s.8 1.8 1.8 1.8z" fill="#612c00"/></svg>
