<svg id="icon" enable-background="new 0 0 128 128" height="512" viewBox="0 0 128 128" width="512" xmlns="http://www.w3.org/2000/svg"><path d="m83.7 63.3-14.2 51c-.8 3-3.9 4.9-7 4.1-2-.5-3.5-2.1-4.1-4.1l-14.2-51z" fill="#ff8f2b"/><path d="m42.1 56.6h43.7v6.7h-43.7z" fill="#ffda2d"/><path d="m85.2 56.6h-42.4c-2.9 0-5.2-2.3-5.2-5.2 0-.2 0-.3 0-.5.3-2.7 2.7-4.7 5.4-4.7h5.7c-2.9 0-5.2-2.3-5.2-5.2 0-.2 0-.3 0-.5.3-2.7 2.7-4.7 5.4-4.7h3.8c-2.9 0-5.2-2.3-5.2-5.2 0-2.1 1.2-4 3.2-4.8 1.9-.7 3.6-2 4.8-3.7 2.5-3.6 4.6-9.4-4.1-12.7 0 0 21.2-.5 21.2 21.2 0 2.9-2.3 5.2-5.2 5.2h11.6c2.7 0 5 2 5.4 4.7.3 2.9-1.8 5.4-4.7 5.7-.2 0-.3 0-.5 0h5.7c2.7 0 5.1 2 5.4 4.7.3 2.9-1.8 5.4-4.7 5.7-.1 0-.3 0-.4 0z" fill="#ff596b"/><g fill="#612c00"><path d="m66.8 17.8c.6.7 1.7.8 2.5.2s.8-1.7.2-2.5c-.3-.3-.5-.6-.8-.9-.7-.7-1.8-.7-2.5 0-.6.7-.7 1.7-.1 2.4.3.3.5.5.7.8z"/><path d="m92.1 50.8c-.4-3.5-3.3-6.1-6.8-6.3.7-1.2 1-2.7.9-4.1-.4-3.6-3.5-6.3-7.1-6.3h-5.5c.6-1 .9-2.2.9-3.4 0-3.2-.5-6.4-1.5-9.4-.3-.9-1.3-1.4-2.3-1-.9.3-1.4 1.3-1 2.2.9 2.6 1.4 5.4 1.3 8.1 0 1.9-1.5 3.4-3.4 3.4-1 0-1.8.8-1.8 1.8s.8 1.8 1.8 1.8h11.4c1.8 0 3.4 1.3 3.6 3.1.2 1.9-1.2 3.6-3.1 3.8-.1 0-.2 0-.3 0-1 0-1.8.8-1.8 1.8s.8 1.8 1.8 1.8h5.7c1.8 0 3.4 1.3 3.6 3.1.2 1.9-1.2 3.6-3.1 3.8-.1 0-.2 0-.3 0h-28.3c-1 0-1.8.8-1.8 1.8s.8 1.8 1.8 1.8h27.3v3.2h-40.2v-3.2h5.9c1 0 1.8-.8 1.8-1.8s-.8-1.8-1.8-1.8h-7c-1.9 0-3.4-1.5-3.4-3.4 0-.1 0-.2 0-.3.2-1.8 1.8-3.1 3.6-3.1h5.7c1 0 1.8-.8 1.8-1.8s-.8-1.8-1.8-1.8c-1.9 0-3.4-1.5-3.4-3.4 0-.1 0-.2 0-.3.3-1.8 1.8-3.1 3.6-3.1h3.8c1 0 1.8-.8 1.8-1.8s-.8-1.8-1.8-1.8c-1.9 0-3.4-1.5-3.4-3.4 0-1.4.8-2.6 2.1-3.2 2.2-.9 4.2-2.4 5.6-4.3 2.2-3.3 3-6.4 2.1-9.1-.2-.6-.5-1.2-.8-1.7 1 .3 2 .7 2.9 1.2.9.4 1.9.1 2.4-.8.4-.9.1-1.9-.8-2.4 0 0 0 0-.1 0-3.5-1.7-7.4-2.6-11.3-2.6-1 0-1.7.8-1.7 1.8 0 .7.5 1.3 1.1 1.6 2.8 1 4.4 2.4 4.9 4 .6 2-.6 4.4-1.7 6.1-1 1.4-2.4 2.5-4.1 3.1-3.5 1.5-5.2 5.6-3.7 9.1.2.4.3.7.6 1-3.7 1-5.8 4.8-4.8 8.4.2.6.4 1.1.7 1.6-3.5.1-6.4 2.8-6.8 6.3-.3 3.1 1.5 6.1 4.5 7.2v5.4c0 1 .8 1.8 1.8 1.8h39.2l-1 3.6h-10.9c-1 0-1.8.8-1.8 1.8s.8 1.8 1.8 1.8h9.9l-1.9 7h-8c-1 0-1.8.8-1.8 1.8s.8 1.8 1.8 1.8h7l-1.9 7h-5.1c-1 0-1.8.8-1.8 1.8s.8 1.8 1.8 1.8h4.1l-1.9 7h-2.2c-1 0-1.8.8-1.8 1.8s.8 1.8 1.8 1.8h1.2l-2.9 10.3c-.6 2.1-2.8 3.3-4.9 2.8-1.3-.4-2.4-1.4-2.8-2.8l-12.1-44.7c-.3-.9-1.2-1.5-2.2-1.2-.9.3-1.5 1.2-1.2 2.2l12.2 44c1.1 4 5.2 6.3 9.2 5.2 2.5-.7 4.5-2.7 5.2-5.2l13.8-49.9h.8c1 0 1.8-.8 1.8-1.8v-5.4c2.9-1 4.8-3.9 4.5-7z"/></g></svg>
