<svg id="icon" enable-background="new 0 0 128 128" height="512" viewBox="0 0 128 128" width="512" xmlns="http://www.w3.org/2000/svg"><path d="m117.3 55.6-14 13.6c-6.1 5.9-8.8 14.4-7.4 22.8l3.3 19.3c.4 2.2-1.1 4.3-3.3 4.7-.9.2-1.8 0-2.6-.4l-8.2-4.3-9.1-4.8c-7.5-3.9-16.4-3.9-23.9 0l-17.3 9.1c-2 1-4.4.3-5.5-1.7-.4-.8-.6-1.7-.4-2.6l.4-2.2 2.8-17.1c1.4-8.3-1.3-16.8-7.4-22.8l-14-13.6c-1.6-1.6-1.6-4.1-.1-5.8.6-.6 1.4-1.1 2.3-1.2l19.4-2.8c8.4-1.2 15.6-6.5 19.4-14.1l5.8-11.7 2.8-5.7c1-2 3.4-2.8 5.4-1.9.8.4 1.5 1 1.9 1.9l8.7 17.5c3.7 7.5 10.9 12.8 19.2 14l5.6.8h.1l13.9 2c2.2.3 3.8 2.4 3.4 4.6-.2.9-.6 1.8-1.2 2.4z" fill="#ff8f2b"/><circle cx="64" cy="32.6" fill="#ffda2d" r="3.2"/><circle cx="64" cy="46.9" fill="#ffda2d" r="5.3"/><ellipse cx="96.7" cy="58.8" fill="#ffda2d" rx="3.2" ry="3.2" transform="matrix(.984 -.177 .177 .984 -8.897 18.084)"/><ellipse cx="82.7" cy="61.4" fill="#ffda2d" rx="5.3" ry="5.3" transform="matrix(.984 -.177 .177 .984 -9.571 15.628)"/><ellipse cx="82.2" cy="93.7" fill="#ffda2d" rx="3.2" ry="3.2" transform="matrix(.85 -.527 .527 .85 -37.074 57.41)"/><ellipse cx="74.6" cy="81.6" fill="#ffda2d" rx="5.3" ry="5.3" transform="matrix(.85 -.527 .527 .85 -31.795 51.603)"/><ellipse cx="31.3" cy="58.8" fill="#ffda2d" rx="3.2" ry="3.2" transform="matrix(.177 -.984 .984 .177 -32.182 79.153)"/><ellipse cx="45.3" cy="61.4" fill="#ffda2d" rx="5.3" ry="5.3" transform="matrix(.177 -.984 .984 .177 -23.09 95.108)"/><ellipse cx="45.8" cy="93.7" fill="#ffda2d" rx="3.2" ry="3.2" transform="matrix(.527 -.85 .85 .527 -57.976 83.259)"/><ellipse cx="53.4" cy="81.6" fill="#ffda2d" rx="5.3" ry="5.3" transform="matrix(.527 -.85 .85 .527 -44.072 83.921)"/><circle cx="64" cy="65.4" fill="#ffda2d" r="7.1"/><g fill="#612c00"><path d="m99.4 102.4c-.1-1-1-1.6-2-1.5s-1.6 1-1.5 2v.1l1.5 8.6c.2 1.3-.6 2.5-1.9 2.7-.5.1-1 0-1.5-.2l-17.3-9.1c-8-4.2-17.6-4.2-25.5 0l-17.3 9c-1.1.6-2.5.2-3.1-1-.2-.5-.3-1-.2-1.5l3.3-19.3c1.5-8.9-1.4-18-7.9-24.3l-14-13.6c-.9-.9-.9-2.4 0-3.3.4-.4.8-.6 1.3-.7l13-1.9c1-.1 1.6-1 1.5-2-.1-.9-1-1.6-2-1.5l-13 1.9c-3.2.5-5.4 3.4-4.9 6.6.2 1.3.8 2.4 1.7 3.3l14 13.7c5.6 5.5 8.2 13.4 6.9 21.2l-3.4 19.4c-.5 3.2 1.6 6.2 4.7 6.7 1.3.2 2.6 0 3.7-.6l17.3-9.1c7-3.7 15.3-3.7 22.3 0l17.3 9.1c2.8 1.5 6.4.4 7.9-2.4.6-1.1.8-2.4.6-3.7z"/><path d="m120 50.9c-.7-2.1-2.5-3.7-4.7-4l-19.4-2.8c-7.8-1.1-14.5-6-18-13.1l-8.7-17.5c-1.4-2.9-4.9-4.1-7.8-2.6-1.1.6-2.1 1.5-2.6 2.6l-8.7 17.5c-1.7 3.4-4.2 6.4-7.2 8.6-.8.6-.9 1.7-.4 2.4s1.7.9 2.4.4c3.5-2.6 6.3-6 8.3-9.9l8.7-17.5c.6-1.1 2-1.6 3.1-1.1.5.2.8.6 1.1 1.1l8.7 17.5c4 8.1 11.7 13.7 20.7 15l19.4 2.8c1.3.2 2.1 1.4 2 2.6-.1.5-.3 1-.7 1.3l-14.2 13.8c-6.5 6.3-9.4 15.4-7.9 24.3.1.8.9 1.5 1.7 1.5h.3c1-.2 1.6-1.1 1.4-2-1.3-7.8 1.2-15.7 6.9-21.2l14-13.7c1.7-1.6 2.3-3.9 1.6-6z"/><path d="m35.4 46.9c.2 0 .3 0 .5-.1.4-.1.8-.2 1.2-.4.9-.3 1.4-1.3 1.1-2.2s-1.3-1.4-2.2-1.1c-.4.1-.7.2-1.1.3-.9.3-1.5 1.2-1.2 2.1.2.9.9 1.4 1.7 1.4z"/><path d="m69 32.6c0-2.7-2.2-5-5-5-2.7 0-5 2.2-5 5 0 2.7 2.2 5 5 5 2.7 0 5-2.3 5-5zm-6.5 0c0-.8.7-1.5 1.5-1.5s1.5.7 1.5 1.5-.7 1.5-1.5 1.5-1.5-.7-1.5-1.5z"/><path d="m56.9 46.9c0 3.9 3.2 7.1 7.1 7.1s7.1-3.2 7.1-7.1-3.2-7.1-7.1-7.1-7.1 3.2-7.1 7.1zm7.1-3.6c2 0 3.6 1.6 3.6 3.6s-1.6 3.6-3.6 3.6-3.6-1.6-3.6-3.6c0-2 1.6-3.6 3.6-3.6z"/><path d="m96.5 57.4c1-.2 1.6-1.1 1.4-2-.2-1-1.1-1.6-2-1.4 0 0 0 0-.1 0-2.7.5-4.5 3.1-4 5.8s3.1 4.5 5.8 4 4.5-3.1 4-5.7c-.2-1-1.1-1.6-2-1.4-1 .2-1.6 1.1-1.4 2 .1.8-.4 1.5-1.2 1.7s-1.5-.4-1.7-1.2c-.1-.9.4-1.7 1.2-1.8z"/><path d="m89.6 60.1c-.7-3.9-4.4-6.4-8.2-5.7-3.9.7-6.4 4.4-5.7 8.2.7 3.9 4.4 6.4 8.2 5.7 3.9-.7 6.4-4.3 5.7-8.2zm-6.3 4.8c-1.9.4-3.8-.9-4.2-2.9-.4-1.9.9-3.8 2.9-4.2 1.9-.4 3.8.9 4.2 2.9.3 2-.9 3.8-2.9 4.2z"/><path d="m79.6 89.5c-2.3 1.4-3 4.5-1.6 6.8s4.5 3 6.8 1.6 3-4.5 1.6-6.8-4.5-3-6.8-1.6zm4 4.6c-.2.8-1 1.3-1.7 1.1-.4-.1-.7-.3-.9-.6-.4-.7-.2-1.6.5-2s1.6-.2 2 .5c.1.2.2.6.1 1z"/><path d="m70.9 75.5c-3.3 2.1-4.3 6.4-2.3 9.8 2.1 3.3 6.4 4.3 9.8 2.3 3.3-2.1 4.3-6.4 2.3-9.8-2.1-3.3-6.5-4.3-9.8-2.3zm6.8 4.2c1 1.7.5 3.9-1.2 4.9s-3.9.5-4.9-1.2-.5-3.9 1.2-4.9c.6-.4 1.2-.5 1.9-.5 1.2 0 2.3.6 3 1.7z"/><path d="m26.4 57.9c-.5 2.7 1.3 5.3 4 5.8s5.3-1.3 5.8-4-1.3-5.3-4-5.8c-1.3-.2-2.6.1-3.7.8-1.2.8-1.9 2-2.1 3.2zm3.4.7c.1-.7.7-1.2 1.4-1.2h.3c.8.1 1.3.9 1.2 1.7s-.9 1.3-1.7 1.2c-.8-.2-1.3-.9-1.2-1.7z"/><path d="m44.1 68.3c3.9.7 7.5-1.9 8.2-5.7s-1.9-7.5-5.7-8.2-7.5 1.9-8.2 5.7c-.7 3.9 1.8 7.5 5.7 8.2zm-2.3-7.6c.4-1.9 2.2-3.2 4.2-2.9 1.9.4 3.2 2.2 2.9 4.2-.4 1.9-2.2 3.2-4.2 2.9-1.9-.4-3.2-2.2-2.9-4.2z"/><path d="m48.4 89.5c-2.3-1.4-5.4-.7-6.8 1.6s-.7 5.4 1.6 6.8 5.4.7 6.8-1.6c.7-1.1.9-2.5.6-3.7-.2-1.3-1-2.4-2.2-3.1zm-1.3 5c-.4.7-1.3.9-2 .5s-.9-1.3-.5-2 1.3-.9 2-.5.9 1.3.5 2z"/><path d="m51.5 84.6c-1.7-1-2.2-3.3-1.2-4.9.5-.8.3-1.9-.6-2.4-.8-.5-1.9-.3-2.4.6-2.1 3.3-1 7.7 2.3 9.8s7.7 1 9.8-2.3 1-7.7-2.3-9.8c-.8-.5-1.9-.3-2.4.6-.5.8-.3 1.9.6 2.4 1.7 1.1 2.2 3.3 1.1 4.9s-3.2 2.1-4.9 1.1z"/><path d="m64 74.3c4.9 0 8.9-4 8.9-8.9s-4-8.9-8.9-8.9-8.9 4-8.9 8.9 4 8.9 8.9 8.9zm0-14.2c3 0 5.4 2.4 5.4 5.4s-2.4 5.3-5.4 5.3-5.4-2.4-5.4-5.4c0-2.9 2.4-5.3 5.4-5.3z"/></g></svg>
