<svg id="icon" enable-background="new 0 0 128 128" height="512" viewBox="0 0 128 128" width="512" xmlns="http://www.w3.org/2000/svg"><path d="m118.5 44.5v49.8c0 3.5-2.9 6.4-6.4 6.4h-96.2c-3.5 0-6.4-2.9-6.4-6.4v-49.8c0-3.5 2.9-6.4 6.4-6.4h26.8l6-10.8h30.7l6 10.8h26.8c3.4 0 6.3 2.9 6.3 6.4z" fill="#b5e3e9"/><circle cx="64" cy="68.5" fill="#92d5f3" r="26.6"/><path d="m83.9 68.5c0 11-8.9 19.9-19.9 19.9-2.9 0-5.7-.6-8.4-1.8-.9-.4-1.7-.9-2.6-1.4-.7-.4-1.3-.9-2-1.5-4.5-3.8-7.1-9.3-7.1-15.2 0-11 8.9-19.9 19.9-19.9 3.5 0 7 .9 10 2.7 2 1.1 3.7 2.6 5.2 4.4.5.6 1 1.3 1.5 2 .5.8 1 1.7 1.4 2.6 1.4 2.5 2 5.3 2 8.2z" fill="#b5e3e9"/><path d="m98.5 46.1h11v11h-11z" fill="#ebecee"/><path d="m20.5 31.1h15v7h-15z" fill="#ff596b"/><path d="m79.2 55.7-28.1 28c-1.7-1.5-3.2-3.2-4.4-5.2l27.3-27.2c2 1.1 3.7 2.6 5.2 4.4z" fill="#ebecee"/><path d="m82.1 60.2-26.4 26.4c-.9-.4-1.7-.9-2.6-1.4l27.6-27.6c.5.8 1 1.7 1.4 2.6z" fill="#ebecee"/><g fill="#612c00"><path d="m64 90.2c12 0 21.7-9.7 21.7-21.7s-9.7-21.7-21.7-21.7-21.7 9.7-21.7 21.7c0 12 9.7 21.7 21.7 21.7zm0-39.8c10 0 18.2 8.1 18.2 18.2s-8.2 18.1-18.2 18.1-18.2-8.1-18.2-18.2c0-10 8.2-18.1 18.2-18.1z"/><path d="m112.1 36.4h-18.1c-1 0-1.8.8-1.8 1.8s.8 1.8 1.8 1.8h18.1c2.6 0 4.7 2.1 4.7 4.7v49.8c0 2.6-2.1 4.7-4.7 4.7h-96.2c-2.6 0-4.7-2.1-4.7-4.7v-50c0-2.6 2.1-4.7 4.7-4.7h26.8c.6 0 1.2-.3 1.5-.9l5.5-9.9h28.6l5.5 9.9c.5.8 1.5 1.2 2.4.7.8-.5 1.2-1.5.7-2.4l-6-10.8c-.3-.6-.9-.9-1.5-.9h-30.7c-.6 0-1.2.3-1.5.9l-5.5 9.9h-4.4v-5.2c0-1-.8-1.8-1.8-1.8h-15c-1 0-1.7.8-1.7 1.8s.8 1.7 1.7 1.7h13.3v3.5h-17.9c-4.5 0-8.2 3.7-8.2 8.2v49.8c0 4.5 3.7 8.2 8.2 8.2h96.2c4.5 0 8.2-3.7 8.2-8.2v-49.8c-.1-4.5-3.7-8.1-8.2-8.1z"/><path d="m109.5 58.9c1 0 1.8-.8 1.8-1.8v-11c0-1-.8-1.8-1.8-1.8h-11c-1 0-1.8.8-1.8 1.8v11c0 1 .8 1.8 1.8 1.8zm-9.2-11h7.5v7.5h-7.5z"/><path d="m42.8 49.8c-10.3 11.7-9.2 29.6 2.5 39.9s29.6 9.2 39.9-2.5 9.2-29.6-2.5-39.9c-9.7-8.5-23.9-9.5-34.6-2.2-.8.6-1 1.6-.4 2.4.5.8 1.6 1 2.4.5 11.4-7.7 26.8-4.7 34.5 6.7s4.7 26.8-6.7 34.5-26.8 4.7-34.5-6.7c-6.3-9.4-5.5-21.9 2-30.3.6-.7.6-1.8-.2-2.5s-1.8-.7-2.4.1z"/><path d="m70.4 59.6c2.9 2.1 4.6 5.4 4.6 8.9 0 1 .8 1.8 1.8 1.8s1.8-.8 1.8-1.8c0-4.7-2.3-9.1-6.1-11.8-.8-.6-1.9-.4-2.4.4-.7.8-.5 1.9.3 2.5z"/><path d="m64 57.5c.5 0 1 0 1.5.1 1 .1 1.8-.5 2-1.5s-.5-1.8-1.5-2c-.7 0-1.4-.1-2-.1-1 0-1.8.8-1.8 1.8s.8 1.7 1.8 1.7z"/></g></svg>
