<svg id="icon" enable-background="new 0 0 128 128" height="512" viewBox="0 0 128 128" width="512" xmlns="http://www.w3.org/2000/svg"><path d="m118.5 61.3c0 6.7-5.4 12.1-12.1 12.1h-73v-24.1h73c6.7 0 12.1 5.4 12.1 12z" fill="#ff596b"/><path d="m33.5 65.9-9.7 4v-17.2l9.7 4z" fill="#ffda2d"/><path d="m110 108.5h-12.1c-1.6 0-3-.9-3.8-2.3l-18.1-32.8h29.2l8.9 29.4c.7 2.3-.6 4.7-2.9 5.4-.4.2-.8.3-1.2.3z" fill="#ff596b"/><path d="m71.3 91.9c-1.5 0-2.7-1.2-2.7-2.7v-5.8c0-1.5 1.2-2.7 2.7-2.7 1.5 0 2.7 1.2 2.7 2.7v5.8c0 1.5-1.2 2.7-2.7 2.7z" fill="#ffda2d"/><path d="m105.6 31.1c0 6.4-5.2 11.6-11.6 11.6h-41.3c-6.4 0-11.6-5.2-11.6-11.6s5.2-11.6 11.6-11.6h41.3c6.4 0 11.6 5.2 11.6 11.6z" fill="#ffc900"/><path d="m59 19.5h4.8v23.1h-4.8z" fill="#ffa500"/><path d="m82.9 19.5h4.8v23.1h-4.8z" fill="#ffa500"/><path d="m90.6 65.9h-57.1v7.5h61.5z" fill="#e4474f"/><g fill="#612c00"><path d="m106.4 75.2c7.6 0 13.8-6.2 13.8-13.8s-6.2-13.8-13.8-13.8h-10.6v-3.3c7.3-1 12.4-7.7 11.4-14.9-.9-6.6-6.5-11.6-13.2-11.6h-41.3c-7.4 0-13.3 6-13.3 13.3 0 6.7 4.9 12.3 11.6 13.2v3.3h-17.5c-1 0-1.8.8-1.8 1.8v4.8l-7.2-3c-.9-.4-1.9.1-2.3.9-.1.2-.1.4-.1.7v17.3c0 1 .8 1.8 1.8 1.7.2 0 .5 0 .7-.1l7.2-3v4.9c0 1 .8 1.8 1.8 1.8h41.5l5.2 9.4h-4.4v-1.2c0-2.4-1.9-4.4-4.4-4.5-2.4 0-4.4 1.9-4.5 4.4v.1 5.8c0 2.4 1.9 4.4 4.4 4.5 2.4 0 4.4-1.9 4.5-4.4v-.1-1.2h6.4l10.5 19c1.1 1.9 3.1 3.2 5.3 3.2h11.9c3.4 0 6.1-2.7 6.1-6.1 0-.6-.1-1.2-.3-1.8l-6.7-22.1c-.3-.9-1.3-1.4-2.2-1.2-.9.3-1.4 1.3-1.2 2.2l6.7 22.1c.4 1.4-.4 2.8-1.7 3.2-.2.1-.5.1-.8.1h-12c-.9 0-1.8-.5-2.3-1.3l-16.7-30.3zm-34.2 14.1c0 .5-.4.9-.9.9s-.9-.4-.9-.9c0 0 0 0 0-.1v-5.8c0-.5.4-.9.9-.9s.9.4.9.9v.1zm31.6-58.2c0 5.4-4.4 9.8-9.8 9.8h-4.6v-13.9c0-1-.8-1.8-1.8-1.8s-1.6.8-1.6 1.8v13.9h-1.3v-19.6h9.3c5.4 0 9.8 4.3 9.8 9.8zm-38.2 9.8v-19.6h15.5v19.6zm-3.5-19.6v19.6h-1.3v-19.6zm-19.3 9.8c0-5.4 4.4-9.8 9.8-9.8h4.6v19.6h-4.6c-5.4 0-9.8-4.4-9.8-9.8zm11.6 13.3h37.9v3.1h-37.9zm-28.8 22.9v-12l6.1 2.5v6.9zm9.6-16.3h71.2c5.7 0 10.3 4.6 10.3 10.3s-4.6 10.3-10.3 10.3h-10.4l-3.9-6.6c-.3-.5-.9-.9-1.5-.9h-42c-1 0-1.8.8-1.8 1.8s.8 1.8 1.8 1.8h41l2.4 4h-56.8z"/><path d="m41.9 64.2h-1.6c-1 0-1.8.8-1.8 1.8s.8 1.8 1.8 1.8h1.6c1 0 1.8-.8 1.8-1.8s-.9-1.8-1.8-1.8z"/><path d="m8.7 49c.7.7 1.8.6 2.5-.1s.6-1.8-.1-2.5l-.4-.3c-.7-.6-1.8-.5-2.5.2-.5.7-.5 1.7.1 2.4z"/><path d="m11.9 52.1 3.9 3.7c.7.7 1.8.7 2.5.1.7-.7.7-1.8.1-2.5 0-.1-.1-.1-.2-.1l-3.9-3.7c-.7-.7-1.8-.6-2.5.1-.6.6-.6 1.7.1 2.4z"/><path d="m15.8 65.2-7.5 7.1c-.7.7-.6 1.8.1 2.5.6.6 1.6.6 2.3.1l7.5-7.1c.7-.7.6-1.8-.1-2.5-.6-.6-1.6-.6-2.3-.1z"/><path d="m17 58.8h-7.5c-1 0-1.8.8-1.8 1.8s.8 1.8 1.8 1.8h7.5c1 0 1.8-.8 1.8-1.8s-.8-1.8-1.8-1.8z"/></g></svg>
