<svg id="icon" enable-background="new 0 0 128 128" height="512" viewBox="0 0 128 128" width="512" xmlns="http://www.w3.org/2000/svg"><path d="m86.8 34.8-15 15.4-7.8.6-5.6-.4-2.2-.2-15-15.4 12.2 1.7-5.7-15.9 10.8 3.1 5.5-14.2 5.5 14.2 10.8-3.1-5.7 15.9z" fill="#5dbd52"/><path d="m99.4 98.7c0 .8 0 1.7-.1 2.4-.1 1.3-.3 2.6-.6 3.9-1.5 6.2-5.4 9.5-10.9 11.3-1.2.4-2.4.7-3.7.9-5.7 1.1-12.6 1.2-20.1 1.2h-1c-1.4 0-2.8 0-4.2 0-.1 0-.3 0-.4 0-.8 0-1.6 0-2.4 0-1.4 0-2.8-.1-4.1-.2-7.2-.4-13.2-1.6-17.4-4.8-.9-.7-1.8-1.5-2.5-2.5-2.2-2.9-3.5-6.8-3.5-12.3 0-2.5.2-5 .7-7.5.3-1.8.7-3.8 1.2-5.7 1.5-5.4 3.5-10.7 6.2-15.7.6-1.1 1.2-2.1 1.8-3.1 2.6-4.4 5.8-8.5 9.6-12 .9-.8 1.8-1.5 2.7-2.2 2.3-1.7 4.8-3 7.4-3.9 1.9-.6 3.8-.9 5.8-.9 1.4 0 2.9.2 4.3.5 1.2.3 2.4.7 3.6 1.2 4.8 2.4 8.9 5.7 12.2 9.7.8.9 1.5 1.8 2.2 2.7 3.1 4.3 5.8 8.9 7.9 13.8.5 1.1.9 2.3 1.4 3.4 2.4 6.4 3.7 13.1 3.9 19.8z" fill="#ff8f2b"/><g fill="#612c00"><path d="m82.7 57.5c-.7.6-.8 1.7-.2 2.5.2.2.3.4.5.6.6.7 1.7.8 2.5.2.7-.6.8-1.7.2-2.5-.2-.2-.4-.4-.5-.6-.7-.8-1.8-.9-2.5-.2z"/><path d="m100.8 103.7c.3-1.6.4-3.3.4-5 0-6.7-1.8-14.5-4.8-22.1 0 0 0-.1-.1-.1-1.8-4.5-4-8.8-6.6-12.8-.5-.8-1.6-1-2.4-.5s-1 1.6-.5 2.4c2.3 3.5 4.3 7.3 5.9 11.2l-8.8 8.8-7.1-7.1c-.7-.7-1.8-.7-2.5 0s-.7 1.8 0 2.5l7.1 7.1-10.8 10.8-10.7-10.8 21.3-21.3c.7-.7.7-1.8 0-2.5s-1.8-.7-2.5 0l-8 8-5.4-5.4c-.7-.7-1.8-.7-2.5 0s-.7 1.8 0 2.5l5.4 5.4-10.8 10.9-10.8-10.8 12-12 12-12c2.5 1 4.8 2.4 6.9 4.1.8.6 1.9.5 2.5-.3.6-.7.5-1.8-.2-2.4-2.6-2.2-5.6-3.9-8.8-5-.1 0-.1 0-.2-.1-4.7-1.7-9.9-1.5-14.6.4l-10.2-10.3 7.1 1c1 .1 1.8-.5 2-1.5 0-.3 0-.6-.1-.8l-4.5-12.7 7.5 2.2c.9.3 1.8-.2 2.1-1.1l3.8-10 3.8 10c.3.8 1.2 1.3 2.1 1.1l7.5-2.2-4.3 12.7c-.3.9.2 1.9 1.1 2.2.3.1.5.1.8.1l7.1-1-5.2 5.3c-.7.7-.7 1.8-.1 2.5.7.7 1.8.7 2.5.1 0 0 .1-.1.1-.1l8.8-9c.7-.7.7-1.8 0-2.5-.4-.4-.9-.6-1.5-.5l-9.3 1.3 4.7-13.2c.3-.9-.2-1.9-1.1-2.2-.3-.1-.7-.1-1.1 0l-9.2 2.7-5-12.8c-.3-.9-1.4-1.4-2.3-1-.5.2-.8.5-1 1l-4.9 12.7-9.2-2.7c-.9-.3-1.9.3-2.2 1.2-.1.4-.1.7 0 1.1l4.7 13.2-9.3-1.3c-1-.1-1.8.5-2 1.5-.1.5.1 1.1.5 1.5l12.9 13.2c-1.5.9-2.9 1.8-4.2 2.9-.2.1-.3.2-.4.3 0 0 0 .1-.1.1-12.6 10.3-21.3 31.1-21.3 46.1 0 21.5 18.1 21.5 37.2 21.5 17.5 0 34.1 0 36.8-16.5zm-6.7-23.3c2.2 5.9 3.4 12.1 3.6 18.4v.7l-11.4-11.4zm-39.2 7.7-5.4 5.4c-.7.7-.7 1.8 0 2.5s1.8.7 2.5 0l5.4-5.4 10.7 10.8-10.7 10.8-12-12s0 0 0 0l-12-12 10.8-10.8zm-1.9 28.4c-7.4-.4-13.3-1.4-17.2-4.3l8.4-8.4 10.7 10.7zm-15-45.3 3.7 3.7-8.9 8.9c1.3-4.4 3.1-8.6 5.2-12.6zm28.8-21.4-9.4 9.4-5.4-5.3c3.4-2.6 7.6-4.1 12-4.3.9 0 1.9.1 2.8.2zm-17.5 6.3 5.6 5.6-10.7 10.7-4.5-4.4c2.6-4.4 5.8-8.5 9.6-11.9zm-18.2 34.7 10.6 10.6-8.4 8.4c-2-2.6-3-6.1-3-11 .1-2.7.3-5.4.8-8zm30.9 25.9-2.2-2.2 10.7-10.7 12 12c-5.1.8-11.3 1-18.6 1-.6-.1-1.2-.1-1.9-.1zm24.6-1.8-13.5-13.5 10.7-10.8 13.3 13.3c-1.2 6.1-4.8 9.3-10.5 11z"/></g></svg>
