<svg id="icon" enable-background="new 0 0 128 128" height="512" viewBox="0 0 128 128" width="512" xmlns="http://www.w3.org/2000/svg"><path d="m118.5 73.6-14.9 3.1-15 3.2c-.1-.2-.1-.4-.2-.6-3.2-13.3-16.6-21.5-29.9-18.3-9.3 2.3-16.5 9.7-18.4 19l-13.3-2.8-1.7-.4-15.6-3.2c6.4-30.1 35.9-49.4 66-43 21.6 4.6 38.4 21.4 43 43z" fill="#983729"/><path d="m72.3 98.6h-16.6l8.3-13.5z" fill="#983729"/><g fill="#612c00"><path d="m49.4 33.1c.2 0 .3 0 .5-.1.5-.1 1-.3 1.5-.4.9-.2 1.6-1.1 1.4-2.1s-1.1-1.6-2.1-1.4h-.1c-.6.1-1.1.3-1.6.4-.9.3-1.5 1.2-1.2 2.1.1 1 .8 1.5 1.6 1.5z"/><path d="m120.2 73.3c-5.7-26.6-29.1-45.5-56.2-45.6-2.1 0-4.2.1-6.3.3-1 .1-1.7 1-1.6 1.9.1 1 1 1.7 1.9 1.6 1.4-.2 2.8-.2 4.2-.3v27.4c-4.3.3-8.4 1.7-12 4l-15.9-22.5c2.6-1.7 5.3-3.2 8.2-4.5.9-.4 1.3-1.4.9-2.3s-1.4-1.3-2.3-.9c-3.6 1.6-7 3.5-10.1 5.7 0 0-.1 0-.1.1s-.1.1-.1.1c-11.9 8.4-20 20.9-23 35-.2.9.4 1.9 1.4 2.1l52.1 11-7 11.3c-.5.8-.2 1.9.6 2.4.3.2.6.3.9.3h16.5c1 0 1.7-.8 1.7-1.8 0-.3-.1-.6-.3-.9l-7-11.3 21.9-4.6h.3c.1 0 .2 0 .3-.1l29.6-6.2c1-.4 1.6-1.3 1.4-2.2zm-33.7 5.3-18.5 3.9 10.8-15.3c3.7 2.9 6.3 6.9 7.7 11.4zm-20.7 1v-17.5c3.6.2 7.1 1.3 10.2 3.1zm-3.5-17.4v17.5l-10-14.1c3-2 6.4-3.1 10-3.4zm-30.9-20.1 16 22.6c-2.2 1.9-4.2 4.1-5.7 6.6-.5.8-.2 1.9.6 2.4s1.9.2 2.4-.6c1.3-2.1 2.9-4 4.7-5.6l10.6 15-48.4-10.2c3-12 10-22.7 19.8-30.2zm27.5 54.7 5.1-8.4 5.1 8.4zm31-18.9c-1.5-5.3-4.7-10.1-9-13.5l11.8-16.6c.6-.8.4-1.9-.3-2.5-.8-.6-1.9-.4-2.5.3 0 0 0 .1-.1.1l-11.8 16.7c-3.7-2.2-7.9-3.5-12.2-3.7v-27.5c24.2.9 44.8 17.6 50.7 41.1z"/></g></svg>
