<svg id="icon" enable-background="new 0 0 128 128" height="512" viewBox="0 0 128 128" width="512" xmlns="http://www.w3.org/2000/svg"><path d="m90.5 31.9v74.6c0 3.3-2.7 6-6 6h-41.1c-3.3 0-6-2.7-6-6v-74.6c0-3.3 2.7-6 6-6h41.1c3.4 0 6 2.7 6 6z" fill="#4b9641"/><path d="m44 112.5h40v6h-40z" fill="#ebecee"/><path d="m44 19.9h40v6h-40z" fill="#ebecee"/><path d="m90.5 64.6h-16.2c-3.6-5.7-11.1-7.4-16.7-3.8-1.5 1-2.8 2.3-3.8 3.8h-16.3v13h16.3c3.6 5.7 11.1 7.4 16.7 3.8 1.5-1 2.8-2.3 3.8-3.8h16.3v-13z" fill="#ffa500"/><path d="m75.9 9.5h.8c2.1 0 3.8 1.7 3.8 3.8v6.6h-8.4v-6.6c0-2.1 1.7-3.8 3.8-3.8z" fill="#ebecee"/><g fill="#612c00"><path d="m90.5 30.2c-1 0-1.8.8-1.8 1.8v30.9h-13.5c-4.5-6.2-13.2-7.5-19.4-3-1.1.8-2.2 1.8-3 3h-13.6v-31c0-2.3 1.9-4.2 4.2-4.2h.3.3 3.7c1 0 1.8-.8 1.8-1.8s-.8-1.8-1.8-1.8h-2v-2.5h36.5v2.5h-21c-1 0-1.8.8-1.8 1.8s.8 1.8 1.8 1.8h22.8c1 0 1.8-.8 1.8-1.8v-6c0-1-.8-1.8-1.8-1.8h-1.7v-4.8c0-3.1-2.5-5.6-5.6-5.6h-.8c-3.1 0-5.6 2.5-5.6 5.6v4.8h-26.3c-1 0-1.8.8-1.8 1.8v4.4c-3.8.6-6.6 3.8-6.6 7.6v74.6c0 3.8 2.8 7 6.6 7.6v4.4c0 1 .8 1.8 1.8 1.8h40c1 0 1.8-.8 1.8-1.8v-4.4c3.8-.6 6.6-3.8 6.6-7.6v-74.6c-.1-1-.9-1.7-1.9-1.7zm-16.7-16.9c0-1.1.9-2.1 2.1-2.1h.8c1.1 0 2.1.9 2.1 2.1v4.8h-4.9v-4.8zm-28 103.5v-2.5h36.5v2.5zm38.8-6.1h-41.2c-2.3 0-4.2-1.9-4.2-4.2v-40.1h14.5c.6 0 1.2-.3 1.5-.8 3-4.9 9.5-6.3 14.3-3.3 1.3.8 2.4 2 3.3 3.3.3.5.9.8 1.5.8h14.5v9.5h-14.5c-.6 0-1.2.3-1.5.8-3 4.9-9.5 6.3-14.3 3.3-1.3-.8-2.4-2-3.3-3.3-.3-.5-.9-.8-1.5-.8h-8.6c-1 0-1.8.8-1.8 1.8s.8 1.8 1.8 1.8h7.6c4.5 6.2 13.2 7.5 19.4 3 1.1-.8 2.2-1.8 3-3h13.6v27.2c.1 2.1-1.8 4-4.1 4z"/><path d="m53.4 24.2c-1 0-1.8.8-1.8 1.8s.8 1.8 1.8 1.8h1.5c1 0 1.8-.8 1.8-1.8s-.8-1.8-1.8-1.8z"/></g></svg>
