<svg id="icon" enable-background="new 0 0 128 128" height="512" viewBox="0 0 128 128" width="512" xmlns="http://www.w3.org/2000/svg"><path d="m61.3 17.9-1 6.3-8.9 55.9h-28.3l-8.9-55.9-1-6.3c.1-.1.3-.2.4-.3.9 1.7 2.1 3.2 3.5 4.4 2 1.7 4.6 2.7 7.3 2.7 4.7 0 8.8-3 11-7.4 1.2-2.3 1.8-4.9 1.8-7.5 0 2.6.6 5.2 1.8 7.5 2.2 4.4 6.3 7.4 11 7.4h1c2.3-.2 4.6-1.1 6.3-2.7 1.5-1.2 2.7-2.7 3.5-4.4.2.1.3.2.5.3z" fill="#b5e3e9"/><path d="m23.1 80.1h28.2v10h-28.2z" fill="#b55607"/><ellipse cx="37.2" cy="88.2" fill="#983729" rx="7.1" ry="13.3"/><path d="m114.8 34.9-1 6.3-8.9 55.9h-28.2l-8.9-55.9-1-6.3c.1-.1.3-.2.4-.3.9 1.7 2.1 3.2 3.5 4.4 2 1.7 4.6 2.7 7.3 2.7 4.7 0 8.8-3 11-7.4 1.2-2.3 1.8-4.9 1.8-7.5 0 2.6.6 5.2 1.8 7.5 2.2 4.4 6.3 7.4 11 7.4h1c2.3-.2 4.6-1.1 6.3-2.7 1.5-1.2 2.7-2.7 3.5-4.4.2.1.3.2.4.3z" fill="#b5e3e9"/><path d="m76.7 97.1h28.2v10h-28.2z" fill="#b55607"/><ellipse cx="90.8" cy="105.2" fill="#983729" rx="7.1" ry="13.3"/><g fill="#612c00"><path d="m62 14.2c-.9-.2-1.8.2-2.1 1-1.8 4.6-5.7 7.5-9.9 7.5-6.1 0-11-5.9-11-13.1 0-1-.8-1.8-1.8-1.8s-1.8.8-1.8 1.8c0 7.2-4.9 13.1-11 13.1-4.2 0-8.1-2.9-9.9-7.5-.4-.9-1.4-1.3-2.3-1-.8.3-1.2 1.1-1.1 1.9l10.3 63.9v9.9c0 1 .8 1.8 1.8 1.8h5.5c1 6.6 4.4 11.3 8.6 11.3s7.6-4.7 8.6-11.3h5.5c1 0 1.8-.8 1.8-1.8v-10c0-1-.8-1.8-1.8-1.8h-7.4c-1.6-3.2-4-5.2-6.7-5.2s-5.1 2-6.7 5.2h-5.9l-7.2-45.3 6.4 17.8c.3.9 1.3 1.4 2.2 1.1s1.4-1.3 1.1-2.2l-9-24.9c1.9 1.1 4.1 1.7 6.3 1.7 4.4-.1 8.5-2.2 11-5.8v25.4c0 1 .8 1.8 1.8 1.8s1.8-.8 1.8-1.8v-25.5c2.5 3.6 6.6 5.7 11 5.8 2.2 0 4.4-.6 6.3-1.7l-9 24.9c-.3.9.1 1.9 1.1 2.2.9.3 1.9-.1 2.2-1.1l6.4-17.8-6.4 40.3c-.2 1 .5 1.9 1.4 2 1 .2 1.9-.5 2-1.4l9.2-57.5c.1-.8-.4-1.7-1.3-1.9zm-12.4 67.4v6.5h-3.5c0-.1 0-.1 0-.2 0-2.1-.3-4.3-.8-6.3zm-12.4-5.2c1.4 0 2.9 1.5 4 4 0 .1.1.2.1.2.9 2.3 1.3 4.8 1.3 7.3 0 6.8-2.8 11.5-5.4 11.5s-5.4-4.7-5.4-11.5c0-2.5.4-5 1.3-7.3 0-.1.1-.2.1-.2 1.1-2.5 2.6-4 4-4zm-8.8 11.7h-3.5v-6.5h4.3c-.5 2.1-.8 4.2-.8 6.3z"/><path d="m37.2 51.1c-1 0-1.8.8-1.8 1.8v2.2c0 1 .8 1.8 1.8 1.8s1.8-.9 1.8-1.8v-2.2c0-1-.8-1.8-1.8-1.8z"/><path d="m115.6 31.4c-.9-.2-1.8.2-2.1 1-1.8 4.6-5.7 7.5-9.9 7.5-6.1 0-11-5.9-11-13.1 0-1-.8-1.8-1.8-1.8s-1.8.9-1.8 1.8c0 7.3-4.9 13.2-11 13.2-4.2 0-8.1-2.9-9.9-7.5-.4-.9-1.4-1.3-2.3-1-.8.3-1.2 1.1-1.1 1.9l9.1 56.7c.1 1 1 1.6 2 1.5s1.6-1 1.5-2l-6.4-39.6 6.4 17.8c.3.9 1.3 1.4 2.2 1 .9-.3 1.4-1.3 1.1-2.2l-9-24.9c1.9 1.1 4.1 1.7 6.3 1.7 4.4-.1 8.5-2.2 11-5.8v34.7c0 1 .8 1.8 1.8 1.8s1.8-.8 1.8-1.8v-34.6c2.5 3.6 6.6 5.7 11 5.8 2.2 0 4.4-.6 6.3-1.7l-6.3 17.5c-.3.9.1 1.9 1.1 2.2.9.3 1.9-.1 2.2-1.1l3.7-10.4-7.2 45.3h-5.9c-1.6-3.2-4-5.2-6.7-5.2s-5.1 2-6.7 5.2h-7.4c-1 0-1.8.8-1.8 1.8v10c0 1 .8 1.8 1.8 1.8h5.5c1 6.6 4.4 11.3 8.6 11.3s7.6-4.7 8.6-11.3h5.5c1 0 1.8-.8 1.8-1.8v-9.9l10.2-63.8c.2-.9-.4-1.7-1.2-2zm-37.2 74v-6.5h4.3c-.5 2.1-.8 4.2-.8 6.3v.2zm12.4 11.3c-2.5 0-5.4-4.7-5.4-11.5 0-2.5.4-5 1.3-7.3 0-.1.1-.2.1-.3 1.1-2.5 2.6-4 4-4s2.9 1.5 4 4c0 .1.1.2.1.2.9 2.3 1.3 4.8 1.3 7.3-.1 6.9-2.9 11.6-5.4 11.6zm8.8-11.3c0-.1 0-.1 0-.2 0-2.1-.3-4.3-.8-6.3h4.3v6.5z"/><path d="m102.6 69c.7 0 1.4-.5 1.6-1.2l.5-1.4c.3-.9-.1-1.9-1.1-2.2-.9-.3-1.9.1-2.2 1.1l-.5 1.4c-.3.9.1 1.9 1.1 2.2.2.1.4.1.6.1z"/></g></svg>
