<svg id="icon" enable-background="new 0 0 128 128" height="512" viewBox="0 0 128 128" width="512" xmlns="http://www.w3.org/2000/svg"><path d="m109.3 59.5c0 23.1-17.4 42.5-40.3 45.1-1.7.2-3.4.3-5.1.3-25 0-45.4-20.3-45.4-45.3s20.3-45.4 45.3-45.4c25.2-.1 45.5 20.2 45.5 45.3z" fill="#e4474f"/><path d="m82.9 59.5c0 20.5-5.7 37.8-13.4 43.4-1.6 1.2-3.5 1.9-5.5 1.9-10.5 0-19-20.3-19-45.3s8.5-45.4 19-45.4c2 0 3.9.7 5.5 1.9 7.8 5.7 13.4 23 13.4 43.5z" fill="#ffc900"/><path d="m80 17.5c0 5.7-7.2 10.3-16.1 10.3s-16.1-4.6-16.1-10.3c0-.1 0-.2 0-.4 10.4-4 21.8-4 32.2-.1z" fill="#ebecee"/><path d="m99.4 59.5c0 1 .8 1.8 1.8 1.8s1.8-.8 1.8-1.8c0-8-2.5-15.9-7.1-22.4-.6-.8-1.7-1-2.4-.4-.8.6-1 1.7-.4 2.4 4.1 6 6.3 13.1 6.3 20.4z" fill="#fff"/><path d="m88.6 34c.7.7 1.8.7 2.5 0s.7-1.8 0-2.5c-.4-.4-.9-.8-1.3-1.2-.7-.6-1.8-.5-2.5.2-.6.7-.5 1.8.1 2.4.4.4.8.8 1.2 1.1z" fill="#fff"/><g fill="#612c00"><path d="m118.5 103.1h-36.7c24.1-9.8 35.7-37.3 25.8-61.4-7.2-17.7-24.4-29.3-43.6-29.3-.7 0-1.5 0-2.2 0-5 .2-9.9 1.2-14.6 3h-.1c-24.3 9.4-36.4 36.7-27.1 61 4.7 12.2 14.1 21.8 26.2 26.7h-28.2c-1 0-1.8.8-1.8 1.8s.8 1.8 1.8 1.8h100.5c1 0 1.8-.8 1.8-1.8s-.8-1.8-1.8-1.8zm-10.9-43.6c0 20.6-14.5 38.4-34.7 42.7 7-7.4 11.8-23.6 11.8-42.7 0-13.3-2.4-25.8-6.6-34.7 1.6-1.4 2.8-3.2 3.3-5.2 15.9 6.9 26.1 22.6 26.2 39.9zm-29.4-41.2c-.5 3-4.3 7.7-14.3 7.7-10.6 0-13.4-4.7-14.3-7.7.1 0 5.4-2.4 14.4-2.4 10.8 0 14.1 2.3 14.2 2.4zm-57.8 41.2c.1-17.2 10.2-32.8 25.9-39.8 1.5 5.7 8.7 9.8 17.6 9.8 3.9.1 7.8-.9 11.4-2.7 3.8 8.4 6 20.1 6 32.7 0 23.6-7.8 43.5-17.1 43.6h-.2-.1c-9.3-.1-17.1-20-17.1-43.6-.1-9.3 1.2-18.5 3.9-27.3.3-.9-.2-1.9-1.1-2.2s-1.9.2-2.2 1.1c-2.8 9.2-4.2 18.8-4.1 28.4 0 19.1 4.8 35.2 11.8 42.7-20.2-4.3-34.7-22.1-34.7-42.7z"/><path d="m11.3 103.1h-1.8c-1 0-1.8.8-1.8 1.8s.8 1.8 1.8 1.8h1.8c1 0 1.8-.8 1.8-1.8s-.8-1.8-1.8-1.8z"/><path d="m108.7 112.1h-25.7c-1 0-1.8.8-1.8 1.8s.8 1.8 1.8 1.8h25.7c1 0 1.8-.8 1.8-1.8s-.9-1.8-1.8-1.8z"/><path d="m74.8 112.1h-55.5c-1 0-1.8.8-1.8 1.8s.8 1.8 1.8 1.8h55.5c1 0 1.8-.8 1.8-1.8s-.8-1.8-1.8-1.8z"/></g></svg>
