<svg id="icon" enable-background="new 0 0 128 128" height="512" viewBox="0 0 128 128" width="512" xmlns="http://www.w3.org/2000/svg"><path d="m24 19.7h80v9.3h-80z" fill="#ff8f2b"/><path d="m118.5 108.3h-44.5l-3.3-10.5-6.7-20.8-6.3 19.9-.4.9-3.3 10.5h-44.5l1.9-10.5 12.6-68.8h80l12.6 68.8z" fill="#5dbd52"/><path d="m57.3 97.8-3.3 10.5h-44.5l1.9-10.5z" fill="#ffa500"/><path d="m118.5 108.3h-44.5l-3.3-10.5h45.9z" fill="#ffa500"/><circle cx="73" cy="60.8" fill="#ffda2d" r="3.6"/><circle cx="30.9" cy="72.3" fill="#ffda2d" r="3.6"/><circle cx="47.1" cy="84.3" fill="#ffda2d" r="3.6"/><circle cx="96.6" cy="79.3" fill="#ffda2d" r="3.6"/><circle cx="38.2" cy="40.5" fill="#ffda2d" r="3.6"/><circle cx="93.8" cy="46.3" fill="#ffda2d" r="3.6"/><g fill="#612c00"><path d="m120.2 108-13.1-71.5c-.2-1-1.1-1.6-2-1.4s-1.6 1.1-1.4 2l10.8 58.9h-42.6l-6.3-19.6c-.3-.9-1.3-1.4-2.2-1.1-.5.2-1 .6-1.1 1.1l-6.3 19.6h-25.1c-1 0-1.8.8-1.8 1.8s.8 1.8 1.8 1.8h24l-2.2 7h-41.1l13.9-75.8h23.2c1 0 1.8-.8 1.8-1.8s-.8-1.8-1.8-1.8h-22.9v-5.8h76.5v5.8h-36.5c-.1-.9-.1-1.9-.1-2.8.1-1-.7-1.8-1.6-1.9-.4 0-.9.1-1.2.4-.4.4-10.5 8.9-6.2 22.2 1 3.1.6 5.9-1.3 7.7-1.7 1.7-4.1 2.3-6.4 1.6-1.6-.5-2.7-2-2.9-3.7-.1-1-1-1.6-2-1.5s-1.6 1-1.5 2c.3 3 2.3 5.6 5.2 6.6.9.3 1.9.5 2.9.5 2.7 0 5.2-1.1 7.1-2.9 2.8-2.8 3.6-6.9 2.2-11.3-1.5-4.4-1.1-9.3 1.2-13.4h1.6c.8 4.2 2.9 9.5 8.1 12.3 5.6 3.1 9.7 1 11.6-1.8 1.9-2.9 1.5-6.6-.8-8.4-.8-.6-1.9-.5-2.5.3s-.5 1.9.3 2.5c.9.7.9 2.4 0 3.8-1.4 2.1-3.9 2.3-6.9.7-3.7-2-5.4-5.9-6.2-9.2h37.6c1 0 1.8-.8 1.8-1.8v-9.3c0-1-.8-1.8-1.8-1.8h-80c-1 0-1.8.8-1.8 1.8v9.2l-14.4 79c-.2 1 .5 1.9 1.4 2h.3 44.5c.8 0 1.4-.5 1.7-1.2l8.3-26 8.3 26.1c.2.7.9 1.2 1.7 1.2h44.5c1 0 1.8-.8 1.8-1.8 0-.1-.1-.2-.1-.3zm-44.9-1.4-2.2-7h42.1l1.3 7z"/><path d="m20 96.1c-1 0-1.8.8-1.8 1.8s.8 1.8 1.8 1.8h1.8c1 0 1.8-.8 1.8-1.8s-.8-1.8-1.8-1.8z"/><path d="m73 59c1 0 1.8-.8 1.8-1.8s-.8-1.8-1.8-1.8c-3 0-5.4 2.4-5.4 5.4s2.4 5.4 5.4 5.4 5.4-2.4 5.4-5.4c0-1-.8-1.8-1.8-1.8s-1.8.8-1.8 1.8-.8 1.9-1.9 1.9-1.9-.8-1.9-1.9.9-1.8 2-1.8z"/><path d="m25.5 72.3c0 3 2.4 5.4 5.4 5.4s5.4-2.4 5.4-5.4-2.4-5.4-5.4-5.4-5.4 2.4-5.4 5.4zm7.3 0c0 1-.8 1.9-1.9 1.9s-1.9-.9-1.9-1.9.8-1.9 1.9-1.9c1 0 1.9.9 1.9 1.9z"/><path d="m47.1 89.7c3 0 5.4-2.4 5.4-5.4s-2.4-5.3-5.4-5.3-5.4 2.4-5.4 5.4c0 2.9 2.4 5.3 5.4 5.3zm0-7.2c1 0 1.9.8 1.9 1.9s-.8 1.9-1.9 1.9-1.9-.8-1.9-1.9.9-1.9 1.9-1.9z"/><path d="m96.6 84.7c3 0 5.4-2.4 5.4-5.4s-2.4-5.3-5.4-5.3-5.4 2.4-5.4 5.4c.1 2.9 2.5 5.3 5.4 5.3zm0-7.2c1 0 1.9.8 1.9 1.9s-.8 1.9-1.9 1.9-1.9-.8-1.9-1.9c.1-1.1.9-1.9 1.9-1.9z"/><path d="m43.5 40.5c0-3-2.4-5.4-5.4-5.4s-5.4 2.4-5.4 5.4 2.4 5.4 5.4 5.4c3-.1 5.4-2.5 5.4-5.4zm-7.2 0c0-1 .8-1.9 1.9-1.9s1.9.8 1.9 1.9-.8 1.9-1.9 1.9c-1.1-.1-1.9-.9-1.9-1.9z"/><path d="m99.2 46.3c0-3-2.4-5.4-5.4-5.4s-5.4 2.4-5.4 5.4 2.4 5.4 5.4 5.4c3-.1 5.4-2.5 5.4-5.4zm-7.3 0c0-1 .8-1.9 1.9-1.9s1.9.8 1.9 1.9-.8 1.9-1.9 1.9c-1-.1-1.9-.9-1.9-1.9z"/></g></svg>
