<svg id="icon" enable-background="new 0 0 128 128" height="512" viewBox="0 0 128 128" width="512" xmlns="http://www.w3.org/2000/svg"><path d="m118.5 64.8v17.6l-4.8-3.7s-14.6 25.9-43.2 29.5v3.8c0 3.6-2.9 6.5-6.5 6.5h-.2c-3.6-.2-6.4-3.2-6.3-6.8v-3.6c-28.5-3.5-43.2-29.4-43.2-29.4l-4.8 3.7v-17.6l17 4.1-4.3 3.9c13.5 18 27.4 22.9 35.3 24.2v-47.6h-3c-7.7 0-13.9-6.2-13.9-13.9h46.8c0 7.7-6.2 13.9-13.9 13.9h-3v47.6c7.9-1.3 21.8-6.2 35.3-24.2l-4.3-3.9z" fill="#b5e3e9"/><path d="m64 9.5c-7.2 0-13 5.8-13 13s5.8 13 13 13 13-5.8 13-13-5.8-13-13-13zm0 18.1c-2.8 0-5.1-2.3-5.1-5.1s2.3-5.1 5.1-5.1 5.1 2.3 5.1 5.1-2.3 5.1-5.1 5.1z" fill="#b5e3e9"/><g fill="#612c00"><path d="m119.6 63.4c-.4-.3-1-.5-1.5-.3l-17 4.1c-.9.2-1.5 1.2-1.3 2.1.1.3.3.7.5.9l3.1 2.8c-11.8 15.2-23.9 20.2-31.1 21.8v-37.2c0-1-.8-1.8-1.8-1.8s-1.8.8-1.8 1.8v39.3c0 1 .8 1.8 1.8 1.7h.3c17.6-2.8 30.4-16.8 36.4-24.8.5-.7.4-1.7-.2-2.3l-1.8-1.7 11.6-2.8v11.8l-2-1.5c-.8-.6-1.9-.4-2.5.3 0 .1-.1.1-.1.2-.1.3-14.6 25.2-41.9 28.6-.9.1-1.5.9-1.5 1.7v3.8c0 2.6-2.1 4.8-4.7 4.8-.1 0-.1 0-.2 0-2.6-.2-4.7-2.4-4.6-5v-3.6c0-.9-.7-1.6-1.5-1.7-8.3-1.1-16.3-4.2-23.1-9-.8-.5-1.9-.3-2.4.5s-.3 1.9.5 2.4c6.9 4.8 14.8 8 23.1 9.3v2c0 4.5 3.5 8.3 8 8.5h.3c4.6 0 8.2-3.7 8.2-8.3v-2.3c24.2-3.7 38.1-22.6 41.9-28.5l3.3 2.5c.8.6 1.9.4 2.5-.3.2-.3.4-.7.4-1.1v-17.3c-.2-.6-.5-1.1-.9-1.4z"/><path d="m29 93.2c-.7-.6-1.8-.5-2.5.2-.6.7-.5 1.8.2 2.4.4.3.8.7 1.2 1 .7.6 1.9.5 2.5-.3.6-.7.5-1.8-.2-2.4-.4-.3-.8-.6-1.2-.9z"/><path d="m15.9 77.8c-.5-.8-1.5-1.1-2.4-.7-.1 0-.1.1-.2.1l-2 1.5v-11.7l11.6 2.8-1.9 1.7c-.7.6-.8 1.6-.2 2.3 6.1 8.1 18.8 22 36.4 24.8 1 .2 1.9-.5 2-1.5 0-.1 0-.2 0-.3v-47.4c0-1-.8-1.8-1.8-1.8h-3c-6 0-11.1-4.4-12-10.4h43c-.9 5.9-6 10.4-12 10.4h-3c-1 0-1.8.8-1.8 1.8s.8 1.8 1.8 1.8h3c8.6 0 15.6-7 15.6-15.6 0-1-.8-1.8-1.8-1.8h-13.7c6.2-5.3 7-14.6 1.7-20.8-4.5-5.4-12.1-6.8-18.2-3.5-.8.5-1.2 1.5-.7 2.4.5.8 1.5 1.2 2.4.7 5.5-3 12.3-.9 15.2 4.5 3 5.5.9 12.3-4.5 15.2s-12.3.9-15.2-4.5c-1.8-3.4-1.8-7.5.1-10.8.5-.9.1-1.9-.7-2.4-.8-.4-1.9-.2-2.3.7-3.4 6.2-2 13.9 3.4 18.4h-14.1c-1 0-1.8.8-1.8 1.8 0 8.6 7 15.6 15.6 15.6h1.3v43.7c-7.2-1.6-19.3-6.6-31.2-21.8l3.1-2.8c.7-.6.8-1.8.1-2.5-.2-.3-.5-.4-.9-.5l-16.9-4.2c-.9-.2-1.9.4-2.1 1.3v.4 17.6c0 1 .8 1.8 1.7 1.8.4 0 .8-.1 1.1-.4l3.3-2.5c2.5 3.8 5.3 7.3 8.5 10.5.7.7 1.8.6 2.5-.1.6-.7.7-1.7 0-2.4-3.5-3.4-6.5-7.2-9-11.4z"/><path d="m70.8 22.5c0-3.8-3.1-6.8-6.8-6.8-3.8 0-6.8 3.1-6.8 6.8s3.1 6.8 6.8 6.8c3.8 0 6.8-3 6.8-6.8zm-10.1 0c0-1.8 1.5-3.3 3.3-3.3s3.3 1.5 3.3 3.3-1.5 3.3-3.3 3.3-3.3-1.5-3.3-3.3z"/></g></svg>
