<svg id="icon" enable-background="new 0 0 128 128" height="512" viewBox="0 0 128 128" width="512" xmlns="http://www.w3.org/2000/svg"><path d="m99 64c0 19.3-15.7 35-35 35s-35-15.7-35-35 15.7-35 35-35c19.2-.1 34.9 15.4 35 34.6z" fill="#ffc900"/><path d="m88.8 64c0 1 .8 1.8 1.8 1.8s1.8-.8 1.8-1.8c0-12-7.6-22.7-18.9-26.7-.9-.3-1.9.2-2.2 1.2-.3.9.2 1.8 1 2.1 9.8 3.5 16.4 12.9 16.5 23.4z" fill="#fff"/><path d="m65.8 39.3h.1c1 0 1.8-.7 1.8-1.7s-.7-1.8-1.7-1.8c-.7 0-1.4-.1-2.1-.1-1 0-1.8.8-1.8 1.8s.8 1.8 1.8 1.8z" fill="#fff"/><g fill="#612c00"><path d="m64 27.3c-20.3 0-36.7 16.5-36.8 36.8 0 8.2 2.7 16.2 7.8 22.7.6.8 1.7.9 2.5.3s.9-1.7.3-2.5c-4.6-5.8-7.1-13.1-7.1-20.5 0-18.4 14.9-33.2 33.3-33.2s33.2 14.9 33.2 33.3-14.8 33.1-33.2 33.1c-7.7 0-15.1-2.6-21-7.5-.7-.6-1.9-.5-2.5.2s-.5 1.9.2 2.5c15.7 12.8 38.9 10.5 51.7-5.3s10.5-38.9-5.3-51.7c-6.4-5.3-14.6-8.2-23.1-8.2z"/><path d="m64 23.3c1 0 1.8-.8 1.8-1.8v-12c0-1-.8-1.8-1.8-1.8s-1.8.8-1.8 1.8v12c.1 1 .8 1.8 1.8 1.8z"/><path d="m94.1 35.7c.5 0 .9-.2 1.2-.5l24.4-24.4c.7-.7.7-1.8 0-2.5s-1.8-.7-2.5 0l-24.4 24.4c-.7.7-.7 1.8 0 2.5.3.3.8.5 1.3.5z"/><path d="m118.5 62.3h-12c-1 0-1.8.8-1.8 1.8s.8 1.8 1.8 1.8h12c1 0 1.8-.8 1.8-1.8s-.8-1.8-1.8-1.8z"/><path d="m95.3 92.8c-.7-.7-1.8-.7-2.5 0s-.7 1.8 0 2.5l24.4 24.4c.7.7 1.8.7 2.5 0s.7-1.8 0-2.5z"/><path d="m64 104.8c-1 0-1.8.8-1.8 1.8v12c0 1 .8 1.8 1.8 1.8s1.8-.8 1.8-1.8v-12c0-1.1-.8-1.8-1.8-1.8z"/><path d="m32.7 92.8-24.4 24.5c-.7.7-.7 1.8 0 2.5s1.8.7 2.5 0l24.4-24.4c.7-.7.7-1.8 0-2.5s-1.8-.8-2.5-.1z"/><path d="m9.5 65.8h12c1 0 1.8-.8 1.8-1.8s-.8-1.8-1.8-1.8h-12c-1 0-1.8.8-1.8 1.8s.8 1.8 1.8 1.8z"/><path d="m32.7 35.2c.7.7 1.8.7 2.5 0s.7-1.8 0-2.5l-24.5-24.4c-.7-.7-1.8-.7-2.5 0s-.7 1.8 0 2.5z"/></g></svg>
