<svg id="icon" enable-background="new 0 0 24 24" height="512" viewBox="0 0 24 24" width="512" xmlns="http://www.w3.org/2000/svg"><path d="m5 0 5 2.231-5 2.231-5-2.231z"/><path d="m17.75 7h-.75v-1.25c0-.965-.785-1.75-1.75-1.75h-2.5c-.414 0-.75.336-.75.75s.336.75.75.75h2.5c.138 0 .25.112.25.25v1.25h-.75c-.664 0-1.002.802-.534 1.277l1.48 1.5c.289.293.765.3 1.062.007l1.52-1.5c.475-.471.139-1.284-.528-1.284z"/><path d="m6 5.658v3.857l4-1.784v-3.858z"/><path d="m4 5.658-4-1.785v3.858l4 1.784z"/><path d="m21 18h3v-1.25c0-.965-.785-1.75-1.75-1.75h-.25v-1c0-1.103-.897-2-2-2h-8c-1.103 0-2 .897-2 2v1h-.25c-.965 0-1.75.785-1.75 1.75v1.25h3c.553 0 1 .448 1 1s-.447 1-1 1h-3v2.25c0 .965.785 1.75 1.75 1.75h3.281c.521 0 1.011-.229 1.345-.63l1.432-1.718c.131-.157.254-.157.385 0l1.433 1.719c.332.4.822.629 1.343.629h3.281c.965 0 1.75-.785 1.75-1.75v-2.25h-3c-.553 0-1-.448-1-1s.447-1 1-1zm-9.5-3v-1c0-.276.224-.5.5-.5h8c.276 0 .5.224.5.5v1z"/></svg>
