<svg id="icon" enable-background="new 0 0 24 24" height="512" viewBox="0 0 24 24" width="512" xmlns="http://www.w3.org/2000/svg"><path d="m23.25 7h-1.325c-.094-.672-.277-1.308-.541-1.884l1.241-.716c.358-.207.481-.666.274-1.024-.206-.359-.665-.482-1.024-.274l-1.278.738c-.239-.298-.502-.568-.788-.802.119-.249.191-.512.191-.788 0-1.262-1.317-2.25-3-2.25s-3 .988-3 2.25c0 .276.072.539.191.786-.286.234-.549.504-.788.802l-1.278-.738c-.36-.208-.818-.084-1.024.274-.207.359-.084.817.274 1.024l1.241.716c-.264.578-.447 1.214-.541 1.886h-1.325c-.414 0-.75.336-.75.75s.336.75.75.75h1.271c.059.858.266 1.666.595 2.384l-1.241.716c-.358.207-.481.666-.274 1.024s.664.482 1.024.274l1.278-.738c.909 1.133 2.183 1.84 3.597 1.84s2.688-.707 3.597-1.839l1.278.738c.359.208.818.084 1.024-.274.207-.359.084-.817-.274-1.024l-1.241-.716c.329-.718.535-1.526.595-2.384h1.271c.414-.001.75-.337.75-.751s-.336-.75-.75-.75z"/><path d="m14.75 17h3.25v-1.086c-.33.055-.663.086-1 .086-1.397 0-2.756-.481-3.899-1.355-.633.356-1.364.45-2.064.261-.557-.15-1.038-.469-1.399-.906h-7.563l2.1-3.5h1.495c.748.748 1.761 1.171 2.83 1.171.198 0 .391-.029.584-.058.114-.478.348-.927.701-1.288-.205-.077-.393-.183-.571-.304-.929.256-2 .014-2.638-.751-.142-.171-.353-.27-.576-.27h-2.25c-.264 0-.508.139-.644.364l-3 5c-.029.049-.106.313-.106.386v2.25h3.25c.414 0 .75.336.75.75v1.5c0 .414-.336.75-.75.75h-3.25v1.25c0 1.517 1.233 2.75 2.75 2.75h2.813c.818 0 1.589-.36 2.112-.989l.364-.438c.477-.57 1.443-.571 1.92.001l.364.437c.525.629 1.295.989 2.114.989h2.813c1.517 0 2.75-1.233 2.75-2.75v-1.25h-3.25c-.414 0-.75-.336-.75-.75v-1.5c0-.414.336-.75.75-.75zm-3.5 2h-4.5c-.414 0-.75-.336-.75-.75s.336-.75.75-.75h4.5c.414 0 .75.336.75.75s-.336.75-.75.75z"/></svg>
