<svg id="icon" enable-background="new 0 0 24 24" height="512" viewBox="0 0 24 24" width="512" xmlns="http://www.w3.org/2000/svg"><path d="m23.491 1.826-5.25-1.786c-.156-.054-.326-.054-.482 0l-5.25 1.786c-.305.103-.509.389-.509.71v4.018c0 4.904 5.474 7.288 5.707 7.387.188.079.398.079.586 0 .233-.099 5.707-2.483 5.707-7.387v-4.018c0-.321-.204-.607-.509-.71zm-2.205 3.792-2.75 3.5c-.35.447-1.006.512-1.436.142l-1.75-1.5c-.42-.359-.469-.991-.108-1.41.359-.419.991-.467 1.409-.108l.958.821 2.105-2.679c.341-.434.969-.511 1.404-.168.434.339.51.968.168 1.402z"/><path d="m13.98 14h-11.905l2.1-3.5h1.495c.748.748 1.761 1.171 2.83 1.171.966 0 1.876-.36 2.596-.979-.253-.454-.469-.937-.643-1.445-.008.009-.021.013-.029.022-.955 1.146-2.893 1.146-3.848 0-.142-.17-.353-.269-.576-.269h-2.25c-.264 0-.508.139-.644.364l-3 5c-.029.049-.106.313-.106.386v2.25h3.25c.414 0 .75.336.75.75v1.5c0 .414-.336.75-.75.75h-3.25v1.25c0 1.517 1.233 2.75 2.75 2.75h2.813c.818 0 1.589-.36 2.112-.989l.364-.438c.477-.57 1.443-.571 1.92.001l.364.437c.525.629 1.295.989 2.114.989h2.813c1.517 0 2.75-1.233 2.75-2.75v-1.25h-3.25c-.414 0-.75-.336-.75-.75v-1.5c0-.414.336-.75.75-.75h3.25v-1c-.373 0-.736-.074-1.078-.221-.858-.362-1.914-.962-2.942-1.779zm-2.73 5h-4.5c-.414 0-.75-.336-.75-.75s.336-.75.75-.75h4.5c.414 0 .75.336.75.75s-.336.75-.75.75z"/></svg>
