<svg id="icon" enable-background="new 0 0 24 24" height="512" viewBox="0 0 24 24" width="512" xmlns="http://www.w3.org/2000/svg"><path d="m17.754 2.695-2.75-2.5c-.286-.26-.723-.26-1.009 0l-2.75 2.5c-.229.208-.307.537-.195.826s.39.479.7.479h1.75v6c0 .552.448 1 1 1s1-.448 1-1v-6h1.75c.31 0 .588-.19.7-.479.111-.29.034-.618-.196-.826z"/><path d="m23.95 7.479c-.112-.289-.39-.479-.7-.479h-1.75v-6c0-.552-.448-1-1-1s-1 .448-1 1v6h-1.75c-.31 0-.588.19-.7.479-.111.289-.034.617.195.826l2.75 2.5c.144.13.324.195.505.195s.361-.065.504-.195l2.75-2.5c.23-.208.307-.536.196-.826z"/><path d="m16.311 12.375c-.414.316-.909.522-1.451.588l.829 1.037h-13.614l2.1-3.5h1.495c.748.748 1.761 1.171 2.83 1.171s2.082-.423 2.83-1.171h.22c-.027-.163-.05-1.5-.05-1.5h-.5c-.223 0-.434.099-.576.27-.955 1.146-2.893 1.146-3.848 0-.142-.171-.353-.27-.576-.27h-2.25c-.264 0-.508.139-.644.364l-3 5c-.029.049-.106.313-.106.386v2.25h3.25c.414 0 .75.336.75.75v1.5c0 .414-.336.75-.75.75h-3.25v1.25c0 1.517 1.233 2.75 2.75 2.75h2.813c.818 0 1.589-.36 2.112-.989l.364-.438c.477-.57 1.443-.571 1.92.001l.364.437c.525.629 1.295.989 2.114.989h2.813c1.517 0 2.75-1.233 2.75-2.75v-1.25h-3.25c-.414 0-.75-.336-.75-.75v-1.5c0-.414.336-.75.75-.75h3.25v-2.25c0-.099-.068-.348-.164-.469zm-5.061 6.625h-4.5c-.414 0-.75-.336-.75-.75s.336-.75.75-.75h4.5c.414 0 .75.336.75.75s-.336.75-.75.75z"/></svg>
