<svg id="icon" enable-background="new 0 0 24 24" height="512" viewBox="0 0 24 24" width="512" xmlns="http://www.w3.org/2000/svg"><path d="m22.25 4h-.25v-1.5c0-1.378-1.121-2.5-2.5-2.5s-2.5 1.122-2.5 2.5v1.5h-.25c-.965 0-1.75.785-1.75 1.75v3.5c0 .965.785 1.75 1.75 1.75h5.5c.965 0 1.75-.785 1.75-1.75v-3.5c0-.965-.785-1.75-1.75-1.75zm-3.75-1.5c0-.551.448-1 1-1s1 .449 1 1v1.5h-2z"/><path d="m14.75 17h3.25v-2.25c0-.1-.07-.35-.16-.47l-.23-.28h-15.54l2.1-3.5h1.5c.75.75 1.76 1.17 2.83 1.17s2.08-.42 2.83-1.17h1.42v-1.5h-1.75c-.22 0-.43.1-.58.27-.95 1.15-2.89 1.15-3.84 0-.15-.17-.36-.27-.58-.27h-2.25c-.26 0-.51.14-.64.36l-3 5c-.03.05-.11.32-.11.39v2.25h3.25c.41 0 .75.34.75.75v1.5c0 .41-.34.75-.75.75h-3.25v1.25c0 1.52 1.23 2.75 2.75 2.75h2.81c.82 0 1.59-.36 2.12-.99l.36-.44c.48-.57 1.44-.57 1.92 0l.36.44c.53.63 1.3.99 2.12.99h2.81c1.52 0 2.75-1.23 2.75-2.75v-1.25h-3.25c-.41 0-.75-.34-.75-.75v-1.5c0-.41.34-.75.75-.75zm-3.5 2h-4.5c-.41 0-.75-.34-.75-.75s.34-.75.75-.75h4.5c.41 0 .75.34.75.75s-.34.75-.75.75z"/></svg>
