<svg id="icon" enable-background="new 0 0 24 24" height="512" viewBox="0 0 24 24" width="512" xmlns="http://www.w3.org/2000/svg"><path d="m10.95 19.65c-.496-.37-1.2-.016-1.2.6v.686c-.614-.034-1.214-.079-1.783-.142-4.875-.502-6.467-1.69-6.467-2.044 0-.414-.336-.75-.75-.75s-.75.336-.75.75c0 2.466 5.464 3.294 7.808 3.536.62.068 1.271.118 1.942.154v.81c0 .618.707.968 1.2.6l2-1.5c.188-.142.3-.364.3-.6s-.111-.458-.3-.6z"/><path d="m23.25 18c-.414 0-.75.336-.75.75 0 .443-2.057 1.678-7.148 2.103-.413.035-.72.397-.685.81.032.392.36.688.746.688.021 0 .042-.001.063-.002 2.563-.216 8.524-.995 8.524-3.599 0-.414-.336-.75-.75-.75z"/><path d="m21.25 4h-18.5c-1.517 0-2.75 1.233-2.75 2.75v7.5c0 1.517 1.233 2.75 2.75 2.75h5.514c1.048 0 1.99-.583 2.459-1.521l.158-.316c.216-.433.634-.691 1.118-.691s.902.258 1.118.69l.158.317c.469.938 1.412 1.52 2.459 1.52h5.514c1.517 0 2.75-1.233 2.75-2.75v-7.5c.002-1.516-1.231-2.749-2.748-2.749zm-11.25 7.25c0 .965-.785 1.75-1.75 1.75h-3.5c-.965 0-1.75-.785-1.75-1.75v-2.5c0-.965.785-1.75 1.75-1.75h3.5c.965 0 1.75.785 1.75 1.75zm11 0c0 .965-.785 1.75-1.75 1.75h-3.5c-.965 0-1.75-.785-1.75-1.75v-2.5c0-.965.785-1.75 1.75-1.75h3.5c.965 0 1.75.785 1.75 1.75z"/><path d="m20 5.75c-.552 0-1-.448-1-1v-1.75c0-.551-.449-1-1-1h-12c-.551 0-1 .449-1 1v1.75c0 .552-.448 1-1 1s-1-.448-1-1v-1.75c0-1.654 1.346-3 3-3h12c1.654 0 3 1.346 3 3v1.75c0 .552-.448 1-1 1z"/><path d="m7 11h-1c-.552 0-1-.448-1-1 0-.552.448-1 1-1h1c.552 0 1 .448 1 1 0 .552-.448 1-1 1z"/><path d="m18 11h-1c-.552 0-1-.448-1-1 0-.552.448-1 1-1h1c.552 0 1 .448 1 1 0 .552-.448 1-1 1z"/></svg>
