<svg id="icon" enable-background="new 0 0 24 24" height="512" viewBox="0 0 24 24" width="512" xmlns="http://www.w3.org/2000/svg"><path d="m17.5 0c-3.584 0-6.5 2.916-6.5 6.5s2.916 6.5 6.5 6.5 6.5-2.916 6.5-6.5-2.916-6.5-6.5-6.5zm4.304 4h-1.804v-1.804c.749.436 1.368 1.055 1.804 1.804zm.696 2.5c0 .342-.035.677-.101 1h-2.399v-2h2.399c.066.323.101.658.101 1zm-10 0c0-.342.035-.677.101-1h2.399v2h-2.399c-.066-.323-.101-.658-.101-1zm4-1h2v2h-2zm2-3.899v2.399h-2v-2.399c.323-.066.658-.101 1-.101s.677.035 1 .101zm-3.5.595v1.804h-1.804c.436-.749 1.055-1.368 1.804-1.804zm-1.804 6.804h1.804v1.804c-.749-.436-1.368-1.055-1.804-1.804zm3.304 2.399v-2.399h2v2.399c-.323.066-.658.101-1 .101s-.677-.035-1-.101zm3.5-.595v-1.804h1.804c-.436.749-1.055 1.368-1.804 1.804z"/><path d="m14.75 17h3.25v-2.025c-.166.009-.331.025-.5.025-1.442 0-2.8-.364-3.991-1h-11.434l2.1-3.5h1.495c.748.748 1.761 1.171 2.83 1.171.678 0 1.325-.187 1.905-.502-.277-.419-.519-.863-.719-1.329-1.01.513-2.359.33-3.109-.57-.143-.171-.354-.27-.577-.27h-2.25c-.264 0-.508.139-.644.364l-3 5c-.029.049-.106.313-.106.386v2.25h3.25c.414 0 .75.336.75.75v1.5c0 .414-.336.75-.75.75h-3.25v1.25c0 1.517 1.233 2.75 2.75 2.75h2.813c.818 0 1.589-.36 2.112-.989l.364-.438c.477-.57 1.443-.571 1.92.001l.364.437c.525.629 1.295.989 2.114.989h2.813c1.517 0 2.75-1.233 2.75-2.75v-1.25h-3.25c-.414 0-.75-.336-.75-.75v-1.5c0-.414.336-.75.75-.75zm-3.5 2h-4.5c-.414 0-.75-.336-.75-.75s.336-.75.75-.75h4.5c.414 0 .75.336.75.75s-.336.75-.75.75z"/></svg>
