<svg id="icon" enable-background="new 0 0 24 24" height="512" viewBox="0 0 24 24" width="512" xmlns="http://www.w3.org/2000/svg"><path d="m14.75 17h3.25v-2.25c0-.099-.068-.348-.164-.469l-4-5c-.143-.177-.358-.281-.586-.281h-2.25c-.223 0-.434.099-.576.27-.955 1.146-2.893 1.146-3.848 0-.142-.171-.353-.27-.576-.27h-2.25c-.264 0-.508.139-.644.364l-3 5c-.029.049-.106.313-.106.386v2.25h3.25c.414 0 .75.336.75.75v1.5c0 .414-.336.75-.75.75h-3.25v1.25c0 1.517 1.233 2.75 2.75 2.75h2.813c.818 0 1.589-.36 2.112-.989l.364-.438c.477-.57 1.443-.571 1.92.001l.364.437c.525.629 1.295.989 2.114.989h2.813c1.517 0 2.75-1.233 2.75-2.75v-1.25h-3.25c-.414 0-.75-.336-.75-.75v-1.5c0-.414.336-.75.75-.75zm-3.5 2h-4.5c-.414 0-.75-.336-.75-.75s.336-.75.75-.75h4.5c.414 0 .75.336.75.75s-.336.75-.75.75zm-9.175-5 2.1-3.5h1.495c.748.748 1.761 1.171 2.83 1.171s2.082-.423 2.83-1.171h1.56l2.8 3.5z"/><circle cx="19.5" cy="7" r="1"/><path d="m21.004 5.15c-.809-.838-2.199-.838-3.008 0-.287.298-.762.309-1.061.02-.298-.287-.307-.763-.02-1.061 1.379-1.432 3.789-1.432 5.168 0 .287.298.278.773-.02 1.061-.296.288-.771.278-1.059-.02z"/><path d="m22.71 2.881c-.858-.891-1.998-1.381-3.21-1.381s-2.352.49-3.21 1.381c-.288.298-.762.308-1.061.02-.298-.287-.307-.762-.02-1.061 1.145-1.187 2.668-1.84 4.291-1.84s3.146.653 4.29 1.84c.287.299.278.773-.02 1.061-.297.287-.772.277-1.06-.02z"/></svg>
