<svg id="icon" enable-background="new 0 0 24 24" height="512" viewBox="0 0 24 24" width="512" xmlns="http://www.w3.org/2000/svg"><path d="m23.719 12.035-.75-2.5c-.096-.318-.388-.535-.719-.535h-10.25v-1.25c0-.965-.785-1.75-1.75-1.75h-5.25v10h5.25c.965 0 1.75-.785 1.75-1.75v-1.25h11c.499 0 .862-.483.719-.965z"/><path d="m0 8.75v4.5c0 1.517 1.233 2.75 2.75 2.75h.25v-10h-.25c-1.517 0-2.75 1.233-2.75 2.75z"/><path d="m18 5.25v-4.5c0-.554.583-.92 1.085-.671l4.5 2.25c.254.127.415.387.415.671s-.161.544-.415.671l-4.5 2.25c-.497.248-1.085-.113-1.085-.671z"/><path d="m7.85 12.13c0-3.931 3.173-7.13 7.075-7.13.366 0 .723.037 1.075.091v-2.021c-.353-.042-.711-.07-1.075-.07-5.004 0-9.075 4.096-9.075 9.135.001.494-.139.978-.402 1.4l-2.22 3.547c-.149.239-.228.511-.228.788 0 .815.661 1.478 1.475 1.478h1.375v2.098c0 1.342 1.088 2.435 2.426 2.435.269 0 .522-.042.711-.111l1.648-.504c.116.422.504.734.965.734.553 0 1-.448 1-1v-1.076c0-.317-.15-.615-.405-.804-.254-.188-.581-.245-.888-.152l-2.907.889c-.015.004-.11.018-.125.023-.234 0-.426-.195-.426-.435v-3.098c0-.552-.447-1-1-1h-1.428l1.722-2.752c.463-.741.708-1.593.707-2.465z"/><path d="m20.327 7.536c1.042 1.242 1.673 2.845 1.673 4.594 0 1.473-.445 2.89-1.288 4.098-1.021 1.464-1.562 3.181-1.562 4.965v1.807c0 .552.447 1 1 1s1-.448 1-1v-1.807c0-1.373.416-2.693 1.202-3.82 1.079-1.545 1.648-3.358 1.648-5.243 0-2.068-.695-3.972-1.852-5.505z"/></svg>
