<svg id="icon" enable-background="new 0 0 24 24" height="512" viewBox="0 0 24 24" width="512" xmlns="http://www.w3.org/2000/svg"><path d="m14.925 0c-2.657 0-5.044 1.162-6.705 3h-3.22v8.249l-1.772 2.833c-.149.239-.228.511-.228.788 0 .815.661 1.478 1.475 1.478h1.375v2.348c0 1.342 1.088 2.435 2.426 2.435.269 0 .522-.042.711-.111l1.613-.494v2.474c0 .552.447 1 1 1h8.551c.553 0 1-.448 1-1v-4.807c0-1.373.416-2.693 1.202-3.82 1.078-1.545 1.647-3.358 1.647-5.243 0-5.034-4.071-9.13-9.075-9.13zm6.347 6h-9.272v-1.25c0-.686-.401-1.275-.977-1.562 1.119-.749 2.46-1.188 3.902-1.188 2.786 0 5.194 1.635 6.347 4zm-.56 7.228c-1.021 1.464-1.562 3.181-1.562 4.965v3.807h-6.55v-2.826c0-.317-.15-.615-.405-.804-.254-.188-.58-.245-.888-.152l-2.907.889c-.015.004-.11.018-.125.023-.234 0-.426-.195-.426-.435v-3.348c0-.552-.447-1-1-1h-1.428l.843-1.347h3.986c.965 0 1.75-.785 1.75-1.75v-1.25h9.934c-.14 1.157-.547 2.261-1.222 3.228z"/><path d="m3 3h-.25c-1.517 0-2.75 1.233-2.75 2.75v4.5c0 1.517 1.233 2.75 2.75 2.75h.25z"/></svg>
