<svg id="icon" enable-background="new 0 0 24 24" height="512" viewBox="0 0 24 24" width="512" xmlns="http://www.w3.org/2000/svg"><path d="m20.582 7.604c-1.575-.304-3.083-.515-4.582-.651v2.297c0 .965-.785 1.75-1.75 1.75h-4.5c-.965 0-1.75-.785-1.75-1.75v-2.285c-1.592.146-3.144.362-4.582.639-.821.157-1.418.883-1.418 1.726v6.96c0 1.013.869 1.894 2.078 1.717 1.531-.287 3.078-.486 4.728-.609.391-.029.694-.356.694-.748v-.9c0-.138.112-.25.25-.25h4.5c.138 0 .25.112.25.25v.9c0 .393.303.719.694.748 1.649.123 3.196.322 4.71.606 1.024.217 2.096-.567 2.096-1.714v-6.96c0-.843-.597-1.569-1.418-1.726z"/><path d="m12 20.999c-.938 0-1.874-.196-2.604-.588-.365-.196-.502-.65-.307-1.015.196-.365.65-.505 1.016-.306 1.027.551 2.764.551 3.791 0 .364-.196.819-.059 1.016.306.195.365.059.819-.307 1.015-.731.392-1.668.588-2.605.588z"/><path d="m23 14h-2c-.552 0-1-.448-1-1v-2c0-.552.448-1 1-1h2c.552 0 1 .448 1 1v2c0 .552-.448 1-1 1z"/><path d="m3 14h-2c-.552 0-1-.448-1-1v-2c0-.552.448-1 1-1h2c.552 0 1 .448 1 1v2c0 .552-.448 1-1 1z"/><path d="m12.01 24c-5.889 0-8.892-4.875-9.738-9.438-.101-.543.258-1.065.801-1.166.543-.102 1.064.258 1.166.801.339 1.831 1.903 7.803 7.771 7.803 4.207 0 6.746-2.558 7.764-7.82.104-.542.634-.896 1.171-.792.543.105.897.629.792 1.172-1.508 7.802-6.123 9.44-9.727 9.44z"/><path d="m20.783 10.976-6.75-1.5c-2.3-.499-4.311-1.967-5.545-3.055-.54 1.277-1.491 2.582-2.561 2.989l-2.412 1.447c-.666.4-1.515-.081-1.515-.857v-1.51c0-5.833 5.188-8.49 10.01-8.49 4.811 0 9.99 2.66 9.99 8.5v1.5c0 .644-.597 1.114-1.217.976z"/></svg>
