<svg id="icon" height="512pt" viewBox="0 0 512 512" width="512pt" xmlns="http://www.w3.org/2000/svg"><path d="m467 91c-24.8125 0-45 20.1875-45 45 0 12.101562 4.855469 23.054688 12.652344 31.148438l-6.925782 13.851562h-36.726562v-120h-210v-61h-30v61h-30v150h-55.273438l-15.273437 30.550781c-1.808594-.222656-3.585937-.550781-5.453125-.550781-24.8125 0-45 20.1875-45 45s20.1875 45 45 45 45-20.1875 45-45c0-12.101562-4.855469-23.054688-12.652344-31.148438l6.925782-13.851562h36.726562v180h270v-210h55.273438l15.273437-30.550781c1.808594.222656 3.585937.550781 5.453125.550781 24.8125 0 45-20.1875 45-45s-20.1875-45-45-45zm-256 300h-30v-30h30zm0-60h-30v-30h30zm0-60h-30v-30h30zm60 120h-30v-30h30zm0-60h-30v-30h30zm0-60h-30v-30h30zm60 120h-30v-30h30zm0-60h-30v-30h30zm0-60h-30v-30h30zm0-60h-150v-90h150zm0 0"/><path d="m211 151h90v30h-90zm0 0"/><path d="m486.230469 395.070312c-5.011719-20.050781-22.96875-34.070312-43.652344-34.070312h-21.578125v60h30v30h-390v-30h30v-60h-21.578125c-20.683594 0-38.640625 14.019531-43.652344 34.085938l-25.769531 116.914062h512zm0 0"/></svg>
