<svg id="icon" height="512pt" viewBox="-31 0 512 512" width="512pt" xmlns="http://www.w3.org/2000/svg"><path d="m405 392c-19.53125 0-36.023438 12.578125-42.238281 30h-32.761719v-60h90v-362h-390v362h90v60h-32.761719c-6.214843-17.421875-22.707031-30-42.238281-30-24.8125 0-45 20.1875-45 45s20.1875 45 45 45c19.53125 0 36.023438-12.578125 42.238281-30h62.761719v-90h60v62.761719c-17.421875 6.214843-30 22.707031-30 42.238281 0 24.8125 20.1875 45 45 45s45-20.1875 45-45c0-19.53125-12.578125-36.023438-30-42.238281v-62.761719h60v90h62.761719c6.214843 17.421875 22.707031 30 42.238281 30 24.8125 0 45-20.1875 45-45s-20.1875-45-45-45zm-147.859375-92.671875-17.140625 2.492187v-30.820312h-30v30.820312l-17.140625-2.492187c-58.636719-8.464844-102.859375-59.339844-102.859375-118.328125s44.222656-109.863281 102.859375-118.328125l17.140625-2.492187v30.820312h30v-30.820312l17.140625 2.492187c58.636719 8.464844 102.859375 59.339844 102.859375 118.328125s-44.222656 109.863281-102.859375 118.328125zm0 0"/><path d="m270 96.597656v24.402344h-90v-24.402344c-35.171875 12.492188-60 46.171875-60 84.402344s24.828125 71.910156 60 84.402344v-24.402344h90v24.402344c35.171875-12.492188 60-46.171875 60-84.402344s-24.828125-71.910156-60-84.402344zm-60 114.402344h-30v-60h30zm60 0h-30v-60h30zm0 0"/></svg>
