<svg id="icon" height="512pt" viewBox="0 0 512 512" width="512pt" xmlns="http://www.w3.org/2000/svg"><path d="m436 391c-19.53125 0-36.023438 12.578125-42.238281 30h-32.761719v-60h60v-60h-330v60h60v60h-32.761719c-6.214843-17.421875-22.707031-30-42.238281-30-24.8125 0-45 20.1875-45 45s20.1875 45 45 45c19.53125 0 36.023438-12.578125 42.238281-30h62.761719v-90h60v63.761719c-17.421875 6.214843-30 22.707031-30 42.238281 0 24.8125 20.1875 45 45 45s45-20.1875 45-45c0-19.53125-12.578125-36.023438-30-42.238281v-63.761719h60v90h62.761719c6.214843 17.421875 22.707031 30 42.238281 30 24.8125 0 45-20.1875 45-45s-20.1875-45-45-45zm0 0"/><path d="m0 121h60v30h-60zm0 0"/><path d="m452 121h60v30h-60zm0 0"/><path d="m85.609375 232.007812-12.683594-27.191406-54.375 25.359375 12.683594 27.1875zm0 0"/><path d="m493.449219 41.824219-12.683594-27.1875-54.375 25.355469 12.683594 27.191406zm0 0"/><path d="m85.609375 39.992188-54.375-25.355469-12.683594 27.1875 54.375 25.359375zm0 0"/><path d="m426.390625 232.007812 54.375 25.355469 12.683594-27.1875-54.375-25.359375zm0 0"/><path d="m301 181v-30h-15c-8.277344 0-15 6.722656-15 15s6.722656 15 15 15zm0 0"/><path d="m241 208.238281c-4.714844 1.679688-9.714844 2.761719-15 2.761719h-45v-90h45c11.566406 0 22.019531 4.507812 30 11.703125 7.980469-7.195313 18.433594-11.703125 30-11.703125h45v90h-45c-5.285156 0-10.285156-1.082031-15-2.761719v62.761719h120v-135c0-74.441406-60.558594-136-135-136s-135 61.558594-135 136v135h120zm0 0"/><path d="m211 151v30h15c8.277344 0 15-6.722656 15-15s-6.722656-15-15-15zm0 0"/></svg>
