<svg id="icon" height="512pt" viewBox="0 0 512 512" width="512pt" xmlns="http://www.w3.org/2000/svg"><path d="m361 181v-91h32.761719c6.214843 17.421875 22.707031 30 42.238281 30 24.8125 0 45-20.1875 45-45s-20.1875-45-45-45c-19.53125 0-36.023438 12.578125-42.238281 30h-62.761719v121h-60v-93.761719c17.421875-6.214843 30-22.707031 30-42.238281 0-24.8125-20.1875-45-45-45s-45 20.1875-45 45c0 19.53125 12.578125 36.023438 30 42.238281v93.761719h-60v-121h-62.761719c-6.214843-17.421875-22.707031-30-42.238281-30-24.8125 0-45 20.1875-45 45s20.1875 45 45 45c19.53125 0 36.023438-12.578125 42.238281-30h32.761719v91h-151v30h31v76c0 124.070312 100.929688 225 225 225s225-100.929688 225-225v-76h31v-30zm-105 271c-57.890625 0-105-47.109375-105-105s47.109375-105 105-105 105 47.109375 105 105-47.109375 105-105 105zm165-180h-30v-30h30zm0 0"/><path d="m256 332c-8.277344 0-15 6.722656-15 15s6.722656 15 15 15 15-6.722656 15-15-6.722656-15-15-15zm0 0"/><path d="m256 272c-41.351562 0-75 33.648438-75 75s33.648438 75 75 75 75-33.648438 75-75-33.648438-75-75-75zm0 120c-24.8125 0-45-20.1875-45-45s20.1875-45 45-45 45 20.1875 45 45-20.1875 45-45 45zm0 0"/></svg>
