<svg id="icon" height="512pt" viewBox="0 0 512 512" width="512pt" xmlns="http://www.w3.org/2000/svg"><path d="m166 331c-8.277344 0-15 6.722656-15 15s6.722656 15 15 15 15-6.722656 15-15-6.722656-15-15-15zm0 0"/><path d="m166 181c24.8125 0 45-20.1875 45-45s-20.1875-45-45-45-45 20.1875-45 45 20.1875 45 45 45zm-15-60h30v30h-30zm0 0"/><path d="m166 271c-41.351562 0-75 33.648438-75 75s33.648438 75 75 75 75-33.648438 75-75-33.648438-75-75-75zm0 120c-24.8125 0-45-20.1875-45-45s20.1875-45 45-45 45 20.1875 45 45-20.1875 45-45 45zm0 0"/><path d="m424.761719 271c6.214843 17.421875 22.707031 30 42.238281 30 24.8125 0 45-20.1875 45-45s-20.1875-45-45-45c-19.53125 0-36.023438 12.578125-42.238281 30h-93.761719v-30h20.539062l58.632813-39.089844c7.511719 5.632813 16.738281 9.089844 26.828125 9.089844 24.8125 0 45-20.1875 45-45s-20.1875-45-45-45-45 20.1875-45 45c0 3.804688.617188 7.4375 1.507812 10.964844l-51.046874 34.035156h-11.460938v-181h-331v512h331v-181h39.789062l25.722657 25.722656c-2.808594 5.867188-4.511719 12.351563-4.511719 19.277344 0 24.8125 20.1875 45 45 45s45-20.1875 45-45-20.1875-45-45-45c-6.925781 0-13.410156 1.703125-19.277344 4.511719l-34.511718-34.511719h-52.210938v-30zm-258.761719-210c41.351562 0 75 33.648438 75 75s-33.648438 75-75 75-75-33.648438-75-75 33.648438-75 75-75zm-105 0h30v30h-30zm30 390h-30v-30h30zm180 0h-30v-30h30zm-105 0c-57.890625 0-105-47.109375-105-105s47.109375-105 105-105 105 47.109375 105 105-47.109375 105-105 105zm105-360h-30v-30h30zm0 0"/></svg>
