<svg id="icon" height="512pt" viewBox="0 -46 512 512" width="512pt" xmlns="http://www.w3.org/2000/svg"><path d="m150 210c-33.089844 0-60 26.910156-60 60s26.910156 60 60 60c7.027344 0 13.671875-1.4375 19.945312-3.667969-12.765624-15.785156-19.945312-35.386719-19.945312-56.332031s7.179688-40.546875 19.945312-56.332031c-6.273437-2.230469-12.917968-3.667969-19.945312-3.667969zm0 0"/><path d="m300 0h-300v120h300zm-210 90h-30v-30h30zm60 0h-30v-30h30zm90 0h-60v-30h60zm0 0"/><path d="m180 270c0 14.800781 5.402344 28.5625 14.90625 39.378906 9.277344-10.5625 15.09375-24.242187 15.09375-39.378906s-5.816406-28.816406-15.09375-39.378906c-9.503906 10.816406-14.90625 24.578125-14.90625 39.378906zm0 0"/><path d="m424.761719 270c6.214843 17.421875 22.707031 30 42.238281 30 24.8125 0 45-20.1875 45-45s-20.1875-45-45-45c-19.53125 0-36.023438 12.578125-42.238281 30h-124.761719v-30h51.539062l58.632813-39.089844c7.511719 5.632813 16.738281 9.089844 26.828125 9.089844 24.8125 0 45-20.1875 45-45s-20.1875-45-45-45-45 20.1875-45 45c0 3.804688.617188 7.4375 1.507812 10.964844l-51.046874 34.035156h-42.460938v-30h-300v270h300v-90h70.789062l25.722657 25.722656c-2.808594 5.867188-4.511719 12.351563-4.511719 19.277344 0 24.8125 20.1875 45 45 45s45-20.1875 45-45-20.1875-45-45-45c-6.925781 0-13.410156 1.703125-19.277344 4.511719l-34.511718-34.511719h-83.210938v-30zm-274.761719 90c-49.628906 0-90-40.371094-90-90s40.371094-90 90-90 90 40.371094 90 90-40.371094 90-90 90zm0 0"/></svg>
