<svg id="icon" height="512pt" viewBox="0 0 512.001 512" width="512pt" xmlns="http://www.w3.org/2000/svg"><path d="m467 272c24.8125 0 45-20.183594 45-45 0-24.8125-20.1875-45-45-45-19.53125 0-36.023438 12.578125-42.238281 30h-43.542969l-15.324219-61.300781 19.132813-28.699219h39.738281c6.210937 17.421875 22.707031 30 42.234375 30 24.816406 0 45-20.183594 45-45 0-24.8125-20.183594-45-45-45-19.527344 0-36.023438 12.578125-42.234375 30h-55.792969l-12.910156 19.367188-27.34375-111.367188h-263.4375l-65.28125 272h32v105h30v-105h90v30h90v-30h38.789062l90 90h53.972657c6.214843 17.421875 22.707031 30 42.238281 30 24.8125 0 45-20.183594 45-45 0-24.8125-20.1875-45-45-45-19.53125 0-36.023438 12.578125-42.238281 30h-41.550781l-60-60h73.007812l-7.5-30h36.042969c6.214843 17.421875 22.707031 30 42.238281 30zm0 0"/><path d="m312.984375 420.984375c1.066406-49.53125-41.871094-88.984375-91.410156-88.984375h-49.144531c-49.539063 0-92.480469 39.453125-91.414063 88.984375l.023437 1.015625h231.921876c.007812-.339844.019531-.679688.023437-1.015625zm-100.984375-28.984375h-30v-30h30zm0 0"/><path d="m309.703125 452h-225.40625l5 30h-27.296875v30h270v-30h-27.296875zm0 0"/></svg>
