<svg id="icon" height="512pt" viewBox="0 0 512 512" width="512pt" xmlns="http://www.w3.org/2000/svg"><path d="m99.113281 331h-17.195312l-81.917969 122.519531 75.121094 49.921875 46.109375-69.164062c-1.773438-4.339844-3.230469-8.851563-4.171875-13.585938zm0 0"/><path d="m426.140625 0-87.335937 241h30.605468c21.566406 0 41.675782 9.351562 55.910156 25.417969l86.679688-234.613281zm0 0"/><path d="m386.761719 21.511719c-20.226563-.183594-36.402344 12.324219-42.652344 29.46875l-20.519531 56.382812c-6.6875 18.34375-.503906 38.15625 13.75 49.949219zm0 0"/><path d="m369.40625 271h-98.40625v-180h-122.761719c-6.214843-17.421875-22.707031-30-42.238281-30-24.8125 0-45 20.1875-45 45s20.1875 45 45 45c19.53125 0 36.023438-12.578125 42.238281-30h92.761719v150h-30v-60h-123.761719c-6.214843-17.421875-22.707031-30-42.238281-30-24.8125 0-45 20.1875-45 45s20.1875 45 45 45c19.53125 0 36.023438-12.578125 42.238281-30h93.761719v30h-8.40625c-28.371094 0-49.710938 26.019531-44.121094 53.832031l18 89.984375c4.175782 20.964844 22.734375 36.183594 44.121094 36.183594h20.40625v31h-30v30h180v-30h-30v-31h20.40625c21.386719 0 39.945312-15.21875 44.121094-36.167969l18-90c5.589844-27.8125-15.75-53.832031-44.121094-53.832031zm-68.40625 211h-60v-31h60zm30-121h-120v-30h120zm0 0"/></svg>
