<svg id="icon" height="512pt" viewBox="0 0 512 512" width="512pt" xmlns="http://www.w3.org/2000/svg"><path d="m0 0v30h151v61h90v30h-30v30h90v-30h-30v-30h90v-61h151v-30zm0 0"/><path d="m256 401.988281-24.023438 32.023438c-3.910156 5.230469-5.976562 11.441406-5.976562 17.988281 0 16.539062 13.460938 30 30 30s30-13.460938 30-30c0-6.546875-2.066406-12.757812-5.992188-17.988281zm0 0"/><path d="m331 249.789062v78.648438c-17.460938-6.199219-30-22.882812-30-42.4375 0-57.890625-47.109375-105-105-105h-39.230469l29.226563 26.175781c.246094.21875 25.003906 23.117188 25.003906 48.824219 0 8.746094-2.871094 18.136719-8.539062 27.921875-8.070313 13.914063-13.902344 28.0625-17.433594 42.230469-2.605469-2.753906-4.027344-6.328125-4.027344-10.152344v-66.210938l-42.113281 42.113282c-30.878907 30.878906-47.886719 72.941406-47.886719 116.605468.527344 57.070313 49.308594 103.492188 108.75 103.492188h56.25c-33.089844 0-60-26.910156-60-60 0-13.082031 4.144531-25.519531 11.96875-35.976562l48.03125-64.011719 48.03125 64.011719c7.824219 10.457031 11.96875 22.894531 11.96875 35.976562 0 33.089844-26.910156 60-60 60h56.277344c59.285156 0 108.046875-46.230469 108.722656-104.3125-.234375-43.375-17.226562-85.140625-47.886719-115.785156zm0 0"/><path d="m389.417969 129.277344 30 60-26.835938 13.417968-30-60zm0 0"/><path d="m489.300781 119.425781-59.996093-30 13.417968-26.832031 59.996094 29.996094zm0 0"/><path d="m92.578125 189.292969 29.996094-60 26.835937 13.417969-30 59.996093zm0 0"/><path d="m22.707031 119.417969-13.417969-26.832031 60-30 13.417969 26.835937zm0 0"/></svg>
