<svg id="icon" height="512pt" viewBox="0 0 512 512" width="512pt" xmlns="http://www.w3.org/2000/svg"><path d="m410.210938 261.945312c7.507812 5.609376 16.714843 9.054688 26.789062 9.054688 24.8125 0 45-20.1875 45-45s-20.1875-45-45-45-45 20.1875-45 45c0 3.8125.621094 7.453125 1.515625 10.988281l-51.015625 34.011719h-47.800781l-4.5 30h61.300781zm0 0"/><path d="m424.761719 361c6.214843 17.421875 22.707031 30 42.238281 30 24.8125 0 45-20.1875 45-45s-20.1875-45-45-45c-19.53125 0-36.023438 12.578125-42.238281 30h-138.820313l4.257813-30h-249.527344l21.429687 151h206.796876l4.261718-30h97.628906l25.722657 25.722656c-2.808594 5.867188-4.511719 12.351563-4.511719 19.277344 0 24.8125 20.1875 45 45 45s45-20.1875 45-45-20.1875-45-45-45c-6.925781 0-13.410156 1.703125-19.277344 4.511719l-34.511718-34.511719h-105.789063l4.257813-31zm0 0"/><path d="m331 241v-30h-150v-62.515625c67.316406-7.574219 120-64.175781 120-133.484375v-15h-15c-52.566406 0-97.714844 30.492188-120 74.449219-22.285156-43.957031-67.433594-74.449219-120-74.449219h-15v15c0 69.308594 52.683594 125.910156 120 133.484375v62.515625h-151v30h32.101562l4.285157 30h258.3125l4.199219-30zm0 0"/></svg>
