<svg id="icon" height="512pt" viewBox="0 -16 512 512" width="512pt" xmlns="http://www.w3.org/2000/svg"><path d="m30 60h115.273438l15.273437 30.550781c1.808594-.222656 3.585937-.550781 5.453125-.550781 24.8125 0 45 20.1875 45 45s-20.1875 45-45 45-45-20.1875-45-45c0-12.101562 4.855469-23.054688 12.652344-31.148438l-6.925782-13.851562h-96.726562v150h391v-60h-114.273438l-15.273437-30.550781c-1.808594.222656-3.585937.550781-5.453125.550781-24.8125 0-45-20.1875-45-45s20.1875-45 45-45 45 20.1875 45 45c0 12.101562-4.855469 23.054688-12.652344 31.148438l6.925782 13.851562h95.726562v-150h-391zm0 0"/><path d="m181 135c0-8.277344-6.722656-15-15-15s-15 6.722656-15 15 6.722656 15 15 15 15-6.722656 15-15zm0 0"/><path d="m271 105c0 8.277344 6.722656 15 15 15s15-6.722656 15-15-6.722656-15-15-15-15 6.722656-15 15zm0 0"/><path d="m30 270h-30v210h30v-30h61v-150h-61zm0 0"/><path d="m451 44.191406v151.617188l61 20.007812v-191.632812zm0 0"/><path d="m181 330h-60v90h150v-150h-90zm0 0"/></svg>
