<svg id="icon" height="512pt" viewBox="0 0 512 512" width="512pt" xmlns="http://www.w3.org/2000/svg"><path d="m482 87.238281c17.421875-6.214843 30-22.707031 30-42.238281 0-24.8125-20.1875-45-45-45s-45 20.1875-45 45c0 19.53125 12.578125 36.023438 30 42.238281v33.761719h-392v-33.761719c17.421875-6.214843 30-22.707031 30-42.238281 0-24.8125-20.1875-45-45-45s-45 20.1875-45 45c0 19.53125 12.578125 36.023438 30 42.238281v33.761719h-30v61h512v-61h-30zm0 0"/><path d="m256 369.5c-23.367188 26.121094-50.585938 45.777344-43.960938 77.402344 3.515626 16.757812 17.710938 30.804687 34.542969 34.160156 29.71875 5.847656 54.417969-16.738281 54.417969-44.0625 0-24.371094-17.058594-36.265625-45-67.5zm0 0"/><path d="m482 452h-60v-30h60v-30h-60v-30h60v-30h-60v-30h60v-30h-60v-30h60v-30h-452v30h60v30h-60v30h60v30h-60v30h60v30h-60v30h60v30h-60v30h-30v30h512v-30h-30zm-166.140625 30h-119.015625c-6.738281-8.4375-11.890625-18.09375-14.160156-28.945312-9.710938-46.355469 16.652344-65.210938 73.316406-128.554688 57.246094 64.011719 75 76.480469 75 112.5 0 16.476562-5.453125 32.136719-15.140625 45zm75.140625 0h-30v-105c0-57.890625-47.109375-105-105-105s-105 47.109375-105 105v105h-30v-105c0-74.441406 60.558594-135 135-135s135 60.558594 135 135zm0 0"/></svg>
