<svg id="icon" height="512pt" viewBox="0 -31 512 512" width="512pt" xmlns="http://www.w3.org/2000/svg"><path d="m361 60h30v90h-30zm0 0"/><path d="m421 30h30v150h-30zm0 0"/><path d="m482 60h30v90h-30zm0 0"/><path d="m0 60h30v90h-30zm0 0"/><path d="m61 30h30v150h-30zm0 0"/><path d="m121 60h30v90h-30zm0 0"/><path d="m361 255c0 52.753906-39.25 96.128906-90 103.484375v-30.003906c34.191406-6.96875 60-37.265625 60-73.480469v-15h-60v-30h60v-30h-60v-30h60v-30h-60v-30h60v-15c0-41.351562-33.648438-75-75-75s-75 33.648438-75 75v15h60v30h-60v30h60v30h-60v30h60v30h-60v15c0 36.214844 25.808594 66.511719 60 73.480469v30.003906c-50.75-7.355469-90-50.730469-90-103.484375v-45h-30v45c0 69.308594 52.683594 125.910156 120 133.484375v31.515625h-60v30h150v-30h-60v-31.515625c67.316406-7.574219 120-64.175781 120-133.484375v-45h-30zm0 0"/></svg>
