<svg id="icon" height="512pt" viewBox="0 0 512 512" width="512pt" xmlns="http://www.w3.org/2000/svg"><path d="m436 379.296875c-7.980469 7.195313-18.433594 11.703125-30 11.703125h-30c-11.566406 0-22.019531-4.507812-30-11.703125-7.980469 7.195313-18.433594 11.703125-30 11.703125h-30c-11.566406 0-22.019531-4.507812-30-11.703125-7.980469 7.195313-18.433594 11.703125-30 11.703125h-30c-11.566406 0-22.019531-4.507812-30-11.703125-7.980469 7.195313-18.433594 11.703125-30 11.703125h-30c-11.566406 0-22.019531-4.507812-30-11.703125-7.980469 7.195313-18.433594 11.703125-30 11.703125h-46v121h512v-121h-46c-11.566406 0-22.019531-4.507812-30-11.703125zm0 0"/><path d="m466 271c-8.277344 0-15-6.722656-15-15v-15h-30v15c0 8.277344-6.722656 15-15 15h-30c-8.277344 0-15-6.722656-15-15 0-49.046875 0-36.507812 0-83.789062l25.722656-25.722657c5.867188 2.808594 12.351563 4.511719 19.277344 4.511719 24.8125 0 45-20.1875 45-45s-20.1875-45-45-45-45 20.1875-45 45c0 6.925781 1.703125 13.410156 4.511719 19.277344l-34.511719 34.511718v96.210938c0 8.277344-6.722656 15-15 15h-30c-8.277344 0-15-6.722656-15-15 0-67.265625 0-101.875 0-168.761719 17.421875-6.214843 30-22.707031 30-42.238281 0-24.8125-20.1875-45-45-45s-45 20.1875-45 45c0 19.53125 12.578125 36.023438 30 42.238281v168.761719c0 8.277344-6.722656 15-15 15h-30c-8.277344 0-15-6.722656-15-15 0-37.039062 0-60.335938 0-96.210938l-34.511719-34.511718c2.808594-5.867188 4.511719-12.351563 4.511719-19.277344 0-24.8125-20.1875-45-45-45s-45 20.1875-45 45 20.1875 45 45 45c6.925781 0 13.410156-1.703125 19.277344-4.511719l25.722656 25.722657v83.789062c0 8.277344-6.722656 15-15 15h-30c-8.277344 0-15-6.722656-15-15v-15h-30v15c0 8.277344-6.722656 15-15 15h-46v90h46c8.277344 0 15-6.722656 15-15v-15h30v15c0 8.277344 6.722656 15 15 15h30c8.277344 0 15-6.722656 15-15v-15h30v15c0 8.277344 6.722656 15 15 15h30c8.277344 0 15-6.722656 15-15v-15h30v15c0 8.277344 6.722656 15 15 15h30c8.277344 0 15-6.722656 15-15v-15h30v15c0 8.277344 6.722656 15 15 15h30c8.277344 0 15-6.722656 15-15v-15h30v15c0 8.277344 6.722656 15 15 15h46v-90zm0 0"/></svg>
