<svg id="icon" height="512pt" viewBox="-31 0 512 512" width="512pt" xmlns="http://www.w3.org/2000/svg"><path d="m350.769531 211h-20.769531v-30h-150v98.789062l25.722656 25.722657c5.867188-2.808594 12.351563-4.511719 19.277344-4.511719 24.8125 0 45 20.1875 45 45s-20.1875 45-45 45-45-20.1875-45-45c0-6.925781 1.703125-13.410156 4.511719-19.277344l-34.511719-34.511718v-111.210938h-150v170.140625c0 58.726563 22.867188 114.9375 64.394531 156.464844l4.394531 4.394531h81.210938v-99.789062l-25.722656-25.722657c-5.867188 2.808594-12.351563 4.511719-19.277344 4.511719-24.8125 0-45-20.1875-45-45s20.1875-45 45-45 45 20.1875 45 45c0 6.925781-1.703125 13.410156-4.511719 19.277344l34.511719 34.511718v112.210938h81.210938l4.394531-4.394531c24.578125-24.578125 42.425781-55.015625 53.058593-87.066407l56.160157-14.042968c44.269531-11.058594 75.175781-50.652344 75.175781-96.269532 0-54.710937-44.515625-99.226562-99.230469-99.226562zm16.789063 166.40625-40.78125 10.195312c1.988281-11.953124 3.222656-24.101562 3.222656-36.460937v-110.140625h20.773438c38.171874 0 69.226562 31.054688 69.226562 69.230469 0 31.828125-21.5625 59.457031-52.441406 67.175781zm0 0"/><path d="m150 75c0-8.277344 6.722656-15 15-15h60c24.8125 0 45-20.1875 45-45v-15h-30v15c0 8.277344-6.722656 15-15 15h-60c-24.8125 0-45 20.1875-45 45v15h30zm0 0"/><path d="m180 135v15h30v-15c0-8.277344 6.722656-15 15-15h60c24.8125 0 45-20.1875 45-45v-15h-30v15c0 8.277344-6.722656 15-15 15h-60c-24.8125 0-45 20.1875-45 45zm0 0"/><path d="m90 346c0 8.277344 6.722656 15 15 15s15-6.722656 15-15-6.722656-15-15-15-15 6.722656-15 15zm0 0"/><path d="m240 346c0-8.277344-6.722656-15-15-15s-15 6.722656-15 15 6.722656 15 15 15 15-6.722656 15-15zm0 0"/></svg>
