<svg id="icon" height="512pt" viewBox="0 -31 512 512" width="512pt" xmlns="http://www.w3.org/2000/svg"><path d="m256 90c-24.8125 0-45 20.1875-45 45s20.1875 45 45 45 45-20.1875 45-45-20.1875-45-45-45zm15 60h-30v-30h30zm0 0"/><path d="m256 0c-97.683594 0-190.296875 61.550781-256 135 47.089844 52.636719 98.785156 91.078125 151 112.675781v112.324219h-32.761719c-6.214843-17.421875-22.707031-30-42.238281-30-24.8125 0-45 20.1875-45 45s20.1875 45 45 45c19.53125 0 36.023438-12.578125 42.238281-30h62.761719v-131.464844c19.050781 5.710938 39.183594 9.363282 60 10.667969v93.558594c-17.421875 6.214843-30 22.707031-30 42.238281 0 24.8125 20.1875 45 45 45s45-20.1875 45-45c0-19.53125-12.578125-36.023438-30-42.238281v-93.558594c20.816406-1.304687 40.949219-4.957031 60-10.667969v131.464844h62.761719c6.214843 17.421875 22.707031 30 42.238281 30 24.8125 0 45-20.1875 45-45s-20.1875-45-45-45c-19.53125 0-36.023438 12.578125-42.238281 30h-32.761719v-112.324219c51.976562-21.5 103.722656-59.828125 151-112.675781-65.644531-73.378906-158.253906-135-256-135zm0 210c-41.351562 0-75-33.648438-75-75s33.648438-75 75-75 75 33.648438 75 75-33.648438 75-75 75zm0 0"/></svg>
