<svg id="icon" height="512pt" viewBox="0 0 512 512" width="512pt" xmlns="http://www.w3.org/2000/svg"><path d="m361 331h151v-270h-512v270h151v91h-32.761719c-6.214843-17.421875-22.707031-30-42.238281-30-24.8125 0-45 20.1875-45 45s20.1875 45 45 45c19.53125 0 36.023438-12.578125 42.238281-30h62.761719v-121h60v93.761719c-17.421875 6.214843-30 22.707031-30 42.238281 0 24.8125 20.1875 45 45 45s45-20.1875 45-45c0-19.53125-12.578125-36.023438-30-42.238281v-93.761719h60v121h62.761719c6.214843 17.421875 22.707031 30 42.238281 30 24.8125 0 45-20.1875 45-45s-20.1875-45-45-45c-19.53125 0-36.023438 12.578125-42.238281 30h-32.761719zm0-210h90v150h-90zm-120 0h90v150h-90zm-180 75v-75h90v30h-60v30h60v90h-90zm150 45h-30v-30h30zm0-60h-30v-30h30zm0 0"/><path d="m391 151h30v90h-30zm0 0"/><path d="m271 151h30v90h-30zm0 0"/><path d="m91 211h30v30h-30zm0 0"/><path d="m61 0h90v31h-90zm0 0"/></svg>
