<svg id="icon" height="512pt" viewBox="0 0 512 512" width="512pt" xmlns="http://www.w3.org/2000/svg"><path d="m436 391c-19.53125 0-36.023438 12.578125-42.238281 30h-32.761719v-90h15c74.441406 0 136-60.558594 136-135s-61.558594-135-136-135c-36.050781 0-69.945312 14.03125-95.464844 39.519531l-21.210937-21.210937c21.828125-21.804688 48.835937-36.273438 78.085937-43.277344-26.628906-22.386719-60.527344-36.03125-96.410156-36.03125-47.996094 0-91.890625 24.191406-119.734375 61.230469 39.550781.15625 77.40625 15.332031 105.804687 43.671875l-21.210937 21.238281c-27.929687-27.898437-65.761719-39.648437-104.996094-33.277344-56.828125 9.671875-100.863281 59.355469-100.863281 118.136719 0 66.167969 54.832031 120 121 120h30v90h-32.761719c-6.214843-17.421875-22.707031-30-42.238281-30-24.8125 0-45 20.1875-45 45s20.1875 45 45 45c19.53125 0 36.023438-12.578125 42.238281-30h62.761719v-120h60v93.761719c-17.421875 6.214843-30 22.707031-30 42.238281 0 24.8125 20.1875 45 45 45s45-20.1875 45-45c0-19.53125-12.578125-36.023438-30-42.238281v-93.761719h60v121l62.761719-1c6.214843 17.421875 22.707031 30 42.238281 30 24.8125 0 45-20.1875 45-45s-20.1875-45-45-45zm0 0"/></svg>
