<svg id="icon" height="512pt" viewBox="-31 0 512 512" width="512pt" xmlns="http://www.w3.org/2000/svg"><path d="m420 87.238281c17.421875-6.214843 30-22.707031 30-42.238281 0-24.8125-20.1875-45-45-45s-45 20.1875-45 45c0 19.53125 12.578125 36.023438 30 42.238281v33.761719h-330v-33.761719c17.421875-6.214843 30-22.707031 30-42.238281 0-24.8125-20.1875-45-45-45s-45 20.1875-45 45c0 19.53125 12.578125 36.023438 30 42.238281v33.761719h-30v300h60v-180h330v180h60v-300h-30zm-330 123.761719h-30v-30h30zm60 0h-30v-30h30zm60 0h-30v-30h30zm90 0h-60v-30h60zm90 0h-60v-30h60zm0 0"/><path d="m30 451h390v61h-390zm0 0"/><path d="m90 271v150h127.507812l85.496094-113.992188 23.992188 17.984376-72.003906 96.007812h105.007812v-150h-127.507812l-85.496094 113.992188-23.992188-17.984376 72.003906-96.007812zm0 0"/></svg>
