<svg id="icon" height="512pt" viewBox="-91 0 512 512" width="512pt" xmlns="http://www.w3.org/2000/svg"><path d="m0 0v512h330v-512zm150 91h30v90h-30zm-23.496094 43.976562c-13.667968 11.4375-21.503906 28.210938-21.503906 46.023438 0 33.089844 26.910156 60 60 60s60-26.910156 60-60c0-17.8125-7.835938-34.585938-21.503906-46.023438l19.277344-23c20.480468 17.152344 32.226562 42.320313 32.226562 69.023438 0 49.628906-40.371094 90-90 90s-90-40.371094-90-90c0-26.703125 11.746094-51.871094 32.226562-69.023438zm113.496094 166.023438v30h-150v-30zm-180-240h30v30h-30zm30 390h-30v-30h30zm0-90h150v30h-150zm180 90h-30v-30h30zm0-360h-30v-30h30zm0 0"/></svg>
