<svg id="icon" height="512pt" viewBox="0 0 512 512" width="512pt" xmlns="http://www.w3.org/2000/svg"><path d="m424.761719 301c6.214843 17.421875 22.707031 30 42.238281 30 24.8125 0 45-20.1875 45-45s-20.1875-45-45-45c-19.53125 0-36.023438 12.578125-42.238281 30h-93.761719v-30h19.539062l58.632813-39.089844c7.511719 5.632813 16.738281 9.089844 26.828125 9.089844 24.8125 0 45-20.1875 45-45s-20.1875-45-45-45-45 20.1875-45 45c0 3.804688.617188 7.4375 1.507812 10.964844l-51.046874 34.035156h-341.460938v180h331v-30h38.789062l25.722657 25.722656c-2.808594 5.867188-4.511719 12.351563-4.511719 19.277344 0 24.8125 20.1875 45 45 45s45-20.1875 45-45-20.1875-45-45-45c-6.925781 0-13.410156 1.703125-19.277344 4.511719l-34.511718-34.511719h-51.210938v-30zm-333.761719 30h-30v-90h30zm0 0"/><path d="m0 481h31v31h30v-31h210v31h30v-31h30v-60h-331zm0 0"/><path d="m331 0h-331v181h331zm-240 151h-30v-90h30zm0 0"/></svg>
