<svg id="icon" height="512pt" viewBox="-46 0 512 512" width="512pt" xmlns="http://www.w3.org/2000/svg"><path d="m332.75 271.015625c6.210938 17.421875 22.707031 30 42.238281 30 24.816407 0 45.003907-20.1875 45.003907-45 0-24.816406-20.1875-45.003906-45.003907-45.003906-19.53125 0-36.027343 12.578125-42.238281 30h-152.773438v-30h79.546876l58.632812-39.089844c7.511719 5.628906 16.738281 9.089844 26.828125 9.089844 24.816406 0 45.003906-20.1875 45.003906-45.003907 0-24.816406-20.1875-45.003906-45.003906-45.003906-24.8125 0-45 20.1875-45 45.003906 0 3.804688.617187 7.4375 1.507813 10.964844l-51.050782 34.039063h-70.464844v-106.007813c0-41.355468-33.648437-75.003906-75.003906-75.003906-41.355468 0-75.003906 33.648438-75.003906 75.003906v76.003906h60.003906v-91.003906h30v303.78125c17.425782 6.210938 30.003906 22.707032 30.003906 42.238282 0 24.816406-20.1875 45.003906-45.003906 45.003906s-45.003906-20.1875-45.003906-45.003906c0-19.53125 12.582031-36.027344 30.003906-42.238282v-62.769531h-60.003906v31.964844c-23.671875 24.246093-34.25 57.984375-28.375 91.605469 7.425781 42.554687 42.234375 78.433593 84.65625 85.816406 6.167969 1.070312 12.363281 1.597656 18.503906 1.597656 24.757813 0 48.738282-9.570312 67.78125-25.597656 23.789063-20.011719 37.441406-49.308594 37.441406-80.378906 0-27.144532-10.855468-53.398438-30-73.027344v-1.976563h98.792969l25.722657 25.722657c-2.804688 5.867187-4.507813 12.351562-4.507813 19.277343 0 24.816407 20.183594 45.003907 45 45.003907s45.003906-20.1875 45.003906-45.003907c0-24.8125-20.1875-45-45.003906-45-6.925781 0-13.410156 1.703125-19.277344 4.507813l-34.511719-34.511719h-111.21875v-30zm0 0"/><path d="m29.96875 241.011719h60.003906v30.003906h-60.003906zm0 0"/><path d="m104.972656 421.023438c8.277344 0 15-6.722657 15-15 0-8.277344-6.722656-15-15-15s-15 6.722656-15 15c0 8.277343 6.722656 15 15 15zm0 0"/><path d="m29.96875 181.011719h60.003906v30h-60.003906zm0 0"/></svg>
