<svg id="icon" height="448pt" viewBox="-4 0 448 448.0179" width="448pt" xmlns="http://www.w3.org/2000/svg"><path d="m440.089844 192.019531v80c0 26.507813-21.492188 48-48 48h-40v-32h40c8.824218-.027343 15.972656-7.175781 16-16v-80c-.027344-8.828125-7.175782-15.976562-16-16h-40v-32h40c26.507812 0 48 21.488281 48 48zm0 0"/><path d="m128.089844 208.019531c0 8.835938-7.164063 16-16 16-8.839844 0-16-7.164062-16-16 0-8.839843 7.160156-16 16-16 8.835937 0 16 7.160157 16 16zm0 0"/><path d="m336.089844 376.019531h-288v16c.035156 30.910157 25.085937 55.964844 56 56h176c30.910156-.035156 55.964844-25.089843 56-56zm0 0"/><path d="m48.089844 344.019531h288v16h-288zm0 0"/><path d="m336.089844 109.90625c-7.140625 5.019531-15.363282 8.289062-24 9.542969v48.570312c0 13.253907-10.746094 24-24 24-13.257813 0-24-10.746093-24-24v-8c-12.121094 9.089844-28.339844 10.550781-41.890625 3.777344-13.550781-6.777344-22.109375-20.628906-22.109375-35.777344v-18.402343c-10.527344 3.1875-21.765625 3.148437-32.265625-.109376-2.554688 25.78125-22.460938 46.445313-48.132813 49.960938-25.667968 3.515625-50.398437-11.039062-59.789062-35.1875-3.8125 1.453125-7.773438 2.488281-11.8125 3.082031v200.65625h288zm-224 130.113281c-17.675782 0-32-14.328125-32-32 0-17.675781 14.324218-32 32-32 17.671875 0 32 14.324219 32 32 0 17.671875-14.328125 32-32 32zm0 0"/><path d="m304.089844 24.019531c-1.734375.015625-3.46875.140625-5.1875.375-3.234375.433594-6.40625-1.152343-8-4-7.203125-12.835937-20.886719-20.667969-35.601563-20.3867185-14.71875.2812495-28.089843 8.6367185-34.796875 21.7382815-1.089844 2.109375-3.058594 3.628906-5.375 4.140625-2.320312.515625-4.746094-.027344-6.625-1.476563-16.304687-12.6875-39.601562-10.796875-53.648437 4.351563-1.890625 2.027343-4.699219 2.925781-7.417969 2.382812-2.714844-.542969-4.960938-2.457031-5.925781-5.054687-6.035157-16.289063-21.90625-26.808594-39.257813-26.0234378-17.351562.7890628-32.207031 12.7031248-36.742187 29.4726558-.601563 2.199219-2.109375 4.039063-4.152344 5.054688-2.035156 1.03125-4.414063 1.128906-6.527344.273438-14.976562-5.976563-32.078125-2.375-43.371093 9.132812-11.292969 11.507812-14.574219 28.671875-8.320313 43.535156 6.253906 14.863282 20.824219 24.515625 36.949219 24.484375 7.3125-.011719 14.476562-2.066406 20.6875-5.929687 2.242187-1.355469 5.003906-1.527344 7.398437-.460938 2.390625 1.066406 4.109375 3.238282 4.601563 5.8125 3.8125 20.304688 22.46875 34.363282 43.039062 32.441406 20.570313-1.925781 36.289063-19.203124 36.273438-39.863281-.015625-1.9375-.175782-3.871093-.472656-5.785156-.441407-3.058594.914062-6.097656 3.488281-7.808594 2.574219-1.707031 5.902343-1.785156 8.550781-.191406 12.390625 7.507813 27.894531 7.636719 40.40625.335937 2.476562-1.429687 5.523438-1.429687 7.996094-.003906 2.476562 1.429688 4.003906 4.066406 4.003906 6.921875v30.53125c0 13.253907 10.746094 24 24 24 13.257812 0 24-10.746093 24-24 0-4.417969 3.582031-8 8-8s8 3.582031 8 8v40c0 4.417969 3.582031 8 8 8s8-3.582031 8-8v-56c0-4.417969 3.582031-8 8-8 22.09375.003907 40.007812-17.898437 40.011719-39.988281.007812-22.09375-17.894531-40.007812-39.984375-40.011719zm0 0"/></svg>
