<svg id="icon" height="447pt" viewBox="-10 0 447 447.92578" width="447pt" xmlns="http://www.w3.org/2000/svg"><path d="m4.367188 152.621094c-1.539063-17.605469 11.484374-33.121094 29.085937-34.664063 5.296875-.4375 10.617187.441407 15.488281 2.5625 7.5625-11.238281 21.386719-16.484375 34.496094-13.097656 13.113281 3.386719 22.664062 14.675781 23.832031 28.167969l-15.933593 1.390625c-.65625-7.71875-6.765626-13.855469-14.488282-14.539063-7.71875-.683594-14.8125 4.277344-16.816406 11.765625-.730469 2.683594-2.804688 4.792969-5.476562 5.570313-2.667969.78125-5.550782.121094-7.613282-1.746094-4.863281-4.378906-11.910156-5.339844-17.769531-2.429688-5.863281 2.914063-9.351563 9.105469-8.804687 15.628907zm0 0"/><path d="m116.367188 39.925781c-4.417969 0-8-3.582031-8-8 0-13.253906-10.746094-24-24-24-13.253907 0-24 10.746094-24 24 .121093.496094.175781 1.007813.160156 1.519531 0 2.625-1.289063 5.082032-3.445313 6.578126-2.160156 1.496093-4.914062 1.835937-7.371093.910156-4.882813-1.78125-10.332032-1.0625-14.585938 1.925781s-6.777344 7.867187-6.757812 13.066406h104c0-8.835937-7.164063-16-16-16zm0 0"/><path d="m364.367188 287.925781c0 4.417969-3.582032 8-8 8-4.417969 0-8-3.582031-8-8s3.582031-8 8-8c4.417968 0 8 3.582031 8 8zm0 0"/><path d="m220.367188 271.925781c0 8.835938-7.164063 16-16 16-8.835938 0-16-7.164062-16-16 0-8.835937 7.164062-16 16-16 8.835937 0 16 7.164063 16 16zm0 0"/><path d="m370.765625 352.085938 17.601563-3.519532v-52.640625c0-4.417969 3.582031-8 8-8h2.070312l-42.070312-72.121093-42.074219 72.121093h2.074219c4.417968 0 8 3.582031 8 8v64c0 4.417969-3.582032 8-8 8h-64c-4.417969 0-8-3.582031-8-8v-80c0-4.417969 3.582031-8 8-8h9.34375l-57.34375-89.207031-57.34375 89.207031h9.34375c4.417968 0 8 3.582031 8 8v32h16c3.445312 0 6.503906 2.203125 7.589843 5.472657l6.953125 20.855468 13.03125 6.511719-7.152344 14.320313-16-8c-1.894531-.953126-3.332031-2.617188-4-4.632813l-6.191406-18.527344h-10.230468v32c0 4.417969-3.582032 8-8 8h-64.480469c-3.882813 0-7.207031-2.789062-7.878907-6.617187l-9.199218-52.320313c-.761719-4.34375 2.136718-8.484375 6.476562-9.253906l2.066406-.367187-53.984374-63.730469-28.90625 78.289062 2.027343-.351562c2.089844-.382813 4.246094.09375 5.984375 1.320312 1.738282 1.214844 2.921875 3.070313 3.292969 5.160157l8.425781 47.871093h16.175782c2.675781 0 5.171874 1.335938 6.65625 3.558594l14.480468 21.722656 21.390625 7.125-5.054687 15.203125-24-8c-1.6875-.566406-3.136719-1.675781-4.128906-3.152344l-13.625-20.457031h-9.070313l5.207031 29.601563 6.0625 34.398437h82.082032v-40c0-13.253906 10.746093-24 24-24h128c13.253906 0 24 10.746094 24 24v40h96v-83.039062l-9.878907 1.976562-6.53125 19.589844-15.199219-5.054687 8-24c.90625-2.71875 3.199219-4.746094 6.007813-5.3125zm-326.398437-16.160157c-13.253907 0-24-10.746093-24-24 0-13.253906 10.746093-24 24-24 13.253906 0 24 10.746094 24 24 0 13.253907-10.746094 24-24 24zm160-32c-17.671876 0-32-14.328125-32-32s14.328124-32 32-32c17.671874 0 32 14.328125 32 32s-14.328126 32-32 32zm152 8c-13.253907 0-24-10.746093-24-24 0-13.253906 10.746093-24 24-24 13.253906 0 24 10.746094 24 24 0 13.253907-10.746094 24-24 24zm0 0"/><path d="m52.367188 311.925781c0 4.417969-3.582032 8-8 8-4.417969 0-8-3.582031-8-8s3.582031-8 8-8c4.417968 0 8 3.582031 8 8zm0 0"/><path d="m132.367188 407.925781v40h64v-48h-56c-4.417969 0-8 3.582031-8 8zm0 0"/><path d="m196.976562 164.628906.664063-1.03125c1.558594-2.160156 4.0625-3.4375 6.726563-3.4375 2.664062 0 5.167968 1.277344 6.726562 3.4375l39.527344 61.488282c17.691406 9.734374 37.554687 14.839843 57.746094 14.839843 5.375-.023437 10.738281-.402343 16.0625-1.136719l25.023437-42.863281c1.546875-2.300781 4.140625-3.683593 6.914063-3.683593 2.773437 0 5.363281 1.382812 6.910156 3.683593l13.296875 22.800781c32.597656-22.292968 52.003906-59.3125 51.792969-98.800781-.03125-48.355469-29.082032-91.972656-73.695313-110.632812-44.609375-18.660157-96.0625-8.71875-130.515625 25.214843-34.449219 33.9375-45.167969 85.234376-27.179688 130.121094zm71.390626-28.703125c1.886718 0 3.765624.222657 5.601562.664063 6.441406-7.796875 17.085938-10.703125 26.597656-7.261719 9.511719 3.4375 15.835938 12.484375 15.800782 22.597656h-16c-.082032-3.839843-2.882813-7.074219-6.667969-7.714843-3.785157-.640626-7.488281 1.5-8.828125 5.097656-.820313 2.335937-2.671875 4.160156-5.019532 4.941406-2.347656.785156-4.925781.4375-6.980468-.941406-2.449219-1.667969-5.625-1.84375-8.246094-.457032-2.621094 1.386719-4.257812 4.109376-4.257812 7.074219h-16c0-13.253906 10.746093-24 24-24zm0 0"/><path d="m212.367188 399.925781v48h64v-40c0-4.417969-3.582032-8-8-8zm0 0"/></svg>
