<svg id="icon" height="448pt" viewBox="0 0 448.00001 448" width="448pt" xmlns="http://www.w3.org/2000/svg"><path d="m144 144h-16c0-7.351562 3.367188-14.296875 9.140625-18.84375 5.773437-4.550781 13.3125-6.207031 20.460937-4.492188 6.445313-7.785156 17.085938-10.6875 26.59375-7.246093 9.503907 3.4375 15.828126 12.472656 15.804688 22.582031h-16c-.078125-3.84375-2.878906-7.089844-6.671875-7.726562-3.792969-.640626-7.5 1.511718-8.832031 5.117187-.820313 2.335937-2.671875 4.160156-5.019532 4.941406-2.347656.785157-4.925781.4375-6.980468-.941406-2.449219-1.664063-5.617188-1.839844-8.234375-.453125-2.621094 1.382812-4.257813 4.101562-4.261719 7.0625zm0 0"/><path d="m240 112h-16c0-7.351562 3.367188-14.296875 9.140625-18.84375 5.773437-4.550781 13.3125-6.207031 20.460937-4.492188 6.445313-7.785156 17.085938-10.6875 26.59375-7.246093 9.503907 3.4375 15.828126 12.472656 15.804688 22.582031h-16c-.078125-3.84375-2.878906-7.089844-6.671875-7.726562-3.792969-.640626-7.5 1.511718-8.832031 5.117187-.820313 2.335937-2.671875 4.160156-5.019532 4.941406-2.347656.785157-4.925781.4375-6.980468-.941406-2.449219-1.664063-5.617188-1.839844-8.234375-.453125-2.621094 1.382812-4.257813 4.101562-4.261719 7.0625zm0 0"/><path d="m392 40c0 22.089844-17.910156 40-40 40s-40-17.910156-40-40 17.910156-40 40-40 40 17.910156 40 40zm0 0"/><path d="m120 64c-4.417969 0-8-3.582031-8-8 0-13.253906-10.746094-24-24-24s-24 10.746094-24 24c.117188.496094.171875 1.007812.160156 1.519531 0 2.628907-1.289062 5.089844-3.449218 6.582031-2.160157 1.496094-4.917969 1.832032-7.375.90625-4.882813-1.785156-10.332032-1.070312-14.585938 1.921876-4.253906 2.988281-6.777344 7.871093-6.75 13.070312h104c0-8.835938-7.164062-16-16-16zm0 0"/><path d="m128 144h16c0-2.957031 1.628906-5.671875 4.238281-7.0625s5.773438-1.226562 8.226563.421875c2.054687 1.378906 4.632812 1.726563 6.980468.941406 2.347657-.78125 4.199219-2.605469 5.019532-4.941406 1.300781-3.660156 5.046875-5.851563 8.875-5.203125 3.828125.652344 6.636718 3.960938 6.660156 7.84375h16c.023438-10.109375-6.300781-19.144531-15.804688-22.582031-9.507812-3.441407-20.148437-.539063-26.59375 7.246093-7.148437-1.714843-14.6875-.058593-20.460937 4.492188-5.773437 4.546875-9.140625 11.492188-9.140625 18.84375zm0 0"/><path d="m248 104c1.589844-.003906 3.144531.46875 4.464844 1.359375 2.054687 1.378906 4.632812 1.726563 6.980468.941406 2.347657-.78125 4.199219-2.605469 5.019532-4.941406 1.300781-3.660156 5.046875-5.851563 8.875-5.203125 3.828125.652344 6.636718 3.960938 6.660156 7.84375h16c.023438-10.109375-6.300781-19.144531-15.804688-22.582031-9.507812-3.441407-20.148437-.539063-26.59375 7.246093-7.148437-1.714843-14.6875-.058593-20.460937 4.492188-5.773437 4.546875-9.140625 11.492188-9.140625 18.84375h16c0-4.417969 3.582031-8 8-8zm0 0"/><path d="m12 268.648438c2.46875 1.425781 3.996094 4.058593 4 6.910156v4.441406h16v-4.441406c.003906-2.851563 1.53125-5.484375 4-6.910156 7.421875-4.222657 12.003906-12.109376 12-20.648438 0-13.253906-10.746094-24-24-24s-24 10.746094-24 24c-.00390625 8.539062 4.578125 16.425781 12 20.648438zm-1.679688-26.328126 1.191407-.960937c.449219-.300781.9375-.542969 1.449219-.71875.453124-.230469.9375-.394531 1.4375-.480469 2.636718-.535156 5.367187.273438 7.28125 2.160156 1.460937 1.53125 2.289062 3.5625 2.320312 5.679688-.019531-3.25 1.929688-6.1875 4.933594-7.433594 3-1.246094 6.457031-.554687 8.746094 1.753906 1.460937 1.53125 2.289062 3.5625 2.320312 5.679688 0 4.417969-3.582031 8-8 8s-8-3.582031-8-8c0 4.417969-3.582031 8-8 8s-8-3.582031-8-8c.027344-2.117188.855469-4.148438 2.320312-5.679688zm0 0"/><path d="m0 296h48v8h-48zm0 0"/><path d="m8 320h32v128h-32zm0 0"/><path d="m392 344v-16h-16c-.003906-28.953125-8.332031-57.296875-24-81.648438v-30.351562h-16v9.601562c-7.230469-7.925781-15.277344-15.066406-24-21.304687v-20.296875h-16v10.183594c-7.6875-4.117188-15.71875-7.5625-24-10.296875v-15.886719h-16v11.457031c-7.90625-1.65625-15.929688-2.675781-24-3.050781v-16.40625h-16v16.40625c-8.070312.375-16.09375 1.394531-24 3.050781v-11.457031h-16v15.886719c-8.28125 2.734375-16.3125 6.179687-24 10.296875v-10.183594h-16v20.296875c-8.722656 6.238281-16.769531 13.378906-24 21.304687v-9.601562h-16v30.351562c-15.667969 24.351563-23.996094 52.695313-24 81.648438h-16v16h16v80h-16v16h16c0 4.417969 3.582031 8 8 8h288c4.417969 0 8-3.582031 8-8h16v-16h-16v-80zm-300-48h4v80h-8v-48c.054688-10.789062 1.394531-21.53125 4-32zm20 0h24v80h-24zm144 80h-24v-80h24zm16-80h24v80h-24zm-56 80h-24v-80h24zm-40 0h-24v-80h24zm-40 16v40h-24v-40zm16 0h24v40h-24zm40 0h24v40h-24zm40 0h24v40h-24zm40 0h24v40h-24zm40 0h24v40h-24zm0-16v-80h24v80zm40-80h4.039062c2.59375 10.46875 3.921876 21.214844 3.960938 32v48h-8zm-16-44.976562v28.976562h-24v-55.503906c9.125 7.757812 17.191406 16.675781 24 26.527344zm-40-38.222657v67.199219h-24v-79.089844c8.371094 3.164063 16.410156 7.148438 24 11.890625zm-40-16.800781v84h-24v-87.59375c8.089844.480469 16.125 1.679688 24 3.59375zm-40-3.550781v87.550781h-24v-84c7.875-1.914062 15.910156-3.113281 24-3.59375zm-40 8.503906v79.046875h-24v-67.199219c7.589844-4.742187 15.628906-8.726562 24-11.890625zm-40 23.582031v55.464844h-24v-28.976562c6.808594-9.851563 14.875-18.769532 24-26.527344zm-48 167.464844h8v40h-8zm264 40v-40h8v40zm0 0"/><path d="m412 268.648438c2.46875 1.425781 3.996094 4.058593 4 6.910156v4.441406h16v-4.441406c.003906-2.851563 1.53125-5.484375 4-6.910156 7.421875-4.222657 12.003906-12.109376 12-20.648438 0-13.253906-10.746094-24-24-24s-24 10.746094-24 24c-.003906 8.539062 4.578125 16.425781 12 20.648438zm-1.679688-26.328126c1.890626-1.875 4.589844-2.683593 7.199219-2.160156.53125.074219 1.050781.238282 1.527344.480469.492187.160156.953125.402344 1.359375.71875.472656.320313.882812.640625 1.28125.960937 1.460938 1.535157 2.285156 3.5625 2.3125 5.679688.027344-2.117188.855469-4.148438 2.320312-5.679688 1.890626-1.875 4.589844-2.683593 7.199219-2.160156.53125.074219 1.050781.238282 1.527344.480469.511719.175781.996094.417969 1.441406.71875l1.199219.960937c1.460938 1.535157 2.285156 3.5625 2.3125 5.679688 0 4.417969-3.582031 8-8 8s-8-3.582031-8-8c0 4.417969-3.582031 8-8 8s-8-3.582031-8-8c.027344-2.117188.855469-4.148438 2.320312-5.679688zm0 0"/><path d="m400 296h48v8h-48zm0 0"/><path d="m408 320h32v128h-32zm0 0"/></svg>
