<svg id="icon" height="480pt" viewBox="8 0 480.04172 480" width="480pt" xmlns="http://www.w3.org/2000/svg"><path d="m272.042969 24.019531c0 13.257813-10.746094 24-24 24-13.257813 0-24-10.742187-24-24 0-13.253906 10.742187-23.9999998 24-23.9999998 13.253906 0 24 10.7460938 24 23.9999998zm0 0"/><path d="m344.042969 48.019531c0 8.835938-7.164063 16-16 16-8.835938 0-16-7.164062-16-16 0-8.835937 7.164062-16 16-16 8.835937 0 16 7.164063 16 16zm0 0"/><path d="m160.042969 64.019531c0 8.835938-7.164063 16-16 16-8.835938 0-16-7.164062-16-16 0-8.835937 7.164062-16 16-16 8.835937 0 16 7.164063 16 16zm0 0"/><path d="m480.042969 208.019531c-.042969 28.082031-20.878907 51.789063-48.722657 55.441407-.480468-5.359376-1.199218-10.640626-2.160156-15.921876 20.914063-2.660156 36.148438-21.125 34.796875-42.164062-1.355469-21.035156-18.835937-37.394531-39.914062-37.355469-8.289063-.039062-16.382813 2.535157-23.121094 7.363281-2.878906-4.480468-6-8.800781-9.28125-13.042968 9.445313-6.761719 20.785156-10.375 32.402344-10.320313 30.910156.035157 55.964843 25.089844 56 56zm0 0"/><path d="m88.441406 162.339844c-3.28125 4.242187-6.398437 8.5625-9.28125 13.042968-6.738281-4.828124-14.828125-7.402343-23.117187-7.363281-20.902344.261719-38.078125 16.570313-39.417969 37.429688-1.34375 20.859375 13.601562 39.234375 34.296875 42.171875-1.003906 5.238281-1.726563 10.523437-2.160156 15.839844-29.273438-3.792969-50.566407-29.679688-48.644531-59.136719 1.925781-29.457031 26.40625-52.351563 55.925781-52.304688 11.617187-.054687 22.953125 3.558594 32.398437 10.320313zm0 0"/><path d="m360.664062 152.019531h-.621093v32c0 13.257813-10.746094 24-24 24-13.257813 0-24-10.742187-24-24 0-4.417969-3.582031-8-8-8s-8 3.582031-8 8v40c0 13.257813-10.746094 24-24 24-13.257813 0-24-10.742187-24-24v-40c0-4.417969-3.582031-8-8-8s-8 3.582031-8 8c0 13.257813-10.746094 24-24 24-13.257813 0-24-10.742187-24-24v-32h-64.625c-52.546875 49.453125-69.582031 125.972657-42.980469 193.046875 26.601562 67.074219 91.449219 111.117188 163.605469 111.117188s137.003906-44.042969 163.601562-111.117188c26.601563-67.074218 9.566407-143.59375-42.980469-193.046875zm-24.621093 120c-13.257813 0-24-10.742187-24-24 0-13.253906 10.742187-24 24-24 13.253906 0 24 10.746094 24 24 0 13.257813-10.746094 24-24 24zm0 0"/><path d="m344.042969 248.019531c0 4.417969-3.582031 8-8 8s-8-3.582031-8-8 3.582031-8 8-8 8 3.582031 8 8zm0 0"/><path d="m272.042969 232.019531c4.417969 0 8-3.582031 8-8v-40c0-13.253906 10.742187-24 24-24 13.253906 0 24 10.746094 24 24 0 4.417969 3.582031 8 8 8s8-3.582031 8-8v-64h-152c5.203125 6.917969 8.011719 15.34375 8 24v40c0 4.417969 3.582031 8 8 8s8-3.582031 8-8c0-13.253906 10.742187-24 24-24 13.253906 0 24 10.746094 24 24v40c0 4.417969 3.582031 8 8 8zm0 0"/><path d="m112.042969 120.019531c-2.085938-.015625-4.089844.8125-5.554688 2.296875-1.566406 1.484375-2.453125 3.546875-2.445312 5.703125 0 4.417969 3.582031 8 8 8h70.527343c-3.378906-9.554687-12.394531-15.957031-22.527343-16zm0 0"/><path d="m368.042969 120.019531h-8v16h8c2.082031.015625 4.085937-.8125 5.550781-2.292969 1.566406-1.484374 2.453125-3.546874 2.449219-5.707031 0-4.417969-3.582031-8-8-8zm0 0"/></svg>
