<svg id="icon" height="464pt" viewBox="0 -9 464 463" width="464pt" xmlns="http://www.w3.org/2000/svg"><path d="m416 372.867188v-16c17.671875 0 32-14.324219 32-32 0-17.671876-14.328125-32-32-32s-32 14.328124-32 32v40h-16v-40c0-26.507813 21.492188-48 48-48s48 21.492187 48 48c0 26.511718-21.492188 48-48 48zm0 0"/><path d="m32 428.867188c-17.671875 0-32-14.324219-32-32 0-17.671876 14.328125-32 32-32h48v16h-48c-8.835938 0-16 7.164062-16 16 0 8.835937 7.164062 16 16 16s16-7.164063 16-16h16c0 17.675781-14.328125 32-32 32zm0 0"/><path d="m232 132.867188h16v32h-16zm0 0"/><path d="m240 124.867188c26.5-.027344 47.972656-21.5 48-48 0-17.765626-24.800781-51.101563-48-76.367188-23.199219 25.265625-48 58.601562-48 76.367188.027344 26.5 21.5 47.972656 48 48zm0 0"/><path d="m384 380.867188h-288v8c.035156 30.914062 25.085938 55.964843 56 56h176c30.914062-.035157 55.964844-25.085938 56-56zm0 0"/><path d="m176 172.867188c-4.417969 0-8 3.582031-8 8v40h144v-40c0-4.417969-3.582031-8-8-8zm0 0"/><path d="m168 268.867188h144v96h-144zm0 0"/><path d="m168 236.867188h144v16h-144zm0 0"/></svg>
