<svg id="icon" height="448pt" viewBox="0 -31 448 448" width="448pt" xmlns="http://www.w3.org/2000/svg"><path d="m314.511719 266.476562c22.609375-6.085937 37.542969-27.574218 35.367187-50.886718l-91.4375 24.503906c9.777344 21.269531 33.449219 32.410156 56.070313 26.382812zm0 0"/><path d="m270.65625 343.046875c-1.570312 2.097656-4.035156 3.332031-6.65625 3.332031s-5.085938-1.234375-6.65625-3.332031l-13.625-20.441406h-39.4375l-13.601562 20.441406c-1.570313 2.097656-4.035157 3.332031-6.65625 3.332031-2.621094 0-5.085938-1.234375-6.65625-3.332031l-13.648438-20.441406h-18.277344l5.328125 32h146.429688l5.394531-32h-18.304688zm0 0"/><path d="m448 154.605469v-16c0-4.417969-3.582031-8-8-8h-91.046875l-8.152344 14.144531c-3.167969 5.53125-8.417969 9.5625-14.578125 11.199219-2.039062.539062-4.136718.808593-6.246094.800781-6.726562-.011719-13.136718-2.851562-17.667968-7.824219-4.527344-4.972656-6.757813-11.621093-6.140625-18.320312h-144.335938c1.035157 11.21875-5.882812 21.644531-16.621093 25.046875-10.738282 3.402344-22.398438-1.136719-28.011719-10.902344l-8.152344-14.144531h-91.046875c-4.417969 0-8 3.582031-8 8v16c0 4.417969 3.582031 8 8 8h432c4.417969 0 8-3.582031 8-8zm0 0"/><path d="m133.488281 266.476562c22.625 6.027344 46.304688-5.121093 56.070313-26.398437l-91.4375-24.503906c-2.1875 23.316406 12.75 44.816406 35.367187 50.902343zm0 0"/><path d="m67.753906 386.605469h312.492188c11.925781-.050781 22.027344-8.808594 23.761718-20.609375l26.769532-187.390625h-413.554688l26.777344 187.390625c1.734375 11.796875 11.828125 20.554687 23.753906 20.609375zm250.644532-61.421875-5.367188 32c-1.242188 7.765625-7.964844 13.464844-15.832031 13.421875h-146.398438c-7.855469.011719-14.554687-5.679688-15.816406-13.429688l-5.351563-32c-.753906-4.636719.566407-9.367187 3.609376-12.941406 3.042968-3.574219 7.503906-5.632813 12.199218-5.628906h22.558594c2.675781 0 5.171875 1.335937 6.65625 3.558593l9.34375 14.042969 9.34375-14.015625c1.480469-2.234375 3.976562-3.582031 6.65625-3.585937h48c2.675781 0 5.171875 1.335937 6.65625 3.558593l9.34375 14.042969 9.34375-14.015625c1.480469-2.234375 3.976562-3.582031 6.65625-3.585937h22.558594c4.703125-.015625 9.175781 2.039062 12.226562 5.617187 3.050782 3.578125 4.371094 8.320313 3.613282 12.960938zm-72.46875-98.304688 108.183593-28.984375c4.265625-1.144531 8.65625 1.386719 9.796875 5.65625 9.148438 34.140625-11.113281 69.234375-45.253906 78.382813-34.140625 9.148437-69.234375-11.113282-78.382812-45.253906-1.144532-4.269532 1.386718-8.65625 5.65625-9.800782zm-161.839844-23.328125c1.140625-4.269531 5.53125-6.800781 9.796875-5.65625l108.183593 28.984375c4.269532 1.144532 6.800782 5.53125 5.65625 9.800782-9.148437 34.140624-44.242187 54.402343-78.382812 45.253906-34.140625-9.148438-54.402344-44.242188-45.253906-78.382813zm0 0"/><path d="m385.070312 4.046875-72 124.703125c-1.449218 2.476562-1.464843 5.542969-.035156 8.03125 1.429688 2.488281 4.085938 4.019531 6.957032 4.015625 2.871093-.007813 5.515624-1.550781 6.9375-4.046875l72-124.703125c1.449218-2.476563 1.464843-5.542969.035156-8.03125-1.429688-2.488281-4.085938-4.0234375-6.957032-4.015625-2.871093.0078125-5.515624 1.550781-6.9375 4.046875zm0 0"/><path d="m125.929688 140.476562c3.125.839844 6.445312-.289062 8.417968-2.855468 1.96875-2.566406 2.199219-6.070313.582032-8.871094l-72-124.703125c-1.421876-2.496094-4.066407-4.0390625-6.9375-4.046875-2.871094-.0078125-5.527344 1.527344-6.957032 4.015625-1.429687 2.488281-1.414062 5.554687.035156 8.03125l72 124.703125c1.0625 1.835938 2.808594 3.179688 4.859376 3.726562zm0 0"/></svg>
