<svg id="icon" height="480pt" viewBox="0 -8 480 480" width="480pt" xmlns="http://www.w3.org/2000/svg"><path d="m392 40c0 22.089844-17.910156 40-40 40s-40-17.910156-40-40 17.910156-40 40-40 40 17.910156 40 40zm0 0"/><path d="m440 206.238281 25.9375-6.476562c3.5625-.890625 6.0625-4.089844 6.0625-7.761719v-8h8v-16h-16c-4.417969 0-8 3.582031-8 8v9.753906l-16 4v-53.753906h-16v126.609375l-40-34.289063v-20.320312c.011719-1.238281-.261719-2.460938-.800781-3.574219l-16-32-14.320313 7.148438 15.121094 30.3125v22.113281c.003906 2.335938 1.023438 4.554688 2.800781 6.070312l11.597657 9.929688-11.597657 9.929688c-.816406.691406-1.480469 1.539062-1.960937 2.496093l-8 16 14.320312 7.148438 7.273438-14.550781 12.230468-10.496094 29.335938 25.152344v164.320312h-56v-16h-256v16h-56v-108.6875l23.199219-23.199219 9.921875 8.511719 7.304687 21.894531 15.199219-5.054687-8-24c-.457031-1.382813-1.289062-2.609375-2.402344-3.542969l-10.695312-9.121094 11.128906-11.128906c1.503906-1.503906 2.347656-3.542969 2.34375-5.671875v-20.6875l13.65625-13.65625-11.3125-11.3125-16 16c-1.5 1.5-2.34375 3.535156-2.34375 5.65625v20.6875l-32 32v-121.375l41.601562-41.601562 26.824219 13.488281 7.148438-14.320313-27.574219-13.824218v-22.773438l20.441406-13.601562-8.882812-13.3125-24 16c-2.214844 1.480468-3.550782 3.96875-3.558594 6.632812v28.6875l-14.449219 14.449219-17.550781-21.945313v-53.191406c0-3.273438-1.992188-6.21875-5.03125-7.433594l-40-16-5.9375 14.867188 34.96875 13.980468v50.585938c0 1.816406.617188 3.582031 1.753906 5l20.40625 25.527344-19.816406 19.816406c-1.5 1.5-2.34375 3.535156-2.34375 5.65625v53.753906l-16-4v-9.753906c0-4.417969-3.582031-8-8-8h-16v16h8v8c0 3.671875 2.5 6.871094 6.0625 7.761719l25.9375 6.476562v113.160157l-16-11.503907v-27.894531c0-1.242188-.285156-2.464844-.839844-3.574219l-8-16-14.320312 7.148438 7.160156 14.3125v30.113281c0 2.574219 1.238281 4.992188 3.328125 6.496094l28.671875 20.609375v52.894531h-40v16h480v-16h-40v-108.894531l28.671875-20.609375c2.089844-1.503906 3.328125-3.921875 3.328125-6.496094v-30.113281l7.199219-14.3125-14.320313-7.148438-8 16c-.566406 1.105469-.867187 2.328125-.878906 3.574219v27.894531l-16 11.503907zm0 0"/><path d="m208 104c1.589844-.003906 3.144531.46875 4.464844 1.359375 2.054687 1.378906 4.632812 1.726563 6.980468.941406 2.347657-.78125 4.199219-2.605469 5.019532-4.941406 1.300781-3.660156 5.046875-5.851563 8.875-5.203125 3.828125.652344 6.636718 3.960938 6.660156 7.84375h16c.023438-10.109375-6.300781-19.144531-15.804688-22.582031-9.507812-3.441407-20.148437-.539063-26.59375 7.246093-7.148437-1.714843-14.6875-.058593-20.460937 4.492188-5.773437 4.546875-9.140625 11.492188-9.140625 18.84375h16c0-4.417969 3.582031-8 8-8zm0 0"/><path d="m128 56c1.589844-.003906 3.144531.46875 4.464844 1.359375 2.054687 1.378906 4.632812 1.726563 6.980468.941406 2.347657-.78125 4.199219-2.605469 5.019532-4.941406 1.300781-3.660156 5.046875-5.851563 8.875-5.203125 3.828125.652344 6.636718 3.960938 6.660156 7.84375h16c.023438-10.109375-6.300781-19.144531-15.804688-22.582031-9.507812-3.441407-20.148437-.539063-26.59375 7.246093-7.148437-1.714843-14.6875-.058593-20.460937 4.492188-5.773437 4.546875-9.140625 11.492188-9.140625 18.84375h16c0-4.417969 3.582031-8 8-8zm0 0"/><path d="m176 296c0 4.417969 3.582031 8 8 8v-16h-8zm0 0"/><path d="m248 280c0 4.417969-3.582031 8-8 8s-8-3.582031-8-8c0-9.6875-13.976562-17.535156-28.640625-15.519531-1.28125 2.875-2.203125 5.898437-2.75 9-.410156 2.148437-.613281 4.332031-.609375 6.519531v32c0 22.089844 17.910156 40 40 40s40-17.910156 40-40v-32c0-3.441406-.449219-6.867188-1.335938-10.191406-.492187-1.851563-1.125-3.660156-1.886718-5.417969-1.582032-.25-3.175782-.378906-4.777344-.390625-13.007812 0-24 7.328125-24 16zm-31.359375 4.960938c.40625-.96875.972656-1.863282 1.679687-2.640626 2.289063-2.308593 5.746094-3 8.746094-1.753906 3.003906 1.246094 4.953125 4.183594 4.933594 7.433594-.011719 1.046875-.230469 2.078125-.640625 3.039062-.40625.96875-.976563 1.863282-1.679687 2.640626-2.699219 2.6875-6.921876 3.101562-10.089844.980468-3.167969-2.117187-4.402344-6.175781-2.949219-9.699218zm47.359375 35.039062v16h-16v-8h-16v8h-16v-24h48zm-9.601562-39.839844c2.636718-.535156 5.367187.273438 7.28125 2.160156 1.460937 1.53125 2.289062 3.5625 2.320312 5.679688.023438 1.050781-.195312 2.089844-.640625 3.039062-.40625.96875-.976563 1.863282-1.679687 2.640626-2.289063 2.308593-5.746094 3-8.746094 1.753906-3.003906-1.246094-4.953125-4.183594-4.933594-7.433594.007812-2.121094.839844-4.160156 2.320312-5.679688.378907-.34375.777344-.664062 1.191407-.960937.449219-.300781.9375-.542969 1.449219-.71875.453124-.230469.9375-.394531 1.4375-.480469zm0 0"/><path d="m304 296v-8h-8v16c4.417969 0 8-3.582031 8-8zm0 0"/><path d="m136 296v80h9.734375l6.503906-25.953125c.898438-3.554687 4.09375-6.046875 7.761719-6.046875h16v16h-9.769531l-1.367188 5.488281 22.710938 11.351563c1.554687.773437 2.8125 2.03125 3.585937 3.585937l8 16-14.320312 7.148438-6.800782-13.597657-17.144531-8.570312-1.125 4.53125c-.890625 3.5625-4.09375 6.066406-7.769531 6.0625h-16v24h208v-77.785156l-9.601562 3.832031-6.832032 20.480469c-.558594 1.6875-1.664062 3.140625-3.140625 4.128906l-24 16-8.882812-13.3125 21.722656-14.480469 7.132813-21.390625c.742187-2.234375 2.433593-4.027344 4.617187-4.90625l18.984375-7.582031v-24.984375c0-57.4375-46.5625-104-104-104s-104 46.5625-104 104zm143.574219-55.574219c3.800781 3.804688 7.035156 8.136719 9.601562 12.863281l.089844.144532.085937.125c2.078126 3.855468 3.691407 7.941406 4.800782 12.175781.527344 2.066406.9375 4.15625 1.230468 6.265625h16.617188c4.417969 0 8 3.582031 8 8v16c0 13.253906-10.746094 24-24 24h-.640625c-3.953125 27.535156-27.542969 47.976562-55.359375 47.976562s-51.40625-20.441406-55.359375-47.976562h-.640625c-13.253906 0-24-10.746094-24-24v-16c0-4.417969 3.582031-8 8-8h16.726562c.074219-.433594 0-.871094.121094-1.304688.980469-5.957031 2.96875-11.707031 5.871094-17 .019531-.058593.039062-.117187.066406-.175781l.054688-.085937v-.066406l.046875-.046876c7.820312-14.496093 21.640625-24.800781 37.769531-28.152343 16.125-3.351563 32.910156.59375 45.855469 10.777343 1.777343 1.390626 3.46875 2.886719 5.0625 4.480469zm0 0"/><path d="m215.359375 248.511719c9.371094 1.179687 18.058594 5.515625 24.640625 12.289062 6.609375-6.75 15.320312-11.050781 24.695312-12.191406l-.054687-.050781c-14.578125-11.003906-34.679687-11.023438-49.28125-.046875zm0 0"/></svg>
