<svg id="icon" height="448pt" viewBox="-96 0 448 448" width="448pt" xmlns="http://www.w3.org/2000/svg"><path d="m136 120v-24h-16v24c0 4.417969-3.582031 8-8 8h-32v16h32c4.417969 0 8 3.582031 8 8v104h16v-104c0-4.417969 3.582031-8 8-8h32v-16h-32c-4.417969 0-8-3.582031-8-8zm0 0"/><path d="m88.566406 32-56.566406 56.566406v90.785156l55.679688 236.648438h80.640624l55.679688-236.648438v-90.785156l-56.566406-56.566406zm103.433594 88v32c0 4.417969-3.582031 8-8 8h-32v104c0 4.417969-3.582031 8-8 8h-32c-4.417969 0-8-3.582031-8-8v-104h-32c-4.417969 0-8-3.582031-8-8v-32c0-4.417969 3.582031-8 8-8h32v-24c0-4.417969 3.582031-8 8-8h32c4.417969 0 8 3.582031 8 8v24h32c4.417969 0 8 3.582031 8 8zm0 0"/><path d="m75.3125 0-75.3125 75.3125v107.757812l62.335938 264.929688h131.328124l62.335938-264.929688v-107.757812l-75.3125-75.3125zm164.6875 85.257812v95.03125c0 .617188-.070312 1.230469-.207031 1.832032l-57.34375 243.710937c-.851563 3.617188-4.078125 6.171875-7.792969 6.167969h-93.3125c-3.714844.003906-6.941406-2.550781-7.792969-6.167969l-57.34375-243.710937c-.136719-.601563-.207031-1.214844-.207031-1.832032v-95.03125c0-2.125.84375-4.15625 2.34375-5.65625l61.257812-61.257812c1.5-1.5 3.53125-2.34375 5.65625-2.34375h85.484376c2.125 0 4.15625.84375 5.65625 2.34375l61.257812 61.257812c1.5 1.5 2.34375 3.53125 2.34375 5.65625zm0 0"/></svg>
