<svg id="icon" height="448pt" viewBox="-40 0 448 448.008" width="448pt" xmlns="http://www.w3.org/2000/svg"><path d="m240.003906 448.007812v-160h-112v160h48v-120h16v120zm0 0"/><path d="m208.707031 8.574219-.078125-.0625c-14.460937-11.347657-34.804687-11.347657-49.265625 0 9.375 1.175781 18.066407 5.515625 24.640625 12.296875 6.605469-6.765625 15.320313-11.082032 24.703125-12.234375zm0 0"/><path d="m240.003906 168.007812h16v104h16v-104c.019532-2.773437-.207031-5.542968-.671875-8.28125-2.914062-19.460937-15.832031-35.964843-34.023437-43.46875-5.179688-1.167968-10.445313-2.097656-15.800782-2.785156-10.253906 9.347656-23.628906 14.53125-37.503906 14.535156 4.460938.007813 8.714844 1.894532 11.71875 5.191407l24.707032-12.351563c2.480468-1.238281 5.425781-1.105468 7.78125.351563 2.359374 1.460937 3.792968 4.035156 3.792968 6.808593v32c0 2.773438-1.433594 5.347657-3.792968 6.808594-2.355469 1.457032-5.300782 1.589844-7.78125.351563l-24.707032-12.351563c-2.996094 3.304688-7.253906 5.191406-11.71875 5.191406s-8.71875-1.886718-11.71875-5.191406l-24.703125 12.390625c-2.488281 1.242188-5.441406 1.105469-7.804687-.363281-2.359375-1.46875-3.789063-4.054688-3.773438-6.835938v-32c0-2.773437 1.433594-5.347656 3.792969-6.808593 2.359375-1.457031 5.304687-1.589844 7.785156-.351563l24.703125 12.351563c3.003906-3.296875 7.257813-5.183594 11.71875-5.191407-13.875-.003906-27.25-5.1875-37.503906-14.535156-5.300781.683594-10.511719 1.597656-15.632812 2.742188-14.925782 6.023437-26.484376 18.25-31.664063 33.488281-2 5.457031-3.046875 11.21875-3.09375 17.03125-.007813.402344-.042969.804687-.105469 1.203125v104.070312h16v-104h16v104h112zm-50.320312 85.679688c-1.535156 1.460938-3.5625 2.289062-5.679688 2.320312-.535156-.011718-1.070312-.066406-1.597656-.160156-.503906-.085937-.988281-.25-1.441406-.480468-.511719-.175782-1-.417969-1.449219-.71875l-1.191406-.960938c-.722657-.765625-1.292969-1.660156-1.679688-2.640625-.851562-1.9375-.851562-4.140625 0-6.078125.367188-.988281.941407-1.890625 1.679688-2.640625.378906-.34375.777343-.664063 1.191406-.960937.449219-.300782.9375-.542969 1.449219-.71875.453125-.230469.9375-.394532 1.441406-.480469 1.558594-.328125 3.179688-.160157 4.636719.480469.96875.40625 1.863281.976562 2.640625 1.679687 3.09375 3.15625 3.09375 8.207031 0 11.359375zm0-32c-1.535156 1.460938-3.5625 2.289062-5.679688 2.320312-.535156-.011718-1.070312-.066406-1.597656-.160156-.503906-.085937-.988281-.25-1.441406-.480468-.511719-.175782-1-.417969-1.449219-.71875l-1.191406-.960938c-1.476563-1.523438-2.308594-3.558594-2.320313-5.679688.011719-1.046874.230469-2.078124.640625-3.039062.40625-.96875.972657-1.863281 1.679688-2.640625 2.300781-2.269531 5.742187-2.933594 8.71875-1.679687 2.472656 1.011718 4.277343 3.195312 4.808593 5.8125.527344 2.621093-.285156 5.332031-2.167968 7.226562zm0-32c-.765625.722656-1.660156 1.292969-2.640625 1.679688-.960938.410156-1.992188.628906-3.039063.640624-2.121094-.011718-4.15625-.84375-5.679687-2.320312-3.09375-3.152344-3.09375-8.203125 0-11.359375l1.191406-.960937c.449219-.300782.9375-.542969 1.449219-.71875.453125-.230469.9375-.394532 1.441406-.480469 3.472656-.738281 7.019531.90625 8.703125 4.03125 1.683594 3.128906 1.105469 6.992187-1.425781 9.488281zm0 0"/><path d="m152.003906 147.0625 6.113282-3.054688-6.113282-3.054687zm0 0"/><path d="m216.003906 140.953125-6.113281 3.054687 6.113281 3.054688zm0 0"/><path d="m112.003906 56.007812c0 4.417969 3.582032 8 8 8h8v-16h-16zm0 0"/><path d="m240.003906 64.007812h8c4.417969 0 8-3.582031 8-8v-8h-16zm0 0"/><path d="m.00390625 349.71875c18.07031275-20.519531 47.17187475-27.3125 72.45703175-16.910156 8.96875-13.003906 23.746093-20.777344 39.542968-20.800782v-24h-24c-4.417968 0-8-3.582031-8-8v-112c-.007812-.644531.023438-1.292968.089844-1.9375.121094-7.398437 1.472656-14.722656 4-21.679687 1.683594-4.777344 3.875-9.359375 6.535156-13.671875-55.773437 28.875-90.746094 86.484375-90.62499975 149.289062zm0 0"/><path d="m295.546875 332.808594c25.289063-10.402344 54.390625-3.609375 72.457031 16.910156v-69.710938c.125-62.714843-34.746094-120.261718-90.398437-149.175781 4.902343 8.054688 8.144531 17.007813 9.535156 26.335938.597656 3.582031.886719 7.207031.863281 10.839843v112c0 4.417969-3.582031 8-8 8h-24v24c15.796875.023438 30.574219 7.796876 39.542969 20.800782zm0 0"/><path d="m144.613281 33.488281c-.410156 2.148438-.613281 4.332031-.609375 6.519531v32c0 22.089844 17.910156 40 40 40 22.09375 0 40-17.910156 40-40v-32c0-3.4375-.449218-6.863281-1.335937-10.183593-.484375-1.851563-1.105469-3.660157-1.863281-5.417969-1.589844-.253906-3.191407-.386719-4.800782-.398438-13.007812 0-24 7.328126-24 16 0 4.417969-3.582031 8-8 8-4.417968 0-8-3.582031-8-8 0-9.695312-13.839844-17.601562-28.640625-15.519531-1.277343 2.875-2.203125 5.898438-2.75 9zm48 11.480469c.386719-.980469.957031-1.875 1.679688-2.640625.378906-.34375.777343-.664063 1.191406-.960937.449219-.300782.9375-.542969 1.449219-.71875.453125-.230469.9375-.394532 1.4375-.480469 2.636718-.535157 5.363281.273437 7.28125 2.160156.707031.777344 1.273437 1.671875 1.679687 2.640625.457031.945312.6875 1.988281.671875 3.039062.023438 2.128907-.8125 4.175782-2.320312 5.679688-1.503906 1.507812-3.550782 2.34375-5.679688 2.320312-.535156-.011718-1.070312-.066406-1.597656-.160156-.503906-.085937-.988281-.25-1.441406-.480468-.511719-.175782-1-.417969-1.449219-.71875-.414063-.296876-.8125-.617188-1.191406-.960938-.722657-.765625-1.292969-1.660156-1.679688-2.640625-.851562-1.9375-.851562-4.140625 0-6.078125zm-30.320312-2.640625c3.136719-3.136719 8.222656-3.136719 11.359375 0 3.136718 3.136719 3.136718 8.222656 0 11.359375-3.136719 3.136719-8.222656 3.136719-11.359375 0s-3.136719-8.222656 0-11.359375zm-2.289063 45.679687v-16h48v24h-16v-8h-16v8h-16zm0 0"/></svg>
