<svg id="icon" height="448pt" viewBox="-88 0 448 448" width="448pt" xmlns="http://www.w3.org/2000/svg"><path d="m168.53125 186.929688-.9375 19.015624 10.398438-10.585937c-2.878907-3.105469-6.046876-5.925781-9.460938-8.429687zm0 0"/><path d="m104.257812 186.929688c-3.414062 2.503906-6.585937 5.324218-9.464843 8.429687l10.402343 10.585937zm0 0"/><path d="m207.3125 140.558594c14.082031-3.792969 23.832031-16.613282 23.722656-31.199219l-59.867187 16c7.1875 12.703125 22.042969 18.949219 36.144531 15.199219zm0 0"/><path d="m72.394531 256c0 44.113281 28.710938 80 64 80 35.289063 0 64-35.886719 64-80 .117188-16.734375-4.273437-33.195312-12.710937-47.648438l-23.441406 23.753907c-1.5 1.527343-3.546876 2.390625-5.6875 2.398437-1.101563-.003906-2.191407-.234375-3.199219-.671875-3.054688-1.328125-4.964844-4.40625-4.800781-7.726562l2.351562-47.28125c-10.699219-3.734375-22.34375-3.734375-33.039062 0l2.351562 47.28125c.160156 3.320312-1.75 6.398437-4.800781 7.726562-1.011719.4375-2.097657.667969-3.199219.671875-2.140625-.007812-4.191406-.871094-5.6875-2.398437l-23.441406-23.753907c-8.433594 14.457032-12.820313 30.914063-12.695313 47.648438zm0 0"/><path d="m260.179688 448c2.429687-.003906 4.730468-1.113281 6.246093-3.015625 1.515625-1.898437 2.085938-4.390625 1.542969-6.761719-7.109375-30.855468-19.117188-86.222656-19.574219-110.070312-.527343-28 6.457031-70.472656 13.199219-111.511719 4.921875-29.863281 9.601562-58.074219 10.816406-77.898437 4.34375-68.605469-52.273437-131.902344-123.632812-138.199219-4.0625-.363281-8.128906-.542969-12.199219-.542969-37.679687.0351562-73.835937 14.886719-100.65625 41.351562-25.363281 24.378907-38.414063 58.878907-35.527344 93.945313 1.597657 18.136719 5.6875 43.398437 10.023438 70.144531 7 43.199219 14.9375 92.167969 14.007812 122.804688-.726562 23.792968-12.625 79.128906-19.65625 110-.53125 2.367187.039063 4.847656 1.554688 6.746094 1.511719 1.894531 3.804687 3 6.230469 3.007812zm-106.714844-332c1.0625-1.835938 2.808594-3.179688 4.855468-3.726562l77.273438-20.707032c4.269531-1.144531 8.65625 1.390625 9.800781 5.65625 4.5 16.585938-.207031 34.3125-12.347656 46.476563-12.136719 12.167969-29.855469 16.914062-46.449219 12.449219-16.59375-4.464844-29.535156-17.460938-33.933594-34.078126-.546874-2.046874-.261718-4.234374.800782-6.070312zm62.929687 140c0 52.9375-35.890625 96-80 96-44.113281 0-80-43.0625-80-96s35.886719-96 80-96c44.109375 0 80 43.0625 80 96zm-189-158.777344c1.144531-4.265625 5.53125-6.800781 9.800781-5.65625l77.269532 20.707032c4.269531 1.140624 6.800781 5.53125 5.65625 9.796874-6.925782 25.527344-33.199219 40.640626-58.746094 33.792969-25.550781-6.847656-40.746094-33.070312-33.980469-58.640625zm0 0"/><path d="m65.472656 140.558594c14.105469 3.75 28.960938-2.496094 36.144532-15.199219l-59.863282-16c-.109375 14.585937 9.636719 27.40625 23.71875 31.199219zm0 0"/></svg>
