<svg id="icon" height="448pt" viewBox="0 0 448.03845 448" width="448pt" xmlns="http://www.w3.org/2000/svg"><path d="m264.019531 216.019531c0-26.507812-17.910156-48-40-48-22.089843 0-40 21.492188-40 48 0 26.511719 17.910157 48 40 48 22.089844 0 40-21.488281 40-48zm0 0"/><path d="m406.011719 168.019531h-53.992188c-13.253906 0-24-10.742187-24-24v-36.796875c.957031-56.417968-42.644531-103.597656-98.960937-107.082031-28.421875-1.378906-56.171875 8.949219-76.773438 28.578125-20.605468 19.628906-32.265625 46.84375-32.265625 75.300781v40c0 13.257813-10.746093 24-24 24h-53.992187c-22.109375-.378906-40.613282 16.691407-42.0078128 38.761719-.3359372 10.820312 3.7304688 21.316406 11.2695308 29.089844 7.535157 7.769531 17.902344 12.15625 28.730469 12.148437h40c22.082031.027344 39.972657 17.921875 40 40 0 .503907-.046875 1.003907-.144531 1.496094l-28.375 149.011719c-.445312 2.339844.175781 4.757812 1.695312 6.59375 1.519532 1.835937 3.777344 2.898437 6.160157 2.898437h249.328125c2.382812 0 4.640625-1.0625 6.160156-2.898437 1.519531-1.835938 2.140625-4.253906 1.695312-6.59375l-28.375-149.011719c-.097656-.492187-.144531-.992187-.144531-1.496094.027344-22.078125 17.917969-39.972656 40-40h40c10.828125.007813 21.195313-4.378906 28.730469-12.148437 7.539062-7.773438 11.605469-18.269532 11.269531-29.089844-1.394531-22.070312-19.898437-39.140625-42.007812-38.761719zm-261.992188-64c0-17.671875 14.328125-32 32-32s32 14.328125 32 32c0 17.675781-14.328125 32-32 32s-32-14.324219-32-32zm80 176c-30.878906 0-56-28.710937-56-64 0-35.285156 25.121094-64 56-64 30.878907 0 56 28.714844 56 64 0 35.289063-25.121093 64-56 64zm48-144c-17.671875 0-32-14.324219-32-32 0-17.671875 14.328125-32 32-32s32 14.328125 32 32c0 17.675781-14.328125 32-32 32zm0 0"/><path d="m288.019531 104.019531c0 8.839844-7.164062 16-16 16-8.835937 0-16-7.160156-16-16 0-8.835937 7.164063-16 16-16 8.835938 0 16 7.164063 16 16zm0 0"/><path d="m192.019531 104.019531c0 8.839844-7.164062 16-16 16-8.835937 0-16-7.160156-16-16 0-8.835937 7.164063-16 16-16 8.835938 0 16 7.164063 16 16zm0 0"/></svg>
