<svg id="icon" height="480pt" viewBox="0 -19 480 479" width="480pt" xmlns="http://www.w3.org/2000/svg"><path d="m432 40.5c0 22.089844-17.910156 40-40 40s-40-17.910156-40-40 17.910156-40 40-40 40 17.910156 40 40zm0 0"/><path d="m168 32.5c-4.417969 0-8-3.582031-8-8 0-13.253906-10.746094-24-24-24s-24 10.746094-24 24c.117188.496094.171875 1.007812.160156 1.519531 0 2.628907-1.289062 5.089844-3.449218 6.582031-2.160157 1.496094-4.917969 1.832032-7.375.90625-4.882813-1.765624-10.320313-1.039062-14.570313 1.945313-4.246094 2.984375-6.773437 7.855469-6.765625 13.046875h104c0-8.835938-7.164062-16-16-16zm0 0"/><path d="m72 320.5h16v-48h16v-16h-16v-16h-16v16h-16v16h16zm0 0"/><path d="m406.625 327.890625 15.453125 4.144531 12.425781-46.367187 15.449219 4.144531 4.144531-15.457031-15.457031-4.144531 4.144531-15.445313-15.457031-4.144531-4.144531 15.453125-15.449219-4.140625-4.140625 15.453125 15.453125 4.136719zm0 0"/><path d="m232 248.5h16v-64h16v-16h-16v-16h-16v16h-16v16h16zm0 0"/><path d="m115.648438 124.125c2.785156-3.339844 6.816406-5.390625 11.152343-5.675781 4.339844-.289063 8.605469 1.214843 11.808594 4.15625 2.0625 1.867187 4.945313 2.527343 7.613281 1.746093 2.671875-.78125 4.742188-2.894531 5.472656-5.578124 2.023438-7.46875 9.113282-12.410157 16.820313-11.726563 7.707031.6875 13.8125 6.800781 14.484375 14.507813l15.9375-1.390626c-1.148438-13.5-10.691406-24.804687-23.808594-28.203124-13.117187-3.394532-26.945312 1.855468-34.503906 13.097656-10.347656-4.492188-22.292969-3.203125-31.445312 3.386718-9.152344 6.589844-14.160157 17.515626-13.179688 28.75l16-1.390624c-.390625-4.226563.921875-8.429688 3.648438-11.679688zm0 0"/><path d="m304 136.5c1.59375-.003906 3.152344.472656 4.472656 1.367188 2.054688 1.378906 4.632813 1.726562 6.980469.941406 2.347656-.78125 4.199219-2.605469 5.019531-4.941406 1.308594-3.644532 5.042969-5.828126 8.863282-5.179688 3.820312.648438 6.628906 3.9375 6.664062 7.8125h16c.035156-10.113281-6.289062-19.160156-15.800781-22.597656-9.507813-3.441406-20.15625-.535156-26.597657 7.261718-7.148437-1.714843-14.6875-.058593-20.460937 4.492188-5.773437 4.546875-9.140625 11.492188-9.140625 18.84375h16c0-4.417969 3.582031-8 8-8zm0 0"/><path d="m415.71875 424.5 26.90625-78.65625-60.617188-16.253906-2.695312 14.910156h12.6875c3.441406.003906 6.496094 2.207031 7.585938 5.472656l8 24-15.203126 5.054688-6.152343-18.527344h-9.804688l-11.570312 64h-68.511719l3.601562-82.753906-5.746093 1.441406-6.613281 19.839844c-.796876 2.390625-2.667969 4.265625-5.058594 5.066406l-24 8-5.054688-15.203125 20.199219-6.734375 6.742187-20.199219c.859376-2.582031 2.96875-4.554687 5.601563-5.234375l14.609375-3.664062 3.023438-68.558594h-127.296876l1.039063 24h14.609375c3.03125 0 5.804688 1.710938 7.160156 4.425781l6.800782 13.597657 13.597656 6.808593-7.152344 14.320313-16-8c-1.550781-.773438-2.808594-2.03125-3.582031-3.585938l-5.769531-11.566406h-8.964844l5.597656 128h-71.6875v-35.039062l-10.59375 2.117187-6.207031 12.496094-14.320313-7.148438 8-16c1.109375-2.210937 3.175782-3.785156 5.601563-4.265625l17.597656-3.519531v-44.640625h-63.484375l1.710938 24h13.695312c3.03125 0 5.804688 1.710938 7.160156 4.425781l8 16-14.320312 7.148438-5.785156-11.574219h-7.605469l4 56h-55.449219v16h480v-16zm0 0"/></svg>
