<svg id="icon" height="448pt" viewBox="0 0 448 448.88736" width="448pt" xmlns="http://www.w3.org/2000/svg"><path d="m88.445312 48.855469c-4.417968 0-8-3.582031-8-8 0-13.253907-10.746093-24-24-24-13.257812 0-24 10.746093-24 24 .117188.5.171876 1.007812.160157 1.519531 0 2.628906-1.289063 5.089844-3.449219 6.582031-2.160156 1.496094-4.917969 1.835938-7.375.90625-4.882812-1.78125-10.332031-1.0625-14.582031 1.925781-4.253907 2.988282-6.777344 7.867188-6.753907 13.066407h104c0-8.835938-7.164062-16-16-16zm0 0"/><path d="m298.941406 0c23.054688 23.253906 41.09375 50.996094 52.992188 81.503906 23.304687 3.679688 40.480468 23.757813 40.511718 47.351563 0 4.417969-3.582031 8-8 8h-18.351562c1.484375 10.605469 2.269531 21.292969 2.351562 32-.039062 72.335937-32.679687 140.800781-88.859374 186.367187-56.179688 45.566406-129.90625 63.378906-200.695313 48.488282 70.472656 51.886718 164.140625 59.703124 242.238281 20.214843 78.09375-39.488281 127.328125-119.558593 127.316406-207.070312-.328124-96.207031-59.707031-182.332031-149.503906-216.855469zm0 0"/><path d="m375.429688 120.855469c-3.664063-14.121094-16.398438-23.984375-30.984376-24-7.105468.03125-13.992187 2.449219-19.554687 6.871093-2.277344 1.777344-5.339844 2.1875-8.003906 1.070313-2.667969-1.113281-4.523438-3.582031-4.859375-6.453125-3.304688-27.359375-26.027344-48.246094-53.570313-49.242188-27.542969-1-51.714843 18.191407-56.988281 45.242188-.464844 2.4375-2.035156 4.519531-4.246094 5.636719-2.214844 1.121093-4.820312 1.152343-7.058594.082031-8.597656-4.203125-18.632812-4.300781-27.3125-.265625-8.675781 4.039063-15.066406 11.777344-17.390624 21.058594zm0 0"/><path d="m144.445312 168.855469c-7.117187.011719-13.859374 3.1875-18.402343 8.664062-7.148438-1.714843-14.6875-.058593-20.457031 4.492188-5.773438 4.550781-9.140626 11.492187-9.140626 18.84375h16c-.003906-2.957031 1.628907-5.671875 4.238282-7.0625s5.769531-1.226563 8.222656.421875c2.058594 1.378906 4.636719 1.726562 6.980469.941406 2.347656-.78125 4.203125-2.605469 5.019531-4.941406 1.304688-3.65625 5.046875-5.851563 8.878906-5.203125 3.828125.652343 6.636719 3.960937 6.660156 7.84375h16c0-13.253907-10.746093-24-24-24zm0 0"/><path d="m231.429688 312.855469c-3.664063-14.121094-16.398438-23.984375-30.984376-24-7.105468.03125-13.992187 2.449219-19.554687 6.871093-2.277344 1.777344-5.339844 2.1875-8.003906 1.070313-2.667969-1.113281-4.523438-3.582031-4.859375-6.453125-3.304688-27.359375-26.027344-48.246094-53.570313-49.242188-27.542969-1-51.714843 18.191407-56.988281 45.242188-.464844 2.4375-2.035156 4.519531-4.246094 5.636719-2.214844 1.121093-4.820312 1.152343-7.058594.082031-8.597656-4.203125-18.632812-4.300781-27.3125-.265625-8.675781 4.039063-15.066406 11.777344-17.390624 21.058594zm0 0"/></svg>
