<svg id="icon" height="448pt" viewBox="0 -16 448 448" width="448pt" xmlns="http://www.w3.org/2000/svg"><path d="m160 416c2.265625 0 4.511719-.089844 6.761719-.183594-21.34375-13.261718-38.988281-31.699218-51.304688-53.601562-29.640625-21.136719-51.457031-49.765625-51.457031-82.214844 0-4.417969 3.582031-8 8-8h16.632812c-.375-5.449219-.632812-10.792969-.632812-16 .023438-9.460938.636719-18.910156 1.832031-28.296875-14.109375-16.0625-19.265625-38.105469-13.742187-58.757813 1.140625-4.269531 5.53125-6.800781 9.796875-5.65625l20 5.359376c12.332031-29.890626 33.644531-55.207032 60.992187-72.457032-2.269531-.101562-4.566406-.191406-6.878906-.191406-88.367188 0-160 71.632812-160 160s71.632812 160 160 160zm0 0"/><path d="m121.542969 172.839844 72.527343 19.433594c4.269532 1.140624 6.800782 5.53125 5.65625 9.796874-5.183593 19.503907-19.277343 35.40625-38.015624 42.898438-18.734376 7.492188-39.910157 5.691406-57.109376-4.855469-.386718 5.238281-.601562 10.535157-.601562 15.886719 0 5.183594.273438 10.519531.671875 16h238.65625c.398437-5.480469.671875-10.816406.671875-16 0-5.351562-.214844-10.648438-.601562-15.886719-17.203126 10.53125-38.371094 12.320313-57.101563 4.832031-18.730469-7.492187-32.824219-23.382812-38.023437-42.875-1.144532-4.265624 1.386718-8.65625 5.65625-9.796874l72.519531-19.433594c-17.105469-37.375-44.800781-63.824219-76.984375-73.152344l-1.082032-.304688c-.605468-.175781-1.222656-.359374-1.871093-.488281-3.761719-.957031-7.582031-1.6875-11.433594-2.183593-11.082031-1.371094-22.324219-.6875-33.15625 2.015624-1.378906.363282-2.25.59375-3.082031.867188-.28125.09375-.570313.175781-.863282.238281-31.976562 9.449219-59.449218 35.816407-76.433593 73.007813zm0 0"/><path d="m224 400c-25.535156-.8125-50.628906-6.875-73.71875-17.808594 18.839844 20.980469 45.527344 33.21875 73.71875 33.808594 8.605469 0 17.164062-1.238281 25.414062-3.671875h.050782c17.519531-5.355469 33.40625-15.039063 46.191406-28.160156-22.675781 9.746093-46.988281 15.117187-71.65625 15.832031zm0 0"/><path d="m288 96c-2.335938 0-4.664062.050781-6.984375.152344 27.339844 17.285156 48.644531 42.621094 60.984375 72.519531l20.113281-5.382813c4.265625-1.144531 8.65625 1.386719 9.796875 5.65625 5.523438 20.652344.367188 42.695313-13.742187 58.757813 1.195312 9.386719 1.808593 18.835937 1.832031 28.296875 0 5.207031-.257812 10.550781-.632812 16h24.632812c4.417969 0 8 3.582031 8 8 0 34.144531-27.03125 64.953125-62.296875 86.808594-12.140625 19.964844-28.839844 36.769531-48.726563 49.039062 2.335938.101563 4.675782.152344 7.023438.152344 88.367188 0 160-71.632812 160-160s-71.632812-160-160-160zm0 0"/><path d="m216.503906 80.289062c7.660156-.582031 15.359375-.285156 22.953125.878907.183594 0 .367188 0 .542969.0625v-81.230469h-32v81.214844c.535156-.078125 1.0625-.109375 1.601562-.183594 1.65625-.230469 3.300782-.40625 4.933594-.558594.664063-.058594 1.3125-.144531 1.96875-.183594zm0 0"/><path d="m266.441406 205.488281c9.738282 21.3125 33.445313 32.476563 56.078125 26.410157 22.636719-6.066407 37.582031-27.585938 35.359375-50.914063zm0 0"/><path d="m292.183594 288h-8.367188l4.183594 10.464844zm0 0"/><path d="m181.601562 205.488281-91.441406-24.503906c-2.222656 23.328125 12.726563 44.847656 35.359375 50.914063 22.632813 6.066406 46.339844-5.097657 56.082031-26.410157zm0 0"/><path d="m164.183594 288h-8.367188l4.183594 10.464844zm0 0"/><path d="m224 384c55.839844 0 143.199219-43.199219 151.375-96h-65.960938l-13.980468 34.976562c-1.214844 3.042969-4.160156 5.039063-7.433594 5.039063s-6.21875-1.996094-7.433594-5.039063l-13.980468-34.976562h-85.171876l-13.980468 34.976562c-1.214844 3.042969-4.160156 5.039063-7.433594 5.039063s-6.21875-1.996094-7.433594-5.039063l-13.980468-34.976562h-58.027344c7.546875 53.671875 89.242187 96 143.441406 96zm0 0"/></svg>
