<svg id="icon" height="447pt" viewBox="0 0 447 447.98926" width="447pt" xmlns="http://www.w3.org/2000/svg"><path d="m267.703125 271.238281 46.527344 23.878907c5.269531-5.96875 9.933593-12.449219 13.921875-19.34375zm0 0"/><path d="m302.277344 306.972656-75.621094-38.816406-104.953125-7.878906 137.289063 70.542968c15.929687-4.855468 30.671874-12.976562 43.285156-23.847656zm0 0"/><path d="m312.253906 319.988281h-.542968c-3.535157 2.996094-7.21875 5.804688-11.039063 8.425781l38.902344-5.601562c-8.988281-1.859375-18.140625-2.804688-27.320313-2.824219zm0 0"/><path d="m224.253906 335.988281c3.007813 0 5.960938-.230469 8.914063-.445312l-111.210938-57.152344c21.726563 35.722656 60.488281 57.546875 102.296875 57.597656zm0 0"/><path d="m208.152344 60.789062 54.398437-54.398437c-48.085937-16.414063-101.289062-.539063-132.519531 39.535156zm0 0"/><path d="m108.253906 89.78125 236 44.9375v-14.730469c-.042968-5.789062-.507812-11.570312-1.390625-17.296875l-222.609375-42.34375c-5.292968 9.234375-9.332031 19.132813-12 29.433594zm0 0"/><path d="m227.160156 64.398438 48.199219 9.191406 35.933594-35.960938c-9.449219-9.996094-20.542969-18.300781-32.796875-24.550781zm0 0"/><path d="m321.542969 50.011719-27.199219 27.203125 44.800781 8.527344c-3.832031-12.808594-9.78125-24.886719-17.601562-35.730469zm0 0"/><path d="m182.351562 345.308594c-16.675781-5.417969-32.148437-14.015625-45.554687-25.320313h-.542969c-36.089844-.074219-70.71875 14.265625-96.191406 39.832031-2.136719 2.128907-4.046875 4.425782-6.015625 6.679688zm0 0"/><path d="m15.773438 392.925781c-.207032.398438-.382813.800781-.589844 1.214844-1.5625 3.03125-2.992188 6.136719-4.3125 9.289063-.441406 1.03125-.847656 2.078124-1.265625 3.128906-1.117188 2.867187-2.136719 5.773437-3.054688 8.71875-.257812.800781-.535156 1.601562-.800781 2.398437-.078125.289063-.136719.59375-.214844.882813l403.800782-57.664063c-.152344-.152343-.28125-.335937-.433594-.488281-.542969-.546875-1.136719-1.039062-1.6875-1.601562-2.800782-2.726563-5.714844-5.332032-8.746094-7.824219-1.0625-.871094-2.148438-1.726563-3.238281-2.574219-2.949219-2.285156-5.988281-4.4375-9.121094-6.464844-.796875-.535156-1.597656-1.113281-2.398437-1.601562-3.566407-2.207032-7.257813-4.183594-11.007813-6.039063l-352 50.28125c-1.71875 2.734375-3.425781 5.488281-4.929687 8.34375zm0 0"/><path d="m421.621094 375.300781-176.796875 25.25 200.398437 27.085938c-4.039062-18.929688-12.085937-36.777344-23.601562-52.335938zm0 0"/><path d="m.496094 447.988281h447.535156c-.082031-1.34375-.273438-2.574219-.394531-3.878906l-260.933594-35.265625-184.800781 26.402344c-.625 4.230468-1.152344 8.488281-1.40625 12.742187zm0 0"/><path d="m344.253906 179.949219v-15.320313l-78.480468 7.472656zm0 0"/><path d="m104.253906 119.988281v3.359375l63.199219-6-62.253906-11.855468c-.609375 4.808593-.925781 9.648437-.945313 14.496093zm0 0"/><path d="m104.253906 155.949219 79.375 7.9375 152.042969-14.511719-111.882813-21.304688-119.535156 11.359376zm0 0"/><path d="m104.253906 215.988281c.019532 9.160157 1.09375 18.289063 3.199219 27.199219l228.203125 17.128906c5.660156-14.09375 8.578125-29.136718 8.597656-44.328125v-20l-240-24zm0 0"/></svg>
