<svg id="icon" height="463pt" viewBox="-111 0 463 463.96414" width="463pt" xmlns="http://www.w3.org/2000/svg"><path d="m224.492188 103.964844c.003906 9.574218-1.316407 19.105468-3.921876 28.320312-4.78125-2.492187-9.726562-4.65625-14.796874-6.480468 1.839843-7.132813 2.753906-14.472657 2.71875-21.839844 0-48.601563-39.398438-88-88-88-48.601563 0-88 39.398437-88 88-.039063 7.367187.875 14.707031 2.71875 21.839844-5.074219 1.824218-10.019532 3.988281-14.800782 6.480468-11.035156-39.054687 1.652344-80.964844 32.5-107.335937 30.847656-26.371094 74.21875-32.390625 111.082032-15.414063 36.863281 16.976563 60.484374 53.84375 60.5 94.429688zm0 0"/><path d="m136.492188 103.964844c0 8.835937-7.164063 16-16 16-8.835938 0-16-7.164063-16-16 0-8.835938 7.164062-16 16-16 8.835937 0 16 7.164062 16 16zm0 0"/><path d="m120.492188 335.964844c3.96875-.027344 7.328124-2.9375 7.917968-6.863282-2.0625-5.347656-4.71875-10.449218-7.917968-15.203124-3.21875 4.746093-5.878907 9.847656-7.921876 15.203124.59375 3.921876 3.953126 6.832032 7.921876 6.863282zm0 0"/><path d="m198.089844 404.605469c-22.058594 17.574219-49.394532 27.210937-77.597656 27.359375h96.671874zm0 0"/><path d="m16.492188 447.964844h208v16h-208zm0 0"/><path d="m80.492188 327.964844c0 22.089844 17.90625 40 40 40 22.089843 0 40-17.910156 40-40 0-15.265625-22.527344-47.082032-40-67.800782-17.472657 20.726563-40 52.550782-40 67.800782zm63.863281-.898438c.109375.558594.152343 1.128906.136719 1.699219 0 13.253906-10.746094 24-24 24-13.253907 0-24-10.746094-24-24-.019532-.554687.023437-1.113281.128906-1.65625 3.9375-11.613281 9.785156-22.488281 17.300781-32.175781 1.574219-2.03125 3.996094-3.21875 6.5625-3.21875s4.988281 1.1875 6.558594 3.21875c7.519531 9.671875 13.371093 20.535156 17.3125 32.132812zm0 0"/><path d="m120.492188 431.964844c-28.207032-.148438-55.539063-9.785156-77.601563-27.359375l-19.070313 27.359375zm0 0"/><path d="m238.53125 167.964844c-9.824219-20.257813-55.558594-40-118.039062-40-62.480469 0-108.214844 19.742187-118.039063 40zm0 0"/><path d="m35.691406 183.964844c-23.082031 26.617187-35.6054685 60.769531-35.199218 96 0 74.992187 53.832031 136 120 136 66.167968 0 120-61.007813 120-136 .40625-35.230469-12.117188-69.382813-35.199219-96zm84.800782 200c-30.910157-.039063-55.960938-25.089844-56-56 0-28.746094 44.917968-79.632813 50.046874-85.34375 1.558594-1.617188 3.707032-2.53125 5.953126-2.53125 2.246093 0 4.394531.914062 5.953124 2.53125 5.125 5.710937 50.046876 56.597656 50.046876 85.34375-.039063 30.910156-25.089844 55.960937-56 56zm0 0"/></svg>
