<svg id="icon" height="448pt" viewBox="0 0 448 448" width="448pt" xmlns="http://www.w3.org/2000/svg"><path d="m199.761719 144c0 17.671875-14.328125 32-32 32-17.675781 0-32-14.328125-32-32s14.324219-32 32-32c17.671875 0 32 14.328125 32 32zm0 0"/><path d="m359.761719 136h16v48h-16zm0 0"/><path d="m103.761719 216c0 66.273438 53.722656 120 120 120 66.273437 0 120-53.726562 120-120v-96c0-66.273438-53.726563-120-120-120-66.277344 0-120 53.726562-120 120zm159.359375 99.039062c-.410156.96875-.976563 1.863282-1.679688 2.640626-2.292968 2.289062-5.746094 2.957031-8.722656 1.679687-.96875-.40625-1.859375-.972656-2.640625-1.679687-.703125-.777344-1.269531-1.671876-1.679687-2.640626-.851563-1.9375-.851563-4.140624 0-6.078124.386718-.980469.957031-1.875 1.679687-2.640626 3.210937-2.960937 8.152344-2.960937 11.363281 0 .703125.777344 1.273438 1.671876 1.679688 2.640626.851562 1.9375.851562 4.140624 0 6.078124zm-1.679688-29.359374c-.777344.730468-1.667968 1.324218-2.640625 1.761718-.96875.382813-2 .570313-3.039062.558594-2.128907.019531-4.175781-.816406-5.683594-2.320312-.703125-.777344-1.269531-1.671876-1.679687-2.640626-.410157-.960937-.625-1.992187-.636719-3.039062.027343-2.117188.855469-4.148438 2.316406-5.679688.394531-.363281.824219-.6875 1.28125-.960937.410156-.316406.867187-.558594 1.359375-.71875.453125-.230469.941406-.394531 1.441406-.480469 2.636719-.539062 5.363282.273438 7.28125 2.160156 1.460938 1.53125 2.289063 3.5625 2.320313 5.679688.019531 2.128906-.816407 4.175781-2.320313 5.679688zm1.679688-34.640626c-.410156.96875-.976563 1.863282-1.679688 2.640626-3.15625 3.09375-8.207031 3.09375-11.363281 0-.703125-.777344-1.269531-1.671876-1.679687-2.640626-.410157-.960937-.625-1.992187-.636719-3.039062 0-4.417969 3.578125-8 8-8 4.417969 0 8 3.582031 8 8-.015625 1.046875-.230469 2.078125-.640625 3.039062zm0-32c-.410156.96875-.976563 1.863282-1.679688 2.640626-3.15625 3.09375-8.207031 3.09375-11.363281 0-.703125-.777344-1.269531-1.671876-1.679687-2.640626-.851563-1.9375-.851563-4.140624 0-6.078124.386718-.980469.957031-1.875 1.679687-2.640626 3.210937-2.960937 8.152344-2.960937 11.363281 0 .703125.777344 1.273438 1.671876 1.679688 2.640626.851562 1.9375.851562 4.140624 0 6.078124zm-14.722656-206.078124c.386718-.980469.957031-1.875 1.679687-2.640626 2.324219-2.230468 5.738281-2.886718 8.722656-1.679687 2.007813.726563 3.59375 2.308594 4.320313 4.320313.410156.960937.625 1.992187.640625 3.039062.035156 2.109375-.804688 4.136719-2.320313 5.601562-1.480468 1.554688-3.535156 2.421876-5.679687 2.398438-2.132813-.042969-4.167969-.902344-5.683594-2.398438-1.515625-1.464843-2.355469-3.492187-2.316406-5.601562.011719-1.046875.226562-2.078125.636719-3.039062zm1.679687 29.359374c.382813-.34375.78125-.664062 1.203125-.960937.445312-.300781.929688-.542969 1.4375-.71875.453125-.230469.941406-.394531 1.441406-.480469 2.632813-.523437 5.359375.285156 7.28125 2.160156 1.460938 1.53125 2.289063 3.5625 2.320313 5.679688.027343 1.050781-.191407 2.089844-.640625 3.039062-.410156.96875-.976563 1.863282-1.679688 2.640626-.796875.703124-1.683594 1.296874-2.640625 1.761718-1.957031.746094-4.121093.746094-6.082031 0-.972656-.4375-1.863281-1.03125-2.640625-1.761718-.703125-.777344-1.269531-1.671876-1.679687-2.640626-.410157-.960937-.625-1.992187-.636719-3.039062.027343-2.117188.855469-4.148438 2.316406-5.679688zm-1.679687 34.640626c.730468-2.011719 2.3125-3.59375 4.320312-4.320313 1.949219-.808594 4.136719-.808594 6.082031 0 2.007813.726563 3.59375 2.308594 4.320313 4.320313.851562 1.9375.851562 4.140624 0 6.078124-.410156.96875-.976563 1.863282-1.679688 2.640626-3.15625 3.09375-8.207031 3.09375-11.363281 0-.703125-.777344-1.269531-1.671876-1.679687-2.640626-.851563-1.9375-.851563-4.140624 0-6.078124zm31.363281 19.039062c26.507812 0 48 21.492188 48 48s-21.492188 48-48 48c-26.511719 0-48-21.492188-48-48 .023437-26.5 21.5-47.972656 48-48zm-80.640625 219.039062c-.410156.96875-.976563 1.863282-1.679688 2.640626-.78125.707031-1.671875 1.273437-2.640625 1.679687-2.976562 1.277344-6.429687.609375-8.722656-1.679687-.703125-.777344-1.269531-1.671876-1.679687-2.640626-.851563-1.9375-.851563-4.140624 0-6.078124.386718-.980469.957031-1.875 1.679687-2.640626 3.210937-2.960937 8.152344-2.960937 11.363281 0 .722656.765626 1.292969 1.660157 1.679688 2.640626.851562 1.9375.851562 4.140624 0 6.078124zm-1.679688-29.359374c-2.289062 2.308593-5.746094 3-8.75 1.753906-3-1.246094-4.949218-4.183594-4.929687-7.433594.027343-2.117188.855469-4.148438 2.316406-5.679688.78125-.707031 1.671875-1.273437 2.640625-1.679687 1.949219-.808594 4.136719-.808594 6.082031 0 .96875.40625 1.859375.972656 2.640625 1.679687.738282.75 1.3125 1.652344 1.679688 2.640626 1.273437 2.976562.609375 6.429687-1.679688 8.71875zm1.679688-34.640626c-.410156.96875-.976563 1.863282-1.679688 2.640626-2.289062 2.308593-5.746094 3-8.75 1.753906-3-1.246094-4.949218-4.183594-4.929687-7.433594 0-4.417969 3.578125-8 8-8 4.417969 0 8 3.582031 8 8 .027343 1.050781-.191407 2.089844-.640625 3.039062zm-1.679688-29.359374c-2.703125 2.6875-6.925781 3.101562-10.09375.980468-3.167968-2.117187-4.402344-6.175781-2.949218-9.699218.386718-.980469.957031-1.875 1.679687-2.640626 3.210937-2.960937 8.152344-2.960937 11.363281 0 .703125.777344 1.273438 1.671876 1.679688 2.640626 1.273437 2.976562.609375 6.429687-1.679688 8.71875zm-13.042968-208.71875c.40625-.96875.976562-1.863282 1.679687-2.640626 3.191406-3.011718 8.175781-3.011718 11.363281 0 .703125.777344 1.273438 1.671876 1.679688 2.640626.410156.960937.625 1.992187.640625 3.039062.035156 2.109375-.804688 4.136719-2.320313 5.601562-1.492187 1.53125-3.542968 2.398438-5.679687 2.398438-2.140625 0-4.191407-.867188-5.683594-2.398438-.71875-.738281-1.289063-1.609374-1.679687-2.5625-.445313-.949218-.667969-1.988281-.636719-3.039062.011719-1.046875.226562-2.078125.636719-3.039062zm1.679687 29.359374c1.894531-1.875 4.59375-2.683593 7.203125-2.160156.527344.074219 1.042969.234375 1.519531.480469.507813.175781.992188.417969 1.4375.71875.421875.296875.820313.617187 1.203125.960937 1.460938 1.53125 2.289063 3.5625 2.320313 5.679688-.015625 1.046875-.230469 2.078125-.640625 3.039062-.410156.96875-.976563 1.863282-1.679688 2.640626-.777344.730468-1.667968 1.324218-2.640625 1.761718-1.957031.746094-4.121093.746094-6.082031 0-.953125-.464844-1.84375-1.058594-2.640625-1.761718-.703125-.777344-1.269531-1.671876-1.679687-2.640626-.410157-.960937-.625-1.992187-.636719-3.039062.011719-2.121094.84375-4.15625 2.316406-5.679688zm-1.679687 34.640626c.730468-2.011719 2.3125-3.59375 4.320312-4.320313 2.984375-1.214844 6.402344-.558594 8.722656 1.679687 1.460938 1.53125 2.289063 3.5625 2.320313 5.679688.027343 2.675781-1.300781 5.1875-3.527344 6.671875s-5.054687 1.742187-7.515625.6875c-.96875-.40625-1.859375-.972656-2.640625-1.679687-.703125-.777344-1.269531-1.671876-1.679687-2.640626-.851563-1.9375-.851563-4.140624 0-6.078124zm-16.636719 19.039062c26.507812 0 48 21.492188 48 48s-21.492188 48-48 48c-26.511719 0-48-21.492188-48-48 .023437-26.5 21.5-47.972656 48-48zm0 0"/><path d="m311.761719 144c0 17.671875-14.328125 32-32 32-17.675781 0-32-14.328125-32-32s14.324219-32 32-32c17.671875 0 32 14.328125 32 32zm0 0"/><path d="m71.761719 136h16v48h-16zm0 0"/><path d="m135.761719 361.761719v44.476562l57.964843-11.574219c-2.621093-6.867187-2.621093-14.460937 0-21.328124zm0 0"/><path d="m239.761719 384c0 8.835938-7.164063 16-16 16-8.839844 0-16-7.164062-16-16s7.160156-16 16-16c8.835937 0 16 7.164062 16 16zm0 0"/><path d="m21.726562 381.992188c-9.507812 14.488281-16.097656 30.691406-19.398437 47.703124-1.183594 6.042969-1.964844 12.15625-2.328125 18.304688h447.535156c-.203125-3.398438-.527344-6.675781-.976562-9.832031-3.183594-24.300781-12.902344-47.277344-28.117188-66.488281-12.929687-16.320313-29.414062-29.472657-48.195312-38.457032-18.25-8.753906-38.242188-13.277344-58.484375-13.222656h-.546875c-24.445313 20.679688-55.433594 32.019531-87.453125 32 7.210937.03125 14.199219 2.523438 19.804687 7.0625l74.59375-14.902344c2.355469-.480468 4.800782.121094 6.660156 1.640625 1.859376 1.519531 2.941407 3.796875 2.941407 6.199219v64c0 2.402344-1.082031 4.679688-2.941407 6.199219-1.859374 1.519531-4.304687 2.121093-6.660156 1.640625l-74.625-14.902344c-11.523437 9.417969-28.089844 9.417969-39.613281 0l-74.5625 14.902344c-2.351563.480468-4.796875-.121094-6.660156-1.640625-1.859375-1.519531-2.941407-3.796875-2.9375-6.199219v-64c-.003907-2.402344 1.078125-4.679688 2.9375-6.199219 1.863281-1.519531 4.308593-2.121093 6.660156-1.640625l74.625 14.902344c5.597656-4.53125 12.574219-7.023438 19.777344-7.0625-32.023438.019531-63.011719-11.320312-87.457031-32h-.542969c-36.089844-.074219-70.71875 14.261719-96.195313 39.824219-6.597656 6.585937-12.476562 13.851562-17.542968 21.679687-.09375.167969-.191407.328125-.296876.488282zm0 0"/><path d="m311.761719 406.238281v-44.476562l-57.96875 11.574219c2.621093 6.867187 2.621093 14.460937 0 21.328124zm0 0"/></svg>
