<svg id="icon" height="456pt" viewBox="-28 0 456 456.0036" width="456pt" xmlns="http://www.w3.org/2000/svg"><path d="m200.03125 8.003906c-9.875-.039062-19.574219 2.585938-28.082031 7.601563l4.722656.398437-1.28125 16-20-1.679687c-7.414063 9.65625-11.40625 21.503906-11.359375 33.679687 0 30.925782 25.070312 56 56 56 30.925781 0 56-25.074218 56-56 0-30.929687-25.074219-56-56-56zm32 88h-8v8h-16v-8h-16v8h-16v-8h-8v-16h8v-8h16v8h16v-8h16v8h8zm0-40c0-4.417968-3.582031-8-8-8s-8 3.582032-8 8h-32c0-4.417968-3.582031-8-8-8s-8 3.582032-8 8h-16c0-13.253906 10.746094-24 24-24s24 10.746094 24 24c0-13.253906 10.746094-24 24-24s24 10.746094 24 24zm0 0"/><path d="m360.03125 32.003906c-.027344 8.824219-7.175781 15.972656-16 16-.617188-.011718-1.230469-.0625-1.839844-.160156l-66.160156 88.160156h-20l73.277344-97.679687c-.828125-2.003907-1.265625-4.152344-1.277344-6.320313 0-8.835937 7.164062-16 16-16s16 7.164063 16 16zm0 0"/><path d="m171.949219 15.605469c-6.457031 3.734375-12.089844 8.742187-16.558594 14.71875l-62.242187-5.199219c-4.109376 5.996094-11.742188 8.476562-18.59375 6.050781-6.855469-2.429687-11.21875-9.164062-10.636719-16.414062s5.96875-13.199219 13.121093-14.5c7.152344-1.304688 14.289063 2.363281 17.390626 8.941406zm0 0"/><path d="m112.03125 261.605469v16.078125l-82.640625-4.878906c-3.964844 6.054687-11.5 8.699218-18.378906 6.441406-6.878907-2.257813-11.382813-8.855469-10.9843752-16.082032.3945312-7.226562 5.5976562-13.289062 12.6796872-14.777343 7.085938-1.492188 14.289063 1.960937 17.5625 8.417969zm0 0"/><path d="m360.03125 352.003906c.019531 6.214844-3.574219 11.878906-9.210938 14.503906-5.632812 2.628907-12.277343 1.746094-17.03125-2.265624l-45.757812 16.640624v-17.039062l40.320312-14.640625c1.609376-7.988281 8.972657-13.492187 17.089844-12.773437 8.121094.71875 14.402344 7.425781 14.589844 15.574218zm0 0"/><path d="m376.03125 136.003906h-100l-21.601562 28.800782-12.800782-9.601563 14.402344-19.199219h-232c-13.253906 0-24 10.746094-24 24s10.746094 24 24 24h80c4.417969 0 8 3.582032 8 8v69.601563l40.480469 2.398437-.960938 16-39.519531-2.320312v154.320312c.039062 13.238282 10.761719 23.960938 24 24h32c13.238281-.039062 23.960938-10.761718 24-24v-96c0-4.417968 3.582031-8 8-8s8 3.582032 8 8v96c.039062 13.238282 10.761719 23.960938 24 24h32c13.238281-.039062 23.960938-10.761718 24-24v-51.121094l-29.28125 10.640626-5.441406-15.039063 34.722656-12.640625v-171.839844c0-4.417968 3.582031-8 8-8h80c13.253906 0 24-10.746094 24-24s-10.746094-24-24-24zm-212.640625 62.480469-10.558594-7.519531-10.402343 13.839844-12.800782-9.601563 10.160156-13.519531-9.4375-6.71875-3.679687 5.4375-13.28125-8.796875 3.917969-6-9.917969-7.121094 9.28125-12.960937 9.519531 6.800781 3.199219-4.71875 13.28125 8.796875-3.441406 5.203125 10.160156 7.277343 4.238281-5.679687 12.800782 9.601563-4 5.359374 10.242187 7.359376zm44.480469 91.121094c-.085938.5-.25.984375-.480469 1.4375-.175781.511719-.417969.996093-.71875 1.441406l-.960937 1.199219c-.777344.707031-1.671876 1.273437-2.640626 1.679687-.949218.449219-1.992187.667969-3.039062.640625-2.117188-.03125-4.148438-.859375-5.679688-2.320312-.34375-.378906-.664062-.78125-.960937-1.199219-.304687-.445313-.546875-.929687-.71875-1.441406-.234375-.453125-.394531-.9375-.480469-1.4375-.09375-.53125-.148437-1.066407-.160156-1.601563.011719-1.046875.230469-2.078125.640625-3.039062.402344-.96875.972656-1.863282 1.679687-2.640625 2.316407-2.238281 5.734376-2.894531 8.71875-1.679688 2.011719.726563 3.59375 2.308594 4.320313 4.320313.410156.960937.628906 1.992187.640625 3.039062-.015625.535156-.066406 1.070313-.160156 1.601563zm0-32c-.085938.5-.25.984375-.480469 1.4375-.160156.492187-.402344.953125-.71875 1.359375-.320313.480468-.640625.882812-.960937 1.28125-2.714844 2.769531-7.011719 3.230468-10.25 1.097656-3.238282-2.128906-4.519532-6.253906-3.050782-9.84375 1.464844-3.589844 5.265625-5.640625 9.070313-4.894531 3.804687.746093 6.550781 4.082031 6.550781 7.960937-.015625.535156-.066406 1.070313-.160156 1.601563zm-2.160156-27.921875c-2.714844 2.769531-7.011719 3.230468-10.25 1.097656-3.238282-2.128906-4.519532-6.253906-3.050782-9.84375 1.464844-3.589844 5.265625-5.640625 9.070313-4.894531 3.804687.746093 6.550781 4.082031 6.550781 7.960937-.03125 2.117188-.859375 4.144532-2.320312 5.679688zm0-32c-2.289063 2.308594-5.746094 3-8.75 1.753906-3-1.246094-4.949219-4.183594-4.929688-7.433594.011719-1.046875.230469-2.078125.640625-3.039062.402344-.96875.972656-1.863282 1.679687-2.640625 3.207032-2.960938 8.152344-2.960938 11.359376 0 .707031.777343 1.273437 1.671875 1.679687 2.640625.410156.960937.628906 1.992187.640625 3.039062-.03125 2.117188-.859375 4.144532-2.320312 5.679688zm0-32c-2.289063 2.308594-5.746094 3-8.75 1.753906-3-1.246094-4.949219-4.183594-4.929688-7.433594.011719-1.046875.230469-2.078125.640625-3.039062.402344-.96875.972656-1.863282 1.679687-2.640625 3.207032-2.960938 8.152344-2.960938 11.359376 0 .707031.777343 1.273437 1.671875 1.679687 2.640625.410156.960937.628906 1.992187.640625 3.039062-.03125 2.117188-.859375 4.144532-2.320312 5.679688zm72 156.640625-11.359376 11.359375-10.320312-10.398438-8.722656 8.71875 6.402344 6.320313-11.359376 11.359375-6.320312-6.398438-6.320312 6.398438-11.359376-11.359375 6.398438-6.320313-6.398438-6.320312 11.359376-11.359375 6.320312 6.398437 8.71875-8.71875-10.398438-10.320312 11.359376-11.359375 10.320312 10.398437 10.320312-10.398437 11.359376 11.359375-10.402344 10.320312zm0 0"/></svg>
