<svg id="icon" height="512" viewBox="0 0 512 512" width="512" xmlns="http://www.w3.org/2000/svg"><path d="m200 144h16v16h-16z"/><path d="m32 256v168a8.011 8.011 0 0 0 8 8h168v-176zm160 88a72 72 0 1 1 -72-72 72.084 72.084 0 0 1 72 72z"/><path d="m168 144h16v16h-16z"/><path d="m224 320h64v48h-64z"/><path d="m80 200v-24h-40a8.011 8.011 0 0 0 -8 8v56h48zm-16 16h-16v-16h16z"/><path d="m104 112h16v48h-16z"/><path d="m232 144h16v16h-16z"/><path d="m96 176h288v16h-288z"/><path d="m264 144h16v16h-16z"/><path d="m120 400a56 56 0 1 0 -56-56 56.063 56.063 0 0 0 56 56zm24-64h16v16h-16zm-32-32h16v16h-16zm0 32h16v16h-16zm0 32h16v16h-16zm-16-32v16h-16v-16z"/><path d="m224 304h64v-48h-64zm16-32h32v16h-32z"/><path d="m224 432h64v-48h-64zm24-32h16v16h-16z"/><path d="m304 256v176h168a8.011 8.011 0 0 0 8-8v-168zm88 160a72 72 0 1 1 72-72 72.084 72.084 0 0 1 -72 72z"/><path d="m304 224h16v16h32v-16h16v16h16v-32h-288v32h16v-16h16v16h32v-16h16v16h32v-16h16v16h32v-16h16v16h24 8z"/><path d="m440 232a16.012 16.012 0 0 0 -13.852 8h27.7a16.012 16.012 0 0 0 -13.848-8z"/><path d="m408 96v-8a8.011 8.011 0 0 0 -8-8h-288a8.011 8.011 0 0 0 -8 8v8z"/><path d="m472 176h-72v64h9.136a31.971 31.971 0 0 1 30.864-24c.747 0 1.446.169 2.18.22l6.226-18.743a8 8 0 1 1 15.188 5.046l-6.206 18.683a32 32 0 0 1 13.476 18.794h9.136v-56a8.011 8.011 0 0 0 -8-8z"/><path d="m392 288a56 56 0 1 0 56 56 56.063 56.063 0 0 0 -56-56zm-24 64h-16v-16h16zm32 32h-16v-16h16zm0-32h-16v-16h16zm0-32h-16v-16h16zm32 32h-16v-16h16z"/><path d="m296 152h16v8h-16z"/><path d="m328 144h16v16h-16z"/><path d="m392 112h16v48h-16z"/></svg>
