<svg id="icon" height="512" viewBox="0 0 512 512" width="512" xmlns="http://www.w3.org/2000/svg"><path d="m208 392h80v-112h-80zm48-96h16v16h-16zm0 32h16v16h-16zm0 32h16v16h-16zm-32-64h16v16h-16zm0 32h16v16h-16zm0 32h16v16h-16z"/><path d="m183.999 456.001h80.001v24h-80.001z"/><path d="m188.943 200.001 16 32h78.113l-16-32z"/><path d="m264 96h-80v88h80zm-48 72h-16v-16h16zm0-32h-16v-16h16zm32 32h-16v-16h16zm0-32h-16v-16h16z"/><path d="m204.943 408-16 32h78.113l16-32zm51.057 24h-40v-16h40z"/><path d="m280 190.112 23.155 46.311a7.974 7.974 0 0 1 .83 3.578h.015v159.999h-.015a7.974 7.974 0 0 1 -.83 3.578l-23.155 46.312v30.11h40v-384h-40z"/><path d="m296 56h16v24h-16z"/><path d="m296 24h16v16h-16z"/><path d="m336 96h16v384.001h-16z"/><path d="m207.999 248.001h80.001v16h-80.001z"/><path d="m175.864 32.008-.038-16a72.113 72.113 0 0 0 -71.826 71.992h16a56.087 56.087 0 0 1 55.864-55.992z"/><path d="m136 88h16a24.036 24.036 0 0 1 23.943-23.992l-.039-16a40.063 40.063 0 0 0 -39.904 39.992z"/><path d="m384 464.001h16v16h-16z"/><path d="m384 432.001h16v16h-16z"/><path d="m384 384.001h16v32h-16z"/></svg>
