<svg id="icon" height="512" viewBox="0 0 512 512" width="512" xmlns="http://www.w3.org/2000/svg"><circle cx="368" cy="344" r="8"/><path d="m120 256h272a8.008 8.008 0 0 0 8-8v-208a8.008 8.008 0 0 0 -8-8h-272a8.008 8.008 0 0 0 -8 8v208a8.008 8.008 0 0 0 8 8zm8-168a40.047 40.047 0 0 1 40-40h176a40.047 40.047 0 0 1 40 40v112a40.047 40.047 0 0 1 -40 40h-176a40.047 40.047 0 0 1 -40-40z"/><path d="m136 336h112v16h-112z"/><path d="m292.688 288 16-16h-105.375l16 16z"/><path d="m104 304v80h304v-80zm160 56a8 8 0 0 1 -8 8h-128a8 8 0 0 1 -8-8v-32a8 8 0 0 1 8-8h128a8 8 0 0 1 8 8zm104-40a24 24 0 1 1 -24 24 24.027 24.027 0 0 1 24-24zm-40 24a24 24 0 1 1 -24-24 24.027 24.027 0 0 1 24 24z"/><path d="m168 224h176a24.027 24.027 0 0 0 24-24v-112a24.027 24.027 0 0 0 -24-24h-176a24.027 24.027 0 0 0 -24 24v112a24.027 24.027 0 0 0 24 24zm168-48h16v16h-16zm-32 0h16v16h-16zm-32 0h16v16h-16zm-24-80h16v16h-16zm-32 0h16v16h-16zm-32 0h16v16h-16z"/><path d="m448 432a16.019 16.019 0 0 0 -16 16v16a16 16 0 0 0 32 0v-16a16.019 16.019 0 0 0 -16-16zm8 32h-16v-16h16z"/><path d="m112 480h272v-48h-272zm240-32h16v16h-16zm-32 0h16v16h-16zm-32 0h16v16h-16zm-32 0h16v16h-16zm-32 0h16v16h-16zm-32 0h16v16h-16zm-32 0h16v16h-16zm-32 0h16v16h-16z"/><circle cx="304" cy="344" r="8"/><path d="m32 440v-80a8.008 8.008 0 0 1 8-8h48v-16h-48a24.027 24.027 0 0 0 -24 24v80a24.027 24.027 0 0 0 24 24h56v-16h-56a8.008 8.008 0 0 1 -8-8z"/><path d="m472 336h-48v16h48a8.008 8.008 0 0 1 8 8v24a8.008 8.008 0 0 1 -8 8h-8a24.027 24.027 0 0 0 -24 24v8h16v-8a8.008 8.008 0 0 1 8-8h8a24.027 24.027 0 0 0 24-24v-24a24.027 24.027 0 0 0 -24-24z"/></svg>
