<svg id="icon" height="512" viewBox="0 0 512 512" width="512" xmlns="http://www.w3.org/2000/svg"><path d="m104 280a32 32 0 1 0 32 32 32.037 32.037 0 0 0 -32-32zm0 48a16 16 0 1 1 16-16 16.019 16.019 0 0 1 -16 16z"/><path d="m108 256a59.387 59.387 0 0 0 -47.877 23.94l-.02.06h8.158a47.974 47.974 0 0 1 83.739 32h15.853a59.987 59.987 0 0 0 -59.853-56z"/><path d="m34.451 298.3c-.051.052-.1.1-.154.154a7.655 7.655 0 0 0 -2.297 5.546 8.009 8.009 0 0 0 8 8h16a47.774 47.774 0 0 1 2.752-16h-18.752a7.657 7.657 0 0 0 -5.549 2.3z"/><path d="m380.781 216h26.748a135.849 135.849 0 0 0 -48.79-26.378 94.845 94.845 0 0 1 22.042 26.378z"/><path d="m298.333 184h-2.333v32h65.771a78.332 78.332 0 0 0 -63.438-32z"/><path d="m176 232h-48a72.052 72.052 0 0 0 -36.283 9.732 77.114 77.114 0 0 1 16.283-1.732 76.007 76.007 0 0 1 75.892 72h96.108v-80zm56 16h32v16h-32z"/><path d="m195.657 208.937-4.709 7.063h89.052v-32h-37.748a55.886 55.886 0 0 0 -46.595 24.937z"/><path d="m437.264 274.819a64 64 0 0 0 -108.755 37.181h15.491a48 48 0 0 1 96 0h15.48a62.307 62.307 0 0 0 -6.141-20.395 62.968 62.968 0 0 0 -12.075-16.786z"/><path d="m392 280a32 32 0 1 0 32 32 32.037 32.037 0 0 0 -32-32zm0 48a16 16 0 1 1 16-16 16.019 16.019 0 0 1 -16 16z"/><path d="m472 296h-1.9a152 152 0 0 1 1.691 16h.209a7.651 7.651 0 0 0 5.545-2.3l.154-.154a7.658 7.658 0 0 0 2.301-5.546 8.009 8.009 0 0 0 -8-8z"/><path d="m392 240a79.157 79.157 0 0 1 47.975 16 136.546 136.546 0 0 0 -16.37-24h-127.605v80h16.393a80.148 80.148 0 0 1 79.607-72z"/></svg>
