<svg id="icon" height="512" viewBox="0 0 512 512" width="512" xmlns="http://www.w3.org/2000/svg"><path d="m192 256h-160v-40h156.29.024.026 3.66zm-80-96a71.7 71.7 0 0 1 64.5 40h-129.007a71.7 71.7 0 0 1 64.507-40zm-.559 319.44a7.354 7.354 0 0 1 -7.441-7.4l.68-152.351c2.423.2 4.864.315 7.32.315 2.483 0 5.009-.129 7.56-.352l-.683 152.348a7.448 7.448 0 0 1 -7.44 7.438zm14.659-176.821a73.606 73.606 0 0 1 -27.842.089 72.068 72.068 0 0 1 -46.104-30.708h119.676a71.733 71.733 0 0 1 -45.73 30.619z"/><path d="m336.65 142.886a98.588 98.588 0 0 0 -95.056-10.411 120.084 120.084 0 0 0 5.792 60.992l5.087-6.539a115.2 115.2 0 0 1 84.177-44.042z"/><path d="m343.546 158.717a99.1 99.1 0 0 0 -78.446 38.034l-10.2 13.114a120.63 120.63 0 0 0 66.9 55.9 114.544 114.544 0 0 1 21.746-107.048zm-41.046 70.576a8 8 0 0 1 -11.292.7 104.227 104.227 0 0 1 -21.293-25.993 8 8 0 0 1 13.85-8.012 88.2 88.2 0 0 0 18.027 22.012 8 8 0 0 1 .708 11.293z"/><path d="m376.446 145.28a99.1 99.1 0 0 0 78.447-38.036l10.2-13.113a120.626 120.626 0 0 0 -66.9-55.9 114.544 114.544 0 0 1 -21.747 107.049zm41.054-70.58a8 8 0 0 1 11.29-.7 104.171 104.171 0 0 1 21.288 25.992 8 8 0 1 1 -13.849 8.008 88.229 88.229 0 0 0 -18.029-22 8 8 0 0 1 -.7-11.3z"/><path d="m369.108 128.65a98.585 98.585 0 0 0 10.411-95.056 120.1 120.1 0 0 0 -60.991 5.793l6.538 5.085a115.2 115.2 0 0 1 44.042 84.178z"/><path d="m353.279 135.548a99.1 99.1 0 0 0 -38.035-78.448l-13.114-10.2a120.632 120.632 0 0 0 -55.9 66.905 114.541 114.541 0 0 1 107.049 21.743zm-62.619-61.066a104.9 104.9 0 0 1 11.825-9.148 8 8 0 0 1 8.858 13.325 88.685 88.685 0 0 0 -10.011 7.741 8 8 0 1 1 -10.672-11.918z"/><path d="m472.608 110.528-5.087 6.539a115.2 115.2 0 0 1 -84.178 44.042 98.59 98.59 0 0 0 95.057 10.411 120.084 120.084 0 0 0 -5.792-60.992z"/><path d="m366.716 168.434a99.1 99.1 0 0 0 38.034 78.459l13.114 10.2a120.633 120.633 0 0 0 55.9-66.9 114.465 114.465 0 0 1 -107.047-21.761zm71.284 52.356a104.189 104.189 0 0 1 -26 21.289 8 8 0 0 1 -8.012-13.85 88.221 88.221 0 0 0 22.012-18.029 8 8 0 1 1 12 10.588z"/><path d="m352 287.756v184.8a7.362 7.362 0 0 0 7.44 7.441 7.449 7.449 0 0 0 7.44-7.441v-184.731q-3.421.175-6.88.175c-2.689 0-5.355-.089-8-.244z"/><path d="m350.886 175.343a98.594 98.594 0 0 0 -10.412 95.057c1.427.235 2.859.453 4.3.636l.108.012a120.279 120.279 0 0 0 28.9.152c.144-.02.287-.038.433-.05a119.011 119.011 0 0 0 27.246-6.542l-6.538-5.086a115.2 115.2 0 0 1 -44.037-84.179z"/></svg>
