<svg id="icon" height="512" viewBox="0 0 512 512" width="512" xmlns="http://www.w3.org/2000/svg"><path d="m432 432a15.946 15.946 0 0 0 13.775-8h-13.775a8 8 0 0 1 0-16h13.775a15.97 15.97 0 1 0 -13.775 24z"/><path d="m392 120h32v16h-32z"/><path d="m32 456a8.011 8.011 0 0 0 8 8h328v-176h-336zm312-152h16v16h-16zm0 32h16v16h-16zm0 32h16v16h-16zm0 32h16v16h-16zm0 32h16v16h-16zm-32-128h16v16h-16zm0 32h16v16h-16zm0 32h16v16h-16zm0 32h16v16h-16zm0 32h16v16h-16zm-32-128h16v16h-16zm0 32h16v16h-16zm0 32h16v16h-16zm0 32h16v16h-16zm0 32h16v16h-16zm-32-128h16v16h-16zm0 32h16v16h-16zm0 32h16v16h-16zm0 32h16v16h-16zm0 32h16v16h-16zm-32-128h16v16h-16zm0 32h16v16h-16zm0 32h16v16h-16zm0 32h16v16h-16zm0 32h16v16h-16zm-32-128h16v16h-16zm0 32h16v16h-16zm0 32h16v16h-16zm0 32h16v16h-16zm0 32h16v16h-16zm-32-128h16v16h-16zm0 32h16v16h-16zm0 32h16v16h-16zm0 32h16v16h-16zm0 32h16v16h-16zm-32-128h16v16h-16zm0 32h16v16h-16zm0 32h16v16h-16zm0 32h16v16h-16zm0 32h16v16h-16zm-32-128h16v16h-16zm0 32h16v16h-16zm0 32h16v16h-16zm0 32h16v16h-16zm0 32h16v16h-16zm-32-128h16v16h-16zm0 32h16v16h-16zm0 32h16v16h-16zm0 32h16v16h-16zm0 32h16v16h-16z"/><path d="m384 464h88a8.011 8.011 0 0 0 8-8v-168h-96zm48-160a32 32 0 1 1 -32 32 32.036 32.036 0 0 1 32-32zm0 80a32 32 0 1 1 -32 32 32.036 32.036 0 0 1 32-32z"/><path d="m432 352a16.016 16.016 0 0 0 16-16 15.8 15.8 0 0 0 -.6-4.091l-9.748 9.747a8 8 0 0 1 -11.312-11.312l9.747-9.748a15.8 15.8 0 0 0 -4.087-.596 16 16 0 0 0 0 32z"/><path d="m312 120h32v16h-32z"/><path d="m90.918 133.677 374.867-85.877a8 8 0 0 0 -3.57-15.594l-373.083 85.469a12.055 12.055 0 0 0 -22.394 6.235v12.09h24.18z"/><path d="m472 152h-432a8.011 8.011 0 0 0 -8 8v112h448v-112a8.011 8.011 0 0 0 -8-8zm-32 88h-48v-16h-16v16h-48v-16h-16v16h-48v-16h-16v16h-48v-16h-16v16h-48v-16h-16v16h-48v-56h48v16h16v-16h48v16h16v-16h16v24a8 8 0 0 0 16 0v-24h16v16h16v-16h48v16h16v-16h48v16h16v-16h48z"/><path d="m88 200h16v24h-16z"/><path d="m152 200h16v24h-16z"/><path d="m280 200h16v24h-16z"/><path d="m344 200h16v24h-16z"/><path d="m408 200h16v24h-16z"/></svg>
