<svg id="icon" height="512" viewBox="0 0 512 512" width="512" xmlns="http://www.w3.org/2000/svg"><path d="m248 312h24v24h-24z"/><path d="m64 400h136v-288h-136v16h112a8 8 0 0 1 8 8v240a8 8 0 0 1 -8 8h-112z"/><path d="m56 416h224v16h-224z"/><path d="m128 448h80v32h-80z"/><path d="m64 352v16h104v-224h-104v192h56v16zm72-16h16v16h-16z"/><path d="m216 384h56v16h-56z"/><path d="m56 80h224v16h-224z"/><path d="m128 32h80v32h-80z"/><path d="m216 112h56v16h-56z"/><path d="m392 176h24v24h-24z"/><path d="m320 312h24v24h-24z"/><path d="m320 176h24v24h-24z"/><path d="m216 144v224h154.234l22.176-66.531a8 8 0 0 1 7.59-5.469h48v-152zm72 200a8 8 0 0 1 -8 8h-40a8 8 0 0 1 -8-8v-40a8 8 0 0 1 8-8h40a8 8 0 0 1 8 8zm0-136a8 8 0 0 1 -8 8h-40a8 8 0 0 1 -8-8v-40a8 8 0 0 1 8-8h40a8 8 0 0 1 8 8zm72 136a8 8 0 0 1 -8 8h-40a8 8 0 0 1 -8-8v-40a8 8 0 0 1 8-8h40a8 8 0 0 1 8 8zm0-136a8 8 0 0 1 -8 8h-40a8 8 0 0 1 -8-8v-40a8 8 0 0 1 8-8h40a8 8 0 0 1 8 8zm72 0a8 8 0 0 1 -8 8h-40a8 8 0 0 1 -8-8v-40a8 8 0 0 1 8-8h40a8 8 0 0 1 8 8z"/><path d="m248 176h24v24h-24z"/><path d="m328 96h16v16h-16z"/><path d="m360 96h16v16h-16z"/><path d="m392 96h48v16h-48z"/></svg>
