<svg id="icon" height="512" viewBox="0 0 512 512" width="512" xmlns="http://www.w3.org/2000/svg"><ellipse cx="280" cy="311.998" rx="24" ry="16"/><path d="m32 440a8.009 8.009 0 0 0 8 8h366.366a7.983 7.983 0 0 0 1.634-.186v-47.814h-376z"/><path d="m256.138 337.664c1.296 7.925 11.695 14.336 23.862 14.336s22.566-6.409 23.862-14.334a48.115 48.115 0 0 1 -47.724 0z"/><path d="m144 312a7.653 7.653 0 0 0 2.3 5.546c.052.051.1.1.155.156a7.655 7.655 0 0 0 5.545 2.298 8.009 8.009 0 0 0 8-8v-64.681a47.468 47.468 0 0 1 -16 0z"/><circle cx="151.999" cy="199.998" r="32"/><path d="m112 324c0 15.44 17.944 28 40 28s40-12.56 40-28c0-8.871-6.137-17.114-16-22.321v10.321a24.027 24.027 0 0 1 -24 24 24.116 24.116 0 0 1 -24-24v-10.323c-9.864 5.208-16 13.451-16 22.323z"/><ellipse cx="376" cy="311.998" rx="24" ry="16"/><path d="m472 264h-184v-40a24.027 24.027 0 0 1 24-24h56a40 40 0 1 0 0-80h-200a24 24 0 0 1 0-48h88a32.036 32.036 0 0 0 32-32v-24h-16v24a16.019 16.019 0 0 1 -16 16h-88a40 40 0 0 0 0 80h200a24 24 0 0 1 0 48h-56a40.045 40.045 0 0 0 -40 40v40h-96v20.214c19.374 7.121 32 22.529 32 39.784 0 24.262-25.121 44-56 44s-56-19.738-56-43.998c0-17.255 12.626-32.663 32-39.784v-20.216h-14.849a8.03 8.03 0 0 0 -6.895 3.944l-68.268 116.056h373.194l63.27-119.61a7.956 7.956 0 0 0 -2.452-.39zm-152 72c0 17.944-17.57 32-40 32s-40-14.056-40-32v-24c0-17.645 17.944-32 40-32s40 14.355 40 32zm96 0c0 17.944-17.57 32-40 32s-40-14.056-40-32v-24c0-17.645 17.944-32 40-32s40 14.355 40 32z"/><path d="m424 393.983v29.808l53.211-100.51a24.092 24.092 0 0 0 2.789-11.229v-23.934z"/><path d="m352.138 337.664c1.296 7.925 11.695 14.336 23.862 14.336s22.566-6.409 23.862-14.334a48.115 48.115 0 0 1 -47.724 0z"/><path d="m288 479.999h16v16h-16z"/><path d="m320 479.999h16v16h-16z"/><path d="m352 479.999h48v16h-48z"/></svg>
