<svg id="icon" height="512" viewBox="0 0 512 512" width="512" xmlns="http://www.w3.org/2000/svg"><path d="m351.889 92.8-33.963 33.964c-.776-.657-1.572-1.283-2.368-1.916a55.128 55.128 0 0 0 -55.158-52.848h-20.4a8 8 0 0 0 -8 8v27.159a95.729 95.729 0 0 0 -37.926 19.6l-33.963-33.959a143.334 143.334 0 0 1 191.778 0zm-72.584 339.2h-46.605l6.092-72.969a153.368 153.368 0 0 0 34.426 0zm-23.305-88a142.823 142.823 0 0 1 -95.889-36.8l33.963-33.964c.776.657 1.572 1.283 2.368 1.916a55.128 55.128 0 0 0 55.158 52.848h20.4a8 8 0 0 0 8-8v-27.159a95.729 95.729 0 0 0 37.926-19.6l33.963 33.959a142.823 142.823 0 0 1 -95.889 36.8zm32-144a32 32 0 1 1 -32-32 32.032 32.032 0 0 1 32 32zm-32 80a79.451 79.451 0 0 1 -43.282-12.822 38.786 38.786 0 0 1 5.18-14.74l4.517-7.54 5.816-5.817a47.015 47.015 0 0 0 35.769 8.2v32.317c-2.632.259-5.3.402-8 .402zm8 15.6v16.4h-12.4a38.923 38.923 0 0 1 -36.645-25.346 95.248 95.248 0 0 0 41.045 9.346c2.7 0 5.355-.186 8-.4zm16-54.089c.5-.29.989-.591 1.476-.9l9.519 5.7 15.6 15.6a79.922 79.922 0 0 1 -26.595 14.399zm-24-121.511a79.451 79.451 0 0 1 43.282 12.822 38.786 38.786 0 0 1 -5.18 14.74l-4.517 7.54-5.816 5.817a47.015 47.015 0 0 0 -35.769-8.2v-32.313c2.632-.263 5.3-.406 8-.406zm-8-15.595v-16.405h12.4a38.919 38.919 0 0 1 36.645 25.346 95.248 95.248 0 0 0 -41.045-9.346c-2.7 0-5.355.186-8 .405zm-16 54.089c-.5.29-.989.591-1.476.9l-9.519-5.7-15.6-15.6a79.922 79.922 0 0 1 26.595-14.404zm-56 41.506a79.451 79.451 0 0 1 12.822-43.282 38.8 38.8 0 0 1 14.741 5.18l7.539 4.517 5.817 5.816a47.015 47.015 0 0 0 -8.2 35.769h-32.313c-.263-2.632-.406-5.3-.406-8zm-15.595 8h-16.405v-12.4a38.919 38.919 0 0 1 25.346-36.645 95.248 95.248 0 0 0 -9.346 41.045c0 2.7.186 5.355.405 8zm54.089 16c.29.5.591.989.9 1.476l-5.7 9.519-15.6 15.6a79.922 79.922 0 0 1 -14.404-26.595zm121.506-24a79.451 79.451 0 0 1 -12.822 43.282 38.786 38.786 0 0 1 -14.74-5.18l-7.54-4.517-5.817-5.816a47.015 47.015 0 0 0 8.2-35.769h32.317c.259 2.632.402 5.3.402 8zm15.6-8h16.4v12.4a38.919 38.919 0 0 1 -25.346 36.645 95.248 95.248 0 0 0 9.346-41.045c0-2.7-.186-5.355-.4-8zm-54.089-16c-.29-.5-.591-.989-.9-1.476l5.7-9.519 15.6-15.6a79.922 79.922 0 0 1 14.399 26.595zm-148.711-71.889 33.964 33.963c-.657.776-1.283 1.572-1.916 2.368a55.128 55.128 0 0 0 -52.848 55.158v20.4a8 8 0 0 0 8 8h27.159a95.729 95.729 0 0 0 19.6 37.926l-33.959 33.963a143.334 143.334 0 0 1 0-191.778zm73.43 252.239c.241.051.476.129.717.179l-6.303 75.471h-18.98a236.452 236.452 0 0 0 24.566-75.65zm121.77 107.65a16.021 16.021 0 0 1 -16 16h-144a16 16 0 0 1 0-32h144a16.021 16.021 0 0 1 16 16zm-29.664-32h-18.98l-6.3-75.471c.242-.051.476-.128.718-.18a236.424 236.424 0 0 0 24.562 75.651zm48.864-136.111-33.964-33.963c.657-.776 1.283-1.572 1.916-2.368a55.126 55.126 0 0 0 52.848-55.158v-20.4a8 8 0 0 0 -8-8h-27.159a95.729 95.729 0 0 0 -19.6-37.926l33.959-33.963a143.334 143.334 0 0 1 0 191.778z"/><path d="m65.633 225.039 15.859-2.078a177.593 177.593 0 0 1 -.828-38.266l-15.937-1.39a193.548 193.548 0 0 0 .906 41.734z"/><path d="m380.453 324.453a177.087 177.087 0 0 1 -32.633 25.747l8.36 13.641a192.743 192.743 0 0 0 82.758-105.411l-15.25-4.86a174.041 174.041 0 0 1 -43.235 70.883z"/><path d="m447.82 208.344a193.448 193.448 0 0 0 -2.726-41.727l-15.766 2.766a176.924 176.924 0 0 1 2.508 38.273z"/><path d="m126.68 58.086q-3.282 2.988-6.446 6.148a190.27 190.27 0 0 0 -44.289 68.993l15 5.546a174.543 174.543 0 0 1 40.6-63.226q2.906-2.907 5.9-5.633l-5.382-5.914 5.39 5.906a175.03 175.03 0 0 1 46.649-30.6l-6.532-14.606a190.944 190.944 0 0 0 -50.89 33.386z"/></svg>
