<svg id="icon" height="512" viewBox="0 0 512 512" width="512" xmlns="http://www.w3.org/2000/svg"><path d="m168 448a104 104 0 1 0 -104-104 104.118 104.118 0 0 0 104 104zm8-16h-16v-16h16zm64-96h16v16h-16zm-80-80h16v16h-16zm8 32a56 56 0 1 1 -56 56 56.065 56.065 0 0 1 56-56zm-88 48h16v16h-16z"/><path d="m32 456a24.027 24.027 0 0 0 24 24h224a24.027 24.027 0 0 0 24-24v-248h-272zm136-232a120 120 0 1 1 -120 120 120.134 120.134 0 0 1 120-120z"/><path d="m280 40h-224a24.027 24.027 0 0 0 -24 24v8h272v-8a24.027 24.027 0 0 0 -24-24z"/><path d="m168 384a40 40 0 1 0 -40-40 40.047 40.047 0 0 0 40 40zm-24-56a8 8 0 0 1 11.578-7.156l32 16a8 8 0 0 1 0 14.312l-32 16a8 8 0 0 1 -11.578-7.156z"/><path d="m376 87.7v-55.4a26.116 26.116 0 0 0 -24 26.122v3.156a26.123 26.123 0 0 0 24 26.122z"/><path d="m160 340.945v6.11l6.109-3.055z"/><path d="m32 192h272v-104h-272zm64-16h-16v-16h16zm176-72h16v16h-16zm-32 0h16v16h-16zm-24 56h72v16h-72zm-91.578.844 11.578-5.789v-27.055a8 8 0 0 1 5.469-7.59l48-16a8 8 0 0 1 10.531 7.59v40a8 8 0 0 1 -4.422 7.156l-16 8a8 8 0 0 1 -7.156-14.312l11.578-5.789v-23.955l-32 10.668v26.232a8 8 0 0 1 -4.422 7.156l-16 8a8 8 0 0 1 -7.156-14.312zm-76.422-56.844h72v16h-72zm0 56h16v16h-16z"/><path d="m408 80v-40a8.008 8.008 0 0 0 -8-8h-8v56h8a8.008 8.008 0 0 0 8-8z"/><path d="m448 215.7v-55.4a26.116 26.116 0 0 0 -24 26.122v3.156a26.123 26.123 0 0 0 24 26.122z"/><path d="m480 208v-40a8.008 8.008 0 0 0 -8-8h-8v56h8a8.008 8.008 0 0 0 8-8z"/><path d="m440 360h-40a16.019 16.019 0 0 1 -16-16v-16h40a32.034 32.034 0 0 0 32-32v-64h-5.578a42.532 42.532 0 0 1 -10.422-1.294v65.294a16.019 16.019 0 0 1 -16 16h-40v-208h-5.578a42.532 42.532 0 0 1 -10.422-1.294v241.294a32.034 32.034 0 0 0 32 32h40a32 32 0 0 1 0 64h-120v16h120a48 48 0 0 0 0-96z"/></svg>
