<svg id="icon" height="512" viewBox="0 0 512 512" width="512" xmlns="http://www.w3.org/2000/svg"><path d="m136 480.727h15.605l13.903-16.555h-29.508z"/><circle cx="280" cy="296" r="8"/><path d="m179.914 320a7.465 7.465 0 1 0 0 14.93h156.621a7.465 7.465 0 0 0 0-14.93z"/><path d="m164.48 230a8 8 0 0 1 7.024-7.941 271.523 271.523 0 0 1 142.441 20.173c-11.815-19.227-22.027-42.695-29.308-69.068-7.111-25.754-10.443-49.914-10.077-71.372l-.4.5a234.635 234.635 0 0 1 -88.828 77.27l-5.4 2.656a64.56 64.56 0 0 0 -35.932 58.102v31.68h20.48z"/><path d="m152 304h72v-8a8.011 8.011 0 0 0 -8-8h-72v8a8.011 8.011 0 0 0 8 8z"/><path d="m359.535 480.727h15.61v-16.555h-29.512z"/><path d="m136 350.93v97.242h239.145v-97.242zm224 25.07v48a8 8 0 0 1 -8 8h-192a8 8 0 0 1 -8-8v-48a8 8 0 0 1 8-8h192a8 8 0 0 1 8 8z"/><path d="m409.863 138.594c-18.195-65.9-53.722-101.059-81.1-101.059a29.674 29.674 0 0 0 -7.9 1.047c-13.812 3.816-23.777 17.98-28.058 39.887-4.735 24.234-2.157 56.351 7.254 90.437 10.482 37.968 26.483 67.585 43.167 86.688.164.16.309.32.458.492 16.177 18.323 32.952 26.785 45.937 23.215 26.512-7.321 40.973-65.601 20.242-140.707z"/><path d="m168 384h176v32h-176z"/></svg>
