<svg id="icon" height="512" viewBox="0 0 512 512" width="512" xmlns="http://www.w3.org/2000/svg"><path d="m360 288h32v16h-32z"/><path d="m256 100.945a40.264 40.264 0 0 1 8.791 1.025l29.021-69.97h-75.624l29.021 69.97a40.264 40.264 0 0 1 8.791-1.025z"/><path d="m296.469 141.414a39.969 39.969 0 0 1 -1.479 10.253l73.01 30.364v-75.523l-72.058 29.692a39.815 39.815 0 0 1 .527 5.214z"/><path d="m215.531 141.414a39.713 39.713 0 0 1 .522-5.159l-72.053-29.946v75.039l72.926-29.948a40.035 40.035 0 0 1 -1.395-9.986z"/><path d="m232.6 108.518-29.171-70.338-53.337 53.334 71.125 29.562a40.566 40.566 0 0 1 11.383-12.558z"/><path d="m104 288h32v16h-32z"/><path d="m361.668 196.726-73.782-30.686a40.594 40.594 0 0 1 -10.271 9.466l30.827 74.443z"/><path d="m262.661 181.213a33.535 33.535 0 0 1 -13.438-.012l-31.035 74.799h75.445z"/><path d="m256 165.887a24.471 24.471 0 1 0 -24.469-24.473 24.5 24.5 0 0 0 24.469 24.473z"/><path d="m223.928 165.814-74.081 30.427 53.583 53.58 30.853-74.37a40.615 40.615 0 0 1 -10.355-9.637z"/><path d="m290.758 121.03 71.29-29.376-53.477-53.474-29.171 70.338a40.584 40.584 0 0 1 11.358 12.512z"/><path d="m376 320h40v32h-40z"/><path d="m184 458.438v21.562h21.562a88.678 88.678 0 0 1 -21.562-21.562z"/><path d="m306.438 480h21.562v-21.562a88.678 88.678 0 0 1 -21.562 21.562z"/><path d="m256 336a72 72 0 1 0 72 72 72.081 72.081 0 0 0 -72-72zm0 136a64 64 0 1 1 64-64 64.073 64.073 0 0 1 -64 64z"/><path d="m416.008 480v-16h-24.008v-16h24.006v-80h-81.72a87.349 87.349 0 0 1 9.714 40v72zm-56.008-32h16v16h-16z"/><circle cx="256" cy="408" r="48"/><path d="m256 320a87.858 87.858 0 0 1 67.829 32h36.171v-32h-56l-13.766-48h-68.468l-13.766 48h-112v32h92.171a87.858 87.858 0 0 1 67.829-32zm72 8h16v16h-16zm-176 16h-40v-16h40z"/><path d="m96 480h72v-16a24 24 0 0 1 0-48v-8a87.349 87.349 0 0 1 9.714-40h-81.714z"/><path d="m168 432a8 8 0 1 0 3.953 14.938 8.27 8.27 0 0 0 3.285-4.072 87.248 87.248 0 0 1 -3.6-9.975 7.789 7.789 0 0 0 -3.638-.891z"/></svg>
