<svg id="icon" height="512" viewBox="0 0 512 512" width="512" xmlns="http://www.w3.org/2000/svg"><path d="m191.914 81.404h32.005v64.004h-32.005z" transform="matrix(.707 -.707 .707 .707 -19.287 180.254)"/><path d="m190.945 141.691-11.314-11.314-45.255 45.255 5.657 5.657 5.658 5.656 11.309-11.312a8 8 0 0 1 11.312 0l5.661 5.656a8.168 8.168 0 0 0 11.308 0 8.007 8.007 0 0 0 0-11.312l-5.656-5.657a8 8 0 0 1 0-11.312z"/><path d="m258.828 214.828a39.837 39.837 0 0 1 12.861 2.282l36.917-25.589-11.145-11.146-54.854 37.964a39.792 39.792 0 0 1 16.221-3.511z"/><path d="m241.855 237.859a24 24 0 0 0 0 33.938c9.071 9.062 24.875 9.062 33.946 0a24 24 0 0 0 -33.946-33.938z"/><path d="m384.249 273.741h32.001v63.999h-32.001z" transform="matrix(.707 -.707 .707 .707 -98.967 372.525)"/><path d="m326.713 367.967 11.312 11.312 45.255-45.255-5.657-5.657-5.658-5.656-11.313 11.312a8 8 0 0 1 -11.312 0l-5.656-5.656a8.19 8.19 0 0 0 -11.313 0 8.009 8.009 0 0 0 0 11.313l5.656 5.656a8 8 0 0 1 0 11.312z"/><path d="m287.113 226.547a39.9 39.9 0 0 1 8.336 12.3l35.72-24.766-11.062-11.059-33.424 23.168c.135.134.297.224.43.357z"/><path d="m287.434 282.719 66.385-46-9.415-9.45-1.7-1.7-44 30.5a39.618 39.618 0 0 1 -11.27 26.65z"/><path d="m72.153 181.29 28.285-28.282a8 8 0 0 1 11.312 0l11.313 11.312 45.255-45.256-11.318-11.314a8 8 0 0 1 0-11.312l28.29-28.289-11.313-11.313a80 80 0 0 0 -113.137 113.141z"/><path d="m258.828 294.828a39.834 39.834 0 0 1 -12.773-2.256l-36.992 25.6 11.121 11.151 54.762-37.95a39.8 39.8 0 0 1 -16.118 3.455z"/><path d="m304.082 345.336 11.318 11.316 5.657-5.66a24.018 24.018 0 0 1 0-33.937c9.062-9.063 24.871-9.063 33.941 0l5.657-5.657-11.315-11.312a8 8 0 0 1 0-11.313l28.284-28.287-12.285-12.286-133.657 92.62 32.8 32.8 28.286-28.288a8.234 8.234 0 0 1 11.314.004z"/><path d="m230.543 283.109a39.9 39.9 0 0 1 -8.349-12.326l-35.756 24.74 11.14 11.141 33.455-23.152c-.154-.149-.333-.251-.49-.403z"/><path d="m445.5 328.367-28.284 28.281a8 8 0 0 1 -11.313 0l-11.313-11.312-45.255 45.256 11.314 11.314a8 8 0 0 1 0 11.313l-28.285 28.288 5.656 5.657a80 80 0 0 0 113.14-113.141z"/><path d="m332.379 396.258-.012-.008-22.625-22.625-.008-.012-11.308-11.308-22.629 22.632 45.258 45.258 22.629-22.632z"/><path d="m106.094 169.977-22.629 22.625 45.258 45.257 22.625-22.632z"/><path d="m230.273 226.875-66.473 46.008 11.141 11.14 44.013-30.45a39.624 39.624 0 0 1 11.319-26.698z"/><path d="m253.172 136.032-28.285 28.288a8 8 0 0 1 -11.313 0l-11.315-11.315-5.657 5.659a24.021 24.021 0 0 1 0 33.938c-9.063 9.062-24.872 9.062-33.942 0l-5.66 5.656 11.313 11.312a8 8 0 0 1 0 11.313l-28.282 28.289 12.234 12.228 133.735-92.544z"/><path d="m58.497 224.204h15.998v15.998h-15.998z" transform="matrix(.707 -.707 .707 .707 -144.716 115.031)"/><path d="m86.78 244.485h15.998v31.999h-15.998z" transform="matrix(.707 -.707 .707 .707 -156.44 143.335)"/><path d="m437.505 263.798h15.998v15.998h-15.998z" transform="matrix(.707 -.707 .707 .707 -61.704 394.626)"/><path d="m465.79 284.088h15.998v31.997h-15.998z" transform="matrix(.707 -.707 .707 .707 -73.423 422.913)"/></svg>
