<?xml version="1.0"?>
<svg xmlns="http://www.w3.org/2000/svg" viewBox="0 0 512 512" width="512" height="512"><g id="solid"><path d="M346.133,79.784a31.622,31.622,0,0,0,13.97-4.29L415.637,256H400.38ZM405.305,272h15.25l24.617,80H429.914ZM440,416a23.731,23.731,0,0,0-8,1.474V368h16v49.474A23.731,23.731,0,0,0,440,416Zm8,24a8,8,0,1,1-8-8A8.005,8.005,0,0,1,448,440ZM344,32a16,16,0,1,1-16,16A16.021,16.021,0,0,1,344,32Zm-8,352h16v32H336ZM64,440a8,8,0,1,1,8,8A8.005,8.005,0,0,1,64,440Zm30.526-8H176v16H94.526a22.447,22.447,0,0,0,0-16ZM72,368a72.276,72.276,0,0,1,67.906,48H75.313L36.594,377.281A71.391,71.391,0,0,1,72,368Zm0,112a40.047,40.047,0,0,1-40-40,39.554,39.554,0,0,1,14.2-30.49l11.056,11.055A24.592,24.592,0,0,0,48,440c0,13.234,9.93,24,22.141,24h33.838A39.94,39.94,0,0,1,72,480Zm120-32V432h96v16Zm160-8a8.005,8.005,0,0,1-8,8H304V432h48Zm5.039-72H336V356.164l64.549-45.158,4.808,15.623ZM440,480a39.986,39.986,0,0,1-24-71.979V440a24,24,0,0,0,48,0V408.021A39.986,39.986,0,0,1,440,480Z"/></g></svg>
