<?xml version="1.0"?>
<svg xmlns="http://www.w3.org/2000/svg" viewBox="0 0 512 512" width="512" height="512"><g id="solid"><path d="M304,208H80V424a40.047,40.047,0,0,0,40,40H264a40.047,40.047,0,0,0,40-40ZM152,240H104a8,8,0,0,1,0-16h48a8,8,0,0,1,0,16ZM288,424a24.027,24.027,0,0,1-24,24H240V432h24a8.008,8.008,0,0,0,8-8V400h16Zm0-40H272V368h16Z"/><path d="M304,161.034a79.6,79.6,0,0,1-17.014-89.572A39.31,39.31,0,0,0,264,64H120a40.047,40.047,0,0,0-40,40v88H304ZM152,168H104a8,8,0,0,1,0-16h48a8,8,0,0,1,0,16Z"/><path d="M320,424a55.806,55.806,0,0,1-16.884,40H312a40.047,40.047,0,0,0,40-40V183.594a79.289,79.289,0,0,1-32-10.419Z"/><path d="M360,40a64,64,0,1,0,64,64A64.073,64.073,0,0,0,360,40Zm40,72H379.314l14.627,14.625a8,8,0,1,1-11.312,11.313L368,123.311V144a8,8,0,0,1-16,0V123.311l-14.629,14.627a8,8,0,0,1-11.312-11.313L340.686,112H320a8,8,0,0,1,0-16h20.686L326.059,81.375a8,8,0,0,1,11.312-11.313L352,84.689V64a8,8,0,0,1,16,0V84.689l14.629-14.627a8,8,0,0,1,11.312,11.313L379.314,96H400a8,8,0,0,1,0,16Z"/></g></svg>
