<svg id="icon" height="512" viewBox="0 0 512 512" width="512" xmlns="http://www.w3.org/2000/svg"><path d="m264 208h16v8h-16z"/><path d="m296 200h16v16h-16z"/><path d="m96.342 201.243c3.579-85.081 73.716-153.243 159.658-153.243a159.809 159.809 0 0 1 159.67 153.239 28.721 28.721 0 0 1 16.154-.157c-3.651-93.849-81.097-169.082-175.824-169.082a175.736 175.736 0 0 0 -175.66 169.03 28.8 28.8 0 0 1 16 .213z"/><path d="m232 200h16v16h-16z"/><path d="m136 240a8.008 8.008 0 0 0 -8-8h-8v64h8a8.008 8.008 0 0 0 8-8z"/><path d="m200 200h16v16h-16z"/><path d="m88 216a16.019 16.019 0 0 0 -16 16v64a16 16 0 0 0 32 0v-64a16.019 16.019 0 0 0 -16-16z"/><path d="m229.766 448-10.668 32h73.804l-10.668-32z"/><path d="m184 232v248h18.233l13.767-41.3v-110.7a8 8 0 0 1 8-8h64a8 8 0 0 1 8 8v110.7l13.767 41.3h18.233v-248zm128 64a8 8 0 0 1 -8 8h-96a8 8 0 0 1 -8-8v-40a8 8 0 0 1 8-8h96a8 8 0 0 1 8 8z"/><path d="m376 240v48a8.008 8.008 0 0 0 8 8h8v-64h-8a8.008 8.008 0 0 0 -8 8z"/><path d="m232 381.464a55.441 55.441 0 0 1 48 0v-21.664a39.2 39.2 0 0 1 -48 0z"/><path d="m278.629 336h-45.258a24 24 0 0 0 45.258 0z"/><path d="m232 424h48v-23.938c-13.836-10.437-34.164-10.437-48 0z"/><path d="m216 264h80v24h-80z"/><path d="m136 464h16v16h-16z"/><path d="m136 432h16v16h-16z"/><path d="m136 384h16v32h-16z"/><path d="m456 360a24.027 24.027 0 0 1 -24-24v-26.226a15.949 15.949 0 0 0 8-13.774v-64a16 16 0 0 0 -32 0v64a15.949 15.949 0 0 0 8 13.774v26.226a40.047 40.047 0 0 0 40 40 24.027 24.027 0 0 1 24 24v24a24.027 24.027 0 0 1 -24 24h-112v16h112a40.047 40.047 0 0 0 40-40v-24a40.047 40.047 0 0 0 -40-40z"/></svg>
