<svg id="icon" xmlns="http://www.w3.org/2000/svg" viewBox="0 0 512 512" width="512" height="512"><g id="solid"><path d="M472,160a8.005,8.005,0,0,0-8,8v32a8,8,0,0,0,16,0V168A8.005,8.005,0,0,0,472,160Z"/><path d="M168,336a8,8,0,0,1-16,0V272H32v16H56a8,8,0,0,1,0,16H32v32a72.079,72.079,0,0,0,72,72h11.672a87.873,87.873,0,0,0,66.992-30.938L248,300.358V251.165l-80,72.382Zm-64-32H88a8,8,0,0,1,0-16h16a8,8,0,0,1,0,16Z"/><path d="M152,248a8.005,8.005,0,0,0-8-8H40a8.005,8.005,0,0,0-8,8v8H152Z"/><path d="M296,212.4V249.81a249.979,249.979,0,0,1,152-57.685V176H421.438A234.06,234.06,0,0,0,296,212.4Z"/><path d="M264,236.7v44.88l1.281-1.5c.366-.429.759-.828,1.127-1.254,2.087-2.415,4.236-4.825,6.488-7.224,1.815-1.946,3.686-3.823,5.555-5.7.527-.528,1.015-1.065,1.549-1.591V223.492c-5.562,4.188-10.883,8.57-15.914,13.125Z"/><path d="M88,200a8,8,0,0,0,16,0c0-16.125-4.812-24.539-9.055-31.969C91.219,161.508,88,155.875,88,144s3.219-17.508,6.945-24.031C99.188,112.539,104,104.125,104,88a8,8,0,0,0-16,0c0,11.875-3.219,17.508-6.945,24.031C76.813,119.461,72,127.875,72,144s4.813,24.539,9.055,31.969C84.781,182.492,88,188.125,88,200Z"/><path d="M48,200a8,8,0,0,0,16,0c0-16.125-4.812-24.539-9.055-31.969C51.219,161.508,48,155.875,48,144s3.219-17.508,6.945-24.031C59.188,112.539,64,104.125,64,88a8,8,0,0,0-16,0c0,11.875-3.219,17.508-6.945,24.031C36.813,119.461,32,127.875,32,144s4.813,24.539,9.055,31.969C44.781,182.492,48,188.125,48,200Z"/><path d="M128,200a8,8,0,0,0,16,0c0-16.125-4.812-24.539-9.055-31.969C131.219,161.508,128,155.875,128,144s3.219-17.508,6.945-24.031C139.188,112.539,144,104.125,144,88a8,8,0,0,0-16,0c0,11.875-3.219,17.508-6.945,24.031C116.813,119.461,112,127.875,112,144s4.813,24.539,9.055,31.969C124.781,182.492,128,188.125,128,200Z"/></g></svg>
