<svg id="icon" height="512" viewBox="0 0 512 512" width="512" xmlns="http://www.w3.org/2000/svg"><path d="m103.998 463.999h160v16h-160z"/><path d="m128 240v16h17.376a23.944 23.944 0 0 1 0-16z"/><path d="m216 368h-64v48h64zm-32 32h-16v-16h16z"/><path d="m288 256v-16h-97.378a23.944 23.944 0 0 1 0 16z"/><circle cx="167.998" cy="247.998" r="8"/><path d="m288 177.687v-.008a181.761 181.761 0 0 0 -6.981-49.679h-159.313a198.617 198.617 0 0 1 6.294 49.687v46.313h160zm-128 6.313h-16v-16h16zm32 0h-16v-16h16zm48 24a32 32 0 1 1 32-32 32.037 32.037 0 0 1 -32 32z"/><path d="m275.792 112a182.638 182.638 0 0 0 -16.141-32h-157.351a198.1 198.1 0 0 1 14.54 32z"/><path d="m240 160a16 16 0 1 0 16 16 16.018 16.018 0 0 0 -16-16z"/><path d="m95.998 31.998h160v32h-160z"/><path d="m288 32h-16v37.616a197.87 197.87 0 0 1 32 108.062v.008 86.314a7.993 7.993 0 0 1 -.51 2.809l-23.49 62.639v150.552h112v-344a104.118 104.118 0 0 0 -104-104zm24 432h-16v-16h16zm64 0h-48v-16h48z"/><path d="m176 272v24a8 8 0 0 1 -16 0v-24h-34.458l-18 48h158.912l18-48zm40 32a8 8 0 1 1 8-8 8 8 0 0 1 -8 8zm32 0a8 8 0 1 1 8-8 8 8 0 0 1 -8 8z"/><path d="m104 448h160v-112h-160zm32-88a8 8 0 0 1 8-8h80a8 8 0 0 1 8 8v64a8 8 0 0 1 -8 8h-80a8 8 0 0 1 -8-8z"/></svg>
