<svg id="icon" height="512" viewBox="0 0 512 512" width="512" xmlns="http://www.w3.org/2000/svg"><path d="m176 240h192v-160h-192zm16-136a8 8 0 0 1 8-8h144a8 8 0 0 1 8 8v112a8 8 0 0 1 -8 8h-144a8 8 0 0 1 -8-8z"/><path d="m216 328v-16h-16v16a8 8 0 0 1 -8 8h-16v16h16a8 8 0 0 1 8 8v16h16v-16a8 8 0 0 1 8-8h16v-16h-16a8 8 0 0 1 -8-8z"/><path d="m128 66.418-14.658 21.982a7.977 7.977 0 0 0 -1.342 4.441v375.842l16-16z"/><path d="m139.366 464a.134.134 0 0 0 -.093.038l-15.738 15.739a.131.131 0 0 0 .092.223h245.69a8.13 8.13 0 0 0 5.749-2.381l13.4-13.395a.131.131 0 0 0 -.092-.224z"/><path d="m207.998 111.996h128v96h-128z"/><path d="m360.422 304.008c-.145-.008-.289-.011-.434-.011a7.99 7.99 0 1 0 .434.011z"/><path d="m392 48h-248v400h88v-16a8 8 0 0 1 16 0v16h16v-16a8 8 0 0 1 16 0v16h16v-16a8 8 0 0 1 16 0v16h88v-392a8.009 8.009 0 0 0 -8-8zm-136 312a8 8 0 0 1 -8 8h-16v16a8 8 0 0 1 -8 8h-32a8 8 0 0 1 -8-8v-16h-16a8 8 0 0 1 -8-8v-32a8 8 0 0 1 8-8h16v-16a8 8 0 0 1 8-8h32a8 8 0 0 1 8 8v16h16a8 8 0 0 1 8 8zm-88-104a8 8 0 0 1 -8-8v-176a8 8 0 0 1 8-8h208a8 8 0 0 1 8 8v176a8 8 0 0 1 -8 8zm136 112a24 24 0 1 1 24-24 24.028 24.028 0 0 1 -24 24zm79.966-54.727a24.031 24.031 0 0 1 -23.953 22.727q-.642 0-1.288-.035a24 24 0 1 1 25.239-22.693z"/><circle cx="303.998" cy="343.997" r="8"/></svg>
