<svg id="icon" enable-background="new 0 0 24 24" height="512" viewBox="0 0 24 24" width="512" xmlns="http://www.w3.org/2000/svg"><path d="m13.25 23.25h-2.5c-1.105 0-2-.895-2-2v-9.5c0-1.105.895-2 2-2h2.5c1.105 0 2 .895 2 2v9.5c0 1.105-.895 2-2 2z" fill="#00bcd4"/><path d="m18.25 7h-.5c-.965 0-1.75-.785-1.75-1.75v-3.5c0-.965.785-1.75 1.75-1.75h.5c.965 0 1.75.785 1.75 1.75v3.5c0 .965-.785 1.75-1.75 1.75zm-.5-5.5c-.138 0-.25.112-.25.25v3.5c0 .138.112.25.25.25h.5c.138 0 .25-.112.25-.25v-3.5c0-.138-.112-.25-.25-.25z"/><path d="m6.25 7h-1.5c-.414 0-.75-.336-.75-.75s.336-.75.75-.75h1.5c.138 0 .25-.112.25-.25v-.75c0-.138-.112-.25-.25-.25h-1.5c-.414 0-.75-.336-.75-.75s.336-.75.75-.75h1.5c.965 0 1.75.785 1.75 1.75v.75c0 .965-.785 1.75-1.75 1.75z"/><path d="m6.25 4.25h-1.5c-.414 0-.75-.336-.75-.75s.336-.75.75-.75h1.5c.138 0 .25-.112.25-.25v-.75c0-.138-.112-.25-.25-.25h-1.5c-.414 0-.75-.336-.75-.75s.336-.75.75-.75h1.5c.965 0 1.75.785 1.75 1.75v.75c0 .965-.785 1.75-1.75 1.75z"/><path d="m13.25 24h-2.5c-1.517 0-2.75-1.233-2.75-2.75v-9.5c0-1.517 1.233-2.75 2.75-2.75h2.5c1.517 0 2.75 1.233 2.75 2.75v9.5c0 1.517-1.233 2.75-2.75 2.75zm-2.5-13.5c-.689 0-1.25.561-1.25 1.25v9.5c0 .689.561 1.25 1.25 1.25h2.5c.689 0 1.25-.561 1.25-1.25v-9.5c0-.689-.561-1.25-1.25-1.25z"/><path d="m12 15c-.414 0-.75-.336-.75-.75v-1.5c0-.414.336-.75.75-.75s.75.336.75.75v1.5c0 .414-.336.75-.75.75z"/><path d="m12 21.25c-.414 0-.75-.336-.75-.75v-2.75c0-.414.336-.75.75-.75s.75.336.75.75v2.75c0 .414-.336.75-.75.75z"/><path d="m5.25 22c-.178 0-.356-.063-.5-.191-2.383-2.131-3.75-5.322-3.75-8.753 0-1.588.295-3.131.876-4.584.154-.385.591-.571.975-.418.385.154.572.59.418.975-.51 1.275-.769 2.63-.769 4.027 0 3.005 1.185 5.788 3.25 7.635.309.276.335.75.059 1.059-.148.166-.353.25-.559.25z"/><path d="m5.25 14h-3.5c-.414 0-.75-.336-.75-.75s.336-.75.75-.75h3.5c.414 0 .75.336.75.75s-.336.75-.75.75z"/><path d="m18.75 22c-.206 0-.411-.084-.56-.25-.276-.309-.25-.783.059-1.059 2.065-1.847 3.25-4.63 3.25-7.635 0-1.397-.259-2.752-.769-4.027-.154-.384.033-.821.418-.975.385-.153.821.033.975.418.582 1.453.877 2.995.877 4.584 0 3.432-1.367 6.622-3.75 8.753-.143.128-.322.191-.5.191z"/><path d="m22.25 14h-3.5c-.414 0-.75-.336-.75-.75s.336-.75.75-.75h3.5c.414 0 .75.336.75.75s-.336.75-.75.75z"/><path d="m12.25 7h-.5c-.965 0-1.75-.785-1.75-1.75v-3.5c0-.965.785-1.75 1.75-1.75h1.5c.414 0 .75.336.75.75s-.336.75-.75.75h-1.5c-.138 0-.25.112-.25.25v1h.75c.965 0 1.75.785 1.75 1.75v.75c0 .965-.785 1.75-1.75 1.75zm-.75-2.75v1c0 .138.112.25.25.25h.5c.138 0 .25-.112.25-.25v-.75c0-.138-.112-.25-.25-.25z"/></svg>
