<svg id="icon" enable-background="new 0 0 24 24" height="512" viewBox="0 0 24 24" width="512" xmlns="http://www.w3.org/2000/svg"><path d="m12 1.75 6.25 2.25-6.25 2.25-6.25-2.25z" fill="#ffc107"/><path d="m5.75 4 6.25 2.25v8l-6.25-2.25z" fill="#ffd54f"/><path d="m18.25 4-6.25 2.25v8l6.25-2.25z" fill="#ffca28"/><path d="m12 7c-.086 0-.172-.015-.254-.044l-6.25-2.25c-.298-.107-.496-.39-.496-.706s.198-.599.496-.706l6.25-2.25c.164-.06.344-.06.508 0l6.25 2.25c.298.107.496.39.496.706s-.198.599-.496.706l-6.25 2.25c-.082.029-.168.044-.254.044zm-4.036-3 4.036 1.453 4.036-1.453-4.036-1.453z"/><path d="m12 15c-.086 0-.172-.015-.254-.044l-6.25-2.25c-.298-.107-.496-.39-.496-.706v-8c0-.414.336-.75.75-.75s.75.336.75.75v7.473l5.5 1.98 5.5-1.98v-7.473c0-.414.336-.75.75-.75s.75.336.75.75v8c0 .316-.198.599-.496.706l-6.25 2.25c-.082.029-.168.044-.254.044z"/><path d="m10.5 22c-.228 0-.453-.104-.601-.3-.249-.332-.181-.802.15-1.05l1.2-.9-1.2-.9c-.331-.249-.398-.719-.15-1.05.25-.331.719-.397 1.05-.15l2 1.5c.188.142.3.364.3.6s-.111.458-.3.6l-2 1.5c-.134.101-.292.15-.449.15z"/><path d="m12 20.5c-1.492 0-2.902-.072-4.192-.214-2.344-.242-7.808-1.07-7.808-3.536 0-1.066 1.015-1.938 3.017-2.593.468-.151.988.22.988.713 0 .356-.245.654-.577.731-1.599.532-1.928 1.041-1.928 1.149 0 .354 1.592 1.542 6.467 2.044 1.241.137 2.596.206 4.033.206.414 0 .75.336.75.75s-.336.75-.75.75z"/><path d="m15.413 20.35c-.386 0-.714-.296-.747-.688-.034-.413.272-.775.685-.81 5.091-.425 7.148-1.66 7.148-2.103 0-.135-.365-.639-1.987-1.167-.394-.128-.609-.552-.481-.946.129-.393.551-.608.946-.481 2.006.655 3.023 1.528 3.023 2.595 0 2.604-5.961 3.383-8.523 3.598-.022.001-.043.002-.064.002z"/><path d="m12 15c-.414 0-.75-.336-.75-.75v-8c0-.414.336-.75.75-.75s.75.336.75.75v8c0 .414-.336.75-.75.75z"/></svg>
