<svg id="icon" enable-background="new 0 0 24 24" height="512" viewBox="0 0 24 24" width="512" xmlns="http://www.w3.org/2000/svg"><path d="m5.35 8.75-2.35 1.88c-1.42 1.13-2.25 2.86-2.25 4.68v7.94h8.25v-1.29c.08-.01.17-.03.25-.06.85-.21 1.55-.79 1.93-1.56l.01-.01c.05-.11.1-.22.14-.33.11-.31.17-.65.17-1v-1.12z" fill="#ffcc80"/><path d="m11.5 16.25v2.5c0 1.565-1.223 2.3-2.5 2.46v2.04h-8v-7z" fill="#ffa726"/><path d="m6 10.016-1.582 1.574c-.908.903-1.424 2.129-1.434 3.41h3.016z" fill="#ffa726"/><path d="m7.75 16.25h13.5c1.105 0 2-.895 2-2v-6.5c0-1.105-.895-2-2-2h-13.5c-1.105 0-2 .895-2 2v6.5c0 1.105.895 2 2 2z" fill="#fff"/><path d="m21.75 13.25h1.5v-7.25h-2.5v6.25c0 .552.448 1 1 1z" fill="#607d8b"/><path d="m19 .75 4.25 1.481-4.25 1.519-4.25-1.519z" fill="#ffc107"/><path d="m14.75 2.25 4.25 1.481v5.519l-4.25-1.519z" fill="#ffd54f"/><path d="m23.25 2.25-4.25 1.481v5.519l4.25-1.519z" fill="#ffca28"/><path d="m10.52 11c0 .61-.23 1.22-.7 1.68l-1.82 1.82c.24.49.36 1.01.36 1.53 0 .79-.27 1.56-.8 2.19l-1.56 1.87v3.16h-5v-7.39l6.34-4.89 1.79-1.66c.2-.18.5-.18.69.01.47.46.7 1.07.7 1.68z" fill="#ffcc80"/><path d="m21.75 17h-13.42c-.414 0-.75-.336-.75-.75s.336-.75.75-.75h13.42c.414 0 .75-.336.75-.75v-3c0-.414.336-.75.75-.75s.75.336.75.75v3c0 1.241-1.009 2.25-2.25 2.25z"/><path d="m5.75 12.91c-.414 0-.75-.336-.75-.75v-4.91c0-1.241 1.009-2.25 2.25-2.25h4c.414 0 .75.336.75.75s-.336.75-.75.75h-4c-.414 0-.75.336-.75.75v4.91c0 .414-.336.75-.75.75z"/><path d="m19 4.461c-.083 0-.167-.014-.247-.042l-4.25-1.48c-.301-.105-.503-.389-.503-.708s.202-.603.503-.708l4.25-1.481c.159-.056.334-.056.493 0l4.25 1.481c.302.105.504.389.504.708s-.202.604-.503.708l-4.25 1.48c-.08.029-.164.042-.247.042zm-1.97-2.23 1.97.686 1.97-.686-1.97-.687z"/><path d="m19 9.961c-.083 0-.167-.014-.247-.042l-4.25-1.48c-.301-.105-.503-.389-.503-.708v-5.5c0-.414.336-.75.75-.75s.75.336.75.75v4.967l3.5 1.219 3.5-1.219v-4.967c0-.414.336-.75.75-.75s.75.336.75.75v5.5c0 .319-.202.604-.503.708l-4.25 1.48c-.08.029-.164.042-.247.042z"/><path d="m19 9.961c-.414 0-.75-.336-.75-.75v-5.5c0-.414.336-.75.75-.75s.75.336.75.75v5.5c0 .414-.336.75-.75.75z"/><path d="m6.75 20c-.163 0-.328-.053-.465-.162-.325-.257-.379-.729-.122-1.054l.818-1.032c.69-.829.823-1.968.349-2.917-.145-.289-.088-.638.141-.866l1.81-1.81c.582-.582.634-1.496.157-2.138l-5.178 4.779c-.305.28-.778.262-1.06-.042-.281-.305-.262-.779.042-1.06l5.367-4.954c.494-.456 1.254-.441 1.731.036.593.593.919 1.381.919 2.22s-.327 1.627-.919 2.22l-1.455 1.455c.469 1.365.2 2.894-.741 4.022l-.807 1.018c-.148.188-.366.285-.587.285z"/><path d="m8.75 24h-8c-.414 0-.75-.336-.75-.75v-7.938c0-2.063.924-3.984 2.536-5.273l2.346-1.875c.324-.258.796-.206 1.054.118s.206.795-.118 1.054l-2.346 1.875c-1.253 1.002-1.972 2.497-1.972 4.101v7.188h6.5v-1.248c0-.414.336-.75.75-.75.965 0 1.75-.785 1.75-1.75v-2.252c0-.414.336-.75.75-.75s.75.336.75.75v2.252c0 1.534-1.068 2.823-2.5 3.163v1.335c0 .414-.336.75-.75.75z"/><path d="m23.25 15.25c-.414 0-.75-.336-.75-.75 0-.276-.224-.5-.5-.5-1.103 0-2-.897-2-2v-.25c0-.414.336-.75.75-.75s.75.336.75.75v.25c0 .276.224.5.5.5 1.103 0 2 .897 2 2 0 .414-.336.75-.75.75z"/></svg>
