<svg id="icon" enable-background="new 0 0 24 24" height="512" viewBox="0 0 24 24" width="512" xmlns="http://www.w3.org/2000/svg"><path d="m19.25 15.75h-14.5c-.552 0-1 .448-1 1v5.5c0 .552.448 1 1 1h4.28c.52 0 1.01-.23 1.35-.63l.786-1.188c.395-.598 1.273-.598 1.668 0l.786 1.188c.34.4.83.63 1.35.63h4.28c.552 0 1-.448 1-1v-5.5c0-.552-.448-1-1-1z" fill="#00bcd4"/><path d="m5.25 10.25h13.5c.828 0 1.5-.672 1.5-1.5v-6.5c0-.828-.672-1.5-1.5-1.5h-13.5c-.828 0-1.5.672-1.5 1.5v6.5c0 .828.672 1.5 1.5 1.5z" fill="#fff"/><path d="m18.75 7.5h1.5v-4.25h-1.5c-.552 0-1 .448-1 1v2.25c0 .552.448 1 1 1z" fill="#90a4ae"/><path d="m18.75 11h-2c-.414 0-.75-.336-.75-.75s.336-.75.75-.75h2c.413 0 .75-.336.75-.75v-6.5c0-.414-.337-.75-.75-.75h-13.5c-.413 0-.75.336-.75.75v6.5c0 .414.337.75.75.75h2c.414 0 .75.336.75.75s-.336.75-.75.75h-2c-1.24 0-2.25-1.009-2.25-2.25v-6.5c0-1.241 1.01-2.25 2.25-2.25h13.5c1.24 0 2.25 1.009 2.25 2.25v6.5c0 1.241-1.01 2.25-2.25 2.25z"/><path d="m20.25 9.75c-.414 0-.75-.336-.75-.75 0-.276-.225-.5-.5-.5-1.103 0-2-.897-2-2v-2c0-1.103.897-2 2-2 .275 0 .5-.224.5-.5 0-.414.336-.75.75-.75s.75.336.75.75c0 1.103-.897 2-2 2-.275 0-.5.224-.5.5v2c0 .276.225.5.5.5 1.103 0 2 .897 2 2 0 .414-.336.75-.75.75z"/><path d="m19.25 24h-4.28c-.525 0-1.017-.231-1.349-.633l-1.428-1.718c-.131-.155-.256-.156-.387 0l-1.431 1.72c-.328.4-.819.631-1.345.631h-4.28c-.965 0-1.75-.785-1.75-1.75v-5.5c0-.965.785-1.75 1.75-1.75h2.5c.414 0 .75.336.75.75s-.336.75-.75.75h-2.5c-.136 0-.25.114-.25.25v5.5c0 .136.114.25.25.25h4.28c.077 0 .145-.031.19-.087l1.434-1.723c.666-.802 2.025-.802 2.691 0l1.431 1.72c.049.059.116.089.193.089h4.28c.136 0 .25-.114.25-.25v-5.5c0-.136-.114-.25-.25-.25h-2.5c-.414 0-.75-.336-.75-.75s.337-.749.751-.749h2.5c.965 0 1.75.785 1.75 1.75v5.5c0 .965-.785 1.75-1.75 1.75z"/><path d="m20.25 20h-2.5c-.414 0-.75-.336-.75-.75s.336-.75.75-.75h2.5c.414 0 .75.336.75.75s-.336.75-.75.75z"/><path d="m6.25 20h-2.5c-.414 0-.75-.336-.75-.75s.336-.75.75-.75h2.5c.414 0 .75.336.75.75s-.336.75-.75.75z"/><path d="m12 15.736c-.414 0-.75-.336-.75-.75v-8.25c0-.414.336-.75.75-.75s.75.336.75.75v8.25c0 .414-.336.75-.75.75z"/><path d="m12 16.014c-.213 0-.415-.09-.558-.248l-2.25-2.5c-.277-.308-.252-.782.056-1.06.309-.278.782-.253 1.06.056l1.692 1.881 1.692-1.881c.278-.308.752-.333 1.06-.056s.333.751.056 1.06l-2.25 2.5c-.143.157-.345.248-.558.248z"/><path d="m5.75 16c-.414 0-.75-.336-.75-.75v-1.5c0-.965.785-1.75 1.75-1.75.414 0 .75.336.75.75s-.336.75-.75.75c-.138 0-.25.112-.25.25v1.5c0 .414-.336.75-.75.75z"/><path d="m18.25 16c-.414 0-.75-.336-.75-.75v-1.5c0-.138-.112-.25-.25-.25-.414 0-.75-.336-.75-.75s.336-.75.75-.75c.965 0 1.75.785 1.75 1.75v1.5c0 .414-.336.75-.75.75z"/></svg>
