<svg id="icon" enable-background="new 0 0 24 24" height="512" viewBox="0 0 24 24" width="512" xmlns="http://www.w3.org/2000/svg"><path d="m18.256 3.5h-2.512c-.12 0-.237-.038-.333-.109-.426-.313-.661-.74-.661-1.203 0-.947.988-1.688 2.25-1.688s2.25.741 2.25 1.688c0 .463-.234.89-.661 1.203-.096.071-.213.109-.333.109z" fill="#f44336"/><ellipse cx="17" cy="8.25" fill="#f44336" rx="3.958" ry="4.75"/><path d="m15.25 23.25h-2.788c-.521 0-1.021-.203-1.394-.566l-.673-.655c-.777-.755-2.014-.755-2.79.001l-.67.652c-.374.364-.875.568-1.396.568h-2.789c-1.105 0-2-.895-2-2v-7h16.5v7c0 1.105-.895 2-2 2z" fill="#00bcd4"/><path d="m17.25 20.25h-2.5v-2.5h2.5z" fill="#0097a7"/><path d="m3.25 20.25h-2.5v-2.5h2.5z" fill="#0097a7"/><path d="m17 14c-2.59 0-4.697-2.58-4.697-5.75s2.107-5.75 4.697-5.75 4.697 2.58 4.697 5.75-2.107 5.75-4.697 5.75zm0-10c-1.763 0-3.197 1.907-3.197 4.25s1.434 4.25 3.197 4.25 3.197-1.907 3.197-4.25-1.434-4.25-3.197-4.25z"/><path d="m23.25 8.5h-2c-.414 0-.75-.336-.75-.75s.336-.75.75-.75h2c.414 0 .75.336.75.75s-.336.75-.75.75z"/><path d="m12.75 8.5h-2c-.414 0-.75-.336-.75-.75s.336-.75.75-.75h2c.414 0 .75.336.75.75s-.336.75-.75.75z"/><path d="m12.33 13.17c-.192 0-.386-.074-.532-.222-.292-.294-.29-.769.004-1.061l1.355-1.346c.138-.157.339-.257.563-.257.414 0 .75.331.75.745 0 .2-.08.402-.222.542l-1.39 1.38c-.146.146-.337.219-.528.219z"/><path d="m20.1 5.9c-.192 0-.384-.073-.53-.22-.293-.293-.293-.768 0-1.061l1.57-1.57c.293-.293.768-.293 1.061 0s.293.768 0 1.061l-1.57 1.57c-.148.147-.339.22-.531.22z"/><path d="m13.9 5.9c-.192 0-.384-.073-.53-.22l-1.57-1.57c-.293-.292-.293-.768 0-1.061s.768-.293 1.061 0l1.57 1.57c.293.292.293.768 0 1.061-.147.147-.338.22-.531.22z"/><path d="m21.67 13.17c-.191 0-.382-.073-.528-.218l-1.39-1.38c-.142-.141-.222-.333-.222-.532 0-.414.336-.755.75-.755.24 0 .454.111.591.285l1.327 1.318c.294.292.296.767.004 1.061-.146.147-.34.221-.532.221z"/><path d="m18.676 4c-.23 0-.458-.105-.605-.306-.245-.333-.174-.803.16-1.048.101-.074.27-.224.27-.396 0-.306-.584-.75-1.5-.75s-1.5.444-1.5.75c0 .172.169.322.27.396.334.246.405.715.16 1.048-.246.333-.716.406-1.049.16-.569-.418-.882-.987-.882-1.604 0-1.262 1.317-2.25 3-2.25s3 .988 3 2.25c0 .617-.313 1.186-.881 1.604-.134.099-.289.146-.443.146z"/><path d="m17 13.75c-.414 0-.75-.336-.75-.75v-9.489c0-.414.336-.75.75-.75s.75.336.75.75v9.489c0 .414-.336.75-.75.75z"/><path d="m15.25 24h-2.81c-.826 0-1.598-.362-2.118-.993l-.362-.442c-.469-.563-1.447-.567-1.924.005l-.356.435c-.523.633-1.294.995-2.12.995h-2.81c-1.517 0-2.75-1.233-2.75-2.75v-7c0-.414.336-.75.75-.75h8.9c.414 0 .75.336.75.75s-.336.75-.75.75h-8.15v6.25c0 .689.561 1.25 1.25 1.25h2.81c.376 0 .727-.163.962-.448l.358-.438c.528-.634 1.3-.994 2.12-.994s1.592.361 2.116.99l.364.445c.233.282.584.445.96.445h2.81c.689 0 1.25-.561 1.25-1.25v-4.76c0-.414.336-.75.75-.75s.75.336.75.75v4.76c0 1.517-1.233 2.75-2.75 2.75z"/><path d="m.749 15c-.143 0-.287-.041-.415-.126-.345-.23-.438-.695-.208-1.04l3-4.5c.139-.209.373-.334.624-.334h2.25c.223 0 .434.099.576.27.646.777 1.748 1.095 2.727.769.396-.134.818.082.949.475s-.082.817-.475.948c-1.44.477-3.063.083-4.107-.961h-1.519l-2.777 4.166c-.145.216-.383.333-.625.333z"/><path d="m17.25 21h-2.5c-.414 0-.75-.336-.75-.75v-2.5c0-.414.336-.75.75-.75h2.5c.414 0 .75.336.75.75s-.336.75-.75.75h-1.75v1h1.75c.414 0 .75.336.75.75s-.336.75-.75.75z"/><path d="m3.25 21h-2.5c-.414 0-.75-.336-.75-.75s.336-.75.75-.75h1.75v-1h-1.75c-.414 0-.75-.336-.75-.75s.336-.75.75-.75h2.5c.414 0 .75.336.75.75v2.5c0 .414-.336.75-.75.75z"/><path d="m11.25 19h-4.5c-.414 0-.75-.336-.75-.75s.336-.75.75-.75h4.5c.414 0 .75.336.75.75s-.336.75-.75.75z"/></svg>
