<svg id="icon" enable-background="new 0 0 24 24" height="512" viewBox="0 0 24 24" width="512" xmlns="http://www.w3.org/2000/svg"><path d="m22.805 2.472-4.594-1.562c-.137-.047-.285-.047-.422 0l-4.594 1.562c-.267.091-.445.34-.445.621v3.516c0 4.291 4.789 6.377 4.994 6.463.165.069.348.069.513 0 .204-.087 4.994-2.172 4.994-6.463v-3.515c-.001-.281-.18-.531-.446-.622z" fill="#4caf50"/><path d="m15.25 23.25h-2.788c-.521 0-1.021-.203-1.394-.566l-.673-.655c-.777-.755-2.014-.755-2.79.001l-.67.652c-.374.364-.875.568-1.396.568h-2.789c-1.105 0-2-.895-2-2v-7h16.5v7c0 1.105-.895 2-2 2z" fill="#00bcd4"/><path d="m17.25 20.25h-2.5v-2.5h2.5z" fill="#0097a7"/><path d="m3.25 20.25h-2.5v-2.5h2.5z" fill="#0097a7"/><path d="m18 14c-.104 0-.207-.021-.304-.064-.232-.103-5.696-2.578-5.696-7.65v-3.929c0-.33.215-.621.53-.717l5.25-1.607c.143-.045.297-.045.439 0l5.25 1.607c.316.096.531.387.531.717v3.929c0 5.072-5.464 7.547-5.696 7.649-.097.044-.2.065-.304.065zm-4.5-11.088v3.374c0 3.494 3.442 5.571 4.499 6.127 1.056-.558 4.501-2.646 4.501-6.127v-3.374l-4.5-1.378z"/><path d="m17.5 9c-.199 0-.39-.079-.53-.22l-1.75-1.75c-.293-.293-.293-.768 0-1.061s.768-.293 1.061 0l1.2 1.199 2.72-2.93c.283-.304.757-.32 1.061-.039.303.282.32.757.039 1.061l-3.25 3.5c-.14.149-.333.236-.537.24-.005 0-.009 0-.014 0z"/><path d="m15.25 24h-2.81c-.825 0-1.598-.361-2.118-.992l-.362-.444c-.469-.561-1.447-.566-1.924.006l-.356.435c-.523.634-1.295.995-2.12.995h-2.81c-1.517 0-2.75-1.233-2.75-2.75v-7c0-.414.336-.75.75-.75h12.83c.414 0 .75.336.75.75s-.336.75-.75.75h-12.08v6.25c0 .689.561 1.25 1.25 1.25h2.81c.376 0 .727-.163.962-.447l.358-.438c.528-.635 1.3-.995 2.12-.995s1.592.36 2.116.989l.364.446c.233.281.584.444.96.444h2.81c.689 0 1.25-.561 1.25-1.25v-4.84c0-.414.336-.75.75-.75s.75.337.75.751v4.84c0 1.517-1.233 2.75-2.75 2.75z"/><path d="m.749 15c-.143 0-.287-.041-.415-.126-.345-.229-.438-.695-.208-1.04l3-4.5c.139-.209.373-.334.624-.334h2.25c.223 0 .434.099.576.27.813.978 2.386 1.167 3.385.42.333-.247.802-.181 1.05.151.248.331.181.801-.151 1.05-.672.502-1.509.779-2.36.779-1.069 0-2.082-.422-2.83-1.17h-1.519l-2.777 4.166c-.145.217-.383.334-.625.334z"/><path d="m17.25 21h-2.5c-.414 0-.75-.336-.75-.75v-2.5c0-.414.336-.75.75-.75h2.5c.414 0 .75.336.75.75s-.336.75-.75.75h-1.75v1h1.75c.414 0 .75.336.75.75s-.336.75-.75.75z"/><path d="m3.25 21h-2.5c-.414 0-.75-.336-.75-.75s.336-.75.75-.75h1.75v-1h-1.75c-.414 0-.75-.336-.75-.75s.336-.75.75-.75h2.5c.414 0 .75.336.75.75v2.5c0 .414-.336.75-.75.75z"/><path d="m11.25 19h-4.5c-.414 0-.75-.336-.75-.75s.336-.75.75-.75h4.5c.414 0 .75.336.75.75s-.336.75-.75.75z"/></svg>
