<svg id="icon" enable-background="new 0 0 24 24" height="512" viewBox="0 0 24 24" width="512" xmlns="http://www.w3.org/2000/svg"><path d="m21.25 21.25h-5.318c-.629 0-1.187-.402-1.385-.999l-.001-.003c-.199-.596-.757-.999-1.385-.999h-2.321c-.628 0-1.186.402-1.385.998l-.001.003c-.199.596-.757.998-1.385.998h-5.319c-1.105 0-2-.895-2-2v-8.5c0-1.105.895-2 2-2h18.5c1.105 0 2 .895 2 2v8.5c0 1.107-.895 2.002-2 2.002z" fill="#00bcd4"/><circle cx="18.5" cy="12.5" r="1.5"/><path d="m21.25 22h-6.08c-.323 0-.609-.207-.711-.513l-.439-1.317c-.034-.101-.129-.17-.237-.17h-3.565c-.108 0-.203.069-.237.171l-.438 1.316c-.104.306-.39.513-.713.513h-6.08c-1.517 0-2.75-1.233-2.75-2.75v-8.5c0-1.517 1.233-2.75 2.75-2.75h18.5c1.517 0 2.75 1.233 2.75 2.75v8.5c0 1.517-1.233 2.75-2.75 2.75zm-5.54-1.5h5.54c.689 0 1.25-.561 1.25-1.25v-8.5c0-.689-.561-1.25-1.25-1.25h-18.5c-.689 0-1.25.561-1.25 1.25v8.5c0 .689.561 1.25 1.25 1.25h5.54l.268-.803c.239-.716.906-1.197 1.66-1.197h3.565c.754 0 1.421.48 1.66 1.196z"/><path d="m20.25 9.5c-.414 0-.75-.336-.75-.75v-2c0-.689-.561-1.25-1.25-1.25h-12.5c-.689 0-1.25.561-1.25 1.25v2c0 .414-.336.75-.75.75s-.75-.336-.75-.75v-2c0-1.517 1.233-2.75 2.75-2.75h12.5c1.517 0 2.75 1.233 2.75 2.75v2c0 .414-.336.75-.75.75z"/><path d="m11.75 17c-.414 0-.75-.336-.75-.75v-4.5c0-.414.336-.75.75-.75h1.125c1.172 0 2.125.953 2.125 2.125s-.953 2.125-2.125 2.125h-.375v1c0 .414-.336.75-.75.75zm.75-3.25h.375c.345 0 .625-.28.625-.625s-.28-.625-.625-.625h-.375z"/><path d="m14.25 17c-.192 0-.384-.073-.53-.22l-1.75-1.75c-.293-.293-.293-.768 0-1.061s.768-.293 1.061 0l1.75 1.75c.293.293.293.768 0 1.061-.147.147-.339.22-.531.22z"/><path d="m7 17c-.323 0-.609-.207-.711-.513l-1.5-4.5c-.131-.393.081-.818.474-.949s.818.082.949.474l.788 2.366.789-2.366c.13-.393.555-.607.949-.474.393.131.605.556.474.949l-1.5 4.5c-.103.306-.389.513-.712.513z"/></svg>
