<svg id="icon" enable-background="new 0 0 24 24" height="512" viewBox="0 0 24 24" width="512" xmlns="http://www.w3.org/2000/svg"><path d="m22.25 10.25h-5.5c-.552 0-1-.448-1-1v-3.5c0-.552.448-1 1-1h5.5c.552 0 1 .448 1 1v3.5c0 .552-.448 1-1 1z" fill="#ffc107"/><path d="m15.25 23.25h-2.788c-.521 0-1.021-.203-1.394-.566l-.673-.655c-.777-.755-2.014-.755-2.79.001l-.67.652c-.374.364-.875.568-1.396.568h-2.789c-1.105 0-2-.895-2-2v-7h16.5v7c0 1.105-.895 2-2 2z" fill="#00bcd4"/><path d="m17.25 20.25h-2.5v-2.5h2.5z" fill="#0097a7"/><path d="m3.25 20.25h-2.5v-2.5h2.5z" fill="#0097a7"/><path d="m22.25 11h-5.5c-.965 0-1.75-.785-1.75-1.75v-3.5c0-.965.785-1.75 1.75-1.75h5.5c.965 0 1.75.785 1.75 1.75v3.5c0 .965-.785 1.75-1.75 1.75zm-5.5-5.5c-.138 0-.25.112-.25.25v3.5c0 .138.112.25.25.25h5.5c.138 0 .25-.112.25-.25v-3.5c0-.138-.112-.25-.25-.25z"/><path d="m21.25 5.5c-.414 0-.75-.336-.75-.75v-2.25c0-.552-.448-1-1-1s-1 .448-1 1v2.25c0 .414-.336.75-.75.75s-.75-.336-.75-.75v-2.25c0-1.379 1.121-2.5 2.5-2.5s2.5 1.121 2.5 2.5v2.25c0 .414-.336.75-.75.75z"/><path d="m15.25 24h-2.813c-.818 0-1.589-.36-2.112-.989l-.365-.437c-.477-.572-1.443-.571-1.92-.001l-.364.438c-.524.629-1.294.989-2.113.989h-2.813c-1.517 0-2.75-1.233-2.75-2.75v-7c0-.414.336-.75.75-.75h16.5c.414 0 .75.336.75.75v7c0 1.517-1.233 2.75-2.75 2.75zm-6.25-3.376c.819 0 1.589.36 2.112.99l.364.436c.238.286.588.45.96.45h2.813c.689 0 1.25-.561 1.25-1.25v-6.25h-15v6.25c0 .689.561 1.25 1.25 1.25h2.813c.372 0 .722-.164.96-.45l.364-.437c.525-.629 1.295-.989 2.114-.989z"/><path d="m17.25 15c-.208 0-.414-.086-.563-.254l-.67-.76c-.274-.311-.244-.785.066-1.059.311-.274.784-.243 1.059.066l.67.76c.274.311.244.785-.066 1.059-.142.126-.319.188-.496.188z"/><path d="m.749 15c-.143 0-.287-.041-.415-.126-.345-.229-.438-.695-.208-1.04l3-4.5c.139-.209.373-.334.624-.334h2.25c.223 0 .434.099.576.27.953 1.145 2.895 1.145 3.848 0 .142-.171.353-.27.576-.27h1.53c.414 0 .75.336.75.75s-.336.75-.75.75h-1.2c-.748.748-1.761 1.17-2.83 1.17s-2.082-.422-2.83-1.17h-1.519l-2.777 4.166c-.145.217-.383.334-.625.334z"/><path d="m17.25 21h-2.5c-.414 0-.75-.336-.75-.75v-2.5c0-.414.336-.75.75-.75h2.5c.414 0 .75.336.75.75s-.336.75-.75.75h-1.75v1h1.75c.414 0 .75.336.75.75s-.336.75-.75.75z"/><path d="m3.25 21h-2.5c-.414 0-.75-.336-.75-.75s.336-.75.75-.75h1.75v-1h-1.75c-.414 0-.75-.336-.75-.75s.336-.75.75-.75h2.5c.414 0 .75.336.75.75v2.5c0 .414-.336.75-.75.75z"/><path d="m11.25 19h-4.5c-.414 0-.75-.336-.75-.75s.336-.75.75-.75h4.5c.414 0 .75.336.75.75s-.336.75-.75.75z"/></svg>
