<svg id="icon" enable-background="new 0 0 24 24" height="512" viewBox="0 0 24 24" width="512" xmlns="http://www.w3.org/2000/svg"><path d="m21.25 16.25h-18.5c-1.105 0-2-.895-2-2v-7.5c0-1.105.895-2 2-2h18.5c1.105 0 2 .895 2 2v7.5c0 1.105-.895 2-2 2z" fill="#00bcd4"/><path d="m14.25 7.25h-4.5c-.552 0-1-.448-1-1v-1.5h6.5v1.5c0 .552-.448 1-1 1z" fill="#fff"/><path d="m15.25 16.25h-6.5v-1.5c0-.552.448-1 1-1h4.5c.552 0 1 .448 1 1z" fill="#fff"/><path d="m14.25 8h-4.5c-.965 0-1.75-.785-1.75-1.75v-1.5c0-.414.336-.75.75-.75s.75.336.75.75v1.5c0 .136.114.25.25.25h4.5c.136 0 .25-.114.25-.25v-1.5c0-.414.336-.75.75-.75s.75.336.75.75v1.5c0 .965-.785 1.75-1.75 1.75z"/><path d="m21.25 17h-18.5c-1.517 0-2.75-1.233-2.75-2.75v-7.5c0-1.517 1.233-2.75 2.75-2.75h18.5c1.517 0 2.75 1.233 2.75 2.75v7.5c0 1.517-1.233 2.75-2.75 2.75zm-18.5-11.5c-.689 0-1.25.561-1.25 1.25v7.5c0 .689.561 1.25 1.25 1.25h18.5c.689 0 1.25-.561 1.25-1.25v-7.5c0-.689-.561-1.25-1.25-1.25z"/><circle cx="19.5" cy="10.5" r="1.5"/><path d="m20.25 5.5c-.414 0-.75-.336-.75-.75v-2c0-.689-.561-1.25-1.25-1.25h-12.5c-.689 0-1.25.561-1.25 1.25v2c0 .414-.336.75-.75.75s-.75-.336-.75-.75v-2c0-1.517 1.233-2.75 2.75-2.75h12.5c1.517 0 2.75 1.233 2.75 2.75v2c0 .414-.336.75-.75.75z"/><path d="m15.25 17c-.414 0-.75-.336-.75-.75v-1.5c0-.136-.114-.25-.25-.25h-4.5c-.136 0-.25.114-.25.25v1.5c0 .414-.336.75-.75.75s-.75-.336-.75-.75v-1.5c0-.965.785-1.75 1.75-1.75h4.5c.965 0 1.75.785 1.75 1.75v1.5c0 .414-.336.75-.75.75z"/><path d="m10.501 24c-.229 0-.454-.104-.601-.3-.249-.332-.182-.802.149-1.05l1.2-.9-1.2-.9c-.33-.248-.398-.719-.149-1.05.246-.331.717-.399 1.05-.15l2 1.5c.188.142.3.364.3.6s-.111.458-.3.6l-2 1.5c-.135.101-.293.15-.449.15z"/><path d="m12 22.5c-1.491 0-2.902-.072-4.192-.214-2.344-.242-7.808-1.07-7.808-3.536 0-.414.336-.75.75-.75s.75.336.75.75c0 .354 1.592 1.542 6.467 2.044 1.241.137 2.596.206 4.033.206.414 0 .75.336.75.75s-.336.75-.75.75z"/><path d="m15.413 22.35c-.386 0-.714-.296-.746-.688-.035-.413.271-.775.685-.81 5.092-.425 7.148-1.66 7.148-2.103 0-.414.336-.75.75-.75s.75.337.75.751c0 2.604-5.961 3.383-8.523 3.598-.022.001-.042.002-.064.002z"/></svg>
