<svg id="icon" enable-background="new 0 0 24 24" height="512" viewBox="0 0 24 24" width="512" xmlns="http://www.w3.org/2000/svg"><path d="m20.971 3.452h-2.942c-.15 0-.293-.066-.391-.18-.098-.115-.14-.266-.116-.414l.274-1.711c.04-.249.255-.432.507-.432h2.395c.252 0 .467.183.507.432l.274 1.711c.024.149-.019.3-.116.414-.099.114-.241.18-.392.18z" fill="#607d8b"/><path d="m20.797 14.566h-2.595c-.273 0-.506-.198-.549-.468l-.296-1.853c-.026-.161.02-.325.126-.449s.26-.195.423-.195h3.188c.163 0 .317.071.423.195s.152.288.126.449l-.296 1.853c-.044.27-.276.468-.55.468z" fill="#607d8b"/><path d="m22.25 11.833h-5.5c-.552 0-1-.448-1-1v-6.5c0-.552.448-1 1-1h5.5c.552 0 1 .448 1 1v6.5c0 .553-.448 1-1 1z" fill="#e0e0e0"/><path d="m15.25 23.25h-2.788c-.521 0-1.021-.203-1.394-.566l-.673-.655c-.777-.755-2.014-.755-2.79.001l-.67.652c-.374.364-.875.568-1.396.568h-2.789c-1.105 0-2-.895-2-2v-7h16.5v7c0 1.105-.895 2-2 2z" fill="#00bcd4"/><path d="m17.25 20.25h-2.5v-2.5h2.5z" fill="#0097a7"/><path d="m3.25 20.25h-2.5v-2.5h2.5z" fill="#0097a7"/><path d="m21.75 12.583h-4.5c-1.241 0-2.25-1.009-2.25-2.25v-5.5c0-1.241 1.009-2.25 2.25-2.25h4.5c1.241 0 2.25 1.009 2.25 2.25v5.5c0 1.241-1.009 2.25-2.25 2.25zm-4.5-8.5c-.414 0-.75.336-.75.75v5.5c0 .414.336.75.75.75h4.5c.414 0 .75-.336.75-.75v-5.5c0-.414-.336-.75-.75-.75z"/><path d="m21.649 4.083c-.362 0-.681-.263-.74-.631l-.299-1.869h-2.22l-.299 1.869c-.066.409-.45.684-.859.622-.409-.065-.688-.45-.622-.859l.4-2.5c.058-.364.372-.631.741-.631h3.5c.369 0 .683.268.741.631l.4 2.5c.065.409-.213.794-.622.859-.042.007-.082.009-.121.009z"/><path d="m21.25 15.083h-3.5c-.369 0-.683-.268-.741-.631l-.4-2.5c-.065-.409.213-.794.622-.859.41-.064.793.213.859.622l.299 1.869h2.221l.299-1.869c.065-.409.448-.687.859-.622.409.065.688.45.622.859l-.4 2.5c-.057.364-.371.631-.74.631z"/><path d="m15.25 24h-2.81c-.826 0-1.598-.362-2.119-.993l-.362-.442c-.468-.563-1.447-.567-1.923.005l-.355.435c-.523.633-1.295.995-2.121.995h-2.81c-1.517 0-2.75-1.233-2.75-2.75v-7c0-.414.336-.75.75-.75h13.7c.414 0 .75.336.75.75s-.336.75-.75.75h-12.95v6.25c0 .689.561 1.25 1.25 1.25h2.81c.376 0 .727-.163.961-.448l.358-.438c.529-.634 1.3-.994 2.121-.994s1.592.361 2.116.99l.364.445c.232.282.583.445.959.445h2.81c.689 0 1.25-.561 1.25-1.25v-3.71c0-.414.336-.75.75-.75s.751.336.751.75v3.71c0 1.517-1.233 2.75-2.75 2.75z"/><path d="m.75 15c-.143 0-.288-.041-.416-.126-.345-.23-.438-.695-.208-1.04l3-4.5c.139-.209.373-.334.624-.334h2.25c.223 0 .434.099.576.27.953 1.144 2.895 1.144 3.848 0 .142-.171.353-.27.576-.27h1.5c.414 0 .75.336.75.75s-.336.75-.75.75h-1.17c-.748.748-1.76 1.17-2.83 1.17s-2.082-.422-2.83-1.17h-1.519l-2.777 4.166c-.145.217-.382.334-.624.334z"/><path d="m17.25 21h-2.5c-.414 0-.75-.336-.75-.75v-2.5c0-.414.336-.75.75-.75h2.5c.414 0 .75.336.75.75s-.336.75-.75.75h-1.75v1h1.75c.414 0 .75.336.75.75s-.336.75-.75.75z"/><path d="m3.25 21h-2.5c-.414 0-.75-.336-.75-.75s.336-.75.75-.75h1.75v-1h-1.75c-.414 0-.75-.336-.75-.75s.336-.75.75-.75h2.5c.414 0 .75.336.75.75v2.5c0 .414-.336.75-.75.75z"/><path d="m11.25 19h-4.5c-.414 0-.75-.336-.75-.75s.336-.75.75-.75h4.5c.414 0 .75.336.75.75s-.336.75-.75.75z"/></svg>
