<svg id="icon" enable-background="new 0 0 24 24" height="512" viewBox="0 0 24 24" width="512" xmlns="http://www.w3.org/2000/svg"><path d="m12.13 23.25c-5.511 0-8.321-4.191-9.114-8.113-.094-.467.241-.915.749-1.002s16.223-.097 16.726-.007c.508.09.84.541.741 1.007-1.411 6.707-5.729 8.115-9.102 8.115z" fill="#ffcc80"/><path d="m20.124 10.565-6.244-1.387c-2.127-.461-3.987-1.82-5.129-2.826-.5 1.181-1.379 2.388-2.369 2.765l-2.231 1.339c-.616.37-1.401-.075-1.401-.793v-1.397c0-5.396 4.799-7.853 9.259-7.853 4.451 0 9.241 2.461 9.241 7.863v1.387c0 .595-.552 1.03-1.126.902z" fill="#607d8b"/><path d="m20.582 7.604c-1.575-.304-3.083-.515-4.582-.651v2.297c0 .965-.785 1.75-1.75 1.75h-4.5c-.965 0-1.75-.785-1.75-1.75v-2.285c-1.592.146-3.144.362-4.582.639-.821.157-1.418.883-1.418 1.726v6.96c0 1.013.869 1.894 2.078 1.717 1.531-.287 3.078-.486 4.728-.609.391-.029.694-.356.694-.748v-.9c0-.138.112-.25.25-.25h4.5c.138 0 .25.112.25.25v.9c0 .393.303.719.694.748 1.649.123 3.196.322 4.71.606 1.024.217 2.096-.567 2.096-1.714v-6.96c0-.843-.597-1.569-1.418-1.726z" fill="#00bcd4"/><path d="m3.25 14.25h-1.5c-.552 0-1-.448-1-1v-1.5c0-.552.448-1 1-1h1.5c.552 0 1 .448 1 1v1.5c0 .552-.448 1-1 1z" fill="#0097a7"/><path d="m22.25 14.25h-1.5c-.552 0-1-.448-1-1v-1.5c0-.552.448-1 1-1h1.5c.552 0 1 .448 1 1v1.5c0 .552-.448 1-1 1z" fill="#0097a7"/><path d="m11.292 7.52h-4.792l1.292-2.77z" fill="#ffcc80"/><path d="m14.125 10.25h-4.25c-.552 0-1-.448-1-1v-2h6.25v2c0 .552-.448 1-1 1z" fill="#ffcc80"/><path d="m21.25 11c-.414 0-.75-.336-.75-.75v-.92c0-.123-.087-.231-.201-.254-2.856-.549-5.482-.807-8.25-.807-1.974-.003-3.675.11-5.8.394-.033.009-.066.016-.101.021-.873.115-1.672.243-2.447.392-.114.023-.201.132-.201.254v.92c0 .414-.336.75-.75.75s-.75-.336-.75-.75v-.92c0-.843.597-1.569 1.418-1.727.781-.15 1.587-.281 2.461-.397.03-.008.061-.014.092-.019 2.204-.296 4.076-.424 6.081-.417 2.862 0 5.579.266 8.53.834.821.157 1.418.883 1.418 1.726v.92c0 .414-.336.75-.75.75z"/><path d="m14.25 11h-4.5c-.965 0-1.75-.785-1.75-1.75v-1.35c0-.414.336-.75.75-.75s.75.336.75.75v1.35c0 .136.114.25.25.25h4.5c.136 0 .25-.114.25-.25v-1.35c0-.414.336-.75.75-.75s.75.336.75.75v1.35c0 .965-.785 1.75-1.75 1.75z"/><path d="m20.236 18.038c-.112 0-.224-.011-.332-.034-1.514-.284-3.061-.483-4.71-.606-.392-.029-.694-.355-.694-.748v-.9c0-.138-.112-.25-.25-.25h-4.5c-.138 0-.25.112-.25.25v.9c0 .393-.303.719-.694.748-1.649.123-3.196.322-4.728.609-.246.036-.465.036-.661.002-.851-.187-1.417-.891-1.417-1.719v-1.54c0-.414.336-.75.75-.75s.75.336.75.75v1.54c0 .148.107.226.2.247-.015-.003.045.003.135-.01 1.341-.252 2.717-.44 4.165-.569v-.208c0-.965.785-1.75 1.75-1.75h4.5c.965 0 1.75.785 1.75 1.75v.208c1.449.129 2.828.318 4.197.574.002 0 .105-.004.107-.004.09-.021.195-.095.195-.238v-1.54c0-.414.336-.75.75-.75s.751.336.751.75v1.54c0 .82-.562 1.52-1.365 1.701-.133.031-.267.047-.399.047zm-16.533-1.5h.01z"/><path d="m21.25 10.75c-.414 0-.75-.336-.75-.75v-1.75c0-5.328-5.337-6.75-8.49-6.75-3.161 0-8.51 1.419-8.51 6.74v1.76c0 .414-.336.75-.75.75s-.75-.336-.75-.75v-1.76c0-5.661 5.188-8.24 10.01-8.24 4.811 0 9.99 2.582 9.99 8.25v1.75c0 .414-.336.75-.75.75z"/><path d="m11.5 8c-.069 0-.141-.01-.211-.03-1.485-.435-2.43-.991-3.031-1.514-.299.526-.744 1.001-1.328 1.409-.339.237-.807.154-1.044-.185s-.156-.807.184-1.045c.765-.534 1.136-1.151 1.136-1.885 0-.394.305-.721.698-.748.386-.034.74.254.795.644.003 0 .331 1.1 3.012 1.885.397.116.625.533.509.931-.096.326-.395.538-.72.538z"/><path d="m22.25 15h-1.5c-.965 0-1.75-.785-1.75-1.75v-1.5c0-.965.785-1.75 1.75-1.75h1.5c.965 0 1.75.785 1.75 1.75v1.5c0 .965-.785 1.75-1.75 1.75zm-1.5-3.5c-.138 0-.25.112-.25.25v1.5c0 .138.112.25.25.25h1.5c.138 0 .25-.112.25-.25v-1.5c0-.138-.112-.25-.25-.25z"/><path d="m3.25 15h-1.5c-.965 0-1.75-.785-1.75-1.75v-1.5c0-.965.785-1.75 1.75-1.75h1.5c.965 0 1.75.785 1.75 1.75v1.5c0 .965-.785 1.75-1.75 1.75zm-1.5-3.5c-.138 0-.25.112-.25.25v1.5c0 .138.112.25.25.25h1.5c.138 0 .25-.112.25-.25v-1.5c0-.138-.112-.25-.25-.25z"/><path d="m12.01 24c-5.969 0-8.624-4.95-9.295-6.466-.043-.096-.065-.2-.065-.304 0-.414.336-.755.75-.755.332 0 .614.213.713.512.62 1.373 2.909 5.513 7.897 5.513 4.047 0 6.751-2.888 7.933-5.59.167-.379.611-.552.988-.387.379.166.553.608.387.987-1.373 3.137-4.539 6.49-9.308 6.49z"/><path d="m12 20.999c-.938 0-1.874-.196-2.604-.588-.365-.196-.502-.65-.307-1.015.196-.365.649-.505 1.016-.306 1.027.551 2.764.551 3.791 0 .364-.197.819-.059 1.016.306.195.365.059.819-.307 1.015-.731.392-1.667.588-2.605.588z"/></svg>
