<svg id="icon" enable-background="new 0 0 24 24" height="512" viewBox="0 0 24 24" width="512" xmlns="http://www.w3.org/2000/svg"><path d="m11.429 24v-1.516l-2.492.681c-.151.054-.341.085-.544.085-1.024 0-1.857-.833-1.857-1.857v-2.786h-1.857c-.521 0-.929-.408-.929-.929 0-.175.049-.342.144-.496l2.166-3.437c.294-.466.481-1.001.476-1.552-.05-5.075 4.443-9.132 9.651-8.345 3.603.544 6.492 3.484 6.983 7.095.291 2.14-.226 4.243-1.447 5.975-.812 1.153-1.26 2.522-1.26 3.932v3.15z" fill="#ffcc80"/><path d="m10.75 15.25h-8c-1.105 0-2-.895-2-2v-4.5c0-1.105.895-2 2-2h8c.552 0 1 .448 1 1v6.5c0 .552-.448 1-1 1z" fill="#00bcd4"/><path d="m22.25 12.5h-13.5c-.552 0-1-.448-1-1v-1.25c0-.552.448-1 1-1h13.5c.552 0 1 .448 1 1v1.25c0 .552-.448 1-1 1z" fill="#607d8b"/><circle cx="19.5" cy="7" r="1"/><path d="m21.544 5.38c-.196 0-.393-.077-.54-.229-.809-.839-2.199-.839-3.008 0-.288.299-.762.307-1.061.02-.298-.288-.307-.762-.02-1.061 1.379-1.431 3.789-1.431 5.168 0 .287.298.278.773-.02 1.061-.144.139-.332.209-.519.209z"/><path d="m23.25 3.11c-.196 0-.393-.077-.54-.229-.858-.891-1.998-1.381-3.21-1.381s-2.352.49-3.21 1.38c-.287.299-.762.307-1.061.02-.298-.288-.307-.762-.02-1.061 1.145-1.186 2.668-1.839 4.291-1.839s3.146.653 4.29 1.839c.287.298.278.773-.02 1.061-.145.14-.332.21-.52.21z"/><path d="m10.75 16h-8c-1.517 0-2.75-1.233-2.75-2.75v-4.5c0-1.517 1.233-2.75 2.75-2.75h8c.965 0 1.75.785 1.75 1.75v1.5c0 .414-.336.75-.75.75s-.75-.336-.75-.75v-1.5c0-.136-.114-.25-.25-.25h-8c-.689 0-1.25.561-1.25 1.25v4.5c0 .689.561 1.25 1.25 1.25h8c.136 0 .25-.114.25-.25v-1.5c0-.414.336-.75.75-.75s.75.336.75.75v1.5c0 .965-.785 1.75-1.75 1.75z"/><path d="m23 13.5h-14.25c-.965 0-1.75-.785-1.75-1.75v-1.5c0-.965.785-1.75 1.75-1.75h7.5c.414 0 .75.336.75.75s-.336.75-.75.75h-7.5c-.138 0-.25.112-.25.25v1.5c0 .138.112.25.25.25h14.25c.414 0 .75.336.75.75s-.336.75-.75.75z"/><path d="m3.75 16c-.414 0-.75-.336-.75-.75v-8.5c0-.414.336-.75.75-.75s.75.336.75.75v8.5c0 .414-.336.75-.75.75z"/><path d="m8.14 24.07c-1.224 0-2.22-.996-2.22-2.22v-2.68h-1.68c-.695 0-1.24-.545-1.24-1.24 0-.226.066-.453.193-.656l1.521-2.423c.219-.349.681-.458 1.033-.236.352.22.457.683.236 1.034l-1.267 2.021h1.954c.414 0 .75.336.75.75v3.43c0 .397.323.72.72.72.067 0 .132-.009.181-.027l3.011-.92c.226-.069.475-.026.665.114.191.142.304.365.304.603v.91c0 .414-.336.75-.75.75-.38 0-.694-.283-.743-.649l-2.018.616c-.181.065-.41.103-.65.103z"/><path d="m20.33 24c-.414 0-.75-.336-.75-.75v-1.92c0-1.768.534-3.469 1.545-4.919.9-1.279 1.375-2.779 1.375-4.341 0-1.068-.217-2.096-.645-3.054-.169-.378.001-.822.379-.991.378-.167.821 0 .99.379.515 1.152.776 2.386.776 3.666 0 1.873-.569 3.672-1.646 5.202-.832 1.195-1.273 2.599-1.273 4.059v1.92c-.001.413-.337.749-.751.749z"/><path d="m8.59 7.5c-.169 0-.339-.057-.479-.172-.319-.265-.363-.738-.098-1.057 1.241-1.498 2.89-2.536 4.768-3 .405-.099.809.146.908.548s-.146.809-.549.908c-1.563.387-2.937 1.251-3.973 2.5-.148.181-.362.273-.577.273z"/></svg>
