<svg id="icon" height="512pt" viewBox="0 0 512 512.00238" width="512pt" xmlns="http://www.w3.org/2000/svg"><path d="m207.445312 1.132812c-3.605468-1.769531-7.933593-1.429687-11.175781 1.003907l-42.667969 32c-2.304687 1.726562-3.820312 4.328125-4.183593 7.1875-.359375 2.859375.449219 5.761719 2.242187 8l42.667969 53.335937c2.089844 2.578125 5.160156 4.007813 8.339844 4.007813 1.171875 0 2.367187-.191407 3.542969-.597657 4.265624-1.511718 7.125-5.546874 7.125-10.066406v-85.335937c0-4.03125-2.285157-7.722657-5.890626-9.535157zm0 0" fill="#607d8b"/><path d="m17.066406 2.136719c-3.21875-2.433594-7.550781-2.816407-11.175781-1.003907-3.605469 1.8125-5.890625 5.503907-5.890625 9.535157v85.335937c0 4.519532 2.859375 8.554688 7.125 10.066406 1.175781.40625 2.371094.597657 3.542969.597657 3.179687 0 6.25-1.429688 8.339843-4.007813l42.667969-53.335937c1.792969-2.261719 2.625-5.140625 2.238281-8-.382812-2.859375-1.875-5.460938-4.179687-7.1875zm0 0" fill="#607d8b"/><path d="m295.359375 237.613281c-17.300781-16.46875-37.585937-29.121093-57.214844-41.34375-19.457031-12.117187-37.972656-23.660156-48.234375-36.351562 15.167969-15.082031 23.425782-33.707031 23.425782-53.25 0-47.058594-47.851563-85.332031-106.667969-85.332031-58.816407 0-106.667969 38.273437-106.667969 85.332031 0 27.777343 16.578125 53.355469 44.652344 69.355469 1.238281 9.578124 2.28125 19.585937 3.371094 29.78125 3.457031 32.449218 7.039062 66.027343 16.445312 96.042968 14.273438 45.503906 14.058594 157.84375 3.285156 170.003906-2.195312 1.859376-4.734375 3.394532-7.144531 4.886719-7.574219 4.734375-17.941406 11.199219-17.941406 24.597657 0 5.886718 4.777343 10.667968 10.667969 10.667968h42.664062c4.585938 0 8.664062-2.945312 10.113281-7.296875l34.75-104.300781c1.003907-3.007812 3.160157-5.308594 6.0625-6.527344 2.855469-1.171875 5.929688-1.042968 8.722657.300782 1.238281.617187 2.496093 1.234374 3.820312 1.875-2.625 3.117187-4.800781 6.914062-6.402344 11.265624-6.632812 17.984376-3.050781 43.625 6.957032 62.527344-11.5625 1.664063-20.183594 5.71875-25.75 12.140625-8.320313 9.621094-6.292969 20.371094-6.039063 21.566407 1.066406 4.949218 5.421875 8.449218 10.433594 8.449218h106.667969c65.621093 0 108.308593-26.496094 117.140624-72.664062 13.523438-70.78125-12.820312-149.972656-67.117187-201.726563zm0 0" fill="#455a64"/><path d="m404.074219 511.875c-29.160157 0-56.46875-13.355469-71.679688-36.714844-3.21875-4.929687-1.8125-11.5625 3.117188-14.761718 4.949219-3.203126 11.539062-1.816407 14.761719 3.113281 14.847656 22.828125 45.886718 32.660156 75.414062 23.851562 40.683594-12.074219 64.980469-54.699219 64.980469-114.027343 0-51.945313-34.390625-82.15625-70.828125-114.132813-38.589844-33.878906-78.503906-68.929687-78.503906-131.199219 0-63 45.972656-85.335937 85.332031-85.335937 50.238281 0 85.332031 30.699219 85.332031 74.667969 0 41.171874-33.492188 74.667968-74.664062 74.667968-5.890626 0-10.667969-4.78125-10.667969-10.667968 0-5.886719 4.777343-10.667969 10.667969-10.667969 29.394531 0 53.332031-23.933594 53.332031-53.332031 0-32.40625-25.128907-53.332032-64-53.332032-15.019531 0-64 4.605469-64 64 0 52.605469 34.625 83.007813 71.253906 115.175782 38.378906 33.707031 78.078125 68.546874 78.078125 130.15625 0 69.289062-29.992188 119.550781-80.253906 134.484374-9.195313 2.730469-18.519532 4.054688-27.671875 4.054688zm0 0"/><path d="m202.667969 106.667969c-5.886719 0-10.667969-4.777344-10.667969-10.664063v-64l-25.597656 19.199219c-4.714844 3.519531-11.394532 2.582031-14.933594-2.132813-3.542969-4.714843-2.582031-11.394531 2.132812-14.933593l42.667969-32c3.21875-2.433594 7.550781-2.773438 11.15625-1.003907 3.625 1.8125 5.910157 5.503907 5.910157 9.535157v85.335937c0 5.886719-4.78125 10.664063-10.667969 10.664063zm0 0"/><path d="m10.667969 106.667969c-5.886719 0-10.667969-4.777344-10.667969-10.664063v-85.335937c0-4.03125 2.285156-7.722657 5.890625-9.535157 3.625-1.792968 7.957031-1.429687 11.175781 1.003907l42.667969 32c4.714844 3.539062 5.675781 10.21875 2.132813 14.933593-3.519532 4.714844-10.21875 5.671876-14.933594 2.132813l-25.597656-19.199219v64c0 5.886719-4.78125 10.664063-10.667969 10.664063zm0 0"/><path d="m245.335938 512.003906h-106.667969c-5.011719 0-9.367188-3.5-10.433594-8.429687-.253906-1.191407-2.28125-11.945313 6.039063-21.566407 5.566406-6.421874 14.1875-10.476562 25.75-12.140624-9.984376-18.898438-13.589844-44.542969-6.957032-62.527344 1.601563-4.371094 3.777344-8.148438 6.402344-11.261719-1.324219-.640625-2.582031-1.28125-3.820312-1.878906-2.773438-1.363281-5.867188-1.449219-8.722657-.296875-2.902343 1.214844-5.058593 3.519531-6.0625 6.527344l-34.75 104.296874c-1.449219 4.332032-5.527343 7.277344-10.113281 7.277344h-42.664062c-5.890626 0-10.667969-4.78125-10.667969-10.667968 0-13.398438 10.367187-19.882813 17.960937-24.597657 2.433594-1.515625 4.949219-3.027343 7.148438-4.886719 10.75-12.136718 10.988281-124.476562-3.285156-170.003906-9.429688-30.039062-12.992188-63.59375-16.449219-96.042968-1.085938-10.195313-2.152344-20.179688-3.390625-29.78125-28.074219-16-44.652344-41.578126-44.652344-69.355469 0-47.058594 47.851562-85.332031 106.667969-85.332031 58.816406 0 106.667969 38.273437 106.667969 85.332031 0 19.542969-8.257813 38.167969-23.425782 53.25 10.261719 12.691406 28.777344 24.234375 48.234375 36.351562 19.628907 12.222657 39.914063 24.875 57.214844 41.34375 54.296875 51.753907 80.640625 130.945313 67.117187 201.726563-8.832031 46.167968-51.519531 72.664062-117.140624 72.664062zm-63.9375-21.335937h63.9375c31.976562 0 86.996093-7.1875 96.191406-55.335938 12.203125-63.851562-11.691406-135.40625-60.886719-182.273437-15.722656-14.976563-35.070313-27.03125-53.78125-38.675782-25.34375-15.789062-49.28125-30.679687-60.332031-51.117187-2.429688-4.523437-1.320313-10.132813 2.667968-13.375 14.699219-11.945313 22.804688-27.308594 22.804688-43.222656 0-35.285157-38.269531-64-85.332031-64s-85.332031 28.714843-85.332031 64c0 21.183593 14.207031 41.003906 37.992187 53.035156 3.117187 1.578125 5.269531 4.585937 5.738281 8.066406 1.582032 11.390625 2.859375 23.445313 4.160156 35.773438 3.351563 31.425781 6.804688 63.914062 15.597657 91.925781 13.394531 42.710938 19.945312 171.308594-2.96875 192.382812-1.171875 1.027344-2.367188 1.941407-3.582031 2.816407h10.027343l32.339844-97c2.945313-8.832031 9.535156-15.917969 18.113281-19.480469 8.511719-3.539062 18.132813-3.21875 26.386719.898438 5.976563 2.984374 12.992187 6.355468 20.632813 9.875l3.15625 1.582031c4.5 2.238281 6.824218 7.359375 5.546874 12.222656-1.28125 4.863281-5.546874 8.234375-10.816406 7.976563-3.5625-.125-7.894531.664062-10.625 8-6.078125 16.449218 1.8125 46.742187 14.804688 56.855468 3.691406 2.878906 5.078125 7.851563 3.414062 12.222656-1.535156 4.117188-5.480468 6.828126-9.855468 6.847657zm-15.636719 0h15.53125c-.214844 0-.449219 0-.683594-.019531-6.039063-.425782-10.921875-.363282-14.847656.019531zm0 0"/><path d="m135.359375 111.53125c-2.984375 0-5.84375-1.257812-7.890625-3.496094-2.496094-2.753906-3.394531-6.613281-2.328125-10.175781.769531-2.644531 2.5625-7.574219 5.761719-10.753906 3.199218-3.21875 8.105468-4.925781 10.753906-5.671875 3.496094-1.003906 7.292969-.109375 10.023438 2.34375 2.710937 2.453125 3.992187 6.125 3.351562 9.730468-.511719 3.027344-1.941406 8.636719-5.527344 12.242188v.023438c-3.5625 3.5-9.128906 4.992187-12.136718 5.566406-.660157.128906-1.34375.191406-2.007813.191406zm0 0"/><path d="m76.246094 111.234375c-.660156 0-1.320313-.0625-1.984375-.191406-3.027344-.578125-8.617188-2.046875-12.160157-5.589844-3.605468-3.605469-5.011718-9.195313-5.523437-12.222656-.597656-3.605469.660156-7.277344 3.371094-9.707031 2.707031-2.453126 6.503906-3.328126 10.003906-2.367188 2.625.722656 7.53125 2.429688 10.773437 5.671875 3.199219 3.199219 4.96875 8.085937 5.738282 10.730469 1.066406 3.5625.191406 7.425781-2.324219 10.175781-2.027344 2.261719-4.929687 3.5-7.894531 3.5zm1.941406-19.5625h.214844zm0 0"/></svg>
