<svg id="icon" height="490pt" viewBox="0 -21 490.66667 490" width="490pt" xmlns="http://www.w3.org/2000/svg"><path d="m277.332031 256.308594c0-11.78125-19.101562-21.332032-42.664062-21.332032-23.566407 0-42.667969 9.550782-42.667969 21.332032s19.101562 21.332031 42.667969 21.332031c23.5625 0 42.664062-9.550781 42.664062-21.332031zm0 0" fill="#b0bec5"/><path d="m258.324219 341.875-49.832031.898438c-.128907 0-.277344 0-.40625.019531-122.519532 7.019531-208.085938 45.996093-208.085938 94.847656 0 5.890625 4.777344 10.667969 10.667969 10.667969h469.332031c5.886719 0 10.667969-4.777344 10.667969-10.667969 0-59.773437-116.671875-93.417969-232.34375-95.765625zm0 0" fill="#607d8b"/><path d="m275.988281 296.371094c-5.867187-6.804688-14.269531-4.117188-22.398437-1.492188-5.652344 1.835938-12.695313 4.097656-18.921875 4.097656-5.933594 0-12.246094-2.390624-17.324219-4.308593-6.953125-2.648438-14.867188-5.613281-21.375.019531-6.421875 5.632812-4.375 14.441406-3.691406 17.34375 2.6875 11.585938 4.265625 27.179688 5.632812 40.917969 1.554688 15.507812 2.773438 27.753906 5.375 34.945312 1.515625 4.222657 5.546875 7.039063 10.027344 7.039063h42.667969c5.011719 0 9.34375-3.5 10.410156-8.40625 1.664063-7.550782 2.023437-16.8125 2.429687-26.625.640626-15.636719 1.367188-33.386719 7.402344-45.609375 1.386719-2.730469 5.546875-11.222657-.234375-17.921875zm0 0" fill="#cfd8dc"/><path d="m310.335938 145.3125c-1.238282 0-2.496094-.214844-3.710938-.664062-5.527344-2.046876-8.34375-8.191407-6.273438-13.714844 1.835938-4.949219 4.203126-9.835938 6.507813-14.570313 2.6875-5.527343 5.246094-10.730469 6.25-15.019531 1.367187-5.71875 7.125-9.238281 12.84375-7.914062 5.738281 1.363281 9.277344 7.101562 7.914063 12.839843-1.558594 6.574219-4.757813 13.101563-7.828126 19.4375-2.007812 4.117188-4.078124 8.339844-5.699218 12.648438-1.597656 4.289062-5.671875 6.957031-10.003906 6.957031zm0 0"/><path d="m330.6875 87.199219c-.683594 0-1.386719-.0625-2.089844-.214844-5.78125-1.148437-9.535156-6.761719-8.382812-12.542969.703125-3.539062.554687-4.203125.382812-5.054687-.277344-1.300781-.535156-2.601563-.597656-4.417969-.257812-5.886719 4.308594-10.855469 10.199219-11.113281 5.78125-.40625 10.855469 4.308593 11.113281 10.199219l.148438.914062c.683593 3.160156 1.109374 6.378906-.339844 13.632812-.984375 5.078126-5.441406 8.597657-10.433594 8.597657zm0 0"/><path d="m256 213.640625c-1.960938 0-3.96875-.53125-5.761719-1.683594-4.949219-3.179687-6.398437-9.769531-3.21875-14.742187 4.800781-7.464844 9.792969-16.808594 13.78125-41.109375.960938-5.824219 6.398438-9.8125 12.246094-8.808594 5.824219.957031 9.769531 6.441406 8.808594 12.242187-4.179688 25.496094-9.769531 38.101563-16.894531 49.195313-2.007813 3.179687-5.460938 4.90625-8.960938 4.90625zm0 0"/><path d="m278.207031 140.980469c-.363281 0-.703125-.019531-1.066406-.042969-5.867187-.574219-10.132813-5.800781-9.554687-11.667969 1.023437-10.261719 1.128906-25.34375 1.214843-37.441406.042969-5.566406.085938-10.667969.191407-14.785156.148437-5.886719 4.863281-10.28125 10.964843-10.367188 5.886719.171875 10.539063 5.058594 10.367188 10.964844-.105469 3.992187-.148438 8.960937-.191407 14.359375-.085937 13.183594-.191406 28.136719-1.320312 39.402344-.554688 5.460937-5.207031 9.578125-10.605469 9.578125zm0 0"/><path d="m278.1875 55.648438c-5.652344 0-10.367188-4.4375-10.644531-10.175782-.128907-2.902344-.128907-4.90625-.128907-6.507812 0-2.324219 0-2.582032-.34375-3.820313-1.578124-5.671875 1.773438-11.5625 7.445313-13.117187 5.65625-1.496094 11.5625 1.769531 13.121094 7.445312 1.109375 4.03125 1.109375 6.570313 1.109375 9.492188 0 1.34375 0 3.050781.105468 5.503906.277344 5.867188-4.265624 10.878906-10.152343 11.15625-.171875.023438-.34375.023438-.511719.023438zm0 0"/><path d="m234.667969 213.640625c-.511719 0-1.023438-.019531-1.558594-.105469-5.824219-.851562-9.855469-6.25-9.003906-12.097656 2.15625-14.761719 1.601562-33.855469-.085938-61.800781-.359375-5.886719 4.117188-10.945313 10.007813-11.285157 5.910156-.042968 10.941406 4.117188 11.285156 10.003907 1.769531 29.355469 2.324219 49.601562-.085938 66.199219-.789062 5.269531-5.332031 9.085937-10.558593 9.085937zm0 0"/><path d="m234.667969 108.980469c-5.25 0-9.792969-3.859375-10.5625-9.171875-.808594-5.71875-3.070313-14.722656-5.074219-22.828125-1.515625-6.101563-2.902344-11.734375-3.585938-15.359375-1.089843-5.78125 2.730469-11.371094 8.535157-12.4375 5.78125-1.003906 11.347656 2.730468 12.433593 8.53125.621094 3.351562 1.921876 8.515625 3.308594 14.144531 2.199219 8.875 4.609375 18.730469 5.484375 24.984375.832031 5.824219-3.246093 11.21875-9.070312 12.050781-.488281.042969-1 .085938-1.46875.085938zm0 0"/><path d="m219.070312 37.238281c-4.714843 0-9.023437-3.160156-10.300781-7.9375-2.476562-9.324219-4.054687-12.011719-4.355469-12.4375-3.242187-4.929687-1.875-11.542969 3.03125-14.785156 4.949219-3.21875 11.542969-1.855469 14.785157 3.03125 2.496093 3.796875 4.777343 9.75 7.144531 18.730469 1.515625 5.695312-1.875 11.539062-7.574219 13.035156-.914062.253906-1.8125.363281-2.730469.363281zm0 0"/><path d="m277.332031 224.308594c-.574219 0-1.171875-.042969-1.746093-.148438l-64-10.667968c-2.007813-.339844-3.863282-1.214844-5.355469-2.582032-5.035157-4.5-13.015625-15.828125-23.957031-61.972656-1.367188-5.714844 2.175781-11.476562 7.914062-12.820312 5.695312-1.429688 11.476562 2.195312 12.84375 7.914062 7.804688 32.894531 13.542969 44.992188 16.039062 49.089844l54.230469 9.023437c4.265625-4.714843 8.855469-10.644531 16.234375-33.195312 1.835938-5.609375 7.851563-8.703125 13.441406-6.828125 5.609376 1.835937 8.660157 7.851562 6.824219 13.441406-9.320312 28.480469-15.871093 35.625-21.652343 41.941406l-2.601563 2.921875c-2.046875 2.496094-5.078125 3.882813-8.214844 3.882813zm0 0"/><path d="m182.65625 128.308594c-4.757812 0-9.109375-3.199219-10.324219-8.042969-1.730469-6.828125-3.007812-15.464844-4.226562-23.871094-1.257813-8.449219-2.515625-17.195312-4.136719-22.082031-1.835938-5.585938 1.195312-11.625 6.804688-13.480469 5.566406-1.855469 11.625 1.214844 13.460937 6.804688 2.199219 6.65625 3.542969 15.894531 4.972656 25.683593 1.109375 7.640626 2.21875 15.488282 3.816407 21.699219 1.453124 5.714844-2.003907 11.519531-7.722657 12.96875-.894531.214844-1.769531.320313-2.644531.320313zm0 0"/><path d="m164.886719 53.578125c-4.246094 0-8.277344-2.558594-9.921875-6.761719-1.429688-3.648437-2.835938-6.761718-4.246094-9.21875-2.921875-5.117187-1.128906-11.625 3.992188-14.546875 5.097656-2.921875 11.625-1.132812 14.546874 3.988281 1.8125 3.199219 3.691407 7.230469 5.546876 11.96875 2.15625 5.480469-.53125 11.667969-6.015626 13.824219-1.257812.488281-2.582031.746094-3.902343.746094zm0 0"/><path d="m181.332031 234.976562c-1.726562 0-3.453125-.429687-5.074219-1.300781l-4.203124-2.136719c-6.015626-2.921874-12.226563-5.929687-25.109376-17.621093-4.375-3.964844-4.695312-10.707031-.746093-15.082031 3.945312-4.394532 10.6875-4.691407 15.082031-.746094 10.621094 9.644531 15.015625 11.777344 20.09375 14.230468 1.621094.789063 3.242188 1.578126 5.035156 2.558594 5.183594 2.816406 7.105469 9.28125 4.289063 14.464844-1.921875 3.605469-5.589844 5.632812-9.367188 5.632812zm0 0"/><path d="m133.566406 196.019531c-2.964844 0-5.90625-1.234375-8.019531-3.625-8.640625-9.855469-14.785156-18.859375-18.304687-26.753906-2.367188-5.375.042968-11.6875 5.417968-14.078125 5.378906-2.433594 11.691406.042969 14.082032 5.417969 2.601562 5.84375 7.722656 13.25 14.824218 21.355469 3.882813 4.4375 3.4375 11.179687-.980468 15.0625-2.027344 1.769531-4.523438 2.621093-7.019532 2.621093zm0 0"/><path d="m99.519531 144.222656c-4.179687 0-8.171875-2.472656-9.855469-6.589844-3.347656-8.109374-4.757812-14.933593-4.289062-20.824218.449219-5.863282 5.71875-10.28125 11.457031-9.8125 5.867188.46875 10.261719 5.613281 9.8125 11.476562-.085937 1.109375 0 4.394532 2.753907 11.007813 2.238281 5.441406-.363282 11.691406-5.78125 13.933593-1.367188.554688-2.730469.808594-4.097657.808594zm0 0"/><path d="m234.667969 277.640625c-20.628907 0-42.667969-5.609375-42.667969-21.332031s22.039062-21.332032 42.667969-21.332032c20.628906 0 42.664062 5.609376 42.664062 21.332032s-22.035156 21.332031-42.664062 21.332031zm22.890625-17.109375h.210937zm-22.890625-4.222656h.210937zm0 0"/><path d="m480 448.308594h-469.332031c-5.890625 0-10.667969-4.777344-10.667969-10.667969 0-48.851563 85.566406-87.828125 208.085938-94.824219 5.480468-.320312 10.902343 4.136719 11.242187 10.046875.339844 5.867188-4.160156 10.921875-10.046875 11.242188-102.679688 5.867187-170.753906 35.265625-185.109375 62.871093h442.453125c-15.382812-30.742187-95.234375-61.460937-208.320312-63.765624-5.890626-.128907-10.5625-4.992188-10.453126-10.878907.128907-5.867187 5.140626-10.390625 10.878907-10.457031 115.265625 2.347656 231.9375 35.992188 231.9375 95.765625 0 5.890625-4.78125 10.667969-10.667969 10.667969zm0 0"/><path d="m213.332031 394.976562c-4.371093 0-8.46875-2.6875-10.023437-7.042968-2.605469-7.1875-3.84375-19.453125-5.378906-34.941406-1.363282-13.761719-2.941407-29.335938-5.632813-40.917969-.679687-2.902344-2.730469-11.734375 3.691406-17.34375 6.507813-5.652344 14.421875-2.667969 21.378907-.023438 5.054687 1.878907 11.367187 4.269531 17.300781 4.269531 6.226562 0 13.269531-2.261718 18.921875-4.074218 8.128906-2.648438 16.53125-5.3125 22.398437 1.492187 5.78125 6.699219 1.601563 15.1875.234375 17.960938-6.015625 12.226562-6.738281 29.976562-7.402344 45.613281-.40625 9.8125-.765624 19.070312-2.429687 26.621094-1.261719 5.761718-6.914063 9.472656-12.695313 8.152344-5.757812-1.261719-9.40625-6.933594-8.148437-12.695313 1.257813-5.738281 1.578125-14.101563 1.941406-22.953125.554688-13.378906 1.152344-28.117188 4.84375-41.535156-11.671875 3.242187-27.136719 2.558594-37.460937-1.070313 1.941406 11.523438 3.132812 23.488281 4.242187 34.371094 1.238281 12.351563 2.519531 25.109375 4.226563 29.824219 2.003906 5.546875-.875 11.648437-6.402344 13.652344-1.171875.449218-2.410156.640624-3.605469.640624zm0 0"/></svg>
