<svg id="icon" height="512pt" viewBox="0 0 512 511" width="512pt" xmlns="http://www.w3.org/2000/svg"><path d="m490.132812 66.890625c-7.808593-7.828125-17.171874-13.652344-27.902343-17.34375-3.714844-10.707031-9.515625-20.074219-17.34375-27.902344-28.226563-28.203125-77.421875-28.183593-105.578125 0-23.0625 23.039063-28.355469 57.492188-13.953125 86.078125-11.476563 13.933594-39.277344 43.519532-76.929688 81.835938-4.074219 4.160156-4.074219 10.792968 0 14.953125 19.117188 19.457031 39.402344 39.722656 58.859375 58.859375 2.089844 2.050781 4.777344 3.074218 7.488282 3.074218 2.710937 0 5.398437-1.023437 7.488281-3.074218 38.355469-37.695313 67.945312-65.472656 81.835937-76.925782 28.585938 14.378907 63.058594 9.085938 86.078125-13.953124 14.058594-14.082032 21.824219-32.855469 21.824219-52.800782 0-19.925781-7.765625-38.699218-21.867188-52.800781zm0 0" fill="#b0bec5"/><path d="m204.757812 248.183594c-4.160156-4.074219-10.796874-4.074219-14.957031 0-38.335937 37.671875-67.921875 65.449218-81.832031 76.925781-28.609375-14.398437-63.0625-9.085937-86.082031 13.953125-14.121094 14.082031-21.886719 32.851562-21.886719 52.800781 0 19.945313 7.765625 38.699219 21.867188 52.800781 7.808593 7.828126 17.171874 13.652344 27.902343 17.34375 3.714844 10.707032 9.515625 20.074219 17.34375 27.902344 14.125 14.101563 32.875 21.867188 52.800781 21.867188 19.96875 0 38.699219-7.765625 52.800782-21.867188 23.0625-23.039062 28.351562-57.472656 13.953125-86.078125 11.582031-13.996093 39.847656-44.117187 76.925781-81.835937 4.074219-4.140625 4.074219-10.792969 0-14.953125-19.113281-19.480469-39.378906-39.722657-58.835938-58.859375zm0 0" fill="#b0bec5"/><path d="m490.132812 339.0625c-23.019531-23.039062-57.429687-28.351562-86.101562-13.953125-38.292969-31.488281-185.898438-179.09375-217.363281-217.363281 14.398437-28.609375 9.109375-63.0625-13.953125-86.101563-28.140625-28.183593-77.355469-28.203125-105.578125 0-7.828125 7.828125-13.652344 17.195313-17.367188 27.902344-10.730469 3.714844-20.074219 9.539063-27.902343 17.34375-14.101563 14.101563-21.867188 32.875-21.867188 52.824219 0 19.945312 7.765625 38.695312 21.867188 52.796875 23.019531 23.042969 57.429687 28.355469 86.101562 13.953125 38.292969 31.488281 185.898438 179.09375 217.34375 217.367187-14.402344 28.605469-9.109375 63.058594 13.953125 86.101563 14.101563 14.078125 32.851563 21.84375 52.820313 21.84375 19.945312 0 38.675781-7.765625 52.800781-21.867188 7.804687-7.828125 13.652343-17.195312 17.34375-27.902344 10.730469-3.714843 20.074219-9.539062 27.902343-17.34375 14.101563-14.101562 21.867188-32.875 21.867188-52.824218 0-19.925782-7.765625-38.695313-21.867188-52.777344zm0 0" fill="#cfd8dc"/><path d="m482.582031 85.109375c-2.730469 0-5.460937-1.042969-7.550781-3.113281-13.398438-13.417969-33.195312-18.644532-51.5-13.824219-5.738281 1.601563-11.542969-1.878906-13.054688-7.550781-1.515624-5.695313 1.875-11.542969 7.550782-13.058594 25.707031-6.867188 53.3125.554688 72.085937 19.351562 4.160157 4.160157 4.160157 10.921876 0 15.082032-2.070312 2.070312-4.800781 3.113281-7.53125 3.113281zm0 0"/><path d="m58.089844 101.644531c-4.734375 0-9.042969-3.136719-10.304688-7.914062-6.847656-25.6875.578125-53.3125 19.328125-72.085938 4.160157-4.160156 10.925781-4.160156 15.085938 0 4.15625 4.160157 4.15625 10.921875 0 15.082031-13.398438 13.417969-18.691407 33.152344-13.804688 51.5 1.515625 5.695313-1.878906 11.539063-7.550781 13.054688-.917969.257812-1.855469.363281-2.753906.363281zm0 0"/><path d="m314.730469 266.445312c-2.710938 0-5.398438-1.023437-7.488281-3.074218-19.457032-19.136719-39.722657-39.402344-58.859376-58.859375-4.074218-4.160157-4.074218-10.792969 0-14.953125 37.675782-38.316406 65.453126-67.902344 76.929688-81.835938-14.402344-28.585937-9.109375-63.058594 13.953125-86.078125 28.160156-28.183593 77.351563-28.203125 105.578125 0 7.828125 7.808594 13.652344 17.171875 17.34375 27.902344 10.730469 3.714844 20.074219 9.539063 27.902344 17.34375 14.144531 14.101563 21.910156 32.875 21.910156 52.800781 0 19.945313-7.765625 38.699219-21.867188 52.800782-23.039062 23.039062-57.472656 28.351562-86.078124 13.953124-13.890626 11.453126-43.480469 39.230469-81.835938 76.925782-2.089844 2.050781-4.777344 3.074218-7.488281 3.074218zm-43.777344-69.421874c14.378906 14.550781 29.226563 29.421874 43.800781 43.800781 27.367188-26.773438 68.007813-65.816407 82.195313-75.863281 3.5625-2.472657 8.257812-2.625 11.882812-.296876 20.886719 13.246094 48.769531 10.238282 66.21875-7.253906 10.070313-10.070312 15.617188-23.46875 15.617188-37.71875 0-14.230468-5.546875-27.625-15.617188-37.714844-6.507812-6.507812-14.613281-11.09375-24.085937-13.589843-3.710938-.984375-6.613282-3.882813-7.574219-7.574219-2.496094-9.472656-7.082031-17.578125-13.589844-24.066406-20.15625-20.15625-55.292969-20.136719-75.410156 0-17.472656 17.472656-20.546875 45.3125-7.277344 66.21875 2.328125 3.648437 2.21875 8.363281-.296875 11.882812-10.347656 14.574219-52.117187 57.878906-75.863281 82.175782zm0 0"/><path d="m119.914062 511.777344c-19.945312 0-38.675781-7.765625-52.800781-21.867188-7.828125-7.808594-13.652343-17.171875-17.34375-27.902344-10.730469-3.714843-20.074219-9.539062-27.902343-17.34375-14.101563-14.101562-21.867188-32.875-21.867188-52.800781 0-19.949219 7.765625-38.699219 21.867188-52.800781 23.019531-23.039062 57.492187-28.332031 86.078124-13.953125 13.910157-11.453125 43.5-39.253906 81.835938-76.925781 4.160156-4.074219 10.792969-4.074219 14.953125 0 19.457031 19.136718 39.722656 39.402344 58.859375 58.859375 4.074219 4.160156 4.074219 10.8125 0 14.953125-37.078125 37.71875-65.34375 67.839844-76.925781 81.835937 14.398437 28.605469 9.109375 63.058594-13.953125 86.078125-14.082032 14.101563-32.832032 21.867188-52.800782 21.867188zm-45.226562-173.121094c-13.800781 0-27.539062 5.292969-37.738281 15.488281-10.070313 10.070313-15.617188 23.46875-15.617188 37.71875 0 14.230469 5.546875 27.625 15.617188 37.714844 6.507812 6.507813 14.613281 11.09375 24.085937 13.589844 3.710938.984375 6.613282 3.882812 7.574219 7.574219 2.496094 9.472656 7.082031 17.578124 13.589844 24.066406 20.179687 20.179687 55.316406 20.15625 75.410156 0 17.472656-17.472656 20.546875-45.3125 7.277344-66.21875-2.328125-3.648438-2.21875-8.363282.296875-11.882813 10.367187-14.636719 52.097656-57.898437 75.863281-82.199219-14.378906-14.550781-29.226563-29.417968-43.800781-43.796874-24.316406 23.785156-67.644532 65.578124-82.195313 75.859374-3.519531 2.496094-8.234375 2.648438-11.882812.300782-8.683594-5.503906-18.601563-8.214844-28.480469-8.214844zm0 0"/><path d="m392.085938 511.777344c-19.96875 0-38.699219-7.765625-52.800782-21.867188-23.0625-23.039062-28.351562-57.492187-13.953125-86.101562-31.464843-38.269532-179.070312-185.875-217.34375-217.363282-28.671875 14.398438-63.101562 9.085938-86.121093-13.953124-14.101563-14.082032-21.867188-32.855469-21.867188-52.777344 0-19.949219 7.765625-38.699219 21.867188-52.800782 7.828124-7.828124 17.171874-13.652343 27.902343-17.367187 3.714844-10.707031 9.539063-20.074219 17.34375-27.902344 28.226563-28.183593 77.441407-28.183593 105.578125 0 23.085938 23.039063 28.375 57.492188 13.976563 86.101563 31.464843 38.269531 179.070312 185.875 217.34375 217.363281 28.671875-14.398437 63.058593-9.085937 86.101562 13.953125 14.121094 14.082031 21.886719 32.851562 21.886719 52.777344 0 19.949218-7.765625 38.699218-21.867188 52.800781-7.808593 7.828125-17.171874 13.652344-27.902343 17.34375-3.714844 10.710937-9.539063 20.074219-17.34375 27.90625-14.125 14.121094-32.875 21.886719-52.800781 21.886719zm-283.199219-348.777344c2.175781 0 4.308593.660156 6.164062 1.960938 30.464844 21.546874 210.238281 201.324218 231.742188 231.765624 2.496093 3.542969 2.625 8.214844.300781 11.882813-13.269531 20.90625-10.21875 48.746094 7.273438 66.21875 20.097656 20.136719 55.234374 20.160156 75.414062 0 6.507812-6.507813 11.09375-14.613281 13.589844-24.085937.980468-3.710938 3.882812-6.613282 7.574218-7.574219 9.46875-2.496094 17.578126-7.082031 24.085938-13.589844 10.089844-10.089844 15.636719-23.484375 15.636719-37.738281 0-14.226563-5.546875-27.625-15.617188-37.714844-17.472656-17.515625-45.355469-20.523438-66.21875-7.253906-3.625 2.347656-8.320312 2.21875-11.882812-.300782-30.464844-21.523437-210.261719-201.300781-231.765625-231.742187-2.496094-3.519531-2.625-8.214844-.296875-11.882813 13.269531-20.90625 10.21875-48.746093-7.277344-66.21875-20.117187-20.136718-55.253906-20.160156-75.410156 0-6.507813 6.507813-11.09375 14.613282-13.589844 24.085938-.984375 3.710938-3.882813 6.613281-7.574219 7.574219-9.472656 2.515625-17.578125 7.082031-24.085937 13.609375-10.070313 10.070312-15.617188 23.464844-15.617188 37.71875 0 14.226562 5.546875 27.625 15.617188 37.714844 17.472656 17.472656 45.3125 20.480468 66.21875 7.253906 1.75-1.128906 3.753906-1.683594 5.71875-1.683594zm0 0"/></svg>
