<svg id="icon" height="512pt" viewBox="0 -32 512.08933 512" width="512pt" xmlns="http://www.w3.org/2000/svg"><path d="m480.488281 144.042969-45.015625 98.773437c-1.917968 3.839844-5.757812 6.1875-9.8125 6.1875-1.492187 0-2.984375-.210937-4.265625-.851562l-3.839843-1.707032c-15.359376-1.921874-49.707032-17.707031-87.679688-55.894531-10.453125-10.238281-19.628906-20.691406-27.308594-30.71875l-26.878906-72.105469-.425781-.855468v-.214844c.425781-.210938.851562-.636719 1.28125-.851562.210937-.214844.636719-.425782 1.066406-.640626l98.773437-44.585937c5.332032-2.347656 11.730469 0 14.078126 5.332031l1.492187 3.203125c.855469 1.917969 1.28125 3.839844 1.066406 5.972657-1.066406 7.679687 1.28125 18.984374 27.09375 45.226562 26.882813 26.664062 37.972657 28.371094 44.585938 27.09375 2.136719-.429688 4.480469-.214844 6.402343.636719l3.839844 1.707031c2.773438 1.28125 4.691406 3.414062 5.757813 5.976562.855469 2.769532.855469 5.757813-.210938 8.316407zm0 0" fill="#b0bec5"/><path d="m495.976562 25.003906c-14.871093-14.824218-36.289062-19.816406-56.789062-12.714844l-62.722656 28.375c-2.601563 1.171876-4.605469 3.347657-5.609375 6.015626-.980469 2.667968-.875 5.632812.339843 8.214843l.257813.574219c-1.003906 17.34375 9.003906 35.007812 33.683594 59.882812 25.496093 25.28125 43.4375 35.285157 60.203125 33.515626l1.003906.445312c1.40625.621094 2.878906.917969 4.332031.917969 4.050781 0 7.914063-2.304688 9.707031-6.226563l28.371094-62.082031c.148438-.320313.277344-.640625.382813-.960937 6.765625-19.667969 1.707031-41.109376-13.160157-55.957032zm0 0" fill="#ffc107"/><path d="m359.484375 372.632812-25.386719-68.054687c-2.003906-5.375-7.894531-8.171875-13.355468-6.398437l-3.199219 1.066406c-3.136719 1.042968-5.546875 3.453125-6.65625 6.441406-8.597657 5.355469-52.246094 14.355469-128.640625 14.355469-76.394532 0-120.042969-9-128.660156-14.335938-1.066407-2.921875-3.390626-5.289062-6.441407-6.378906l-2.988281-1.066406c-5.460938-1.917969-11.519531.875-13.546875 6.296875l-25.195313 67.089844c-8.042968 16.320312-7.082031 35.328124 2.582032 50.859374 9.964844 16 27.242187 25.535157 46.25 25.535157h256c19.007812 0 36.289062-9.535157 46.230468-25.535157 9.664063-15.53125 10.644532-34.539062 3.007813-49.875zm0 0" fill="#cfd8dc"/><path d="m334.097656 304.578125-40.320312-107.734375c-1-2.664062-3.027344-4.820312-5.609375-5.992188-2.625-1.175781-5.566407-1.21875-8.214844-.234374l-5.546875 2.132812c-1.300781.511719-2.496094 1.257812-3.519531 2.21875-5.160157 4.925781-35.773438 18.410156-88.640625 18.410156-52.265625 0-81.789063-10.964844-88.125-17.878906-1.132813-1.238281-2.5625-2.195312-4.117188-2.773438l-5.121094-1.917968c-5.570312-2.113282-11.667968.722656-13.71875 6.226562l-40.53125 107.523438c-1.003906 2.664062-.898437 5.652344.296876 8.253906 1.132812 2.433594 3.136718 4.351562 5.589843 5.355469 17.683594 19.96875 96.449219 23.210937 145.726563 23.210937 49.175781 0 127.722656-3.222656 145.621094-23.082031 2.582031-.960937 4.675781-2.882813 5.867187-5.378906 1.261719-2.621094 1.386719-5.628907.363281-8.339844zm0 0" fill="#ffc107"/><path d="m293.777344 196.84375-37.972656-101.546875c-2.070313-5.480469-8.171876-8.339844-13.675782-6.269531l-4.050781 1.492187c-2.175781.789063-4.011719 2.261719-5.269531 4.203125-3.328125 5.140625-12.203125 11.988282-50.5625 11.988282-37.011719 0-46.804688-6.71875-51.199219-12.585938-1.171875-1.578125-2.75-2.773438-4.566406-3.5l-3.199219-1.277344c-2.664062-1.066406-5.652344-1.003906-8.253906.148438-2.644532 1.152344-4.695313 3.304687-5.695313 5.992187l-38.1875 101.546875c-1.003906 2.648438-.898437 5.589844.277344 8.171875 1.171875 2.582031 3.328125 4.585938 5.972656 5.566407l3.027344 1.132812c15.445313 13.929688 54.742187 22.804688 101.824219 22.804688 48.898437 0 87.234375-11.179688 101.570312-22.699219l3.816406-1.472657c5.441407-2.109374 8.195313-8.234374 6.144532-13.695312zm0 0" fill="#cfd8dc"/><path d="m255.804688 95.296875-24.277344-64.9375c-9.109375-18.6875-27.816406-30.3164062-48.832032-30.3164062-21.035156 0-39.765624 11.6054692-49.28125 31.2343752l-24.105468 64.210937c-2.046875 5.441407.640625 11.5 6.039062 13.65625l.640625.253907c11.5625 13.207031 31.144531 18.644531 66.257813 18.644531 35.949218 0 55.617187-5.4375 66.21875-18.621094l1.027344-.386719c2.664062-.980468 4.839843-2.984375 6.015624-5.566406 1.191407-2.558594 1.300782-5.503906.296876-8.171875zm0 0" fill="#ffc107"/><path d="m283.792969 94.976562c0-.210937-.210938-.425781-.210938-.425781l-33.707031 15.148438 78.933594 210.984375 46.71875 27.519531 50.773437-111.144531c-76.628906-33.023438-122.667969-80.535156-142.507812-142.082032zm0 0" fill="#ffc107"/><path d="m328.808594 320.683594 24.980468 67.222656 21.738282-39.703125zm0 0" fill="#b0bec5"/><path d="m461.414062 149.078125c-15.765624 0-32.722656-10.367187-56.210937-33.855469-26.285156-26.261718-35.96875-44.542968-33.429687-63.101562.789062-5.847656 6.144531-9.941406 12.011718-9.132813 5.84375.8125 9.917969 6.1875 9.128906 12.011719-1.003906 7.296875 1.214844 19.007812 27.371094 45.160156 20.886719 20.886719 34.515625 29.1875 44.265625 27.289063 5.695313-1.261719 11.414063 2.492187 12.609375 8.253906 1.214844 5.761719-2.496094 11.414063-8.257812 12.609375-2.472656.488281-4.96875.765625-7.488282.765625zm0 0"/><path d="m420.285156 246.574219c-.105468 0-.214844 0-.296875 0-14.1875-.40625-49.902343-15.617188-90.21875-55.9375-34.882812-34.878907-56.832031-70.613281-55.917969-90.988281.277344-5.886719 5.484376-10.644532 11.136719-10.175782 5.890625.277344 10.433594 5.25 10.175781 11.136719-.425781 9.34375 12.695313 37.953125 49.6875 74.945313 37.332032 37.332031 68.5625 49.472656 75.710938 49.683593 5.886719.171875 10.539062 5.078125 10.367188 10.964844-.148438 5.78125-4.882813 10.371094-10.644532 10.371094zm0 0"/><path d="m371.902344 353.324219c-10.21875 0-25.21875-8.019531-47.617188-25.042969-4.695312-3.566406-5.589844-10.242188-2.027344-14.957031 3.5625-4.691407 10.242188-5.609375 14.957032-2.027344 21.246094 16.152344 30.546875 19.714844 33.40625 20.480469 3.945312-1.769532 8.726562-1.066406 11.96875 2.175781 4.160156 4.160156 4.160156 10.921875 0 15.082031-2.859375 2.839844-6.359375 4.289063-10.6875 4.289063zm0 0"/><path d="m353.597656 407.128906c-.832031 0-1.664062-.085937-2.496094-.300781-4.972656-1.195313-8.40625-5.738281-8.171874-10.835937.234374-5.335938-.789063-10.390626-3.050782-15.019532l-100.050781-267.476562c-1.964844-5.269532.46875-11.136719 5.585937-13.460938l193.707032-87.851562c.300781-.128906.621094-.257813.917968-.363282 19.648438-6.742187 41.046876-1.726562 55.914063 13.140626 14.847656 14.847656 19.882813 36.289062 13.121094 55.914062l-145.769531 320.023438c-1.75 3.859374-5.589844 6.230468-9.707032 6.230468zm-90.304687-291.777344 93.164062 249.128907 132.820313-291.519531c3.777344-11.070313.769531-23.742188-8.425782-32.917969-9.066406-9.085938-21.546874-12.136719-33.429687-8.191407zm0 0"/><path d="m310.269531 448.042969h-256c-18.945312 0-36.183593-9.492188-46.101562-25.363281-9.621094-15.382813-10.6875-34.242188-2.921875-50.558594l128.148437-340.910156c9.492188-19.582032 28.203125-31.1679692 49.214844-31.1679692 21.015625 0 39.722656 11.5859372 48.8125 30.2539062l128.042969 342.269531c7.59375 15.511719 6.613281 34.582032-3.117188 50.089844-9.898437 15.894531-27.132812 25.386719-46.078125 25.386719zm-127.660156-426.664063c-12.96875 0-24.0625 6.824219-29.652344 18.261719l-127.9375 340.414063c-.105469.320312-.253906.621093-.402343.917968-4.84375 9.921875-4.246094 20.992188 1.621093 30.378906 6.015625 9.621094 16.488281 15.359376 28.03125 15.359376h256c11.539063 0 22.015625-5.738282 28.03125-15.359376 5.84375-9.386718 6.441407-20.457031 1.621094-30.378906l-128.0625-342.273437c-5.183594-10.496094-16.257813-17.320313-29.25-17.320313zm-167.574219 354.921875h.214844zm0 0"/><path d="m182.269531 128.042969c-37.164062 0-56.9375-6.078125-68.265625-20.992188-3.5625-4.691406-2.648437-11.390625 2.046875-14.953125 4.671875-3.539062 11.371094-2.667968 14.933594 2.046875 4.4375 5.847657 14.292969 12.566407 51.285156 12.566407 29.546875 0 45.164063-3.710938 50.601563-12.011719 3.242187-4.90625 9.855468-6.269531 14.761718-3.09375 4.929688 3.222656 6.316407 9.835937 3.09375 14.765625-10.089843 15.402344-29.929687 21.671875-68.457031 21.671875zm0 0"/><path d="m182.269531 234.710938c-49.34375 0-90.113281-9.75-103.871093-24.808594-3.96875-4.355469-3.671876-11.117188.679687-15.085938 4.355469-3.964844 11.09375-3.667968 15.085937.683594 6.292969 6.914062 35.773438 17.878906 88.105469 17.878906 52.84375 0 83.476563-13.484375 88.660157-18.410156 4.289062-4.054688 11.050781-3.882812 15.082031.402344 4.054687 4.289062 3.882812 11.03125-.402344 15.085937-10.304687 9.746094-46.316406 24.253907-103.339844 24.253907zm0 0"/><path d="m182.269531 341.378906c-55.765625 0-149.332031-4.160156-149.332031-32 0-5.890625 4.777344-10.667968 10.664062-10.667968 4.609376 0 8.535157 2.921874 10.027344 7.019531 8.597656 5.332031 52.203125 14.3125 128.640625 14.3125s120.042969-8.980469 128.640625-14.3125c1.492188-4.097657 5.417969-7.019531 10.027344-7.019531 5.886719 0 10.664062 4.777343 10.664062 10.667968 0 27.839844-93.566406 32-149.332031 32zm0 0"/></svg>
