<svg id="icon" height="512pt" viewBox="-43 0 512 512" width="512pt" xmlns="http://www.w3.org/2000/svg"><path d="m363.074219 494.804688c-9.664063-14.996094-27.628907-42.921876-19.800781-64.511719 1.175781-3.242188.707031-6.890625-1.300782-9.75-1.984375-2.859375-5.246094-4.542969-8.722656-4.542969h-239.554688c-3.410156 0-6.613281 1.621094-8.617187 4.394531-2.003906 2.753907-2.582031 6.316407-1.515625 9.558594 7.148438 22.058594-9.023438 50.21875-18.132812 66.066406-1.898438 3.308594-1.878907 7.363281.023437 10.667969 1.898437 3.285156 5.417969 5.3125 9.214844 5.3125h279.914062c3.902344 0 7.253907-2.496094 9.128907-5.929688 1.859374-3.414062 1.472656-7.957031-.636719-11.265624zm0 0" fill="#455a64"/><path d="m420.777344 363.796875-64-32c-3.496094-1.75-7.636719-1.429687-10.835938.769531l-13.3125 9.214844c-1.300781.894531-2.367187 2.070312-3.15625 3.433594-21.484375 37.164062-59.050781 81.453125-116.140625 81.453125-57.085937 0-94.675781-44.289063-116.117187-81.453125-.789063-1.363282-1.875-2.539063-3.15625-3.433594l-13.3125-9.214844c-3.21875-2.21875-7.335938-2.519531-10.835938-.769531l-64 32c-3.585937 1.792969-5.8671872 5.441406-5.910156 9.429687-.0429688 3.988282 2.15625 7.679688 5.695312 9.535157l202.667969 106.667969c1.558594.808593 3.265625 1.238281 4.96875 1.238281 1.707031 0 3.414063-.429688 4.972657-1.238281l202.667968-106.667969c3.539063-1.855469 5.738282-5.546875 5.695313-9.535157-.042969-3.988281-2.324219-7.636718-5.890625-9.429687zm0 0" fill="#f44336"/><path d="m380.183594 216.085938-3.179688-7.039063c-27.882812-61.890625-46.316406-102.785156-80.535156-115.4375-21.394531-7.914063-47.1875-4.265625-83.136719 11.96875-35.921875-16.210937-61.714843-19.882813-83.113281-11.988281-34.238281 12.648437-52.671875 53.546875-80.554688 115.457031l-3.179687 7.039063c-16.914063 9.023437-25.152344 25.597656-25.152344 50.582031 0 20.648437 20.355469 67.15625 49.132813 73.855469 45.675781 88.722656 102.785156 107.476562 142.867187 107.476562 39.832031 0 96.472657-18.515625 142.828125-107.457031 28.800782-6.699219 49.171875-53.226563 49.171875-73.875 0-24.984375-8.234375-41.558594-25.148437-50.582031zm0 0" fill="#ffe0b2"/><path d="m352.726562 51.988281c-29.355468-34.515625-76.265624-51.988281-139.394531-51.988281-63.125 0-110.035156 17.472656-139.390625 51.988281-48.703125 57.21875-34.515625 144.898438-29.867187 173.738281.746093 4.652344 4.460937 8.257813 9.132812 8.875 4.714844.640626 9.195313-1.917968 11.113281-6.1875l4.777344-10.601562c25.6875-56.980469 42.648438-94.632812 68.480469-104.191406 16.511719-6.101563 38.488281-1.984375 71.191406 13.375 2.878907 1.367187 6.1875 1.367187 9.066407 0 32.703124-15.359375 54.675781-19.496094 71.1875-13.375 25.835937 9.558594 42.816406 47.210937 68.480468 104.191406l4.78125 10.601562c1.789063 3.84375 5.628906 6.253907 9.769532 6.253907.445312 0 .9375-.023438 1.40625-.085938 4.671874-.621093 8.386718-4.226562 9.132812-8.875 4.648438-28.820312 18.835938-116.523437-29.867188-173.71875zm0 0" fill="#455a64"/><path d="m371.988281 234.667969c-4.136719 0-7.976562-2.410157-9.726562-6.273438l-4.714844-10.472656c-25.707031-57.070313-42.6875-94.785156-68.566406-104.34375-16.191407-5.972656-38.847657-1.769531-71.125 13.417969-2.878907 1.34375-6.207031 1.34375-9.085938 0-32.257812-15.1875-54.847656-19.410156-71.125-13.417969-25.855469 9.535156-42.839843 47.253906-68.546875 104.320313l-4.714844 10.476562c-1.941406 4.285156-6.546874 6.78125-11.113281 6.183594-4.671875-.617188-8.382812-4.222656-9.128906-8.875-4.671875-28.777344-18.902344-116.394532 29.800781-173.671875 29.355469-34.519531 76.246094-52.011719 139.390625-52.011719 63.148438 0 110.039063 17.492188 139.394531 52.011719 48.703126 57.277343 34.472657 144.894531 29.78125 173.695312-.746093 4.648438-4.460937 8.253907-9.132812 8.875-.445312.0625-.914062.085938-1.386719.085938zm-98.878906-145.132813c8.40625 0 16.085937 1.34375 23.296875 4.011719 29.589844 10.921875 47.382812 42.964844 69.675781 91.433594 2.472657-35.691407-.320312-84.734375-29.589843-119.167969-25.132813-29.503906-66.5625-44.480469-123.160157-44.480469-56.59375 0-98.023437 14.976563-123.132812 44.480469-29.292969 34.453125-32.066407 83.476562-29.589844 119.167969 22.292969-48.46875 40.085937-80.511719 69.652344-91.433594 21.417969-7.871094 47.191406-4.203125 83.070312 12.03125 23.808594-10.773437 43.179688-16.042969 59.777344-16.042969zm0 0"/><path d="m181.3125 234.667969c-1.75 0-3.542969-.449219-5.207031-1.367188-14.78125-8.296875-39.484375-19.96875-48.105469-19.96875-5.886719 0-10.667969-4.777343-10.667969-10.664062 0-5.890625 4.78125-10.667969 10.667969-10.667969 17.257812 0 51.820312 18.902344 58.5625 22.699219 5.117188 2.878906 6.953125 9.386719 4.050781 14.527343-1.917969 3.476563-5.546875 5.441407-9.300781 5.441407zm0 0"/><path d="m245.355469 234.667969c-3.753907 0-7.382813-1.964844-9.324219-5.441407-2.898438-5.140624-1.066406-11.625 4.054688-14.527343 6.761718-3.796875 41.324218-22.699219 58.582031-22.699219 5.886719 0 10.664062 4.777344 10.664062 10.667969 0 5.886719-4.777343 10.664062-10.664062 10.664062-8.621094 0-33.34375 11.671875-48.105469 19.96875-1.664062.917969-3.457031 1.367188-5.207031 1.367188zm0 0"/><path d="m266.667969 373.332031c-1.8125 0-3.628907-.445312-5.292969-1.40625-.105469-.042969-17.109375-9.257812-48.042969-9.257812-30.929687 0-47.933593 9.214843-48.105469 9.300781-5.121093 2.835938-11.605468 1.042969-14.507812-4.074219-2.878906-5.101562-1.109375-11.5625 3.992188-14.464843.851562-.511719 21.546874-12.097657 58.621093-12.097657 37.078125 0 57.773438 11.585938 58.625 12.074219 5.121094 2.925781 6.890625 9.429688 3.992188 14.550781-1.984375 3.457031-5.589844 5.375-9.28125 5.375zm0 0"/><path d="m181.332031 384c-5.886719 0-10.664062-4.777344-10.664062-10.667969v-10.664062c0-5.890625 4.777343-10.667969 10.664062-10.667969 5.890625 0 10.667969 4.777344 10.667969 10.667969v10.664062c0 5.890625-4.777344 10.667969-10.667969 10.667969zm0 0"/><path d="m245.332031 384c-5.886719 0-10.664062-4.777344-10.664062-10.667969v-10.664062c0-5.890625 4.777343-10.667969 10.664062-10.667969 5.890625 0 10.667969 4.777344 10.667969 10.667969v10.664062c0 5.890625-4.777344 10.667969-10.667969 10.667969zm0 0"/><path d="m160 234.667969h-10.667969c-5.886719 0-10.664062-4.78125-10.664062-10.667969s4.777343-10.667969 10.664062-10.667969h10.667969c5.886719 0 10.667969 4.78125 10.667969 10.667969s-4.78125 10.667969-10.667969 10.667969zm0 0"/><path d="m277.332031 234.667969h-10.664062c-5.890625 0-10.667969-4.78125-10.667969-10.667969s4.777344-10.667969 10.667969-10.667969h10.664062c5.890625 0 10.667969 4.78125 10.667969 10.667969s-4.777344 10.667969-10.667969 10.667969zm0 0"/><path d="m213.332031 490.667969c-1.703125 0-3.410156-.40625-4.949219-1.238281l-202.664062-106.667969c-3.542969-1.855469-5.7617188-5.546875-5.71875-9.554688.0429688-4.011719 2.304688-7.640625 5.886719-9.429687l64-32c3.457031-1.730469 7.617187-1.453125 10.859375.765625l13.292968 9.21875c1.300782.894531 2.34375 2.066406 3.136719 3.433593 21.480469 37.160157 59.089844 81.472657 116.15625 81.472657 57.070313 0 94.65625-44.3125 116.140625-81.453125.789063-1.363282 1.855469-2.539063 3.136719-3.433594l13.289063-9.214844c3.242187-2.21875 7.402343-2.496094 10.859374-.769531l64 32c3.585938 1.792969 5.84375 5.417969 5.886719 9.429687.042969 4.011719-2.175781 7.679688-5.714843 9.558594l-202.667969 106.664063c-1.515625.8125-3.222657 1.21875-4.929688 1.21875zm-179.285156-117.101563 179.285156 94.378906 179.289063-94.378906-39.746094-19.882812-6.144531 4.269531c-34.707031 58.921875-80.789063 90.046875-133.398438 90.046875-52.605469 0-98.6875-31.125-133.394531-90.046875l-6.144531-4.269531zm0 0"/><path d="m213.332031 448c-39.976562 0-97.023437-18.753906-142.929687-107.476562-28.757813-6.699219-49.070313-53.207032-49.070313-73.855469 0-26.796875 9.515625-43.949219 29.078125-52.4375 5.378906-2.347657 11.691406.125 14.039063 5.523437 2.324219 5.398438-.148438 11.691406-5.546875 14.039063-8.425782 3.648437-16.234375 10.195312-16.234375 32.875 0 16.746093 19.773437 53.332031 34.664062 53.332031 3.992188 0 7.660157 2.238281 9.496094 5.800781l1.085937 2.15625c33.152344 65.492188 75.328126 98.710938 125.417969 98.710938 50.09375 0 92.269531-33.21875 125.421875-98.710938l1.085938-2.15625c1.835937-3.5625 5.484375-5.800781 9.492187-5.800781 14.894531 0 34.667969-36.585938 34.667969-53.332031 0-22.679688-7.808594-29.226563-16.253906-32.898438-5.398438-2.34375-7.875-8.617187-5.546875-14.035156 2.34375-5.398437 8.660156-7.894531 14.035156-5.527344 19.585937 8.511719 29.097656 25.664063 29.097656 52.460938 0 20.648437-20.308593 67.15625-49.066406 73.855469-45.90625 88.722656-102.953125 107.476562-142.933594 107.476562zm0 0"/><path d="m74.601562 511.53125c-1.726562 0-3.453124-.425781-5.011718-1.324219-5.121094-2.921875-7.105469-9.066406-4.160156-14.1875 9.109374-15.871093 25.28125-44.007812 18.15625-66.066406-1.816407-5.613281 1.277343-11.628906 6.867187-13.417969 5.613281-1.835937 11.605469 1.277344 13.417969 6.867188 10.050781 31.0625-9.191406 64.511718-19.496094 82.519531-2.070312 3.496094-5.890625 5.609375-9.773438 5.609375zm0 0"/><path d="m345.601562 507.113281c-12.140624-18.898437-33.8125-52.585937-22.378906-84.074219 2.003906-5.523437 8.148438-8.363281 13.675782-6.378906 5.542968 2.007813 8.402343 8.128906 6.375 13.675782-7.828126 21.546874 10.136718 49.449218 19.777343 64.449218zm0 0"/></svg>
