<svg id="icon" height="511pt" viewBox="0 -18 511.88572 511" width="511pt" xmlns="http://www.w3.org/2000/svg"><path d="m471.957031 306.207031c-2.988281-2.984375-7.445312-3.921875-11.328125-2.429687-82.390625 31.316406-175.828125 11.347656-238.015625-50.839844-31.105469-31.082031-52.160156-70.207031-60.757812-111.761719l-4.03125-57.921875c1.238281-24.253906 5.910156-47.253906 13.953125-68.332031 1.46875-3.921875.53125-8.359375-2.433594-11.328125-2.964844-2.964844-7.402344-3.921875-11.328125-2.453125-32.726563 12.4375-61.757813 31.167969-86.273437 55.679687-95.65625 95.660157-95.65625 251.289063 0 346.96875 47.832031 47.828126 110.65625 71.765626 173.484374 71.765626 62.828126 0 125.652344-23.917969 173.484376-71.746094 24.488281-24.492188 43.242187-53.523438 55.679687-86.25 1.492187-3.945313.554687-8.363282-2.433594-11.351563zm0 0" fill="#ffc107"/><path d="m213.226562 336.972656c0 29.453125-23.878906 53.332032-53.332031 53.332032-29.457031 0-53.335937-23.878907-53.335937-53.332032 0-29.457031 23.878906-53.335937 53.335937-53.335937 29.453125 0 53.332031 23.878906 53.332031 53.335937zm0 0" fill="#ffe082"/><path d="m319.894531 379.636719c0 17.675781-14.328125 32-32 32-17.675781 0-32-14.324219-32-32 0-17.671875 14.324219-32 32-32 17.671875 0 32 14.328125 32 32zm0 0" fill="#ffe082"/><path d="m410.003906 40.160156c-10.175781-3.882812-21.035156-8.0625-32.617187-12.925781-4.609375-1.921875-9.792969-.472656-12.734375 3.496094-2.925782 3.96875-2.753906 9.410156.425781 13.183593 10.472656 12.503907 6.910156 20.4375 5.757813 23.0625-4.285157 9.621094-17.363282 17.898438-29.609376 21.503907-.019531-12.628907 0-30.058594 0-30.058594 0-4.949219-3.390624-9.28125-8.214843-10.390625-4.820313-1.257812-9.789063 1.195312-11.988281 5.613281l-7.550782 15.125c-2.796875-.042969-5.824218-.023437-8.640625.019531l-7.53125-14.144531c-2.28125-4.328125-7.253906-6.503906-11.988281-5.351562-4.757812 1.191406-8.085938 5.460937-8.085938 10.367187 0 0 .019532 16.574219.019532 28.820313-12.222656-3.605469-25.320313-11.882813-29.609375-21.503907-1.171875-2.625-4.734375-10.558593 5.761719-23.0625 3.15625-3.773437 3.328124-9.234374.425781-13.183593-2.945313-3.988281-8.191407-5.417969-12.734375-3.496094-11.585938 4.882813-22.464844 9.066406-32.621094 12.925781-52.542969 20.140625-90.496094 34.710938-101.757812 101.78125-.554688 3.308594.445312 6.65625 2.75 9.089844 2.242187 2.410156 5.460937 3.625 8.855468 3.304688 33.769532-3.433594 66.089844-4.011719 74.496094 15.039062 2.132812 4.867188 7.550781 7.40625 12.648438 5.953125 7.445312-2.152344 25.984374-1.320313 36.332031 7.871094 5.695312 5.035156 7.765625 11.96875 6.335937 21.101562-.683594 4.4375 1.472656 8.851563 5.4375 11.007813 3.96875 2.195312 8.8125 1.621094 12.183594-1.386719 5.203125-4.585937 16.53125-6.890625 25.152344-3.074219 6.632812 2.988282 9.984375 9.109375 9.984375 18.21875 0 5.890625 4.777343 10.667969 10.664062 10.667969 5.890625 0 10.667969-4.777344 10.667969-10.667969 0-9.40625 3.519531-15.699218 10.433594-18.730468 7.847656-3.433594 18.855468-1.875 24.488281 3.414062 3.265625 3.070312 8.042969 3.753906 11.988281 1.792969 3.992188-1.964844 6.335938-6.167969 5.910156-10.582031-.917968-9.535157 4.714844-16.40625 9.578126-20.457032 9.089843-7.554687 22.1875-11.011718 28.351562-9.175781 4.140625 1.175781 8.535156-.277344 11.222656-3.605469 15.765625-19.710937 50.347656-21.757812 75.179688-17.472656 3.371094.578125 6.890625-.53125 9.34375-2.964844 2.453125-2.429687 3.5625-5.910156 3.007812-9.34375-11.222656-67.070312-49.171875-81.621094-101.71875-101.78125zm0 0" fill="#455a64"/><path d="m245.226562 475.53125c-62.828124 0-125.652343-23.914062-173.484374-71.742188-95.65625-95.660156-95.65625-251.308593 0-346.96875 24.515624-24.511718 53.546874-43.242187 86.273437-55.679687 3.925781-1.492187 8.363281-.554687 11.328125 2.433594 2.988281 2.964843 3.925781 7.402343 2.433594 11.328125-8.085938 21.289062-12.800782 44.5-13.996094 68.96875-.257812 5.890625-4.542969 10.371094-11.15625 10.136718-5.867188-.277343-10.410156-5.292968-10.132812-11.160156.875-18.175781 3.539062-35.730468 7.957031-52.480468-21.378907 10.691406-40.683594 24.597656-57.621094 41.558593-87.339844 87.339844-87.339844 229.441407 0 316.800781 87.335937 87.339844 229.460937 87.339844 316.796875 0 16.917969-16.917968 30.808594-36.203124 41.496094-57.515624-84.246094 22.785156-175.253906-.832032-237.613282-63.167969-34.066406-34.046875-57.152343-76.90625-66.773437-123.988281-1.148437-5.78125 2.5625-11.414063 8.34375-12.585938 5.652344-1.175781 11.390625 2.539062 12.585937 8.320312 8.769532 42.964844 29.824219 82.089844 60.929688 113.171876 62.183594 62.1875 155.625 82.15625 238.015625 50.835937 3.902344-1.472656 8.359375-.554687 11.328125 2.433594 2.984375 2.964843 3.925781 7.402343 2.429688 11.328125-12.4375 32.726562-31.167969 61.738281-55.679688 86.25-47.808594 47.808594-110.632812 71.722656-173.460938 71.722656zm42.667969-63.894531c-17.644531 0-32-14.355469-32-32 0-17.640625 14.355469-32 32-32 17.640625 0 32 14.359375 32 32 0 17.644531-14.359375 32-32 32zm0-42.664063c-5.867187 0-10.667969 4.777344-10.667969 10.664063 0 5.890625 4.800782 10.667969 10.667969 10.667969 5.867188 0 10.664063-4.777344 10.664063-10.667969 0-5.886719-4.796875-10.664063-10.664063-10.664063zm-128 21.332032c-29.417969 0-53.335937-23.9375-53.335937-53.332032 0-29.398437 23.917968-53.335937 53.335937-53.335937s53.332031 23.9375 53.332031 53.335937c0 29.394532-23.914062 53.332032-53.332031 53.332032zm0-85.332032c-17.644531 0-32 14.355469-32 32 0 17.640625 14.355469 32 32 32 17.640625 0 32-14.359375 32-32 0-17.644531-14.359375-32-32-32zm0 0"/><path d="m311.53125 239.710938c-5.886719 0-10.667969-4.777344-10.667969-10.664063 0-9.109375-3.347656-15.210937-9.984375-18.199219-8.597656-3.839844-19.96875-1.535156-25.152344 3.074219-3.371093 3.007813-8.234374 3.5625-12.179687 1.386719-3.96875-2.15625-6.121094-6.570313-5.441406-11.007813 1.429687-9.152343-.640625-16.042969-6.335938-21.101562-10.34375-9.152344-28.882812-9.960938-36.328125-7.890625-5.078125 1.492187-10.496094-1.089844-12.628906-5.953125-8.429688-19.050781-40.769531-18.496094-74.496094-15.019531-3.394531.214843-6.613281-.894532-8.855468-3.304688-2.304688-2.453125-3.304688-5.78125-2.75-9.066406 11.242187-67.09375 49.214843-81.644532 101.757812-101.78125 10.15625-3.90625 21.035156-8.066406 32.621094-12.949219 4.542968-1.921875 9.789062-.472656 12.734375 3.496094 2.921875 3.96875 2.75 9.410156-.425781 13.183593-10.476563 12.503907-6.914063 20.460938-5.761719 23.085938 4.308593 9.621094 17.367187 17.898438 29.609375 21.503906 0-12.246094-.019532-28.84375-.019532-28.84375 0-4.886718 3.328126-9.175781 8.085938-10.347656 4.757812-1.238281 9.707031 1.003906 11.988281 5.332031l7.53125 14.144531c2.753907-.042968 5.824219-.019531 8.617188-.019531l7.554687-15.125c2.21875-4.4375 7.1875-6.765625 11.988282-5.613281 4.84375 1.109375 8.234374 5.421875 8.234374 10.371094 0 0-.019531 17.449218-.019531 30.078125 12.222657-3.582031 25.300781-11.882813 29.609375-21.503907 1.171875-2.625 4.734375-10.582031-5.761718-23.082031-3.15625-3.777343-3.328126-9.214843-.425782-13.183593 2.945313-3.96875 8.128906-5.417969 12.738282-3.5 11.582031 4.886718 22.484374 9.066406 32.617187 12.949218 52.542969 20.140625 90.496094 34.6875 101.757813 101.78125.554687 3.414063-.53125 6.871094-3.007813 9.324219-2.429687 2.429687-5.949219 3.539063-9.34375 2.964844-24.832031-4.265625-59.410156-2.242188-75.175781 17.492187-2.691406 3.328125-7.085938 4.738282-11.222656 3.585938-6.164063-1.707032-19.265626 1.621094-28.351563 9.195312-4.886719 4.050782-10.496094 10.898438-9.578125 20.433594.425781 4.417969-1.941406 8.621094-5.910156 10.582031-3.96875 1.984375-8.726563 1.261719-11.988282-1.769531-5.675781-5.289062-16.664062-6.785156-24.472656-3.414062-6.929687 3.007812-10.453125 9.324218-10.453125 18.710937-.039062 5.910156-4.796875 10.664063-10.707031 10.664063zm-30.335938-52.09375c6.398438 0 12.777344 1.238281 18.429688 3.777343 4.589844 2.046875 8.535156 4.863281 11.820312 8.296875 3.476563-3.734375 7.742188-6.761718 12.734376-8.917968 9.921874-4.308594 21.546874-4.648438 31.746093-1.535157 2.707031-7.871093 7.808594-15.082031 15.082031-21.140625 11.710938-9.75 27.476563-15.234375 40.8125-14.464844 18.773438-18.902343 48.660157-24.0625 75.882813-22.25-11.585937-43.007812-39-53.527343-85.3125-71.273437-2.925781-1.109375-5.890625-2.261719-8.917969-3.4375.746094 8.066406-1.238281 14.679687-3.15625 19.03125-9.582031 21.394531-38.296875 35.371094-59.394531 36.007813-3.027344 0-5.675781-1-7.699219-2.964844-2.113281-1.984375-3.285156-4.714844-3.328125-7.570313-.023437-1.152343-.023437-5.378906-.023437-10.773437-.53125 0-1.085938-.042969-1.621094-.128906-2.539062-.300782-15.828125-.234376-18.304688.019531-.445312.042969-.894531.042969-1.34375.066406 0 5.375 0 9.640625-.019531 10.816406-.042969 2.855469-1.214843 5.609375-3.285156 7.570313-2.070313 1.984375-4.757813 3.03125-7.703125 2.964844-21.140625-.636719-49.855469-14.613282-59.433594-36.007813-1.941406-4.351563-3.925781-10.964844-3.15625-19.03125-3.03125 1.175781-5.996094 2.304687-8.917968 3.4375-46.441407 17.789063-73.898438 28.328125-85.417969 71.65625 26.300781-1.960937 61.3125-1.449219 77.460937 21.527344 14.078125-1.367188 34.152344 1.832031 47.808594 13.949219 5.183594 4.589843 10.730469 11.648437 12.949219 21.910156 3.988281-1.003906 8.125-1.535156 12.308593-1.535156zm0 0"/><path d="m202.558594 90.378906c-2.730469 0-5.460938-1.042968-7.550782-3.113281-4.160156-4.160156-4.160156-10.921875 0-15.082031l32-32c4.160157-4.160156 10.921876-4.160156 15.082032 0s4.160156 10.921875 0 15.082031l-32 32c-2.070313 2.089844-4.800782 3.113281-7.53125 3.113281zm0 0"/><path d="m415.894531 90.378906c-3.4375 0-6.804687-1.664062-8.875-4.757812l-21.335937-32c-3.261719-4.90625-1.941406-11.519532 2.96875-14.78125 4.839844-3.265625 11.496094-1.964844 14.78125 2.964844l21.335937 32c3.261719 4.90625 1.941407 11.519531-2.96875 14.78125-1.8125 1.21875-3.859375 1.792968-5.90625 1.792968zm0 0"/></svg>
