<svg id="icon" height="512pt" viewBox="-11 0 512 512" width="512pt" xmlns="http://www.w3.org/2000/svg"><path d="m487.550781 259.113281-85.332031-85.332031c-4.160156-4.160156-10.921875-4.160156-15.082031 0l-67.136719 67.136719v-187.585938c0-3.5625-1.792969-6.890625-4.757812-8.875l-64-42.664062c-3.582032-2.367188-8.253907-2.367188-11.839844 0l-64 42.664062c-2.945313 1.984375-4.734375 5.3125-4.734375 8.875v187.585938l-67.117188-67.136719c-4.160156-4.160156-10.921875-4.160156-15.082031 0l-85.332031 85.332031c-2.710938 2.710938-3.753907 6.65625-2.753907 10.347657l64 234.667968c1.261719 4.648438 5.460938 7.871094 10.285157 7.871094h341.332031c4.820312 0 9.023438-3.222656 10.28125-7.851562l64-234.664063c1.003906-3.714844-.042969-7.660156-2.730469-10.371094zm0 0" fill="#455a64"/><path d="m245.332031 320c-41.171875 0-74.664062 33.492188-74.664062 74.667969v106.664062c0 5.890625 4.777343 10.667969 10.664062 10.667969h128c5.890625 0 10.667969-4.777344 10.667969-10.667969v-106.664062c0-41.175781-33.492188-74.667969-74.667969-74.667969zm0 0" fill="#607d8b"/><g fill="#fafafa"><path d="m245.332031 85.332031c-17.640625 0-32 14.359375-32 32v64c0 5.890625 4.78125 10.667969 10.667969 10.667969h42.667969c5.886719 0 10.664062-4.777344 10.664062-10.667969v-64c0-17.640625-14.355469-32-32-32zm0 0"/><path d="m96 256c-17.644531 0-32 14.355469-31.851562 33.75l10.667968 64c.851563 5.140625 5.3125 8.917969 10.515625 8.917969h32c5.890625 0 10.667969-4.78125 10.667969-10.667969v-64c0-17.644531-14.355469-32-32-32zm0 0"/><path d="m394.667969 256c-17.644531 0-32 14.355469-32 32v64c0 5.886719 4.777343 10.667969 10.664062 10.667969h32c5.207031 0 9.664063-3.777344 10.519531-8.917969l10.816407-65.75c0-17.644531-14.359375-32-32-32zm0 0"/></g><path d="m115.988281 91.242188c-1.769531-3.625-5.460937-5.910157-9.511719-5.929688-23.40625-.105469-42.476562-19.222656-42.476562-42.644531 0-9.152344 3.03125-17.984375 8.746094-25.539063 2.433594-3.21875 2.710937-7.570312.917968-11.199218-1.8125-3.648438-5.632812-5.929688-9.664062-5.929688-35.285156 0-64 28.714844-64 64s28.714844 64 64 64c20.097656 0 38.675781-9.34375 50.964844-25.601562 2.410156-3.21875 2.816406-7.550782 1.023437-11.15625zm0 0" fill="#ffc107"/><path d="m416 512h-341.332031c-4.824219 0-9.023438-3.222656-10.285157-7.871094l-64-234.667968c-1-3.691407.042969-7.636719 2.753907-10.347657l85.332031-85.332031c4.160156-4.160156 10.921875-4.160156 15.082031 0l67.117188 67.136719v-187.585938c0-3.5625 1.789062-6.890625 4.757812-8.875l64-42.664062c3.582031-2.390625 8.253907-2.390625 11.839844 0l64 42.664062c2.941406 1.984375 4.734375 5.3125 4.734375 8.875v187.585938l67.113281-67.117188c4.160157-4.15625 10.925781-4.15625 15.085938 0l85.332031 85.335938c2.707031 2.707031 3.753906 6.65625 2.75 10.347656l-64 234.664063c-1.257812 4.628906-5.460938 7.851562-10.28125 7.851562zm-333.183594-21.332031h325.035156l60.222657-220.84375-73.40625-73.410157-77.78125 77.785157c-3.074219 3.046875-7.660157 3.964843-11.628907 2.300781-3.988281-1.621094-6.589843-5.523438-6.589843-9.832031v-207.617188l-53.335938-35.5625-53.332031 35.5625v207.617188c0 4.308593-2.601562 8.210937-6.59375 9.855469-3.945312 1.683593-8.554688.746093-11.625-2.304688l-77.78125-77.804688-73.40625 73.410157zm0 0"/><path d="m309.332031 512c-5.886719 0-10.664062-4.777344-10.664062-10.667969v-106.664062c0-29.398438-23.914063-53.335938-53.335938-53.335938-29.417969 0-53.332031 23.9375-53.332031 53.335938v106.664062c0 5.890625-4.777344 10.667969-10.667969 10.667969-5.886719 0-10.664062-4.777344-10.664062-10.667969v-106.664062c0-41.175781 33.492187-74.667969 74.664062-74.667969 41.175781 0 74.667969 33.492188 74.667969 74.667969v106.664062c0 5.890625-4.777344 10.667969-10.667969 10.667969zm0 0"/><path d="m245.332031 512c-5.886719 0-10.664062-4.777344-10.664062-10.667969v-170.664062c0-5.890625 4.777343-10.667969 10.664062-10.667969 5.890625 0 10.667969 4.777344 10.667969 10.667969v170.664062c0 5.890625-4.777344 10.667969-10.667969 10.667969zm0 0"/><path d="m266.667969 192h-42.667969c-5.886719 0-10.667969-4.777344-10.667969-10.667969v-64c0-17.640625 14.359375-32 32-32 17.644531 0 32 14.359375 32 32v64c0 5.890625-4.777343 10.667969-10.664062 10.667969zm-32-21.332031h21.332031v-53.335938c0-5.886719-4.800781-10.664062-10.667969-10.664062-5.867187 0-10.664062 4.777343-10.664062 10.664062zm0 0"/><path d="m117.332031 362.667969h-32c-5.203125 0-9.664062-3.777344-10.515625-8.917969l-10.667968-64c-.148438-19.394531 14.207031-33.75 31.851562-33.75s32 14.355469 32 32v64c0 5.886719-4.777344 10.667969-10.667969 10.667969zm-22.976562-21.335938h12.3125v-53.332031c0-5.886719-4.800781-10.667969-10.667969-10.667969s-10.667969 4.78125-10.667969 10.667969zm0 0"/><path d="m405.332031 362.667969h-32c-5.886719 0-10.664062-4.78125-10.664062-10.667969v-64c0-17.644531 14.355469-32 32-32 17.640625 0 32 14.355469 32 32l-10.816407 65.75c-.855468 5.140625-5.3125 8.917969-10.519531 8.917969zm-21.332031-21.335938h12.289062l9.195313-55.082031c-.152344-4.136719-4.949219-8.917969-10.816406-8.917969-5.867188 0-10.667969 4.78125-10.667969 10.667969zm0 0"/><path d="m64 128c-35.285156 0-64-28.714844-64-64s28.714844-64 64-64c4.03125 0 7.851562 2.304688 9.664062 5.929688 1.792969 3.605468 1.515626 7.957031-.917968 11.179687-5.714844 7.574219-8.746094 16.40625-8.746094 25.558594 0 23.421875 19.070312 42.539062 42.476562 42.644531 4.050782.019531 7.742188 2.304688 9.511719 5.929688 1.792969 3.628906 1.386719 7.9375-1.023437 11.15625-12.289063 16.257812-30.867188 25.601562-50.964844 25.601562zm-19.050781-102.121094c-14.039063 7.015625-23.617188 21.460938-23.617188 38.121094 0 23.53125 19.136719 42.667969 42.667969 42.667969 6.71875 0 13.207031-1.578125 19.050781-4.546875-23.636719-9.449219-40.382812-32.554688-40.382812-59.453125 0-5.738281.765625-11.351563 2.28125-16.789063zm0 0"/></svg>
