<svg id="icon" height="512pt" viewBox="-64 0 512 512" width="512pt" xmlns="http://www.w3.org/2000/svg"><path d="m288 405.332031h-192c-5.886719 0-10.667969 4.78125-10.667969 10.667969v85.332031c0 5.890625 4.78125 10.667969 10.667969 10.667969h192c5.886719 0 10.667969-4.777344 10.667969-10.667969v-85.332031c0-5.886719-4.78125-10.667969-10.667969-10.667969zm0 0" fill="#ffb74d"/><path d="m362.667969 218.476562c-.023438-57.027343-.535157-94.359374-5.484375-124.417968-.875-5.289063-4.863282-8.769532-10.945313-8.9375l-2.195312.085937c-16.683594-9.472656-73.066407-36.246093-99.90625-22.65625-30.847657-12.160156-73.449219-12.160156-104.316407 0-26.839843-13.65625-83.203124 13.160157-99.882812 22.65625l-2.175781-.085937c-5.976563-.171875-10.070313 3.625-10.945313 8.9375-4.949218 30.039062-5.460937 67.328125-5.484375 124.289062-14.335937 9.386719-21.332031 25.300782-21.332031 48.320313 0 20.5 19.988281 66.496093 48.339844 73.707031.554687 1.640625 1.152344 3.539062 1.835937 5.609375 9.941407 30.507813 33.214844 102.015625 141.824219 102.015625 113.367188 0 133.398438-71.273438 141.953125-101.71875.617187-2.21875 1.152344-4.203125 1.683594-5.949219 28.375-7.339843 48.363281-53.207031 48.363281-73.664062 0-23.019531-6.996094-38.871094-21.332031-48.191407zm0 0" fill="#ffcc80"/><path d="m192 0c-103.617188 0-152.0625 13.589844-165.207031 94.078125-.488281 3.011719.34375 6.082031 2.285156 8.472656 1.941406 2.386719 4.777344 3.773438 7.828125 3.902344l5.332031.214844c2.027344-.152344 4.289063-.492188 6.125-1.644531 23.1875-14.632813 73.8125-31.699219 82.75-22.804688 3.179688 3.15625 8 4.011719 12.054688 2.132812 27.371093-12.84375 70.25-12.84375 97.621093 0 4.054688 1.878907 8.894532 1.023438 12.054688-2.132812 8.957031-8.894531 59.5625 8.191406 82.75 22.804688 1.75 1.089843 3.734375 1.644531 5.738281 1.644531h.429688l5.332031-.214844c3.050781-.128906 5.910156-1.535156 7.851562-3.925781 1.941407-2.390625 2.75-5.460938 2.261719-8.449219-13.144531-80.488281-61.589843-94.078125-165.207031-94.078125zm0 0" fill="#ffb74d"/><path d="m192 448c-108.800781 0-131.925781-71.574219-141.800781-102.164062-.640625-2.007813-1.238281-3.839844-1.773438-5.460938-28.414062-7.234375-48.425781-53.207031-48.425781-73.707031 0-26.796875 9.515625-43.96875 29.078125-52.460938 5.417969-2.261719 11.691406.148438 14.035156 5.546875 2.347657 5.398438-.125 11.691406-5.523437 14.039063-8.449219 3.667969-16.257813 10.195312-16.257813 32.875 0 16.722656 19.777344 53.332031 34.667969 53.332031 3.988281 0 7.679688 2.238281 9.492188 5.800781 1.539062 3.011719 3.117187 7.640625 4.992187 13.484375 9.878906 30.527344 28.246094 87.382813 121.515625 87.382813 97.152344 0 112.960938-55.957031 121.449219-86.015625 1.75-6.1875 3.117187-11.09375 5.035156-14.828125 1.835937-3.585938 5.503906-5.824219 9.515625-5.824219 14.890625 0 34.667969-36.609375 34.667969-53.332031 0-22.679688-7.808594-29.207031-16.257813-32.875-5.398437-2.347657-7.894531-8.640625-5.523437-14.039063 2.324219-5.417968 8.574219-7.828125 14.035156-5.546875 19.5625 8.492188 29.078125 25.664063 29.078125 52.460938 0 20.457031-19.96875 66.324219-48.277344 73.664062-.535156 1.789063-1.089844 3.859375-1.75 6.101563-8.574218 30.398437-28.691406 101.566406-141.972656 101.566406zm0 0"/><path d="m352 234.667969c-5.886719 0-10.667969-4.78125-10.667969-10.667969 0-175.660156 0-202.667969-149.332031-202.667969s-149.332031 27.007813-149.332031 202.667969c0 5.886719-4.78125 10.667969-10.667969 10.667969s-10.667969-4.78125-10.667969-10.667969c0-181.226562 6.253907-224 170.667969-224s170.667969 42.773438 170.667969 224c0 5.886719-4.78125 10.667969-10.667969 10.667969zm0 0"/><path d="m160 213.332031h-53.332031c-5.890625 0-10.667969-4.777343-10.667969-10.664062 0-5.890625 4.777344-10.667969 10.667969-10.667969h53.332031c5.886719 0 10.667969 4.777344 10.667969 10.667969 0 5.886719-4.78125 10.664062-10.667969 10.664062zm0 0"/><path d="m277.332031 213.332031h-53.332031c-5.886719 0-10.667969-4.777343-10.667969-10.664062 0-5.890625 4.78125-10.667969 10.667969-10.667969h53.332031c5.890625 0 10.667969 4.777344 10.667969 10.667969 0 5.886719-4.777344 10.664062-10.667969 10.664062zm0 0"/><path d="m245.332031 373.332031c-5.886719 0-10.664062-4.777343-10.664062-10.664062h-85.335938c0 5.886719-4.777343 10.664062-10.664062 10.664062-5.890625 0-10.667969-4.777343-10.667969-10.664062v-10.667969c0-5.886719 4.777344-10.667969 10.667969-10.667969h106.664062c5.890625 0 10.667969 4.78125 10.667969 10.667969v10.667969c0 5.886719-4.777344 10.664062-10.667969 10.664062zm0 0"/><path d="m138.667969 234.667969h-10.667969c-5.886719 0-10.667969-4.78125-10.667969-10.667969s4.78125-10.667969 10.667969-10.667969h10.667969c5.886719 0 10.664062 4.78125 10.664062 10.667969s-4.777343 10.667969-10.664062 10.667969zm0 0"/><path d="m256 234.667969h-10.667969c-5.886719 0-10.664062-4.78125-10.664062-10.667969s4.777343-10.667969 10.664062-10.667969h10.667969c5.886719 0 10.667969 4.78125 10.667969 10.667969s-4.78125 10.667969-10.667969 10.667969zm0 0"/><path d="m341.332031 106.667969c-1.941406 0-3.902343-.511719-5.671875-1.644531-23.210937-14.613282-73.816406-31.679688-82.773437-22.804688-3.179688 3.136719-8 4.011719-12.054688 2.132812-26.921875-12.585937-70.71875-12.585937-97.644531 0-4.050781 1.898438-8.871094 1.046876-12.050781-2.132812-8.960938-8.917969-59.542969 8.214844-82.773438 22.804688-4.972656 3.179687-11.5625 1.621093-14.71875-3.328126-3.136719-4.992187-1.644531-11.582031 3.324219-14.71875 11.371094-7.167968 74.070312-38.933593 102.871094-24.425781 30.847656-12.117187 73.449218-12.117187 104.320312 0 28.800782-14.570312 91.5 17.257813 102.871094 24.425781 4.96875 3.113282 6.484375 9.726563 3.347656 14.699219-2.046875 3.21875-5.503906 4.992188-9.046875 4.992188zm0 0"/><path d="m96 512c-5.886719 0-10.667969-4.777344-10.667969-10.667969v-85.332031c0-5.886719 4.78125-10.667969 10.667969-10.667969s10.667969 4.78125 10.667969 10.667969v85.332031c0 5.890625-4.78125 10.667969-10.667969 10.667969zm0 0"/><path d="m288 512c-5.886719 0-10.667969-4.777344-10.667969-10.667969v-85.332031c0-5.886719 4.78125-10.667969 10.667969-10.667969s10.667969 4.78125 10.667969 10.667969v85.332031c0 5.890625-4.78125 10.667969-10.667969 10.667969zm0 0"/><path d="m330.667969 469.332031h-42.667969c-5.886719 0-10.667969-4.777343-10.667969-10.664062 0-5.890625 4.78125-10.667969 10.667969-10.667969h42.667969c5.886719 0 10.664062 4.777344 10.664062 10.667969 0 5.886719-4.777343 10.664062-10.664062 10.664062zm0 0"/><path d="m330.667969 480c-5.890625 0-10.667969-4.777344-10.667969-10.667969v-21.332031c0-5.886719 4.777344-10.667969 10.667969-10.667969 5.886719 0 10.664062 4.78125 10.664062 10.667969v21.332031c0 5.890625-4.777343 10.667969-10.664062 10.667969zm0 0"/><path d="m96 469.332031h-42.667969c-5.886719 0-10.664062-4.777343-10.664062-10.664062 0-5.890625 4.777343-10.667969 10.664062-10.667969h42.667969c5.886719 0 10.667969 4.777344 10.667969 10.667969 0 5.886719-4.78125 10.664062-10.667969 10.664062zm0 0"/><path d="m53.332031 480c-5.886719 0-10.664062-4.777344-10.664062-10.667969v-21.332031c0-5.886719 4.777343-10.667969 10.664062-10.667969 5.890625 0 10.667969 4.78125 10.667969 10.667969v21.332031c0 5.890625-4.777344 10.667969-10.667969 10.667969zm0 0"/><path d="m170.667969 160c-.855469 0-1.730469-.105469-2.605469-.320312l-128-32c-5.695312-1.429688-9.171875-7.230469-7.742188-12.925782 1.429688-5.742187 7.230469-9.195312 12.925782-7.765625l128 32c5.71875 1.425781 9.195312 7.230469 7.765625 12.925781-1.214844 4.863282-5.546875 8.085938-10.34375 8.085938zm0 0"/><path d="m64 149.332031c-1.621094 0-3.242188-.363281-4.777344-1.128906-5.269531-2.644531-7.402344-9.046875-4.757812-14.316406l10.664062-21.332031c2.648438-5.246094 9.046875-7.402344 14.316406-4.757813 5.269532 2.644531 7.402344 9.046875 4.777344 14.316406l-10.664062 21.332031c-1.898438 3.710938-5.65625 5.886719-9.558594 5.886719zm0 0"/><path d="m106.667969 160c-1.601563 0-3.222657-.363281-4.757813-1.128906-5.292968-2.648438-7.425781-9.046875-4.78125-14.316406l10.667969-21.332032c2.644531-5.269531 9.023437-7.445312 14.316406-4.78125 5.269531 2.648438 7.402344 9.046875 4.777344 14.316406l-10.667969 21.332032c-1.898437 3.734375-5.652344 5.910156-9.554687 5.910156zm0 0"/><path d="m149.332031 170.667969c-1.621093 0-3.242187-.363281-4.777343-1.132813-5.269532-2.644531-7.402344-9.042968-4.757813-14.3125l10.667969-21.335937c2.644531-5.246094 9.023437-7.421875 14.3125-4.777344 5.269531 2.644531 7.402344 9.046875 4.78125 14.316406l-10.667969 21.332031c-1.898437 3.734376-5.652344 5.910157-9.558594 5.910157zm0 0"/></svg>
