<svg id="icon" height="512pt" viewBox="0 -85 512 512" width="512pt" xmlns="http://www.w3.org/2000/svg"><path d="m445.972656 232.617188c-4.4375-.957032-8.894531.941406-11.285156 4.738281-15.808594 25.042969-42.730469 40-72.019531 40-37.503907 0-70.058594-24.363281-81.066407-60.609375-1.28125-4.179688-4.972656-7.1875-9.34375-7.53125l-11.84375-.917969c-3.476562-.253906-6.890624 1.238281-9.105468 3.96875-22.421875 27.796875-55.703125 43.753906-91.308594 43.753906-34.304688 0-66.835938-15.015625-89.214844-41.234375-2.5625-3.007812-7.019531-4.671875-10.6875-3.839844-8.875-.621093-32.171875-2.21875-47.320312 11.945313-8.46875 7.914063-12.777344 19.050781-12.777344 33.109375 0 65.324219 219.519531 83.457031 244.542969 85.3125 6.527343.46875 13.953125.703125 22.144531.703125 79.125 0 226.367188-22.675781 244.652344-71.617187.425781-1.171876.660156-2.453126.660156-3.730469 0-12.183594-11.050781-22.125-66.027344-34.050781zm0 0" fill="#607d8b"/><path d="m362.667969 96c-30.507813 0-57.386719 14.507812-74.964844 36.714844.082031 1.984375.296875 3.945312.296875 5.953125 0 25.109375-7.339844 48.46875-19.839844 68.222656 7.1875 45.886719 46.570313 81.109375 94.507813 81.109375 53.011719 0 96-42.988281 96-96s-42.988281-96-96-96zm0 0" fill="#eceff1"/><path d="m288 138.667969c0 70.691406-57.308594 128-128 128s-128-57.308594-128-128c0-70.695313 57.308594-128 128-128s128 57.304687 128 128zm0 0" fill="#eceff1"/><path d="m234.667969 138.667969c0 41.234375-33.429688 74.664062-74.667969 74.664062s-74.667969-33.429687-74.667969-74.664062c0-41.238281 33.429688-74.667969 74.667969-74.667969s74.667969 33.429688 74.667969 74.667969zm0 0" fill="#607d8b"/><path d="m448 192c0 35.347656-28.652344 64-64 64s-64-28.652344-64-64 28.652344-64 64-64 64 28.652344 64 64zm0 0" fill="#607d8b"/><path d="m426.667969 192c0 11.78125-9.550781 21.332031-21.335938 21.332031-11.78125 0-21.332031-9.550781-21.332031-21.332031s9.550781-21.332031 21.332031-21.332031c11.785157 0 21.335938 9.550781 21.335938 21.332031zm0 0" fill="#fafafa"/><path d="m181.332031 138.667969c0 11.78125-9.550781 21.332031-21.332031 21.332031s-21.332031-9.550781-21.332031-21.332031c0-11.785157 9.550781-21.335938 21.332031-21.335938s21.332031 9.550781 21.332031 21.335938zm0 0" fill="#fafafa"/><path d="m405.332031 213.332031c-11.773437 0-21.332031-9.578125-21.332031-21.332031s9.558594-21.332031 21.332031-21.332031c11.777344 0 21.335938 9.578125 21.335938 21.332031s-9.558594 21.332031-21.335938 21.332031zm0-21.351562c0 .019531 0 .019531 0 0l10.667969.019531zm0 0"/><path d="m160 213.332031c-41.171875 0-74.667969-33.492187-74.667969-74.664062 0-41.175781 33.496094-74.667969 74.667969-74.667969s74.667969 33.492188 74.667969 74.667969c0 41.171875-33.496094 74.664062-74.667969 74.664062zm0-128c-29.417969 0-53.332031 23.9375-53.332031 53.335938 0 29.394531 23.914062 53.332031 53.332031 53.332031s53.332031-23.9375 53.332031-53.332031c0-29.398438-23.914062-53.335938-53.332031-53.335938zm0 0"/><path d="m160 160c-11.777344 0-21.332031-9.578125-21.332031-21.332031 0-11.757813 9.554687-21.335938 21.332031-21.335938s21.332031 9.578125 21.332031 21.335938c0 11.753906-9.554687 21.332031-21.332031 21.332031zm0-21.355469c0 .023438 0 .023438 0 0l10.667969.023438zm0 0"/><path d="m384 256c-35.285156 0-64-28.714844-64-64s28.714844-64 64-64 64 28.714844 64 64-28.714844 64-64 64zm0-106.667969c-23.53125 0-42.667969 19.136719-42.667969 42.667969s19.136719 42.667969 42.667969 42.667969 42.667969-19.136719 42.667969-42.667969-19.136719-42.667969-42.667969-42.667969zm0 0"/><path d="m266.6875 342.039062c-8.191406 0-15.617188-.257812-22.144531-.726562-25.023438-1.855469-244.542969-20.011719-244.542969-85.3125 0-14.058594 4.308594-25.214844 12.800781-33.128906 15.1875-14.167969 38.527344-12.503906 47.316407-11.925782 3.691406-.8125 8.148437.832032 10.6875 3.816407 22.402343 26.21875 54.890624 41.238281 89.214843 41.238281 35.605469 0 68.886719-15.957031 91.308594-43.753906 2.21875-2.710938 5.398437-4.226563 9.085937-3.949219l11.863282.898437c4.375.363282 8.085937 3.347657 9.34375 7.550782 11.007812 36.246094 43.5625 60.585937 81.066406 60.585937 29.292969 0 56.214844-14.953125 72.023438-40 2.386718-3.796875 6.824218-5.589843 11.285156-4.734375 54.953125 11.945313 66.003906 21.886719 66.003906 34.070313 0 1.277343-.234375 2.539062-.660156 3.730469-18.285156 48.941406-165.527344 71.640624-244.652344 71.640624zm-215.914062-110.125c-7.574219 0-17.535157 1.066407-23.425782 6.570313-4.050781 3.753906-6.015625 9.496094-6.015625 17.515625 0 27.925781 118.464844 56.148438 224.789063 64.019531 72.386718 5.355469 217.558594-19.050781 242.453125-52.15625-4.5625-2.519531-15.378907-7.105469-40.148438-12.867187-20.09375 27.5-51.625 43.671875-85.757812 43.671875-44.269531 0-83.074219-27.074219-98.882813-68.140625-26.34375 29.824218-63.828125 46.804687-103.785156 46.804687-38.976562 0-76.011719-16.402343-102.292969-45.183593-1.8125-.105469-4.222656-.234376-6.933593-.234376zm0 0"/><path d="m362.667969 298.667969c-52.671875 0-96.832031-37.910157-105.046875-90.132813-.40625-2.5625.148437-5.1875 1.515625-7.363281 11.902343-18.773437 18.195312-40.402344 18.195312-62.503906l-.296875-5.527344c-.105468-2.558594.703125-5.078125 2.304688-7.082031 20.523437-25.878906 50.878906-40.746094 83.304687-40.746094 58.816407 0 106.667969 47.851562 106.667969 106.667969 0 58.8125-47.828125 106.6875-106.644531 106.6875zm-83.285157-89.664063c8.042969 39.828125 42.472657 68.328125 83.285157 68.328125 47.058593 0 85.332031-38.269531 85.332031-85.332031s-38.273438-85.332031-85.332031-85.332031c-24.578125 0-47.703125 10.730469-64.066407 29.609375.042969.960937.066407 1.664062.066407 2.390625 0 24.746093-6.65625 48.980469-19.285157 70.335937zm0 0"/><path d="m160 277.332031c-76.457031 0-138.667969-62.207031-138.667969-138.664062 0-76.460938 62.210938-138.667969 138.667969-138.667969s138.667969 62.207031 138.667969 138.667969c0 76.457031-62.210938 138.664062-138.667969 138.664062zm0-256c-64.683594 0-117.332031 52.628907-117.332031 117.335938 0 64.703125 52.648437 117.332031 117.332031 117.332031s117.332031-52.628906 117.332031-117.332031c0-64.707031-52.648437-117.335938-117.332031-117.335938zm0 0"/><path d="m117.332031 64c-5.886719 0-10.664062-4.777344-10.664062-10.667969v-32c0-5.886719 4.777343-10.664062 10.664062-10.664062 5.890625 0 10.667969 4.777343 10.667969 10.664062v32c0 5.910157-4.777344 10.667969-10.667969 10.667969zm0 0"/><path d="m74.667969 106.667969c-2.730469 0-5.460938-1.046875-7.554688-3.117188l-21.332031-21.332031c-4.160156-4.160156-4.160156-10.921875 0-15.082031 4.160156-4.160157 10.921875-4.160157 15.082031 0l21.335938 21.332031c4.15625 4.160156 4.15625 10.921875 0 15.082031-2.070313 2.09375-4.800781 3.117188-7.53125 3.117188zm0 0"/><path d="m170.667969 53.332031c-2.730469 0-5.460938-1.042969-7.554688-3.113281-4.160156-4.160156-4.160156-10.921875 0-15.082031l21.335938-21.335938c4.160156-4.15625 10.921875-4.15625 15.082031 0 4.160156 4.160157 4.160156 10.925781 0 15.085938l-21.332031 21.332031c-2.070313 2.089844-4.800781 3.113281-7.53125 3.113281zm0 0"/><path d="m202.667969 64c-1.601563 0-3.222657-.363281-4.78125-1.128906l-21.332031-10.667969c-5.269532-2.625-7.382813-9.023437-4.757813-14.292969 2.644531-5.269531 9.066406-7.359375 14.316406-4.78125l21.332031 10.667969c5.269532 2.644531 7.382813 9.046875 4.757813 14.316406-1.878906 3.730469-5.632813 5.886719-9.535156 5.886719zm0 0"/><path d="m245.332031 106.667969c-2.730469 0-5.460937-1.046875-7.550781-3.117188-4.160156-4.160156-4.160156-10.921875 0-15.082031l21.332031-21.332031c4.160157-4.160157 10.925781-4.160157 15.085938 0 4.15625 4.160156 4.15625 10.921875 0 15.082031l-21.335938 21.332031c-2.070312 2.09375-4.800781 3.117188-7.53125 3.117188zm0 0"/><path d="m277.332031 181.332031c-2.730469 0-5.460937-1.042969-7.550781-3.113281l-10.667969-10.667969c-4.160156-4.160156-4.160156-10.921875 0-15.082031 4.160157-4.160156 10.925781-4.160156 15.085938 0l10.664062 10.667969c4.160157 4.160156 4.160157 10.921875 0 15.082031-2.070312 2.089844-4.800781 3.113281-7.53125 3.113281zm0 0"/><path d="m213.332031 256c-1.128906 0-2.238281-.171875-3.371093-.554688-5.585938-1.855468-8.59375-7.894531-6.738282-13.484374l10.664063-32c1.878906-5.585938 7.914062-8.574219 13.503906-6.738282 5.589844 1.855469 8.597656 7.890625 6.742187 13.480469l-10.667968 32c-1.511719 4.480469-5.671875 7.296875-10.132813 7.296875zm0 0"/><path d="m160 277.332031c-2.730469 0-5.460938-1.042969-7.550781-3.113281l-42.667969-42.667969c-4.160156-4.160156-4.160156-10.921875 0-15.082031s10.921875-4.160156 15.082031 0l42.667969 42.667969c4.160156 4.160156 4.160156 10.921875 0 15.082031-2.070312 2.089844-4.800781 3.113281-7.53125 3.113281zm0 0"/><path d="m138.667969 256c-4.460938 0-8.621094-2.816406-10.132813-7.296875-1.859375-5.589844 1.171875-11.625 6.738282-13.480469l32-10.667968c5.589843-1.835938 11.628906 1.152343 13.503906 6.742187 1.855468 5.589844-1.171875 11.625-6.738282 13.480469l-32 10.667968c-1.132812.382813-2.242187.554688-3.371093.554688zm0 0"/><path d="m42.667969 160c-1.601563 0-3.222657-.363281-4.78125-1.128906-5.269531-2.648438-7.402344-9.046875-4.777344-14.316406l10.667969-21.332032c2.644531-5.292968 9.066406-7.359375 14.3125-4.78125 5.292968 2.667969 7.402344 9.066406 4.78125 14.335938l-10.667969 21.335937c-1.878906 3.730469-5.632813 5.886719-9.535156 5.886719zm0 0"/><path d="m64 181.332031c-2.730469 0-5.460938-1.042969-7.550781-3.113281l-21.335938-21.332031c-4.160156-4.160157-4.160156-10.925781 0-15.085938 4.160157-4.15625 10.925781-4.15625 15.085938 0l21.332031 21.335938c4.160156 4.160156 4.160156 10.921875 0 15.082031-2.070312 2.089844-4.800781 3.113281-7.53125 3.113281zm0 0"/></svg>
