<svg id="icon" height="512pt" viewBox="-11 0 512 512.00533" width="512pt" xmlns="http://www.w3.org/2000/svg"><g fill="#455a64"><path d="m53.34375 128.003906h-42.664062c-4.308594 0-8.214844-2.601562-9.855469-6.589844-1.644531-3.988281-.7265628-8.554687 2.300781-11.628906l21.335938-21.332031c4.160156-4.160156 10.921874-4.160156 15.082031 0l21.332031 21.332031c3.050781 3.074219 3.96875 7.640625 2.328125 11.628906-1.644531 3.988282-5.546875 6.589844-9.859375 6.589844zm0 0"/><path d="m160.011719 85.339844h-42.667969c-4.308594 0-8.210938-2.605469-9.855469-6.59375-1.640625-3.988282-.722656-8.554688 2.304688-11.625l21.332031-21.335938c4.160156-4.160156 10.925781-4.160156 15.085938 0l21.332031 21.335938c3.050781 3.070312 3.96875 7.636718 2.324219 11.625-1.640626 3.988281-5.546876 6.59375-9.855469 6.59375zm0 0"/><path d="m480.011719 128.003906h-42.667969c-4.308594 0-8.210938-2.601562-9.855469-6.589844-1.640625-3.988281-.722656-8.578124 2.304688-11.628906l21.332031-21.332031c4.160156-4.160156 10.925781-4.160156 15.085938 0l21.332031 21.332031c3.050781 3.050782 3.96875 7.640625 2.304687 11.628906-1.664062 3.988282-5.527344 6.589844-9.835937 6.589844zm0 0"/><path d="m373.34375 85.339844h-42.664062c-4.308594 0-8.214844-2.605469-9.855469-6.59375-1.644531-3.988282-.726563-8.574219 2.300781-11.625l21.335938-21.335938c4.160156-4.160156 10.921874-4.160156 15.082031 0l21.332031 21.335938c3.050781 3.050781 3.96875 7.636718 2.304688 11.625-1.664063 3.988281-5.523438 6.59375-9.835938 6.59375zm0 0"/><path d="m266.679688 42.671875h-42.667969c-4.308594 0-8.210938-2.601563-9.855469-6.59375-1.644531-3.988281-.726562-8.574219 2.304688-11.625l21.332031-21.332031c4.160156-4.160156 10.921875-4.160156 15.082031 0l21.335938 21.332031c3.050781 3.050781 3.964843 7.636719 2.300781 11.625-1.664063 3.992187-5.523438 6.59375-9.832031 6.59375zm0 0"/></g><path d="m32.011719 512.003906c-5.886719 0-10.667969-4.777344-10.667969-10.664062v-384c0-5.890625 4.78125-10.667969 10.667969-10.667969s10.667969 4.777344 10.667969 10.667969v384c0 5.886718-4.78125 10.664062-10.667969 10.664062zm0 0"/><path d="m53.34375 128.003906h-42.664062c-4.308594 0-8.214844-2.601562-9.855469-6.589844-1.664063-3.96875-.7500002-8.578124 2.300781-11.628906l21.335938-21.332031c4.160156-4.160156 10.921874-4.160156 15.082031 0l21.332031 21.332031c3.074219 3.050782 3.992188 7.660156 2.328125 11.628906-1.644531 3.988282-5.546875 6.589844-9.859375 6.589844zm0 0"/><path d="m138.679688 512.003906c-5.890626 0-10.667969-4.777344-10.667969-10.664062v-426.667969c0-5.886719 4.777343-10.667969 10.667969-10.667969 5.886718 0 10.664062 4.78125 10.664062 10.667969v426.667969c0 5.886718-4.777344 10.664062-10.664062 10.664062zm0 0"/><path d="m160.011719 85.339844h-42.667969c-4.308594 0-8.210938-2.605469-9.855469-6.59375-1.664062-3.96875-.746093-8.574219 2.304688-11.625l21.332031-21.335938c4.160156-4.160156 10.925781-4.160156 15.085938 0l21.332031 21.335938c3.070312 3.050781 3.988281 7.65625 2.324219 11.625-1.640626 3.988281-5.546876 6.59375-9.855469 6.59375zm0 0"/><path d="m458.679688 512.003906c-5.890626 0-10.667969-4.777344-10.667969-10.664062v-384c0-5.890625 4.777343-10.667969 10.667969-10.667969 5.886718 0 10.664062 4.777344 10.664062 10.667969v384c0 5.886718-4.777344 10.664062-10.664062 10.664062zm0 0"/><path d="m480.011719 128.003906h-42.667969c-4.308594 0-8.210938-2.601562-9.855469-6.589844-1.664062-3.988281-.746093-8.578124 2.304688-11.628906l21.332031-21.332031c4.160156-4.160156 10.925781-4.160156 15.085938 0l21.332031 21.332031c3.050781 3.050782 3.96875 7.640625 2.304687 11.628906-1.621094 3.988282-5.527344 6.589844-9.835937 6.589844zm0 0"/><path d="m352.011719 512.003906c-5.886719 0-10.667969-4.777344-10.667969-10.664062v-426.667969c0-5.886719 4.78125-10.667969 10.667969-10.667969s10.667969 4.78125 10.667969 10.667969v426.667969c0 5.886718-4.78125 10.664062-10.667969 10.664062zm0 0"/><path d="m373.34375 85.339844h-42.664062c-4.308594 0-8.214844-2.605469-9.855469-6.59375-1.664063-3.988282-.75-8.574219 2.300781-11.625l21.335938-21.335938c4.160156-4.160156 10.921874-4.160156 15.082031 0l21.332031 21.335938c3.050781 3.050781 3.96875 7.636718 2.304688 11.625-1.621094 3.988281-5.523438 6.59375-9.835938 6.59375zm0 0"/><path d="m245.34375 512.003906c-5.886719 0-10.664062-4.777344-10.664062-10.664062v-469.335938c0-5.886718 4.777343-10.664062 10.664062-10.664062 5.890625 0 10.667969 4.777344 10.667969 10.664062v469.335938c0 5.886718-4.777344 10.664062-10.667969 10.664062zm0 0"/><path d="m266.679688 42.671875h-42.667969c-4.308594 0-8.210938-2.601563-9.855469-6.59375-1.664062-3.988281-.746094-8.574219 2.304688-11.625l21.332031-21.332031c4.160156-4.160156 10.921875-4.160156 15.082031 0l21.335938 21.332031c3.050781 3.050781 3.964843 7.636719 2.300781 11.625-1.621094 3.992187-5.523438 6.59375-9.832031 6.59375zm0 0"/><path d="m480.011719 426.671875h-469.332031c-5.890626 0-10.6679692-4.777344-10.6679692-10.667969 0-5.886718 4.7773432-10.664062 10.6679692-10.664062h469.332031c5.886719 0 10.667969 4.777344 10.667969 10.664062 0 5.890625-4.78125 10.667969-10.667969 10.667969zm0 0"/><path d="m480.011719 298.671875h-469.332031c-5.890626 0-10.6679692-4.777344-10.6679692-10.667969 0-5.886718 4.7773432-10.664062 10.6679692-10.664062h469.332031c5.886719 0 10.667969 4.777344 10.667969 10.664062 0 5.890625-4.78125 10.667969-10.667969 10.667969zm0 0"/><path d="m480.011719 170.671875c-.320313 0-.640625-.019531-.980469-.042969l-234.667969-21.332031-232.722656 21.332031c-5.867187.363282-11.03125-3.796875-11.5859375-9.664062-.5312495-5.84375 3.7968745-11.050782 9.6640625-11.582032l234.667969-21.335937 236.605469 21.335937c5.867187.53125 10.199218 5.738282 9.664062 11.582032-.53125 5.546875-5.183594 9.707031-10.644531 9.707031zm0 0"/></svg>
