<svg id="icon" height="512pt" viewBox="0 -11 512.02139 512" width="512pt" xmlns="http://www.w3.org/2000/svg"><path d="m245.332031.0117188c-135.273437 0-245.332031 110.0585932-245.332031 245.3320312s110.058594 245.332031 245.332031 245.332031c92.3125 0 175.914063-51.15625 218.199219-133.523437 2.6875-5.25.617188-11.667969-4.609375-14.359375-.425781-.210938-.894531-.210938-1.34375-.382813l13.589844-37.910156c.449219.171875.8125.46875 1.300781.578125 5.847656 1.128906 11.433594-2.433594 12.671875-8.214844 3.671875-17.085937 5.527344-34.410156 5.527344-51.519531 0-135.273438-110.058594-245.3320312-245.335938-245.3320312zm0 0" fill="#ffc107"/><path d="m192 160.011719c0 29.453125-23.878906 53.332031-53.332031 53.332031-29.457031 0-53.335938-23.878906-53.335938-53.332031 0-29.457031 23.878907-53.335938 53.335938-53.335938 29.453125 0 53.332031 23.878907 53.332031 53.335938zm0 0" fill="#ffe082"/><path d="m277.332031 74.675781c0 17.675781-14.324219 32-32 32-17.671875 0-32-14.324219-32-32 0-17.671875 14.328125-32 32-32 17.675781 0 32 14.328125 32 32zm0 0" fill="#ffe082"/><path d="m410.070312 248.457031c-10.15625-3.902343-21.015624-8.0625-32.597656-12.925781-4.480468-1.878906-9.769531-.449219-12.714844 3.5-2.921874 3.964844-2.753906 9.40625.425782 13.183594 10.476562 12.5 6.933594 20.457031 5.761718 23.058594-4.3125 9.621093-17.386718 17.898437-29.613281 21.527343 0-12.652343.023438-30.082031.023438-30.082031 0-4.949219-3.394531-9.277344-8.214844-10.386719-4.863281-1.261719-9.792969 1.191407-11.988281 5.609375l-7.574219 15.167969c-2.816406-.042969-5.886719-.042969-8.617187 0l-7.53125-14.121094c-2.28125-4.3125-7.230469-6.53125-11.988282-5.355469-4.78125 1.152344-8.109375 5.417969-8.109375 10.347657 0 0 .023438 16.574219.023438 28.820312-12.226563-3.628906-25.300781-11.90625-29.613281-21.527343-1.171876-2.601563-4.710938-10.558594 5.761718-23.058594 3.15625-3.777344 3.347656-9.238282.425782-13.183594-2.941407-3.96875-8.234376-5.378906-12.714844-3.5-11.582032 4.886719-22.441406 9.042969-32.597656 12.925781-52.542969 20.140625-90.539063 34.710938-101.78125 101.78125-.554688 3.285157.449218 6.65625 2.730468 9.070313 2.285156 2.429687 5.632813 3.730468 8.875 3.304687 33.6875-3.457031 66.070313-4.011719 74.476563 15.039063 2.152343 4.863281 7.574219 7.445312 12.671875 5.953125 7.488281-2.113281 25.984375-1.28125 36.308594 7.871093 5.695312 5.035157 7.765624 11.949219 6.335937 21.097657-.703125 4.4375 1.472656 8.855469 5.417969 11.011719 3.949218 2.152343 8.832031 1.597656 12.203125-1.367188 5.207031-4.628906 16.578125-6.890625 25.175781-3.070312 6.613281 2.984374 9.960938 9.085937 9.960938 18.195312 0 5.886719 4.777343 10.667969 10.667968 10.667969 5.886719 0 10.664063-4.78125 10.664063-10.667969 0-9.40625 3.519531-15.699219 10.453125-18.710938 7.851562-3.367187 18.839844-1.875 24.46875 3.394532 3.222656 3.050781 8.023437 3.734375 11.992187 1.792968 3.988281-1.964843 6.335938-6.167968 5.910157-10.582031-.898438-9.535156 4.734374-16.40625 9.621093-20.460937 9.066407-7.550782 22.183594-11.007813 28.328125-9.171875 4.117188 1.171875 8.554688-.257813 11.242188-3.605469 15.765625-19.710938 50.371094-21.761719 75.203125-17.472656 3.390625.578125 6.867187-.53125 9.34375-2.964844 2.453125-2.433594 3.5625-5.910156 2.984375-9.34375-11.285156-67.070312-49.257813-81.621094-101.800782-101.761719zm0 0" fill="#455a64"/><path d="m138.667969 213.34375c-29.398438 0-53.335938-23.914062-53.335938-53.332031s23.9375-53.335938 53.335938-53.335938c29.394531 0 53.332031 23.917969 53.332031 53.335938s-23.9375 53.332031-53.332031 53.332031zm0-85.332031c-17.644531 0-32 14.355469-32 32 0 17.640625 14.355469 32 32 32 17.640625 0 32-14.359375 32-32 0-17.644531-14.359375-32-32-32zm0 0"/><path d="m245.332031 106.675781c-17.640625 0-32-14.355469-32-32 0-17.640625 14.359375-32 32-32 17.644531 0 32 14.359375 32 32 0 17.644531-14.355469 32-32 32zm0-42.664062c-5.886719 0-10.664062 4.800781-10.664062 10.664062 0 5.867188 4.777343 10.667969 10.664062 10.667969 5.890625 0 10.667969-4.800781 10.667969-10.667969 0-5.863281-4.777344-10.664062-10.667969-10.664062zm0 0"/><path d="m245.332031 490.675781c-135.273437 0-245.332031-110.058593-245.332031-245.332031s110.058594-245.3320312 245.332031-245.3320312c135.277344 0 245.335938 110.0585932 245.335938 245.3320312 0 17.109375-1.855469 34.433594-5.527344 51.519531-1.238281 5.78125-6.804687 9.34375-12.671875 8.214844-5.757812-1.257813-9.429688-6.914063-8.191406-12.671875 3.347656-15.617188 5.054687-31.46875 5.054687-47.0625 0-123.519531-100.480469-224-224-224s-224 100.480469-224 224 100.480469 224 224 224c84.269531 0 160.621094-46.71875 199.210938-121.941406 2.6875-5.226563 9.109375-7.339844 14.359375-4.609375 5.246094 2.691406 7.296875 9.109375 4.605468 14.359375-42.261718 82.367187-125.863281 133.523437-218.175781 133.523437zm0 0"/><path d="m311.660156 448.011719c-5.890625 0-10.667968-4.78125-10.667968-10.667969 0-9.109375-3.347657-15.210938-9.960938-18.195312-8.597656-3.839844-19.992188-1.539063-25.175781 3.070312-3.371094 2.988281-8.253907 3.519531-12.203125 1.367188-3.945313-2.15625-6.121094-6.574219-5.417969-11.011719 1.429687-9.171875-.640625-16.0625-6.335937-21.097657-10.324219-9.171874-28.84375-9.984374-36.308594-7.871093-5.097656 1.449219-10.519532-1.109375-12.671875-5.953125-8.40625-19.09375-40.789063-18.496094-74.476563-15.039063-3.328125.382813-6.589844-.875-8.875-3.304687-2.28125-2.414063-3.285156-5.785156-2.730468-9.070313 11.265624-67.089843 49.238281-81.640625 101.78125-101.78125 10.15625-3.902343 21.015624-8.0625 32.597656-12.925781 4.523437-1.878906 9.792968-.449219 12.714844 3.5 2.921874 3.945312 2.753906 9.40625-.425782 13.183594-10.472656 12.5-6.933594 20.457031-5.761718 23.058594 4.3125 9.621093 17.386718 17.898437 29.613281 21.527343 0-12.226562-.023438-28.820312-.023438-28.820312 0-4.910157 3.328125-9.195313 8.085938-10.371094 4.757812-1.171875 9.707031 1.023437 11.988281 5.355469l7.53125 14.125c2.730469-.042969 5.804688-.042969 8.621094 0l7.570312-15.167969c2.21875-4.417969 7.148438-6.871094 11.992188-5.613281 4.820312 1.109375 8.210937 5.441406 8.210937 10.390625 0 0-.019531 17.429687-.019531 30.078125 12.222656-3.625 25.300781-11.902344 29.609375-21.523438 1.175781-2.601562 4.714844-10.558594-5.757813-23.0625-3.160156-3.773437-3.351562-9.238281-.429687-13.183594 2.945313-3.96875 8.257813-5.375 12.714844-3.5 11.585937 4.886719 22.445312 9.046876 32.597656 12.929688 52.546875 20.136719 90.539063 34.710938 101.78125 101.78125.578125 3.414062-.53125 6.890625-2.984375 9.34375-2.453125 2.410156-5.910156 3.519531-9.34375 2.964844-24.832031-4.289063-59.4375-2.21875-75.203125 17.472656-2.6875 3.347656-7.125 4.757812-11.242187 3.605469-6.101563-1.8125-19.242188 1.601562-28.328126 9.171875-4.886718 4.054687-10.519531 10.925781-9.621093 20.460937.425781 4.414063-1.941407 8.617188-5.910157 10.582031-3.96875 1.960938-8.746093 1.257813-11.988281-1.792968-5.65625-5.269532-16.640625-6.785156-24.472656-3.394532-6.933594 3.011719-10.453125 9.304688-10.453125 18.710938.042969 5.886719-4.734375 10.667969-10.621094 10.667969zm-30.359375-52.074219c6.402344 0 12.800781 1.234375 18.476563 3.773438 4.5625 2.070312 8.511718 4.863281 11.773437 8.277343 3.480469-3.730469 7.746094-6.742187 12.738281-8.917969 9.917969-4.285156 21.546876-4.628906 31.742188-1.511718 2.710938-7.875 7.832031-15.082032 15.105469-21.121094 11.734375-9.792969 27.839843-15.105469 40.789062-14.484375 18.773438-18.921875 48.894531-24.085937 75.882813-22.25-11.5625-43.03125-39.019532-53.546875-85.355469-71.320313-2.902344-1.109374-5.84375-2.238281-8.875-3.414062.746094 8.085938-1.214844 14.679688-3.15625 19.03125-9.578125 21.417969-38.273437 35.371094-59.390625 36.03125-2.753906.191406-5.65625-.980469-7.722656-2.964844-2.070313-2.003906-3.246094-4.734375-3.289063-7.574218 0-1.171876-.019531-5.394532-.019531-10.792969-.511719 0-1.046875-.042969-1.578125-.128907-2.539063-.277343-15.871094-.234374-18.367187.042969-.449219.042969-.898438.0625-1.34375.0625 0 5.378907 0 9.621094-.023438 10.816407-.019531 2.859374-1.214844 5.589843-3.285156 7.574218-2.070313 1.984375-4.671875 3.113282-7.722656 2.964844-21.121094-.660156-49.8125-14.632812-59.390626-36.03125-1.941406-4.332031-3.90625-10.945312-3.160156-19.03125-3.027344 1.175781-5.972656 2.304688-8.871094 3.414062-46.488281 17.816407-73.941406 28.351563-85.464843 71.679688 26.261719-2.089844 61.292969-1.46875 77.441406 21.527344 14.121094-1.195313 34.15625 1.835937 47.808594 13.929687 5.183593 4.609375 10.730469 11.667969 12.949219 21.929688 3.96875-1 8.148437-1.511719 12.308593-1.511719zm0 0"/><path d="m202.667969 298.675781c-2.730469 0-5.460938-1.042969-7.554688-3.113281-4.160156-4.160156-4.160156-10.921875 0-15.082031l32-32c4.160157-4.160157 10.925781-4.160157 15.085938 0 4.15625 4.160156 4.15625 10.921875 0 15.082031l-32 32c-2.070313 2.070312-4.800781 3.113281-7.53125 3.113281zm0 0"/><path d="m416 298.675781c-3.457031 0-6.828125-1.664062-8.894531-4.753906l-21.335938-32c-3.261719-4.886719-1.941406-11.523437 2.964844-14.785156 4.910156-3.285157 11.523437-1.964844 14.785156 2.964843l21.332031 32c3.265626 4.886719 1.941407 11.519532-2.964843 14.785157-1.789063 1.214843-3.839844 1.789062-5.886719 1.789062zm0 0"/></svg>
