<svg id="icon" height="512pt" viewBox="0 0 512.00029 512" width="512pt" xmlns="http://www.w3.org/2000/svg"><path d="m320.683594 78.128906c-3.628906-5.480468-5.738282-13.609375-5.738282-22.335937 0-7.015625 1.429688-13.84375 4.007813-19.261719 2.070313-4.332031 1.003906-9.492188-2.621094-12.628906-3.605469-3.179688-8.875-3.519532-12.886719-.898438l-48.875 32.214844c-25.429687 12.734375-41.238281 38.3125-41.238281 66.792969v48.578125c0 5.886718 4.78125 10.664062 10.667969 10.664062s10.667969-4.777344 10.667969-10.664062v-5.335938l22.546875-11.285156c1.75 3.480469 5.269531 5.933594 9.453125 5.933594 5.886719 0 10.664062-4.78125 10.664062-10.667969v-21.332031c0-10.09375 16-27.160156 32.960938-31.488282.746093-.191406 1.453125-.449218 2.15625-.8125l4.136719-2.070312c2.730468-1.363281 4.738281-3.839844 5.527343-6.78125.789063-2.945312.253907-6.082031-1.429687-8.621094zm0 0" fill="#388e3c"/><path d="m330.667969 127.921875c-36.609375 0-71.746094 11.5625-102.039063 33.492187-18.6875-7.1875-38.164062-10.8125-57.960937-10.8125-94.101563 0-170.667969 81.042969-170.667969 180.671876 0 99.625 76.566406 180.671874 170.667969 180.671874 27.304687 0 54.355469-7.042968 78.613281-20.394531 25.085938 13.351563 53.097656 20.394531 81.386719 20.394531 99.988281 0 181.332031-86.144531 181.332031-192 0-105.859374-81.34375-192.023437-181.332031-192.023437zm0 0" fill="#ffc107"/><g fill="#455a64"><path d="m288 298.589844h106.667969c3.945312 0 7.550781-2.175782 9.40625-5.632813s1.644531-7.679687-.53125-10.945312l-42.667969-64c-1.769531-2.664063-4.652344-4.394531-7.828125-4.691407-3.265625-.234374-6.335937.808594-8.597656 3.070313l-64 64c-3.050781 3.050781-3.96875 7.636719-2.304688 11.628906 1.640625 3.96875 5.546875 6.570313 9.855469 6.570313zm0 0"/><path d="m128 298.589844h96c4.308594 0 8.214844-2.601563 9.855469-6.59375 1.664062-3.988282.746093-8.574219-2.304688-11.625l-64-64c-2.410156-2.433594-5.824219-3.542969-9.257812-2.988282-3.390625.554688-6.292969 2.6875-7.828125 5.761719l-32 64c-1.664063 3.304688-1.472656 7.230469.46875 10.367188s5.375 5.078125 9.066406 5.078125zm0 0"/><path d="m446.144531 345.90625c-2.347656-3.433594-6.484375-5.164062-10.625-4.480469-7.933593 1.367188-16.445312 2.988281-25.554687 4.714844-17.601563 3.351563-37.546875 7.148437-59.457032 10.242187-5.25.746094-9.175781 5.246094-9.175781 10.558594v16.980469h-21.332031v-12.394531c0-2.964844-1.238281-5.800782-3.414062-7.808594-2.175782-2.027344-5.117188-3.136719-8.042969-2.816406-42.195313 3.117187-72.445313 1.941406-104.679688-1.664063-3.007812-.320312-6.039062.621094-8.300781 2.667969-.234375.214844-.46875.449219-.703125.683594h-24.234375c-.425781-4.757813-3.988281-8.683594-8.746094-9.535156l-22.1875-4.097657c-12.886718-2.410156-26.539062-4.96875-41.921875-7.550781-4.179687-.664062-8.234375 1.085938-10.578125 4.523438-2.347656 3.453124-2.457031 7.933593-.320312 11.519531 8.46875 14.058593 41.664062 61.480469 112.894531 81.578125 3.222656.875 6.65625.253906 9.34375-1.773438 2.667969-2.023437 4.222656-5.160156 4.222656-8.511718v-2.152344h21.335938v9.257812c0 5.527344 4.246093 10.15625 9.75 10.625l4.222656.382813c5.867187.535156 11.710937 1.066406 18.027344 1.066406 92.371093 0 153.449219-46.742187 179.796875-90.496094 2.152344-3.582031 2.027344-8.085937-.320313-11.519531zm0 0"/></g><path d="m224 181.253906c-5.886719 0-10.667969-4.777344-10.667969-10.664062v-48.578125c0-28.457031 15.808594-54.035157 41.28125-66.792969l48.875-32.214844c3.96875-2.621094 9.257813-2.261718 12.863281.875 3.605469 3.136719 4.671876 8.320313 2.625 12.652344-2.582031 5.417969-4.011718 12.246094-4.011718 19.242188 0 8.726562 2.089844 16.875 5.738281 22.335937 1.707031 2.558594 2.21875 5.71875 1.429687 8.660156-.789062 2.964844-2.792968 5.441407-5.546874 6.785157l-4.136719 2.070312c-.683594.339844-1.386719.597656-2.132813.789062-16.984375 4.351563-32.984375 21.417969-32.984375 31.507813v21.332031c0 5.890625-4.777343 10.667969-10.664062 10.667969-5.890625 0-10.667969-4.777344-10.667969-10.667969v-21.332031c0-20.179687 20.4375-41.042969 41.257812-49.578125-2.367187-6.828125-3.625-14.527344-3.625-22.570312 0-.257813 0-.492188 0-.769532l-28.394531 18.667969c-19.265625 9.726563-30.570312 28.011719-30.570312 48.339844v48.578125c0 5.886718-4.78125 10.664062-10.667969 10.664062zm0 0"/><path d="m330.667969 511.921875c-28.289063 0-56.277344-7.019531-81.386719-20.371094-24.257812 13.351563-51.308594 20.371094-78.613281 20.371094-94.101563 0-170.667969-81.042969-170.667969-180.671875 0-99.625 76.566406-180.671875 170.667969-180.671875 19.796875 0 39.273437 3.648437 57.984375 10.835937 30.25-21.929687 65.40625-33.492187 102.015625-33.492187 99.988281 0 181.332031 86.125 181.332031 192 0 105.878906-81.34375 192-181.332031 192zm-81.472657-43.285156c1.835938 0 3.691407.46875 5.332032 1.429687 23.210937 13.417969 49.535156 20.523438 76.140625 20.523438 88.234375 0 160-76.566406 160-170.667969s-71.765625-170.667969-160-170.667969c-33.855469 0-66.328125 11.308594-93.910157 32.726563-3.070312 2.367187-7.148437 2.902343-10.730468 1.386719-17.792969-7.59375-36.417969-11.433594-55.359375-11.433594-82.347657 0-149.335938 71.488281-149.335938 159.339844 0 87.847656 66.988281 159.335937 149.335938 159.335937 25.472656 0 50.730469-7.058594 73.023437-20.4375 1.683594-1.042969 3.605469-1.535156 5.503906-1.535156zm0 0"/><path d="m394.667969 298.589844h-106.667969c-4.308594 0-8.214844-2.601563-9.855469-6.59375-1.664062-3.988282-.746093-8.574219 2.304688-11.625l64-64c2.261719-2.261719 5.332031-3.222656 8.597656-3.09375 3.175781.339844 6.058594 2.046875 7.828125 4.714844l42.667969 64c2.175781 3.261718 2.386719 7.488281.53125 10.964843-1.855469 3.457031-5.460938 5.632813-9.40625 5.632813zm-80.917969-21.335938h60.992188l-24.40625-36.585937zm0 0"/><path d="m224 298.589844h-96c-3.691406 0-7.125-1.921875-9.066406-5.058594-1.941406-3.132812-2.132813-7.058594-.46875-10.367188l32-64c1.535156-3.070312 4.4375-5.203124 7.828125-5.757812 3.433593-.597656 6.828125.554688 9.257812 2.984375l64 64c3.050781 3.050781 3.96875 7.636719 2.304688 11.628906-1.640625 3.96875-5.546875 6.570313-9.855469 6.570313zm-78.742188-21.335938h52.992188l-35.328125-35.324218zm0 0"/><path d="m266.667969 447.921875c-6.316407 0-12.160157-.511719-18.027344-1.066406l-4.222656-.40625c-5.503907-.46875-9.75-5.074219-9.75-10.601563v-9.257812h-21.335938v2.175781c0 3.328125-1.554687 6.484375-4.222656 8.488281-2.667969 2.007813-6.121094 2.710938-9.34375 1.773438-71.230469-20.074219-104.425781-67.542969-112.894531-81.601563-2.15625-3.5625-2.027344-8.042969.320312-11.496093 2.34375-3.414063 6.398438-5.25 10.578125-4.523438 15.402344 2.558594 29.058594 5.117188 41.921875 7.550781l22.1875 4.097657c4.777344.851562 8.320313 4.796874 8.746094 9.535156h24.210938c.238281-.257813.472656-.46875.726562-.703125 2.261719-2.007813 5.3125-2.945313 8.300781-2.648438 32 3.628907 62.632813 4.84375 104.660157 1.644531 3.09375-.214843 5.886718.808594 8.042968 2.835938 2.175782 2.027344 3.414063 4.863281 3.414063 7.808594v12.394531h21.332031v-16.980469c0-5.3125 3.902344-9.8125 9.171875-10.558594 21.910156-3.117187 41.855469-6.890624 59.457031-10.242187 9.089844-1.726563 17.621094-3.347656 25.558594-4.734375 4.117188-.664062 8.253906 1.066406 10.621094 4.5 2.371094 3.433594 2.496094 7.957031.34375 11.519531-26.347656 43.753907-87.425782 90.496094-179.796875 90.496094zm-10.667969-21.824219c3.457031.300782 6.976562.492188 10.667969.492188 77.757812 0 123.199219-34.773438 145.511719-59.15625-14.910157 2.835937-31.445313 5.949218-49.511719 8.722656v18.433594c0 5.886718-4.78125 10.664062-10.667969 10.664062h-42.667969c-5.886719 0-10.664062-4.777344-10.664062-10.664062v-11.648438c-33.75 1.984375-61.460938 1.066406-89.003907-1.644531-1.878906 1.644531-4.332031 2.625-6.996093 2.625h-42.667969c-5.886719 0-10.667969-4.777344-10.667969-10.667969v-.832031l-13.585937-2.492187c-4.867188-.917969-9.816406-1.859376-14.957032-2.796876 13.929688 15.382813 36.863282 34.644532 71.339844 47.0625.832032-5.058593 5.226563-8.941406 10.539063-8.941406h42.664062c5.890625 0 10.667969 4.78125 10.667969 10.667969zm0 0"/><path d="m224.257812 169.222656c-.898437 0-1.816406-.105468-2.710937-.363281-19.007813-4.96875-57.324219-26.453125-90.816406-52.585937-9.003907 7.59375-20.820313 11.648437-34.730469 11.648437-94.507812 0-95.9765625-51.09375-96-53.246094-.0429688-5.890625 4.695312-10.710937 10.582031-10.753906h.085938c5.84375 0 10.621093 4.738281 10.664062 10.582031.066407 1.066406 2.691407 32.085938 74.667969 32.085938 7.039062 0 12.972656-1.453125 17.769531-4.351563-21.589843-19.050781-38.804687-39.359375-43.5625-56.960937-4.4375-16.320313 1.816407-26.921875 7.832031-32.9375 13.011719-12.972656 28.308594-15.875 42.066407-7.957032 22.59375 13.03125 35.519531 53.417969 27.117187 84.714844-.960937 3.667969-2.21875 7.082032-3.714844 10.257813 30.230469 23.640625 65.496094 44.160156 83.457032 48.875 5.695312 1.496093 9.109375 7.320312 7.59375 13.015625-1.234375 4.800781-5.566406 7.976562-10.300782 7.976562zm-119.832031-147.902344c-2.773437 0-6.503906 1.320313-11.285156 6.101563-2.21875 2.21875-4.222656 5.398437-2.34375 12.265625 3.496094 12.972656 17.425781 29.25 35.433594 45.289062.128906-.46875.277343-.9375.40625-1.40625 6.226562-23.273437-4.417969-53.332031-17.195313-60.714843-1.023437-.597657-2.6875-1.535157-5.015625-1.535157zm0 0"/></svg>
