<svg id="icon" height="511pt" viewBox="-117 0 511 511.99819" width="511pt" xmlns="http://www.w3.org/2000/svg"><path d="m234.3125 497.128906-32-74.667968c-1.683594-3.925782-5.546875-6.460938-9.8125-6.460938h-106.667969c-4.265625 0-8.128906 2.535156-9.8125 6.460938l-32 74.667968c-1.386719 3.285156-1.066406 7.082032.917969 10.070313 1.960938 3.007812 5.3125 4.800781 8.894531 4.800781h170.667969c3.582031 0 6.933594-1.792969 8.894531-4.800781 1.984375-2.988281 2.304688-6.765625.917969-10.070313zm0 0" fill="#455a64"/><g fill="#607d8b"><path d="m202.417969 28.050781c-1.320313-3.347656-4.265625-5.800781-7.828125-6.527343-36.246094-7.253907-74.582032-7.253907-110.828125 0-3.453125.703124-6.335938 3.03125-7.722657 6.230468-1.386718 3.21875-1.109374 6.910156.726563 9.875l49.769531 80c1.898438 3.03125 5.164063 4.90625 8.726563 5.035156h.339843c3.4375 0 6.679688-1.664062 8.683594-4.480468l56.898438-80c2.109375-2.941406 2.558594-6.761719 1.234375-10.132813zm0 0"/><path d="m225.375 124.671875c-2.027344-2.09375-4.800781-3.265625-7.679688-3.265625h-157.058593c-2.898438 0-5.671875 1.171875-7.679688 3.265625-33.34375 34.644531-52.457031 86.398437-52.457031 141.992187 0 99.988282 62.207031 181.335938 138.664062 181.335938 76.460938 0 138.667969-81.347656 138.667969-181.335938 0-55.59375-19.113281-107.347656-52.457031-141.992187zm0 0"/><path d="m59.742188 1.789062c-3.285157-2.195312-7.488282-2.367187-10.945313-.53125-3.457031 1.855469-5.632813 5.460938-5.632813 9.40625v32c0 3.433594 1.644532 6.65625 4.4375 8.664063 1.835938 1.320313 4.011719 2.003906 6.230469 2.003906 1.132813 0 2.261719-.171875 3.371094-.554687l32-10.667969c3.859375-1.277344 6.65625-4.648437 7.1875-8.703125.554687-4.03125-1.234375-8.019531-4.648437-10.28125zm0 0"/><path d="m229.535156 1.257812c-3.457031-1.835937-7.660156-1.664062-10.964844.53125l-32 21.335938c-3.394531 2.261719-5.1875 6.25-4.652343 10.28125.511719 4.03125 3.328125 7.425781 7.1875 8.703125l32 10.667969c1.132812.382812 2.261719.554687 3.394531.554687 2.21875 0 4.394531-.683593 6.226562-2.003906 2.796876-2.007813 4.4375-5.230469 4.4375-8.664063v-32c0-3.945312-2.175781-7.550781-5.628906-9.40625zm0 0"/></g><path d="m170.398438 134.695312-21.335938-53.332031c-3.199219-8.105469-16.574219-8.105469-19.796875 0l-21.332031 53.332031c-1.578125 3.96875-.660156 8.472657 2.347656 11.5l21.332031 21.332032c2.089844 2.09375 4.820313 3.136718 7.550781 3.136718 2.730469 0 5.464844-1.042968 7.554688-3.113281l21.332031-21.332031c3.007813-3.03125 3.925781-7.554688 2.347657-11.523438zm0 0" fill="#ffc107"/><path d="m139.164062 85.332031c0 29.453125-23.875 53.332031-53.332031 53.332031-29.453125 0-53.332031-23.878906-53.332031-53.332031 0-29.457031 23.878906-53.332031 53.332031-53.332031 29.457031 0 53.332031 23.875 53.332031 53.332031zm0 0" fill="#cfd8dc"/><path d="m245.832031 85.332031c0 29.453125-23.878906 53.332031-53.332031 53.332031-29.457031 0-53.335938-23.878906-53.335938-53.332031 0-29.457031 23.878907-53.332031 53.335938-53.332031 29.453125 0 53.332031 23.875 53.332031 53.332031zm0 0" fill="#cfd8dc"/><path d="m107.164062 85.332031c0 11.78125-9.550781 21.332031-21.332031 21.332031s-21.332031-9.550781-21.332031-21.332031 9.550781-21.332031 21.332031-21.332031 21.332031 9.550781 21.332031 21.332031zm0 0" fill="#607d8b"/><path d="m213.832031 85.332031c0 11.78125-9.550781 21.332031-21.332031 21.332031s-21.335938-9.550781-21.335938-21.332031 9.554688-21.332031 21.335938-21.332031 21.332031 9.550781 21.332031 21.332031zm0 0" fill="#607d8b"/><path d="m85.832031 106.664062c-11.777343 0-21.332031-9.554687-21.332031-21.332031 0-11.777343 9.554688-21.332031 21.332031-21.332031 11.777344 0 21.332031 9.554688 21.332031 21.332031 0 11.777344-9.554687 21.332031-21.332031 21.332031zm0-21.355468 10.667969.023437zm0 0"/><path d="m53.832031 53.332031c-5.886719 0-10.667969-4.777343-10.667969-10.667969v-32c0-3.945312 2.175782-7.550781 5.632813-9.386718 3.476563-1.855469 7.636719-1.640625 10.964844.511718l32 21.335938c4.886719 3.261719 6.230469 9.898438 2.964843 14.78125-3.285156 4.886719-9.917968 6.1875-14.78125 2.964844l-15.445312-10.257813v12.050781c0 5.890626-4.78125 10.667969-10.667969 10.667969zm0 0"/><path d="m224.5 53.332031c-5.890625 0-10.667969-4.777343-10.667969-10.667969v-12.050781l-15.421875 10.257813c-4.886718 3.222656-11.523437 1.941406-14.785156-2.964844-3.265625-4.90625-1.941406-11.519531 2.964844-14.78125l32-21.335938c3.285156-2.175781 7.488281-2.367187 10.964844-.511718 3.433593 1.835937 5.609374 5.441406 5.609374 9.386718v32c0 5.890626-4.777343 10.667969-10.664062 10.667969zm0 0"/><path d="m192.519531 42.664062c-.703125 0-1.386719-.0625-2.109375-.210937-33.539062-6.699219-68.949218-6.699219-102.507812 0-5.652344 1.191406-11.371094-2.582031-12.523438-8.363281s2.582032-11.414063 8.363282-12.546875c36.246093-7.25 74.582031-7.25 110.828124 0 5.78125 1.152343 9.511719 6.765625 8.382813 12.546875-1.023437 5.078125-5.460937 8.574218-10.433594 8.574218zm0 0"/><path d="m139.164062 170.664062c-2.730468 0-5.460937-1.042968-7.550781-3.113281l-21.332031-21.332031c-4.160156-4.160156-4.160156-10.925781 0-15.085938 4.160156-4.160156 10.921875-4.160156 15.082031 0l13.800781 13.78125 13.78125-13.78125c4.160157-4.160156 10.925782-4.160156 15.085938 0 4.160156 4.160157 4.160156 10.925782 0 15.085938l-21.335938 21.332031c-2.066406 2.070313-4.800781 3.113281-7.53125 3.113281zm0 0"/><path d="m192.5 106.664062c-11.777344 0-21.335938-9.554687-21.335938-21.332031 0-11.777343 9.558594-21.332031 21.335938-21.332031 11.773438 0 21.332031 9.554688 21.332031 21.332031 0 11.777344-9.558593 21.332031-21.332031 21.332031zm0-21.355468 10.664062.023437zm0 0"/><path d="m75.164062 416c-1.980468 0-4.007812-.535156-5.78125-1.707031-4.949218-3.179688-6.398437-9.792969-3.175781-14.722657 22.015625-34.195312 20.222657-92.757812 19.15625-127.742187l-.148437-4.84375c-.152344-5.910156 4.5-10.816406 10.367187-10.984375 5.589844.167969 10.816407 4.476562 10.988281 10.34375l.148438 4.824219c1.128906 37.460937 3.050781 100.179687-22.59375 139.945312-2.046875 3.15625-5.460938 4.886719-8.960938 4.886719zm0 0"/><path d="m203.164062 416c-3.496093 0-6.910156-1.730469-8.957031-4.886719-25.621093-39.746093-23.703125-102.484375-22.59375-139.945312l.148438-4.824219c.171875-5.867188 4.929687-10.175781 10.988281-10.34375 5.867188.167969 10.515625 5.074219 10.347656 10.984375l-.152344 4.84375c-1.066406 35.007813-2.855468 93.566406 19.160157 127.742187 3.199219 4.929688 1.769531 11.542969-3.179688 14.722657-1.769531 1.171875-3.777343 1.707031-5.761719 1.707031zm0 0"/><path d="m139.164062 448c-76.457031 0-138.664062-81.347656-138.664062-181.335938 0-55.59375 19.113281-107.347656 52.457031-141.972656 4.117188-4.222656 10.878907-4.332031 15.082031-.296875 4.246094 4.074219 4.375 10.835938.300782 15.082031-29.570313 30.71875-46.507813 77.054688-46.507813 127.1875 0 88.234376 52.652344 160 117.332031 160 64.683594 0 117.335938-71.765624 117.335938-160 0-50.132812-16.941406-96.46875-46.507812-127.1875-4.074219-4.246093-3.96875-11.007812.300781-15.082031 4.222656-4.035156 10.984375-3.949219 15.082031.296875 33.34375 34.625 52.457031 86.378906 52.457031 141.972656 0 99.988282-62.207031 181.335938-138.667969 181.335938zm0 0"/><path d="m85.832031 149.332031c-35.285156 0-64-28.714843-64-64 0-35.285156 28.714844-64 64-64 35.285157 0 64 28.714844 64 64 0 35.285157-28.714843 64-64 64zm0-106.667969c-23.53125 0-42.667969 19.136719-42.667969 42.667969s19.136719 42.667969 42.667969 42.667969 42.667969-19.136719 42.667969-42.667969-19.136719-42.667969-42.667969-42.667969zm0 0"/><path d="m192.5 149.332031c-35.285156 0-64-28.714843-64-64 0-35.285156 28.714844-64 64-64s64 28.714844 64 64c0 35.285157-28.714844 64-64 64zm0-106.667969c-23.53125 0-42.667969 19.136719-42.667969 42.667969s19.136719 42.667969 42.667969 42.667969 42.664062-19.136719 42.664062-42.667969-19.132812-42.667969-42.664062-42.667969zm0 0"/><path d="m224.5 512h-170.667969c-3.582031 0-6.933593-1.792969-8.894531-4.800781-1.984375-3.007813-2.304688-6.765625-.917969-10.089844l32-74.667969c2.347657-5.441406 8.597657-7.894531 14.015625-5.609375 5.417969 2.324219 7.914063 8.59375 5.609375 14.015625l-25.640625 59.816406h138.324219l-25.640625-59.796874c-2.304688-5.417969.191406-11.691407 5.609375-14.015626 5.355469-2.261718 11.667969.191407 14.015625 5.609376l32 74.667968c1.386719 3.304688 1.066406 7.082032-.917969 10.089844-1.960937 2.988281-5.3125 4.78125-8.894531 4.78125zm0 0"/></svg>
