<svg id="icon" height="490pt" viewBox="-10 0 490 490.75145" width="490pt" xmlns="http://www.w3.org/2000/svg"><path d="m401.699219 471.730469c-21.546875-17.152344-40.0625-21.632813-53.609375-24.917969-18.027344-4.375-24.105469-5.847656-27.820313-32.234375-5.011719-35.671875-12.03125-161.582031-20.882812-374.230469l-.34375-29.609375c0-3.777343-1.980469-7.253906-5.226563-9.175781-3.199218-1.898438-7.25-1.960938-10.535156-.191406l-31.511719 17.195312-12.222656-14.71875c-2.050781-2.433594-5.035156-3.8398435-8.214844-3.8398435-3.179687 0-6.1875 1.4062495-8.210937 3.8593755l-9.582032 11.5625-9.554687-11.5625c-2.027344-2.453126-5.015625-3.8593755-8.214844-3.8593755 0 0 0 0-.019531 0-3.160156 0-6.1875 1.4257815-8.214844 3.8789065l-9.449218 11.480469-9.472657-11.480469c-2.878906-3.476563-7.574219-4.753907-11.839843-3.261719-4.226563 1.535156-7.0625 5.546875-7.0625 10.046875l.0625 22.570313c5.121093 46.039062 5.3125 320.148437.554687 376.300781-32.46875 19.136719-61.03125 43.988281-80.234375 60.671875l-2.066406 1.792968c-3.457032 3.046876-4.609375 8-2.796875 12.242188 1.8125 4.246094 5.867187 6.933594 10.773437 6.445312 31.9375-2.859374 54.25-10.050781 70.550782-15.320312 14.101562-4.519531 24.339843-7.785156 33.300781-6.140625 23.808593 4.242187 72.617187 20.777344 73.128906 20.925781 4.394531 1.472656 9.28125-.042968 12.011719-3.796875 2.027344-2.773437 22.871094-26.261719 127.105468 3.945313.980469.277344 1.984376.429687 2.964844.429687 3.925782 0 7.59375-2.15625 9.472656-5.78125 2.324219-4.503906 1.128907-10.070312-2.839843-13.226562zm0 0" fill="#607d8b"/><path d="m213.179688 284.699219c-1.367188-4.097657-5.058594-6.953125-9.367188-7.253907-4.203125-.40625-8.382812 2.007813-10.28125 5.867188l-10.667969 21.332031c-2.625 5.269531-.492187 11.671875 4.777344 14.316407l21.335937 10.667968c1.511719.746094 3.136719 1.128906 4.777344 1.128906 2.515625 0 4.992188-.894531 6.976563-2.601562 3.261719-2.839844 4.5-7.339844 3.136719-11.4375zm0 0" fill="#fafafa"/><path d="m287.246094 304.625-10.664063-21.332031c-1.921875-3.863281-6.015625-6.273438-10.285156-5.867188-4.308594.296875-8 3.15625-9.363281 7.253907l-10.667969 32c-1.34375 4.09375-.128906 8.59375 3.136719 11.433593 1.984375 1.726563 4.457031 2.601563 6.976562 2.601563 1.621094 0 3.242188-.382813 4.777344-1.128906l21.332031-10.667969c5.269531-2.601563 7.382813-9.023438 4.757813-14.292969zm0 0" fill="#fafafa"/><path d="m395.042969 490.738281c-.980469 0-1.980469-.152343-2.964844-.429687-104.234375-30.207032-125.054687-6.71875-127.101563-3.945313-2.753906 3.753907-7.617187 5.269531-12.011718 3.796875-.492188-.171875-49.324219-16.660156-73.128906-20.925781-9.195313-1.625-19.222657 1.621094-33.304688 6.140625-16.296875 5.25-38.613281 12.460938-70.546875 15.320312-4.992187.320313-8.960937-2.199218-10.773437-6.445312-1.8125-4.265625-.664063-9.214844 2.816406-12.222656l2.066406-1.792969c19.179688-16.703125 47.746094-41.554687 80.234375-60.691406 4.757813-56.152344 4.566406-330.261719-.554687-376.277344l-.0625-22.59375c0-4.5 2.835937-8.511719 7.0625-10.046875 4.179687-1.515625 8.960937-.214844 11.839843 3.242188l9.472657 11.5 9.449218-11.480469c2.027344-2.453125 5.054688-3.8789065 8.214844-3.8789065h.019531c3.15625 0 6.1875 1.4062495 8.214844 3.8593755l9.554687 11.5625 9.582032-11.5625c2.023437-2.453126 5.03125-3.8593755 8.210937-3.8593755 3.15625 0 6.164063 1.4062495 8.214844 3.8593755l12.222656 14.699218 31.511719-17.195312c3.261719-1.8125 7.316406-1.726563 10.535156.191406 3.246094 1.921875 5.226563 5.398438 5.226563 9.175781l.363281 29.628907c8.832031 212.652343 15.851562 338.5625 20.886719 374.230468 3.710937 26.367188 9.792969 27.863282 27.839843 32.234375 13.523438 3.265625 32.042969 7.765625 53.589844 24.898438 3.988282 3.175781 5.160156 8.722656 2.835938 13.246093-1.917969 3.605469-5.589844 5.761719-9.515625 5.761719zm-220.351563-43.285156c2.964844 0 5.933594.253906 8.960938.808594 20.183594 3.605469 55.230468 14.804687 69.695312 19.5625 9.386719-7.976563 27.050782-15.253907 60.394532-13.867188-7.039063-7.082031-11.988282-18.070312-14.589844-36.394531-5.101563-36.328125-12.203125-162.964844-21.058594-376.320312l-.382812-12.523438-23.421876 12.78125c-4.4375 2.472656-10.027343 1.40625-13.3125-2.539062l-9.621093-11.585938-9.601563 11.585938c-2.027344 2.429687-5.035156 3.859374-8.214844 3.859374-3.175781 0-6.183593-1.40625-8.210937-3.859374l-9.535156-11.519532-9.472657 11.476563c-3.476562 4.222656-10.175781 5.011719-14.527343 1.8125 4.542969 66.878906 4.265625 336.703125-.832031 376.683593-.449219 3.328126-2.414063 6.273438-5.335938 7.9375-20.09375 11.328126-38.589844 25.066407-54.632812 38.121094 11.21875-2.667968 20.648437-5.71875 28.992187-8.40625 12.949219-4.136718 23.742187-7.613281 34.707031-7.613281zm-14.3125-31.382813h.210938zm0 0"/><path d="m53.710938 213.402344c-2.730469 0-5.460938-1.042969-7.550782-3.113282-4.074218-4.097656-4.160156-10.710937-.214844-14.871093 3.03125-4.882813 4.992188-34.304688-22.1875-71.742188-3.453124-4.777343-2.410156-11.433593 2.347657-14.890625 4.738281-3.457031 11.433593-2.433594 14.890625 2.347656 32.769531 45.117188 32.8125 86.589844 20.246094 99.132813-2.070313 2.09375-4.800782 3.136719-7.53125 3.136719zm0 0"/><path d="m164.324219 266.738281c-.191407 0-.40625 0-.574219-.023437-39.679688-2.21875-110.679688-40.128906-160.855469-99.777344-3.816406-4.519531-3.21875-11.242188 1.28125-15.039062 4.523438-3.796876 11.242188-3.199219 15.039063 1.300781 45.824218 54.53125 111.316406 90.304687 145.6875 92.226562 5.886718.339844 10.386718 5.351563 10.066406 11.21875-.320312 5.699219-5.035156 10.09375-10.644531 10.09375zm0 0"/><path d="m299.042969 234.738281c-4.734375 0-9.066407-3.160156-10.300781-7.960937-1.496094-5.695313 1.898437-11.519532 7.59375-13.011719 78.933593-20.757813 145.75-82.324219 152.105468-140.179687.640625-5.867188 5.886719-10.09375 11.777344-9.429688 5.84375.640625 10.089844 5.910156 9.429688 11.773438-7.382813 67.117187-79.554688 135.277343-167.894532 158.488281-.894531.210937-1.8125.320312-2.710937.320312zm0 0"/><path d="m213.710938 330.738281c-1.621094 0-3.242188-.386719-4.777344-1.132812l-21.335938-10.667969c-5.269531-2.644531-7.402344-9.042969-4.777344-14.3125l10.667969-21.332031c1.917969-3.863281 6.121094-6.296875 10.28125-5.867188 4.308594.320313 8 3.175781 9.367188 7.273438l10.664062 32c1.34375 4.097656.128907 8.597656-3.136719 11.433593-1.960937 1.707032-4.433593 2.605469-6.953124 2.605469zm0 0"/><path d="m256.378906 330.738281c-2.519531 0-4.992187-.898437-6.976562-2.605469-3.265625-2.835937-4.5-7.335937-3.136719-11.433593l10.667969-32c1.363281-4.074219 5.054687-6.953125 9.363281-7.273438 4.308594-.449219 8.363281 2.027344 10.285156 5.867188l10.664063 21.332031c2.625 5.269531.492187 11.667969-4.777344 14.3125l-21.332031 10.667969c-1.515625.746093-3.136719 1.132812-4.757813 1.132812zm0 0"/><path d="m427.023438 149.402344c-5.097657 0-9.621094-3.691406-10.496094-8.917969l-10.667969-64c-.980469-5.800781 2.964844-11.304687 8.769531-12.265625 5.652344-1.003906 11.285156 2.945312 12.265625 8.769531l10.667969 64c.980469 5.800781-2.964844 11.304688-8.769531 12.265625-.574219.105469-1.195313.148438-1.769531.148438zm0 0"/></svg>
