<svg id="icon" height="512pt" viewBox="0 0 512 512.02339" width="512pt" xmlns="http://www.w3.org/2000/svg"><path d="m416.011719 405.332031c-35.136719 0-74.453125-78.335937-74.667969-190.738281-.019531-5.867188-4.796875-10.648438-10.664062-10.648438-5.890626 0-10.667969 4.78125-10.667969 10.667969v201.386719c0 5.886719 4.777343 10.667969 10.667969 10.667969h85.332031c5.886719 0 10.667969-4.78125 10.667969-10.667969s-4.78125-10.667969-10.667969-10.667969zm0 0" fill="#b0bec5"/><path d="m416.011719 0h-320c-53.824219 0-96.0000002 93.71875-96.0000002 213.332031v245.335938c0 5.097656 3.6250002 9.492187 8.6406252 10.472656 5.097656.917969 10.046875-1.792969 11.925781-6.527344l31.082031-77.695312 34.113282 119.339843c1.320312 4.648438 6.078124 7.871094 10.429687 7.742188 4.820313-.085938 9.003906-3.390625 10.175781-8.085938l22.59375-90.347656 20.863282 69.503906c1.195312 3.96875 4.542968 6.871094 8.617187 7.488282 4.183594.621094 8.171875-1.191406 10.453125-4.628906l33.773438-50.707032 33.789062 50.6875c2.21875 3.285156 6.019531 5.054688 9.984375 4.691406 3.949219-.402343 7.339844-2.964843 8.789063-6.65625l31.851562-79.613281 33.453125 100.371094c1.492187 4.417969 5.609375 7.296875 10.132813 7.296875.554687 0 1.128906-.042969 1.707031-.148438 5.160156-.832031 8.957031-5.292968 8.957031-10.519531v-288c0-113.152343 39.359375-192 74.667969-192 5.886719 0 10.667969-4.777343 10.667969-10.664062 0-5.890625-4.78125-10.667969-10.667969-10.667969zm0 0" fill="#cfd8dc"/><path d="m437.34375 213.332031c0-35.34375-9.550781-64-21.332031-64s-21.332031 28.65625-21.332031 64c0 35.347657 9.550781 64 21.332031 64s21.332031-28.652343 21.332031-64zm0 0" fill="#455a64"/><path d="m416.011719 288c-22.101563 0-32-37.503906-32-74.667969 0-37.160156 9.898437-74.664062 32-74.664062 22.101562 0 32 37.503906 32 74.664062 0 37.164063-9.898438 74.667969-32 74.667969zm1.300781-21.054688h.234375zm-1.300781-105.964843c-3.96875 5.035156-10.667969 22.914062-10.667969 52.351562 0 29.441407 6.699219 47.320313 10.667969 52.351563 3.96875-5.03125 10.667969-22.910156 10.667969-52.351563 0-29.4375-6.699219-47.316406-10.667969-52.351562zm0 0"/><path d="m416.011719 10.667969c-47.148438 0-85.332031 90.664062-85.332031 202.664062v1.28125c.210937 111.359375 38.398437 201.386719 85.332031 201.386719 47.148437 0 85.332031-90.667969 85.332031-202.667969s-38.183594-202.664062-85.332031-202.664062zm0 0" fill="#b0bec5"/><path d="m20.49994 9.999939c0-1.656738-.447693-3-.999939-3s-.999939 1.343262-.999939 3c0 1.656921.447693 3 .999939 3s.999939-1.343079.999939-3zm0 0" fill="#cfd8dc" stroke="#000" stroke-linecap="round" stroke-linejoin="round" stroke-miterlimit="10" transform="matrix(21.333333 0 0 21.333333 .011695 0)"/><path d="m448.011719 213.332031c0-41.234375-14.328125-74.664062-32-74.664062s-32 33.429687-32 74.664062c0 41.238281 14.328125 74.667969 32 74.667969s32-33.429688 32-74.667969zm0 0" fill="#607d8b"/><path d="m416.011719 288c-22.101563 0-32-37.503906-32-74.667969 0-37.160156 9.898437-74.664062 32-74.664062 22.101562 0 32 37.503906 32 74.664062 0 37.164063-9.898438 74.667969-32 74.667969zm1.28125-21.054688h.210937zm-1.28125-105.984374c-3.945313 4.992187-10.667969 22.867187-10.667969 52.371093 0 29.503907 6.722656 47.382813 10.667969 52.375 3.945312-4.992187 10.667969-22.871093 10.667969-52.375 0-29.503906-6.722657-47.378906-10.667969-52.371093zm0 0"/><path d="m416.011719 426.667969c-53.824219 0-96-93.71875-96-213.335938 0-119.613281 42.175781-213.332031 96-213.332031s96 93.71875 96 213.332031c0 119.617188-42.175781 213.335938-96 213.335938zm0-405.335938c-35.308594 0-74.667969 78.847657-74.667969 192 0 113.152344 39.359375 192 74.667969 192 35.308593 0 74.667969-78.847656 74.667969-192 0-113.152343-39.359376-192-74.667969-192zm0 0"/><path d="m416.011719 426.667969h-85.332031c-5.890626 0-10.667969-4.78125-10.667969-10.667969s4.777343-10.667969 10.667969-10.667969h85.332031c5.886719 0 10.667969 4.78125 10.667969 10.667969s-4.78125 10.667969-10.667969 10.667969zm0 0"/><path d="m330.679688 512c-4.523438 0-8.640626-2.878906-10.132813-7.296875l-33.453125-100.371094-31.851562 79.613281c-1.449219 3.691407-4.863282 6.253907-8.789063 6.65625-3.964844.449219-7.765625-1.386718-9.984375-4.691406l-33.789062-50.6875-33.792969 50.6875c-2.28125 3.433594-6.273438 5.269532-10.453125 4.628906-4.074219-.597656-7.445313-3.519531-8.621094-7.488281l-20.863281-69.503906-22.589844 90.347656c-1.152344 4.714844-5.355469 8.019531-10.15625 8.105469-4.351563.339844-9.109375-3.09375-10.429687-7.722656l-34.113282-119.339844-31.082031 77.695312c-1.878906 4.757813-6.804687 7.445313-11.925781 6.53125-5.015625-1.003906-8.6406252-5.398437-8.6406252-10.496093v-245.335938c0-119.613281 42.1757812-213.332031 96.0000002-213.332031h320c5.886719 0 10.667969 4.777344 10.667969 10.667969 0 5.886719-4.78125 10.664062-10.667969 10.664062h-320c-35.308594 0-74.667969 78.847657-74.667969 192v189.933594l22.101562-55.234375c1.707032-4.222656 5.972657-7.039062 10.433594-6.675781 4.566406.234375 8.449219 3.328125 9.707032 7.699219l31.722656 111.042968 22.335937-89.34375c1.171875-4.675781 5.332031-7.980468 10.109375-8.085937 5.058594-.042969 9.089844 3.007812 10.457032 7.59375l25.492187 84.925781 30.078125-45.117188c3.96875-5.910156 13.78125-5.910156 17.75 0l31.425781 47.125 35.132813-87.828124c1.664062-4.160157 6.019531-6.679688 10.21875-6.699219 4.480468.148437 8.40625 3.050781 9.816406 7.292969l21.886719 65.644531v-232.9375c0-5.890625 4.777343-10.667969 10.667969-10.667969 5.886718 0 10.664062 4.777344 10.664062 10.667969v298.664062c0 5.226563-3.796875 9.6875-8.957031 10.519531-.578125.105469-1.152344.148438-1.707031.148438zm0 0"/></svg>
