<svg id="icon" height="512pt" viewBox="0 0 512.01179 512" width="512pt" xmlns="http://www.w3.org/2000/svg"><path d="m424.6875 293.070312c-34.324219-25.128906-98.113281-53.375-141.246094-55.1875-6.550781-.339843-10.667968 4.117188-11.09375 9.835938-.234375 2.792969-1.195312 5.03125-2.859375 6.71875l-15.105469 15.105469c-1.640624 1.660156-3.902343 2.601562-6.699218 2.8125-5.738282.449219-10.066406 5.355469-9.832032 11.09375 1.855469 43.179687 30.101563 106.945312 55.210938 141.226562 30.933594 42.261719 85.140625 85.65625 136.46875 87.320313h.363281c4.691407 0 8.851563-3.074219 10.21875-7.597656 1.386719-4.628907-.492187-9.621094-4.628906-12.160157-6.976563-4.308593-17.621094-13.78125-18.304687-20.5-.085938-.851562-.300782-2.859375 2.964843-5.886719 5.3125-4.972656 17.535157 3.476563 30.71875 13.375 12.609375 9.472657 26.878907 20.136719 37.613281 8.789063 10.664063-11.328125.9375-29.398437-10.347656-50.324219-1.300781-2.410156-2.816406-5.226562-4.265625-8.042968.808594.53125 1.578125 1.066406 2.257813 1.554687 11.03125 7.554687 18.859375 13.101563 27.160156 10.328125 3.15625-1.046875 7.082031-5.035156 8.167969-8.191406.429687-1.21875.597656-2.496094.554687-3.777344-1.664062-51.328125-45.054687-105.535156-87.316406-136.492188zm0 0" fill="#ffc107"/><path d="m284.59375 224.273438c-12.011719-12.054688-33.152344-12.078126-45.25 0l-15.082031 15.082031c-6.039063 6.035156-9.367188 14.078125-9.367188 22.632812 0 8.535157 3.328125 16.578125 9.367188 22.636719 6.230469 6.226562 14.441406 9.34375 22.632812 9.34375 8.195313 0 16.40625-3.117188 22.636719-9.34375l15.082031-15.082031c12.457031-12.503907 12.457031-32.792969-.019531-45.269531zm0 0" fill="#607d8b"/><path d="m255.855469 226.042969c-1.300781-1.984375-31.65625-49.003907-54.570313-69.972657-8.980468-8.234374-18.15625-15.53125-27.285156-22.765624-13.484375-10.707032-26.195312-20.839844-38.144531-33.832032-18.835938-20.546875-48.46875-80.066406-50.75-90.964844-.597657-2.988281-2.476563-5.546874-5.101563-7.085937-2.644531-1.4921875-5.78125-1.855469-8.703125-.851563l-64 21.332032c-4.863281 1.621094-7.871093 6.445312-7.2109372 11.519531 3.2656252 24.640625 52.9921872 97.539063 55.1054682 100.632813 12.414063 18.175781 31.65625 28.285156 53.929688 40.019531 14.570312 7.660156 31.039062 16.363281 48.640625 28.757812 41.8125 29.480469 56.980469 56.46875 57.128906 56.746094 1.601563 2.945313 4.523438 4.949219 7.851563 5.417969.492187.066406 1.003906.109375 1.492187.109375 2.816407 0 5.546875-1.089844 7.554688-3.117188l22.632812-22.632812c3.542969-3.5625 4.140625-9.109375 1.429688-13.3125zm0 0" fill="#90a4ae"/><path d="m429.894531 512.015625c-.109375 0-.234375 0-.363281 0-51.308594-1.664063-105.515625-45.054687-136.46875-87.316406-25.132812-34.328125-53.355469-98.089844-55.210938-141.25-.234374-5.757813 4.117188-10.644531 9.855469-11.113281 2.792969-.214844 5.035157-1.152344 6.675781-2.816407l15.105469-15.105469c1.683594-1.664062 2.625-3.921874 2.835938-6.695312.449219-5.742188 4.566406-10.09375 11.117187-9.859375 43.15625 1.859375 106.921875 30.082031 141.226563 55.210937h.019531c42.242188 30.957032 85.652344 85.164063 87.316406 136.472657.042969 1.300781-.148437 2.578125-.554687 3.796875-1.085938 3.15625-4.992188 7.144531-8.167969 8.210937-8.320312 2.753907-16.152344-2.792969-27.160156-10.347656-.679688-.46875-1.449219-1-2.257813-1.535156 1.449219 2.816406 2.984375 5.632812 4.265625 8.042969 11.285156 20.90625 21.011719 39 10.324219 50.304687-10.667969 11.414063-24.980469.683594-37.589844-8.789063-13.183593-9.878906-25.515625-18.433593-30.71875-13.375-3.242187 3.050782-3.050781 5.035157-2.964843 5.886719.660156 6.65625 11.328124 16.191407 18.324218 20.523438 4.097656 2.558593 5.996094 7.550781 4.609375 12.160156-1.386719 4.523437-5.527343 7.59375-10.21875 7.59375zm-169.984375-220.90625c4.671875 37.867187 28.714844 91.371094 50.367188 121.003906 21.355468 29.117188 54.421875 58.855469 88.535156 71.847657-1.472656-3.15625-2.496094-6.527344-2.882812-10.023438-.597657-6.101562.535156-15.128906 9.558593-23.617188 18.859375-17.707031 42.496094.105469 58.175781 11.882813 1.429688 1.066406 3.113282 2.304687 4.800782 3.539063-2.730469-6.015626-6.570313-13.140626-9.132813-17.898438-10.152343-18.835938-17.46875-32.445312-9.386719-41.917969 9.984376-11.710937 24.984376-1.386719 38.253907 7.699219.105469.085938.210937.152344.316406.234375-8.851563-39.210937-43.027344-79.082031-76.414063-103.550781-29.632812-21.675782-83.113281-45.71875-121.003906-50.367188-1.535156 3.605469-3.730468 6.847656-6.527344 9.621094l-15.0625 15.0625c-2.773437 2.75-5.992187 4.925781-9.597656 6.484375zm0 0"/><path d="m246.875 293.945312c-8.191406 0-16.40625-3.113281-22.636719-9.34375-6.035156-6.015624-9.363281-14.035156-9.363281-22.613281 0-8.53125 3.328125-16.597656 9.363281-22.65625l15.085938-15.082031c6.035156-6.035156 14.078125-9.363281 22.632812-9.363281h.023438c8.554687 0 16.574219 3.328125 22.613281 9.363281 12.476562 12.480469 12.476562 32.769531 0 45.25l-15.085938 15.082031c-6.226562 6.25-14.441406 9.363281-22.632812 9.363281zm15.082031-57.726562c-2.859375 0-5.523437 1.109375-7.550781 3.113281l-15.082031 15.082031c-2.027344 2.027344-3.117188 4.714844-3.117188 7.554688 0 2.835938 1.109375 5.503906 3.117188 7.53125 4.160156 4.160156 10.921875 4.160156 15.082031 0l15.082031-15.085938c4.160157-4.160156 4.160157-10.921874 0-15.082031-2.003906-2.003906-4.671875-3.113281-7.53125-3.113281zm0 0"/><path d="m224.28125 265.082031c-3.773438 0-7.445312-2.003906-9.363281-5.546875-.148438-.253906-15.316407-27.222656-57.132813-56.726562-17.621094-12.394532-34.089844-21.074219-48.660156-28.753906-22.273438-11.734376-41.515625-21.847657-53.929688-40.023438-2.113281-3.09375-51.839843-75.988281-55.1054682-100.628906-.6601558-5.054688 2.3476562-9.898438 7.2109372-11.519532l64-21.332031c2.921875-.960937 6.058594-.6210935 8.703125.871094 2.625 1.515625 4.503906 4.097656 5.101563 7.085937 2.261719 10.898438 31.914062 70.417969 50.75 90.964844 11.949219 12.992188 24.660156 23.125 38.144531 33.832032 9.128906 7.234374 18.28125 14.53125 27.285156 22.742187 22.890625 20.972656 53.269532 67.988281 54.570313 69.972656 3.179687 4.949219 1.75 11.542969-3.199219 14.722657-4.972656 3.21875-11.5625 1.75-14.71875-3.179688-.320312-.449219-30.167969-46.675781-51.050781-65.769531-8.621094-7.894531-17.386719-14.871094-26.132813-21.78125-13.546875-10.773438-27.542968-21.867188-40.597656-36.117188-17.515625-19.117187-42.414062-65.898437-52.097656-89.75l-44.203125 14.71875c7.488281 18.003907 29.164062 54.207031 48.960937 83.113281 9.40625 13.78125 25.664063 22.359376 46.25 33.195313 15.125 7.957031 32.277344 17.003906 51.007813 30.210937 46.292969 32.636719 62.871093 62.695313 63.550781 63.957032 2.816406 5.160156.875 11.605468-4.265625 14.417968-1.621094.898438-3.371094 1.324219-5.078125 1.324219zm0 0"/></svg>
