<svg id="icon" height="512pt" viewBox="0 0 512 512" width="512pt" xmlns="http://www.w3.org/2000/svg"><path d="m240.789062 129.792969-46.1875-77.183594c-1.472656-2.496094-3.925781-4.269531-6.738281-4.90625-2.773437-.621094-5.785156-.128906-8.214843 1.449219-129.28125 84.09375-179.648438 151.0625-179.648438 238.847656 0 4.308594 2.601562 8.214844 6.59375 9.855469 1.300781.554687 2.707031.8125 4.074219.8125 2.773437 0 5.503906-1.089844 7.550781-3.117188 6.742188-6.738281 13.929688-14.570312 21.761719-23.082031 40.554687-44.203125 96.125-104.726562 194.023437-126.785156 3.351563-.746094 6.125-3.070313 7.488282-6.207032 1.300781-3.136718 1.066406-6.742187-.703126-9.683593zm0 0" fill="#cfd8dc"/><path d="m304.832031 112.894531-52.140625-86.824219c-1.578125-3.457031-3.433594-6.402343-5.226562-8.8125-.277344-.445312-1.023438-1.515624-1.34375-1.898437-8.722656-9.898437-20.371094-15.359375-32.789063-15.359375-23.53125 0-42.664062 19.136719-42.664062 42.667969 0 6.738281 1.640625 13.394531 4.757812 19.328125.210938.597656.46875 1.152344.808594 1.707031l1.28125 2.132813c.167969.296874.382813.617187.640625.9375l54.632812 91.050781c1.472657 2.453125 3.882813 4.222656 6.65625 4.886719.832032.191406 1.644532.296874 2.476563.296874 2.003906 0 3.988281-.554687 5.695313-1.640624l53.78125-33.921876c4.882812-3.113281 6.421874-9.558593 3.433593-14.550781zm0 0" fill="#607d8b"/><path d="m505.324219 446.59375c-.195313-.386719-.386719-.75-.578125-1.109375l-199.894532-332.589844c-1.46875-2.453125-3.902343-4.222656-6.675781-4.882812-2.792969-.703125-5.738281-.191407-8.148437 1.34375l-53.78125 33.917969c-4.90625 3.09375-6.445313 9.539062-3.457032 14.507812l201.28125 335.402344c7.914063 11.796875 21.097657 18.816406 35.261719 18.816406 23.53125 0 42.667969-19.136719 42.667969-42.667969 0-8.296875-2.304688-16.085937-6.675781-22.738281zm0 0" fill="#455a64"/><path d="m160 245.332031c-52.929688 0-96 43.074219-96 96v160c0 5.890625 4.777344 10.667969 10.667969 10.667969h170.664062c5.890625 0 10.667969-4.777344 10.667969-10.667969v-160c0-52.925781-43.070312-96-96-96zm0 0" fill="#90a4ae"/><path d="m469.332031 512c-14.121093 0-27.328125-6.976562-35.285156-18.6875l-257.832031-429.695312c-.363282-.621094-.664063-1.238282-.898438-1.878907-3.09375-6.078125-4.648437-12.480469-4.648437-19.070312 0-23.53125 19.132812-42.667969 42.664062-42.667969 12.226563 0 23.765625 5.289062 31.914063 14.570312.792968.683594 1.453125 1.492188 2.007812 2.390626 2.21875 2.902343 4.136719 6.101562 5.503906 9.40625l251.859376 419.007812c.066406.148438.152343.277344.234374.425781 4.671876 7.019531 7.148438 15.105469 7.148438 23.53125 0 23.53125-19.136719 42.667969-42.667969 42.667969zm-274.023437-458.003906 256.53125 427.582031c3.820312 5.589844 10.433594 9.089844 17.492187 9.089844 11.757813 0 21.335938-9.558594 21.335938-21.335938 0-4.371093-1.367188-8.597656-3.949219-12.242187-.382812-.515625-.703125-1.089844-.957031-1.664063l-252.011719-419.480469c-1.324219-2.921874-2.285156-4.5-3.628906-6.25-.105469-.128906-.234375-.277343-.339844-.40625-4.136719-5.054687-10.132812-7.957031-16.449219-7.957031-11.753906 0-21.332031 9.558594-21.332031 21.335938 0 3.476562.9375 6.910156 2.773438 10.21875.214843.359375.382812.746093.535156 1.109375zm0 0"/><path d="m241.835938 162.921875c-3.542969 0-7.019532-1.769531-9.023438-4.96875-3.136719-4.972656-1.644531-11.5625 3.324219-14.699219l53.867187-33.941406c5.015625-3.136719 11.585938-1.621094 14.699219 3.328125 3.136719 4.96875 1.644531 11.5625-3.328125 14.699219l-53.867188 33.941406c-1.769531 1.109375-3.730468 1.640625-5.671874 1.640625zm0 0"/><path d="m10.667969 298.667969c-1.367188 0-2.753907-.277344-4.074219-.8125-3.992188-1.640625-6.59375-5.546875-6.59375-9.855469 0-87.785156 50.367188-154.753906 179.648438-238.847656 4.90625-3.222656 11.5625-1.835938 14.742187 3.113281 3.21875 4.929687 1.8125 11.542969-3.117187 14.742187-121.214844 78.871094-159.464844 134.742188-167.933594 192 .320312-.339843.617187-.660156.9375-1.023437 40.0625-43.648437 100.652344-109.632813 205.035156-133.097656 5.757812-1.386719 11.457031 2.300781 12.757812 8.0625 1.300782 5.738281-2.304687 11.433593-8.066406 12.734375-97.875 22.039062-153.429687 82.5625-194.003906 126.742187-7.828125 8.511719-15.019531 16.363281-21.78125 23.105469-2.046875 2.046875-4.777344 3.136719-7.550781 3.136719zm0 0"/><path d="m245.332031 512h-170.664062c-5.890625 0-10.667969-4.777344-10.667969-10.667969v-160c0-52.925781 43.070312-96 96-96s96 43.074219 96 96v160c0 5.890625-4.777344 10.667969-10.667969 10.667969zm-160-21.332031h149.335938v-149.335938c0-41.171875-33.496094-74.664062-74.667969-74.664062s-74.667969 33.492187-74.667969 74.664062zm0 0"/><path d="m202.667969 362.667969h-85.335938c-5.886719 0-10.664062-4.78125-10.664062-10.667969s4.777343-10.667969 10.664062-10.667969h85.335938c5.886719 0 10.664062 4.78125 10.664062 10.667969s-4.777343 10.667969-10.664062 10.667969zm0 0"/><path d="m181.332031 405.332031h-42.664062c-5.890625 0-10.667969-4.777343-10.667969-10.664062 0-5.890625 4.777344-10.667969 10.667969-10.667969h42.664062c5.890625 0 10.667969 4.777344 10.667969 10.667969 0 5.886719-4.777344 10.664062-10.667969 10.664062zm0 0"/><path d="m266.667969 512h-213.335938c-5.886719 0-10.664062-4.777344-10.664062-10.667969 0-5.886719 4.777343-10.664062 10.664062-10.664062h213.335938c5.886719 0 10.664062 4.777343 10.664062 10.664062 0 5.890625-4.777343 10.667969-10.664062 10.667969zm0 0"/></svg>
