<svg id="icon" height="512pt" viewBox="-75 0 512 512" width="512pt" xmlns="http://www.w3.org/2000/svg"><path d="m309.332031 320c-13.332031 0-20.074219 8.980469-24.53125 14.933594-4.03125 5.375-5.226562 6.398437-7.46875 6.398437-2.367187 0-3.605469-1.023437-7.699219-6.484375-4.460937-5.910156-11.222656-14.847656-24.511718-14.847656-13.335938 0-20.074219 8.980469-24.535156 14.933594-4.011719 5.375-5.203126 6.398437-7.464844 6.398437-2.261719 0-3.4375-1.023437-7.46875-6.398437-4.457032-5.953125-11.199219-14.933594-24.53125-14.933594-13.335938 0-20.074219 8.980469-24.535156 14.933594-4.011719 5.375-5.203126 6.398437-7.464844 6.398437-2.261719 0-3.4375-1.023437-7.46875-6.421875-4.394532-5.929687-11.09375-14.910156-24.320313-14.910156-13.332031 0-20.074219 8.980469-24.53125 14.933594-4.03125 5.375-5.226562 6.398437-7.46875 6.398437-2.238281 0-3.433593-1.023437-7.464843-6.398437-4.460938-5.953125-11.199219-14.933594-24.535157-14.933594-5.886719 0-10.664062 4.777344-10.664062 10.667969v128c0 29.417969 23.914062 53.332031 53.332031 53.332031h170.667969c29.417969 0 53.332031-23.914062 53.332031-53.332031v-128c0-5.890625-4.777344-10.667969-10.667969-10.667969zm0 0" fill="#cfd8dc"/><path d="m181.332031 0c-64.679687 0-117.332031 52.652344-117.332031 117.332031 0 35.03125 15.488281 67.542969 42.667969 90.027344v37.972656c0 5.890625 4.777343 10.667969 10.664062 10.667969h42.667969c-5.886719 0-10.667969-4.777344-10.667969-10.667969v-21.332031c0-5.886719 4.78125-10.667969 10.667969-10.667969s10.667969 4.78125 10.667969 10.667969v21.332031c0 5.890625-4.78125 10.667969-10.667969 10.667969h42.667969c-5.890625 0-10.667969-4.777344-10.667969-10.667969v-21.332031c0-5.886719 4.777344-10.667969 10.667969-10.667969 5.886719 0 10.664062 4.78125 10.664062 10.667969v21.332031c0 5.890625-4.777343 10.667969-10.664062 10.667969h42.664062c5.890625 0 10.667969-4.777344 10.667969-10.667969v-37.972656c27.179688-22.484375 42.667969-54.996094 42.667969-90.027344 0-64.679687-52.652344-117.332031-117.335938-117.332031zm0 0" fill="#ffc107"/><path d="m255.425781 126.273438c-2.457031-12.566407-11.265625-20.652344-22.828125-19.585938-16.191406.40625-38.507812 17.449219-40.46875 30.914062-1.257812 8.597657 1.066406 16.808594 6.503906 23.101563 5.976563 6.914063 14.933594 10.730469 25.21875 10.730469 8.148438 0 15.976563-4.050782 22.035157-11.433594 7.808593-9.515625 11.628906-23.082031 9.539062-33.726562zm0 0" fill="#fafafa"/><path d="m129.8125 106.6875c-12.050781-1.300781-20.457031 6.996094-22.933594 19.5625-2.109375 10.601562 1.707032 24.105469 9.515625 33.621094 6.121094 7.46875 14.039063 11.5625 22.273438 11.5625 10.21875 0 19.496093-3.945313 25.40625-10.816406 5.441406-6.292969 7.722656-14.484376 6.484375-23.039063-2.003906-13.460937-24.445313-30.484375-40.746094-30.890625zm0 0" fill="#fafafa"/><path d="m266.667969 277.332031h-170.667969c-29.417969 0-53.332031 23.914063-53.332031 53.335938 0 5.886719 4.777343 10.664062 10.664062 10.664062 2.242188 0 3.4375 1.023438 7.46875 6.402344 4.457031 5.949219 11.199219 14.933594 24.53125 14.933594 13.335938 0 20.074219-8.984375 24.535157-14.933594 4.03125-5.378906 5.226562-6.402344 7.464843-6.402344 2.132813 0 3.265625 1.003907 7.234375 6.316407 4.457032 5.972656 11.175782 15.019531 24.554688 15.019531 13.332031 0 20.074218-8.984375 24.53125-14.933594 4.011718-5.378906 5.207031-6.402344 7.46875-6.402344 2.261718 0 3.433594 1.023438 7.464844 6.402344 4.460937 5.949219 11.199218 14.933594 24.535156 14.933594 13.332031 0 20.074218-8.984375 24.53125-14.933594 4.011718-5.378906 5.207031-6.402344 7.46875-6.402344 2.21875 0 3.414062 1.023438 7.488281 6.378907 4.5 5.953124 11.285156 14.957031 24.722656 14.957031 13.335938 0 20.074219-8.984375 24.535157-14.933594 4.011718-5.378906 5.203124-6.402344 7.464843-6.402344 5.890625 0 10.667969-4.777343 10.667969-10.664062 0-29.421875-23.914062-53.335938-53.332031-53.335938zm0 0" fill="#795548"/><path d="m266.667969 512h-170.667969c-29.398438 0-53.332031-23.914062-53.332031-53.332031v-128c0-29.421875 23.933593-53.335938 53.332031-53.335938h170.667969c29.394531 0 53.332031 23.914063 53.332031 53.335938v128c0 29.417969-23.9375 53.332031-53.332031 53.332031zm-170.667969-213.332031c-17.644531 0-32 14.355469-32 32v128c0 17.640625 14.355469 32 32 32h170.667969c17.640625 0 32-14.359375 32-32v-128c0-17.644531-14.359375-32-32-32zm0 0"/><path d="m245.332031 256h-128c-5.886719 0-10.664062-4.777344-10.664062-10.667969v-37.972656c-27.179688-22.484375-42.667969-54.996094-42.667969-90.027344 0-64.679687 52.628906-117.332031 117.332031-117.332031 64.707031 0 117.335938 52.652344 117.335938 117.332031 0 35.03125-15.488281 67.542969-42.667969 90.027344v37.972656c0 5.890625-4.777344 10.667969-10.667969 10.667969zm-117.332031-21.332031h106.667969v-32.46875c0-3.328125 1.554687-6.507813 4.242187-8.492188 24.40625-18.496093 38.421875-46.316406 38.421875-76.375 0-52.925781-43.070312-96-96-96-52.925781 0-96 43.074219-96 96 0 30.058594 14.015625 57.878907 38.421875 76.351563 2.6875 2.007812 4.246094 5.164062 4.246094 8.515625zm0 0"/><path d="m202.667969 256c-5.890625 0-10.667969-4.777344-10.667969-10.667969v-21.332031c0-5.886719 4.777344-10.667969 10.667969-10.667969 5.886719 0 10.664062 4.78125 10.664062 10.667969v21.332031c0 5.890625-4.777343 10.667969-10.664062 10.667969zm0 0"/><path d="m160 256c-5.886719 0-10.667969-4.777344-10.667969-10.667969v-21.332031c0-5.886719 4.78125-10.667969 10.667969-10.667969s10.667969 4.78125 10.667969 10.667969v21.332031c0 5.890625-4.78125 10.667969-10.667969 10.667969zm0 0"/><path d="m223.808594 171.433594c-10.113282 0-19.308594-3.925782-25.195313-10.730469-5.441406-6.3125-7.765625-14.503906-6.507812-23.101563 1.964843-13.464843 24.277343-30.53125 40.449219-30.914062 11.582031-1.195312 20.375 7.019531 22.871093 19.585938 2.089844 10.644531-1.75 24.191406-9.582031 33.707031-6.058594 7.402343-13.886719 11.453125-22.035156 11.453125zm-10.644532-30.269532c-.234374 2.21875.296876 4.09375 1.578126 5.589844 1.832031 2.132813 5.140624 3.347656 9.066406 3.347656 1.621094 0 3.648437-1.324218 5.566406-3.667968 4.140625-5.015625 5.867188-12.226563 5.121094-16.042969-.320313-1.601563-.746094-2.347656-.894532-2.496094-4.097656-1.238281-17.984374 8.148438-20.4375 13.269531zm-10.496093-2.027343h.210937zm0 0"/><path d="m138.667969 171.433594c-8.234375 0-16.152344-4.117188-22.273438-11.582032-7.808593-9.515624-11.625-23.019531-9.515625-33.601562 2.453125-12.308594 10.730469-19.582031 22.25-19.582031.238282 0 .449219 0 .707032.019531 16.296874.40625 38.738281 17.449219 40.722656 30.914062 1.261718 8.554688-1.042969 16.746094-6.484375 23.039063-5.929688 6.867187-15.1875 10.792969-25.40625 10.792969zm-10.21875-43.347656c.085937 0-.34375.726562-.664063 2.324218-.746094 3.753906 1.003906 10.902344 5.101563 15.914063 1.960937 2.410156 4.074219 3.777343 5.78125 3.777343 4.007812 0 7.402343-1.257812 9.277343-3.414062 1.261719-1.449219 1.792969-3.304688 1.578126-5.503906-2.664063-5.480469-17.148438-14.632813-21.074219-13.097656zm0 0"/><path d="m352 512h-341.332031c-5.890625 0-10.667969-4.777344-10.667969-10.667969 0-5.886719 4.777344-10.664062 10.667969-10.664062h341.332031c5.886719 0 10.667969 4.777343 10.667969 10.664062 0 5.890625-4.78125 10.667969-10.667969 10.667969zm0 0"/><path d="m277.246094 362.667969c-13.332032 0-20.09375-8.984375-24.574219-14.914063-4.03125-5.398437-5.226563-6.421875-7.488281-6.421875-2.261719 0-3.457032 1.023438-7.488282 6.421875-4.480468 5.929688-11.21875 14.914063-24.554687 14.914063-13.332031 0-20.050781-9.003907-24.511719-14.933594-4.011718-5.378906-5.203125-6.402344-7.445312-6.402344-2.238282 0-3.433594 1.023438-7.464844 6.402344-4.460938 5.949219-11.203125 14.933594-24.535156 14.933594-13.332032 0-20.054688-9.003907-24.511719-14.933594-4.03125-5.378906-5.207031-6.402344-7.445313-6.402344-2.21875 0-3.390624 1.023438-7.425781 6.402344-4.457031 5.929687-11.175781 14.933594-24.488281 14.933594s-20.054688-8.984375-24.511719-14.933594c-4.054687-5.378906-5.226562-6.402344-7.46875-6.402344-5.886719 0-10.664062-4.777343-10.664062-10.664062 0-5.890625 4.777343-10.667969 10.664062-10.667969 13.335938 0 20.074219 9.003906 24.535157 14.933594 4.011718 5.375 5.203124 6.398437 7.445312 6.398437 2.238281 0 3.414062-1.023437 7.421875-6.398437 4.460937-5.929688 11.179687-14.933594 24.492187-14.933594s20.054688 9.003906 24.511719 14.933594c4.03125 5.375 5.226563 6.398437 7.445313 6.398437 2.242187 0 3.433594-1.023437 7.46875-6.398437 4.457031-5.953125 11.199218-14.933594 24.53125-14.933594 13.332031 0 20.054687 9.003906 24.511718 14.933594 4.011719 5.375 5.207032 6.398437 7.445313 6.398437 2.242187 0 3.433594-1.023437 7.488281-6.398437 4.460938-5.953125 11.199219-14.933594 24.554688-14.933594 13.355468 0 20.097656 8.980469 24.554687 14.910156 4.054688 5.398438 5.25 6.421875 7.507813 6.421875 2.261718 0 3.457031-1.023437 7.53125-6.421875 4.460937-5.929687 11.222656-14.910156 24.554687-14.910156 5.890625 0 10.667969 4.777344 10.667969 10.667969 0 5.886719-4.777344 10.664062-10.667969 10.664062-2.261719 0-3.453125 1.023438-7.53125 6.421875-4.457031 5.929688-11.199219 14.914063-24.554687 14.914063zm0 0"/></svg>
