<svg id="icon" height="512pt" viewBox="-64 0 512 512" width="512pt" xmlns="http://www.w3.org/2000/svg"><path d="m373.214844 91.347656c-29.015625-59.964844-112.660156-91.347656-182.230469-91.347656-39.019531 0-83.328125 10.515625-119.464844 30.890625l48.363281 12.097656c2.75.679688 5.097657 2.429688 6.570313 4.863281 1.449219 2.410157 1.898437 5.3125 1.214844 8.0625l-8.425781 33.644532 44.691406 17.875c5.484375 2.199218 8.128906 8.40625 5.929687 13.847656-1.664062 4.179688-5.671875 6.71875-9.898437 6.71875-1.320313 0-2.664063-.257812-3.964844-.769531l-53.335938-21.332031c-4.949218-1.984376-7.679687-7.316407-6.398437-12.480469l8.085937-32.320313-56.707031-14.164062c-15.679687 12.4375-28.605469 27.199218-36.925781 44.414062-28.222656 58.347656 6.761719 150.59375 20.074219 177.515625-1.8125 25.941407-3.710938 55.234375 27.285156 71.273438 25.40625 13.144531 45.886719 36.714843 48.640625 56.042969.320312 2.175781 1.300781 4.203124 2.816406 5.804687 19.902344 20.96875 56.425782 24.683594 79.722656 24.683594 7.1875 0 13.097657-.363281 16.894532-.664063 26.625-2.152344 58.816406-9.941406 69.269531-25.34375.917969-1.34375 1.515625-2.878906 1.75-4.480468 2.75-19.328126 23.230469-42.898438 48.640625-56.042969 30.996094-16.039063 29.097656-45.332031 27.285156-71.273438 13.355469-26.921875 48.339844-119.144531 20.117188-177.515625zm0 0" fill="#ffc107"/><path d="m290.417969 405.632812c-4.753907-1.238281-9.746094 1.171876-11.988281 5.589844-16.554688 32.957032-57.28125 36.777344-86.464844 36.777344s-69.90625-3.820312-86.460938-36.800781c-2.21875-4.414063-7.277344-6.847657-11.992187-5.589844-4.820313 1.152344-8.210938 5.460937-8.210938 10.390625 0 59.734375 7.1875 96 106.664063 96 106.667968 0 106.667968-62.464844 106.667968-96 0-4.929688-3.390624-9.238281-8.214843-10.367188zm0 0" fill="#455a64"/><g fill="#fafafa"><path d="m319.753906 221.886719c-3.992187-19.6875-16.769531-31.015625-35.222656-30.25-29.503906.746093-68.136719 32.191406-71.105469 52.117187-2.066406 13.78125 1.582031 26.902344 10.261719 36.972656 9.835938 11.390626 25.496094 17.941407 42.945312 17.941407 13.355469 0 26.324219-6.890625 36.585938-19.394531 13.269531-16.234376 20.074219-39.828126 16.535156-57.386719zm0 0"/><path d="m170.503906 243.777344c-2.964844-19.949219-41.597656-51.371094-71.101562-52.117188-18.328125-.917968-31.253906 10.539063-35.222656 30.226563-3.542969 17.539062 3.265624 41.152343 16.535156 57.367187 10.257812 12.523438 23.230468 19.414063 36.585937 19.414063 17.449219 0 33.109375-6.550781 42.941407-17.921875 8.683593-10.070313 12.332031-23.210938 10.261718-36.96875zm0 0"/><path d="m209.972656 312.257812c-3.09375-2.945312-7.617187-3.734374-11.542968-2.050781-3.925782 1.6875-6.464844 5.527344-6.464844 9.792969 0-4.265625-2.539063-8.105469-6.460938-9.792969-3.882812-1.683593-8.449218-.894531-11.542968 2.050781-5.78125 5.480469-24.660157 24.53125-24.660157 39.742188 0 18.539062 8.980469 32 21.332031 32 12.351563 0 21.332032-13.460938 21.332032-32 0 18.539062 8.984375 32 21.335937 32 12.351563 0 21.332031-13.460938 21.332031-32 0-15.210938-18.878906-34.261719-24.660156-39.742188zm0 0"/></g><path d="m189.277344 426.6875c-23.296875 0-59.839844-3.710938-79.722656-24.683594-1.515626-1.597656-2.515626-3.648437-2.816407-5.824218-2.75-19.304688-23.210937-42.878907-48.636719-56.019532-31-16.042968-29.101562-45.332031-27.289062-71.273437-13.332031-26.945313-48.339844-119.167969-20.09375-177.539063 29.035156-59.964844 112.660156-91.347656 180.265625-91.347656 69.570313 0 153.195313 31.382812 182.230469 91.347656 28.246094 58.347656-6.761719 150.59375-20.097656 177.515625 1.816406 25.941407 3.714843 55.234375-27.285157 71.273438-25.429687 13.144531-45.886719 36.714843-48.640625 56.023437-.234375 1.621094-.832031 3.136719-1.746094 4.5-10.476562 15.425782-42.667968 23.210938-69.292968 25.34375-3.773438.320313-9.707032.683594-16.875.683594zm-62.101563-37.3125c13.867188 12.074219 43.585938 18.15625 77.269531 15.402344 28.054688-2.261719 46.613282-9.664063 52.160157-14.761719 5.847656-29.164063 34.476562-55.894531 59.433593-68.820313 17.816407-9.214843 17.644532-24.683593 15.765626-51.199218l-.191407-2.582032c-.128906-1.984374.300781-3.96875 1.21875-5.71875 10.257813-19.414062 46.3125-109.054687 21.160157-161.042968-24.917969-51.523438-101.589844-79.320313-161.042969-79.320313-61.421875 0-138.09375 27.796875-163.03125 79.320313-25.152344 51.988281 10.878906 141.628906 21.164062 161.042968.917969 1.75 1.34375 3.734376 1.214844 5.71875l-.191406 2.582032c-1.855469 26.515625-2.046875 42.003906 15.765625 51.199218 24.789062 12.800782 53.183594 39.253907 59.304687 68.179688zm0 0"/><path d="m191.964844 512c-99.496094 0-106.664063-36.265625-106.664063-96 0-4.929688 3.390625-9.238281 8.210938-10.367188 4.84375-1.257812 9.773437 1.171876 11.992187 5.589844 16.574219 32.957032 57.277344 36.777344 86.460938 36.777344s69.890625-3.820312 86.464844-36.800781c2.21875-4.4375 7.105468-6.824219 11.988281-5.589844 4.824219 1.152344 8.214843 5.460937 8.214843 10.390625 0 33.535156 0 96-106.667968 96zm-84.242188-65.152344c3.582032 29.164063 18.898438 43.820313 84.242188 43.820313 59.519531 0 77.527344-19.285157 82.96875-42.839844-28.546875 21.503906-67.671875 21.503906-82.96875 21.503906-15.527344 0-55.59375 0-84.242188-22.484375zm0 0"/><path d="m266.632812 298.667969c-17.449218 0-33.109374-6.550781-42.921874-17.941407-8.683594-10.070312-12.351563-23.191406-10.285157-36.949218 2.988281-19.96875 41.644531-51.371094 71.128907-52.117188 18.300781-1.046875 31.230468 10.539063 35.21875 30.25 3.542968 17.535156-3.261719 41.152344-16.53125 57.363282-10.261719 12.503906-23.277344 19.394531-36.609376 19.394531zm-32.105468-51.777344c-1.132813 7.636719.703125 14.550781 5.332031 19.925781 5.761719 6.675782 15.53125 10.515625 26.773437 10.515625 9.214844 0 16.535157-7.253906 20.074219-11.582031 9.214844-11.242188 14.421875-28.289062 12.140625-39.636719-2.371094-11.777343-7.980468-13.058593-13.675781-13.144531-20.800781.449219-49.429687 26.136719-50.644531 33.921875zm0 0"/><path d="m117.300781 298.667969c-13.335937 0-26.347656-6.890625-36.585937-19.394531-13.292969-16.234376-20.078125-39.828126-16.535156-57.363282 3.988281-19.710937 16.980468-31.316406 35.222656-30.25 29.480468.746094 68.136718 32.167969 71.125 52.117188 2.046875 13.78125-1.601563 26.898437-10.285156 36.949218-9.832032 11.390626-25.492188 17.941407-42.941407 17.941407zm-19.136719-85.71875c-5.484374 0-10.773437 1.792969-13.078124 13.140625-2.304688 11.351562 2.921874 28.394531 12.140624 39.636718 3.539063 4.351563 10.855469 11.605469 20.074219 11.605469 11.242188 0 21.011719-3.839843 26.773438-10.515625 4.628906-5.375 6.484375-12.265625 5.332031-19.925781-1.214844-7.785156-29.84375-33.472656-50.644531-33.941406-.191407 0-.40625 0-.597657 0zm0 0"/><path d="m213.300781 384c-12.375 0-21.335937-13.460938-21.335937-32v-32c0-4.265625 2.539062-8.105469 6.445312-9.792969 3.945313-1.664062 8.445313-.894531 11.5625 2.050781 5.78125 5.480469 24.660156 24.53125 24.660156 39.742188 0 18.539062-8.960937 32-21.332031 32zm0 0"/><path d="m170.632812 384c-12.375 0-21.332031-13.460938-21.332031-32 0-15.210938 18.878907-34.261719 24.660157-39.742188 3.113281-2.945312 7.617187-3.714843 11.5625-2.050781 3.902343 1.6875 6.441406 5.527344 6.441406 9.792969v32c0 18.539062-8.957032 32-21.332032 32zm2.773438-20.457031h.214844zm0 0"/><path d="m159.964844 128c-1.320313 0-2.664063-.257812-3.964844-.769531l-53.335938-21.332031c-4.949218-1.984376-7.679687-7.316407-6.378906-12.480469l8.066406-32.320313-32.300781-8.085937c-5.714843-1.425781-9.195312-7.230469-7.765625-12.925781 1.429688-5.738282 7.234375-9.214844 12.929688-7.765626l42.667968 10.667969c5.714844 1.425781 9.191407 7.230469 7.761719 12.925781l-8.402343 33.644532 44.691406 17.875c5.460937 2.199218 8.128906 8.40625 5.953125 13.847656-1.6875 4.179688-5.695313 6.71875-9.921875 6.71875zm0 0"/></svg>
