<svg id="icon" height="511pt" viewBox="-10 0 511 511.78875" width="511pt" xmlns="http://www.w3.org/2000/svg"><path d="m139.507812 311.683594c-3.925781 0-7.679687-2.175782-9.554687-5.890625-1.558594-3.113281-1.558594-5.972657-1.558594-7.335938 0-5.890625 4.777344-10.667969 10.667969-10.667969 5.738281 0 10.410156 4.523438 10.664062 10.21875 1.453126 4.863282-.765624 10.21875-5.460937 12.566407-1.535156.765625-3.15625 1.109375-4.757813 1.109375zm9.515626-15.445313s0 .019531 0 0zm0 0"/><path d="m349.535156 368.960938c-3.605468-.640626-7.210937.898437-9.558594 3.671874-2.34375 2.792969-3.113281 6.570313-2.046874 10.046876.9375 3.050781 1.75 5.953124 2.496093 8.660156l.042969.148437c-11.433594 5.464844-48.148438 13.632813-94.742188 13.632813-48.574218 0-86.421874-8.875-96.042968-14.335938l-.167969-10.625c0-3.089844-1.324219-6.015625-3.648437-8.039062-2.324219-2.027344-5.375-2.902344-8.46875-2.519532-41.195313 5.695313-137.003907 23.636719-137.003907 67.519532 0 49.023437 123.414063 74.667968 245.332031 74.667968 121.921876 0 245.335938-25.644531 245.335938-74.667968 0-44.480469-98.964844-62.503906-141.527344-68.160156zm0 0" fill="#607d8b"/><path d="m362.613281 391.382812-1.621093-5.738281c-.8125-2.902343-1.664063-6.015625-2.601563-9.023437-2.496094-8.960938-5.503906-19.457032-8.832031-31.039063-3.480469-12.097656-7.296875-25.386719-11.222656-39.382812-1.578126-5.566407-7.382813-8.789063-12.863282-7.464844l-3.414062.851563c-1.621094.425781-3.113282 1.195312-4.375 2.261718-10.003906 8.660156-40.125 17.941406-82.621094 17.941406-51.777344 0-83.117188-13.824218-85.378906-21.25-1.511719-4.96875-6.292969-8.082031-11.605469-7.464843-5.160156.683593-9.085937 5.011719-9.257813 10.21875-1.023437 30.164062-.894531 56.851562-.640624 78.847656l.214843 14.316406c0 31.125 116.160157 32 117.332031 32 1.175782 0 117.335938-.875 117.335938-32 0-1.046875-.152344-2.070312-.449219-3.074219zm0 0" fill="#455a64"/><path d="m403.871094 68.460938c-35.199219-51.691407-111.574219-88.085938-173.589844-56.875-56.46875 28.246093-89.960938 112.597656-99.519531 250.730468-.148438 2.347656.46875 4.714844 1.792969 6.675782 14.71875 21.890624 64.425781 29.675781 102.507812 29.675781 34.195312 0 64.980469-5.546875 82.539062-14.441407l3.199219-.855468c2.730469-.722656 5.078125-2.515625 6.484375-4.96875s1.792969-5.375 1.066406-8.105469c-16.46875-61.121094-26.347656-105.878906-29.355468-133.015625-4.222656-37.546875.023437-61.800781 12.269531-70.1875 13.203125-9.066406 40.488281-3.21875 78.847656 16.832031 4.308594 2.21875 9.640625 1.304688 12.90625-2.367187 3.261719-3.667969 3.605469-9.066406.851563-13.097656zm0 0" fill="#455a64"/><path d="m338.3125 306.136719c-2.089844-7.167969-4.074219-14.507813-6.121094-21.910157l-3.882812-14.039062c-1.558594-5.652344-7.464844-8.875-13.011719-7.445312l-5.183594 1.601562c-16.429687 8.128906-44.480469 12.992188-75.050781 12.992188-48.578125 0-79.320312-12.074219-84.800781-20.246094-2.539063-3.777344-7.210938-5.503906-11.628907-4.332032-4.414062 1.195313-7.570312 5.035157-7.871093 9.601563-.875 13.332031-1.492188 26.027344-1.941407 39.316406 0 1.066407.148438 2.113281.46875 3.117188 7.703126 25.109375 58.667969 36.328125 105.773438 36.328125 40.636719 0 77.160156-8.339844 94.460938-21.375l1.152343-.277344c2.816407-.703125 5.226563-2.515625 6.65625-5.035156 1.429688-2.515625 1.792969-5.503906.980469-8.296875zm0 0" fill="#607d8b"/><path d="m235.0625 341.015625c-51.371094 0-106.667969-13.355469-106.667969-42.667969 0-5.886718 4.777344-10.664062 10.667969-10.664062 5.886719 0 10.664062 4.777344 10.664062 10.664062 0 5.484375 29.335938 21.335938 85.335938 21.335938 42.496094 0 72.597656-9.28125 82.601562-17.878906 4.4375-3.820313 11.199219-3.347657 15.039063 1.128906 3.839844 4.460937 3.328125 11.179687-1.128906 15.042968-16.46875 14.207032-53.460938 23.039063-96.511719 23.039063zm0 0"/><path d="m235.0625 298.777344c-38.082031 0-87.789062-7.765625-102.53125-29.699219-3.285156-4.882813-1.980469-11.519531 2.902344-14.804687 4.886718-3.242188 11.5-2.027344 14.804687 2.902343 5.503907 8.191407 36.246094 20.265625 84.824219 20.265625 29.992188 0 58.75-5.011718 75.027344-13.078125 5.207031-2.578125 11.648437-.46875 14.292968 4.84375 2.605469 5.269531.449219 11.667969-4.839843 14.292969-19.308594 9.558594-50.902344 15.277344-84.480469 15.277344zm0 0"/><path d="m203.0625 330.347656c-5.890625 0-10.667969-4.777344-10.667969-10.664062v-32c0-5.890625 4.777344-10.667969 10.667969-10.667969 5.886719 0 10.664062 4.777344 10.664062 10.667969v32c0 5.886718-4.777343 10.664062-10.664062 10.664062zm0 0"/><path d="m267.0625 330.347656c-5.890625 0-10.667969-4.777344-10.667969-10.664062v-32c0-5.890625 4.777344-10.667969 10.667969-10.667969 5.886719 0 10.664062 4.777344 10.664062 10.667969v32c0 5.886718-4.777343 10.664062-10.664062 10.664062zm0 0"/><path d="m245.726562 511.683594c-121.917968 0-245.332031-25.644532-245.332031-74.667969 0-43.605469 95.785157-61.738281 136.980469-67.476563 3.050781-.320312 6.101562.46875 8.425781 2.453126 2.328125 2.003906 3.691407 4.882812 3.734375 7.933593l.171875 10.796875c9.578125 5.4375 47.378907 14.292969 96.042969 14.292969 46.65625 0 83.347656-8.148437 94.71875-13.609375l-2.558594-8.984375c-1.003906-3.453125-.171875-7.1875 2.175782-9.898437 2.324218-2.730469 5.972656-4.09375 9.472656-3.625 42.539062 5.675781 141.503906 23.636718 141.503906 68.117187 0 49.023437-123.414062 74.667969-245.335938 74.667969zm-117.355468-119.234375c-77.4375 12.4375-106.644532 33.601562-106.644532 44.566406 0 21.761719 87.277344 53.332031 224 53.332031 136.726563 0 224-31.570312 224-53.332031 0-11.09375-29.355468-32.191406-106.835937-44.585937.105469.617187.171875 1.277343.171875 1.917968 0 31.125-116.160156 32-117.335938 32-1.171874 0-117.332031-.875-117.332031-32zm21.355468 1.558593v.234376c0-.085938 0-.148438 0-.234376zm0 0"/><path d="m245.726562 426.347656c-1.171874 0-117.332031-.875-117.332031-32l-.128906-8.917968c-1.171875-79.292969-4.691406-320.59375 102.015625-373.949219 62.058594-31.082031 138.453125 5.332031 173.589844 56.875 2.753906 4.03125 2.410156 9.429687-.832032 13.074219-3.261718 3.648437-8.574218 4.609374-12.90625 2.371093-38.378906-19.992187-65.578124-25.730469-78.847656-16.683593-12.222656 8.382812-16.46875 32.597656-12.265625 70.035156 6.183594 55.105468 38.699219 167.703125 56.167969 228.203125l7.511719 26.09375c.234375.9375.363281 1.917969.363281 2.898437 0 31.125-116.160156 32-117.335938 32zm-96.042968-35.625c9.582031 5.4375 47.402344 14.292969 96.042968 14.292969 46.65625 0 83.328126-8.148437 94.722657-13.609375l-5.78125-20.117188c-17.644531-61.101562-50.496094-174.851562-56.898438-231.746093-5.269531-47.0625 1.730469-76.523438 21.417969-90.027344 12.523438-8.574219 28.972656-10.28125 50.347656-5.011719-30.632812-21.015625-71.679687-32.9375-109.738281-13.929687-62.847656 31.445312-93.207031 150.695312-90.21875 354.558593zm.042968 3.285156v.214844c0-.066406 0-.128906 0-.214844zm0 0"/></svg>
