<svg id="icon" height="512pt" viewBox="-44 0 512 512.001" width="512pt" xmlns="http://www.w3.org/2000/svg"><path d="m28.515625 41.597656v428.804688c0 18.832031 15.265625 34.097656 34.097656 34.097656h238.628907c18.832031 0 34.101562-15.265625 34.101562-34.097656v-428.804688c0-18.832031-15.269531-34.097656-34.101562-34.097656h-238.628907c-18.832031 0-34.097656 15.265625-34.097656 34.097656zm0 0" fill="#6a7193"/><path d="m301.242188 7.5h-23c18.832031 0 34.101562 15.265625 34.101562 34.097656v428.804688c0 18.832031-15.269531 34.097656-34.101562 34.097656h23c18.832031 0 34.101562-15.265625 34.101562-34.097656v-428.804688c0-18.832031-15.265625-34.097656-34.101562-34.097656zm0 0" fill="#575b7a"/><path d="m28.515625 77.554688h306.828125v356.890624h-306.828125zm0 0" fill="#c8e7f7"/><path d="m312.34375 77.554688h23v356.890624h-23zm0 0" fill="#8cbcd6"/><path d="m15.664062 180.167969h12.851563v-61.789063h-12.851563c-4.507812 0-8.164062 3.65625-8.164062 8.167969v45.457031c0 4.507813 3.65625 8.164063 8.164062 8.164063zm0 0" fill="#8cbafa"/><path d="m15.664062 271.640625h12.851563v-61.785156h-12.851563c-4.507812 0-8.164062 3.65625-8.164062 8.164062v45.457031c0 4.507813 3.65625 8.164063 8.164062 8.164063zm0 0" fill="#8cbafa"/><path d="m197.882812 469.472656c0 8.808594-7.144531 15.953125-15.953124 15.953125-8.808594 0-15.953126-7.144531-15.953126-15.953125s7.144532-15.953125 15.953126-15.953125c8.808593 0 15.953124 7.144531 15.953124 15.953125zm0 0" fill="#252d4c"/><path d="m391.414062 118.378906h-155.53125c-13.578124 0-24.585937 11.007813-24.585937 24.585938v155.53125c0 13.578125 11.007813 24.585937 24.585937 24.585937h9.855469c5.128907 0 9.285157 4.15625 9.285157 9.285157v29.183593c0 4.550781 5.8125 6.460938 8.511718 2.796875l27.636719-37.492187c1.75-2.375 4.527344-3.777344 7.476563-3.777344h92.765624c13.578126 0 24.585938-11.003906 24.585938-24.585937v-155.527344c0-13.578125-11.007812-24.585938-24.585938-24.585938zm0 0" fill="#ffcd34"/><path d="m181.929688 492.925781c12.933593 0 23.453124-10.523437 23.453124-23.453125 0-12.929687-10.519531-23.453125-23.453124-23.453125-12.933594 0-23.453126 10.523438-23.453126 23.453125 0 12.929688 10.519532 23.453125 23.453126 23.453125zm0-31.90625c4.660156 0 8.453124 3.792969 8.453124 8.453125s-3.792968 8.453125-8.453124 8.453125c-4.660157 0-8.453126-3.792969-8.453126-8.453125s3.792969-8.453125 8.453126-8.453125zm0 0"/><path d="m151.570312 42.527344c0 4.140625 3.359376 7.5 7.5 7.5h45.714844c4.144532 0 7.5-3.359375 7.5-7.5s-3.355468-7.5-7.5-7.5h-45.714844c-4.140624 0-7.5 3.359375-7.5 7.5zm0 0"/><path d="m288.953125 157.816406h-33.929687c-4.140626 0-7.5 3.359375-7.5 7.5v33.929688c0 4.144531 3.359374 7.5 7.5 7.5h33.929687c4.144531 0 7.5-3.355469 7.5-7.5v-33.929688c0-4.140625-3.355469-7.5-7.5-7.5zm-7.5 33.929688h-18.929687v-18.929688h18.929687zm0 0"/><path d="m372.273438 157.816406h-33.929688c-4.144531 0-7.5 3.359375-7.5 7.5v33.929688c0 4.144531 3.355469 7.5 7.5 7.5h33.929688c4.140624 0 7.5-3.355469 7.5-7.5v-33.929688c0-4.140625-3.359376-7.5-7.5-7.5zm-7.5 33.929688h-18.929688v-18.929688h18.929688zm0 0"/><path d="m288.953125 234.710938h-33.929687c-4.140626 0-7.5 3.359374-7.5 7.5v33.929687c0 4.144531 3.359374 7.5 7.5 7.5h33.929687c4.144531 0 7.5-3.355469 7.5-7.5v-33.929687c0-4.140626-3.355469-7.5-7.5-7.5zm-7.5 33.929687h-18.929687v-18.929687h18.929687zm0 0"/><path d="m372.273438 234.710938c-4.144532 0-7.5 3.359374-7.5 7.5v26.429687h-9.464844c-4.144532 0-7.5 3.359375-7.5 7.5 0 4.144531 3.355468 7.5 7.5 7.5h16.964844c4.140624 0 7.5-3.355469 7.5-7.5v-33.929687c0-4.140626-3.359376-7.5-7.5-7.5zm0 0"/><path d="m350.859375 247.867188c.128906-4.140626-3.121094-7.601563-7.261719-7.730469l-20.84375-.652344v-11.339844c0-4.140625-3.355468-7.5-7.5-7.5-4.140625 0-7.5 3.359375-7.5 7.5v18.609375c0 4.050782 3.21875 7.367188 7.265625 7.492188l28.109375.882812c.078125.003906.160156.003906.238282.003906 4.03125 0 7.363281-3.203124 7.492187-7.265624zm0 0"/><path d="m315.253906 204.707031c4.144532 0 7.5-3.355469 7.5-7.5v-3.128906c0-4.140625-3.355468-7.5-7.5-7.5-4.140625 0-7.5 3.359375-7.5 7.5v3.128906c0 4.144531 3.359375 7.5 7.5 7.5zm0 0"/><path d="m327.21875 268.640625h-2.097656c-4.144532 0-7.5 3.359375-7.5 7.5 0 4.144531 3.355468 7.5 7.5 7.5h2.097656c4.144531 0 7.5-3.355469 7.5-7.5 0-4.140625-3.355469-7.5-7.5-7.5zm0 0"/><path d="m346.109375 231.832031c4.140625 0 7.5-3.355469 7.5-7.5 0-4.140625-3.359375-7.5-7.5-7.5h-5.765625c-4.144531 0-7.5 3.359375-7.5 7.5 0 4.144531 3.355469 7.5 7.5 7.5zm0 0"/><path d="m391.414062 110.878906h-48.574218v-33.105468c0-.074219.003906-.144532.003906-.21875 0-.074219-.003906-.144532-.003906-.21875v-35.734376c0-22.941406-18.664063-41.601562-41.601563-41.601562h-104.308593c-4.140626 0-7.5 3.359375-7.5 7.5s3.359374 7.5 7.5 7.5h104.308593c14.667969 0 26.601563 11.933594 26.601563 26.601562v28.453126h-291.824219v-28.457032c0-14.664062 11.933594-26.597656 26.597656-26.597656h104.316407c4.140624 0 7.5-3.359375 7.5-7.5s-3.359376-7.5-7.5-7.5h-104.316407c-22.9375 0-41.597656 18.660156-41.597656 41.597656v69.28125h-5.351563c-8.636718 0-15.664062 7.027344-15.664062 15.667969v45.457031c0 8.636719 7.027344 15.664063 15.664062 15.664063h5.351563v14.6875h-5.351563c-8.636718 0-15.664062 7.027343-15.664062 15.664062v45.457031c0 8.636719 7.027344 15.664063 15.664062 15.664063h5.351563v191.261719c0 22.9375 18.660156 41.597656 41.601563 41.597656h238.628906c22.9375 0 41.597656-18.660156 41.597656-41.597656v-117.132813c0-4.144531-3.359375-7.5-7.5-7.5s-7.5 3.355469-7.5 7.5v73.675781h-291.828125v-341.890624h291.824219v25.824218h-91.957032c-17.691406 0-32.082031 14.394532-32.082031 32.085938v155.527344c0 17.695312 14.394531 32.085937 32.082031 32.085937h9.855469c.984375 0 1.789063.804687 1.789063 1.789063v29.183593c0 5.289063 3.375 9.953125 8.398437 11.601563 1.261719.417968 2.550781.617187 3.828125.617187 3.800782 0 7.46875-1.785156 9.820313-4.972656l27.636719-37.492187c.335937-.453126.871093-.726563 1.4375-.726563h92.765624c17.691407 0 32.085938-14.390625 32.085938-32.082031v-155.53125c0-17.691406-14.394531-32.085938-32.085938-32.085938zm-375.75 61.789063c-.367187 0-.664062-.300781-.664062-.664063v-45.460937c0-.367188.296875-.664063.664062-.664063h5.351563v46.789063zm0 91.472656c-.367187 0-.664062-.296875-.664062-.664063v-45.457031c0-.367187.296875-.667969.664062-.667969h5.351563v46.789063zm312.179688 177.804687v28.457032c0 14.664062-11.933594 26.597656-26.601562 26.597656h-238.628907c-14.664062 0-26.597656-11.933594-26.597656-26.597656v-28.457032zm80.65625-143.449218c0 9.417968-7.667969 17.082031-17.085938 17.082031h-92.765624c-5.3125 0-10.363282 2.554687-13.511719 6.828125l-22.613281 30.671875v-20.710937c0-9.257813-7.527344-16.785157-16.785157-16.785157h-9.855469c-9.421874 0-17.085937-7.667969-17.085937-17.085937v-155.53125c0-9.421875 7.667969-17.085938 17.085937-17.085938h155.53125c9.417969 0 17.082032 7.667969 17.082032 17.085938v155.53125zm0 0"/></svg>
