<svg id="icon" height="512pt" viewBox="0 -18 512.00004 512" width="512pt" xmlns="http://www.w3.org/2000/svg"><path d="m455.90625 468.449219h-174.441406c-10.640625 0-19.265625-8.628907-19.265625-19.269531v-258.832032c0-26.015625 21.085937-47.101562 47.097656-47.101562h118.773437c26.011719 0 47.101563 21.089844 47.101563 47.101562v258.832032c0 10.644531-8.625 19.269531-19.265625 19.269531zm0 0" fill="#aed559"/><path d="m428.070312 143.246094h-25c26.011719 0 47.101563 21.085937 47.101563 47.101562v258.832032c0 10.644531-8.625 19.269531-19.265625 19.269531h25c10.640625 0 19.265625-8.625 19.265625-19.269531v-258.832032c0-26.015625-21.089844-47.101562-47.101563-47.101562zm0 0" fill="#7fab38"/><path d="m262.199219 230.273438h212.972656v96.3125h-212.972656zm0 0" fill="#8cbafa"/><path d="m450.171875 230.273438h25v96.3125h-25zm0 0" fill="#5692d8"/><path d="m395.113281 87.25h-52.855469c-7.964843 0-14.421874 6.457031-14.421874 14.417969v41.578125h81.695312v-41.578125c0-7.960938-6.453125-14.417969-14.417969-14.417969zm0 0" fill="#e9e9ea"/><path d="m395.113281 87.25h-23.070312c7.964843 0 14.421875 6.457031 14.421875 14.417969v41.578125h23.066406v-41.578125c0-7.960938-6.453125-14.417969-14.417969-14.417969zm0 0" fill="#c5c4cc"/><path d="m502.910156 56.050781-14.039062-28.070312c-6.316406-12.632813-19.011719-20.480469-33.136719-20.480469h-147.851563c-1.71875 0-3.113281 1.394531-3.113281 3.113281v23.945313c0 1.722656 1.394531 3.113281 3.113281 3.113281h147.855469c2.617188 0 4.976563 1.457031 6.144531 3.800781l14.039063 28.074219c2.644531 5.285156 7.972656 8.34375 13.507813 8.34375 2.265624 0 4.566406-.515625 6.734374-1.597656 7.453126-3.726563 10.472657-12.789063 6.746094-20.242188zm0 0" fill="#ed5176"/><path d="m352.199219 37.671875h32.972656v49.578125h-32.972656zm0 0" fill="#6a7193"/><path d="m352.199219 37.671875h32.972656v18.300781h-32.972656zm0 0" fill="#575b7a"/><path d="m115.816406 170.191406c-9.550781 5.515625-15.195312 15.191406-15.992187 25.414063-9.25-4.425781-20.449219-4.371094-30.003907 1.144531-15.390624 8.886719-20.664062 28.570312-11.777343 43.964844 8.886719 15.394531 28.570312 20.667968 43.964843 11.78125.652344-.378906 1.285157-.777344 1.902344-1.191406l72.957032 126.367187 42.113281-24.3125-72.960938-126.367187c.667969-.328126 1.328125-.675782 1.984375-1.050782 15.390625-8.886718 20.667969-28.570312 11.777344-43.964844-8.886719-15.398437-28.570312-20.671874-43.964844-11.785156zm0 0" fill="#e9e9ea"/><path d="m138.515625 194.25c8.890625 15.394531 6.222656 33.574219-5.953125 40.605469-.003906 0-.011719.003906-.015625.007812-.835937.480469-1.144531 1.527344-.664063 2.359375l72.0625 124.816406 15.03125-8.679687-72.957031-126.371094c.664063-.324219 1.328125-.671875 1.980469-1.046875 16.027344-9.253906 21.085938-30.210937 10.609375-45.847656-8.925781-13.320312-26.667969-18.007812-41.019531-10.851562-3.765625 1.875-6.984375 4.371093-9.609375 7.292968 10.933593-1.472656 23.386719 5.332032 30.535156 17.714844zm0 0" fill="#c5c4cc"/><path d="m284.425781 298.921875h-190.292969c-4.03125 0-7.753906 2.15625-9.761718 5.652344l-41.941406 73.140625v44.664062h293.695312v-44.664062l-41.941406-73.140625c-2.003906-3.496094-5.726563-5.652344-9.757813-5.652344zm0 0" fill="#ed5176"/><path d="m294.183594 304.574219c-2.003906-3.496094-5.726563-5.652344-9.757813-5.652344h-26c4.03125 0 7.753907 2.15625 9.757813 5.652344l41.941406 73.140625v44.664062h26v-44.664062zm0 0" fill="#ba365f"/><path d="m356.714844 422.378906h-334.871094c-7.921875 0-14.34375 6.421875-14.34375 14.34375v17.378906c0 7.925782 6.421875 14.347657 14.34375 14.347657h334.871094c7.921875 0 14.34375-6.421875 14.34375-14.347657v-17.378906c0-7.921875-6.421875-14.34375-14.34375-14.34375zm0 0" fill="#8cbafa"/><path d="m356.714844 422.378906h-25.875c7.921875 0 14.34375 6.421875 14.34375 14.34375v17.378906c0 7.925782-6.421875 14.347657-14.34375 14.347657h25.875c7.921875 0 14.34375-6.421875 14.34375-14.347657v-17.378906c0-7.921875-6.421875-14.34375-14.34375-14.34375zm0 0" fill="#5692d8"/><path d="m214.804688 360.648438c0 14.097656-11.429688 25.523437-25.527344 25.523437-14.09375 0-25.523438-11.425781-25.523438-25.523437 0-14.097657 11.429688-25.523438 25.523438-25.523438 14.097656 0 25.527344 11.425781 25.527344 25.523438zm0 0" fill="#ffeb96"/><path d="m509.617188 52.699219-14.039063-28.070313c-7.59375-15.191406-22.859375-24.628906-39.84375-24.628906h-88.535156c-4.144531 0-7.5 3.359375-7.5 7.5 0 4.144531 3.355469 7.5 7.5 7.5h88.535156c11.265625 0 21.390625 6.261719 26.429687 16.335938l14.039063 28.070312c1.867187 3.742188.347656 8.308594-3.390625 10.179688-1.070312.53125-2.207031.804687-3.386719.804687-2.898437 0-5.503906-1.609375-6.796875-4.195313l-14.035156-28.070312c-2.449219-4.902344-7.378906-7.949219-12.859375-7.949219h-143.464844v-15.175781h24.929688c4.144531 0 7.5-3.355469 7.5-7.5s-3.355469-7.5-7.5-7.5h-29.316407c-5.851562 0-10.613281 4.761719-10.613281 10.613281v23.945313c0 5.855468 4.761719 10.613281 10.613281 10.613281h36.816407v34.574219h-2.441407c-12.085937 0-21.921874 9.835937-21.921874 21.921875v34.074219h-11.03125c-30.113282 0-54.609376 24.492187-54.609376 54.601562v78.429688c0 4.144531 3.355469 7.5 7.5 7.5 4.140626 0 7.5-3.355469 7.5-7.5v-31h197.980469v81.3125h-156.523437l-10.460938-18.242188c-3.332031-5.8125-9.566406-9.421875-16.265625-9.421875h-92.546875l-35.746094-61.910156c6.886719-5.285157 11.820313-12.648438 14.105469-21.175781 2.746094-10.242188 1.339844-20.9375-3.964843-30.113282-10.945313-18.953125-35.265626-25.464844-54.203126-14.523437-8.585937 4.957031-14.898437 12.882812-17.898437 22.113281-9.5-2.023438-19.523437-.515625-28.101563 4.445312-9.179687 5.296876-15.746093 13.851563-18.488281 24.09375-2.746093 10.238282-1.339843 20.933594 3.964844 30.113282 10.046875 17.394531 31.359375 24.3125 49.480469 16.847656l17.382812 30.109375h-24.277344c-6.699218 0-12.933593 3.609375-16.265624 9.421875l-8.367188 14.589844c-2.058594 3.589844-.816406 8.175781 2.777344 10.234375 3.589844 2.0625 8.175781.816406 10.234375-2.773438l8.367187-14.589843c.664063-1.160157 1.914063-1.882813 3.253906-1.882813h37.03125c.082032 0 .164063.003906.246094.003906.078125 0 .160156 0 .242188-.003906h55.6875c.148437.003906.296875.003906.449218 0h96.636719c1.339844 0 2.589844.722656 3.253907 1.882813 5.003906 8.726562 35.941406 62.679687 40.949218 71.40625v35.164062h-278.699218v-35.164062l17.660156-30.796876c2.0625-3.59375.820312-8.175781-2.773438-10.234374-3.59375-2.0625-8.175781-.816407-10.238281 2.773437l-18.652344 32.527344c-.648437 1.136719-.992187 2.425781-.992187 3.730469v37.164062h-13.089844c-12.042969.003906-21.84375 9.800781-21.84375 21.847656v17.378906c0 12.046876 9.800781 21.847657 21.84375 21.847657h334.871094c.050781 0 .101562 0 .15625-.003907h99.035156c14.761719 0 26.769531-12.003906 26.769531-26.757812v-258.84375c0-30.105469-24.492187-54.601562-54.601562-54.601562h-11.042969v-34.074219c0-12.085938-9.832031-21.917969-21.917969-21.917969h-2.441406v-34.578125h62.675781l13.867188 27.730469c3.851562 7.703125 11.597656 12.488281 20.214844 12.488281 3.472656 0 6.960937-.828125 10.089843-2.390625 11.136719-5.570312 15.667969-19.164062 10.097657-30.300781zm-399.210938 194.855469c-1.035156-1.792969-2.761719-3.074219-4.773438-3.550782-2.015624-.472656-4.132812-.097656-5.859374 1.042969-.507813.335937-1.019532.664063-1.511719.953125-11.789063 6.804688-26.917969 2.75-33.726563-9.039062-3.296875-5.707032-4.171875-12.355469-2.464844-18.726563 1.707032-6.371094 5.789063-11.691406 11.503907-14.988281 7.039062-4.070313 15.644531-4.398438 23.015625-.875 2.226562 1.0625 4.839844.960937 6.980468-.273438 2.140626-1.234375 3.535157-3.445312 3.730469-5.910156.636719-8.140625 5.222657-15.429688 12.273438-19.5 11.78125-6.804688 26.902343-2.75 33.714843 9.035156 6.804688 11.785156 2.75 26.914063-8.996093 33.703125-.535157.304688-1.085938.589844-1.625.859375-1.851563.925782-3.234375 2.570313-3.828125 4.550782-.597656 1.980468-.347656 4.117187.6875 5.90625l35.03125 60.679687h-38.828125zm-95.40625 206.546874v-17.378906c0-3.773437 3.070312-6.84375 6.84375-6.84375h334.871094c3.773437 0 6.84375 3.070313 6.84375 6.84375v17.378906c0 3.75-3.03125 6.804688-6.769532 6.84375-12.421874 0-324.597656.003907-334.945312.003907-3.773438 0-6.84375-3.074219-6.84375-6.847657zm440.90625 6.84375h-78.445312c.710937-2.152343 1.097656-4.453124 1.097656-6.84375v-17.378906c0-12.046875-9.800782-21.84375-21.847656-21.84375h-13.085938v-37.164062c0-1.308594-.34375-2.597656-.992188-3.730469l-22.878906-39.898437h147.921875v115.101562c0 6.484375-5.28125 11.757812-11.769531 11.757812zm11.769531-270.601562v32.429688h-197.984375v-32.429688c0-21.835938 17.769532-39.601562 39.609375-39.601562h18.328125c.070313.003906.136719.003906.207032.003906h81.695312c.070312 0 .140625 0 .207031-.003906h18.335938c21.835937 0 39.601562 17.765624 39.601562 39.601562zm-65.644531-88.675781v34.074219h-66.695312v-34.074219c0-3.8125 3.105468-6.917969 6.921874-6.917969h52.855469c3.816407 0 6.917969 3.105469 6.917969 6.917969zm-24.359375-21.917969h-17.976563v-34.578125h17.976563zm0 0"/><path d="m222.304688 360.648438c0-18.210938-14.816407-33.023438-33.027344-33.023438-18.207032 0-33.023438 14.8125-33.023438 33.023438 0 18.210937 14.816406 33.027343 33.023438 33.027343 18.210937 0 33.027344-14.816406 33.027344-33.027343zm-51.050782 0c0-9.9375 8.085938-18.023438 18.023438-18.023438s18.023437 8.085938 18.023437 18.023438c0 9.941406-8.085937 18.027343-18.023437 18.027343s-18.023438-8.085937-18.023438-18.027343zm0 0"/></svg>
