<svg id="icon" height="512pt" viewBox="-130 0 512 512.00277" width="512pt" xmlns="http://www.w3.org/2000/svg"><path d="m191.359375 321.71875h-129.847656c-29.828125 0-54.007813 24.179688-54.007813 54.007812v60.132813c0 1.515625.628906 2.972656 1.75 3.996094 30.910156 28.214843 72.03125 45.433593 117.179688 45.433593 45.148437 0 86.273437-17.214843 117.183594-45.433593 1.121093-1.023438 1.746093-2.480469 1.746093-3.996094v-60.136719c0-29.824218-24.175781-54.003906-54.003906-54.003906zm0 0" fill="#e9e9ea"/><g fill="#c5c4cc"><path d="m7.503906 435.859375c0 .3125.035156.625.085938.929687-.046875-.304687-.085938-.617187-.085938-.929687zm0 0"/><path d="m7.757812 437.5c.003907.007812.003907.015625.007813.027344-.003906-.011719-.007813-.019532-.007813-.027344zm0 0"/><path d="m191.359375 321.71875h-18.925781c26.757812 0 48.445312 24.179688 48.445312 54.003906v60.136719c0 1.515625-.558594 2.972656-1.566406 3.996094-26.398438 26.863281-61.109375 43.746093-99.328125 45.304687 2.140625.078125 4.289063.128906 6.453125.128906 45.148438 0 86.269531-17.214843 117.179688-45.433593 1.121093-1.023438 1.746093-2.480469 1.746093-3.996094v-60.136719c0-29.824218-24.175781-54.003906-54.003906-54.003906zm0 0"/></g><path d="m87.691406 391.640625 38.542969-50.714844 38.722656 50.953125c4.539063 5.976563 13.390625 6.621094 18.601563 1.222656 12.109375-12.546874 19.472656-29.105468 19.472656-47.261718 0-39.191406-34.292969-84.222656-76.597656-84.222656-42.304688 0-76.597656 45.03125-76.597656 84.222656 0 18.03125 7.265624 34.480468 19.21875 46.992187 5.199218 5.441407 14.082031 4.796875 18.636718-1.191406zm0 0" fill="#575b7a"/><path d="m12.671875 55.355469c12.640625 4.8125 20.421875 11.828125 25.140625 19.738281-16.953125 21.089844-27.175781 48.308594-27.175781 78.035156 0 15.132813 2.65625 29.613282 7.492187 42.972656h216.613282c4.835937-13.359374 7.492187-27.839843 7.492187-42.972656 0-55.078125-32.277344-103.703125-83.109375-123.933594-30.492188-12.132812-80.265625-22.011718-108.734375-21.6875-3.476563.039063-5.054687 4.347657-2.429687 6.625 9.621093 8.34375 15.367187 15.046876 16.660156 22.648438-11.910156-1.644531-35.410156 3.335938-52.324219 11.648438-2.980469 1.460937-2.726563 5.746093.375 6.925781zm0 0" fill="#575b7a"/><path d="m159.121094 29.195312c-30.488282-12.136718-80.261719-22.011718-108.730469-21.6875-1.253906.015626-2.257813.589844-2.90625 1.417969 27.640625 3.121094 61.976563 11.039063 85.164063 20.269531 50.835937 20.230469 83.109374 68.855469 83.109374 123.933594 0 15.132813-2.65625 29.613282-7.492187 42.972656h26.476563c4.835937-13.359374 7.492187-27.839843 7.492187-42.972656 0-55.078125-32.277344-103.703125-83.113281-123.933594zm0 0" fill="#252d4c"/><path d="m179.335938 316.449219c.160156 32.394531-32.6875 58.953125-52.429688 59.050781-19.742188.09375-52.847656-26.136719-53.003906-58.535156-.132813-26.996094-.367188-74.882813-.367188-74.882813l105.433594-.519531s.21875 44.890625.367188 74.886719zm0 0" fill="#ffd2c0"/><path d="m179.335938 308.449219c-.148438-29.996094-.367188-66.886719-.367188-66.886719l-105.433594.519531s.167969 26.101563.296875 52.972657c14.535157 17.6875 36.578125 28.972656 61.261719 28.972656h4.640625c14.320313 0 27.742187-3.816406 39.332031-10.457032.175782-1.691406.277344-3.394531.269532-5.121093zm0 0" fill="#edaa9d"/><path d="m242.234375 195.304688c-.039063 9.640624-8.222656 17.28125-17.863281 17.28125h-16.363282v8.574218c0 43.769532-35.480468 79.253906-79.25 79.253906h-4.644531c-43.769531 0-79.25-35.484374-79.25-79.253906v-8.574218h-16.875c-4.792969 0-9.128906-1.941407-12.265625-5.085938-3.144531-3.136719-5.085937-7.472656-5.085937-12.265625 0-9.585937 7.777343-17.351563 17.351562-17.351563h16.875v-4.511718c0-22.523438 9.128907-42.921875 23.890625-57.679688 2.660156-2.664062 5.507813-5.144531 8.519532-7.417968 1.757812-1.332032 4.238281-1.085938 5.746093.527343 13.027344 13.917969 30.929688 25.007813 43.859375 24.945313 12.753906-.058594 30.273438-11.007813 43.164063-24.785156 1.515625-1.621094 4.015625-1.855469 5.78125-.511719 19.5625 14.902343 32.183593 38.4375 32.183593 64.925781v4.511719h16.875c4.792969 0 9.132813 1.9375 12.265626 5.074219 3.160156 3.15625 5.105468 7.523437 5.085937 12.34375zm0 0" fill="#ffd2c0"/><path d="m93.394531 425.855469v71.265625c0 4.074218 3.304688 7.378906 7.378907 7.378906h51.320312c4.078125 0 7.382812-3.304688 7.382812-7.378906v-71.265625c0-4.078125-3.304687-7.382813-7.382812-7.382813h-51.320312c-4.074219 0-7.378907 3.304688-7.378907 7.382813zm0 0" fill="#8cbafa"/><path d="m139.414062 450.679688c0 7.167968-5.808593 12.980468-12.976562 12.980468-7.171875 0-12.980469-5.8125-12.980469-12.980468 0-7.167969 5.808594-12.976563 12.980469-12.976563 7.167969 0 12.976562 5.808594 12.976562 12.976563zm0 0" fill="#ffcd34"/><path d="m250.699219 359.511719c-1.089844-3.996094-5.21875-6.347657-9.210938-5.257813-3.996093 1.09375-6.347656 5.214844-5.257812 9.210938 1.085937 3.972656 1.636719 8.097656 1.636719 12.253906v59.222656c-20.28125 18.304688-44.621094 31.285156-70.890626 37.871094v-46.957031c0-7.585938-5.707031-13.863281-13.054687-14.769531l8.171875-11.414063c3.242188 2.699219 7.289062 4.324219 11.585938 4.578125.390624.023438.777343.035156 1.167968.035156 5.316406 0 10.40625-2.144531 14.105469-5.976562 13.917969-14.425782 21.582031-33.058594 21.582031-52.46875 0-4.269532-.371094-8.617188-1.089844-12.976563 4.796876 2.023438 9.246094 4.859375 13.175782 8.429688 1.4375 1.304687 3.242187 1.949219 5.042968 1.949219 2.039063 0 4.070313-.828126 5.550782-2.457032 2.785156-3.066406 2.558594-7.8125-.507813-10.597656-7.9375-7.210938-17.484375-12.160156-27.839843-14.476562-4.007813-10.855469-10.023438-21.328126-17.671876-30.492188 17.386719-15.875 28.3125-38.71875 28.3125-64.058594v-1.078125h8.859376c13.933593 0 25.3125-11.101562 25.367187-24.75.015625-4.464843-1.132813-8.75-3.308594-12.515625 2.195313-9.6875 3.308594-19.660156 3.308594-29.6875 0-58.289062-34.480469-109.671875-87.835937-130.910156-31.121094-12.378906-82.261719-22.539062-111.589844-22.2109375-4.734375.0546875-8.84375 2.9609375-10.46875 7.4062495-1.621094 4.4375-.355469 9.300782 3.207031 12.378907 4.222656 3.664062 7.371094 6.757812 9.628906 9.511719-13.539062 1.253906-30.484375 5.902343-43.683593 12.390624-4.027344 1.972657-6.496094 6.136719-6.285157 10.613282.207031 4.507812 3.074219 8.457031 7.296875 10.058594 8.058594 3.066406 14.160156 7.179687 18.519532 12.503906-6.894532 9.390625-12.488282 19.664062-16.667969 30.613281-1.476563 3.871094.464843 8.203125 4.332031 9.679687 3.875 1.480469 8.207031-.460937 9.683594-4.332031 4.292968-11.253906 10.277344-21.699219 17.789062-31.046875 1.964844-2.441406 2.199219-5.847656.59375-8.539062-4.808594-8.0625-11.886718-14.558594-21.097656-19.390625 15.105469-5.886719 32.339844-8.761719 40.441406-7.648438 2.371094.328125 4.75-.496093 6.414063-2.210937 1.664062-1.71875 2.40625-4.125 2.003906-6.480469-1.289063-7.535156-5.554687-13.875-11.839844-20.269531 28.34375 1.5625 69.757813 10.402344 96.175781 20.910156 47.613282 18.953125 78.382813 64.867188 78.382813 116.972656 0 6.285156-.492187 12.539063-1.464844 18.695313-2.652343-.949219-5.484375-1.441407-8.386719-1.441407h-9.425781c-.875-26.882812-13.554687-51.496093-35.089843-67.902343-4.839844-3.6875-11.632813-3.105469-15.804688 1.351562-12.105469 12.941407-27.96875 22.367188-37.722656 22.414063-.023438 0-.046875 0-.070313 0-9.945312 0-26.023437-9.480469-38.277343-22.574219-4.148438-4.433594-10.917969-5.03125-15.746094-1.386719-3.257813 2.460938-6.386719 5.1875-9.296875 8.101563-16.117188 16.113281-25.296875 37.320312-26.039063 59.996093h-9.425781c-2.941406 0-5.765625.511719-8.386719 1.457032-.972656-6.164063-1.464844-12.421875-1.464844-18.710938 0-4.769531.28125-9.554687.835938-14.222656.492188-4.113281-2.445312-7.84375-6.558594-8.332031-4.109375-.5-7.847656 2.445312-8.335937 6.558593-.625 5.253907-.941407 10.636719-.941407 15.996094 0 10.039063 1.113282 20.019532 3.3125 29.714844-2.105468 3.648438-3.3125 7.882812-3.3125 12.390625 0 6.648437 2.589844 12.890625 7.273438 17.558594 4.6875 4.703125 10.929688 7.292969 17.578125 7.292969h9.375v1.074218c0 25.34375 10.921875 48.183594 28.308594 64.058594-7.648438 9.167969-13.667969 19.644531-17.671875 30.5-27.667969 6.230469-47.996094 31.242188-47.996094 60.003906v60.140625c0 3.628907 1.53125 7.101563 4.195312 9.527344 23.1875 21.167969 51.320313 35.902344 81.695313 42.847656v8.886719c0 8.203125 6.675781 14.878906 14.878906 14.878906h51.324219c8.203125 0 14.878906-6.675781 14.878906-14.878906v-8.886719c30.375-6.945312 58.507813-21.679687 81.6875-42.839843 2.671875-2.433594 4.203125-5.90625 4.203125-9.535157v-60.140625c.003907-5.496094-.726562-10.949218-2.164062-16.210937zm-133.386719 51.460937-16.929688-23.648437 7.15625-9.414063c6.707032 3.28125 13.378907 5.089844 19.273438 5.089844h.132812c5.597657-.027344 11.894532-1.707031 18.242188-4.734375l7.097656 9.339844-16.726562 23.371093h-18.246094zm-56.695312-85.863281c.148437-.367187.269531-.746094.359374-1.136719 1.414063-4.359375 3.226563-8.683594 5.398438-12.878906l.03125 5.914062c.105469 21.664063 12.976562 40.851563 28.394531 52.875-14.152343 18.625-13.703125 18.988282-16.734375 19.160157-.785156.042969-2.328125-.074219-3.585937-1.390625-11.058594-11.574219-17.144531-26.425782-17.144531-41.8125 0-6.773438 1.136718-13.792969 3.28125-20.730469zm111.113281-28.609375c.035156 6.949219.070312 13.789062.105469 19.988281.082031 17.03125-10.34375 30.054688-16.566407 36.304688-3.84375 3.855469-7.8125 6.929687-11.621093 9.28125-.171876.09375-.339844.195312-.503907.304687-6.332031 3.808594-12.199219 5.601563-16.273437 5.621094h-.0625c-4.257813 0-10.457032-1.894531-17.121094-5.972656-.171875-.121094-.351562-.230469-.53125-.332032-3.5625-2.238281-7.25-5.097656-10.832031-8.625-6.28125-6.183593-16.835938-19.101562-16.917969-36.136718l-.101562-20.339844c27.460937 15.644531 63.957031 15.066406 90.425781-.09375zm6.425781 91.394531c-1.261719 1.308594-2.789062 1.429688-3.597656 1.378907-3.164063-.183594-2.851563-.90625-16.566406-18.949219 15.730468-12.121094 28.953124-31.792969 28.84375-53.917969-.007813-1.527344-.019532-3.097656-.027344-4.695312 2.035156 4.003906 3.742187 8.125 5.089844 12.277343.089843.382813.207031.75.351562 1.109375 2.144531 6.941406 3.285156 13.96875 3.285156 20.742188 0 15.503906-6.171875 30.441406-17.378906 42.054687zm-125.792969-166.734375v-8.574218c0-4.144532-3.359375-7.5-7.5-7.5h-16.875c-2.632812 0-5.105469-1.023438-6.972656-2.902344-1.859375-1.847656-2.882813-4.316406-2.882813-6.949219 0-2.285156.785157-4.394531 2.09375-6.066406.070313-.078125.136719-.160157.199219-.246094 1.808594-2.160156 4.527344-3.539063 7.558594-3.539063h16.875c4.144531 0 7.5-3.359374 7.5-7.5v-4.511718c0-19.789063 7.707031-38.390625 21.695313-52.378906 1.75-1.75 3.59375-3.417969 5.5-4.980469 11.976562 12.097656 30.710937 25.234375 47.214843 25.230469h.144531c16.242188-.074219 34.746094-13.105469 46.589844-25.070313 17.195313 14.140625 27.003906 34.828125 27.003906 57.199219v4.511718c0 4.140626 3.355469 7.5 7.5 7.5h16.875c2.632813 0 5.105469 1.019532 6.960938 2.878907.183594.179687.355469.371093.523438.5625.109374.144531.21875.285156.339843.421875 1.324219 1.722656 2.035157 3.820312 2.027344 6.027344-.023437 5.410156-4.671875 9.8125-10.367187 9.8125h-16.359376c-4.144531 0-7.5 3.355468-7.5 7.5v8.574218c0 39.5625-32.1875 71.75-71.753906 71.75h-4.640625c-39.5625 0-71.75-32.1875-71.75-71.75zm-37.359375 213.78125v-59.222656c0-18.914062 11.625-35.6875 28.414063-42.832031-.714844 4.355469-1.082031 8.691406-1.082031 12.953125 0 19.265625 7.5625 37.792968 21.296874 52.171875 3.699219 3.871093 8.808594 6.039062 14.160157 6.039062.371093 0 .746093-.011719 1.121093-.035156 4.332032-.242187 8.410157-1.882813 11.667969-4.613281l8.363281 11.683594c-7.34375.90625-13.050781 7.183593-13.050781 14.769531v46.957031c-26.269531-6.585938-50.605469-19.5625-70.890625-37.871094zm85.890625 62.058594v-14.71875c.003907-.089844.003907-.179688 0-.269531v-56.039063h51.082031v56.039063c-.003906.089843-.003906.179687 0 .269531v14.71875zm0 0"/><path d="m90.601562 212.289062c-3.761718 1.734376-5.402343 6.191407-3.667968 9.953126 7.082031 15.359374 22.589844 25.285156 39.503906 25.285156s32.417969-9.925782 39.5-25.285156c1.734375-3.761719.09375-8.21875-3.667969-9.953126-3.765625-1.734374-8.21875-.089843-9.953125 3.671876-4.640625 10.0625-14.800781 16.566406-25.878906 16.566406-11.082031 0-21.242188-6.503906-25.882812-16.566406-1.734376-3.761719-6.191407-5.40625-9.953126-3.671876zm0 0"/><path d="m87.421875 180.859375c4.144531 0 7.5-3.359375 7.5-7.5v-4.339844c0-4.140625-3.355469-7.5-7.5-7.5s-7.5 3.359375-7.5 7.5v4.339844c0 4.140625 3.355469 7.5 7.5 7.5zm0 0"/><path d="m165.449219 180.859375c4.140625 0 7.5-3.359375 7.5-7.5v-4.339844c0-4.140625-3.359375-7.5-7.5-7.5-4.144531 0-7.5 3.359375-7.5 7.5v4.339844c0 4.140625 3.359375 7.5 7.5 7.5zm0 0"/><path d="m126.4375 430.203125c-11.292969 0-20.480469 9.183594-20.480469 20.476563 0 11.292968 9.1875 20.480468 20.480469 20.480468 11.289062 0 20.476562-9.1875 20.476562-20.480468 0-11.292969-9.1875-20.476563-20.476562-20.476563zm0 25.957031c-3.023438 0-5.480469-2.457031-5.480469-5.480468 0-3.019532 2.457031-5.476563 5.480469-5.476563 3.019531 0 5.476562 2.457031 5.476562 5.476563 0 3.023437-2.457031 5.480468-5.476562 5.480468zm0 0"/><path d="m215.839844 415.605469h-22.109375c-4.144531 0-7.5 3.359375-7.5 7.5 0 4.144531 3.355469 7.5 7.5 7.5h22.109375c4.144531 0 7.5-3.355469 7.5-7.5 0-4.140625-3.355469-7.5-7.5-7.5zm0 0"/><path d="m137.011719 477.789062h-21.152344c-4.140625 0-7.5 3.359376-7.5 7.5 0 4.140626 3.359375 7.5 7.5 7.5h21.152344c4.140625 0 7.5-3.359374 7.5-7.5 0-4.140624-3.359375-7.5-7.5-7.5zm0 0"/></svg>
