<svg id="icon" height="511pt" viewBox="-53 0 511 511.99939" width="511pt" xmlns="http://www.w3.org/2000/svg"><path d="m184.089844 470.796875h-137.882813c-16.757812 0-30.140625-13.96875-29.417969-30.714844l9.636719-223.6875h177.449219l9.636719 223.6875c.722656 16.746094-12.660157 30.714844-29.421875 30.714844zm0 0" fill="#e9e9ea"/><path d="m213.511719 440.082031-9.640625-223.6875h-27.386719l9.636719 223.6875c.722656 16.746094-12.65625 30.714844-29.417969 30.714844h27.386719c16.761718 0 30.144531-13.96875 29.421875-30.714844zm0 0" fill="#c5c4cc"/><path d="m202.441406 171.511719h-174.582031c-10.96875 0-19.859375 8.890625-19.859375 19.859375v7.5c0 10.96875 8.890625 19.859375 19.859375 19.859375h174.582031c10.96875 0 19.859375-8.890625 19.859375-19.859375v-7.5c0-10.96875-8.890625-19.859375-19.859375-19.859375zm0 0" fill="#8cbafa"/><path d="m202.441406 171.511719h-25.449218c10.96875 0 19.859374 8.890625 19.859374 19.859375v7.5c0 10.96875-8.890624 19.859375-19.859374 19.859375h25.449218c10.96875 0 19.859375-8.890625 19.859375-19.859375v-7.5c0-10.96875-8.890625-19.859375-19.859375-19.859375zm0 0" fill="#5692d8"/><path d="m194.292969 171.511719c-1.785157-30.398438-20.695313-56.179688-47.214844-67.863281-4.308594-1.898438-7.035156-6.207032-6.835937-10.910157.417968-9.808593 3.496093-20.148437 9.238281-37.824219 1.660156-5.054687 2.253906-10.59375 1.453125-16.367187-2.355469-16.949219-16.71875-30.082031-33.808594-30.992187-20.851562-1.113282-38.109375 15.46875-38.109375 36.082031 0 3.9375.640625 7.726562 1.804687 11.277343 5.742188 17.675782 8.820313 28.015626 9.238282 37.824219.199218 4.703125-2.527344 9.011719-6.835938 10.910157-26.519531 11.683593-45.429687 37.464843-47.21875 67.863281zm0 0" fill="#ffeb96"/><path d="m147.078125 103.648438c-4.308594-1.898438-7.035156-6.207032-6.835937-10.910157.417968-9.808593 3.496093-20.148437 9.238281-37.824219 1.660156-5.054687 2.253906-10.59375 1.453125-16.367187-2.355469-16.949219-16.71875-30.085937-33.808594-30.996094-3.492188-.183593-6.878906.136719-10.105469.878907 11.613281 3.324218 20.808594 15.253906 22.488281 30.117187.652344 5.773437.171876 11.3125-1.179687 16.367187-4.671875 17.675782-7.175781 28.015626-7.515625 37.824219-.164062 4.703125 2.054688 9.011719 5.558594 10.910157 21.578125 11.683593 36.964844 37.464843 38.417968 67.863281h29.507813c-1.789063-30.398438-20.699219-56.179688-47.21875-67.863281zm0 0" fill="#ffcd34"/><path d="m296.050781 290.355469h-8.902343c-24.679688 0-44.683594 20.007812-44.683594 44.6875v21.789062c32.757812-13.292969 65.515625-13.292969 98.273437 0v-21.789062c0-24.679688-20.007812-44.6875-44.6875-44.6875zm0 0" fill="#8cbafa"/><path d="m313.546875 335.042969v13.8125c9.0625 1.644531 18.128906 4.296875 27.191406 7.976562v-21.789062c0-24.679688-20.007812-44.6875-44.6875-44.6875h-8.902343c-1.15625 0-2.300782.058593-3.4375.144531 16.6875 1.757812 29.835937 21.019531 29.835937 44.542969zm0 0" fill="#5692d8"/><path d="m331.042969 448.457031c-15.550781-43.363281-17.394531-54.199219-9.667969-83.707031-19.871094-3.054688-39.675781-3.054688-59.546875 0 7.722656 29.507812 5.878906 40.34375-9.671875 83.707031h.050781c-1.59375 4.421875-2.507812 9.171875-2.507812 14.15625 0 23.128907 18.757812 41.886719 41.902343 41.886719 23.144532 0 41.902344-18.757812 41.902344-41.886719 0-4.984375-.914062-9.734375-2.507812-14.15625zm0 0" fill="#ffeb96"/><path d="m330.996094 448.457031h.050781c-15.554687-43.367187-17.398437-54.199219-9.671875-83.707031-12.449219-1.914062-24.867188-2.628906-37.296875-2.144531 5.15625.289062 10.3125 1.003906 15.476563 2.144531-5.371094 29.507812-4.089844 40.339844 6.726562 83.707031h-.035156c1.109375 4.421875 1.746094 9.171875 1.746094 14.15625 0 20.558594-10.316407 37.652344-23.914063 41.199219 2.441406.445312 4.953125.6875 7.523437.6875 23.144532 0 41.902344-18.757812 41.902344-41.886719 0-4.984375-.914062-9.734375-2.507812-14.15625zm0 0" fill="#ffcd34"/><path d="m291.601562 333.738281c-32.421874 0-64.832031 7.503907-97.03125 22.523438-7.617187 3.558593-10.914062 12.617187-7.359374 20.238281 3.554687 7.621094 12.613281 10.910156 20.234374 7.359375 56.628907-26.417969 111.679688-26.417969 168.308594 0 7.621094 3.558594 16.679688.257813 20.234375-7.359375 3.554688-7.621094.261719-16.679688-7.359375-20.238281-32.1875-15.015625-64.613281-22.523438-97.027344-22.523438zm0 0" fill="#fa7ec1"/><path d="m219.753906 410.679688c-.179687-4.140626-3.714844-7.363282-7.816406-7.171876-4.136719.175782-7.347656 3.675782-7.167969 7.816407l1.25 29.078125c.257813 6.039062-1.902343 11.769531-6.082031 16.132812-4.179688 4.363282-9.804688 6.765625-15.847656 6.765625h-137.878906c-6.039063 0-11.667969-2.402343-15.847657-6.765625-4.179687-4.363281-6.339843-10.09375-6.078125-16.132812l9.226563-214.171875h163.277343l3.820313 88.640625c.171875 4.03125 3.492187 7.179687 7.484375 7.179687.109375 0 .21875-.003906.328125-.007812 4.140625-.179688 7.351563-3.675781 7.171875-7.816407l-3.859375-89.621093c10.523437-3.8125 18.066406-13.910157 18.066406-25.734375v-7.5c0-15.085938-12.273437-27.359375-27.359375-27.359375h-1.359375c-4.160156-29.628907-23.203125-54.988281-50.980469-67.226563-1.503906-.660156-2.433593-2.125-2.363281-3.726562.386719-9.125 3.613281-19.621094 8.867188-35.804688 2.097656-6.382812 2.6875-13.027344 1.757812-19.738281-2.863281-20.59375-20.035156-36.347656-40.835937-37.453125-12.117188-.640625-23.621094 3.582031-32.394532 11.902344-8.78125 8.328125-13.617187 19.574218-13.617187 31.671875 0 4.632812.734375 9.214843 2.171875 13.59375 5.265625 16.207031 8.488281 26.707031 8.878906 35.828125.066406 1.601562-.863281 3.0625-2.367187 3.726562-5.394531 2.378906-10.570313 5.324219-15.382813 8.753906-3.371094 2.40625-4.15625 7.089844-1.75 10.460938 2.402344 3.375 7.089844 4.15625 10.460938 1.753906 3.976562-2.839844 8.257812-5.273437 12.722656-7.242187 7.199219-3.171875 11.632812-10.273438 11.300781-18.089844-.46875-11.03125-3.9375-22.402344-9.601562-39.847656-.953125-2.890625-1.433594-5.898438-1.433594-8.9375 0-7.9375 3.175781-15.320313 8.9375-20.785157 5.757813-5.460937 13.3125-8.234374 21.277344-7.808593 13.421875.710937 24.929687 11.261719 26.773437 24.535156.617188 4.429687.230469 8.800781-1.15625 13.019531-5.65625 17.417969-9.125 28.789063-9.597656 39.820313-.332031 7.820312 4.105469 14.921875 11.304688 18.09375 22.320312 9.832031 37.824218 29.902343 41.847656 53.5h-141.496094c1.640625-9.511719 5.195312-18.636719 10.457031-26.757813 2.253907-3.472656 1.261719-8.117187-2.214843-10.371094-3.476563-2.25-8.121094-1.261718-10.371094 2.214844-6.835938 10.546875-11.289063 22.496094-13.050782 34.914063h-1.367187c-15.085937 0-27.359375 12.273437-27.359375 27.359375v7.5c0 11.824218 7.542969 21.921875 18.066406 25.734375l-9.269531 215.152343c-.4375 10.164063 3.199219 19.808594 10.234375 27.152344s16.511719 11.390625 26.679688 11.390625h137.878906c10.167968 0 19.644531-4.046875 26.679687-11.390625 7.035157-7.347656 10.671875-16.988281 10.234375-27.152344zm-204.253906-219.308594c0-6.816406 5.542969-12.359375 12.359375-12.359375h174.582031c6.816406 0 12.359375 5.542969 12.359375 12.359375v7.5c0 6.386718-4.867187 11.65625-11.089843 12.292968-.019532 0-.042969.003907-.0625.003907-.195313.007812-.382813.023437-.574219.046875-.207031.007812-.417969.015625-.632813.015625h-174.582031c-.210937 0-.421875-.007813-.632813-.015625-.1875-.023438-.378906-.039063-.574218-.046875-.019532 0-.039063 0-.0625-.003907-6.222656-.636718-11.089844-5.90625-11.089844-12.292968zm0 0"/><path d="m75.21875 269.15625h-18.003906c-4.144532 0-7.5 3.355469-7.5 7.5 0 4.140625 3.355468 7.5 7.5 7.5h18.003906c4.144531 0 7.5-3.359375 7.5-7.5 0-4.144531-3.355469-7.5-7.5-7.5zm0 0"/><path d="m75.21875 310.652344h-18.003906c-4.144532 0-7.5 3.355468-7.5 7.5 0 4.140625 3.355468 7.5 7.5 7.5h18.003906c4.144531 0 7.5-3.359375 7.5-7.5 0-4.144532-3.355469-7.5-7.5-7.5zm0 0"/><path d="m75.21875 352.144531h-18.003906c-4.144532 0-7.5 3.359375-7.5 7.5 0 4.144531 3.355468 7.5 7.5 7.5h18.003906c4.144531 0 7.5-3.355469 7.5-7.5 0-4.140625-3.355469-7.5-7.5-7.5zm0 0"/><path d="m403.546875 362.292969c-2.074219-5.707031-6.246094-10.257813-11.746094-12.824219-14.394531-6.71875-28.980469-12.019531-43.578125-15.839844-.445312-16.570312-8.648437-31.238281-21.109375-40.496094 11.636719-10.113281 18.507813-24.839843 18.507813-40.722656 0-29.792968-24.234375-54.03125-54.019532-54.03125-29.789062 0-54.023437 24.238282-54.023437 54.03125 0 15.882813 6.871094 30.609375 18.507813 40.722656-12.457032 9.257813-20.664063 23.925782-21.105469 40.496094-14.605469 3.824219-29.191407 9.125-43.578125 15.839844-5.5 2.5625-9.671875 7.117188-11.75 12.820312-2.078125 5.707032-1.804688 11.882813.765625 17.378907 5.285156 11.34375 18.832031 16.277343 30.203125 10.984375 15.398437-7.183594 30.835937-12.382813 46.007812-15.503906 4.570313 20.886718 2.289063 32.234374-11.527344 70.777343-.101562.28125-.183593.5625-.25.84375-1.761718 5.15625-2.652343 10.480469-2.652343 15.839844 0 27.234375 22.160156 49.390625 49.398437 49.390625 15.460938 0 30.234375-7.386719 39.527344-19.753906 2.488281-3.316406 1.820312-8.015625-1.492188-10.503906-3.3125-2.488282-8.011718-1.820313-10.5 1.492187-6.570312 8.75-16.605468 13.765625-27.53125 13.765625-18.96875 0-34.402343-15.425781-34.402343-34.390625 0-3.914063.695312-7.816406 2.066406-11.597656.097656-.269531.175781-.542969.242187-.820313 13.652344-38.148437 17.15625-52.5 11.929688-77.441406 13.40625-1.582031 26.921875-1.582031 40.328125 0-5.230469 24.9375-1.726563 39.292969 11.925781 77.433594.066406.28125.148438.5625.25.832031 1.042969 2.875 1.699219 5.863281 1.957032 8.878906.332031 3.914063 3.609374 6.867188 7.464843 6.867188.210938 0 .425781-.011719.640625-.027344 4.128906-.351563 7.191406-3.980469 6.839844-8.109375-.34375-4.019531-1.179688-8-2.492188-11.84375-.066406-.289062-.148437-.570312-.25-.851562-13.820312-38.546876-16.101562-49.894532-11.53125-70.78125 15.175782 3.121093 30.609376 8.320312 46.007813 15.503906 3.0625 1.429687 6.328125 2.148437 9.605469 2.148437 2.617187 0 5.246094-.460937 7.78125-1.382812 5.703125-2.074219 10.257812-6.25 12.816406-11.742188 2.570312-5.503906 2.84375-11.675781.765625-17.382812zm-150.964844-109.882813c0-21.519531 17.503907-39.03125 39.019531-39.03125 21.515626 0 39.019532 17.511719 39.019532 39.03125 0 13.554688-6.929688 25.945313-18.277344 33.054688-5.128906-1.6875-10.605469-2.605469-16.292969-2.605469h-8.898437c-5.6875 0-11.164063.914063-16.292969 2.605469-11.351563-7.109375-18.277344-19.5-18.277344-33.054688zm34.570313 45.449219h8.898437c18.851563 0 34.476563 14.101563 36.871094 32.308594-2.074219-.398438-4.144531-.761719-6.214844-1.097657-11.644531-1.882812-23.457031-2.835937-35.105469-2.835937-11.648437 0-23.460937.953125-35.105468 2.835937-2.070313.335938-4.140625.703126-6.214844 1.097657 2.390625-18.207031 18.015625-32.308594 36.871094-32.308594zm102.035156 75.476563c-.867188 1.867187-2.414062 3.28125-4.351562 3.988281-1.941407.703125-4.039063.609375-5.914063-.265625-19.6875-9.183594-39.503906-15.347656-58.894531-18.320313-9.433594-1.453125-18.929688-2.179687-28.425782-2.179687-9.496093 0-18.992187.726562-28.421874 2.179687-19.394532 2.972657-39.214844 9.136719-58.894532 18.316407-3.867187 1.804687-8.476562.132812-10.277344-3.726563-.871093-1.871094-.964843-3.972656-.257812-5.910156.703125-1.9375 2.121094-3.484375 3.992188-4.355469 15.292968-7.140625 30.792968-12.574219 46.257812-16.222656.125-.023438.246094-.054688.367188-.085938 4.847656-1.132812 9.691406-2.09375 14.523437-2.875 10.851563-1.753906 21.859375-2.644531 32.710937-2.644531 10.851563 0 21.855469.890625 32.707032 2.644531 4.824218.78125 9.65625 1.738282 14.496094 2.871094.140624.035156.285156.070312.429687.101562 15.449219 3.644532 30.9375 9.074219 46.222656 16.210938.003907.003906.003907.003906.007813.003906 1.863281.871094 3.28125 2.414063 3.984375 4.355469.707031 1.9375.617187 4.035156-.261719 5.914063zm0 0"/></svg>
