<svg id="icon" height="512pt" viewBox="0 -17 512 512" width="512pt" xmlns="http://www.w3.org/2000/svg"><path d="m7.5 22.902344v175.027344c0 8.503906 6.894531 15.402343 15.402344 15.402343h316.785156c8.507812 0 15.402344-6.898437 15.402344-15.402343v-175.027344c0-8.507813-6.894532-15.40625-15.402344-15.40625h-316.785156c-8.507813 0-15.402344 6.898437-15.402344 15.40625zm0 0" fill="#def6ff"/><path d="m339.6875 7.496094h-23.5c8.507812 0 15.402344 6.898437 15.402344 15.40625v175.027344c0 8.503906-6.894532 15.402343-15.402344 15.402343h23.5c8.507812 0 15.402344-6.898437 15.402344-15.402343v-175.027344c0-8.507813-6.894532-15.40625-15.402344-15.40625zm0 0" fill="#8cbcd6"/><path d="m7.5 134.84375h347.589844v43.054688h-347.589844zm0 0" fill="#575b7a"/><path d="m331.589844 134.84375h23.5v43.054688h-23.5zm0 0" fill="#252d4c"/><path d="m295.660156 78.40625h-28.097656c-10.089844 0-18.269531-8.179688-18.269531-18.269531 0-10.09375 8.179687-18.273438 18.269531-18.273438h28.097656c10.089844 0 18.273438 8.179688 18.273438 18.273438 0 10.089843-8.183594 18.269531-18.273438 18.269531zm0 0" fill="#ffcd34"/><path d="m156.910156 279.835938v175.023437c0 8.507813 6.894532 15.40625 15.402344 15.40625h316.785156c8.507813 0 15.402344-6.898437 15.402344-15.40625v-175.023437c0-8.507813-6.894531-15.40625-15.402344-15.40625h-316.785156c-8.507812 0-15.402344 6.898437-15.402344 15.40625zm0 0" fill="#aed559"/><path d="m489.097656 264.429688h-24c8.507813 0 15.402344 6.898437 15.402344 15.40625v175.023437c0 8.507813-6.894531 15.40625-15.402344 15.40625h24c8.507813 0 15.402344-6.898437 15.402344-15.40625v-175.023437c0-8.507813-6.894531-15.40625-15.402344-15.40625zm0 0" fill="#7fab38"/><path d="m392.074219 367.347656c0-22.675781-27.476563-41.0625-61.371094-41.0625s-61.371094 18.386719-61.371094 41.0625c0 22.675782 27.476563 41.058594 61.371094 41.058594s61.371094-18.382812 61.371094-41.058594zm0 0" fill="#ffeb96"/><path d="m332.398438 238.882812c0 42.191407-34.203126 76.398438-76.398438 76.398438s-76.398438-34.207031-76.398438-76.398438c0-42.195312 34.203126-76.402343 76.398438-76.402343s76.398438 34.207031 76.398438 76.402343zm0 0" fill="#ffcd34"/><path d="m295.511719 173.484375c12.53125 13.609375 20.191406 31.773437 20.191406 51.730469 0 42.195312-34.203125 76.398437-76.398437 76.398437-14.460938 0-27.980469-4.019531-39.511719-11 13.964843 15.160157 33.972656 24.667969 56.207031 24.667969 42.195312 0 76.398438-34.207031 76.398438-76.398438 0-27.734374-14.777344-52.015624-36.886719-65.398437zm0 0" fill="#e69012"/><path d="m49.8125 111.003906c4.144531 0 7.5-3.359375 7.5-7.5 0-4.144531-3.355469-7.5-7.5-7.5h-5.417969c-4.140625 0-7.5 3.355469-7.5 7.5 0 4.140625 3.359375 7.5 7.5 7.5zm0 0"/><path d="m99.648438 111.003906c4.140624 0 7.5-3.359375 7.5-7.5 0-4.144531-3.359376-7.5-7.5-7.5h-22.75c-4.144532 0-7.5 3.355469-7.5 7.5 0 4.140625 3.355468 7.5 7.5 7.5zm0 0"/><path d="m146.234375 111.003906c4.144531 0 7.5-3.359375 7.5-7.5 0-4.144531-3.355469-7.5-7.5-7.5h-22.75c-4.144531 0-7.5 3.355469-7.5 7.5 0 4.140625 3.355469 7.5 7.5 7.5zm0 0"/><path d="m295.660156 85.90625c14.210938 0 25.769532-11.5625 25.769532-25.773438 0-14.207031-11.558594-25.769531-25.769532-25.769531h-28.097656c-14.210938 0-25.769531 11.558594-25.769531 25.769531 0 14.210938 11.5625 25.769532 25.769531 25.769532h28.097656zm-38.867187-25.773438c0-5.9375 4.832031-10.769531 10.769531-10.769531h28.097656c5.9375 0 10.769532 4.832031 10.769532 10.769531 0 5.941407-4.828126 10.773438-10.769532 10.773438h-28.097656c-5.9375 0-10.769531-4.832031-10.769531-10.773438zm0 0"/><path d="m489.097656 256.929688h-130.136718c-4.140626 0-7.5 3.359374-7.5 7.5 0 4.140624 3.359374 7.5 7.5 7.5h130.136718c4.355469 0 7.902344 3.546874 7.902344 7.902343v175.027344c0 4.359375-3.546875 7.902344-7.902344 7.902344h-143.394531c-4.140625 0-7.5 3.359375-7.5 7.5 0 4.144531 3.359375 7.5 7.5 7.5h143.394531c12.628906 0 22.902344-10.273438 22.902344-22.902344v-175.027344c0-12.628906-10.273438-22.902343-22.902344-22.902343zm0 0"/><path d="m315.699219 462.761719h-143.390625c-4.355469 0-7.898438-3.546875-7.898438-7.902344v-175.03125c0-4.355469 3.542969-7.898437 7.898438-7.898437h6.578125c3.347656 7.78125 7.839843 14.957031 13.261719 21.316406-.078126 4.984375-4.160157 9.015625-9.167969 9.015625-4.140625 0-7.5 3.355469-7.5 7.5v16.527343c0 4.144532 3.359375 7.5 7.5 7.5 4.144531 0 7.5-3.355468 7.5-7.5v-10.21875c5.84375-1.910156 10.714843-5.996093 13.652343-11.289062 14.285157 11.265625 32.304688 17.996094 51.867188 17.996094 46.261719 0 83.898438-37.636719 83.898438-83.898438 0-6.195312-.675782-12.234375-1.953126-18.050781h1.746094c12.625 0 22.898438-10.269531 22.898438-22.898437v-175.03125c0-12.625-10.273438-22.898438-22.898438-22.898438h-316.792968c-12.625 0-22.898438 10.273438-22.898438 22.898438v31.160156c0 4.144531 3.355469 7.5 7.5 7.5s7.5-3.355469 7.5-7.5v-31.160156c0-4.355469 3.542969-7.898438 7.898438-7.898438h316.792968c4.355469 0 7.898438 3.542969 7.898438 7.898438v104.441406h-332.589844v-43.277344c0-4.140625-3.355469-7.5-7.5-7.5s-7.5 3.359375-7.5 7.5v113.863281c0 12.628907 10.273438 22.902344 22.902344 22.902344h128.394531c4.140625 0 7.5-3.355469 7.5-7.5 0-4.140625-3.359375-7.5-7.5-7.5h-128.394531c-4.355469 0-7.902344-3.542969-7.902344-7.902344v-12.527343h176.402344c-12.050782 14.53125-19.300782 33.175781-19.300782 53.480468 0 6.195313.675782 12.234375 1.957032 18.050782h-1.75c-12.625 0-22.898438 10.273437-22.898438 22.898437v175.03125c0 12.628906 10.273438 22.902344 22.898438 22.902344h143.390625c4.144531 0 7.5-3.359375 7.5-7.5 0-4.144531-3.355469-7.5-7.5-7.5zm23.992187-256.933594h-6.578125c-3.191406-7.417969-7.425781-14.292969-12.515625-20.429687h26.992188v12.53125c0 4.355468-3.542969 7.898437-7.898438 7.898437zm-324.691406-63.488281h332.589844v28.058594h-43.167969c-13.6875-9.707032-30.402344-15.417969-48.421875-15.417969s-34.734375 5.710937-48.421875 15.417969h-192.578125zm241 27.640625c37.992188 0 68.898438 30.910156 68.898438 68.898437 0 37.992188-30.90625 68.898438-68.898438 68.898438s-68.898438-30.90625-68.898438-68.898438c0-37.992187 30.90625-68.898437 68.898438-68.898437zm0 0"/><path d="m399.574219 367.347656c0-13.550781-7.5625-26.078125-21.304688-35.269531-12.8125-8.570313-29.703125-13.292969-47.566406-13.292969-17.859375 0-34.753906 4.722656-47.566406 13.292969-13.738281 9.191406-21.304688 21.71875-21.304688 35.269531 0 13.550782 7.566407 26.074219 21.304688 35.265625 12.8125 8.574219 29.707031 13.292969 47.566406 13.292969 17.863281 0 34.757813-4.71875 47.566406-13.292969 13.742188-9.191406 21.304688-21.714843 21.304688-35.265625zm-68.871094 33.558594c-29.199219 0-53.871094-15.371094-53.871094-33.5625s24.671875-33.558594 53.871094-33.558594c29.203125 0 53.871094 15.367188 53.871094 33.558594 0 18.195312-24.667969 33.5625-53.871094 33.5625zm0 0"/><path d="m478.433594 333.785156c4.140625 0 7.5-3.355468 7.5-7.5v-16.519531c0-4.144531-3.359375-7.5-7.5-7.5-5.054688 0-9.167969-4.113281-9.167969-9.167969 0-4.144531-3.359375-7.5-7.5-7.5h-16.523437c-4.140626 0-7.5 3.355469-7.5 7.5 0 4.140625 3.359374 7.5 7.5 7.5h10.210937c2.390625 7.304688 8.175781 13.085938 15.480469 15.476563v10.210937c0 4.144532 3.355468 7.5 7.5 7.5zm0 0"/><path d="m445.242188 449.097656h16.523437c4.140625 0 7.5-3.359375 7.5-7.5 0-5.058594 4.113281-9.167968 9.167969-9.167968 4.140625 0 7.5-3.359376 7.5-7.5v-16.523438c0-4.140625-3.359375-7.5-7.5-7.5-4.144532 0-7.5 3.359375-7.5 7.5v10.210938c-7.304688 2.390624-13.089844 8.171874-15.480469 15.480468h-10.210937c-4.140626 0-7.5 3.355469-7.5 7.5 0 4.140625 3.359374 7.5 7.5 7.5zm0 0"/><path d="m182.976562 400.90625c-4.140624 0-7.5 3.359375-7.5 7.5v16.519531c0 4.144531 3.359376 7.5 7.5 7.5 5.054688 0 9.167969 4.113281 9.167969 9.167969 0 4.144531 3.359375 7.5 7.5 7.5h16.523438c4.140625 0 7.5-3.355469 7.5-7.5 0-4.140625-3.359375-7.5-7.5-7.5h-10.214844c-2.386719-7.304688-8.171875-13.085938-15.476563-15.476562v-10.210938c0-4.140625-3.359374-7.5-7.5-7.5zm0 0"/><path d="m250.121094 246.378906h11.757812c3.132813 0 5.679688 2.546875 5.679688 5.679688 0 3.128906-2.546875 5.675781-5.679688 5.675781h-22.503906c-4.140625 0-7.5 3.359375-7.5 7.5 0 4.144531 3.359375 7.5 7.5 7.5h10.390625v5.222656c0 4.140625 3.359375 7.5 7.5 7.5 4.144531 0 7.5-3.359375 7.5-7.5v-5.421875c10.042969-1.410156 17.792969-10.054687 17.792969-20.476562 0-11.402344-9.277344-20.679688-20.679688-20.679688h-11.757812c-3.132813 0-5.679688-2.546875-5.679688-5.675781 0-3.132813 2.546875-5.679687 5.679688-5.679687h22.503906c4.140625 0 7.5-3.355469 7.5-7.5 0-4.140626-3.359375-7.5-7.5-7.5h-7.859375v-5.21875c0-4.144532-3.355469-7.5-7.5-7.5-4.140625 0-7.5 3.355468-7.5 7.5v5.222656c-11.238281.191406-20.320313 9.390625-20.320313 20.675781-.003906 11.402344 9.273438 20.675781 20.675782 20.675781zm0 0"/></svg>
