<svg id="icon" height="512pt" viewBox="0 -26 512.00297 512" width="512pt" xmlns="http://www.w3.org/2000/svg"><path d="m52.332031 80.285156h36.082031l11.429688 45.113282h-47.707031c-7.636719 0-13.605469 6.582031-12.863281 14.179687l5.667968 57.988281c.445313 4.535156-2.417968 8.742188-6.800781 9.996094-5.089844 1.453125-10.382813-1.558594-11.726563-6.679688l-17.96875-68.367187c-2.628906-9.996094.25-20.632813 7.558594-27.941406l15.777344-15.773438c5.449219-5.453125 12.84375-8.515625 20.550781-8.515625zm0 0" fill="#6a7193"/><path d="m110.664062 286.730469h105.515626v34.480469h-105.515626zm0 0" fill="#8cbafa"/><path d="m191.664062 286.730469h24.519532v34.480469h-24.519532zm0 0" fill="#5692d8"/><path d="m262.769531 439.378906-24.003906-110.703125c-.941406-4.359375-4.796875-7.464843-9.257813-7.464843h-132.171874c-4.457032 0-8.3125 3.105468-9.257813 7.464843l-24.003906 110.703125c-1.433594 6.609375 3.605469 12.855469 10.367187 12.855469h177.960938c6.765625 0 11.800781-6.246094 10.367187-12.855469zm0 0" fill="#e9e9ea"/><path d="m262.769531 439.378906-24.003906-110.703125c-.941406-4.359375-4.796875-7.464843-9.257813-7.464843h-24.851562c4.457031 0 8.3125 3.105468 9.257812 7.464843l24.003907 110.703125c1.433593 6.609375-3.601563 12.855469-10.367188 12.855469h24.851563c6.765625 0 11.800781-6.246094 10.367187-12.855469zm0 0" fill="#c5c4cc"/><path d="m79.945312 64.089844h202.433594c4.863282 0 7.375 5.816406 4.035156 9.355468l-38.777343 41.113282-17.90625 163.726562c-.527344 4.804688-4.585938 8.445313-9.417969 8.445313h-113.777344c-4.835937 0-8.894531-3.640625-9.417968-8.445313l-22.75-207.972656c-.363282-3.324219 2.238281-6.222656 5.578124-6.222656zm0 0" fill="#e9e9ea"/><path d="m282.378906 64.089844h-23.75c4.867188 0 7.375 5.816406 4.035156 9.355468l-38.777343 41.113282-17.90625 163.726562c-.527344 4.804688-4.585938 8.445313-9.417969 8.445313h23.75c4.832031 0 8.890625-3.640625 9.417969-8.445313l17.90625-163.726562 38.777343-41.113282c3.339844-3.539062.832032-9.355468-4.035156-9.355468zm0 0" fill="#c5c4cc"/><path d="m237.765625 64.089844h-148.6875c18.210937-20.5 44.769531-33.414063 74.34375-33.414063 29.578125 0 56.132813 12.914063 74.34375 33.414063zm0 0" fill="#8cbafa"/><path d="m201.496094 64.089844h36.269531c-18.210937-20.5-44.769531-33.414063-74.34375-33.414063-3.488281 0-6.933594.179688-10.328125.53125 19.203125 2.621094 36.257812 14.800781 48.402344 32.882813zm0 0" fill="#5692d8"/><path d="m89.082031 64.085938-.003906.003906zm0 0" fill="#5692d8"/><path d="m456.898438 419.683594h-216.808594c-4.375 0-7.917969-3.546875-7.917969-7.917969v-78.097656c0-25.597657 20.753906-46.351563 46.351563-46.351563h139.941406c25.597656 0 46.351562 20.753906 46.351562 46.351563v78.097656c0 4.371094-3.546875 7.917969-7.917968 7.917969zm0 0" fill="#ed5176"/><path d="m418.460938 287.316406h-25c25.601562 0 46.351562 20.753906 46.351562 46.351563v78.097656c0 4.371094-3.542969 7.917969-7.914062 7.917969h25c4.371093 0 7.917968-3.546875 7.917968-7.917969v-78.097656c0-25.597657-20.753906-46.351563-46.355468-46.351563zm0 0" fill="#ba365f"/><path d="m493.035156 370.925781h-28.21875v-22.929687h28.21875c6.332032 0 11.464844 5.132812 11.464844 11.464844 0 6.332031-5.132812 11.464843-11.464844 11.464843zm0 0" fill="#8cbafa"/><path d="m436.238281 452.234375h-9.515625c-3.140625 0-5.871094-2.167969-6.578125-5.230469l-6.335937-27.320312h29.1875v25.792968c-.003906 3.734376-3.027344 6.757813-6.757813 6.757813zm0 0" fill="#6a7193"/><path d="m260.75 452.234375h9.511719c3.144531 0 5.871093-2.167969 6.582031-5.230469l6.335938-27.320312h-29.1875v25.792968c0 3.734376 3.027343 6.757813 6.757812 6.757813zm0 0" fill="#6a7193"/><path d="m283.722656 220c-5.097656 4.535156-1.589844 17.550781.800782 21.390625 2.617187 4.203125 15.914062 11.414063 15.914062 15.394531v30.53125h96.113281s0-20.164062 0-30.53125c0-3.980468 13.292969-11.191406 15.910157-15.394531 2.394531-3.839844 5.902343-16.855469.804687-21.390625-24.203125-21.519531-105.339844-21.519531-129.542969 0zm0 0" fill="#ffd2a1"/><path d="m413.265625 220c-13.964844-12.417969-46.894531-17.667969-76.898437-15.753906 21.992187 1.402344 42.414062 6.65625 52.648437 15.753906 5.097656 4.535156 1.589844 17.550781-.800781 21.390625-2.621094 4.203125-15.914063 11.414063-15.914063 15.394531v30.53125h24.25s0-20.164062 0-30.53125c0-3.980468 13.292969-11.191406 15.914063-15.394531 2.390625-3.839844 5.898437-16.855469.800781-21.390625zm0 0" fill="#f9aa4b"/><path d="m389.757812 363.425781h-82.53125c-4.140624 0-7.5 3.355469-7.5 7.5s3.359376 7.5 7.5 7.5h82.53125c4.144532 0 7.5-3.355469 7.5-7.5s-3.359374-7.5-7.5-7.5zm0 0"/><path d="m493.035156 340.496094h-20.722656v-6.828125c0-8.117188-1.761719-15.925781-5.242188-23.203125-1.785156-3.738282-6.265624-5.316406-10-3.53125-3.738281 1.785156-5.320312 6.265625-3.53125 10 2.503907 5.242187 3.773438 10.875 3.773438 16.734375v78.097656c0 .230469-.1875.417969-.414062.417969h-216.808594c-.230469 0-.417969-.1875-.417969-.417969v-78.097656c0-21.421875 17.429687-38.851563 38.851563-38.851563h139.9375c6.132812 0 11.992187 1.382813 17.421874 4.113282 3.707032 1.859374 8.210938.367187 10.070313-3.332032 1.859375-3.703125.367187-8.210937-3.332031-10.070312-7.539063-3.789063-15.667969-5.710938-24.160156-5.710938h-14.410157v-21.316406c1.28125-1.273438 3.945313-3.3125 5.652344-4.617188 3.910156-2.988281 7.285156-5.570312 9.125-8.527343 3.476563-5.574219 8.402344-22.972657-.582031-30.957031-12.699219-11.292969-38.773438-18.039063-69.753906-18.035157-30.980469 0-57.054688 6.742188-69.753907 18.035157 0 0 0 0-.003906 0-8.980469 7.984374-4.050781 25.382812-.578125 30.957031 1.839844 2.953125 5.214844 5.539062 9.125 8.527343 1.707031 1.308594 4.371094 3.34375 5.652344 4.617188v21.316406h-14.410156c-22.648438 0-42.074219 14.050782-50.019532 33.890625h-4.824218v-19.808593c7.121093-1.433594 12.6875-7.316407 13.503906-14.796876l17.632812-161.226562 37.054688-39.28125c3.578125-3.792969 4.554687-9.335938 2.488281-14.121094-2.0625-4.789062-6.769531-7.882812-11.980469-7.882812h-41.316406c-18.433594-19.460938-43.511719-31.273438-70.140625-33.148438v-8.441406h10.910156c4.140625 0 7.5-3.355469 7.5-7.5 0-4.140625-3.359375-7.5-7.5-7.5h-36.820312c-4.140625 0-7.5 3.359375-7.5 7.5 0 4.144531 3.359375 7.5 7.5 7.5h10.910156v8.441406c-26.625 1.875-51.707031 13.691406-70.140625 33.148438h-5.835938c-3.71875 0-7.277343 1.589844-9.761718 4.359375s-3.675782 6.480469-3.269532 10.179687l.179688 1.652344h-14.761719c-9.773437 0-18.960937 3.808594-25.855469 10.71875l-15.785156 15.773438c-9.152344 9.164062-12.792968 22.636718-9.5 35.144531l3.722656 14.1875c.882813 3.371093 3.921876 5.601562 7.25 5.601562.628907 0 1.269532-.078125 1.90625-.246093 4.007813-1.050782 6.402344-5.152344 5.355469-9.15625l-3.722656-14.199219c-1.945313-7.378907.203125-15.324219 5.597656-20.726563l15.785157-15.773437c4.070312-4.078125 9.480468-6.320313 15.246093-6.320313h16.402344l3.292969 30.109375h-19.898438c-5.746094 0-11.257812 2.441407-15.121094 6.703125-3.863281 4.261719-5.761718 9.984375-5.203124 15.707032l5.671874 57.988281c.089844.933593-.496093 1.796875-1.40625 2.054687-.183593.054688-.363281.078125-.539062.078125-.714844 0-1.605469-.453125-1.867188-1.445312l-6.609374-25.160157c-1.050782-4.003906-5.160157-6.398437-9.160157-5.347656-4.007812 1.054688-6.398437 5.152344-5.347656 9.160156l6.613281 25.171876c1.960938 7.433593 8.695313 12.621093 16.371094 12.621093 1.578125 0 3.152344-.222656 4.667969-.65625 7.863281-2.242187 12.996093-9.785156 12.207031-17.933593l-5.671875-57.988282c-.203125-2.078125.78125-3.507812 1.382813-4.171875.605468-.664062 1.929687-1.78125 4.015624-1.78125h21.535157l15.992187 146.207031c.816406 7.480469 6.378906 13.363282 13.503906 14.796876v19.808593h-5.832031c-7.9375 0-14.910156 5.632813-16.578125 13.382813l-24.015625 110.707031c-1.160156 5.375.152344 10.914063 3.605469 15.195313 3.457031 4.285156 8.59375 6.738281 14.097656 6.738281h148.382813c4.140625 0 7.5-3.355469 7.5-7.5 0-4.140625-3.359375-7.5-7.5-7.5h-148.382813c-1.292968 0-2.074218-.722657-2.421875-1.15625-.347656-.433594-.894531-1.34375-.621093-2.601563l24.015624-110.714844c.191407-.898437 1-1.550781 1.917969-1.550781h13.253907c.027343 0 .050781.003907.078124.003907h105.515626c.023437 0 .050781-.003907.078124-.003907h8.640626c-.152344 1.636719-.226563 3.289063-.226563 4.960938v78.097656c0 8.5 6.914063 15.417969 15.417969 15.417969h6.402344v18.292968c0 7.859376 6.394531 14.257813 14.257812 14.257813h9.511719c6.671875 0 12.382812-4.539063 13.886719-11.035156l4.992187-21.515625h118.707031l4.988282 21.515625c1.507812 6.496093 7.21875 11.035156 13.886718 11.035156h9.515625c7.859375 0 14.257813-6.398437 14.257813-14.257813v-18.292968h6.402344c8.503906 0 15.417968-6.917969 15.417968-15.417969v-33.339844h20.722656c10.457032 0 18.964844-8.507812 18.964844-18.964843-.003906-10.457032-8.511718-18.964844-18.96875-18.964844zm-204.328125-114.890625h-.003906zm7.6875 16.363281c-1.917969-1.46875-4.800781-3.675781-5.550781-4.613281-1.523438-2.542969-2.890625-9.839844-1.957031-11.910157 21.429687-18.664062 97.78125-18.667968 119.207031 0 .9375 2.066407-.429688 9.363282-1.953125 11.90625-.75.941407-3.632813 3.148438-5.550781 4.617188-6.195313 4.738281-11.542969 8.828125-11.542969 14.8125v23.035156h-81.113281v-23.03125c0-5.988281-5.34375-10.078125-11.539063-14.816406zm-132.972656-203.792969c20.039063 0 39.382813 6.566407 55.175781 18.414063h-110.351562c15.789062-11.847656 35.136718-18.414063 55.175781-18.414063zm-80.488281 41.46875c-.011719-.125-.023438-.25-.042969-.371093l-.839844-7.683594h195.804688l-35.679688 37.824218c-1.117187 1.1875-1.820312 2.707032-1.996093 4.332032l-17.90625 163.722656c-.109376 1.003906-.953126 1.761719-1.964844 1.761719h-113.777344c-1.007812 0-1.851562-.757813-1.960938-1.757813zm35.230468 214.585938h90.515626v19.476562h-90.515626zm151.507813 150.503906h-8.179687v-17.550781h12.25zm165.820313 0h-8.179688l-4.070312-17.550781h12.25zm57.542968-81.308594h-20.722656v-7.929687h20.722656c2.1875 0 3.964844 1.777344 3.964844 3.964844s-1.777344 3.964843-3.964844 3.964843zm0 0"/><path d="m160.421875 341.035156c-4.144531 0-7.5 3.359375-7.5 7.5 0 4.144532 3.355469 7.5 7.5 7.5h6c4.140625 0 7.5-3.355468 7.5-7.5 0-4.140625-3.359375-7.5-7.5-7.5zm0 0"/></svg>
