<svg id="icon" height="512pt" viewBox="0 -26 512 512" width="512pt" xmlns="http://www.w3.org/2000/svg"><path d="m7.5 362.390625v72.75c0 9.328125 7.5625 16.886719 16.886719 16.886719h463.226562c9.324219 0 16.886719-7.558594 16.886719-16.886719v-72.75c0-9.328125-7.5625-16.886719-16.886719-16.886719h-463.226562c-9.324219 0-16.886719 7.558594-16.886719 16.886719zm0 0" fill="#575b7a"/><path d="m487.613281 345.503906h-25c9.324219 0 16.886719 7.558594 16.886719 16.886719v72.75c0 9.328125-7.558594 16.886719-16.886719 16.886719h25c9.324219 0 16.886719-7.558594 16.886719-16.886719v-72.75c0-9.328125-7.558594-16.886719-16.886719-16.886719zm0 0" fill="#252d4c"/><path d="m431.851562 193.71875v-79.492188c0-7.472656-6.058593-13.535156-13.535156-13.535156h-324.636718c-7.472657 0-13.53125 6.0625-13.53125 13.535156v79.492188l-33.820313 151.785156h419.34375zm0 0" fill="#e9e9ea"/><path d="m431.851562 193.71875v-79.492188c0-7.472656-6.058593-13.535156-13.535156-13.535156h-25.699218c7.476562 0 13.535156 6.0625 13.535156 13.535156v79.492188l33.816406 151.785156h25.703125zm0 0" fill="#c5c4cc"/><path d="m418.320312 100.691406h-324.640624c-7.472657 0-13.53125 6.0625-13.53125 13.535156v79.492188h351.703124v-79.492188c0-7.472656-6.058593-13.535156-13.53125-13.535156zm0 0" fill="#6a7193"/><path d="m418.320312 100.691406h-25.699218c7.472656.003906 13.53125 6.0625 13.53125 13.535156v79.492188h25.699218v-79.492188c0-2.800781-.851562-5.40625-2.308593-7.566406-.242188-.359375-.503907-.707031-.78125-1.042968-2.480469-3.007813-6.238281-4.925782-10.441407-4.925782zm0 0" fill="#575b7a"/><path d="m130.027344 296.773438v11.101562c0 5.066406 4.109375 9.175781 9.175781 9.175781h18.191406c5.066407 0 9.171875-4.109375 9.171875-9.175781v-11.101562c0-5.070313-4.105468-9.175782-9.171875-9.175782h-18.191406c-5.066406 0-9.175781 4.105469-9.175781 9.175782zm0 0" fill="#8cbafa"/><path d="m199.460938 296.773438v11.101562c0 5.066406 4.105468 9.175781 9.175781 9.175781h18.1875c5.070312 0 9.175781-4.109375 9.175781-9.175781v-11.101562c0-5.070313-4.105469-9.175782-9.175781-9.175782h-18.1875c-5.070313 0-9.175781 4.105469-9.175781 9.175782zm0 0" fill="#8cbafa"/><path d="m268.890625 296.773438v11.101562c0 5.066406 4.109375 9.175781 9.175781 9.175781h18.191406c5.066407 0 9.171876-4.109375 9.171876-9.175781v-11.101562c0-5.070313-4.105469-9.175782-9.171876-9.175782h-18.191406c-5.066406 0-9.175781 4.105469-9.175781 9.175782zm0 0" fill="#aed559"/><path d="m338.324219 296.773438v11.101562c0 5.066406 4.105469 9.175781 9.171875 9.175781h18.191406c5.070312 0 9.175781-4.109375 9.175781-9.175781v-11.101562c0-5.070313-4.105469-9.175782-9.175781-9.175782h-18.191406c-5.0625 0-9.171875 4.105469-9.171875 9.175782zm0 0" fill="#ed5176"/><g fill="#8cbafa"><path d="m130.027344 232.273438v11.101562c0 5.066406 4.109375 9.175781 9.175781 9.175781h18.191406c5.066407 0 9.171875-4.109375 9.171875-9.175781v-11.101562c0-5.070313-4.105468-9.175782-9.171875-9.175782h-18.191406c-5.066406 0-9.175781 4.105469-9.175781 9.175782zm0 0"/><path d="m199.460938 232.273438v11.101562c0 5.066406 4.105468 9.175781 9.175781 9.175781h18.1875c5.070312 0 9.175781-4.109375 9.175781-9.175781v-11.101562c0-5.070313-4.105469-9.175782-9.175781-9.175782h-18.1875c-5.070313 0-9.175781 4.105469-9.175781 9.175782zm0 0"/><path d="m268.890625 232.273438v11.101562c0 5.066406 4.109375 9.175781 9.175781 9.175781h18.191406c5.066407 0 9.171876-4.109375 9.171876-9.175781v-11.101562c0-5.070313-4.105469-9.175782-9.171876-9.175782h-18.191406c-5.066406 0-9.175781 4.105469-9.175781 9.175782zm0 0"/><path d="m338.324219 232.273438v11.101562c0 5.066406 4.105469 9.175781 9.171875 9.175781h18.191406c5.070312 0 9.175781-4.109375 9.175781-9.175781v-11.101562c0-5.070313-4.105469-9.175782-9.175781-9.175782h-18.191406c-5.0625 0-9.171875 4.105469-9.171875 9.175782zm0 0"/><path d="m421.320312 73.835938h-106.835937c-10.851563 0-19.648437-8.800782-19.648437-19.652344v-27.03125c0-10.855469 8.796874-19.652344 19.648437-19.652344h106.835937c10.851563 0 19.648438 8.796875 19.648438 19.652344v27.03125c0 10.851562-8.796875 19.652344-19.648438 19.652344zm0 0"/></g><path d="m280.234375 398.765625c0 13.382813-10.847656 24.234375-24.234375 24.234375s-24.234375-10.851562-24.234375-24.234375c0-13.386719 10.847656-24.238281 24.234375-24.238281s24.234375 10.851562 24.234375 24.238281zm0 0" fill="#c5c4cc"/><path d="m390.65625 165h-93.808594c-5.089844 0-9.214844-4.125-9.214844-9.214844v-24.925781c0-5.089844 4.125-9.214844 9.214844-9.214844h93.808594c5.089844 0 9.214844 4.125 9.214844 9.214844v24.925781c0 5.085938-4.125 9.214844-9.214844 9.214844zm0 0" fill="#aed559"/><path d="m207.898438 81.960938-13.082032-12.550782c-.773437-.742187-1.996094-.742187-2.769531 0l-13.085937 12.550782c-.777344.742187-1.996094.742187-2.769532 0l-13.089844-12.550782c-.773437-.742187-1.996093-.742187-2.769531 0l-13.089843 12.550782c-.773438.742187-1.996094.742187-2.769532 0l-11.09375-10.632813c-1.269531-1.21875-3.382812-.320313-3.382812 1.441406v92.230469h95.144531v-92.226562c0-1.761719-2.113281-2.664063-3.382813-1.445313l-11.089843 10.632813c-.773438.742187-1.996094.742187-2.769531 0zm0 0" fill="#e9e9ea"/><path d="m487.613281 338.003906h-15.929687l-18.628906-83.605468c-.898438-4.042969-4.90625-6.59375-8.949219-5.6875-4.042969.898437-6.589844 4.90625-5.691407 8.949218l17.902344 80.34375h-400.632812l30.476562-136.785156h339.679688l5.890625 26.4375c.777343 3.496094 3.875 5.871094 7.3125 5.871094.542969 0 1.089843-.058594 1.640625-.179688 4.042968-.898437 6.589844-4.90625 5.6875-8.949218l-7.019532-31.503907v-78.667969c0-11.597656-9.4375-21.035156-21.035156-21.035156h-42.914062v-11.855468h45.914062c14.972656 0 27.152344-12.179688 27.152344-27.152344v-27.03125c0-14.972656-12.179688-27.152344-27.152344-27.152344h-106.832031c-14.96875 0-27.148437 12.179688-27.148437 27.152344v27.03125c0 14.972656 12.179687 27.152344 27.148437 27.152344h45.917969v11.855468h-105.261719c-4.144531 0-7.5 3.359375-7.5 7.5 0 4.144532 3.355469 7.5 7.5 7.5h163.179687c3.324219 0 6.03125 2.707032 6.03125 6.035156v71.992188h-336.703124v-71.992188c0-3.328124 2.707031-6.035156 6.03125-6.035156h6.347656c4.144531 0 7.5-3.355468 7.5-7.5 0-4.140625-3.355469-7.5-7.5-7.5h-6.347656c-11.597657 0-21.03125 9.4375-21.03125 21.035156v78.667969l-32.332032 145.109375h-15.929687c-13.445313 0-24.386719 10.9375-24.386719 24.386719v72.75c0 13.449219 10.941406 24.386719 24.386719 24.386719h67.421875c4.140625 0 7.5-3.355469 7.5-7.5 0-4.140625-3.359375-7.5-7.5-7.5h-67.421875c-5.175781 0-9.386719-4.210938-9.386719-9.386719v-72.75c0-5.175781 4.210938-9.386719 9.386719-9.386719h463.226562c5.175781 0 9.386719 4.210938 9.386719 9.386719v72.75c0 5.175781-4.210938 9.386719-9.386719 9.386719h-365.804687c-4.144532 0-7.5 3.359375-7.5 7.5 0 4.144531 3.355468 7.5 7.5 7.5h365.804687c13.445313 0 24.386719-10.9375 24.386719-24.386719v-72.75c0-13.449219-10.941406-24.386719-24.386719-24.386719zm-185.277343-283.820312v-27.03125c0-6.703125 5.449218-12.152344 12.148437-12.152344h106.832031c6.703125 0 12.152344 5.449219 12.152344 12.152344v27.03125c0 6.699218-5.449219 12.152344-12.152344 12.152344h-106.832031c-6.699219 0-12.148437-5.453126-12.148437-12.152344zm0 0"/><path d="m157.394531 280.097656h-18.191406c-9.195313 0-16.675781 7.480469-16.675781 16.671875v11.105469c0 9.191406 7.480468 16.671875 16.675781 16.671875h18.191406c9.195313 0 16.671875-7.480469 16.671875-16.671875v-11.105469c0-9.191406-7.476562-16.671875-16.671875-16.671875zm1.671875 27.777344c0 .921875-.75 1.675781-1.671875 1.675781h-18.191406c-.921875 0-1.675781-.753906-1.675781-1.675781v-11.101562c0-.925782.753906-1.675782 1.675781-1.675782h18.191406c.921875 0 1.671875.75 1.671875 1.675782zm0 0"/><path d="m226.824219 280.097656h-18.1875c-9.195313 0-16.675781 7.480469-16.675781 16.671875v11.105469c0 9.191406 7.480468 16.671875 16.675781 16.671875h18.1875c9.195312 0 16.675781-7.480469 16.675781-16.671875v-11.105469c0-9.191406-7.480469-16.671875-16.675781-16.671875zm1.675781 27.777344c0 .921875-.75 1.675781-1.675781 1.675781h-18.1875c-.925781 0-1.675781-.753906-1.675781-1.675781v-11.101562c0-.925782.75-1.675782 1.675781-1.675782h18.1875c.925781 0 1.675781.75 1.675781 1.675782zm0 0"/><path d="m296.257812 280.097656h-18.191406c-9.195312 0-16.671875 7.480469-16.671875 16.671875v11.105469c0 9.191406 7.476563 16.671875 16.671875 16.671875h18.191406c9.195313 0 16.675782-7.480469 16.675782-16.671875v-11.105469c0-9.191406-7.480469-16.671875-16.675782-16.671875zm1.675782 27.777344c0 .921875-.753906 1.675781-1.675782 1.675781h-18.191406c-.921875 0-1.671875-.753906-1.671875-1.675781v-11.101562c0-.925782.75-1.675782 1.671875-1.675782h18.191406c.921876 0 1.675782.75 1.675782 1.675782zm0 0"/><path d="m365.6875 280.097656h-18.191406c-9.191406 0-16.671875 7.480469-16.671875 16.671875v11.105469c0 9.191406 7.480469 16.671875 16.671875 16.671875h18.191406c9.195312 0 16.675781-7.480469 16.675781-16.671875v-11.105469c0-9.191406-7.480469-16.671875-16.675781-16.671875zm1.675781 27.777344c0 .921875-.75 1.675781-1.671875 1.675781h-18.191406c-.925781 0-1.675781-.753906-1.675781-1.675781v-11.101562c0-.925782.75-1.675782 1.675781-1.675782h18.191406c.921875 0 1.671875.75 1.671875 1.675782zm0 0"/><path d="m174.066406 232.273438c0-9.195313-7.476562-16.675782-16.671875-16.675782h-18.191406c-9.195313 0-16.675781 7.480469-16.675781 16.675782v11.101562c0 9.195312 7.480468 16.675781 16.675781 16.675781h18.191406c9.195313 0 16.671875-7.480469 16.671875-16.675781zm-15 11.101562c0 .921875-.75 1.675781-1.671875 1.675781h-18.191406c-.921875 0-1.675781-.753906-1.675781-1.675781v-11.101562c0-.925782.753906-1.675782 1.675781-1.675782h18.191406c.921875 0 1.671875.75 1.671875 1.675782zm0 0"/><path d="m243.5 232.273438c0-9.195313-7.480469-16.675782-16.675781-16.675782h-18.1875c-9.195313 0-16.675781 7.480469-16.675781 16.675782v11.101562c0 9.195312 7.480468 16.675781 16.675781 16.675781h18.1875c9.195312 0 16.675781-7.480469 16.675781-16.675781zm-15 11.101562c0 .921875-.75 1.675781-1.675781 1.675781h-18.1875c-.925781 0-1.675781-.753906-1.675781-1.675781v-11.101562c0-.925782.75-1.675782 1.675781-1.675782h18.1875c.925781 0 1.675781.75 1.675781 1.675782zm0 0"/><path d="m312.933594 232.273438c0-9.195313-7.480469-16.675782-16.675782-16.675782h-18.191406c-9.195312 0-16.671875 7.480469-16.671875 16.675782v11.101562c0 9.195312 7.476563 16.675781 16.671875 16.675781h18.191406c9.195313 0 16.675782-7.480469 16.675782-16.675781zm-15 11.101562c0 .921875-.753906 1.675781-1.675782 1.675781h-18.191406c-.921875 0-1.671875-.753906-1.671875-1.675781v-11.101562c0-.925782.75-1.675782 1.671875-1.675782h18.191406c.921876 0 1.675782.75 1.675782 1.675782zm0 0"/><path d="m382.363281 232.273438c0-9.195313-7.480469-16.675782-16.671875-16.675782h-18.191406c-9.195312 0-16.675781 7.480469-16.675781 16.675782v11.101562c0 9.195312 7.480469 16.675781 16.675781 16.675781h18.191406c9.191406 0 16.671875-7.480469 16.671875-16.675781zm-15 11.101562c0 .921875-.75 1.675781-1.671875 1.675781h-18.191406c-.925781 0-1.675781-.753906-1.675781-1.675781v-11.101562c0-.925782.75-1.675782 1.675781-1.675782h18.191406c.921875 0 1.671875.75 1.671875 1.675782zm0 0"/><path d="m121.136719 172.5h112.867187c4.140625 0 7.5-3.359375 7.5-7.5 0-4.144531-3.359375-7.5-7.5-7.5h-1.363281v-84.726562c0-3.8125-2.265625-7.242188-5.773437-8.738282-3.507813-1.5-7.550782-.757812-10.300782 1.878906l-7.28125 6.980469-9.277344-8.898437c-3.6875-3.535156-9.460937-3.535156-13.148437 0l-9.285156 8.902344-9.28125-8.902344c-3.683594-3.53125-9.460938-3.535156-13.148438 0l-9.285156 8.902344-7.289063-6.984376c-2.75-2.636718-6.796874-3.375-10.300781-1.878906-3.503906 1.496094-5.773437 4.925782-5.773437 8.738282v84.726562h-1.359375c-4.140625 0-7.5 3.359375-7.5 7.5s3.355469 7.5 7.5 7.5zm16.359375-86.839844 1.785156 1.710938c3.6875 3.539062 9.464844 3.539062 13.148438.003906l9.285156-8.902344 9.285156 8.898438c3.6875 3.539062 9.464844 3.539062 13.148438 0l9.28125-8.898438 9.277343 8.898438c3.6875 3.535156 9.460938 3.535156 13.152344 0l1.78125-1.707032v71.832032h-80.144531zm0 0"/><path d="m287.734375 398.765625c0-17.5-14.234375-31.738281-31.734375-31.738281s-31.734375 14.238281-31.734375 31.738281 14.234375 31.734375 31.734375 31.734375 31.734375-14.234375 31.734375-31.734375zm-48.46875 0c0-9.230469 7.507813-16.738281 16.734375-16.738281s16.734375 7.507812 16.734375 16.738281c0 9.226563-7.507813 16.734375-16.734375 16.734375s-16.734375-7.507812-16.734375-16.734375zm0 0"/><path d="m390.65625 172.5c9.214844 0 16.714844-7.5 16.714844-16.714844v-24.925781c0-9.21875-7.5-16.714844-16.714844-16.714844h-93.808594c-9.214844 0-16.714844 7.496094-16.714844 16.714844v24.925781c0 9.214844 7.5 16.714844 16.714844 16.714844zm-95.523438-16.714844v-24.925781c0-.945313.769532-1.714844 1.714844-1.714844h93.808594c.945312 0 1.714844.769531 1.714844 1.714844v24.925781c0 .945313-.769532 1.714844-1.714844 1.714844h-93.808594c-.945312 0-1.714844-.769531-1.714844-1.714844zm0 0"/><path d="m197.5 102.332031h-39.863281c-4.144531 0-7.5 3.359375-7.5 7.5 0 4.144531 3.355469 7.5 7.5 7.5h39.863281c4.140625 0 7.5-3.355469 7.5-7.5 0-4.140625-3.359375-7.5-7.5-7.5zm0 0"/><path d="m197.5 127.832031h-39.863281c-4.144531 0-7.5 3.359375-7.5 7.5 0 4.144531 3.355469 7.5 7.5 7.5h39.863281c4.140625 0 7.5-3.355469 7.5-7.5 0-4.140625-3.359375-7.5-7.5-7.5zm0 0"/></svg>
