<svg id="icon" height="512pt" viewBox="-36 0 512 512.001" width="512pt" xmlns="http://www.w3.org/2000/svg"><path d="m30.617188 104.917969v343.832031h377.863281v-343.832031c0-9.394531-7.617188-17.011719-17.015625-17.011719h-343.835938c-9.394531 0-17.011718 7.617188-17.011718 17.011719zm0 0" fill="#e9e9ea"/><path d="m391.464844 87.90625h-23.484375c9.394531 0 17.011719 7.617188 17.011719 17.011719v343.832031h23.488281v-343.832031c0-9.394531-7.617188-17.011719-17.015625-17.011719zm0 0" fill="#c5c4cc"/><path d="m61.601562 162.109375v22.921875c0 2.851562 2.3125 5.164062 5.164063 5.164062h305.5625c2.851563 0 5.164063-2.3125 5.164063-5.164062v-22.921875c0-2.851563-2.3125-5.164063-5.164063-5.164063h-305.558594c-2.851562-.003906-5.167969 2.3125-5.167969 5.164063zm0 0" fill="#6a7193"/><path d="m372.328125 156.941406h-24c2.851563 0 5.164063 2.3125 5.164063 5.164063v22.921875c0 2.855468-2.3125 5.164062-5.164063 5.164062h24c2.851563 0 5.164063-2.308594 5.164063-5.164062v-22.921875c0-2.847657-2.3125-5.164063-5.164063-5.164063zm0 0" fill="#575b7a"/><path d="m196.449219 7.5h-96.367188c-2.703125 0-4.890625 2.191406-4.890625 4.890625v139.660156c0 2.703125 2.1875 4.890625 4.890625 4.890625h96.367188c2.703125 0 4.890625-2.1875 4.890625-4.890625v-139.660156c0-2.699219-2.1875-4.890625-4.890625-4.890625zm0 0" fill="#8cbafa"/><path d="m196.449219 7.5h-20.871094c2.703125 0 4.890625 2.191406 4.890625 4.890625v139.660156c0 2.703125-2.1875 4.890625-4.890625 4.890625h20.871094c2.703125 0 4.890625-2.1875 4.890625-4.890625v-139.660156c0-2.699219-2.1875-4.890625-4.890625-4.890625zm0 0" fill="#5692d8"/><path d="m173.945312 54.277344c0-11.582032-11.5-20.96875-25.679687-20.96875-14.183594 0-25.679687 9.386718-25.679687 20.96875 0 11.578125 11.496093 20.96875 25.679687 20.96875 14.179687 0 25.679687-9.390625 25.679687-20.96875zm0 0" fill="#ffcd34"/><path d="m339.015625 7.5h-96.367187c-2.703126 0-4.894532 2.191406-4.894532 4.890625v139.660156c0 2.703125 2.191406 4.890625 4.894532 4.890625h96.367187c2.699219 0 4.890625-2.1875 4.890625-4.890625v-139.660156c0-2.699219-2.1875-4.890625-4.890625-4.890625zm0 0" fill="#8cbafa"/><path d="m339.015625 7.5h-20.871094c2.703125 0 4.890625 2.191406 4.890625 4.890625v139.660156c0 2.703125-2.1875 4.890625-4.890625 4.890625h20.871094c2.699219 0 4.890625-2.1875 4.890625-4.890625v-139.660156c0-2.699219-2.1875-4.890625-4.890625-4.890625zm0 0" fill="#5692d8"/><path d="m316.507812 54.277344c0-11.582032-11.496093-20.96875-25.675781-20.96875-14.183593 0-25.679687 9.386718-25.679687 20.96875 0 11.578125 11.496094 20.96875 25.679687 20.96875 14.179688 0 25.675781-9.390625 25.675781-20.96875zm0 0" fill="#ffcd34"/><path d="m7.5 499.335938v-45.421876c0-2.851562 2.3125-5.164062 5.164062-5.164062h413.765626c2.855468 0 5.164062 2.3125 5.164062 5.164062v45.421876c0 2.851562-2.308594 5.164062-5.164062 5.164062h-413.765626c-2.851562 0-5.164062-2.3125-5.164062-5.164062zm0 0" fill="#6a7193"/><path d="m426.433594 448.75h-22.605469c2.851563 0 5.164063 2.3125 5.164063 5.164062v45.421876c0 2.851562-2.3125 5.164062-5.164063 5.164062h22.605469c2.851562 0 5.164062-2.3125 5.164062-5.164062v-45.421876c0-2.851562-2.3125-5.164062-5.164062-5.164062zm0 0" fill="#575b7a"/><path d="m355.972656 344.738281h-71.757812c-.980469 0-1.773438-.792969-1.773438-1.769531v-47.539062c0-6.28125 5.09375-11.375 11.375-11.375h52.554688c6.28125 0 11.371094 5.09375 11.371094 11.375v47.539062c0 .976562-.792969 1.769531-1.769532 1.769531zm0 0" fill="#aed559"/><path d="m346.371094 284.054688h-20.902344c6.28125 0 11.371094 5.09375 11.371094 11.375v47.539062c0 .976562-.792969 1.769531-1.769532 1.769531h20.902344c.976563 0 1.769532-.792969 1.769532-1.769531v-47.539062c0-6.28125-5.089844-11.375-11.371094-11.375zm0 0" fill="#7fab38"/><path d="m346.371094 284.054688h-52.554688c-6.28125 0-11.375 5.09375-11.375 11.375v12.988281h75.300782v-12.988281c0-6.28125-5.089844-11.375-11.371094-11.375zm0 0" fill="#ffcd34"/><path d="m346.371094 284.054688h-20.902344c6.28125 0 11.371094 5.09375 11.371094 11.375v12.988281h20.90625v-12.988281c-.003906-6.28125-5.09375-11.375-11.375-11.375zm0 0" fill="#e69012"/><path d="m255.425781 344.738281h-71.757812c-.976563 0-1.769531-.792969-1.769531-1.769531v-47.539062c0-6.28125 5.089843-11.375 11.371093-11.375h52.554688c6.28125 0 11.375 5.09375 11.375 11.375v47.539062c0 .976562-.792969 1.769531-1.773438 1.769531zm0 0" fill="#aed559"/><path d="m245.824219 284.054688h-20.902344c6.28125 0 11.375 5.09375 11.375 11.375v47.539062c0 .976562-.792969 1.769531-1.773437 1.769531h20.902343c.980469 0 1.773438-.792969 1.773438-1.769531v-47.539062c0-6.28125-5.09375-11.375-11.375-11.375zm0 0" fill="#7fab38"/><path d="m245.824219 284.054688h-52.554688c-6.28125 0-11.371093 5.09375-11.371093 11.375v12.988281h75.300781v-12.988281c0-6.28125-5.09375-11.375-11.375-11.375zm0 0" fill="#ffcd34"/><path d="m245.824219 284.054688h-20.902344c6.28125 0 11.375 5.09375 11.375 11.375v12.988281h20.902344v-12.988281c0-6.28125-5.09375-11.375-11.375-11.375zm0 0" fill="#e69012"/><path d="m154.882812 344.738281h-71.757812c-.976562 0-1.773438-.792969-1.773438-1.769531v-47.539062c0-6.28125 5.09375-11.375 11.375-11.375h52.554688c6.28125 0 11.375 5.09375 11.375 11.375v47.539062c0 .976562-.792969 1.769531-1.773438 1.769531zm0 0" fill="#aed559"/><path d="m145.28125 284.054688h-20.902344c6.28125 0 11.371094 5.09375 11.371094 11.375v47.539062c0 .976562-.792969 1.769531-1.769531 1.769531h20.902343c.980469 0 1.773438-.792969 1.773438-1.769531v-47.539062c0-6.28125-5.09375-11.375-11.375-11.375zm0 0" fill="#7fab38"/><path d="m145.28125 284.054688h-52.554688c-6.28125 0-11.375 5.09375-11.375 11.375v12.988281h75.304688v-12.988281c0-6.28125-5.09375-11.375-11.375-11.375zm0 0" fill="#ffcd34"/><path d="m145.28125 284.054688h-20.902344c6.28125 0 11.371094 5.09375 11.371094 11.375v12.988281h20.90625v-12.988281c0-6.28125-5.09375-11.375-11.375-11.375zm0 0" fill="#e69012"/><path d="m61.601562 349.902344v22.921875c0 2.851562 2.3125 5.164062 5.164063 5.164062h305.5625c2.851563 0 5.164063-2.3125 5.164063-5.164062v-22.921875c0-2.851563-2.3125-5.164063-5.164063-5.164063h-305.558594c-2.851562 0-5.167969 2.3125-5.167969 5.164063zm0 0" fill="#6a7193"/><path d="m372.328125 344.738281h-24c2.851563 0 5.164063 2.3125 5.164063 5.164063v22.921875c0 2.851562-2.3125 5.164062-5.164063 5.164062h24c2.851563 0 5.164063-2.3125 5.164063-5.164062v-22.921875c0-2.851563-2.3125-5.164063-5.164063-5.164063zm0 0" fill="#575b7a"/><path d="m30.617188 167.691406c4.144531 0 7.5-3.359375 7.5-7.5v-55.269531c0-5.246094 4.265624-9.511719 9.511718-9.511719h40.0625v54.03125h-20.921875c-6.984375 0-12.664062 5.683594-12.664062 12.667969v22.921875c0 6.980469 5.679687 12.664062 12.664062 12.664062h28.613281v15.023438c0 4.140625 3.355469 7.5 7.5 7.5 4.140626 0 7.5-3.359375 7.5-7.5v-15.023438h218.332032v15.023438c0 4.140625 3.359375 7.5 7.5 7.5 4.144531 0 7.5-3.359375 7.5-7.5v-15.023438h28.613281c6.984375 0 12.664063-5.679687 12.664063-12.664062v-22.921875c0-6.984375-5.679688-12.667969-12.664063-12.667969h-20.921875v-54.03125h40.0625c5.242188 0 9.507812 4.265625 9.507812 9.511719v55.269531c0 4.140625 3.359376 7.5 7.5 7.5 4.144532 0 7.5-3.359375 7.5-7.5v-55.269531c0-13.515625-10.992187-24.511719-24.507812-24.511719h-40.0625v-68.019531c0-6.832031-5.558594-12.390625-12.390625-12.390625h-96.367187c-6.832032 0-12.390626 5.558594-12.390626 12.390625v68.019531h-21.417968v-68.019531c0-6.832031-5.558594-12.390625-12.390625-12.390625h-96.367188c-6.832031 0-12.390625 5.558594-12.390625 12.390625v68.019531h-40.0625c-13.515625 0-24.511718 10.996094-24.511718 24.511719v55.269531c0 4.140625 3.359374 7.5 7.5 7.5zm339.375 15.003906h-300.886719v-18.25h300.886719zm-33.585938-167.695312v134.441406h-91.148438v-61.375c0-.054687 0-.105468 0-.15625 0-.050781 0-.101562 0-.15625v-72.753906zm-106.148438 80.410156v54.03125h-21.417968v-54.03125zm-127.566406-80.410156h91.148438v72.753906.15625.15625 61.375h-91.148438zm0 0"/><path d="m173.945312 92.5h-51.355468c-4.144532 0-7.5 3.359375-7.5 7.5s3.355468 7.5 7.5 7.5h51.355468c4.140626 0 7.5-3.359375 7.5-7.5s-3.359374-7.5-7.5-7.5zm0 0"/><path d="m148.265625 25.808594c-18.292969 0-33.179687 12.769531-33.179687 28.46875 0 15.695312 14.886718 28.46875 33.179687 28.46875s33.179687-12.773438 33.179687-28.46875c0-15.699219-14.886718-28.46875-33.179687-28.46875zm0 41.9375c-9.855469 0-18.179687-6.167969-18.179687-13.46875 0-7.300782 8.324218-13.46875 18.179687-13.46875s18.179687 6.167968 18.179687 13.46875c0 7.300781-8.328124 13.46875-18.179687 13.46875zm0 0"/><path d="m265.152344 107.5h51.355468c4.144532 0 7.5-3.359375 7.5-7.5s-3.355468-7.5-7.5-7.5h-51.355468c-4.140625 0-7.5 3.359375-7.5 7.5s3.359375 7.5 7.5 7.5zm0 0"/><path d="m290.832031 82.746094c18.292969 0 33.175781-12.769532 33.175781-28.46875 0-15.699219-14.882812-28.46875-33.175781-28.46875s-33.179687 12.769531-33.179687 28.46875c0 15.699218 14.886718 28.46875 33.179687 28.46875zm0-41.9375c9.851563 0 18.175781 6.167968 18.175781 13.46875 0 7.300781-8.324218 13.46875-18.175781 13.46875-9.855469 0-18.179687-6.167969-18.179687-13.46875 0-7.300782 8.324218-13.46875 18.179687-13.46875zm0 0"/><path d="m426.433594 441.25h-10.453125v-251.054688c0-4.140624-3.359375-7.5-7.5-7.5-4.144531 0-7.5 3.359376-7.5 7.5v251.054688h-362.863281v-251.054688c0-4.140624-3.355469-7.5-7.5-7.5-4.144532 0-7.5 3.359376-7.5 7.5v251.054688h-10.453126c-6.984374 0-12.664062 5.679688-12.664062 12.664062v45.421876c0 6.984374 5.679688 12.664062 12.664062 12.664062h413.769532c6.980468 0 12.664062-5.679688 12.664062-12.664062v-45.421876c0-6.984374-5.683594-12.664062-12.664062-12.664062zm-2.335938 55.75h-409.097656v-40.75h409.097656zm0 0"/><path d="m336.214844 408.015625c4.144531 0 7.5-3.359375 7.5-7.5v-15.027344h28.613281c6.984375 0 12.664063-5.679687 12.664063-12.664062v-22.921875c0-6.980469-5.679688-12.664063-12.664063-12.664063h-7.085937v-41.808593c0-10.410157-8.464844-18.875-18.871094-18.875h-52.554688c-10.40625 0-18.875 8.464843-18.875 18.875v41.808593h-10.242187v-41.808593c0-10.410157-8.46875-18.875-18.875-18.875h-52.554688c-10.40625 0-18.871093 8.464843-18.871093 18.875v41.808593h-10.246094v-41.808593c0-10.410157-8.464844-18.875-18.871094-18.875h-52.554688c-10.40625 0-18.875 8.464843-18.875 18.875v41.808593h-7.085937c-6.980469 0-12.664063 5.679688-12.664063 12.664063v22.921875c0 6.984375 5.683594 12.664062 12.664063 12.664062h28.613281v15.027344c0 4.140625 3.359375 7.5 7.5 7.5 4.144532 0 7.5-3.359375 7.5-7.5v-15.027344h218.335938v15.027344c0 4.140625 3.359375 7.5 7.5 7.5zm-46.273438-112.585937c0-2.136719 1.738282-3.875 3.875-3.875h52.554688c2.136718 0 3.871094 1.738281 3.871094 3.875v5.488281h-60.300782zm0 20.488281h60.300782v21.320312h-60.300782zm-100.542968-20.488281c0-2.136719 1.738281-3.875 3.875-3.875h52.554687c2.132813 0 3.871094 1.738281 3.871094 3.875v5.488281h-60.300781zm0 20.488281h60.300781v21.320312h-60.300781zm-100.546876-20.488281c0-2.136719 1.738282-3.875 3.875-3.875h52.554688c2.136719 0 3.875 1.738281 3.875 3.875v5.488281h-60.304688zm0 20.488281h60.304688v21.320312h-60.304688zm-19.746093 36.320312h300.886719v18.25h-300.886719zm0 0"/></svg>
