<svg id="icon" height="512pt" viewBox="0 -25 512.00004 512" width="512pt" xmlns="http://www.w3.org/2000/svg"><path d="m302.320312 18.902344-.382812.246094c-1.933594 1.222656-4.398438 1.222656-6.328125-.003907l-16.890625-10.730469c-1.929688-1.226562-4.398438-1.226562-6.328125 0l-16.878906 10.730469c-1.929688 1.226563-4.398438 1.226563-6.328125 0l-16.890625-10.730469c-1.929688-1.226562-4.394531-1.226562-6.328125 0l-16.890625 10.730469c-1.929688 1.226563-4.394531 1.226563-6.328125 0l-16.890625-10.730469c-1.929688-1.226562-4.394531-1.226562-6.328125 0l-16.890625 10.730469c-1.929688 1.226563-4.394531 1.226563-6.328125.003907l-16.90625-10.734376c-1.929688-1.226562-4.394532-1.226562-6.328125 0l-16.890625 10.730469c-1.929688 1.226563-4.398438 1.226563-6.328125 0l-16.890625-10.730469c-1.929688-1.226562-4.398438-1.226562-6.328125 0l-16.890625 10.734376c-1.929688 1.222656-4.398438 1.226562-6.328125 0l-16.90625-10.734376c-1.933594-1.226562-4.398438-1.226562-6.328125 0l-16.894532 10.734376c-1.929687 1.226562-4.394531 1.226562-6.324218 0l-.402344-.253907c-3.929688-2.492187-9.0625.332031-9.0625 4.984375v36.515625c0 72.507813 28.097656 81.113281 28.097656 157.328125 0 76.21875-28.097656 84.824219-28.097656 157.328125v36.519531c0 4.652344 5.132812 7.472657 9.0625 4.980469l.402344-.253906c1.933594-1.226563 4.394531-1.226563 6.324218 0l16.894532 10.734375c1.929687 1.226562 4.398437 1.226562 6.328125 0l16.90625-10.734375c1.929687-1.226563 4.398437-1.226563 6.328125.003906l16.890625 10.730469c1.933593 1.226562 4.398437 1.226562 6.328125 0l16.890625-10.730469c1.933593-1.226562 4.398437-1.226562 6.328125 0l16.894531 10.730469c1.929687 1.226562 4.394531 1.226562 6.324219 0l16.90625-10.730469c1.933594-1.226562 4.398437-1.226562 6.328125 0l16.890625 10.730469c1.933594 1.226562 4.398437 1.226562 6.332031 0l16.886719-10.730469c1.933594-1.226562 4.398437-1.226562 6.332031 0l16.890625 10.730469c1.929688 1.226562 4.394531 1.226562 6.328125 0l16.886719-10.730469c1.933594-1.226562 4.398437-1.226562 6.332031 0l16.875 10.730469c1.929687 1.226562 4.398437 1.226562 6.328125 0l16.890625-10.730469c1.929687-1.226562 4.398437-1.226562 6.328125 0l.386719.242188c3.925781 2.496093 9.0625-.328125 9.0625-4.980469v-36.511719c0-72.503906-28.097657-81.109375-28.097657-157.328125s28.097657-84.820312 28.097657-157.328125v-36.511719c0-4.652343-5.136719-7.476562-9.066407-4.980468zm0 0" fill="#e9e9ea"/><path d="m311.386719 23.882812c0-4.652343-5.136719-7.472656-9.066407-4.980468l-.382812.246094c-1.933594 1.222656-4.398438 1.222656-6.328125 0l-10.996094-6.984376c.113281.476563.183594.980469.183594 1.511719v38.433594c0 76.324219-28.097656 85.382813-28.097656 165.613281 0 80.230469 28.097656 89.289063 28.097656 165.613282v38.433593c0 .53125-.070313 1.035157-.183594 1.515625l10.996094-6.984375c1.929687-1.230469 4.394531-1.230469 6.328125 0l.382812.242188c3.929688 2.496093 9.066407-.328125 9.066407-4.980469v-36.511719c0-72.507812-28.097657-81.109375-28.097657-157.328125s28.097657-84.820312 28.097657-157.328125zm0 0" fill="#c5c4cc"/><path d="m311.386719 60.394531h-303.886719c0 72.507813 28.097656 81.113281 28.097656 157.328125 0 76.21875-28.097656 84.824219-28.097656 157.328125h303.886719c0-72.503906-28.097657-81.109375-28.097657-157.328125 0-76.214844 28.097657-84.820312 28.097657-157.328125zm0 0" fill="#8cbafa"/><path d="m284.679688 60.394531c-1.949219 68.804688-27.980469 80.101563-27.980469 157.328125 0 77.226563 26.03125 88.523438 27.980469 157.328125h26.707031c0-72.625-28.097657-81.015625-28.097657-157.328125 0-76.210937 28.097657-84.820312 28.097657-157.328125zm0 0" fill="#5692d8"/><path d="m228.910156 178.890625c-14.488281-25.09375-56.339844-28.058594-93.480468-6.613281-37.136719 21.441406-55.5 59.167968-41.007813 84.265625 14.488281 25.097656 56.34375 28.058593 93.480469 6.617187 37.140625-21.441406 55.5-59.171875 41.007812-84.269531zm0 0" fill="#e9e9ea"/><path d="m499.25 259.5c6.980469-7.671875 7.066406-19.695312.1875-27.464844-3.464844-3.910156-8.023438-6.164062-12.757812-6.773437-2.894532-.371094-4.554688-3.402344-3.503907-6.121094 2.847657-7.363281 1.3125-16.027344-4.632812-21.972656-5.941407-5.941407-14.605469-7.480469-21.96875-4.632813-2.722657 1.050782-5.75-.609375-6.121094-3.5-.609375-4.734375-2.863281-9.292968-6.773437-12.757812-7.769532-6.878906-19.789063-6.792969-27.464844.1875l-.019532-.015625c-.210937.210937-.417968.4375-.625.664062-2.050781 2.03125-3.582031 4.382813-4.597656 6.894531-12.847656 25.199219-13.691406 83.148438-13.691406 83.148438l11.261719 11.257812s57.652343-.835937 82.953125-13.59375c2.859375-1.117187 5.53125-2.875 7.753906-5.320312zm0 0" fill="#ffb0e1"/><path d="m308.90625 449.84375c-7.675781 6.984375-19.695312 7.066406-27.464844.1875-3.910156-3.460938-6.164062-8.023438-6.773437-12.757812-.375-2.890626-3.402344-4.550782-6.121094-3.5-7.363281 2.847656-16.027344 1.308593-21.972656-4.632813-5.941407-5.945313-7.480469-14.609375-4.632813-21.972656 1.050782-2.71875-.609375-5.746094-3.5-6.121094-4.734375-.609375-9.296875-2.863281-12.757812-6.773437-6.878906-7.769532-6.796875-19.789063.183594-27.464844h.003906l-.019532-.015625c.214844-.214844.4375-.421875.667969-.628907 2.03125-2.046874 4.378907-3.582031 6.894531-4.59375 25.199219-12.851562 83.148438-13.695312 83.148438-13.695312l11.257812 11.261719s-.839843 57.652343-13.59375 82.953125c-1.117187 2.863281-2.875 5.53125-5.320312 7.753906zm0 0" fill="#ffb0e1"/><g fill="#fa7ec1"><path d="m499.4375 232.035156c-2.929688-3.304687-6.644531-5.414062-10.582031-6.359375.753906 5.671875-1.359375 12.230469-6.09375 17.335938-2.246094 2.425781-4.824219 4.273437-7.511719 5.5625-24.054688 14-76.070312 20.480469-76.070312 20.480469l9.363281 9.359374s57.652343-.835937 82.953125-13.59375c2.863281-1.117187 5.53125-2.875 7.753906-5.320312 6.984375-7.671875 7.066406-19.695312.1875-27.464844zm0 0"/><path d="m318.457031 349.777344s-6.476562 52.011718-20.476562 76.066406c-1.292969 2.691406-3.140625 5.269531-5.5625 7.515625-5.109375 4.730469-11.664063 6.84375-17.335938 6.09375.941407 3.9375 3.050781 7.652344 6.359375 10.582031 7.765625 6.878906 19.789063 6.792969 27.464844-.1875 2.445312-2.226562 4.199219-4.894531 5.320312-7.757812 12.753907-25.296875 13.59375-82.953125 13.59375-82.953125zm0 0"/><path d="m423.605469 252.105469c-26.59375-26.597657-75.488281-20.824219-109.207031 12.894531-33.714844 33.71875-39.488282 82.609375-12.894532 109.207031 26.59375 26.59375 75.488282 20.820313 109.207032-12.898437 33.714843-33.714844 39.488281-82.609375 12.894531-109.203125zm0 0"/></g><path d="m423.613281 252.101562c-1.757812-1.753906-3.613281-3.359374-5.554687-4.832031 16.167968 22.734375 5.398437 63.796875-26.09375 95.289063-31.492188 31.492187-72.558594 42.261718-95.292969 26.097656 1.476563 1.9375 3.082031 3.796875 4.835937 5.550781 26.59375 26.59375 75.488282 20.820313 109.207032-12.898437 33.71875-33.714844 39.492187-82.609375 12.898437-109.207032zm0 0" fill="#cf579c"/><path d="m402.894531 368.390625c2.679688-2.207031 5.296875-4.554687 7.820313-7.078125 6.21875-6.21875 11.476562-12.953125 15.765625-19.96875l-53.5625-105.527344c-10.722657 1.097656-21.734375 4.425782-32.289063 9.898438zm0 0" fill="#e9e9ea"/><path d="m413.101562 314.988281c-5.394531 9.527344-12.476562 18.910157-21.136718 27.570313-.484375.484375-.972656.945312-1.460938 1.417968l12.390625 24.414063c1.03125-1.011719 13.371094-10.339844 23.585938-27.046875zm0 0" fill="#c5c4cc"/><path d="m132.144531 284.792969c1.9375.136719 3.902344.203125 5.878907.203125 17.523437 0 36.34375-5.351563 53.636718-15.335938 19.242188-11.109375 34.464844-26.726562 42.859375-43.976562 8.867188-18.226563 9.1875-36.171875.894531-50.535156-8.292968-14.363282-23.996093-23.0625-44.214843-24.496094-19.132813-1.355469-40.269531 4.019531-59.515625 15.128906-19.246094 11.113281-34.464844 26.730469-42.859375 43.980469-8.871094 18.226562-9.1875 36.171875-.894531 50.535156 8.292968 14.363281 23.992187 23.0625 44.214843 24.496094zm-29.832031-68.46875c7.097656-14.585938 20.191406-27.917969 36.871094-37.550781 15.027344-8.675782 31.199218-13.328126 46.089844-13.328126 1.636718 0 3.261718.058594 4.867187.171876 15.09375 1.070312 26.558594 7.117187 32.28125 17.03125 5.722656 9.910156 5.230469 22.863281-1.390625 36.472656-7.101562 14.582031-20.195312 27.917968-36.875 37.550781-16.679688 9.628906-34.769531 14.300781-50.953125 13.15625-15.09375-1.070313-26.558594-7.117187-32.285156-17.03125-5.722657-9.914063-5.226563-22.867187 1.394531-36.472656zm0 0"/><path d="m505.050781 227.058594c-3.699219-4.167969-8.519531-7.125-13.820312-8.527344 2.371093-9.488281-.355469-19.644531-7.378907-26.65625-7.011718-7.019531-17.164062-9.75-26.65625-7.390625-1.410156-5.308594-4.371093-10.125-8.542968-13.816406-10.414063-9.222657-26.539063-9.257813-37.003906-.179688-.257813.195313-.507813.414063-.742188.648438-.269531.269531-.539062.546875-.796875.835937-2.574219 2.597656-4.582031 5.597656-5.960937 8.921875-5.261719 10.46875-9.183594 26.570313-11.699219 47.949219-6.226563-.941406-12.6875-1.113281-19.242188-.519531-.347656-.015625-.699219-.003907-1.054687.03125-11.851563 1.214843-23.617188 4.8125-34.976563 10.703125-.144531.074218-.289062.15625-.425781.238281-9.792969 5.113281-19.179688 11.929687-27.648438 20.398437-4.292968 4.292969-8.160156 8.820313-11.597656 13.515626-3.796875-14.226563-6.71875-31.328126-6.71875-55.484376 0-37.347656 6.761719-57.304687 13.917969-78.429687 6.972656-20.582031 14.183594-41.867187 14.183594-78.90625v-36.5c0-4.894531-2.664063-9.398437-6.953125-11.753906-4.109375-2.261719-9.09375-2.195313-13.152344.144531l-16.042969-10.199219c-4.371093-2.769531-10.015625-2.769531-14.367187.007813l-16.023438 10.183594-16.027344-10.183594c-4.367187-2.78125-10.011718-2.785156-14.371093-.003906l-16.035157 10.1875-16.027343-10.183594c-4.371094-2.785156-10.019531-2.785156-14.382813-.003906l-16.03125 10.183593-16.042968-10.179687c-4.367188-2.785156-10.019532-2.785156-14.378907-.003906l-16.03125 10.183593-16.019531-10.179687c-4.371094-2.78125-10.019531-2.785156-14.386719-.003906l-16.03125 10.1875-16.039062-10.183594c-4.371094-2.785156-10.019531-2.785156-14.382813-.003906l-16.046875 10.195312c-4.046875-2.347656-9.039062-2.414062-13.160156-.152344-4.289063 2.355469-6.953125 6.855469-6.953125 11.75v36.515625c0 37.0625 7.214844 58.347657 14.191406 78.933594 1.4375 4.238281 2.921875 8.617187 4.3125 13.054687 1.238282 3.953126 5.441406 6.152344 9.402344 4.914063 3.953125-1.238281 6.152344-5.445313 4.914062-9.398437-1.441406-4.601563-2.957031-9.066407-4.421874-13.386719-6.375-18.808594-12.421876-36.65625-13.292969-66.613281h288.671875c-.867188 29.9375-6.914063 47.777343-13.285156 66.585937-7.230469 21.347656-14.710938 43.421875-14.710938 83.242187 0 34.003907 5.429688 54.890626 11.265625 72.925782-8.292969 17.316406-11.324219 35.703125-8.800781 52.390625-21.417969 2.527343-37.523438 6.453125-47.957032 11.699219-3.355468 1.40625-6.371093 3.425781-8.960937 6.007812-.222656.203125-.4375.398438-.652344.605469-.3125.296875-.597656.621093-.851562.964843-1.394531 1.621094-2.574219 3.378907-3.535157 5.226563h-201.179687c.867187-29.9375 6.910156-47.78125 13.285156-66.585937 7.230469-21.34375 14.710938-43.414063 14.710938-83.234376 0-13.667968-.878907-26.03125-2.6875-37.792968-.632813-4.09375-4.460938-6.90625-8.554688-6.273438-4.09375.628906-6.902343 4.457032-6.273437 8.550782 1.691406 11.003906 2.511718 22.621093 2.511718 35.515624 0 37.347657-6.757812 57.296876-13.917968 78.421876-6.972656 20.582031-14.183594 41.863281-14.183594 78.898437v36.523437c0 4.886719 2.660156 9.382813 6.9375 11.738282 4.097656 2.257812 9.066406 2.207031 13.171875-.144532l16.042969 10.195313c2.1875 1.390625 4.695312 2.089844 7.199218 2.085937 2.503907 0 5.003907-.691406 7.183594-2.082031l16.046875-10.1875 16.027344 10.183594c4.367187 2.78125 10.019531 2.785156 14.378906.003906l16.03125-10.183593 16.019531 10.179687c4.371094 2.785156 10.023438 2.78125 14.382813.007813l16.050781-10.1875 16.023438 10.179687c4.371094 2.78125 10.019531 2.785156 14.382812.003906l16.035156-10.1875 16.027344 10.183594c4.367188 2.78125 10.011719 2.78125 14.371094.003906l2.574219-1.632812c.726562.949219 1.523437 1.855469 2.382812 2.71875 7.03125 7.019531 17.191407 9.746093 26.660157 7.375 1.410156 5.3125 4.367187 10.132812 8.542968 13.824219 5.234375 4.636718 11.914063 6.949218 18.59375 6.949218 6.804688 0 13.609375-2.402344 18.878906-7.195312 3.125-2.835938 5.523438-6.277344 7.128907-10.238282 5.1875-10.449218 9.070312-26.46875 11.578125-47.703124 3.820312.582031 7.734375.867187 11.699218.867187 34.601563 0 69.214844-21.496094 88.527344-53.070313.089844-.144531.175782-.292968.253906-.445312 11.976563-19.859375 16.71875-41.890625 13.734376-61.5625 5.855468-.691406 11.367187-1.5 16.460937-2.40625 4.074219-.726562 6.792969-4.625 6.066406-8.703125-.730469-4.074219-4.632812-6.789063-8.703125-6.066406-5.402344.964843-11.328125 1.808593-17.675781 2.519531-3.121094-8.101562-7.808594-15.5-14.101563-21.792969-6.296874-6.296875-13.699218-10.984375-21.808593-14.105469 2.296875-20.613281 5.917969-36.191406 10.550781-45.277343.101562-.199219.195312-.40625.28125-.613281.648438-1.621094 1.628906-3.089844 2.914062-4.359376.132813-.132812.257813-.269531.378907-.40625.011719-.011718.023437-.019531.03125-.027343 4.859375-4.421875 12.519531-4.472657 17.445312-.109375 3.046875 2.695312 4.027344 5.890625 4.308594 8.085937.46875 3.632813 2.542969 6.792969 5.691406 8.667969 3.214844 1.910156 7.066407 2.230469 10.554688.878906 4.839843-1.863281 10.324219-.710937 13.980469 2.949219 3.65625 3.648437 4.8125 9.128906 2.941406 13.960937-1.351563 3.5-1.035156 7.347657.867187 10.554688 1.871094 3.148438 5.023438 5.226562 8.671875 5.707031 2.207032.285157 5.402344 1.265625 8.101563 4.300781 4.351562 4.925782 4.300781 12.585938-.117188 17.445313-1.363281 1.496094-3.027343 2.632813-4.941406 3.382813-3.859375 1.503906-5.769531 5.855468-4.261719 9.714843 1.15625 2.960938 3.988282 4.773438 6.988282 4.773438.90625 0 1.832031-.167969 2.726562-.515625 4.089844-1.597656 7.648438-4.039063 10.582031-7.261719 9.5-10.441406 9.613281-26.902344.25-37.488281zm-477.738281-201.582032 16.039062-10.183593 16.035157 10.179687c4.367187 2.785156 10.019531 2.789063 14.382812.003906l16.03125-10.183593 16.050781 10.195312c4.355469 2.753907 9.980469 2.753907 14.351563-.011719l16.035156-10.1875 16.046875 10.183594c4.367188 2.785156 10.011719 2.785156 14.371094.003906l16.035156-10.183593 16.050782 10.195312c4.355468 2.753907 9.988281 2.753907 14.359374-.011719l16.027344-10.183593 16.046875 10.195312c4.355469 2.75 9.984375 2.753907 14.359375-.011719l16.023438-10.1875 16.015625 10.183594c3.703125 2.355469 8.320312 2.71875 12.3125 1.078125v26.34375h-288.886719v-26.34375c3.988281 1.644531 8.613281 1.285157 12.3125-1.074219zm378.101562 330.527344-.199218.199219c-.023438.019531-.042969.042969-.0625.0625l-54.335938-107.050781c5.882813-2.46875 11.84375-4.226563 17.824219-5.25l49.210937 96.945312c-3.609374 5.371094-7.777343 10.4375-12.4375 15.09375zm-176.285156 64.152344-16.019531-10.179688c-4.371094-2.785156-10.019531-2.785156-14.382813-.007812l-16.035156 10.1875-16.027344-10.179688c-4.367187-2.785156-10.011718-2.785156-14.371093-.007812l-16.054688 10.1875-16.027343-10.179688c-4.367188-2.78125-10.015626-2.785156-14.375-.007812l-16.035157 10.1875-16.023437-10.179688c-4.371094-2.785156-10.019532-2.785156-14.382813-.007812l-16.042969 10.1875-16.027343-10.179688c-3.6875-2.351562-8.292969-2.71875-12.324219-1.070312v-26.355469h198.179688c.394531 6.035157 2.683593 11.957031 6.882812 16.691407 3.695312 4.175781 8.515625 7.132812 13.828125 8.542968-.808594 3.230469-1.023437 6.539063-.679687 9.777344zm78.398438 18.5625c-.105469.207031-.199219.421875-.285156.640625-.753907 1.925781-1.886719 3.582031-3.382813 4.9375-4.863281 4.425781-12.523437 4.480469-17.445313.121094-2.378906-2.105469-3.910156-4.980469-4.308593-8.097657-.46875-3.628906-2.539063-6.785156-5.6875-8.664062-3.214844-1.914062-7.066407-2.234375-10.582031-.878906-4.820313 1.867187-10.304688.714844-13.957032-2.933594-3.65625-3.664062-4.8125-9.144531-2.941406-13.972656 1.355469-3.507813 1.035156-7.363282-.878906-10.578125-1.878906-3.144531-5.035156-5.21875-8.660156-5.683594-2.207032-.28125-5.402344-1.261719-8.105469-4.316406-2.917969-3.292969-3.855469-7.816407-2.824219-11.910157.070312-.210937.128906-.425781.179688-.640624.542968-1.777344 1.46875-3.457032 2.769531-4.890626l.015625-.015624c.046875-.042969.097656-.085938.148437-.136719.089844-.082031.179688-.167969.265625-.253907 1.261719-1.273437 2.738282-2.257812 4.386719-2.925781.203125-.082031.398437-.171875.59375-.269531 9.046875-4.617188 24.625-8.238281 45.269531-10.550781 3.125 8.109375 7.8125 15.515625 14.105469 21.8125 6.292969 6.289062 13.691406 10.976562 21.789063 14.097656-2.292969 20.5-5.886719 36.023437-10.464844 45.109375zm21.070312-57.332031c-.304687-.109375-.625-.199219-.949218-.269531-7.863282-2.3125-14.980469-6.359376-20.835938-12.214844-5.878906-5.875-9.933594-13.027344-12.242188-20.933594-.058593-.269531-.132812-.53125-.222656-.789062-4.378906-15.898438-1.765625-34.722657 7.289063-52.28125.09375-.164063.179687-.332032.261719-.5 4.449218-8.5 10.40625-16.6875 17.8125-24.09375 5.554687-5.554688 11.550781-10.292969 17.785156-14.191407l55.921875 110.171875c-20.753907 15.136719-45.046875 20.519532-64.820313 15.101563zm101.929688-103.125c.066406.316406.15625.621093.261718.921875 3.820313 13.925781 2.28125 30.097656-4.253906 45.695312l-41.554687-81.871094c3.957031.261719 7.808593.894532 11.503906 1.90625.320313.113282.652344.207032.992187.28125 7.863282 2.308594 14.980469 6.355469 20.832032 12.210938 5.859375 5.855469 9.910156 12.984375 12.21875 20.855469zm0 0"/></svg>
