<svg id="icon" height="512pt" viewBox="0 -56 512 511" width="512pt" xmlns="http://www.w3.org/2000/svg"><path d="m7.5 26.773438v346.503906c0 10.371094 8.40625 18.773437 18.773438 18.773437h331.128906c10.367187 0 18.773437-8.402343 18.773437-18.773437v-346.503906c0-10.371094-8.40625-18.773438-18.773437-18.773438h-331.128906c-10.367188 0-18.773438 8.402344-18.773438 18.773438zm0 0" fill="#f9aa4b"/><path d="m357.402344 8h-24c10.367187 0 18.773437 8.402344 18.773437 18.773438v346.503906c0 10.371094-8.40625 18.773437-18.773437 18.773437h24c10.367187 0 18.773437-8.402343 18.773437-18.773437v-346.503906c-.003906-10.371094-8.40625-18.773438-18.773437-18.773438zm0 0" fill="#c1762b"/><path d="m237.574219 121.410156-20.0625-15.089844c-.710938-.539062-1.695313-.539062-2.40625 0l-22.054688 16.59375c-.710937.539063-1.691406.539063-2.40625 0l-22.070312-16.597656c-.710938-.535156-1.691407-.535156-2.402344 0l-20.070313 15.097656c-1.320312.988282-3.203124.050782-3.203124-1.597656v-111.816406h97.878906v111.8125c0 1.652344-1.886719 2.589844-3.203125 1.597656zm0 0" fill="#ffeb96"/><path d="m51.417969 260.894531v73.050781c0 5.804688 4.703125 10.511719 10.507812 10.511719h111.789063c5.804687 0 10.511718-4.703125 10.511718-10.511719v-73.050781c0-5.804687-4.707031-10.507812-10.511718-10.507812h-111.789063c-5.804687 0-10.507812 4.703125-10.507812 10.507812zm0 0" fill="#f0f0f2"/><path d="m484.960938 77.21875h-191.414063c-10.792969 0-19.539063 8.75-19.539063 19.539062v130.328126c0 10.789062 8.746094 19.539062 19.539063 19.539062h9.179687c4.453126 0 8.0625 3.609375 8.0625 8.0625v28.140625c0 3.617187 4.597657 5.164063 6.785157 2.28125l26.808593-35.296875c1.527344-2.007812 3.902344-3.1875 6.425782-3.1875h134.152344c10.792968 0 19.539062-8.75 19.539062-19.539062v-130.328126c0-10.789062-8.746094-19.539062-19.539062-19.539062zm0 0" fill="#def6ff"/><path d="m376.171875 270.109375c-4.140625 0-7.5 3.359375-7.5 7.5v95.667969c0 6.214844-5.054687 11.273437-11.273437 11.273437h-331.125c-6.21875 0-11.273438-5.058593-11.273438-11.273437v-220.171875c0-4.140625-3.359375-7.5-7.5-7.5s-7.5 3.359375-7.5 7.5v220.171875c0 14.488281 11.785156 26.273437 26.273438 26.273437h331.125c14.488281 0 26.273437-11.785156 26.273437-26.273437v-95.667969c0-4.140625-3.355469-7.5-7.5-7.5zm0 0"/><path d="m7.5 130.605469c4.140625 0 7.5-3.359375 7.5-7.5v-96.332031c0-6.21875 5.058594-11.273438 11.273438-11.273438h109.125v29.71875c0 4.140625 3.355468 7.5 7.5 7.5 4.140624 0 7.5-3.359375 7.5-7.5v-29.71875h82.875v93.292969l-11.253907-8.46875c-3.363281-2.527344-8.058593-2.527344-11.421875.003906l-18.75 14.109375-18.761718-14.113281c-3.363282-2.527344-8.0625-2.527344-11.421876 0l-11.265624 8.472656v-33.578125c0-4.140625-3.359376-7.5-7.5-7.5-4.144532 0-7.5 3.359375-7.5 7.5v44.597656c0 3.625 2.011718 6.878906 5.253906 8.5 3.246094 1.617188 7.058594 1.269532 9.953125-.910156l16.765625-12.605469 18.769531 14.109375c1.679687 1.265625 3.695313 1.898438 5.707031 1.898438 2.015625 0 4.03125-.632813 5.710938-1.898438l18.75-14.109375 16.753906 12.605469c2.898438 2.179688 6.707031 2.527344 9.953125.910156 3.246094-1.621094 5.257813-4.875 5.257813-8.5v-104.316406h109.125c6.21875 0 11.273437 5.054688 11.273437 11.269531v20.449219c0 4.140625 3.359375 7.5 7.5 7.5 4.144531 0 7.5-3.359375 7.5-7.5v-20.445312c0-14.488282-11.785156-26.273438-26.273437-26.273438h-331.125c-14.488282 0-26.273438 11.785156-26.273438 26.273438v96.332031c0 4.140625 3.359375 7.5 7.5 7.5zm0 0"/><path d="m61.925781 242.886719c-9.929687 0-18.007812 8.078125-18.007812 18.007812v73.050781c0 9.933594 8.078125 18.011719 18.007812 18.011719h111.789063c9.929687 0 18.007812-8.078125 18.007812-18.011719v-73.050781c0-9.929687-8.078125-18.007812-18.007812-18.007812zm114.796875 18.007812v73.050781c0 1.660157-1.347656 3.011719-3.007812 3.011719h-111.789063c-1.660156 0-3.007812-1.351562-3.007812-3.011719v-73.050781c0-1.660156 1.347656-3.007812 3.007812-3.007812h111.789063c1.660156 0 3.007812 1.347656 3.007812 3.007812zm0 0"/><path d="m85.472656 289.152344h21.5625c4.144532 0 7.5-3.359375 7.5-7.5s-3.355468-7.5-7.5-7.5h-21.5625c-4.144531 0-7.5 3.359375-7.5 7.5s3.355469 7.5 7.5 7.5zm0 0"/><path d="m150.171875 305.691406h-64.699219c-4.144531 0-7.5 3.359375-7.5 7.5s3.355469 7.5 7.5 7.5h64.699219c4.140625 0 7.5-3.359375 7.5-7.5s-3.359375-7.5-7.5-7.5zm0 0"/><path d="m331.507812 117.75c-4.144531 0-7.5 3.359375-7.5 7.5v73.339844c0 4.144531 3.355469 7.5 7.5 7.5 4.140626 0 7.5-3.355469 7.5-7.5v-73.339844c0-4.140625-3.359374-7.5-7.5-7.5zm0 0"/><path d="m370.003906 117.75c-4.140625 0-7.5 3.359375-7.5 7.5v73.339844c0 4.144531 3.359375 7.5 7.5 7.5s7.5-3.355469 7.5-7.5v-73.339844c0-4.140625-3.359375-7.5-7.5-7.5zm0 0"/><path d="m389.253906 117.75c-4.144531 0-7.5 3.359375-7.5 7.5v73.339844c0 4.144531 3.355469 7.5 7.5 7.5 4.140625 0 7.5-3.355469 7.5-7.5v-73.339844c0-4.140625-3.359375-7.5-7.5-7.5zm0 0"/><path d="m427.75 117.75c-4.140625 0-7.5 3.359375-7.5 7.5v73.339844c0 4.144531 3.359375 7.5 7.5 7.5 4.144531 0 7.5-3.355469 7.5-7.5v-73.339844c0-4.140625-3.355469-7.5-7.5-7.5zm0 0"/><path d="m454.5 198.589844v-73.339844c0-4.140625-3.359375-7.5-7.5-7.5s-7.5 3.359375-7.5 7.5v73.339844c0 4.144531 3.359375 7.5 7.5 7.5s7.5-3.355469 7.5-7.5zm0 0"/><path d="m476.074219 94.695312h-16.71875c-4.140625 0-7.5 3.359376-7.5 7.5 0 4.144532 3.359375 7.5 7.5 7.5h9.21875v9.21875c0 4.144532 3.359375 7.5 7.5 7.5 4.144531 0 7.5-3.355468 7.5-7.5v-16.71875c0-4.140624-3.355469-7.5-7.5-7.5zm0 0"/><path d="m476.074219 197.425781c-4.140625 0-7.5 3.359375-7.5 7.5v9.21875h-9.21875c-4.140625 0-7.5 3.359375-7.5 7.5s3.359375 7.5 7.5 7.5h16.71875c4.144531 0 7.5-3.359375 7.5-7.5v-16.71875c0-4.140625-3.355469-7.5-7.5-7.5zm0 0"/><path d="m302.433594 126.414062c4.140625 0 7.5-3.355468 7.5-7.5v-9.21875h9.214844c4.140624 0 7.5-3.355468 7.5-7.5 0-4.140624-3.359376-7.5-7.5-7.5h-16.714844c-4.144532 0-7.5 3.359376-7.5 7.5v16.71875c0 4.144532 3.355468 7.5 7.5 7.5zm0 0"/><path d="m319.148438 214.144531h-9.214844v-9.214843c0-4.144532-3.359375-7.5-7.5-7.5-4.144532 0-7.5 3.355468-7.5 7.5v16.714843c0 4.140625 3.355468 7.5 7.5 7.5h16.714844c4.140624 0 7.5-3.359375 7.5-7.5s-3.359376-7.5-7.5-7.5zm0 0"/><path d="m484.960938 69.71875h-191.414063c-14.910156 0-27.039063 12.128906-27.039063 27.039062v130.324219c0 14.910157 12.128907 27.039063 27.039063 27.039063h9.179687c.308594 0 .5625.253906.5625.566406v28.136719c0 4.847656 3.085938 9.140625 7.679688 10.6875 1.183594.398437 2.398438.59375 3.601562.59375 3.457032 0 6.800782-1.59375 8.976563-4.460938l26.808594-35.296875c.109375-.140625.277343-.226562.453125-.226562h134.152344c14.910156 0 27.039062-12.128906 27.039062-27.039063v-130.324219c0-14.910156-12.128906-27.039062-27.039062-27.039062zm12.039062 157.367188c0 6.636718-5.402344 12.039062-12.039062 12.039062h-134.152344c-4.835938 0-9.472656 2.296875-12.398438 6.148438l-20.121094 26.492187v-17.078125c0-8.582031-6.980468-15.5625-15.5625-15.5625h-9.179687c-6.640625 0-12.039063-5.402344-12.039063-12.039062v-130.328126c0-6.640624 5.398438-12.039062 12.039063-12.039062h191.414063c6.636718 0 12.039062 5.398438 12.039062 12.039062zm0 0"/></svg>
