<svg id="icon" height="512pt" viewBox="-2 0 512 512.001" width="512pt" xmlns="http://www.w3.org/2000/svg"><path d="m15.679688 102.527344h54.785156v-79.242188c0-9.96875-7.972656-15.785156-15.960938-15.785156-5.726562 0-11.453125 2.972656-14.296875 9.53125l-32.027343 74.082031c-2.332032 5.394531 1.621093 11.414063 7.5 11.414063zm0 0" fill="#c5c4cc"/><path d="m397.957031 7.5c7.988281 0 15.960938 5.816406 15.960938 15.785156v477.277344c0 1.878906-2.105469 2.996094-3.660157 1.941406l-37.960937-25.773437c-.792969-.539063-1.835937-.539063-2.632813 0l-40.304687 27.363281c-.796875.539062-1.839844.539062-2.632813 0l-40.300781-27.363281c-.792969-.539063-1.839843-.539063-2.632812 0l-40.300781 27.363281c-.792969.539062-1.839844.539062-2.632813 0l-40.296875-27.359375c-.796875-.542969-1.839844-.542969-2.636719 0l-40.296875 27.359375c-.792968.539062-1.835937.539062-2.632812 0l-40.292969-27.359375c-.792969-.542969-1.835937-.542969-2.632813 0l-37.945312 25.765625c-1.558594 1.058594-3.660156-.058594-3.660156-1.9375v-477.277344c0-9.96875-7.972656-15.785156-15.960938-15.785156zm0 0" fill="#e9e9ea"/><path d="m397.957031 7.5h-24.066406c7.988281 0 15.960937 5.816406 15.960937 15.785156v465.363282l20.40625 13.851562c1.558594 1.058594 3.660157-.058594 3.660157-1.9375v-477.277344c0-9.96875-7.972657-15.785156-15.960938-15.785156zm0 0" fill="#c5c4cc"/><path d="m242.871094 289.058594v153.613281c0 5.972656 4.839844 10.8125 10.808594 10.8125h235.277343c5.972657 0 10.8125-4.839844 10.8125-10.8125v-153.613281c0-5.96875-4.839843-10.808594-10.8125-10.808594h-235.277343c-5.96875 0-10.808594 4.839844-10.808594 10.808594zm0 0" fill="#ffcd34"/><path d="m488.957031 278.25h-23.601562c5.96875 0 10.808593 4.839844 10.808593 10.808594v153.613281c0 5.972656-4.839843 10.8125-10.808593 10.8125h23.601562c5.972657 0 10.8125-4.839844 10.8125-10.8125v-153.613281c0-5.96875-4.839843-10.808594-10.8125-10.808594zm0 0" fill="#e69012"/><path d="m242.871094 388.078125h256.898437v31.496094h-256.898437zm0 0" fill="#575b7a"/><path d="m476.164062 388.078125h23.605469v31.496094h-23.605469zm0 0" fill="#252d4c"/><path d="m70.460938 159.238281c4.144531 0 7.5-3.359375 7.5-7.5v-128.453125c0-.09375 0-.183594 0-.277344-.03125-2.914062-.542969-5.589843-1.429688-8.007812h321.429688c3.398437 0 8.457031 2.207031 8.457031 8.285156v224.023438c0 4.140625 3.359375 7.5 7.5 7.5 4.144531 0 7.5-3.359375 7.5-7.5v-224.023438c0-11.445312-8.773438-23.285156-23.457031-23.285156h-343.457032c-9.3125 0-17.425781 5.382812-21.183594 14.054688l-32.027343 74.082031c-2.101563 4.859375-1.617188 10.402343 1.289062 14.828125 2.90625 4.421875 7.800781 7.0625 13.09375 7.0625h47.285157v41.710937c0 4.140625 3.359374 7.5 7.5 7.5zm-54.785157-64.210937c-.105469 0-.359375 0-.558593-.300782-.199219-.304687-.101563-.535156-.058594-.636718l32.027344-74.078125c1.890624-4.359375 5.460937-5.011719 7.417968-5.011719 3.398438 0 8.457032 2.207031 8.457032 8.285156v71.742188zm0 0"/><path d="m347.714844 159.796875h-211.046875c-4.144531 0-7.5 3.355469-7.5 7.5 0 4.140625 3.355469 7.5 7.5 7.5h211.046875c4.144531 0 7.5-3.359375 7.5-7.5 0-4.144531-3.355469-7.5-7.5-7.5zm0 0"/><path d="m347.714844 239.054688h-211.046875c-4.144531 0-7.5 3.359374-7.5 7.5 0 4.144531 3.355469 7.5 7.5 7.5h211.046875c4.144531 0 7.5-3.355469 7.5-7.5 0-4.140626-3.355469-7.5-7.5-7.5zm0 0"/><path d="m499.769531 325.976562c4.144531 0 7.5-3.359374 7.5-7.5v-29.417968c0-10.09375-8.214843-18.308594-18.308593-18.308594h-235.28125c-10.09375 0-18.308594 8.214844-18.308594 18.308594v29.261718h-98.707032c-4.144531 0-7.5 3.355469-7.5 7.5 0 4.140626 3.355469 7.5 7.5 7.5h98.707032v64.257813h-98.707032c-4.144531 0-7.5 3.359375-7.5 7.5s3.355469 7.5 7.5 7.5h98.707032v30.097656c0 10.09375 8.214844 18.308594 18.308594 18.308594h152.746093v29.851563l-29.898437-20.296876c-3.347656-2.289062-7.6875-2.300781-11.078125-.015624l-37.402344 25.40625-37.390625-25.394532c-3.316406-2.265625-7.777344-2.265625-11.074219-.011718l-37.402343 25.402343-37.417969-25.414062c-3.351563-2.261719-7.683594-2.261719-11.050781.011719l-37.394532 25.394531-37.378906-25.382813c-3.316406-2.265625-7.777344-2.269531-11.074219-.011718l-29.898437 20.300781v-308.144531c0-4.140626-3.355469-7.5-7.5-7.5-4.140625 0-7.5 3.359374-7.5 7.5v317.878906c0 3.660156 2.007812 6.992187 5.238281 8.703125 3.230469 1.710937 7.113281 1.496093 10.136719-.558594l35.050781-23.800781 37.40625 25.402344c1.675781 1.128906 3.59375 1.695312 5.511719 1.695312 1.925781 0 3.855468-.566406 5.539062-1.707031l37.398438-25.394531 37.441406 25.429687c3.3125 2.222656 7.609375 2.234375 11.019531-.023437l37.402344-25.402344 37.472656 25.449218c3.316407 2.199219 7.605469 2.199219 10.996094-.046874l37.402344-25.402344 35.058593 23.800781c3.023438 2.054687 6.914063 2.269531 10.148438.558594 3.230469-1.707031 5.234375-5.042969 5.234375-8.703125v-39.574219h67.539063c10.09375 0 18.308593-8.210937 18.308593-18.308594v-93.253906c0-4.144531-3.355469-7.5-7.5-7.5-4.140625 0-7.5 3.355469-7.5 7.5v31.15625h-241.898437v-54.550781c.003906-.070313.003906-.136719.003906-.207032 0-.070312 0-.136718-.003906-.207031v-36.550781c0-1.828125 1.484375-3.3125 3.3125-3.3125h235.277344c1.824218 0 3.308593 1.484375 3.308593 3.3125v29.414062c0 4.140626 3.359375 7.5 7.5 7.5zm-10.808593 120.011719h-235.28125c-1.824219 0-3.308594-1.488281-3.308594-3.3125v-15.601562h241.898437v15.601562c0 1.824219-1.484375 3.3125-3.308593 3.3125zm3.308593-50.410156v16.496094h-241.898437v-16.496094zm0 0"/><path d="m269.449219 344.242188c-4.140625 0-7.5 3.355468-7.5 7.5 0 4.140624 3.359375 7.5 7.5 7.5h14.066406c4.144531 0 7.5-3.359376 7.5-7.5 0-4.144532-3.355469-7.5-7.5-7.5zm0 0"/><path d="m384.324219 344.242188c-4.140625 0-7.5 3.355468-7.5 7.5 0 4.140624 3.359375 7.5 7.5 7.5h14.066406c4.144531 0 7.5-3.359376 7.5-7.5 0-4.144532-3.355469-7.5-7.5-7.5zm0 0"/><path d="m311.652344 344.242188c-4.144532 0-7.5 3.355468-7.5 7.5 0 4.140624 3.355468 7.5 7.5 7.5h35.75c4.144531 0 7.5-3.359376 7.5-7.5 0-4.144532-3.355469-7.5-7.5-7.5zm0 0"/><path d="m133.816406 104.542969c.902344.355469 1.832032.523437 2.746094.523437 2.988281 0 5.816406-1.800781 6.980469-4.753906l3.085937-7.847656h7.496094c4.140625 0 7.5-3.359375 7.5-7.5 0-4.144532-3.359375-7.5-7.5-7.5h-1.589844l2.824219-7.179688h7.492187c4.144532 0 7.5-3.359375 7.5-7.5s-3.355468-7.5-7.5-7.5h-1.589843l.929687-2.351562c1.515625-3.855469-.378906-8.210938-4.230468-9.726563-3.859376-1.519531-8.210938.375-9.726563 4.230469l-3.089844 7.847656h-6.058593l.925781-2.351562c1.519531-3.855469-.375-8.210938-4.230469-9.726563-3.855469-1.519531-8.207031.375-9.726562 4.230469l-3.085938 7.851562h-7.496094c-4.140625 0-7.5 3.355469-7.5 7.5 0 4.140626 3.359375 7.5 7.5 7.5h1.589844l-2.824219 7.175782h-7.496093c-4.140626 0-7.5 3.359375-7.5 7.5 0 4.144531 3.359374 7.5 7.5 7.5h1.589843l-.925781 2.355468c-1.519531 3.851563.375 8.207032 4.230469 9.726563.902343.351563 1.832031.523437 2.746093.523437 2.988282 0 5.816407-1.804687 6.980469-4.757812l3.085938-7.847656h6.058593l-.925781 2.355468c-1.515625 3.851563.378907 8.207032 4.234375 9.722657zm-3.460937-27.078125 2.828125-7.179688h6.058594l-2.824219 7.179688zm0 0"/><path d="m221.324219 83.640625v-19.53125c0-12.519531-10.1875-22.707031-22.707031-22.707031-12.523438 0-22.707032 10.1875-22.707032 22.707031v19.53125c0 12.519531 10.183594 22.707031 22.707032 22.707031 12.519531 0 22.707031-10.1875 22.707031-22.707031zm-30.417969 0v-19.53125c0-4.25 3.457031-7.707031 7.707031-7.707031s7.707031 3.457031 7.707031 7.707031v19.53125c0 4.25-3.457031 7.707031-7.707031 7.707031s-7.707031-3.457031-7.707031-7.707031zm0 0"/><path d="m271.894531 83.640625v-19.53125c0-12.519531-10.1875-22.707031-22.710937-22.707031-12.519532 0-22.707032 10.1875-22.707032 22.707031v19.53125c0 12.519531 10.1875 22.707031 22.707032 22.707031 12.523437 0 22.710937-10.1875 22.710937-22.707031zm-30.417969 0v-19.53125c0-4.25 3.457032-7.707031 7.707032-7.707031s7.710937 3.457031 7.710937 7.707031v19.53125c0 4.25-3.460937 7.707031-7.710937 7.707031s-7.707032-3.457031-7.707032-7.707031zm0 0"/><path d="m296.816406 106.347656c4.144532 0 7.5-3.359375 7.5-7.5v-49.945312c0-4.140625-3.355468-7.5-7.5-7.5h-12.261718c-4.144532 0-7.5 3.359375-7.5 7.5s3.355468 7.5 7.5 7.5h4.761718v42.445312c0 4.140625 3.355469 7.5 7.5 7.5zm0 0"/></svg>
