<svg id="icon" height="512pt" viewBox="-37 0 512 512.001" width="512pt" xmlns="http://www.w3.org/2000/svg"><path d="m158.070312 185.746094c-13.316406 1.609375-25.414062-7.878906-27.023437-21.195313-2.015625-16.675781 8.574219-43.765625 25.179687-64.417969 18.515626-23.023437 42.328126-36.570312 68.863282-39.105468 13.351562-1.285156 25.21875 8.496094 26.503906 21.847656s-8.464844 25.179688-21.847656 26.503906c-33.738282 3.234375-49.445313 42.710938-50.367188 50.492188.945313 12.855468-8.378906 24.3125-21.308594 25.875zm21.199219-27.023438c0 .007813 0 .011719.003907.019532-.003907-.007813-.003907-.011719-.003907-.019532zm0 0" fill="#7fab38"/><path d="m79.828125 159.871094c-.921875-7.777344-16.628906-47.257813-50.367187-50.492188-13.378907-1.324218-23.132813-13.152344-21.847657-26.503906 1.289063-13.351562 13.152344-23.132812 26.507813-21.84375 26.535156 2.53125 50.34375 16.078125 68.859375 39.101562 16.605469 20.652344 27.199219 47.742188 25.183593 64.417969-1.609374 13.316407-13.710937 22.804688-27.027343 21.195313-12.929688-1.5625-22.253907-13.019532-21.308594-25.875zm.109375-1.128906c0-.007813.003906-.011719.003906-.019532-.003906.007813-.003906.011719-.003906.019532zm0 0" fill="#7fab38"/><path d="m147.40625 173.96875c.007812-.042969.019531-.085938.027344-.132812 7.171875-33.917969 7.203125-34.074219 24.164062-114.296876.628906-2.929687.96875-5.960937.96875-9.078124 0-23.726563-19.234375-42.960938-42.960937-42.960938-23.726563 0-42.960938 19.234375-42.960938 42.960938 0 3.117187.339844 6.148437.96875 9.078124 16.957031 80.222657 16.992188 80.378907 24.160157 114.296876.011718.046874.019531.089843.027343.132812.003907.007812.003907.015625.007813.019531 1.734375 8.242188 9.039062 14.429688 17.796875 14.429688 8.753906 0 16.0625-6.1875 17.792969-14.429688h.003906c0-.003906.003906-.011719.003906-.019531zm0 0" fill="#aed559"/><path d="m213.558594 243.789062c1.265625-5.859374 1.945312-11.9375 1.945312-18.179687 0-47.4375-38.457031-85.898437-85.898437-85.898437-47.441407 0-85.898438 38.460937-85.898438 85.898437 0 6.242187.679688 12.320313 1.941407 18.179687 35.332031 165.3125 35.414062 165.710938 49.726562 232.667969 3.1875 15.992188 17.300781 28.042969 34.230469 28.042969 16.929687 0 31.039062-12.050781 34.230469-28.042969 14.308593-66.957031 14.394531-67.355469 49.722656-232.667969zm0 0" fill="#f9aa4b"/><path d="m129.605469 139.714844c-4.671875 0-9.25.382812-13.71875 1.101562 40.914062 6.570313 72.179687 42.027344 72.179687 84.796875 0 6.238281-.683594 12.316407-1.945312 18.179688-35.328125 165.3125-35.414063 165.707031-49.722656 232.664062-2.273438 11.390625-10.089844 20.777344-20.511719 25.238281 4.210937 1.804688 8.847656 2.804688 13.71875 2.804688 16.929687 0 31.039062-12.050781 34.230469-28.042969 14.308593-66.957031 14.394531-67.351562 49.722656-232.664062 1.265625-5.863281 1.945312-11.941407 1.945312-18.179688 0-47.441406-38.457031-85.898437-85.898437-85.898437zm0 0" fill="#c1762b"/><path d="m425.367188 369c3.421874-6.226562 5.375-13.375 5.375-20.984375 0-24.097656-19.535157-43.632813-43.636719-43.632813-60.039063 0-60.039063 0-120.074219 0-24.101562 0-43.636719 19.535157-43.636719 43.632813 0 7.609375 1.953125 14.757813 5.375 20.984375 29.734375 55.890625 29.847657 56.105469 59.726563 112.265625 7.320312 13.816406 21.84375 23.234375 38.570312 23.234375 16.730469 0 31.25-9.417969 38.574219-23.234375 29.878906-56.160156 29.992187-56.375 59.726563-112.265625zm0 0" fill="#ed5176"/><path d="m387.105469 304.382812c-12.039063 0-21.65625 0-29.835938 0 24.101563 0 43.636719 19.535157 43.636719 43.632813 0 7.609375-1.953125 14.757813-5.375 20.984375-29.734375 55.890625-29.847656 56.105469-59.726562 112.265625-5.027344 9.488281-13.453126 16.902344-23.65625 20.617187 4.65625 1.691407 9.679687 2.621094 14.917968 2.621094 16.730469 0 31.25-9.417968 38.574219-23.238281 29.878906-56.15625 29.992187-56.375 59.726563-112.261719 3.421874-6.230468 5.375-13.378906 5.375-20.984375 0-24.101562-19.535157-43.636719-43.636719-43.636719zm0 0" fill="#ba365f"/><path d="m377.886719 303.316406c3.378906-2.902344 6.382812-6.355468 8.855469-10.339844 3.417968-5.5 5.488281-11.460937 6.308593-17.488281.09375-.6875-.183593-1.386719-.730469-1.816406-1.324218-1.050781-2.71875-2.039063-4.1875-2.953125-20.738281-12.878906-47.917968-6.679688-61.066406 13.785156-13.144531-20.464844-40.324218-26.664062-61.0625-13.785156-1.46875.914062-2.863281 1.902344-4.1875 2.953125-.546875.433594-.824218 1.128906-.730468 1.816406.820312 6.027344 2.890624 11.988281 6.308593 17.488281 2.476563 3.984376 5.476563 7.441407 8.855469 10.339844-10.769531 10.0625-17.117188 24.28125-17.152344 39.28125-.003906.910156.628906 1.714844 1.515625 1.925782 8.734375 2.09375 18.113281 2.03125 27.363281-.617188 4.609376-1.320312 8.898438-3.203125 12.828126-5.550781 3.847656 14.300781 12.992187 26.429687 25.199218 34.152343.644532.40625 1.480469.40625 2.128906 0 12.207032-7.722656 21.351563-19.851562 25.195313-34.152343 3.929687 2.347656 8.222656 4.230469 12.832031 5.550781 9.25 2.648438 18.628906 2.710938 27.363282.617188.886718-.210938 1.515624-1.015626 1.515624-1.925782-.035156-15-6.382812-29.21875-17.152343-39.28125zm0 0" fill="#aed559"/><path d="m214.292969 276.246094 6.597656-30.875c1.402344-6.503906 2.113281-13.152344 2.113281-19.761719 0-28.902344-13.195312-54.78125-33.878906-71.925781 1.691406-4.113282 4.257812-9.179688 7.648438-14.164063 2.332031-3.425781 1.441406-8.089843-1.984376-10.421875-3.421874-2.328125-8.089843-1.441406-10.417968 1.984375-3.449219 5.074219-5.984375 9.882813-7.78125 13.828125-4.4375-2.589844-9.105469-4.828125-13.964844-6.671875 2.140625-10.117187 4.847656-22.933593 9.359375-44.261719 8.011719-7.683593 16.8125-13.753906 26.1875-18.050781 8.753906-4.015625 18.050781-6.515625 27.644531-7.429687 4.457032-.429688 8.824219.902344 12.285156 3.75 3.457032 2.851562 5.597657 6.878906 6.027344 11.34375.886719 9.1875-5.894531 17.410156-15.082031 18.324218-6.914063.65625-13.617187 2.6875-19.914063 6.03125-3.660156 1.945313-5.046874 6.488282-3.101562 10.144532 1.347656 2.535156 3.941406 3.980468 6.628906 3.980468 1.1875 0 2.390625-.28125 3.511719-.878906 4.546875-2.414062 9.351563-3.878906 14.324219-4.347656 17.429687-1.734375 30.242187-17.296875 28.5625-34.691406-.8125-8.449219-4.867188-16.082032-11.421875-21.480469-6.550781-5.398437-14.808594-7.921875-23.253907-7.105469-11.257812 1.070313-22.183593 4.007813-32.464843 8.726563-5.179688 2.375-10.195313 5.199219-15.023438 8.464843l2.042969-9.664062c.746094-3.519531 1.125-7.097656 1.125-10.632812 0-27.824219-22.636719-50.460938-50.460938-50.460938-27.824218 0-50.460937 22.636719-50.460937 50.460938 0 3.5625.382813 7.144531 1.132813 10.632812.710937 3.367188 1.394531 6.59375 2.050781 9.6875-14.410157-9.722656-30.523438-15.601562-47.480469-17.214844-8.449219-.824218-16.714844 1.707032-23.265625 7.105469-6.554687 5.398437-10.613281 13.023437-11.433594 21.480469-1.664062 17.398437 11.152344 32.957031 28.605469 34.691406 22.558594 2.160156 36.144531 24.203125 41.34375 36.835938-20.6875 17.144531-33.886719 43.023437-33.886719 71.929687 0 4.578125.34375 9.203125 1.019531 13.75.613282 4.101563 4.425782 6.921875 8.523438 6.316406 4.097656-.609375 6.925781-4.425781 6.3125-8.523437-.566406-3.816406-.855469-7.703125-.855469-11.542969 0-43.230469 35.171875-78.398437 78.398438-78.398437 43.230469 0 78.398437 35.167968 78.398437 78.398437 0 5.542969-.597656 11.128906-1.777344 16.609375l-5.359374 25.082031h-45.210938c-4.140625 0-7.5 3.355469-7.5 7.5 0 4.140625 3.359375 7.5 7.5 7.5h42.003906l-26.929687 126h-46.109375c-4.140625 0-7.5 3.355469-7.5 7.5 0 4.140625 3.359375 7.5 7.5 7.5h42.90625l-11.027344 51.585938c-.003906.03125-.011719.066406-.019531.101562-2.542969 12.753907-13.847657 22.011719-26.875 22.011719-13.027344 0-24.332031-9.257812-26.875-22.011719-.007813-.03125-.015625-.066406-.019531-.097656l-25.105469-117.464844h33.515625c4.140625 0 7.5-3.355469 7.5-7.5s-3.359375-7.5-7.5-7.5h-36.71875l-16.1875-75.730469c-.863282-4.050781-4.855469-6.640624-8.902344-5.769531-4.050781.867188-6.632812 4.851563-5.765625 8.902344l44.484375 208.144531c3.957031 19.722656 21.433594 34.027344 41.574219 34.027344s37.617187-14.304688 41.574219-34.023438l43.054687-201.453124c.019531-.089844.039063-.183594.058594-.277344zm-184.089844-174.328125c-9.21875-.917969-16.003906-9.140625-15.125-18.324219.429687-4.464844 2.574219-8.492188 6.035156-11.34375 3.460938-2.851562 7.824219-4.183594 12.296875-3.753906 19.847656 1.890625 38.414063 10.695312 53.820313 25.5 4.507812 21.320312 7.210937 34.132812 9.347656 44.246094-4.84375 1.839843-9.5 4.066406-13.921875 6.652343-7.828125-17.230469-25.039062-40.355469-52.453125-42.976562zm80.828125 32.152343c-17.289062-81.878906-16.890625-78.234374-16.890625-83.609374 0-19.554688 15.910156-35.460938 35.460937-35.460938 19.554688 0 35.460938 15.90625 35.460938 35.460938 0 5.007812-.261719 4.992187-7.234375 37.957031-.035156.152343-.066406.300781-.097656.453125-4.601563 21.773437-7.382813 34.921875-9.554688 45.195312-6.003906-1.214844-12.210937-1.851562-18.570312-1.851562s-12.570313.636718-18.574219 1.855468zm0 0"/><path d="m392.941406 297.210938c.058594-.09375.117188-.183594.175782-.277344 3.894531-6.277344 6.375-13.152344 7.367187-20.433594.449219-3.300781-.894531-6.636719-3.5-8.703125-1.574219-1.25-3.222656-2.410156-4.894531-3.449219-3.832032-2.378906-7.941406-4.25-12.210938-5.5625-3.957031-1.21875-8.15625 1.007813-9.371094 4.96875-1.214843 3.957032 1.007813 8.152344 4.96875 9.367188 3.039063.9375 5.964844 2.269531 8.699219 3.96875.292969.179687.582031.367187.871094.558594-.90625 4.007812-2.472656 7.824218-4.675781 11.375-2.011719 3.238281-4.492188 6.132812-7.367188 8.601562-1.617187 1.386719-2.570312 3.398438-2.613281 5.53125-.046875 2.132812.820313 4.183594 2.375 5.640625 8.242187 7.699219 13.402344 18.179687 14.539063 29.273437-6.351563.871094-12.867188.40625-19.078126-1.375-3.886718-1.109374-7.601562-2.71875-11.050781-4.777343-2.019531-1.203125-4.484375-1.394531-6.660156-.511719-2.179687.878906-3.816406 2.734375-4.429687 5.003906-3.003907 11.183594-9.703126 20.917969-19.019532 27.75-9.3125-6.835937-16.011718-16.570312-19.015625-27.75-.613281-2.269531-2.25-4.125-4.429687-5.003906-2.179688-.882812-4.640625-.691406-6.660156.511719-3.445313 2.058593-7.164063 3.667969-11.050782 4.777343-6.210937 1.78125-12.726562 2.246094-19.074218 1.375 1.132812-11.097656 6.292968-21.574218 14.535156-29.273437 1.554687-1.457031 2.421875-3.507813 2.375-5.640625-.042969-2.132812-.996094-4.144531-2.613282-5.53125-2.875-2.46875-5.355468-5.363281-7.367187-8.601562-2.203125-3.550782-3.769531-7.367188-4.675781-11.375.289062-.191407.578125-.378907.867187-.558594 17.121094-10.632813 39.910157-5.484375 50.800781 11.46875 1.378907 2.148437 3.757813 3.449218 6.308594 3.449218 2.554688 0 4.933594-1.300781 6.3125-3.449218 4.050782-6.308594 9.832032-11.183594 16.714844-14.101563 3.8125-1.613281 5.59375-6.015625 3.980469-9.828125-1.617188-3.816406-6.019531-5.601562-9.832031-3.980468-6.523438 2.761718-12.34375 6.777343-17.183594 11.816406-16.6875-17.257813-43.914063-21.21875-65.015625-8.117188-5.070313 3.152344-9.199219 6.210938-8.390625 12.152344.992187 7.28125 3.472656 14.15625 7.367187 20.433594.058594.09375.117188.1875.175781.277344-25.460937 2.90625-45.304687 24.585937-45.304687 50.808593 0 8.574219 2.171875 17.0625 6.28125 24.550781l11.265625 21.191407c1.351562 2.535156 3.945312 3.980469 6.628906 3.980469 1.191406 0 2.394532-.28125 3.515625-.878907 3.660157-1.945312 5.046875-6.484375 3.101563-10.144531l-11.289063-21.238281c-.015625-.03125-.035156-.0625-.050781-.097657-2.914062-5.289062-4.453125-11.292968-4.453125-17.363281 0-17.34375 12.28125-31.875 28.605469-35.347656-5.089844 9.070313-7.871094 19.378906-7.898438 29.910156-.011718 4.410157 2.980469 8.207031 7.269532 9.234375 10.230468 2.453125 21.015624 2.210938 31.175781-.699218 2.199219-.632813 4.359375-1.382813 6.46875-2.25 5.195312 12.28125 14.027343 22.730468 25.492187 29.980468 1.535156.972656 3.300782 1.457032 5.0625 1.457032 1.765625 0 3.53125-.488282 5.074219-1.460938 11.457031-7.246094 20.289063-17.695312 25.484375-29.976562 2.109375.867187 4.269531 1.617187 6.472656 2.246093 10.164063 2.914063 20.941406 3.152344 31.175782.703125 4.289062-1.027344 7.277343-4.824218 7.269531-9.238281-.027344-10.527344-2.808594-20.835937-7.902344-29.90625 16.320313 3.472656 28.601563 18.003906 28.601563 35.347656 0 6.070313-1.535157 12.074219-4.492188 17.457031l-59.734375 112.273438c-6.289063 11.875-18.53125 19.25-31.941406 19.25-13.414063 0-25.65625-7.378906-31.960938-19.261719l-33.769531-63.472656c-1.949219-3.65625-6.488281-5.042969-10.144531-3.097656-3.65625 1.945312-5.042969 6.488281-3.097657 10.144531l33.765626 63.460938c8.90625 16.792968 26.226562 27.226562 45.207031 27.226562s36.300781-10.433594 45.1875-27.214844l59.683593-112.175781c4.121094-7.5 6.296876-16.003906 6.296876-24.589844 0-26.226562-19.84375-47.90625-45.300782-50.808593zm0 0"/><path d="m358.441406 414.46875c4.144532 0 7.5-3.359375 7.5-7.5v-5.320312c0-4.140626-3.355468-7.5-7.5-7.5-4.140625 0-7.5 3.359374-7.5 7.5v5.320312c0 4.140625 3.359375 7.5 7.5 7.5zm0 0"/><path d="m303.195312 406.96875v-5.320312c0-4.140626-3.355468-7.5-7.5-7.5-4.144531 0-7.5 3.359374-7.5 7.5v5.320312c0 4.140625 3.355469 7.5 7.5 7.5 4.144532 0 7.5-3.359375 7.5-7.5zm0 0"/><path d="m334.570312 442.195312v-5.316406c0-4.144531-3.359374-7.5-7.5-7.5-4.144531 0-7.5 3.355469-7.5 7.5v5.316406c0 4.144532 3.355469 7.5 7.5 7.5 4.140626 0 7.5-3.355468 7.5-7.5zm0 0"/></svg>
