<svg id="icon" height="511pt" viewBox="1 -28 511.999 511" width="511pt" xmlns="http://www.w3.org/2000/svg"><path d="m7.5 26.703125v345.214844c0 10.328125 8.371094 18.703125 18.703125 18.703125h329.890625c10.332031 0 18.703125-8.375 18.703125-18.703125v-345.214844c0-10.328125-8.371094-18.703125-18.703125-18.703125h-329.890625c-10.332031 0-18.703125 8.371094-18.703125 18.703125zm0 0" fill="#f9aa4b"/><path d="m356.09375 8h-25.203125c10.332031 0 18.703125 8.371094 18.703125 18.703125v345.214844c0 10.328125-8.371094 18.703125-18.703125 18.703125h25.203125c10.332031 0 18.703125-8.375 18.703125-18.703125v-345.214844c0-10.332031-8.371094-18.703125-18.703125-18.703125zm0 0" fill="#c1762b"/><path d="m236.714844 120.988281-19.988282-15.035156c-.707031-.535156-1.6875-.535156-2.394531 0l-21.972656 16.535156c-.707031.535157-1.683594.535157-2.394531 0l-21.988282-16.535156c-.710937-.535156-1.6875-.535156-2.398437 0l-19.996094 15.039063c-1.3125.984374-3.1875.050781-3.1875-1.59375v-111.398438h97.511719v111.398438c0 1.640624-1.878906 2.578124-3.191406 1.589843zm0 0" fill="#ffeb96"/><path d="m51.253906 259.953125v72.78125c0 5.78125 4.6875 10.46875 10.46875 10.46875h111.371094c5.78125 0 10.46875-4.6875 10.46875-10.46875v-72.78125c0-5.785156-4.6875-10.46875-10.46875-10.46875h-111.371094c-5.78125-.003906-10.46875 4.683594-10.46875 10.46875zm0 0" fill="#f0f0f2"/><path d="m374.796875 447.609375c-10.75 0-21.066406-3.972656-29.042969-11.183594l-86.394531-78.097656c-9.066406-8.195313-14.265625-19.90625-14.265625-32.125v-116.023437c0-17.152344 10.140625-32.707032 25.835938-39.628907l86.394531-38.089843c5.542969-2.441407 11.417969-3.679688 17.472656-3.679688 6.050781 0 11.929687 1.238281 17.46875 3.679688l86.394531 38.089843c15.699219 6.921875 25.839844 22.476563 25.839844 39.628907v116.023437c0 12.21875-5.199219 23.929687-14.265625 32.125l-86.394531 78.097656c-7.976563 7.210938-18.289063 11.183594-29.042969 11.183594zm0 0" fill="#8cbafa"/><path d="m474.007812 340.378906-86.394531 78.097656c-7.277343 6.578126-18.355469 6.578126-25.632812 0l-86.390625-78.097656c-4.007813-3.625-6.296875-8.773437-6.296875-14.175781v-116.023437c0-7.570313 4.472656-14.429688 11.402343-17.484376l86.394532-38.09375c4.910156-2.164062 10.507812-2.164062 15.417968 0l86.394532 38.09375c6.925781 3.054688 11.398437 9.914063 11.398437 17.484376v116.023437c0 5.402344-2.285156 10.550781-6.292969 14.175781zm0 0" fill="#c9ea6e"/><path d="m468.902344 192.695312-86.394532-38.09375c-4.910156-2.164062-10.507812-2.164062-15.417968 0l-4.390625 1.9375 82.003906 36.15625c6.929687 3.054688 11.402344 9.914063 11.402344 17.484376v116.023437c0 5.402344-2.289063 10.550781-6.296875 14.175781l-86.394532 78.097656c-.230468.207032-.476562.390626-.714843.589844 7.273437 5.960938 17.867187 5.777344 24.914062-.589844l86.394531-78.097656c4.007813-3.625 6.292969-8.773437 6.292969-14.175781v-116.023437c0-7.570313-4.472656-14.429688-11.398437-17.484376zm0 0" fill="#aed559"/><path d="m406.660156 259.667969c0-17.597657-14.265625-31.863281-31.863281-31.863281s-31.859375 14.265624-31.859375 31.863281c0 12.636719 7.359375 23.558593 18.027344 28.707031l-1.929688 45.304688c-.15625 3.648437 2.761719 6.6875 6.410156 6.6875h18.707032c3.648437 0 6.566406-3.039063 6.410156-6.6875l-1.929688-45.304688c10.667969-5.148438 18.027344-16.070312 18.027344-28.707031zm0 0" fill="#575b7a"/><path d="m173.09375 350.703125c9.910156 0 17.972656-8.0625 17.972656-17.972656v-72.777344c0-9.910156-8.0625-17.972656-17.972656-17.972656h-111.371094c-9.90625 0-17.96875 8.0625-17.96875 17.972656v72.777344c0 9.910156 8.0625 17.972656 17.96875 17.972656zm-114.339844-17.972656v-72.777344c0-1.636719 1.332032-2.972656 2.96875-2.972656h111.371094c1.636719 0 2.96875 1.335937 2.96875 2.972656v72.777344c0 1.640625-1.332031 2.972656-2.96875 2.972656h-111.371094c-1.636718 0-2.96875-1.335937-2.96875-2.972656zm0 0"/><path d="m85.179688 288.132812h21.484374c4.144532 0 7.5-3.359374 7.5-7.5 0-4.144531-3.355468-7.5-7.5-7.5h-21.484374c-4.140626 0-7.5 3.355469-7.5 7.5 0 4.140626 3.359374 7.5 7.5 7.5zm0 0"/><path d="m85.179688 319.550781h64.457031c4.144531 0 7.5-3.355469 7.5-7.5 0-4.140625-3.355469-7.5-7.5-7.5h-64.457031c-4.140626 0-7.5 3.359375-7.5 7.5 0 4.144531 3.359374 7.5 7.5 7.5zm0 0"/><path d="m481.6875 163.691406-86.394531-38.09375c-4.183594-1.84375-8.53125-3.101562-12.992188-3.765625v-95.128906c0-14.445313-11.757812-26.199219-26.210937-26.199219h-115.953125c-.078125-.003906-.152344-.003906-.230469-.003906h-97.511719c-.078125 0-.15625 0-.234375.003906h-115.960937c-14.445313 0-26.199219 11.753906-26.199219 26.199219v90.910156c0 4.140625 3.359375 7.5 7.5 7.5s7.5-3.359375 7.5-7.5v-90.910156c0-6.175781 5.023438-11.199219 11.199219-11.199219h108.691406v30.550782c0 4.140624 3.359375 7.5 7.5 7.5 4.144531 0 7.5-3.359376 7.5-7.5v-30.550782h82.511719v92.855469l-11.167969-8.402344c-3.359375-2.523437-8.050781-2.523437-11.414063.003907l-18.660156 14.042968-18.679687-14.046875c-3.359375-2.527343-8.050781-2.523437-11.410157 0l-11.179687 8.40625v-32.308593c0-4.144532-3.355469-7.5-7.5-7.5-4.140625 0-7.5 3.355468-7.5 7.5v43.34375c0 3.621093 2.015625 6.875 5.253906 8.492187 3.242188 1.617187 7.050781 1.269531 9.945313-.90625l16.6875-12.550781 18.675781 14.046875c1.679687 1.265625 3.695313 1.898437 5.707031 1.898437 2.015625 0 4.027344-.632812 5.707032-1.898437l18.664062-14.042969 16.671875 12.546875c2.898437 2.175781 6.707031 2.523437 9.949219.90625 3.238281-1.617187 5.253906-4.871094 5.253906-8.492187v-103.894532h108.683594c6.179687 0 11.210937 5.023438 11.210937 11.199219v95.128906c-4.464843.660157-8.816406 1.921875-13 3.765625l-86.394531 38.09375c-18.414062 8.117188-30.3125 26.363282-30.3125 46.488282v116.023437c0 14.335937 6.101562 28.074219 16.738281 37.6875l21.261719 19.222656h-249.394531c-6.175781 0-11.199219-5.023437-11.199219-11.199219v-224.300781c0-4.144531-3.359375-7.5-7.5-7.5s-7.5 3.355469-7.5 7.5v224.300781c0 14.445313 11.753906 26.199219 26.199219 26.199219h265.988281l48.539062 43.875c9.355469 8.460938 21.457032 13.117188 34.070313 13.117188s24.714844-4.65625 34.070313-13.117188l86.394531-78.097656c10.636719-9.613281 16.738281-23.351563 16.738281-37.6875v-116.023437c0-20.125-11.898438-38.371094-30.3125-46.488282zm15.3125 162.511719c0 10.101563-4.300781 19.785156-11.796875 26.5625l-86.394531 78.097656c-6.59375 5.960938-15.121094 9.242188-24.011719 9.242188s-17.417969-3.28125-24.011719-9.242188l-86.394531-78.097656c-7.496094-6.777344-11.796875-16.460937-11.796875-26.5625v-116.023437c0-14.183594 8.386719-27.042969 21.363281-32.765626l86.390625-38.089843c4.523438-1.992188 9.316406-3.015625 14.253906-3.042969.0625 0 .132813.003906.199219.003906.0625 0 .132813-.003906.195313-.003906 4.933594.027344 9.726562 1.046875 14.242187 3.039062l86.398438 38.09375c12.976562 5.722657 21.363281 18.582032 21.363281 32.765626zm0 0"/><path d="m324.785156 374.742188-44.167968-39.925782c-2.429688-2.199218-3.824219-5.339844-3.824219-8.617187v-116.019531c0-4.597657 2.71875-8.769532 6.925781-10.625l86.394531-38.089844c2.976563-1.3125 6.394531-1.3125 9.367188 0l35.386719 15.601562c3.792968 1.675782 8.21875-.046875 9.890624-3.835937 1.671876-3.789063-.046874-8.21875-3.835937-9.886719l-35.386719-15.605469c-6.824218-3.007812-14.648437-3.007812-21.472656 0l-86.394531 38.09375c-9.644531 4.25-15.875 13.808594-15.875 24.347657v116.023437c0 7.507813 3.195312 14.703125 8.765625 19.738281l44.167968 39.929688c1.4375 1.296875 3.234376 1.9375 5.027344 1.9375 2.046875 0 4.085938-.835938 5.566406-2.472656 2.777344-3.074219 2.539063-7.816407-.535156-10.59375zm0 0"/><path d="m471.925781 185.832031-22.382812-9.871093c-3.789063-1.671876-8.214844.046874-9.886719 3.839843-1.671875 3.789063.046875 8.214844 3.835938 9.886719l22.382812 9.867188c4.207031 1.855468 6.925781 6.027343 6.925781 10.625v116.023437c0 3.273437-1.394531 6.414063-3.824219 8.613281l-86.394531 78.097656c-4.4375 4.011719-11.132812 4.011719-15.574219 0l-19.976562-18.0625c-3.074219-2.78125-7.816406-2.539062-10.59375.53125-2.777344 3.074219-2.539062 7.816407.535156 10.59375l19.976563 18.0625c5.089843 4.597657 11.46875 6.898438 17.847656 6.898438s12.757813-2.300781 17.84375-6.898438l86.394531-78.097656c5.570313-5.035156 8.765625-12.230468 8.765625-19.738281v-116.023437c0-10.539063-6.230469-20.097657-15.875-24.347657zm0 0"/><path d="m414.160156 259.664062c0-21.703124-17.65625-39.359374-39.363281-39.359374-21.703125 0-39.359375 17.65625-39.359375 39.359374 0 13.304688 6.863281 25.75 17.839844 32.957032l-1.734375 40.738281c-.160157 3.769531 1.246093 7.496094 3.855469 10.222656 2.613281 2.722657 6.273437 4.285157 10.046874 4.285157h18.707032c3.773437 0 7.433594-1.5625 10.042968-4.285157 2.613282-2.722656 4.019532-6.449219 3.859376-10.222656l-1.734376-40.738281c10.976563-7.207032 17.839844-19.652344 17.839844-32.957032zm-28.789062 21.957032c-2.695313 1.300781-4.359375 4.082031-4.230469 7.074218l1.878906 44.171876h-16.441406l1.878906-44.171876c.125-2.992187-1.535156-5.773437-4.234375-7.074218-8.375-4.042969-13.785156-12.660156-13.785156-21.957032 0-13.433593 10.925781-24.359374 24.359375-24.359374s24.363281 10.929687 24.363281 24.359374c0 9.296876-5.414062 17.914063-13.789062 21.957032zm0 0"/></svg>
