<svg id="icon" height="511pt" viewBox="0 -11 511.99993 511" width="511pt" xmlns="http://www.w3.org/2000/svg"><path d="m64.125 100.273438v329.542968c0 6.847656 5.550781 12.398438 12.394531 12.398438h358.964844c6.847656 0 12.394531-5.550782 12.394531-12.398438v-329.542968l-191.875-74.960938zm0 0" fill="#8cbafa"/><path d="m256.003906 25.3125-12.742187 4.976562 179.132812 69.984376v329.542968c0 6.847656-5.546875 12.398438-12.394531 12.398438h25.484375c6.847656 0 12.398437-5.550782 12.398437-12.398438v-329.542968zm0 0" fill="#3165a3"/><path d="m144.882812 213.75v228.464844h222.238282v-228.464844c0-8.414062-6.824219-15.238281-15.242188-15.238281h-191.753906c-8.417969 0-15.242188 6.820312-15.242188 15.238281zm0 0" fill="#575b7a"/><path d="m184.332031 198.511719h-24.207031c-8.417969 0-15.242188 6.820312-15.242188 15.238281v228.464844h24.207032v-228.464844c0-8.417969 6.824218-15.238281 15.242187-15.238281zm0 0" fill="#252d4c"/><path d="m487.195312 137.769531c-2.195312 0-4.425781-.417969-6.578124-1.304687l-224.613282-92.445313-224.613281 92.445313c-8.832031 3.632812-18.949219-.578125-22.582031-9.414063-3.636719-8.835937.574218-18.945312 9.414062-22.585937l231.195313-95.152344c4.21875-1.734375 8.953125-1.734375 13.167969 0l231.199218 95.152344c8.835938 3.640625 13.050782 13.75 9.414063 22.585937-2.75 6.679688-9.203125 10.71875-16.003907 10.71875zm0 0" fill="#e9e9ea"/><path d="m351.878906 198.511719h-191.753906c-8.417969 0-15.242188 6.824219-15.242188 15.238281v52.65625h222.238282v-52.65625c0-8.417969-6.824219-15.238281-15.242188-15.238281zm0 0" fill="#e9e9ea"/><path d="m169.089844 213.75c0-8.414062 6.824218-15.238281 15.242187-15.238281h-24.207031c-4.210938 0-8.019531 1.703125-10.777344 4.464843-1.722656 1.722657-3.039062 3.855469-3.777344 6.242188-.148437.476562-.277343.964844-.378906 1.460938-.203125.992187-.308594 2.019531-.308594 3.074218v52.65625h24.207032zm0 0" fill="#c5c4cc"/><path d="m7.5 310.542969v171.34375h172.984375v-171.34375c0-4.890625-3.964844-8.855469-8.855469-8.855469h-155.277344c-4.886718 0-8.851562 3.964844-8.851562 8.855469zm0 0" fill="#f9aa4b"/><path d="m171.628906 301.6875h-22.953125c4.890625 0 8.855469 3.964844 8.855469 8.855469v171.34375h22.953125v-171.34375c0-4.890625-3.964844-8.855469-8.855469-8.855469zm0 0" fill="#c1762b"/><path d="m119.171875 364.128906-11.042969-8.308594c-.394531-.296874-.933594-.296874-1.324218 0l-12.144532 9.136719c-.390625.296875-.929687.296875-1.324218 0l-12.148438-9.136719c-.394531-.296874-.933594-.296874-1.324219 0l-11.050781 8.308594c-.726562.546875-1.765625.027344-1.765625-.878906v-61.5625h53.886719v61.5625c.003906.90625-1.035156 1.425781-1.761719.878906zm0 0" fill="#ffeb96"/><path d="m180.484375 352.050781v129.835938h131.078125v-129.835938c0-3.703125-3.003906-6.707031-6.710938-6.707031h-117.660156c-3.703125 0-6.707031 3.003906-6.707031 6.707031zm0 0" fill="#f9aa4b"/><path d="m304.851562 345.34375h-23.476562c3.703125 0 6.707031 3.003906 6.707031 6.707031v129.835938h23.480469v-129.835938c0-3.703125-3.003906-6.707031-6.710938-6.707031zm0 0" fill="#c1762b"/><path d="m265.105469 392.65625-8.371094-6.296875c-.296875-.222656-.707031-.222656-1.003906 0l-9.199219 6.925781c-.296875.222656-.707031.222656-1.003906 0l-9.207032-6.925781c-.296874-.222656-.707031-.222656-1.003906 0l-8.375 6.296875c-.550781.414062-1.335937.023438-1.335937-.664062v-46.648438h40.835937v46.648438c0 .683593-.789062 1.078124-1.335937.664062zm0 0" fill="#ffeb96"/><path d="m496.640625 97.53125-231.199219-95.152344c-6.085937-2.503906-12.789062-2.503906-18.878906 0l-59.992188 24.691406c-3.828124 1.574219-5.65625 5.957032-4.082031 9.789063 1.578125 3.832031 5.960938 5.65625 9.792969 4.082031l59.992188-24.691406c2.40625-.988281 5.054687-.988281 7.457031 0l231.199219 95.152344c4.996093 2.054687 7.390624 7.796875 5.332031 12.792968-1.519531 3.691407-5.078125 6.074219-9.066407 6.074219-1.277343 0-2.527343-.25-3.726562-.742187l-224.613281-92.441406c-1.828125-.753907-3.878907-.753907-5.707031 0l-224.613282 92.441406c-4.992187 2.058594-10.726562-.3125-12.792968-5.332032-2.058594-4.996093.335937-10.738281 5.332031-12.792968l142.898437-58.8125c3.828125-1.574219 5.65625-5.957032 4.078125-9.789063-1.574219-3.828125-5.957031-5.660156-9.789062-4.082031l-142.894531 58.8125c-12.648438 5.207031-18.699219 19.726562-13.496094 32.371094 5.183594 12.597656 19.625 18.746094 32.371094 13.496094l22.378906-9.207032v136.890625c0 4.140625 3.355468 7.5 7.5 7.5 4.140625 0 7.5-3.359375 7.5-7.5v-143.066406l184.382812-75.882813 184.378906 75.882813v301.804687c0 2.699219-2.195312 4.890626-4.898437 4.890626h-60.859375v-220.960938c0-12.539062-10.203125-22.742188-22.742188-22.742188h-191.761718c-12.539063 0-22.738282 10.203126-22.738282 22.742188v80.4375h-16.410156c-.011718 0-.023437 0-.039062 0h-53.886719c-.011719 0-.023437 0-.039063 0h-50.652343c-9.019531 0-16.355469 7.335938-16.355469 16.355469v171.34375c0 4.144531 3.355469 7.5 7.5 7.5h304.0625c4.144531 0 7.5-3.355469 7.5-7.5v-32.175781h116.421875c10.972656 0 19.898437-8.921876 19.898437-19.890626v-295.628906l22.378907 9.207032c3.015625 1.242187 6.1875 1.871093 9.433593 1.871093 10.09375 0 19.097657-6.03125 22.9375-15.367187 5.207032-12.644532-.847656-27.164063-13.492187-32.371094zm-344.257813 141.09375h207.242188v20.28125h-207.242188zm7.738282-32.617188h191.761718c4.269532 0 7.742188 3.472657 7.742188 7.742188v9.875h-207.242188v-9.875c0-4.269531 3.472657-7.742188 7.738282-7.742188zm-79.597656 142.097657c-1.824219 0-3.648438.574219-5.167969 1.71875l-.808594.605469v-41.242188h38.886719v41.242188l-.796875-.601563c-3.046875-2.292969-7.300781-2.292969-10.34375 0l-8.296875 6.242187-8.300782-6.242187c-1.523437-1.148437-3.347656-1.722656-5.171874-1.722656zm-65.523438-37.5625c0-.746094.605469-1.355469 1.355469-1.355469h43.191406v54.0625c0 3.28125 1.824219 6.230469 4.761719 7.695312 2.933594 1.464844 6.386718 1.152344 9.011718-.820312l7.203126-5.417969 8.308593 6.246094c1.523438 1.144531 3.347657 1.714844 5.167969 1.714844 1.824219 0 3.648438-.570313 5.171875-1.71875l8.296875-6.242188 7.195312 5.417969c2.625 1.972656 6.074219 2.285156 9.011719.820312 2.9375-1.464843 4.761719-4.414062 4.761719-7.695312v-54.058594h16.25.195312.195313 26.554687c.746094 0 1.355469.605469 1.355469 1.351563v163.84375h-157.988281zm289.0625 163.84375h-116.078125v-121.542969h30.121094v39.148438c0 3.175781 1.769531 6.035156 4.609375 7.453124 2.839844 1.421876 6.1875 1.117188 8.734375-.792968l4.367187-3.285156 5.203125 3.914062c1.476563 1.109375 3.242188 1.664062 5.007813 1.664062 1.769531 0 3.535156-.558593 5.011718-1.667968l5.191407-3.90625 4.363281 3.28125c2.539062 1.910156 5.886719 2.214844 8.730469.796875 2.84375-1.421875 4.613281-4.277344 4.613281-7.457031v-39.148438h30.121094v121.542969zm-45.121094-121.542969v26.304688c-2.566406-.871094-5.480468-.464844-7.71875 1.21875l-5.195312 3.910156-5.203125-3.910156c-1.472657-1.109376-3.238281-1.664063-5.007813-1.664063-.914062 0-1.832031.148437-2.710937.449219v-26.308594zm45.910156-15h-38.375c-.011718 0-.023437 0-.039062 0h-40.832031c-.011719 0-.023438 0-.039063 0h-37.582031v-27.300781c0-9.019531-7.335937-16.355469-16.355469-16.355469h-19.246094v-20.28125h207.242188v160.804688h-40.5625v-82.660157c0-7.832031-6.375-14.207031-14.210938-14.207031zm0 0"/><path d="m129 401.953125h-70.015625c-4.144531 0-7.5 3.355469-7.5 7.5 0 4.140625 3.355469 7.5 7.5 7.5h70.015625c4.144531 0 7.5-3.359375 7.5-7.5 0-4.144531-3.355469-7.5-7.5-7.5zm0 0"/><path d="m129 433.453125h-70.015625c-4.144531 0-7.5 3.355469-7.5 7.5 0 4.140625 3.355469 7.5 7.5 7.5h70.015625c4.144531 0 7.5-3.359375 7.5-7.5 0-4.144531-3.355469-7.5-7.5-7.5zm0 0"/><path d="m269.503906 418.246094h-46.960937c-4.144531 0-7.5 3.359375-7.5 7.5 0 4.144531 3.355469 7.5 7.5 7.5h46.960937c4.140625 0 7.5-3.355469 7.5-7.5 0-4.140625-3.359375-7.5-7.5-7.5zm0 0"/><path d="m269.503906 439.375h-46.960937c-4.144531 0-7.5 3.355469-7.5 7.5 0 4.140625 3.355469 7.5 7.5 7.5h46.960937c4.140625 0 7.5-3.359375 7.5-7.5 0-4.144531-3.359375-7.5-7.5-7.5zm0 0"/><path d="m236.910156 161.257812c4.140625 0 7.5-3.359374 7.5-7.5 0-4.144531-3.359375-7.5-7.5-7.5h-38.824218c-4.140626 0-7.5 3.355469-7.5 7.5 0 4.140626 3.359374 7.5 7.5 7.5zm0 0"/><path d="m313.917969 161.257812c4.144531 0 7.5-3.359374 7.5-7.5 0-4.144531-3.355469-7.5-7.5-7.5h-38.824219c-4.140625 0-7.5 3.355469-7.5 7.5 0 4.140626 3.359375 7.5 7.5 7.5zm0 0"/></svg>
