<svg id="icon" height="512pt" viewBox="-12 0 512 512" width="512pt" xmlns="http://www.w3.org/2000/svg"><path d="m317.21875 82.910156h-290.71875c-10.492188 0-18.996094 8.507813-18.996094 19v357.410156c0 10.492188 8.503906 18.996094 18.996094 18.996094h290.71875c10.496094 0 19-8.503906 19-18.996094v-357.410156c0-10.492187-8.503906-19-19-19zm-213.621094 84.628906c-13.070312 0-23.667968-10.597656-23.667968-23.671874 0-13.070313 10.597656-23.667969 23.667968-23.667969 13.074219 0 23.671875 10.597656 23.671875 23.667969 0 13.074218-10.597656 23.671874-23.671875 23.671874zm136.523438 0c-13.070313 0-23.667969-10.597656-23.667969-23.671874 0-13.070313 10.597656-23.667969 23.667969-23.667969 13.074218 0 23.671875 10.597656 23.671875 23.667969 0 13.074218-10.597657 23.671874-23.671875 23.671874zm0 0" fill="#8cbafa"/><path d="m317.21875 82.910156h-25.097656c10.496094 0 19 8.507813 19 19v357.410156c0 10.492188-8.503906 18.996094-19 18.996094h25.097656c10.496094 0 19-8.503906 19-18.996094v-357.410156c0-10.492187-8.503906-19-19-19zm0 0" fill="#5692d8"/><path d="m277.246094 303.613281c0 58.207031-47.179688 105.390625-105.386719 105.390625-58.203125 0-105.386719-47.183594-105.386719-105.390625 0-58.203125 47.183594-105.386719 105.386719-105.386719 58.207031 0 105.386719 47.183594 105.386719 105.386719zm0 0" fill="#f0f0f2"/><path d="m461.964844 425.300781c0-13.609375 6.714844-25.648437 17.007812-32.996093 1.265625-.90625 2.019532-2.363282 2.019532-3.921876v-33.816406c0-4.675781-3.789063-8.464844-8.460938-8.464844h-231.554688c-4.675781 0-8.464843 3.789063-8.464843 8.464844v33.816406c0 1.558594.753906 3.019532 2.023437 3.921876 10.292969 7.347656 17.007813 19.386718 17.007813 32.996093s-6.714844 25.644531-17.007813 32.992188c-1.269531.90625-2.023437 2.367187-2.023437 3.925781v33.816406c0 4.675782 3.789062 8.464844 8.464843 8.464844h231.554688c4.671875 0 8.460938-3.789062 8.460938-8.464844v-33.816406c0-1.5625-.753907-3.019531-2.019532-3.925781-10.292968-7.347657-17.007812-19.382813-17.007812-32.992188zm0 0" fill="#f9aa4b"/><path d="m478.972656 392.304688c1.265625-.90625 2.019532-2.363282 2.019532-3.921876v-33.816406c0-4.675781-3.789063-8.464844-8.460938-8.464844h-22.5c4.671875 0 8.460938 3.789063 8.460938 8.464844v33.816406c0 1.558594-.753907 3.019532-2.019532 3.921876-10.292968 7.347656-17.007812 19.386718-17.007812 32.996093s6.714844 25.644531 17.007812 32.992188c1.265625.90625 2.019532 2.367187 2.019532 3.925781v33.816406c0 4.675782-3.789063 8.464844-8.460938 8.464844h22.5c4.671875 0 8.460938-3.789062 8.460938-8.464844v-33.816406c0-1.5625-.753907-3.019531-2.019532-3.925781-10.292968-7.347657-17.007812-19.382813-17.007812-32.992188s6.714844-25.648437 17.007812-32.996093zm0 0" fill="#c1762b"/><path d="m202.335938 310.03125h-48.484376c-2.339843 0-4.386718-1.664062-4.867187-3.957031l-10.304687-49.261719c-1.488282-7.109375-7.839844-12.265625-15.101563-12.265625h-10.195313c-4.144531 0-7.5 3.355469-7.5 7.5 0 4.140625 3.355469 7.5 7.5 7.5h10.195313c.199219 0 .375.140625.417969.339844l10.304687 49.261719c1.925781 9.203124 10.148438 15.882812 19.550781 15.882812h48.484376c8.257812 0 15.769531-5.1875 18.6875-12.914062l3.554687-9.410157c.058594-.140625.113281-.285156.160156-.429687l7.234375-19.148438c.039063-.09375.074219-.183594.105469-.277344l4.957031-13.121093c1.445313-3.828125.917969-8.125-1.40625-11.492188-2.328125-3.363281-6.160156-5.375-10.25-5.375h-68.566406c-4.144531 0-7.5 3.359375-7.5 7.5 0 4.144531 3.355469 7.5 7.5 7.5h64.890625l-1.875 4.972657h-24.917969c-4.144531 0-7.5 3.359374-7.5 7.5 0 4.140624 3.355469 7.5 7.5 7.5h19.25l-1.703125 4.511718h-30.269531c-4.140625 0-7.5 3.355469-7.5 7.5 0 4.140625 3.359375 7.5 7.5 7.5h24.566406c-.847656 1.625-2.554687 2.683594-4.417968 2.683594zm0 0"/><path d="m155.769531 362.683594c9.097657 0 16.5-7.402344 16.5-16.5 0-9.101563-7.402343-16.503906-16.5-16.503906-9.101562 0-16.503906 7.402343-16.503906 16.503906 0 9.097656 7.402344 16.5 16.503906 16.5zm0-18.003906c.828125 0 1.5.671874 1.5 1.5 0 .828124-.671875 1.503906-1.5 1.503906s-1.503906-.675782-1.503906-1.503906c0-.828126.671875-1.5 1.503906-1.5zm0 0"/><path d="m182.601562 346.179688c0 9.101562 7.40625 16.503906 16.503907 16.503906 9.101562 0 16.503906-7.402344 16.503906-16.503906 0-9.097657-7.402344-16.5-16.503906-16.5-9.097657 0-16.503907 7.402343-16.503907 16.5zm18.007813 0c0 .832031-.675781 1.503906-1.503906 1.503906s-1.503907-.675782-1.503907-1.503906c0-.828126.675782-1.5 1.503907-1.5s1.503906.671874 1.503906 1.5zm0 0"/><path d="m7.503906 190.726562c4.144532 0 7.5-3.355468 7.5-7.5v-81.316406c0-6.339844 5.15625-11.5 11.5-11.5h69.597656v23.203125c-13.578124 3.363281-23.667968 15.652344-23.667968 30.253907 0 17.1875 13.980468 31.171874 31.167968 31.171874s31.167969-13.984374 31.167969-31.171874c0-14.601563-10.089843-26.890626-23.667969-30.253907v-23.203125h121.523438v23.199219c-13.578125 3.367187-23.671875 15.65625-23.671875 30.257813 0 17.1875 13.984375 31.167968 31.171875 31.167968s31.167969-13.980468 31.167969-31.167968c0-14.601563-10.09375-26.890626-23.667969-30.257813v-23.199219h69.597656c6.339844 0 11.5 5.160156 11.5 11.5v214.191406c0 4.140626 3.355469 7.5 7.5 7.5 4.140625 0 7.5-3.359374 7.5-7.5v-214.191406c0-14.613281-11.886718-26.5-26.5-26.5h-69.597656c-.191406-41.613281-34.105469-75.410156-75.761719-75.410156-41.660156 0-75.574219 33.796875-75.761719 75.410156h-69.597656c-14.613281 0-26.49999975 11.890625-26.49999975 26.5v81.316406c0 4.144532 3.35546875 7.5 7.49999975 7.5zm112.265625-46.859374c0 8.917968-7.253906 16.171874-16.167969 16.171874-8.917968 0-16.171874-7.253906-16.171874-16.171874 0-6.210938 3.519531-11.613282 8.671874-14.320313v10.621094c0 4.140625 3.355469 7.5 7.5 7.5 4.140626 0 7.5-3.359375 7.5-7.5v-10.621094c5.148438 2.707031 8.667969 8.109375 8.667969 14.320313zm136.523438 0c0 8.917968-7.253907 16.171874-16.167969 16.171874s-16.171875-7.253906-16.171875-16.171874c0-6.210938 3.523437-11.613282 8.671875-14.320313v10.617187c0 4.144532 3.355469 7.5 7.5 7.5s7.5-3.355468 7.5-7.5v-10.617187c5.148438 2.707031 8.667969 8.109375 8.667969 14.320313zm-84.429688-128.867188c33.386719 0 60.570313 27.066406 60.761719 60.410156h-121.523438c.1875-33.34375 27.375-60.410156 60.761719-60.410156zm0 0"/><path d="m307.601562 418.339844c13.5 0 24.484376-10.984375 24.484376-24.484375 0-13.503907-10.984376-24.488281-24.484376-24.488281s-24.484374 10.984374-24.484374 24.488281c0 13.5 10.984374 24.484375 24.484374 24.484375zm0-33.972656c5.230469 0 9.484376 4.257812 9.484376 9.488281s-4.253907 9.484375-9.484376 9.484375c-5.230468 0-9.484374-4.253906-9.484374-9.484375s4.253906-9.488281 9.484374-9.488281zm0 0"/><path d="m367.4375 432.261719c-13.5 0-24.484375 10.984375-24.484375 24.484375s10.984375 24.484375 24.484375 24.484375 24.484375-10.984375 24.484375-24.484375-10.984375-24.484375-24.484375-24.484375zm0 33.96875c-5.230469 0-9.484375-4.253907-9.484375-9.484375 0-5.230469 4.253906-9.484375 9.484375-9.484375 5.226562 0 9.484375 4.253906 9.484375 9.484375 0 5.230468-4.253906 9.484375-9.484375 9.484375zm0 0"/><path d="m384.769531 378.050781c-2.929687-2.929687-7.675781-2.929687-10.609375 0l-83.890625 83.894531c-2.929687 2.925782-2.929687 7.675782 0 10.605469 1.464844 1.464844 3.382813 2.195313 5.300781 2.195313 1.921876 0 3.839844-.730469 5.304688-2.195313l83.894531-83.894531c2.929688-2.925781 2.929688-7.675781 0-10.605469zm0 0"/><path d="m483.328125 398.410156c3.234375-2.308594 5.167969-6.058594 5.167969-10.027344v-33.816406c0-8.804687-7.160156-15.964844-15.964844-15.964844h-193.304688c3.667969-11.238281 5.523438-22.960937 5.523438-34.992187 0-62.242187-50.640625-112.878906-112.890625-112.878906-62.242187 0-112.878906 50.636719-112.878906 112.878906 0 27.375 9.917969 53.78125 27.933593 74.347656 17.839844 20.371094 42.363282 33.664063 69.046876 37.429688.355468.050781.710937.074219 1.058593.074219 3.675781 0 6.886719-2.707032 7.417969-6.453126.578125-4.101562-2.277344-7.894531-6.378906-8.472656-23.128906-3.261718-44.386719-14.792968-59.859375-32.457031-15.617188-17.835937-24.21875-40.726563-24.21875-64.464844 0-53.972656 43.910156-97.882812 97.878906-97.882812 53.980469 0 97.890625 43.910156 97.890625 97.882812 0 12.105469-2.164062 23.855469-6.4375 34.988281h-22.335938c-8.800781 0-15.960937 7.164063-15.960937 15.964844v31.257813c-11.847656 7.675781-25.367187 12.742187-39.34375 14.710937-4.101563.578125-6.957031 4.371094-6.378906 8.472656.527343 3.746094 3.738281 6.457032 7.417969 6.457032.347656 0 .699218-.027344 1.054687-.074219 15.496094-2.1875 30.503906-7.664063 43.78125-15.945313 7.855469 6.246094 12.496094 15.789063 12.496094 25.859376 0 10.636718-5.183594 20.691406-13.863281 26.886718-3.234376 2.3125-5.164063 6.058594-5.164063 10.027344v8.601562h-198.515625c-6.339844 0-11.5-5.15625-11.5-11.5v-246.089843c0-4.140625-3.355469-7.5-7.5-7.5s-7.5 3.359375-7.5 7.5v246.089843c0 14.613282 11.886719 26.5 26.5 26.5h198.515625v10.214844c0 8.804688 7.160156 15.964844 15.964844 15.964844h231.550781c8.804688 0 15.964844-7.160156 15.964844-15.964844v-33.816406c0-3.96875-1.929688-7.71875-5.164063-10.027344-8.683593-6.199218-13.867187-16.25-13.867187-26.890625s5.183594-20.691406 13.863281-26.890625zm-9.832031-11.386718c-11.941406 9.0625-19.03125 23.265624-19.03125 38.277343s7.089844 29.214844 19.03125 38.273438v32.460937c0 .53125-.433594.964844-.964844.964844h-231.554688c-.53125 0-.960937-.433594-.960937-.964844v-32.460937c11.9375-9.058594 19.027344-23.261719 19.027344-38.273438s-7.085938-29.214843-19.027344-38.273437v-32.464844c0-.53125.429687-.960938.960937-.960938h231.554688c.53125 0 .964844.429688.964844.960938zm0 0"/><path d="m427.121094 364.0625c-4.140625 0-7.5 3.359375-7.5 7.5v6.589844c0 4.144531 3.359375 7.5 7.5 7.5 4.144531 0 7.5-3.355469 7.5-7.5v-6.589844c0-4.140625-3.355469-7.5-7.5-7.5zm0 0"/><path d="m427.121094 397.691406c-4.140625 0-7.5 3.355469-7.5 7.5v6.589844c0 4.140625 3.359375 7.5 7.5 7.5 4.144531 0 7.5-3.359375 7.5-7.5v-6.589844c0-4.144531-3.355469-7.5-7.5-7.5zm0 0"/><path d="m427.121094 431.320312c-4.140625 0-7.5 3.355469-7.5 7.5v6.589844c0 4.140625 3.359375 7.5 7.5 7.5 4.144531 0 7.5-3.359375 7.5-7.5v-6.589844c0-4.144531-3.355469-7.5-7.5-7.5zm0 0"/><path d="m427.121094 464.945312c-4.140625 0-7.5 3.359376-7.5 7.5v6.59375c0 4.140626 3.359375 7.5 7.5 7.5 4.144531 0 7.5-3.359374 7.5-7.5v-6.59375c0-4.140624-3.355469-7.5-7.5-7.5zm0 0"/></svg>
