<svg id="icon" height="512pt" viewBox="0 -3 512.00099 512" width="512pt" xmlns="http://www.w3.org/2000/svg"><path d="m365.03125 359.660156-249.050781 66.734375c-10.289063 2.757813-20.863281-3.347656-23.621094-13.636719l-84.199219-314.242187c-2.757812-10.289063 3.347656-20.863281 13.636719-23.621094l249.050781-66.734375c10.289063-2.757812 20.867188 3.347656 23.625 13.636719l84.199219 314.242187c2.757813 10.289063-3.351563 20.863282-13.640625 23.621094zm0 0" fill="#8cbafa"/><path d="m50.257812 255.636719 42.101563 157.121093zm0 0" fill="#5692d8"/><path d="m378.671875 336.039062-84.199219-314.242187c-2.757812-10.289063-13.335937-16.394531-23.625-13.636719l-22.949218 6.148438c9.859374-2.640625 19.992187 3.210937 22.632812 13.066406l84.617188 315.800781c2.640624 9.859375-3.207032 19.992188-13.066407 22.632813l-225.984375 60.554687 248.9375-66.703125c10.285156-2.757812 16.394532-13.332031 13.636719-23.621094zm0 0" fill="#5692d8"/><path d="m297.738281 189.320312c-15.441406-57.617187-74.660156-91.808593-132.28125-76.367187-57.609375 15.4375-91.808593 74.660156-76.371093 132.277344 15.441406 57.621093 74.660156 91.8125 132.28125 76.371093 57.621093-15.4375 91.8125-74.660156 76.371093-132.28125zm-99.808593 44.8125c-9.3125 2.488282-18.871094-3.03125-21.371094-12.339843-2.492188-9.3125 3.03125-18.871094 12.339844-21.371094 9.308593-2.488281 18.878906 3.03125 21.371093 12.339844 2.488281 9.308593-3.03125 18.871093-12.339843 21.371093zm0 0" fill="#e9e9ea"/><path d="m297.738281 189.320312c-8.691406-32.433593-31.257812-57.445312-59.601562-70.359374 17.371093 13.886718 30.625 33.234374 36.824219 56.359374 15.4375 57.621094-18.75 116.84375-76.371094 132.28125-25.183594 6.75-50.675782 4.015626-72.679688-6.011718 25.902344 20.707031 60.964844 29.253906 95.457032 20.011718 57.621093-15.4375 91.8125-74.660156 76.371093-132.28125zm0 0" fill="#c5c4cc"/><path d="m503.773438 430.300781c-6.832032-45.792969-6.871094-46.050781-15.453126-103.566406-5.207031-35.476563-35.757812-62.71875-72.679687-62.71875-19.097656 0-36.480469 7.296875-49.542969 19.238281-4.707031 4.304688-10.90625 6.605469-17.28125 6.605469h-56.515625c-6.378906 0-12.578125-2.300781-17.285156-6.605469-13.0625-11.945312-30.445313-19.238281-49.539063-19.238281-36.921874 0-67.476562 27.238281-72.679687 62.71875-8.585937 57.515625-8.621094 57.773437-15.457031 103.566406-.472656 3.007813-.726563 6.089844-.726563 9.230469 0 32.527344 26.371094 58.894531 58.894531 58.894531 23.90625 0 44.46875-14.25 53.695313-34.710937h.003906c10.089844-22.402344 14.890625-33.0625 20.632813-45.8125 8.984375-19.953125 28.835937-32.785156 50.714844-32.785156 21.882812 0 41.734374 12.832031 50.71875 32.785156 5.742187 12.75 10.542968 23.410156 20.628906 45.8125h.003906c9.230469 20.460937 29.792969 34.710937 53.699219 34.710937 32.523437 0 58.890625-26.367187 58.890625-58.894531.003906-3.140625-.25-6.222656-.722656-9.230469zm0 0" fill="#575b7a"/><path d="m503.773438 430.300781c-6.832032-45.792969-6.871094-46.050781-15.453126-103.566406-5.207031-35.480469-35.757812-62.71875-72.679687-62.71875-4.144531 0-8.203125.363281-12.160156 1.023437 31.289062 5.222657 55.882812 30.203126 60.503906 61.691407 8.585937 57.519531 8.625 57.777343 15.457031 103.570312.472656 3.007813.726563 6.089844.726563 9.230469 0 28.351562-20.039063 52.015625-46.71875 57.625 3.921875.824219 7.988281 1.265625 12.15625 1.265625 32.527343 0 58.894531-26.367187 58.894531-58.894531 0-3.136719-.253906-6.21875-.726562-9.226563zm0 0" fill="#252d4c"/><path d="m254.878906 324.980469h-16.894531v-16.894531c0-6.90625-5.601563-12.507813-12.507813-12.507813-6.910156 0-12.507812 5.601563-12.507812 12.507813v16.894531h-16.894531c-6.910157 0-12.507813 5.601562-12.507813 12.507812 0 6.910157 5.597656 12.507813 12.507813 12.507813h16.894531v16.894531c0 6.910156 5.597656 12.507813 12.507812 12.507813 6.90625 0 12.507813-5.597657 12.507813-12.507813v-16.894531h16.894531c6.90625 0 12.507813-5.597656 12.507813-12.507813 0-6.90625-5.601563-12.507812-12.507813-12.507812zm0 0" fill="#e9e9ea"/><path d="m427.949219 302.214844c0 6.800781-5.511719 12.3125-12.308594 12.3125-6.800781 0-12.3125-5.511719-12.3125-12.3125 0-6.796875 5.511719-12.308594 12.3125-12.308594 6.796875 0 12.308594 5.511719 12.308594 12.308594zm0 0" fill="#aed559"/><path d="m392.675781 337.488281c0 6.800781-5.511719 12.308594-12.308593 12.308594-6.800782 0-12.3125-5.507813-12.3125-12.308594 0-6.796875 5.511718-12.308593 12.3125-12.308593 6.796874 0 12.308593 5.511718 12.308593 12.308593zm0 0" fill="#fa7ec1"/><path d="m427.949219 372.761719c0 6.796875-5.511719 12.308593-12.308594 12.308593-6.800781 0-12.3125-5.511718-12.3125-12.308593s5.511719-12.308594 12.3125-12.308594c6.796875 0 12.308594 5.511719 12.308594 12.308594zm0 0" fill="#8cbafa"/><path d="m463.222656 337.488281c0 6.800781-5.511718 12.308594-12.308594 12.308594-6.800781 0-12.3125-5.507813-12.3125-12.308594 0-6.796875 5.511719-12.308593 12.3125-12.308593 6.796876 0 12.308594 5.511718 12.308594 12.308593zm0 0" fill="#ed5176"/><path d="m205.890625 195.671875c-5.769531-3.332031-12.492187-4.214844-18.9375-2.492187-13.277344 3.566406-21.191406 17.269531-17.640625 30.558593 2.988281 11.128907 13.101562 18.488281 24.113281 18.488281 2.128907 0 4.289063-.273437 6.4375-.847656.003907 0 .007813 0 .007813-.003906 13.28125-3.5625 21.191406-17.269531 17.640625-30.550781-1.71875-6.4375-5.847657-11.820313-11.621094-15.152344zm-9.90625 31.21875c-5.292969 1.410156-10.761719-1.746094-12.183594-7.035156-1.414062-5.296875 1.742188-10.765625 7.035157-12.1875.855468-.230469 1.726562-.34375 2.589843-.34375 1.726563 0 3.429688.453125 4.964844 1.339843 2.300781 1.328126 3.945313 3.472657 4.632813 6.035157 1.417968 5.296875-1.742188 10.765625-7.039063 12.191406zm0 0"/><path d="m225.476562 386.898438c11.03125 0 20.007813-8.976563 20.007813-20.007813v-9.394531h9.394531c11.03125 0 20.007813-8.972656 20.007813-20.007813 0-11.03125-8.976563-20.007812-20.007813-20.007812h-9.394531v-9.394531c0-11.035157-8.976563-20.007813-20.007813-20.007813-11.035156 0-20.007812 8.972656-20.007812 20.007813v9.394531h-9.394531c-11.03125 0-20.007813 8.976562-20.007813 20.007812 0 11.035157 8.976563 20.007813 20.007813 20.007813h9.394531v9.394531c0 11.03125 8.972656 20.007813 20.007812 20.007813zm-29.402343-44.398438c-2.761719 0-5.007813-2.25-5.007813-5.011719s2.246094-5.007812 5.007813-5.007812h16.894531c4.140625 0 7.5-3.355469 7.5-7.5v-16.894531c0-2.761719 2.246094-5.007813 5.007812-5.007813 2.761719 0 5.007813 2.246094 5.007813 5.007813v16.894531c0 4.144531 3.355469 7.5 7.5 7.5h16.894531c2.761719 0 5.007813 2.246093 5.007813 5.007812s-2.246094 5.011719-5.007813 5.011719h-16.894531c-4.144531 0-7.5 3.355469-7.5 7.5v16.894531c0 2.761719-2.246094 5.007813-5.007813 5.007813-2.761718 0-5.007812-2.246094-5.007812-5.007813v-16.894531c0-4.144531-3.359375-7.5-7.5-7.5zm0 0"/><path d="m511.191406 429.195312-15.449218-103.550781c-2.796876-19.042969-12.363282-36.523437-26.941407-49.226562-14.726562-12.832031-33.605469-19.898438-53.160156-19.898438-20.257813 0-39.648437 7.527344-54.605469 21.203125-3.269531 2.992188-7.609375 4.636719-12.21875 4.636719h-56.515625c-1.113281 0-2.207031-.09375-3.277343-.28125 18.652343-27.59375 24.640624-62.304687 15.960937-94.695313-16.484375-61.519531-79.945313-98.164062-141.46875-81.675781-61.519531 16.488281-98.15625 79.949219-81.671875 141.46875 8.957031 33.421875 32.667969 61.175781 64.046875 75.382813-.492187 2.644531.300781-2.277344-13.742187 91.734375l-18.113282 4.855469c-6.277344 1.683593-12.75-2.058594-14.433594-8.335938l-84.199218-314.238281c-1.679688-6.277344 2.0625-12.753907 8.335937-14.4375l249.050781-66.730469c3.039063-.8125 6.214844-.398438 8.941407 1.175781 2.726562 1.574219 4.675781 4.121094 5.492187 7.160157l61.820313 230.722656c1.070312 4 5.183593 6.382812 9.1875 5.304687 4-1.074219 6.375-5.1875 5.300781-9.1875l-61.820312-230.722656c-3.828126-14.269531-18.539063-22.769531-32.804688-18.941406l-249.050781 66.730469c-14.261719 3.824218-22.757813 18.539062-18.941407 32.804687l84.199219 314.246094c3.207031 11.953125 14.058594 19.855469 25.878907 19.855469 5.554687 0 8.457031-1.53125 18.742187-4.085938-5.449219 39.878906 25.566406 75.457031 65.773437 75.457031 25.597657 0 49.597657-14.929687 60.539063-39.132812l2.496094-5.542969c1.699219-3.777344.015625-8.21875-3.761719-9.917969-3.773438-1.699219-8.21875-.015625-9.917969 3.761719l-2.40625 5.34375c-.027343.0625-.058593.128906-.089843.191406-8.300782 18.40625-26.691407 30.296875-46.859376 30.296875-28.335937 0-51.394531-23.054687-51.394531-51.394531 0-2.675781.214844-5.390625.644531-8.121094l1.476563-9.890625c.015625-.097656.03125-.199219.042969-.296875l13.941406-93.402344c4.707031-32.097656 32.761719-56.304687 65.257812-56.304687 16.5 0 32.296876 6.136719 44.480469 17.273437 6.042969 5.527344 13.976563 8.570313 22.34375 8.570313h56.515625c8.363282 0 16.300782-3.042969 22.34375-8.570313 12.179688-11.136718 27.976563-17.273437 44.480469-17.273437 32.492187 0 60.546875 24.207031 65.261719 56.324219l15.464844 103.628906c.417968 2.671875.632812 5.386719.632812 8.0625 0 28.339844-23.054688 51.394531-51.394531 51.394531-20.164063 0-38.558594-11.890625-46.859375-30.296875-.027344-.0625-.058594-.128906-.089844-.191406l-20.542969-45.613281c-10.175781-22.601563-32.769531-37.207031-57.554687-37.207031s-47.378906 14.605468-57.558594 37.203124l-5.816406 12.917969c-1.699219 3.777344-.015625 8.21875 3.761718 9.917969 3.773438 1.699219 8.214844.019531 9.917969-3.757812l5.816407-12.917969c7.757812-17.230469 24.980468-28.363281 43.878906-28.363281 18.894531 0 36.117187 11.132812 43.878906 28.363281l20.628906 45.8125c.035156.074219.066406.144531.101563.214843 10.765625 23.648438 34.464843 38.917969 60.4375 38.917969 36.609375 0 66.394531-29.785156 66.394531-66.394531 0-3.457031-.273438-6.953125-.808594-10.335938zm-338.875-152.777343c-9.917968 8.640625-17.515625 19.496093-22.242187 31.542969-26.316407-12.621094-46.140625-36.296876-53.742188-64.667969-14.34375-53.527344 17.539063-108.75 71.066407-123.097657 53.527343-14.339843 108.753906 17.539063 123.097656 71.070313 7.621094 28.449219 2.242187 58.957031-14.351563 83.078125-14.34375-11.53125-32.144531-17.824219-50.667969-17.824219-19.554687 0-38.433593 7.066407-53.160156 19.898438zm0 0"/><path d="m415.640625 282.40625c-10.925781 0-19.8125 8.886719-19.8125 19.808594 0 10.925781 8.886719 19.8125 19.8125 19.8125 10.921875 0 19.808594-8.886719 19.808594-19.8125 0-10.921875-8.886719-19.808594-19.808594-19.808594zm0 24.621094c-2.652344 0-4.8125-2.160156-4.8125-4.8125s2.160156-4.808594 4.8125-4.808594 4.808594 2.15625 4.808594 4.808594-2.15625 4.8125-4.808594 4.8125zm0 0"/><path d="m380.363281 317.679688c-10.921875 0-19.808593 8.886718-19.808593 19.808593 0 10.925781 8.886718 19.8125 19.808593 19.8125 10.925781 0 19.8125-8.886719 19.8125-19.8125 0-10.921875-8.886719-19.808593-19.8125-19.808593zm0 24.617187c-2.648437 0-4.808593-2.15625-4.808593-4.808594 0-2.652343 2.15625-4.808593 4.808593-4.808593 2.65625 0 4.8125 2.15625 4.8125 4.808593 0 2.652344-2.15625 4.808594-4.8125 4.808594zm0 0"/><path d="m415.640625 352.953125c-10.925781 0-19.8125 8.886719-19.8125 19.8125 0 10.921875 8.886719 19.808594 19.8125 19.808594 10.921875 0 19.808594-8.886719 19.808594-19.808594 0-10.925781-8.886719-19.8125-19.808594-19.8125zm0 24.621094c-2.652344 0-4.8125-2.160157-4.8125-4.8125 0-2.652344 2.160156-4.808594 4.8125-4.808594s4.808594 2.15625 4.808594 4.808594c0 2.652343-2.15625 4.8125-4.808594 4.8125zm0 0"/><path d="m450.914062 357.296875c10.921876 0 19.808594-8.886719 19.808594-19.808594s-8.886718-19.808593-19.808594-19.808593c-10.925781 0-19.8125 8.886718-19.8125 19.808593s8.886719 19.808594 19.8125 19.808594zm0-24.617187c2.652344 0 4.808594 2.15625 4.808594 4.808593 0 2.652344-2.15625 4.8125-4.808594 4.8125-2.65625 0-4.8125-2.160156-4.8125-4.8125 0-2.652343 2.160157-4.808593 4.8125-4.808593zm0 0"/></svg>
