<svg id="icon" height="512pt" viewBox="-64 0 512 512.001" width="512pt" xmlns="http://www.w3.org/2000/svg"><path d="m280.5 7.5c-39.675781 0-71.84375 32.167969-71.84375 71.847656v199.628906h47.074219v-199.628906c0-13.683594 11.089843-24.769531 24.769531-24.769531s24.769531 11.089844 24.769531 24.769531v199.628906h47.074219v-199.628906c.003906-39.679687-32.164062-71.847656-71.84375-71.847656zm0 0" fill="#ffeb96"/><path d="m185.058594 291.277344v54.152344c0 13.589843 21.738281 42.695312 30.914062 54.378906 2.484375 3.160156 6.273438 5.007812 10.289063 5.007812h108.476562c4.019531 0 7.808594-1.847656 10.289063-5.007812 9.179687-11.683594 30.914062-40.789063 30.914062-54.378906v-54.152344c0-6.792969-5.507812-12.300782-12.300781-12.300782h-166.277344c-6.792969 0-12.304687 5.507813-12.304687 12.300782zm0 0" fill="#8cbafa"/><path d="m363.640625 278.976562h-23.597656c6.796875 0 12.304687 5.507813 12.304687 12.304688v54.152344c0 13.585937-21.734375 42.691406-30.914062 54.378906-2.480469 3.160156-6.269532 5.003906-10.289063 5.003906h23.59375c4.019531 0 7.808594-1.84375 10.289063-5.003906 9.179687-11.6875 30.914062-40.792969 30.914062-54.378906v-54.152344c0-6.796875-5.507812-12.304688-12.300781-12.304688zm0 0" fill="#5692d8"/><path d="m325.394531 404.816406h-89.785156v66.53125c0 8.9375 7.246094 16.183594 16.183594 16.183594h8.207031c0 9.371094 7.597656 16.96875 16.96875 16.96875h7.070312c9.371094 0 16.964844-7.597656 16.964844-16.96875h8.207032c8.9375 0 16.183593-7.246094 16.183593-16.183594zm0 0" fill="#6a7193"/><g fill="#575b7a"><path d="m301.796875 404.816406v66.53125c0 8.9375-7.246094 16.183594-16.183594 16.183594h-8.207031c0 6.371094-3.511719 11.914062-8.703125 14.8125 2.445313 1.371094 5.261719 2.15625 8.261719 2.15625h7.070312c9.371094 0 16.96875-7.597656 16.96875-16.96875h8.207032c8.9375 0 16.183593-7.246094 16.183593-16.183594v-66.53125zm0 0"/><path d="m123.6875 71.246094c9.183594 0 16.628906 7.449218 16.628906 16.632812v48.003906h-33.261718v-48.003906c0-9.183594 7.445312-16.632812 16.632812-16.632812zm0 0"/><path d="m47.554688 71.246094c9.1875 0 16.632812 7.449218 16.632812 16.632812v48.003906h-33.261719v-48.003906c0-9.183594 7.445313-16.632812 16.628907-16.632812zm0 0"/></g><path d="m154.023438 177.351562h-136.804688c-5.367188 0-9.71875-4.351562-9.71875-9.71875v-22.03125c0-5.367187 4.351562-9.71875 9.71875-9.71875h136.804688c5.367187 0 9.71875 4.351563 9.71875 9.71875v22.03125c0 5.367188-4.351563 9.71875-9.71875 9.71875zm0 0" fill="#8cbafa"/><path d="m154.023438 135.882812h-25.304688c5.367188 0 9.714844 4.351563 9.714844 9.714844v22.035156c0 5.367188-4.347656 9.714844-9.714844 9.714844h25.304688c5.367187 0 9.71875-4.351562 9.71875-9.714844v-22.035156c0-5.363281-4.351563-9.714844-9.71875-9.714844zm0 0" fill="#5692d8"/><path d="m85.621094 288.242188c-35.117188 0-63.582032-28.464844-63.582032-63.582032v-47.308594h127.164063v47.308594c0 35.117188-28.464844 63.582032-63.582031 63.582032zm0 0" fill="#f9aa4b"/><path d="m123.898438 177.351562v47.308594c0 30.785156-21.875 56.453125-50.929688 62.320313 4.089844.828125 8.320312 1.265625 12.652344 1.265625 35.117187 0 63.582031-28.46875 63.582031-63.585938v-47.308594zm0 0" fill="#c1762b"/><path d="m107.054688 224.175781c0 11.839844-9.597657 21.4375-21.433594 21.4375-11.839844 0-21.4375-9.597656-21.4375-21.4375 0-11.835937 9.597656-21.433593 21.4375-21.433593 11.835937 0 21.433594 9.597656 21.433594 21.433593zm0 0" fill="#575b7a"/><path d="m363.640625 271.476562h-3.792969v-192.128906c0-43.753906-35.59375-79.347656-79.347656-79.347656-43.75 0-79.34375 35.59375-79.34375 79.347656v192.128906h-3.792969c-10.917969 0-19.804687 8.882813-19.804687 19.804688v5.726562c0 4.144532 3.359375 7.5 7.5 7.5 4.144531 0 7.5-3.355468 7.5-7.5v-5.726562c0-2.648438 2.15625-4.804688 4.804687-4.804688h166.273438c2.648437 0 4.804687 2.15625 4.804687 4.804688v54.152344c0 5.730468-7.675781 22.203125-29.3125 49.746094-1.066406 1.355468-2.667968 2.136718-4.390625 2.136718h-108.476562c-1.722657 0-3.320313-.777344-4.390625-2.136718-17.804688-22.671876-29.3125-42.199219-29.3125-49.746094v-18.425782c0-4.140624-3.355469-7.5-7.5-7.5-4.140625 0-7.5 3.359376-7.5 7.5v18.425782c0 14.558594 17.683594 40.125 32.519531 59.011718 3.929687 5.003907 9.828125 7.871094 16.183594 7.871094h1.847656v59.03125c0 13.0625 10.625 23.6875 23.683594 23.6875h1.882812c3.171875 9.832032 12.414063 16.964844 23.292969 16.964844h7.066406c10.878906 0 20.121094-7.132812 23.292969-16.964844h1.882813c13.058593 0 23.683593-10.625 23.683593-23.6875v-59.03125h1.847657c6.355468 0 12.253906-2.867187 16.183593-7.871094 14.835938-18.882812 32.519531-44.453124 32.519531-59.011718v-54.152344c-.003906-10.921875-8.886718-19.804688-19.804687-19.804688zm-65.867187 0h-34.539063v-192.128906c0-9.523437 7.746094-17.269531 17.269531-17.269531 9.523438 0 17.269532 7.746094 17.269532 17.269531zm15 0v-192.128906c0-17.792968-14.476563-32.269531-32.273438-32.269531-17.792969 0-32.269531 14.476563-32.269531 32.269531v192.128906h-32.074219v-192.128906c0-35.484375 28.867188-64.347656 64.34375-64.347656 35.480469 0 64.347656 28.863281 64.347656 64.347656v192.128906zm5.121093 178.507813h-74.785156v-10.804687h74.785156zm-8.683593 30.046875h-8.207032c-4.144531 0-7.5 3.359375-7.5 7.5 0 5.222656-4.246094 9.46875-9.46875 9.46875h-7.070312c-5.21875 0-9.464844-4.246094-9.464844-9.46875 0-4.140625-3.359375-7.5-7.5-7.5h-8.207031c-4.789063 0-8.683594-3.894531-8.683594-8.683594v-6.363281h74.785156v6.363281c0 4.789063-3.894531 8.683594-8.683593 8.683594zm8.683593-55.847656h-74.785156v-11.867188h74.785156zm0 0"/><path d="m314.90625 327.011719c4.144531 0 7.5-3.359375 7.5-7.5 0-4.144531-3.355469-7.5-7.5-7.5h-68.8125c-4.140625 0-7.5 3.355469-7.5 7.5 0 4.140625 3.359375 7.5 7.5 7.5zm0 0"/><path d="m85.621094 253.109375c15.953125 0 28.933594-12.976563 28.933594-28.933594 0-15.953125-12.980469-28.933593-28.933594-28.933593-15.957032 0-28.9375 12.980468-28.9375 28.933593.003906 15.957031 12.984375 28.933594 28.9375 28.933594zm0-42.867187c7.683594 0 13.933594 6.25 13.933594 13.9375 0 7.679687-6.25 13.933593-13.933594 13.933593s-13.9375-6.253906-13.9375-13.933593c.003906-7.6875 6.253906-13.9375 13.9375-13.9375zm0 0"/><path d="m206.65625 432.832031h-149.398438c-13.140624 0-23.832031-10.691406-23.832031-23.832031s10.691407-23.832031 23.832031-23.832031h9.945313c14.289063 0 25.917969-11.628907 25.917969-25.921875v-63.894532c35.683594-3.757812 63.582031-34.027343 63.582031-70.691406v-40.019531c8.226563-1.289063 14.539063-8.425781 14.539063-17.007813v-22.03125c0-9.496093-7.726563-17.21875-17.21875-17.21875h-6.207032v-40.503906c0-13.304687-10.824218-24.132812-24.132812-24.132812-13.304688 0-24.128906 10.828125-24.128906 24.132812v40.503906h-27.871094v-40.503906c0-13.304687-10.824219-24.132812-24.128906-24.132812-13.304688 0-24.128907 10.828125-24.128907 24.132812v40.503906h-6.207031c-9.496094 0-17.21875 7.722657-17.21875 17.21875v22.03125c0 8.582032 6.3125 15.71875 14.539062 17.007813v40.019531c0 17.371094 6.332032 34.09375 17.832032 47.089844 2.742187 3.101562 7.484375 3.390625 10.585937.648438 3.101563-2.746094 3.390625-7.488282.648438-10.589844-9.070313-10.25-14.066407-23.441406-14.066407-37.148438v-39.808594h112.164063v39.8125c0 30.921876-25.160156 56.082032-56.082031 56.082032-7.074219 0-13.964844-1.296875-20.484375-3.855469-3.855469-1.515625-8.207031.382813-9.722657 4.242187-1.511718 3.851563.386719 8.207032 4.242188 9.71875 5.945312 2.335938 12.128906 3.839844 18.464844 4.503907v63.894531c0 6.019531-4.898438 10.917969-10.917969 10.917969h-9.945313c-21.414062 0-38.832031 17.421875-38.832031 38.835937 0 21.410156 17.417969 38.832032 38.832031 38.832032h149.398438c4.140625 0 7.5-3.359376 7.5-7.5 0-4.144532-3.359375-7.503907-7.5-7.503907zm-92.101562-344.953125c0-5.035156 4.097656-9.132812 9.132812-9.132812s9.128906 4.097656 9.128906 9.132812v40.503906h-18.261718zm-76.128907 0c0-5.035156 4.09375-9.132812 9.128907-9.132812 5.035156 0 9.132812 4.097656 9.132812 9.132812v40.503906h-18.261719zm-21.207031 81.972656c-1.222656 0-2.21875-.996093-2.21875-2.21875v-22.03125c0-1.222656.996094-2.21875 2.21875-2.21875h136.804688c1.222656 0 2.21875.996094 2.21875 2.21875v22.03125c0 1.222657-.996094 2.21875-2.21875 2.21875zm0 0"/></svg>
