<svg id="icon" height="512pt" viewBox="0 -7 512.00037 512" width="512pt" xmlns="http://www.w3.org/2000/svg"><path d="m7.5 147.625v296.777344c0 10.3125 8.359375 18.667968 18.667969 18.667968h294.386719c10.3125 0 18.671874-8.359374 18.671874-18.667968v-296.777344c0-10.308594-8.359374-18.667969-18.671874-18.667969h-294.386719c-10.308594 0-18.667969 8.359375-18.667969 18.667969zm0 0" fill="#ffd2c0"/><path d="m320.558594 128.957031h-22.5c10.308594 0 18.667968 8.359375 18.667968 18.667969v296.777344c0 10.308594-8.359374 18.667968-18.667968 18.667968h22.5c10.308594 0 18.667968-8.359374 18.667968-18.667968v-296.777344c0-10.308594-8.359374-18.667969-18.667968-18.667969zm0 0" fill="#edaa9d"/><path d="m265.878906 166.070312h-21.140625c-2.164062 0-3.917969-1.753906-3.917969-3.917968v-105.464844c0-11.160156-9.050781-20.207031-20.210937-20.207031h-94.492187c-11.160157 0-20.207032 9.046875-20.207032 20.207031v105.464844c0 2.164062-1.757812 3.917968-3.921875 3.917968h-21.140625c-2.164062 0-3.917968-1.753906-3.917968-3.917968v-111.644532c0-23.753906 19.253906-43.007812 43.003906-43.007812h106.859375c23.75 0 43.007812 19.253906 43.007812 43.007812v111.644532c0 2.164062-1.757812 3.917968-3.921875 3.917968zm0 0" fill="#575b7a"/><path d="m490.578125 280.171875h-233.382813c-8.082031 0-14.464843 6.851563-13.890624 14.910156l12.84375 180.335938c.589843 8.28125 7.476562 14.703125 15.78125 14.703125h203.910156c8.300781 0 15.191406-6.421875 15.78125-14.703125l12.84375-180.335938c.574218-8.058593-5.808594-14.910156-13.886719-14.910156zm-184.375 62.71875c-10.015625 0-18.136719-8.121094-18.136719-18.140625 0-10.015625 8.121094-18.136719 18.136719-18.136719 10.019531 0 18.140625 8.121094 18.140625 18.136719 0 10.019531-8.121094 18.140625-18.140625 18.140625zm135.363281 0c-10.015625 0-18.136718-8.121094-18.136718-18.140625 0-10.015625 8.121093-18.136719 18.136718-18.136719 10.019532 0 18.140625 8.121094 18.140625 18.136719 0 10.019531-8.121093 18.140625-18.140625 18.140625zm0 0" fill="#ed5176"/><path d="m490.578125 280.171875h-24.273437c8.078124 0 14.460937 6.851563 13.886718 14.910156l-12.839844 180.335938c-.589843 8.28125-7.484374 14.703125-15.785156 14.703125h24.273438c8.304687 0 15.195312-6.421875 15.785156-14.703125l12.839844-180.335938c.574218-8.058593-5.808594-14.910156-13.886719-14.910156zm0 0" fill="#ba365f"/><path d="m506.253906 279.496094c-4.035156-4.335938-9.75-6.824219-15.675781-6.824219h-41.511719v-4.066406c0-41.457031-33.726562-75.183594-75.183594-75.183594-41.453124 0-75.179687 33.726563-75.179687 75.183594v4.066406h-41.511719c-5.925781 0-11.640625 2.488281-15.675781 6.824219-4.039063 4.335937-6.113281 10.210937-5.691406 16.121094l8.214843 115.363281h-229.039062v-263.351563c0-6.160156 5.011719-11.167968 11.171875-11.167968h43.257813v25.691406c0 6.296875 5.121093 11.417968 11.417968 11.417968h21.140625c6.296875 0 11.421875-5.121093 11.421875-11.417968v-25.691406h119.910156v25.691406c0 6.296875 5.121094 11.417968 11.417969 11.417968h21.144531c6.296876 0 11.417969-5.121093 11.417969-11.417968v-25.691406h43.261719c6.15625 0 11.171875 5.007812 11.171875 11.167968v31.640625c0 4.140625 3.355469 7.5 7.5 7.5 4.140625 0 7.5-3.359375 7.5-7.5v-31.640625c0-14.429687-11.742187-26.167968-26.171875-26.167968h-43.261719v-70.953126c0-27.851562-22.65625-50.507812-50.507812-50.507812h-106.859375c-27.847656 0-50.503906 22.65625-50.503906 50.507812v36.277344c0 4.144532 3.355468 7.5 7.5 7.5 4.140624 0 7.5-3.355468 7.5-7.5v-36.277344c0-19.578124 15.925781-35.507812 35.503906-35.507812h106.859375c19.578125 0 35.507812 15.929688 35.507812 35.507812v108.0625h-13.980469v-29.457031c0-.050781 0-.101562 0-.15625 0-.050781 0-.101562 0-.152343v-72.117188c0-15.277344-12.433593-27.707031-27.710937-27.707031h-94.492187c-15.277344 0-27.710938 12.429687-27.710938 27.707031v101.882812h-13.976562v-29.457031c0-.050781 0-.101562 0-.15625 0-.050781 0-.101562 0-.152343v-12.019532c0-4.140625-3.359376-7.5-7.5-7.5-4.144532 0-7.5 3.359375-7.5 7.5v4.671875h-43.257813c-14.433594 0-26.171875 11.742188-26.171875 26.171875v296.769532c0 14.429687 11.738281 26.171874 26.171875 26.171874h222.109375l.382812 5.378907c.867188 12.152343 11.085938 21.667969 23.265626 21.667969h203.910156c12.179687 0 22.398437-9.515626 23.265625-21.667969l4.15625-58.386719c.296875-4.128906-2.816407-7.71875-6.949219-8.011719-4.105469-.296875-7.71875 2.816407-8.011719 6.945313l-4.15625 58.390625c-.3125 4.335937-3.957031 7.730469-8.304687 7.730469h-203.910156c-4.34375 0-7.992188-3.394532-8.300782-7.730469l-.867187-12.183594c-.003907-.113281-.015625-.226563-.023438-.339844l-3.140625-44.09375c-.007812-.21875-.023437-.4375-.046875-.652343l-8.761719-123.070313c-.128906-1.796875.476563-3.511719 1.707032-4.832031 1.226562-1.316406 2.894531-2.042969 4.699218-2.042969h41.507813v12.558594c-10.488281 3.214843-18.136719 12.992187-18.136719 24.519531 0 14.140625 11.5 25.640625 25.636719 25.640625 14.140625 0 25.640625-11.5 25.640625-25.640625 0-11.527344-7.648438-21.304688-18.140625-24.519531v-12.558594h120.363281v12.558594c-10.488281 3.214843-18.136718 12.992187-18.136718 24.519531 0 14.140625 11.5 25.640625 25.636718 25.640625 14.140625 0 25.640625-11.5 25.640625-25.640625 0-11.527344-7.648437-21.304688-18.140625-24.519531v-12.558594h41.511719c1.804687 0 3.472656.726563 4.699219 2.042969 1.230468 1.320312 1.835937 3.035156 1.707031 4.835937l-6.558594 92.097657c-.292969 4.132812 2.816407 7.722656 6.949219 8.015624 4.121094.308594 7.71875-2.816406 8.015625-6.949218l6.554687-92.097656c.421876-5.910157-1.652343-11.789063-5.691406-16.121094zm-380.136718-235.515625h94.492187c7.007813 0 12.710937 5.699219 12.710937 12.707031v64.773438h-119.914062v-64.773438c0-7.007812 5.703125-12.707031 12.710938-12.707031zm-99.945313 411.589843c-6.160156 0-11.171875-5.011718-11.171875-11.171874v-18.417969h230.109375l2.105469 29.589843zm290.671875-130.820312c0 5.867188-4.773438 10.640625-10.640625 10.640625s-10.636719-4.773437-10.636719-10.640625c0-3.390625 1.59375-6.417969 4.074219-8.367188 1.277344 2.308594 3.738281 3.867188 6.5625 3.867188s5.285156-1.558594 6.5625-3.867188c2.480469 1.949219 4.078125 4.976563 4.078125 8.367188zm135.363281 0c0 5.867188-4.773437 10.640625-10.640625 10.640625-5.867187 0-10.640625-4.773437-10.640625-10.640625 0-3.390625 1.597657-6.417969 4.078125-8.367188 1.277344 2.308594 3.738282 3.867188 6.5625 3.867188 2.824219 0 5.285156-1.558594 6.5625-3.867188 2.480469 1.949219 4.078125 4.976563 4.078125 8.367188zm-105.476562-52.078125v-27.070313c0-4.144531-3.355469-7.5-7.5-7.5s-7.5 3.355469-7.5 7.5v27.070313h-18.027344v-4.066406c0-33.183594 26.996094-60.183594 60.183594-60.183594 33.183593 0 60.179687 27 60.179687 60.183594v4.066406zm0 0"/></svg>
