<svg id="icon" height="512pt" viewBox="-31 0 511 512" width="512pt" xmlns="http://www.w3.org/2000/svg"><g fill-rule="evenodd"><path d="m118.867188 414h206.316406c1.242187-16.542969 4.273437-32.742188 11.496094-38.253906 31.394531-24.023438 30.757812-42.675782 30.757812-88.492188v-31.789062c0-32.308594-24.925781-39.554688-36.046875-39.554688h-89.96875c-23.800781 0-36.222656 14.957032-37.234375 30.605469v18.707031c0 19.605469-16.058594 35.65625-35.699219 35.65625-19.609375 0-35.671875-16.050781-35.671875-35.65625v-21.394531c0 35.339844-66.054687 48.359375-66.082031-6.84375v50.269531c0 46.800782 10.398437 65.25 42.976563 90.050782 5.574218 4.214843 8.058593 20.125 9.15625 36.695312zm0 0" fill="#ffd4be"/><path d="m241.421875 215.910156h86.011719l41.421875-154.464844c5.054687-18.941406-6.296875-38.601562-25.246094-43.683593s-36.941406 6.785156-43.699219 25.207031l-43.613281 118.863281-39.773437-125.332031c-5.921876-18.710938-24.753907-30.316406-43.703126-25.234375-18.945312 5.082031-30.992187 24.972656-25.214843 43.683594l20.882812 67.734375c19.644531 0 35.703125 16.050781 35.703125 35.65625v88.175781c1.007813-15.648437 13.429688-30.605469 37.230469-30.605469zm0 0" fill="#ffd4be"/><path d="m204.191406 246.515625v-88.175781c0-19.605469-16.058594-35.65625-35.703125-35.65625-19.609375 0-35.667969 16.050781-35.667969 35.65625v106.882812c0 19.605469 16.058594 35.65625 35.667969 35.65625 19.644531 0 35.703125-16.050781 35.703125-35.65625v-14.4375c-.117187-1.414062-.117187-2.855468 0-4.269531zm0 0" fill="#ffbf9e"/><path d="m132.820312 243.828125v-65.277344c-3.179687-40.535156-66.085937-42.703125-66.085937 0v58.4375c.027344 55.203125 66.085937 42.179688 66.085937 6.839844zm0 0" fill="#ffbf9e"/><path d="m325.183594 414h-222c-11.4375 0-20.765625 9.355469-20.765625 20.757812v46.398438c0 11.433594 9.328125 20.757812 20.765625 20.757812h243.632812c11.4375 0 20.765625-9.324218 20.765625-20.757812v-46.398438c0-11.402343-9.328125-20.757812-20.765625-20.757812zm0 0" fill="#f6838d"/><path d="m82.417969 481.15625v-46.398438l-71.832031 25.8125 72.496093 25.8125c-.433593-1.675781-.664062-3.40625-.664062-5.226562zm0 0" fill="#b3b0b5"/><path d="m367.582031 434.757812v46.398438c0 .921875-.058593 1.820312-.171875 2.683594l72.003906-25.867188-71.976562-25.667968c.117188.808593.144531 1.644531.144531 2.453124zm0 0" fill="#b3b0b5"/></g><path d="m442.800781 448.472656-66.851562-23.839844c-4.199219-12.046874-15.671875-20.71875-29.132813-20.71875h-10.425781c2.363281-16.859374 6.214844-20.007812 6.410156-20.15625 17.828125-13.621093 27.21875-26.746093 31.402344-43.875 1.320313-5.410156-1.996094-10.871093-7.40625-12.191406-5.414063-1.324218-10.867187 1.996094-12.1875 7.40625-2.566406 10.515625-7.640625 20.089844-24.050781 32.632813-7.542969 5.757812-12.21875 17.367187-14.507813 36.183593h-187.910156c-1.988281-19.140624-5.804687-29.710937-12.320313-34.636718-29.265624-22.273438-39.003906-37.253906-39.003906-82.023438v-8.605468c6.480469 3.9375 13.898438 5.835937 21.292969 5.835937h.011719c9.007812 0 18.308594-2.730469 26.089844-7.730469 5.125 19.65625 23.03125 34.210938 44.277343 34.210938 19.203125 0 35.667969-11.875 42.460938-28.65625 7.644531 5.644531 17.835937 9.195312 30.472656 9.195312h35.554687c1.808594 0 2.863282.175782 3.40625.308594.472657 1.828125.464844 6.234375.460938 9.542969v10.65625c-32.480469 4.085937-59.390625 27.675781-67.222656 60.15625-1.304688 5.414062 2.027344 10.863281 7.441406 12.167969.792969.191406 1.585938.285156 2.371094.285156 4.550781 0 8.679687-3.105469 9.792968-7.726563 6.4375-26.699219 30.164063-45.34375 57.699219-45.34375 5.566407 0 10.082031-4.515625 10.082031-10.085937l.003907-20.082032c.011719-9.09375.023437-17.683593-6.238281-23.957031-4.09375-4.097656-9.914063-6.089843-17.800782-6.089843h-35.550781c-17.6875 0-26.1875-10.058594-27.148437-20.632813v-4.074219c.960937-10.578125 9.460937-20.632812 27.148437-20.632812h85.972656.046875.070313 3.878906c1.0625 0 25.964844.332031 25.964844 29.46875 0 5.570312 4.511719 10.085937 10.082031 10.085937s10.085938-4.515625 10.085938-10.085937c0-30.898438-19.855469-45.09375-37.199219-48.6875l38.273437-142.730469c6.5-24.363281-8.023437-49.496094-32.375-56.027344-22.960937-6.15625-46.9375 7.375-55.78125 31.472657l-33.457031 91.179687-30.847656-97.214844c-7.675781-24.257812-32.246094-38.28125-55.925781-31.933593-12.070313 3.238281-22.476563 11.402343-28.550782 22.394531-5.867187 10.628906-7.179687 22.703125-3.691406 34.003906l17.449219 56.585937c-14.804688 4.421876-26.476563 16.144532-30.832031 30.976563-8.445313-5.8125-18.730469-8.59375-28.476563-8.203125-19.003906.742188-39.460937 13.976562-39.460937 41.269531v108.703125c0 48.234375 10.484374 70.246094 46.722656 97.898438.464844.652344 2.804687 4.554687 4.472656 18.761718h-4.65625c-14.457031 0-26.613281 9.992188-29.945312 23.425782l-66.066407 23.738281c-4.011719 1.441406-6.683593 5.246094-6.675781 9.507813.007812 4.261718 2.6875 8.058593 6.699219 9.484374l68.085937 24.242188c4.949219 10.445312 15.59375 17.6875 27.898438 17.6875h243.632812c13.375 0 24.785156-8.558594 29.054688-20.480469l66.953125-24.054687c4.007812-1.441406 6.679687-5.246094 6.675781-9.503906-.007812-4.261719-2.683594-8.058594-6.699219-9.488282zm-283.484375-414.800781c3.4375-6.222656 9.3125-10.839844 16.117188-12.664063 13.234375-3.550781 27.0625 4.589844 31.476562 18.542969l39.773438 125.332031c1.304687 4.109376 5.078125 6.9375 9.390625 7.03125 4.308593.0625 8.203125-2.558593 9.691406-6.605468l43.613281-118.867188c4.550782-12.402344 16.875-22.890625 31.621094-18.9375 13.625 3.652344 21.75 17.714844 18.113281 31.332032l-39.414062 146.988281h-78.277344c-10.890625 0-19.953125 2.644531-27.148437 6.984375v-54.46875c0-22.621094-16.523438-41.445313-38.140626-45.09375l-18.890624-61.273438c-1.859376-6.015625-1.121094-12.515625 2.074218-18.300781zm-16.414062 124.667969c0-14.082032 11.449218-25.539063 25.53125-25.570313.027344 0 .050781-.003906.078125-.003906 14.113281.011719 25.59375 11.480469 25.59375 25.574219v87.671875c-.054688.886719-.09375 1.769531-.09375 2.652343 0 .886719.039062 1.769532.09375 2.652344v13.90625c0 14.101563-11.492188 25.574219-25.617188 25.574219-14.109375 0-25.585937-11.472656-25.585937-25.574219zm-66.085938 51.046875v-30.835938c0-18.863281 15.371094-20.929687 20.078125-21.113281 11.851563-.46875 24.519531 6.808594 25.839844 21.609375v64.78125c0 12.253906-12.726563 20.484375-24.617187 20.488281 0 0-.003907 0-.007813 0-13.519531 0-21.28125-9.960937-21.292969-27.328125zm-4.484375 239.710937v22.753906l-31.804687-11.324218zm274.484375 42.734375h-243.632812c-5.890625 0-10.683594-4.789062-10.683594-10.675781v-46.394531c0-5.886719 4.792969-10.675781 10.683594-10.675781h15.652344.019531.03125 206.304687.027344.019531 21.574219c5.890625 0 10.683594 4.789062 10.683594 10.675781v46.394531c.003906 5.886719-4.789063 10.675781-10.679688 10.675781zm30.851563-22.390625v-22.78125l31.820312 11.347656zm0 0"/><path d="m166.699219 447.886719h-.375c-5.570313 0-10.085938 4.515625-10.085938 10.085937 0 5.570313 4.515625 10.085938 10.085938 10.085938h.375c5.570312 0 10.082031-4.515625 10.082031-10.085938 0-5.570312-4.511719-10.085937-10.082031-10.085937zm0 0"/><path d="m225.390625 447.886719h-.375c-5.570313 0-10.085937 4.515625-10.085937 10.085937 0 5.570313 4.515624 10.085938 10.085937 10.085938h.375c5.566406 0 10.082031-4.515625 10.082031-10.085938 0-5.570312-4.511718-10.085937-10.082031-10.085937zm0 0"/><path d="m284.050781 447.511719h-.375c-5.570312 0-10.082031 4.515625-10.082031 10.085937 0 5.570313 4.511719 10.085938 10.082031 10.085938h.375c5.570313 0 10.085938-4.515625 10.085938-10.085938 0-5.570312-4.515625-10.085937-10.085938-10.085937zm0 0"/><path d="m367.4375 281.179688c-5.570312 0-10.082031 4.515624-10.082031 10.085937v.203125c0 5.570312 4.511719 10.085938 10.082031 10.085938s10.085938-4.515626 10.085938-10.085938v-.203125c0-5.570313-4.515626-10.085937-10.085938-10.085937zm0 0"/></svg>
