<svg id="icon" height="511pt" viewBox="0 -62 511.9999 511" width="511pt" xmlns="http://www.w3.org/2000/svg"><g fill-rule="evenodd"><path d="m483.222656 114.960938c17.285156-27.824219 24.167969-62.089844 13.796875-80.070313l-174.148437 100.578125c58.230468 29.328125 81.890625 105 44.03125 161.898438-3.03125 4.566406-6.375 8.453124-9.546875 12.679687 23.347656 7.515625 57.804687 6.492187 77.441406-4.851563 20.144531-8.453124 46.46875-45.664062 30.460937-91.300781 20.597657-24.308593 29.242188-59.820312 17.964844-98.933593zm0 0" fill="#bdd9ff"/><path d="m28.75 114.960938c-11.25 39.113281-2.605469 74.625 17.992188 98.933593-16.007813 45.636719 10.316406 82.847657 30.460937 91.300781 19.636719 11.34375 54.09375 12.367188 77.441406 4.851563-3.171875-4.226563-6.542969-8.113281-9.578125-12.679687-37.628906-56.613282-14.421875-131.804688 43.15625-161.445313l-173.242187-101.03125c-10.371094 17.984375-3.515625 52.246094 13.769531 80.070313zm0 0" fill="#bdd9ff"/><path d="m188.222656 135.921875c-57.578125 29.640625-80.785156 104.832031-43.15625 161.445313 3.03125 4.566406 6.40625 8.453124 9.578125 12.679687 6.742188 9.019531 12.636719 19.683594 12.636719 42.175781v24.191406h177.4375v-24.191406c0-22.492187 5.894531-33.15625 12.636719-42.175781 3.175781-4.226563 6.515625-8.113281 9.550781-12.679687 37.855469-56.898438 14.195312-132.570313-44.035156-161.898438-9.71875-4.90625-20.429688-8.511719-31.960938-10.523438l-46.726562 65.40625 10.769531-66.769531-1.417969-1.445312c-8.5.113281-17.058594.765625-26.496094 1.929687-14.195312 1.730469-27.199218 5.871094-38.816406 11.855469zm0 0" fill="#f9f9f9"/><path d="m290.9375 124.945312 14.59375-20.421874-23.917969-26.519532 27.316407-67.421875h-51.117188l-34.425781 81.007813 30.148437 30.546875 1.417969 1.445312-10.769531 66.769531zm0 0" fill="#ffc15a"/><path d="m227.804688 237.238281-25.046876-25.101562c-6.601562-6.609375-17.425781-6.609375-24.027343 0-13.542969 13.554687-13.542969 35.566406 0 49.125 13.574219 13.558593 35.53125 13.558593 49.078125 0 6.597656-6.609375 6.597656-17.417969-.003906-24.023438zm0 0" fill="#b3b0b5"/><path d="m283.484375 237.238281 25.078125-25.101562c6.601562-6.609375 17.398438-6.609375 24 0 13.542969 13.554687 13.542969 35.566406 0 49.125-13.542969 13.558593-35.535156 13.558593-49.078125 0-6.601563-6.609375-6.601563-17.417969 0-24.023438zm0 0" fill="#b3b0b5"/></g><path d="m209.890625 205.007812c-5.097656-5.101562-11.898437-7.914062-19.148437-7.914062s-14.050782 2.8125-19.148438 7.914062c-17.457031 17.472657-17.457031 45.902344.007812 63.386719 8.46875 8.457031 19.71875 13.117188 31.675782 13.117188 11.960937 0 23.207031-4.660157 31.660156-13.125 10.542969-10.554688 10.542969-27.726563.003906-38.273438zm10.78125 49.125c-4.644531 4.652344-10.824219 7.214844-17.394531 7.214844-6.574219 0-12.761719-2.566406-17.414063-7.210937-9.605469-9.617188-9.605469-25.261719 0-34.875 1.289063-1.289063 3.019531-2 4.878907-2 1.859374 0 3.59375.710937 4.875 1.996093l25.054687 25.105469c2.691406 2.695313 2.691406 7.078125 0 9.769531zm0 0"/><path d="m339.695312 205.007812c-5.097656-5.101562-11.890624-7.914062-19.132812-7.914062s-14.039062 2.8125-19.136719 7.914062l-25.074219 25.101563c-10.542968 10.550781-10.542968 27.722656 0 38.277344 8.453126 8.464843 19.703126 13.125 31.671876 13.125s23.214843-4.660157 31.671874-13.125c17.457032-17.472657 17.457032-45.90625 0-63.378907zm-14.265624 49.125c-4.648438 4.652344-10.828126 7.210938-17.40625 7.210938-6.578126 0-12.757813-2.558594-17.402344-7.210938-2.691406-2.695312-2.691406-7.078124 0-9.769531l25.074218-25.101562c1.289063-1.289063 3.019532-2 4.867188-2s3.578125.710937 4.867188 2c9.601562 9.613281 9.601562 25.257812 0 34.871093zm0 0"/><path d="m94.183594 93.808594.171875.085937c1.449219.726563 2.992187 1.070313 4.511719 1.070313 3.695312 0 7.257812-2.039063 9.027343-5.566406 2.496094-4.980469.484375-11.042969-4.496093-13.542969l-.171876-.082031c-4.980468-2.5-11.039062-.488282-13.539062 4.496093-2.496094 4.976563-.484375 11.039063 4.496094 13.539063zm0 0"/><path d="m505.757812 29.855469c-1.335937-2.320313-3.539062-4.007813-6.125-4.703125-2.582031-.695313-5.335937-.332032-7.652343 1.007812l-48.34375 27.910156c-4.820313 2.785157-6.472657 8.949219-3.6875 13.773438 2.785156 4.820312 8.953125 6.476562 13.773437 3.691406l37.675782-21.753906c1.359374 9.699219-.457032 22.625-5.324219 36.242188-2.9375 8.226562-6.71875 16.027343-11.097657 23.140624-.230468.324219-.4375.660157-.625 1.007813-10.484374 16.652344-24.292968 29.398437-38.472656 34.753906-5.210937 1.96875-7.839844 7.789063-5.867187 12.996094 1.523437 4.035156 5.359375 6.523437 9.433593 6.523437 1.183594 0 2.386719-.210937 3.5625-.65625 13.421876-5.070312 24.996094-13.972656 34.597657-24.578124 2.382812 25.691406-4.539063 49.4375-19.050781 67.148437-.667969.597656-1.242188 1.277344-1.726563 2.015625-8.289063 9.46875-18.828125 17.089844-31.359375 22.148438-5.164062 2.085937-7.664062 7.960937-5.578125 13.125 1.585937 3.925781 5.367187 6.308593 9.355469 6.308593 1.257812 0 2.535156-.234375 3.773437-.734375 9.6875-3.910156 18.597657-9.238281 26.535157-15.722656 3.875 31.910156-14.570313 56.484375-28.660157 62.394531-.394531.167969-.773437.355469-1.144531.570313-12.847656 7.421875-35.210938 10.054687-54.953125 7.214844.167969-.246094.339844-.476563.503906-.726563 22.539063-33.875 26.257813-76.765625 9.953125-114.730469-9.246094-21.523437-24.09375-39.542968-42.59375-52.535156l34.980469-20.191406c4.824219-2.785156 6.476563-8.949219 3.691406-13.773438-2.78125-4.824218-8.949219-6.476562-13.773437-3.691406l-45.207032 26.09375c-5.074218-2.28125-10.320312-4.230469-15.714843-5.828125l7.097656-7.910156c2.753906-3.855469 2.457031-9.101563-.714844-12.617188l-19.6875-21.832031 24.945313-61.570312c1.257812-3.105469.890625-6.636719-.984375-9.417969s-5.007813-4.449219-8.363281-4.449219h-51.117188c-4.042969 0-7.699219 2.417969-9.28125 6.140625l-34.425781 81.003906c-1.597657 3.761719-.769531 8.117188 2.101562 11.027344l14.613281 14.8125c-1.640624.175781-3.300781.363281-5.011718.574219-13.082032 1.609375-25.554688 5.191406-37.09375 10.480468l-45.597656-26.597656c-4.808594-2.804687-10.984376-1.179687-13.789063 3.628906-2.808594 4.8125-1.183594 10.984376 3.628906 13.792969l35.652344 20.796875c-17.296875 12.3125-31.363281 29.074219-40.59375 49.15625-17.800781 38.722656-14.570313 82.699219 8.648437 117.632813.167969.253906.339844.488281.511719.738281-19.738281 2.832031-42.085937.199219-54.929687-7.222656-.371094-.210938-.75-.402344-1.144532-.566406-14.089843-5.910157-32.53125-30.484376-28.660156-62.394532 7.9375 6.484375 16.847656 11.808594 26.539063 15.722656 1.234375.5 2.511719.734376 3.769531.734376 3.992188 0 7.769531-2.382813 9.355469-6.308594 2.085937-5.164063-.410157-11.042969-5.574219-13.125-12.515625-5.054688-23.042969-12.65625-31.332031-22.105469-.496094-.765625-1.089844-1.46875-1.785157-2.082031-14.511718-17.714844-21.433593-41.457032-19.046874-67.140625 9.597656 10.613281 21.171874 19.519531 34.589843 24.59375 1.175781.441406 2.382813.652343 3.566407.652343 4.074218 0 7.910156-2.484374 9.433593-6.519531 1.96875-5.207031-.65625-11.027343-5.867187-12.996093-20.453125-7.734376-40.148438-30.855469-50.171875-58.902344-4.855469-13.59375-6.671875-26.492188-5.328125-36.1875l37.164062 21.675781c4.8125 2.804687 10.988282 1.179687 13.792969-3.632813 2.804687-4.808593 1.179687-10.984374-3.628906-13.789062l-47.859375-27.914062c-2.316406-1.351563-5.078125-1.722657-7.671875-1.035157-2.589844.691407-4.804688 2.386719-6.144531 4.710938-8.554688 14.835937-8.304688 37.785156.6875 62.953125 2.710937 7.589844 6.386718 15.667968 10.980468 23.617187-7.238281 28.28125-5.214844 55.878907 5.933594 80.070313 3.210938 6.960937 7.140625 13.457031 11.667969 19.433594-13.652344 47.167968 12.453125 87.460937 37.1875 98.304687 13.414062 7.566406 31.050781 10.714844 48.082031 10.714844 10.449219 0 20.667969-1.191407 29.550781-3.269531 4.054688 6.871093 6.863281 15.527343 6.863281 30.542968v24.191406c0 5.570313 4.515626 10.085938 10.085938 10.085938h177.4375c5.566406 0 10.082031-4.515625 10.082031-10.085938v-24.191406c0-15.015625 2.804688-23.675781 6.851563-30.546875 8.882812 2.082031 19.105468 3.273438 29.5625 3.273438 17.03125 0 34.671875-3.148438 48.085937-10.714844 24.734375-10.84375 50.839844-51.140625 37.183594-98.3125 4.523437-5.976563 8.453125-12.46875 11.65625-19.429687 11.136719-24.179688 13.15625-51.765626 5.925781-80.042969 4.601563-7.953125 8.285156-16.042969 11-23.636719 8.996094-25.167969 9.25-48.117188.691406-62.957031zm-241.273437-9.1875h29.480469l-21.695313 53.550781c-1.449219 3.578125-.730469 7.671875 1.855469 10.539062l18.488281 20.5-9.730469 13.613282c-.058593.074218-.125.136718-.179687.214844l-21.710937 30.394531 3.914062-24.289063c.515625-3.175781-.519531-6.402344-2.773438-8.6875l-26.824218-27.1875zm94.023437 271.117187c-1.726562 2.597656-3.636718 5.015625-5.65625 7.578125-8.539062 10.832031-18.21875 23.113281-18.21875 52.859375v14.109375h-24.203124v-23.070312c0-5.570313-4.515626-10.085938-10.082032-10.085938-5.570312 0-10.085937 4.515625-10.085937 10.085938v23.070312h-24.175781v-23.070312c0-5.570313-4.515626-10.085938-10.085938-10.085938-5.566406 0-10.082031 4.515625-10.082031 10.085938v23.070312h-24.203125v-23.070312c0-5.570313-4.515625-10.085938-10.085938-10.085938-5.566406 0-10.082031 4.515625-10.082031 10.085938v23.070312h-24.175781v-14.109375c0-29.734375-9.6875-42.015625-18.238282-52.847656-2.023437-2.566406-3.9375-4.988281-5.664062-7.589844-19.320312-29.066406-21.980469-65.722656-7.121094-98.046875 15.128906-32.90625 45.757813-55.210937 81.929688-59.664062 5.363281-.660157 10.289062-1.136719 15.003906-1.441407l-9.050781 56.113282c-.1875 1.164062-.230469 1.6875-.121094 1.847656.09375 3.941406 2.492187 7.542969 6.242187 9.085938 4.332032 1.78125 9.320313.34375 12.039063-3.464844l42.917969-60.078125c31.929687 7.546875 58.351562 29.628906 71.414062 60.046875 13.605469 31.679687 10.535156 67.417968-8.214844 95.601562zm0 0"/><path d="m409.84375 95.304688c1.515625 0 3.054688-.339844 4.503906-1.066407l.171875-.085937c4.980469-2.492188 7-8.550782 4.507813-13.535156-2.492188-4.980469-8.550782-7-13.535156-4.507813l-.167969.082031c-4.984375 2.492188-7.003907 8.550782-4.511719 13.535156 1.769531 3.535157 5.332031 5.578126 9.03125 5.578126zm0 0"/></svg>
