<svg id="icon" height="512pt" viewBox="0 -75 512 512" width="512pt" xmlns="http://www.w3.org/2000/svg"><g fill-rule="evenodd"><path d="m394.578125 10.082031h-277.183594l22.554688 53.953125c2.351562 5.660156 4.5625 11.378906 10.117187 11.378906h211.839844c5.582031 0 7.765625-5.71875 10.144531-11.378906zm0 0" fill="#e8e7e9"/><path d="m361.90625 75.414062h-211.839844c-5.554687 0-7.765625-5.71875-10.117187-11.378906l-22.554688-53.953125h-75.941406c-17.257813 0-31.367187 14.097657-31.367187 31.335938v279.164062c0 17.238281 14.109374 31.335938 31.367187 31.335938h429.09375c17.230469 0 31.367187-14.097657 31.367187-31.335938v-279.164062c0-17.238281-14.136718-31.335938-31.367187-31.335938h-75.96875l-22.527344 53.953125c-2.378906 5.660156-4.5625 11.378906-10.144531 11.378906zm-295.320312 61.371094h378.828124c5.46875 0 9.917969 4.472656 9.917969 9.90625v143.542969c0 5.464844-4.449219 9.9375-9.917969 9.9375h-378.828124c-5.46875 0-9.945313-4.472656-9.945313-9.9375v-143.542969c0-5.433594 4.476563-9.90625 9.945313-9.90625zm0 0" fill="#60a4ff"/><path d="m445.414062 136.785156h-378.828124c-5.46875 0-9.945313 4.472656-9.945313 9.90625v143.542969c0 5.464844 4.476563 9.9375 9.945313 9.9375h378.828124c5.46875 0 9.917969-4.472656 9.917969-9.9375v-143.542969c0-5.433594-4.449219-9.90625-9.917969-9.90625zm-296.058593 42.714844h210.679687c20.6875 0 37.460938 16.617188 37.460938 37.109375 0 20.496094-16.773438 37.109375-37.460938 37.109375h-210.679687c-20.683594 0-37.429688-16.613281-37.429688-37.109375 0-20.492187 16.746094-37.109375 37.429688-37.109375zm0 0" fill="#bdd9ff"/><path d="m186.816406 216.609375c0-20.492187-16.773437-37.109375-37.460937-37.109375-20.683594 0-37.429688 16.617188-37.429688 37.109375 0 20.496094 16.746094 37.109375 37.429688 37.109375 20.6875 0 37.460937-16.613281 37.460937-37.109375zm0 0" fill="#b3b0b5"/><path d="m149.355469 179.5c20.6875 0 37.460937 16.617188 37.460937 37.109375 0 20.496094-16.773437 37.109375-37.460937 37.109375h210.679687c-20.683594 0-37.429687-16.613281-37.429687-37.109375 0-20.492187 16.746093-37.109375 37.429687-37.109375zm0 0" fill="#e8e7e9"/><path d="m322.605469 216.609375c0 20.496094 16.746093 37.109375 37.429687 37.109375 20.6875 0 37.460938-16.613281 37.460938-37.109375 0-20.492187-16.773438-37.109375-37.460938-37.109375-20.683594 0-37.429687 16.617188-37.429687 37.109375zm0 0" fill="#b3b0b5"/></g><path d="m470.546875 0h-75.953125c-.035156 0-.070312 0-.105469 0h-277c-.042969 0-.082031 0-.125 0h-75.910156c-22.859375 0-41.453125 18.578125-41.453125 41.417969v279.164062c0 22.839844 18.59375 41.417969 41.453125 41.417969h429.09375c22.859375 0 41.453125-18.578125 41.453125-41.417969v-279.164062c0-22.839844-18.59375-41.417969-41.453125-41.417969zm-91.105469 20.164062-16.6875 39.964844-.265625.636719c-.597656 1.417969-1.425781 3.398437-2.085937 4.566406h-208.816406c-.675782-1.191406-1.519532-3.226562-2.121094-4.679687l-16.925782-40.488282zm112.390625 300.417969c0 11.71875-9.550781 21.253907-21.285156 21.253907h-429.09375c-11.734375 0-21.285156-9.535157-21.285156-21.253907v-279.164062c0-11.71875 9.550781-21.25 21.285156-21.25h69.226563l19.957031 47.738281.195312.46875c2.652344 6.40625 7.097657 17.125 19.234375 17.125h211.839844c12.085938 0 16.527344-10.605469 19.183594-16.941406l20.207031-48.390625h69.25c11.734375 0 21.285156 9.53125 21.285156 21.25zm0 0"/><path d="m445.503906 126.699219c-.03125 0-.066406 0-.101562 0l-139.699219.171875c-5.570313.007812-10.078125 4.527344-10.070313 10.097656.003907 5.5625 4.519532 10.066406 10.082032 10.066406h.011718l139.519532-.167968v143.222656h-378.519532v-143.222656h149.21875c5.570313 0 10.085938-4.515626 10.085938-10.082032 0-5.570312-4.515625-10.085937-10.085938-10.085937h-149.359374c-11.042969 0-20.027344 8.96875-20.027344 19.992187v143.542969c0 11.039063 8.984375 20.019531 20.027344 20.019531h378.828124c11.027344 0 20-8.980468 20-20.019531v-143.542969c0-5.351562-2.097656-10.386718-5.90625-14.179687-3.773437-3.75-8.753906-5.8125-14.003906-5.8125zm0 0"/><path d="m91.152344 59.308594c0-5.570313-4.515625-10.082032-10.085938-10.082032h-34.65625c-5.566406 0-10.082031 4.511719-10.082031 10.082032 0 5.570312 4.515625 10.082031 10.082031 10.082031h34.65625c5.570313 0 10.085938-4.511719 10.085938-10.082031zm0 0"/><path d="m465.558594 49.226562h-34.625c-5.570313 0-10.085938 4.511719-10.085938 10.082032 0 5.570312 4.515625 10.082031 10.085938 10.082031h34.625c5.570312 0 10.085937-4.511719 10.085937-10.082031 0-5.566406-4.515625-10.082032-10.085937-10.082032zm0 0"/><path d="m360.035156 169.417969h-210.679687c-26.199219 0-47.515625 21.167969-47.515625 47.191406 0 23.285156 17.070312 42.671875 39.429687 46.496094 1.136719.445312 2.371094.699219 3.667969.699219h215.097656c26.21875 0 47.546875-21.171876 47.546875-47.195313s-21.328125-47.191406-47.546875-47.191406zm-210.679687 74.21875c-15.078125 0-27.347657-12.125-27.347657-27.027344s12.269532-27.027344 27.347657-27.027344c15.09375 0 27.375 12.125 27.375 27.027344s-12.28125 27.027344-27.375 27.027344zm38.941406-54.054688h132.820313c-5.410157 7.664063-8.597657 16.980469-8.597657 27.027344s3.1875 19.367187 8.597657 27.027344h-132.820313c5.414063-7.660157 8.605469-16.980469 8.605469-27.027344s-3.191406-19.363281-8.605469-27.027344zm171.738281 54.054688c-15.078125 0-27.347656-12.125-27.347656-27.027344s12.269531-27.027344 27.347656-27.027344c15.097656 0 27.375 12.125 27.375 27.027344s-12.277344 27.027344-27.375 27.027344zm0 0"/><path d="m260.71875 146.867188h.195312c5.570313 0 10.085938-4.515626 10.085938-10.082032 0-5.570312-4.515625-10.085937-10.085938-10.085937h-.195312c-5.570312 0-10.085938 4.515625-10.085938 10.085937 0 5.566406 4.515626 10.082032 10.085938 10.082032zm0 0"/></svg>
