<svg id="icon" height="512pt" viewBox="-3 0 512 512.00025" width="512pt" xmlns="http://www.w3.org/2000/svg"><g fill-rule="evenodd"><path d="m385.929688 237.5c53.664062-80.65625-20.328126-179.390625-109.734376-176.21875-89.378906-3.171875-163.371093 95.5625-109.703124 176.21875 2.625 3.996094 5.535156 7.453125 8.363281 11.105469 22.179687 6.339843 41.90625 18.472656 57.464843 34.660156 9.132813 9.507813 16.839844 20.414063 22.722657 32.351563h108.933593v-23.898438c0-32.691406 12.589844-40.140625 21.953126-54.21875zm0 0" fill="#f9f9f9"/><path d="m276.195312 61.28125c89.40625-3.171875 163.398438 95.5625 109.734376 176.21875-9.363282 14.078125-21.953126 21.527344-21.953126 54.21875v23.898438h-108.933593c8.507812 17.246093 13.300781 36.632812 13.300781 57.132812 0 4.566406-.226562 9.078125-.683594 13.503906-1.855468 17.84375-7.363281 34.632813-15.730468 49.566406-10.761719 19.214844-26.289063 35.375-44.988282 46.9375h240.617188v-472.585937h-323.800782c-24.863281 0-45.21875 20.359375-45.21875 45.253906v203.316407c18.070313-9.648438 38.738282-15.132813 60.660157-15.132813 12.363281 0 24.324219 1.742187 35.65625 4.996094-2.828125-3.652344-5.738281-7.109375-8.363281-11.105469-53.667969-80.65625 20.324218-179.390625 109.703124-176.21875zm0 0" fill="#60a4ff"/><path d="m447.628906 10.089844v472.746094h37.777344c5.828125 0 10.59375-4.769532 10.59375-10.59375v-451.558594c0-5.824219-4.769531-10.59375-10.59375-10.59375h-27.183594c-1.742187-.199219-6.113281 0-7.910156 0zm0 0" fill="#ffc15a"/><path d="m248.820312 175.257812-19.613281-19.640624c-5.164062-5.171876-13.644531-5.171876-18.8125 0-10.589843 10.617187-10.589843 27.808593 0 38.429687 10.621094 10.621094 27.804688 10.621094 38.425781 0 5.164063-5.167969 5.164063-13.621094 0-18.789063zm0 0" fill="#b3b0b5"/><path d="m255.042969 315.617188c-5.882813-11.933594-13.589844-22.839844-22.722657-32.347657-15.558593-16.191406-35.285156-28.324219-57.464843-34.664062-11.332031-3.253907-23.292969-4.996094-35.65625-4.996094-21.921875 0-42.589844 5.484375-60.660157 15.132813-40.734374 21.730468-68.453124 64.640624-68.453124 114.007812 0 54.503906 33.710937 101.101562 81.441406 120.058594 14.730468 5.882812 30.828125 9.109375 47.671875 9.109375 16.871093 0 32.945312-3.226563 47.703125-9.109375 6.992187-2.769532 13.699218-6.140625 20.039062-10.050782 18.699219-11.5625 34.226563-27.722656 44.988282-46.9375 8.363281-14.933593 13.875-31.722656 15.730468-49.566406.457032-4.425781.683594-8.9375.683594-13.503906 0-20.5-4.792969-39.886719-13.300781-57.132812zm-115.84375 25.296874c17.585937 0 31.859375 14.246094 31.859375 31.835938 0 17.585938-14.273438 31.859375-31.859375 31.859375-17.585938 0-31.828125-14.273437-31.828125-31.859375 0-17.589844 14.246094-31.835938 31.828125-31.835938zm0 0" fill="#e8e7e9"/><path d="m139.199219 404.613281c17.558593 0 31.859375-14.304687 31.859375-31.863281 0-17.53125-14.300782-31.835938-31.859375-31.835938-17.527344 0-31.828125 14.304688-31.828125 31.835938 0 17.558594 14.300781 31.863281 31.828125 31.863281zm0 0" fill="#60a4ff"/><path d="m307.023438 175.257812 19.613281-19.640624c5.195312-5.171876 13.644531-5.171876 18.8125 0 10.589843 10.617187 10.589843 27.808593 0 38.429687-10.621094 10.621094-27.804688 10.621094-38.425781 0-5.164063-5.167969-5.164063-13.621094 0-18.789063zm0 0" fill="#b3b0b5"/></g><path d="m236.339844 148.484375c-4.40625-4.40625-10.277344-6.832031-16.539063-6.832031-6.257812 0-12.132812 2.425781-16.535156 6.832031-.003906 0-.007813.007813-.011719.007813-14.480468 14.523437-14.480468 38.152343.011719 52.683593 7.039063 7.039063 16.394531 10.917969 26.34375 10.917969 9.945313 0 19.300781-3.878906 26.339844-10.917969 9.113281-9.113281 9.113281-23.9375.007812-33.042969zm5.347656 38.429687c-3.230469 3.230469-7.519531 5.011719-12.082031 5.011719-4.554688 0-8.847657-1.78125-12.066407-5.003906-6.652343-6.664063-6.652343-17.511719-.007812-24.183594.804688-.796875 1.765625-.914062 2.269531-.914062.507813 0 1.472657.117187 2.269531.914062l19.617188 19.652344c1.226562 1.226563 1.226562 3.296875 0 4.523437zm0 0"/><path d="m139.199219 330.828125c-23.109375 0-41.910157 18.804687-41.910157 41.921875 0 23.128906 18.800782 41.945312 41.910157 41.945312 23.128906 0 41.945312-18.816406 41.945312-41.945312 0-23.117188-18.816406-41.921875-41.945312-41.921875zm0 63.699219c-11.988281 0-21.742188-9.769532-21.742188-21.777344 0-11.996094 9.753907-21.75 21.742188-21.75 12.007812 0 21.773437 9.753906 21.773437 21.75 0 12.007812-9.765625 21.777344-21.773437 21.777344zm0 0"/><path d="m124.410156 288.980469c-1.273437-5.421875-6.707031-8.78125-12.125-7.507813-33.484375 7.878906-59.085937 34.839844-65.222656 68.691406-.992188 5.480469 2.644531 10.726563 8.125 11.722657.609375.109375 1.210938.164062 1.808594.164062 4.78125 0 9.027344-3.417969 9.914062-8.289062 4.703125-25.949219 24.324219-46.617188 49.992188-52.652344 5.421875-1.277344 8.78125-6.707031 7.507812-12.128906zm0 0"/><path d="m485.324219.0898438h-26.722657c-1.675781-.1289063-3.785156-.0976563-6.472656-.0351563-.75.015625-1.417968.0351563-1.886718.0351563h-326.484376c-30.496093 0-55.300781 24.8242182-55.300781 55.3359372v197.464844c-40.945312 24.269531-68.457031 68.90625-68.457031 119.859375 0 76.78125 62.445312 139.25 139.199219 139.25 25.664062 0 49.714843-6.996094 70.378906-19.15625h275.75c11.398437 0 20.675781-9.277344 20.675781-20.679688v-451.398437c0-11.402344-9.277344-20.6757812-20.679687-20.6757812zm-346.125 491.7421872c-65.632813 0-119.03125-53.421875-119.03125-119.082031 0-65.648438 53.398437-119.054688 119.03125-119.054688 65.648437 0 119.0625 53.40625 119.0625 119.054688 0 65.660156-53.410157 119.082031-119.0625 119.082031zm180.871093-219.046875c-5.566406 0-10.082031 4.511719-10.082031 10.082032v22.664062h-23.707031v-22.664062c0-5.570313-4.515625-10.082032-10.085938-10.082032-5.566406 0-10.082031 4.511719-10.082031 10.082032v22.664062h-4.96875c-17.328125-31.359375-46.175781-54.980469-80.304687-65.660156-.152344-.191406-.304688-.386719-.457032-.578125-1.960937-2.492188-3.8125-4.847657-5.488281-7.375-.003906 0-.003906-.003907-.007812-.003907-20.636719-31.023437-21.894531-67.753906-3.445313-100.769531 21.132813-37.820312 62.097656-61.296875 104.398438-59.789062.238281.011719.476562.011719.714844 0 42.304687-1.488281 83.292968 21.972656 104.429687 59.796875 18.449219 33.015625 17.191406 69.738281-3.449219 100.761718-1.707031 2.5625-3.59375 4.957032-5.59375 7.488282-8.457031 10.71875-18.046875 22.871094-18.046875 52.316406v13.8125h-23.738281v-22.664062c0-5.566407-4.515625-10.082032-10.085938-10.082032zm165.761719 199.378906c0 .257813-.25.507813-.507812.507813h-27.679688v-181.265625c0-5.570312-4.515625-10.085938-10.085937-10.085938-5.566406 0-10.082032 4.515626-10.082032 10.085938v181.265625h-201.417968c8.238281-7.992187 15.496094-16.984375 21.570312-26.789063.140625.003907.273438.019532.414063.019532h116.378906c5.570313 0 10.085937-4.515625 10.085937-10.085938 0-5.566406-4.515624-10.082031-10.085937-10.082031h-106.472656c3.855469-9.335937 6.722656-19.175781 8.472656-29.394531h98c5.570313 0 10.085937-4.515625 10.085937-10.085938 0-5.570312-4.515624-10.085937-10.085937-10.085937h-96.035156c.027343-1.136719.042969-2.277344.042969-3.417969 0-16.503906-2.894532-32.347656-8.191407-47.046875h93.738281c5.566407 0 10.082032-4.515625 10.082032-10.085937v-23.898438c0-22.445312 6.355468-30.496094 13.714844-39.824219 2.160156-2.734375 4.390624-5.5625 6.550781-8.808593 24.976562-37.539063 26.53125-81.921876 4.261719-121.773438-24.726563-44.25-72.753907-71.722656-122.390626-70.125-49.675781-1.613281-97.640624 25.875-122.363281 70.117188-20.535156 36.746093-20.796875 77.34375-1.136719 112.875-4.441406-.425782-8.941406-.65625-13.496093-.65625-17.832031 0-34.890625 3.378906-50.574219 9.515624v-187.613281c0-19.390625 15.757812-35.167969 35.132812-35.167969h313.726563l.191406 180.707032c.003907 5.566406 4.519531 10.074218 10.082031 10.074218h.011719c5.570313-.003906 10.078125-4.527343 10.074219-10.097656l-.1875-180.683594h.367188.027343 27.277344c.257813 0 .507813.25.507813.507813v451.398437zm0 0"/><path d="m447.628906 235.972656c-5.574218 0-10.089844 4.519532-10.089844 10.089844v.199219c0 5.574219 4.515626 10.089843 10.089844 10.089843 5.570313 0 10.085938-4.519531 10.085938-10.089843v-.199219c0-5.570312-4.515625-10.089844-10.085938-10.089844zm0 0"/><path d="m352.589844 148.496094c-.003906-.003906-.007813-.007813-.007813-.011719-9.097656-9.09375-23.925781-9.105469-33.082031.007813l-19.605469 19.636718c-9.109375 9.113282-9.109375 23.9375 0 33.046875 7.039063 7.042969 16.394531 10.921875 26.34375 10.921875 9.945313 0 19.300781-3.878906 26.351563-10.929687 14.480468-14.523438 14.480468-38.152344 0-52.671875zm-14.273438 38.417968c-3.230468 3.230469-7.519531 5.011719-12.078125 5.011719-4.558593 0-8.851562-1.78125-12.082031-5.011719-1.226562-1.226562-1.226562-3.300781.007812-4.53125l19.585938-19.621093c.625-.621094 1.464844-.933594 2.304688-.933594.824218 0 1.644531.304687 2.257812.910156 6.644531 6.671875 6.644531 17.519531.003906 24.175781zm0 0"/></svg>
