<svg id="icon" height="512pt" viewBox="0 -4 512.00032 512" width="512pt" xmlns="http://www.w3.org/2000/svg"><g fill-rule="evenodd"><path d="m104.476562 417.820312-21.292968-21.988281c-3.351563-3.464843-9.371094-3.804687-12.550782 0l-13.171874 15.769531-31.203126 37.410157c-3.179687 3.804687-3.75 9.089843-.398437 12.554687l11.15625 11.503906c3.351563 3.46875 8.660156 3.070313 12.550781 0l38.386719-30.050781 16.128906-12.644531c3.917969-3.066406 3.746094-9.117188.394531-12.554688zm0 0" fill="#ffc15a"/><path d="m83.183594 395.832031 21.296875 21.988281c3.347656 3.4375 3.519531 9.488282-.398438 12.554688l-16.125 12.644531 11.101563 11.445313c35.179687 36.332031 106.585937 58.261718 139.207031 17.585937l38.730469-48.292969c-26.804688-39.425781 11.269531-84.480468 55.875-76.78125 46.054687-51.246093 64.28125-112.292968 27.425781-169.417968l-110.902344 114.507812c-1.875 1.929688-5.023437 1.875-6.84375 0l-30.492187-31.476562c-1.816406-1.875-1.789063-5.054688.199218-6.84375l118.59375-106.554688c-55.902343-38.660156-117.429687-22.324218-170.070312 22.128906 6.304688 44.828126-39.917969 81.527344-78.476562 53.492188l-48.75 37.890625c-41.167969 32.015625-22.574219 102.632813 12.492187 139.078125l11.414063 11.820312 13.175781-15.769531c3.175781-3.804687 9.195312-3.464843 12.546875 0zm0 0" fill="#ffd89e"/><path d="m212.058594 260.589844 30.492187 31.476562c1.820313 1.875 4.96875 1.929688 6.84375 0l110.902344-114.507812 44.519531-45.960938c-6.472656-1.222656-12.632812-4.347656-17.488281-9.375-4.882813-5.027344-7.808594-11.277344-8.804687-17.839844l-47.667969 42.808594-118.597657 106.554688c-1.988281 1.789062-2.015624 4.96875-.199218 6.84375zm0 0" fill="#ffc15a"/><path d="m378.523438 104.382812c.996093 6.5625 3.921874 12.8125 8.804687 17.839844 4.855469 5.027344 11.015625 8.152344 17.488281 9.375 10.621094 1.960938 22.175782-1.136718 30.664063-9.375l17.832031-17.269531 28.675781-27.8125 9.230469-8.976563c13.65625-13.234374 14.335938-34.882812 1.503906-48.148437-6.386718-6.589844-14.992187-9.882813-23.679687-9.914063h-.144531c-8.714844.027344-17.515626 3.324219-24.332032 9.914063l-11.441406 11.109375-28.675781 27.808594-15.617188 15.167968c-8.460937 8.183594-11.953125 19.628907-10.308593 30.28125zm0 0" fill="#ffc15a"/></g><path d="m163.292969 451.546875c1.757812 1.234375 3.773437 1.824219 5.769531 1.824219 3.175781 0 6.300781-1.496094 8.257812-4.292969 6.21875-8.875 13.375-28.230469 1.023438-44.726563-.75-1.1875-6.550781-11.070312.945312-21.367187 3.269532-4.5 2.28125-10.796875-2.21875-14.070313-4.496093-3.269531-10.796874-2.28125-14.070312 2.214844-16.242188 22.324219-1.796875 43.851563-1.175781 44.757813.097656.136719.195312.273437.296875.40625 6.835937 8.941406-.929688 20.683593-1.332032 21.28125-3.148437 4.550781-2.035156 10.796875 2.503907 13.972656zm0 0"/><path d="m120.328125 322.09375c-10.554687 7.195312-20.195313 1.097656-21.527344.183594-.050781-.039063-.003906-.003906-.101562-.070313-17.578125-12.492187-36.402344-5.898437-44.753907-.035156-4.554687 3.199219-5.652343 9.480469-2.457031 14.03125 3.195313 4.550781 9.476563 5.648437 14.03125 2.453125.109375-.074219 10.964844-7.527344 21.511719-.03125 1.335938.949219 10.492188 7.125 22.84375 7.125 6.59375 0 14.09375-1.761719 21.796875-7.015625 4.59375-3.132813 5.78125-9.398437 2.648437-13.992187-3.132812-4.59375-9.394531-5.78125-13.992187-2.648438zm0 0"/><path d="m496.449219 77.121094 1.773437-1.722656c17.667969-17.125 18.445313-45.109376 1.734375-62.382813 0-.003906-.003906-.007813-.007812-.007813-16.730469-17.257812-44.71875-17.355468-62.398438-.21875l-4.449219 4.316407-6.726562-6.492188c-4-3.863281-10.375-3.75-14.238281.25s-3.75 10.378907.25 14.242188l6.253906 6.035156-14.195313 13.777344-6.738281-6.515625c-3.996093-3.871094-10.375-3.765625-14.242187.234375-3.867188 3.996093-3.761719 10.375.238281 14.238281l6.277344 6.078125-8.15625 7.917969c-8.496094 8.234375-13.375 19.234375-13.746094 30.976562-.023437.800782-.023437 1.597656-.007813 2.390625l-38.1875 34.304688c-27.015624-16.636719-56.222656-22.492188-86.9375-17.390625-29.734374 4.9375-59.5625 19.902344-88.660156 44.472656-2.644531 2.234375-3.957031 5.667969-3.476562 9.097656 2.613281 18.566406-5.9375 37.230469-21.277344 46.441406-13.179688 7.914063-28.234375 7.003907-41.304688-2.5-3.625-2.636718-8.5625-2.558593-12.101562.195313l-48.753906 37.894531c-16.121094 12.535156-25.5 31.078125-27.125 53.621094-2.417969 33.574219 13.074218 73.917969 38.554687 100.40625l5.140625 5.320312-25.414062 30.453126c-6.730469 8.054687-6.691406 18.996093.101562 26.023437l11.148438 11.492187c3.570312 3.695313 8.277344 5.554688 13.136718 5.554688 4.40625 0 8.941407-1.53125 12.863282-4.625l31.25-24.476562 4.792968 4.945312c25 25.820312 63.21875 42.546875 96.484376 42.546875 1.507812 0 3.003906-.035156 4.488281-.105469 22.3125-1.039062 40.753906-9.878906 53.328125-25.5625l38.730468-48.289062c2.765626-3.449219 2.957032-8.304688.472657-11.960938-9.097657-13.382812-9.535157-28.476562-1.203125-41.410156 9.675781-15.023438 28.582031-22.972656 47.039062-19.789062 3.417969.59375 6.894532-.621094 9.210938-3.199219 7.15625-7.984375 13.535156-16.015625 18.960937-23.867188 3.160157-4.578125 2.011719-10.851562-2.566406-14.011719-4.578125-3.160156-10.847656-2.011718-14.007813 2.566407-4.058593 5.875-8.726562 11.882812-13.914062 17.917969-24.714844-2.183594-48.457031 8.992187-61.65625 29.476562-11.378906 17.664062-12.144531 38.550781-2.425781 57.132812l-34.351563 42.832032c-8.980468 11.199218-21.953125 17.269531-38.554687 18.046875-28.394531 1.332031-63.566407-13.617188-85.566407-36.339844l-3.316406-3.417969 7.320313-5.730468c3.941406-3.085938 6.402343-7.792969 6.746093-12.910157.359376-5.414062-1.578124-10.726562-5.324218-14.582031l-21.289063-21.976562c-3.742187-3.875-9.003906-5.988282-14.425781-5.789063-5.113281.183594-9.886719 2.492187-13.09375 6.332031l-5.980469 7.167969-3.621093-3.746094c-21.410157-22.253906-34.964844-57.199219-32.964844-84.980469 1.21875-16.925781 7.746094-30.105468 19.398437-39.164062l43.136719-33.53125c18.226562 10.230469 39.0625 10.097656 57.03125-.691406 20.90625-12.5625 32.84375-35.960938 31.421875-60.757813 30.871094-24.902343 85.90625-56.148437 142.8125-24.988281l-108.621094 97.574219c-2.945312 2.652343-4.714843 6.472656-4.851562 10.476562-.136719 4.035157 1.378906 7.992188 4.160156 10.859375l30.496094 31.476563c2.761719 2.851562 6.644531 4.488281 10.652343 4.488281h.003907c4 0 7.878906-1.632812 10.652343-4.492188l101.605469-104.902343c8.488281 16.738281 12.375 34.222656 11.5625 52.132812-.253906 5.554688 4.046875 10.265625 9.605469 10.515625.152344.007813.308594.011719.464844.011719 5.351562 0 9.804687-4.214844 10.050781-9.613281 1.074219-23.660156-4.65625-46.566406-16.996094-68.210938l35.675781-36.835937c.601563.03125 1.199219.0625 1.804688.070312.238281.003907.472656.003907.710938.003907 11.75 0 22.871093-4.527344 31.378906-12.789063l10.824218-10.5 6.742188 6.511719c1.953125 1.886718 4.476562 2.824218 6.992188 2.824218 2.636718 0 5.269531-1.03125 7.246093-3.078124 3.863281-4 3.75-10.375-.25-14.238282l-6.265625-6.050781 14.203125-13.773437 6.742188 6.527343c1.957031 1.890625 4.480469 2.832031 7 2.832031 2.636719 0 5.265625-1.027343 7.242187-3.070312 3.867188-3.996094 3.761719-10.371094-.234375-14.238281zm-419.449219 326.804687 19.203125 19.828125-52.847656 41.390625-9.378907-9.671875c.003907 0 .007813-.003906.011719-.007812zm276.257812-233.574219c-.011718.015626-.027343.03125-.042968.046876l-107.242188 110.726562-22.855468-23.597656 151.175781-135.804688c1.632812 2.679688 3.5625 5.199219 5.796875 7.503906 2.203125 2.277344 4.625 4.265626 7.21875 5.972657zm130.945313-109.414062-55.738281 54.0625c-4.820313 4.679688-11.105469 7.207031-17.75 7.097656-6.214844-.097656-11.953125-2.539062-16.15625-6.886718-3.21875-3.316407-5.292969-7.492188-6.042969-12.054688-.015625-.113281-.027344-.222656-.046875-.335938-.210938-1.414062-.304688-2.867187-.257812-4.34375.203124-6.480468 2.914062-12.570312 7.632812-17.148437l55.730469-54.082031c4.894531-4.742188 11.1875-7.117188 17.378906-7.117188 6.085937 0 12.070313 2.292969 16.53125 6.890625 8.992187 9.304688 8.421875 24.515625-1.28125 33.917969zm0 0"/><path d="m372.867188 279.828125c-5.34375-1.539063-10.921876 1.558594-12.457032 6.902344l-.054687.199219c-1.535157 5.347656 1.558593 10.925781 6.902343 12.457031.929688.269531 1.863282.394531 2.78125.394531 4.378907 0 8.410157-2.878906 9.675782-7.296875l.058594-.199219c1.53125-5.347656-1.558594-10.925781-6.90625-12.457031zm0 0"/></svg>
