<svg id="icon" height="511pt" viewBox="0 -5 511.99935 511" width="511pt" xmlns="http://www.w3.org/2000/svg"><g fill-rule="evenodd"><path d="m220.707031 222.359375h-84.179687c-12.476563 0-22.714844-10.207031-22.714844-22.707031s10.238281-22.734375 22.714844-22.734375h84.179687v-40.167969h-84.179687c-12.476563 0-22.714844-10.234375-22.714844-22.707031 0-12.5 10.238281-22.734375 22.714844-22.734375h84.179687v-11.84375c0-20.527344-16.777343-37.300782-37.3125-37.300782h-130.042969v55.59375c0 7.480469-5.164062 13.617188-11.5 13.617188h-10.125v323.492188h445.652344c0-142.40625-96.886718-138.507813-176.160156-140.714844-72.9375-1.089844-80.511719-34.953125-80.511719-57.402344zm0 0" fill="#b3b0b5"/><path d="m136.527344 222.359375h108.761718v-45.441406h-108.761718c-12.476563 0-22.714844 10.234375-22.714844 22.734375s10.238281 22.707031 22.714844 22.707031zm0 0" fill="#ff6977"/><path d="m136.527344 136.75h108.761718v-45.441406h-108.761718c-12.476563 0-22.714844 10.234375-22.714844 22.734375 0 12.472656 10.238281 22.707031 22.714844 22.707031zm0 0" fill="#ff6977"/><path d="m53.351562 97.757812v-73.570312c0-7.480469-5.164062-13.617188-11.5-13.617188h-20.277343c-6.3125 0-11.503907 6.136719-11.503907 13.617188v73.570312c0 7.484376 5.191407 13.617188 11.503907 13.617188h20.277343c6.335938 0 11.5-6.132812 11.5-13.617188zm0 0" fill="#ff6977"/><path d="m477.378906 434.867188h-450.816406c-4.875 0-8.890625 3.984374-8.890625 8.859374v37.816407c0 4.875 4.015625 8.890625 8.890625 8.890625h112.660156c.574219 0 14.027344-6.710938 22.402344-14.050782 4.789062-4.1875 7.6875-4.1875 12.476562 0 8.375 7.339844 21.824219 14.050782 22.398438 14.050782h296.050781c4.875 0 8.832031-4.015625 8.890625-8.890625l.488282-37.789063c.054687-4.871094-4.015626-8.886718-8.890626-8.886718zm0 0" fill="#e8e7e9"/></g><path d="m506.550781 430.457031c-3.558593-3.597656-8.484375-5.660156-13.515625-5.660156h-5.761718c-1.941407-59.148437-21.3125-98.269531-59.074219-119.394531-34.046875-19.046875-77.925781-20.117188-116.636719-21.058594-3.382812-.082031-6.738281-.164062-10.066406-.257812-.042969 0-.085938-.003907-.128906-.003907-70.589844-1.054687-70.589844-33.480469-70.589844-47.328125v-4.320312h14.511718c5.5625 0 10.070313-4.511719 10.070313-10.070313v-45.445312c0-5.5625-4.507813-10.070313-10.070313-10.070313h-14.511718v-20.027344h14.511718c5.5625 0 10.070313-4.507812 10.070313-10.070312v-45.441406c0-5.5625-4.507813-10.074219-10.070313-10.074219h-14.511718v-1.769531c0-26.117188-21.257813-47.371094-47.382813-47.371094h-119.972656v-7.90625c0-13.0625-9.675781-23.6875-21.570313-23.6875h-20.277343c-11.894531 0-21.574219 10.625-21.574219 23.6875v73.570312c0 13.0625 9.679688 23.6875 21.574219 23.6875h.082031v304.015626c-8.082031 2.167968-14.054688 9.523437-14.054688 18.265624v37.816407c0 10.453125 8.503907 18.957031 18.960938 18.957031h112.660156c1.933594 0 3.601563 0 13.320313-5.625 4.269531-2.472656 10.34375-6.289062 15.320312-10.570312 4.980469 4.285156 11.050781 8.101562 15.316407 10.570312 9.71875 5.625 11.386718 5.625 13.320312 5.625h296.050781c10.332031 0 18.835938-8.449219 18.960938-18.828125l.484375-37.800781c.0625-5.03125-1.875-9.796875-5.445313-13.414063zm-271.335937-218.167969h-98.6875c-6.972656 0-12.644532-5.667968-12.644532-12.636718 0-6.984375 5.671876-12.664063 12.644532-12.664063h98.6875zm0-85.613281h-98.6875c-6.972656 0-12.644532-5.667969-12.644532-12.632812 0-6.984375 5.671876-12.664063 12.644532-12.664063h98.6875zm-215.070313-28.917969v-73.570312c0-2.070312 1.039063-3.34375 1.496094-3.546875l20.128906-.011719c.429688.148438 1.511719 1.425782 1.511719 3.558594v73.570312c0 2.132813-1.082031 3.410157-1.429688 3.546876l-9.992187.007812c-.042969 0-.085937-.007812-.132813-.007812-.046874 0-.089843.007812-.136718.007812l-9.917969.007812c-.4375-.15625-1.527344-1.4375-1.527344-3.5625zm471.238281 382.601563h-292.753906c-3.546875-1.777344-12.222656-6.582031-17.902344-11.558594-8.535156-7.464843-17.191406-7.464843-25.742187.007813-5.667969 4.96875-14.34375 9.773437-17.886719 11.550781h-109.355468v-35.421875h3.972656.011718.011719c37.503907-.003906 76.769531-.046875 118.246094-.09375 46.203125-.050781 93.984375-.105469 142.457031-.105469 5.5625 0 10.070313-4.507812 10.070313-10.070312s-4.507813-10.070313-10.070313-10.070313c-48.488281 0-96.269531.054688-142.480468.105469-37.773438.039063-73.71875.082031-108.164063.089844v-303.347657h.054687c11.894532 0 21.574219-10.625 21.574219-23.6875v-45.519531h119.96875c15.019531 0 27.242188 12.214844 27.242188 27.226563v1.769531h-74.109375c-18.078125 0-32.785156 14.71875-32.785156 32.808594 0 18.074219 14.707031 32.777343 32.785156 32.777343h74.109375v20.023438h-74.109375c-18.078125 0-32.785156 14.71875-32.785156 32.808594 0 18.074218 14.707031 32.78125 32.785156 32.78125h74.109375v4.320312c0 43.855469 30.40625 66.554688 90.367187 67.46875 3.328125.089844 6.6875.171875 10.066406.257813 38.152344.925781 77.605469 1.890625 107.296876 18.5 30.941406 17.308593 46.941406 50.671875 48.761718 101.816406h-83.828125c-5.5625 0-10.070312 4.507813-10.070312 10.070313s4.507812 10.070312 10.070312 10.070312h108.539063zm0 0"/><path d="m337.957031 424.59375h-.171875c-5.5625 0-10.070312 4.511719-10.070312 10.074219s4.507812 10.070312 10.070312 10.070312h.171875c5.5625 0 10.070313-4.507812 10.070313-10.070312s-4.507813-10.074219-10.070313-10.074219zm0 0"/></svg>
