<svg id="icon" height="511pt" viewBox="1 -63 511.999 511" width="511pt" xmlns="http://www.w3.org/2000/svg"><g fill-rule="evenodd"><path d="m10.085938 30.589844v323.863281c0 10.988281 8.996093 20.007813 20.015624 20.007813h451.796876c10.992187 0 20.019531-9.019532 20.019531-20.007813v-323.863281c0-11.015625-9.027344-20.003906-20.019531-20.003906h-451.796876c-11.019531 0-20.015624 8.988281-20.015624 20.003906zm369.972656 96.84375c-12.003906 0-21.839844-9.800782-21.839844-21.796875v-30.585938c0-11.996093 9.835938-21.796875 21.839844-21.796875s21.808594 9.800782 21.808594 21.796875v30.585938c0 11.996093-9.804688 21.796875-21.808594 21.796875zm-314.207032 68.050781c0-71.894531 58.339844-130.207031 130.273438-130.207031 71.9375 0 130.246094 58.3125 130.246094 130.207031v1.996094c-1.070313 70.96875-58.976563 128.179687-130.246094 128.179687-71.933594 0-130.273438-58.28125-130.273438-130.175781zm0 0" fill="#b3b0b5"/><path d="m196.125 65.277344c-71.933594 0-130.273438 58.3125-130.273438 130.207031s58.339844 130.175781 130.273438 130.175781c71.269531 0 129.179688-57.210937 130.246094-128.179687v-1.996094c.003906-71.894531-58.308594-130.207031-130.246094-130.207031zm0 87.972656c23.316406 0 42.230469 18.90625 42.230469 42.234375 0 23.300781-18.914063 42.207031-42.230469 42.207031-23.339844 0-42.257812-18.90625-42.257812-42.207031 0-23.328125 18.917968-42.234375 42.257812-42.234375zm0 0" fill="#e8e7e9"/><path d="m358.21875 75.050781v30.585938c0 11.996093 9.835938 21.796875 21.835938 21.796875 12.003906 0 21.808593-9.800782 21.808593-21.796875v-30.585938c0-11.996093-9.804687-21.796875-21.808593-21.796875-12 0-21.835938 9.800782-21.835938 21.796875zm0 0" fill="#60a4ff"/><path d="m238.355469 195.484375c0-23.328125-18.914063-42.234375-42.230469-42.234375-23.339844 0-42.257812 18.90625-42.257812 42.234375 0 23.300781 18.917968 42.207031 42.257812 42.207031 23.316406 0 42.230469-18.90625 42.230469-42.207031zm0 0" fill="#b3b0b5"/></g><path d="m481.898438.5h-451.796876c-16.597656 0-30.101562 13.496094-30.101562 30.089844v323.863281c0 16.59375 13.503906 30.089844 30.101562 30.089844h180.167969c5.570313 0 10.085938-4.515625 10.085938-10.082031 0-5.570313-4.515625-10.085938-10.085938-10.085938h-180.167969c-5.476562 0-9.929687-4.449219-9.929687-9.921875v-323.863281c0-5.472656 4.453125-9.921875 9.929687-9.921875h451.796876c5.476562 0 9.933593 4.449219 9.933593 9.921875v323.863281c0 5.378906-4.546875 9.921875-9.933593 9.921875h-180.167969c-5.570313 0-10.085938 4.515625-10.085938 10.085938 0 5.566406 4.515625 10.082031 10.085938 10.082031h180.167969c16.597656 0 30.101562-13.496094 30.101562-30.089844v-323.863281c0-16.59375-13.503906-30.089844-30.101562-30.089844zm0 0"/><path d="m159.960938 112.015625c-2.765626-4.832031-8.925782-6.507813-13.761719-3.742187-20.820313 11.914062-36.714844 30.871093-44.753907 53.378906-1.871093 5.246094.859376 11.015625 6.105469 12.890625 1.121094.398437 2.265625.589843 3.390625.589843 4.144532 0 8.027344-2.574218 9.5-6.695312 6.421875-17.980469 19.125-33.132812 35.773438-42.65625 4.835937-2.769531 6.511718-8.929688 3.746094-13.765625zm0 0"/><path d="m143.785156 195.484375c0 28.835937 23.480469 52.292969 52.34375 52.292969 28.84375 0 52.3125-23.457032 52.3125-52.292969 0-28.847656-23.46875-52.320313-52.3125-52.320313-28.863281 0-52.34375 23.472657-52.34375 52.320313zm52.339844-32.152344c17.726562 0 32.148438 14.425781 32.148438 32.152344 0 17.714844-14.421876 32.125-32.148438 32.125-17.738281 0-32.171875-14.410156-32.171875-32.125 0-17.726563 14.433594-32.152344 32.171875-32.152344zm0 0"/><path d="m380.058594 43.167969c-17.601563 0-31.925782 14.304687-31.925782 31.882812v30.585938c0 14.0625 9.167969 26.015625 21.839844 30.242187v34.476563l-34.136718 12.125c-5.066407-54.738281-41.78125-101.960938-94.585938-119.871094-5.273438-1.785156-11 1.035156-12.789062 6.3125-1.789063 5.273437 1.035156 11 6.308593 12.789063 46.855469 15.890624 78.917969 58.734374 81.351563 107.769531l-38.738282 13.757812c-5.246093 1.867188-7.992187 7.632813-6.128906 12.878907 1.46875 4.136718 5.355469 6.714843 9.503906 6.714843 1.121094 0 2.261719-.1875 3.375-.585937l31.128907-11.054688c-7.722657 58.824219-58.203125 104.386719-119.132813 104.386719-66.273437 0-120.191406-53.875-120.191406-120.09375 0-51.621094 32.84375-97.363281 81.726562-113.824219 5.28125-1.777344 8.117188-7.496094 6.339844-12.773437-1.777344-5.277344-7.496094-8.117188-12.773437-6.339844-57.101563 19.226563-95.464844 72.648437-95.464844 132.9375 0 77.339844 62.964844 140.261719 140.363281 140.261719 74.601563 0 135.78125-58.488282 140.078125-131.992188l47.226563-16.773437c.164062-.058594.316406-.117188.457031-.179688 3.667969-1.507812 6.253906-5.113281 6.253906-9.324219v-41.601562c12.65625-4.230469 21.808594-16.179688 21.808594-30.238281v-30.585938c-.003906-17.582031-14.308594-31.882812-31.894531-31.882812zm11.722656 62.46875c0 6.457031-5.257812 11.710937-11.722656 11.710937-6.480469 0-11.753906-5.253906-11.753906-11.710937v-30.585938c0-6.460937 5.269531-11.714843 11.753906-11.714843 6.464844 0 11.722656 5.253906 11.722656 11.714843zm0 0"/><path d="m344.289062 299.152344c0 5.570312 4.515626 10.085937 10.085938 10.085937h4.492188v17.144531c0 5.570313 4.515624 10.085938 10.082031 10.085938 5.570312 0 10.085937-4.515625 10.085937-10.085938v-17.144531h4.464844c5.570312 0 10.085938-4.515625 10.085938-10.085937 0-5.570313-4.515626-10.085938-10.085938-10.085938h-4.464844v-51.980468c0-5.570313-4.515625-10.085938-10.085937-10.085938-5.566407 0-10.082031 4.515625-10.082031 10.085938v51.980468h-4.492188c-5.570312 0-10.085938 4.515625-10.085938 10.085938zm0 0"/><path d="m440.652344 227c-5.566406 0-10.082032 4.515625-10.082032 10.085938v17.144531h-4.496093c-5.566407 0-10.082031 4.515625-10.082031 10.085937 0 5.570313 4.515624 10.082032 10.082031 10.082032h4.496093v51.984374c0 5.570313 4.515626 10.085938 10.082032 10.085938 5.570312 0 10.085937-4.515625 10.085937-10.085938v-51.984374h4.464844c5.570313 0 10.085937-4.511719 10.085937-10.082032 0-5.570312-4.515624-10.085937-10.085937-10.085937h-4.464844v-17.144531c0-5.570313-4.515625-10.085938-10.085937-10.085938zm0 0"/><path d="m195.953125 205.570312h.347656c5.570313 0 10.085938-4.515624 10.085938-10.085937s-4.515625-10.085937-10.085938-10.085937h-.347656c-5.570313 0-10.085937 4.515624-10.085937 10.085937s4.515624 10.085937 10.085937 10.085937zm0 0"/><path d="m196.125 75.363281c5.570312 0 10.085938-4.515625 10.085938-10.085937 0-5.566406-4.515626-10.082032-10.085938-10.082032h-.203125c-5.566406 0-10.082031 4.515626-10.082031 10.082032 0 5.570312 4.515625 10.085937 10.082031 10.085937zm0 0"/><path d="m256.203125 364.375h-.203125c-5.570312 0-10.085938 4.515625-10.085938 10.082031 0 5.570313 4.515626 10.085938 10.085938 10.085938h.203125c5.570313 0 10.085937-4.515625 10.085937-10.085938 0-5.566406-4.515624-10.082031-10.085937-10.082031zm0 0"/></svg>
