<svg id="icon" height="512pt" viewBox="0 -56 512 512" width="512pt" xmlns="http://www.w3.org/2000/svg"><g fill-rule="evenodd"><path d="m97.648438 199.515625v-76.316406c0-4.988281-4.082032-9.097657-9.097657-9.097657h-28.996093c-4.988282 0-9.101563 4.109376-9.101563 9.097657v152.601562c0 4.988281 4.113281 9.097657 9.101563 9.097657h28.996093c5.015625 0 9.097657-4.109376 9.097657-9.097657zm0 0" fill="#60a4ff"/><path d="m141.414062 70.84375v257.3125c0 5.019531 4.109376 9.101562 9.128907 9.101562h28.96875c5.015625 0 9.097656-4.082031 9.097656-9.101562v-257.3125c0-4.992188-4.082031-9.101562-9.097656-9.101562h-28.96875c-5.019531 0-9.128907 4.109374-9.128907 9.101562zm0 0" fill="#bdd9ff"/><path d="m232.402344 19.105469v360.789062c0 5.015625 4.082031 9.097657 9.101562 9.097657h28.996094c4.988281 0 9.097656-4.082032 9.097656-9.097657v-360.789062c0-5.015625-4.109375-9.097657-9.097656-9.097657h-28.996094c-5.019531 0-9.101562 4.082032-9.101562 9.097657zm0 0" fill="#60a4ff"/><path d="m323.363281 70.84375v257.3125c0 5.019531 4.109375 9.101562 9.097657 9.101562h28.996093c5.019531 0 9.101563-4.082031 9.101563-9.101562v-257.3125c0-4.992188-4.082032-9.101562-9.101563-9.101562h-28.996093c-4.988282 0-9.097657 4.109374-9.097657 9.101562zm0 0" fill="#bdd9ff"/><path d="m414.320312 123.199219v152.601562c0 4.988281 4.113282 9.097657 9.128907 9.097657h28.96875c5.015625 0 9.128906-4.109376 9.128906-9.097657v-152.601562c0-4.988281-4.113281-9.097657-9.128906-9.097657h-28.96875c-5.015625 0-9.128907 4.109376-9.128907 9.097657zm0 0" fill="#60a4ff"/></g><path d="m501.992188 189.507812h-30.441407v-66.308593c0-10.535157-8.582031-19.105469-19.132812-19.105469h-28.96875c-10.550781 0-19.132813 8.570312-19.132813 19.105469v66.308593h-23.753906v-118.664062c0-10.535156-8.570312-19.109375-19.105469-19.109375h-28.996093c-10.535157 0-19.105469 8.574219-19.105469 19.109375v118.664062h-23.75v-42.664062c0-5.527344-4.480469-10.007812-10.007813-10.007812s-10.003906 4.480468-10.003906 10.007812v232.144531h-27.183594v-358.976562h27.1875l.191406 37.078125c.03125 5.507812 4.503907 9.953125 10.007813 9.953125h.050781c5.527344-.027344 9.984375-4.53125 9.957032-10.058594l-.199219-37.933594c-.0625-10.503906-8.632813-19.050781-19.105469-19.050781h-28.996094c-10.535156 0-19.105468 8.570312-19.105468 19.105469v170.402343h-23.78125v-118.664062c0-10.535156-8.570313-19.109375-19.105469-19.109375h-28.96875c-10.550781 0-19.132813 8.574219-19.132813 19.109375v118.664062h-23.753906v-66.308593c0-10.535157-8.570312-19.105469-19.105469-19.105469h-28.996093c-10.535157 0-19.105469 8.570312-19.105469 19.105469v66.308593h-30.441407c-5.527343 0-10.007812 4.480469-10.007812 10.007813 0 5.523437 4.480469 10.007813 10.007812 10.007813h30.441407v66.277343c0 10.535157 8.570312 19.105469 19.105469 19.105469h28.996093c10.535157 0 19.105469-8.570312 19.105469-19.105469v-66.277343h23.75v118.636718c0 10.535156 8.585938 19.105469 19.136719 19.105469h28.96875c10.535156 0 19.105469-8.570313 19.105469-19.105469v-118.640625h23.78125v170.375c0 10.535157 8.570312 19.105469 19.105468 19.105469h28.996094c10.535156 0 19.105469-8.570312 19.105469-19.105469v-170.375h23.75v118.636719c0 10.535156 8.570312 19.109375 19.105469 19.109375h28.996093c10.535157 0 19.105469-8.574219 19.105469-19.109375v-118.636719h23.753906v66.28125c0 10.535157 8.582032 19.105469 19.132813 19.105469h28.96875c10.550781 0 19.132812-8.570312 19.132812-19.105469v-66.28125h30.441407c5.527343 0 10.007812-4.480469 10.007812-10.003906 0-5.527344-4.480469-10.007813-10.007812-10.007813zm-414.347657 85.382813h-27.183593v-150.78125h27.183593zm90.957031 52.359375h-27.179687v-255.5h27.179687zm181.949219 0h-27.183593v-255.5h27.183593zm90.988281-52.359375h-27.210937v-150.78125h27.210937zm0 0"/><path d="m279.597656 91.847656c-5.527344 0-10.007812 4.480469-10.007812 10.007813v.199219c0 5.523437 4.480468 10.007812 10.007812 10.007812 5.523438 0 10.003906-4.480469 10.003906-10.007812v-.199219c.003907-5.527344-4.476562-10.007813-10.003906-10.007813zm0 0"/></svg>
