<svg id="icon" height="512pt" viewBox="0 -9 512 512" width="512pt" xmlns="http://www.w3.org/2000/svg"><g fill-rule="evenodd"><path d="m401.585938 433.417969h69.425781c17.003906 0 30.917969-14.019531 30.917969-31.148438v-198.46875h-491.859376v198.46875c0 17.132813 13.914063 31.152344 30.890626 31.152344h360.625zm0 0" fill="#e8e7e9"/><path d="m110.414062 476.335938v-42.914063h-69.453124v42.914063c0 4.167968 3.398437 7.59375 7.535156 7.59375h54.382812c4.136719 0 7.535156-3.425782 7.535156-7.59375zm0 0" fill="#60a4ff"/><path d="m401.585938 433.417969v42.914062c0 4.171875 3.371093 7.597657 7.535156 7.597657h54.355468c4.136719 0 7.535157-3.425782 7.535157-7.597657v-42.914062zm0 0" fill="#60a4ff"/><path d="m10.070312 203.800781h491.859376v-104.046875c0-17.132812-13.914063-31.148437-30.917969-31.148437h-430.050781c-16.976563 0-30.890626 14.015625-30.890626 31.148437zm0 0" fill="#60a4ff"/><path d="m142.378906 164.910156c4.816406 0 8.757813-3.96875 8.757813-8.792968v-35.890626c0-4.855468-3.941407-8.792968-8.757813-8.792968h-78.609375c-4.816406 0-8.753906 3.9375-8.753906 8.792968v35.890626c0 4.824218 3.9375 8.792968 8.753906 8.792968zm0 0" fill="#ffc15a"/><path d="m245.5 136.214844c0 13.191406 10.628906 23.898437 23.71875 23.898437 13.121094 0 23.71875-10.707031 23.71875-23.898437 0-13.21875-10.597656-23.925782-23.71875-23.925782-13.089844 0-23.71875 10.707032-23.71875 23.925782zm0 0" fill="#ffc15a"/><path d="m330.484375 136.214844c0 13.191406 10.628906 23.898437 23.71875 23.898437 13.121094 0 23.722656-10.707031 23.722656-23.898437 0-13.21875-10.601562-23.925782-23.722656-23.925782-13.089844 0-23.71875 10.707032-23.71875 23.925782zm0 0" fill="#ffc15a"/><path d="m415.46875 136.214844c0 13.191406 10.628906 23.898437 23.71875 23.898437 13.09375 0 23.71875-10.707031 23.71875-23.898437 0-13.21875-10.625-23.925782-23.71875-23.925782-13.089844 0-23.71875 10.707032-23.71875 23.925782zm0 0" fill="#ffc15a"/></g><path d="m471.011719 58.53125h-111.070313v-18.050781c0-22.320313-18.058594-40.480469-40.253906-40.480469h-127.375c-22.195312 0-40.253906 18.160156-40.253906 40.480469v18.050781h-111.097656c-22.585938 0-40.960938 18.492188-40.960938 41.222656v302.515625c0 19.234375 13.15625 35.429688 30.890625 39.957031v34.109376c0 9.738281 7.898437 17.664062 17.605469 17.664062h54.382812c9.707032 0 17.609375-7.925781 17.609375-17.664062v-32.84375h271.027344v32.84375c0 9.738281 7.898437 17.664062 17.605469 17.664062h54.351562c9.710938 0 17.609375-7.925781 17.609375-17.664062v-34.105469c17.746094-4.527344 30.917969-20.726563 30.917969-39.960938v-302.515625c0-22.730468-18.386719-41.222656-40.988281-41.222656zm-298.808594-18.050781c0-11.214844 9.019531-20.339844 20.109375-20.339844h127.375c11.089844 0 20.109375 9.125 20.109375 20.339844v18.050781h-167.59375zm-71.859375 433.378906h-49.3125v-30.367187h49.3125zm311.3125 0v-30.367187h49.285156v30.367187zm59.355469-50.511719h-430.050781c-11.480469 0-20.816407-9.457031-20.816407-21.078125v-188.398437h191.039063c5.5625 0 10.070312-4.507813 10.070312-10.070313s-4.507812-10.070312-10.070312-10.070312h-191.039063v-93.976563c0-11.621094 9.335938-21.078125 20.816407-21.078125h430.050781c11.496093 0 20.847656 9.453125 20.847656 21.078125v93.976563h-190.703125c-5.5625 0-10.070312 4.507812-10.070312 10.070312s4.507812 10.070313 10.070312 10.070313h190.703125v188.398437c-.003906 11.621094-9.351563 21.078125-20.847656 21.078125zm0 0"/><path d="m142.378906 101.359375h-78.605468c-10.382813 0-18.828126 8.464844-18.828126 18.867187v35.890626c0 10.402343 8.445313 18.863281 18.828126 18.863281h78.605468c10.382813 0 18.828125-8.460938 18.828125-18.863281v-35.890626c0-10.402343-8.445312-18.867187-18.828125-18.867187zm-1.3125 53.480469h-75.980468v-33.335938h75.980468zm0 0"/><path d="m354.203125 170.1875c18.632813 0 33.789063-15.242188 33.789063-33.972656 0-18.746094-15.15625-33.996094-33.789063-33.996094-18.628906 0-33.789063 15.25-33.789063 33.996094 0 18.730468 15.160157 33.972656 33.789063 33.972656zm0-47.828125c7.527344 0 13.648437 6.214844 13.648437 13.855469 0 7.625-6.121093 13.828125-13.648437 13.828125-7.523437 0-13.644531-6.203125-13.644531-13.828125 0-7.640625 6.121094-13.855469 13.644531-13.855469zm0 0"/><path d="m303.011719 136.214844c0-18.746094-15.160157-33.996094-33.792969-33.996094-18.628906 0-33.789062 15.25-33.789062 33.996094 0 18.730468 15.160156 33.972656 33.789062 33.972656 18.632812 0 33.792969-15.242188 33.792969-33.972656zm-33.792969 13.828125c-7.523438 0-13.644531-6.203125-13.644531-13.828125 0-7.640625 6.121093-13.855469 13.644531-13.855469 7.527344 0 13.648438 6.214844 13.648438 13.855469 0 7.625-6.121094 13.828125-13.648438 13.828125zm0 0"/><path d="m439.1875 170.1875c18.632812 0 33.792969-15.242188 33.792969-33.972656 0-18.746094-15.160157-33.996094-33.792969-33.996094-18.628906 0-33.789062 15.25-33.789062 33.996094 0 18.730468 15.160156 33.972656 33.789062 33.972656zm0-47.828125c7.527344 0 13.648438 6.214844 13.648438 13.855469 0 7.625-6.121094 13.828125-13.648438 13.828125-7.523438 0-13.644531-6.203125-13.644531-13.828125 0-7.640625 6.121093-13.855469 13.644531-13.855469zm0 0"/><path d="m374.640625 246.957031c-3.917969-3.949219-10.296875-3.96875-14.242187-.050781-3.945313 3.917969-3.96875 10.292969-.050782 14.242188l84.558594 85.171874c1.96875 1.984376 4.558594 2.976563 7.148438 2.976563 2.5625 0 5.128906-.976563 7.09375-2.925781 3.949218-3.917969 3.972656-10.296875.050781-14.242188zm0 0"/><path d="m327.773438 261.519531c-3.917969-3.945312-10.296876-3.96875-14.246094-.054687-3.945313 3.917968-3.96875 10.296875-.050782 14.246094l116.949219 117.835937c1.96875 1.980469 4.554688 2.976563 7.144531 2.976563 2.566407 0 5.132813-.976563 7.097657-2.925782 3.945312-3.917968 3.96875-10.292968.054687-14.242187zm0 0"/><path d="m256.183594 193.730469h-.199219c-5.558594 0-10.070313 4.507812-10.070313 10.070312s4.511719 10.070313 10.070313 10.070313h.199219c5.5625 0 10.074218-4.507813 10.074218-10.070313s-4.511718-10.070312-10.074218-10.070312zm0 0"/></svg>
