<svg id="icon" height="512pt" viewBox="-8 0 512 512" width="512pt" xmlns="http://www.w3.org/2000/svg"><g fill-rule="evenodd"><path d="m10.0625 62.695312v199.667969h263.859375c5.433594-10.375 16.902344-19.214843 30.40625-22.585937v-177.082032zm0 0" fill="#bdd9ff"/><path d="m137.617188 125.265625v77.472656l67.046874-38.738281zm0 0" fill="#f5737f"/><path d="m10.0625 62.695312h294.269531v-25.730468c0-14.792969-12.089843-26.894532-26.84375-26.894532h-240.554687c-14.78125 0-26.871094 12.101563-26.871094 26.894532zm0 0" fill="#60a4ff"/><path d="m273.921875 262.363281h-263.859375v212.671875c0 14.792969 12.089844 26.894532 26.871094 26.894532h240.554687c14.753907 0 26.84375-12.101563 26.84375-26.894532v-177.675781c-18.859375 2.632813-33.75-6.972656-33.75-22.21875-.003906-4.335937 1.1875-8.667969 3.339844-12.777344zm-116.710937 37.175781c42.386718 0 76.757812 34.433594 76.757812 76.855469 0 42.449219-34.371094 76.851563-76.757812 76.851563-42.414063 0-76.789063-34.402344-76.789063-76.851563 0-42.421875 34.375-76.855469 76.789063-76.855469zm0 0" fill="#60a4ff"/><path d="m233.96875 376.394531c0-42.421875-34.371094-76.855469-76.757812-76.855469-42.414063 0-76.789063 34.433594-76.789063 76.855469 0 42.449219 34.375 76.851563 76.789063 76.851563 42.386718 0 76.757812-34.402344 76.757812-76.851563zm-76.757812-29.160156c16.082031 0 29.136718 13.0625 29.136718 29.160156 0 16.121094-13.054687 29.1875-29.136718 29.1875-16.109376 0-29.164063-13.066406-29.164063-29.1875 0-16.097656 13.054687-29.160156 29.164063-29.160156zm0 0" fill="#f9f9f9"/><path d="m186.347656 376.394531c0-16.097656-13.054687-29.160156-29.136718-29.160156-16.109376 0-29.164063 13.0625-29.164063 29.160156 0 16.121094 13.054687 29.1875 29.164063 29.1875 16.082031 0 29.136718-13.066406 29.136718-29.1875zm0 0" fill="#f5737f"/><path d="m270.578125 275.140625c0 15.246094 14.894531 24.851563 33.75 22.21875.851563-.113281 1.699219-.253906 2.550781-.425781 20.046875-3.882813 36.296875-19.949219 36.296875-35.902344 0-15.925781-16.25-25.703125-36.296875-21.820312-.851562.167968-1.699218.367187-2.550781.566406-13.503906 3.371094-24.972656 12.214844-30.40625 22.585937-2.152344 4.109375-3.34375 8.441407-3.34375 12.777344zm0 0" fill="#f5737f"/><path d="m413.339844 215.292969c0 15.925781 16.253906 26.183593 36.300781 22.925781 20.042969-3.257812 36.296875-18.847656 36.296875-34.769531 0-1.359375-.113281-2.664063-.339844-3.941407-2.433594-13.65625-17.609375-21.988281-35.957031-19.015624-20.046875 3.289062-36.300781 18.847656-36.300781 34.800781zm0 0" fill="#f5737f"/><path d="m354.417969 146.914062 120.277343-22.359374c5.238282-.992188 9.683594-5.441407 10.902344-10.511719.226563-.933594.339844-1.871094.339844-2.832031v-27.007813c0-6.179687-5.039062-10.289063-11.242188-9.125l-120.277343 22.386719c-6.171875 1.132812-11.242188 7.140625-11.242188 13.316406v27.007812c.003907 6.179688 5.070313 10.285157 11.242188 9.125zm0 0" fill="#f8a2aa"/></g><path d="m489.140625 69.195312c-4.414063-3.667968-10.359375-5.128906-16.285156-4.019531l-120.269531 22.386719c-10.921876 2.011719-19.472657 12.210938-19.472657 23.21875v120.941406c-5.597656-2.386718-11.96875-3.550781-18.71875-3.40625v-191.351562c0-20.382813-16.554687-36.964844-36.90625-36.964844h-240.554687c-20.363282 0-36.933594 16.582031-36.933594 36.964844v438.070312c0 20.382813 16.570312 36.964844 36.933594 36.964844h240.554687c20.351563 0 36.90625-16.582031 36.90625-36.964844v-169.589844c22.183594-6.535156 38.847657-25.15625 38.847657-44.414062v-103.890625c1-.042969 2.003906-.136719 3.015624-.324219l119.617188-22.238281v39.109375c-8.066406-3.621094-17.757812-4.777344-27.847656-3.132812-.007813 0-.011719 0-.015625 0-25.085938 4.113281-44.734375 23.765624-44.734375 44.738281 0 9.417969 3.996094 18.003906 11.246094 24.179687 7.222656 6.148438 17.042968 9.421875 27.789062 9.421875 2.921875 0 5.914062-.242187 8.941406-.734375 25.089844-4.082031 44.746094-23.71875 44.746094-44.710937v-119.246094c0-5.914063-2.5-11.382813-6.859375-15.007813zm-452.207031-49.054687h240.554687c9.253907 0 16.777344 7.546875 16.777344 16.824219v15.660156h-91.921875c-5.558594 0-10.0625 4.507812-10.0625 10.070312s4.503906 10.070313 10.0625 10.070313h91.921875v159.691406c-10.757813 4.242188-19.875 11.347657-25.910156 19.835938h-248.230469v-179.527344h92.320312c5.558594 0 10.0625-4.507813 10.0625-10.070313s-4.503906-10.074218-10.0625-10.074218h-92.320312v-15.65625c0-9.277344 7.539062-16.824219 16.808594-16.824219zm240.554687 471.71875h-240.554687c-9.269532 0-16.808594-7.546875-16.808594-16.824219v-202.601562h240.515625c-.074219.902344-.125 1.804687-.125 2.707031 0 9.464844 4.023437 17.992187 11.332031 24.015625 6.015625 4.964844 13.804688 7.878906 22.417969 8.554688v167.324218c.003906 9.277344-7.523437 16.824219-16.777344 16.824219zm27.464844-204.808594c-8.175781 1.59375-15.765625.308594-20.308594-3.4375-2.65625-2.191406-4-5.039062-4-8.472656 0-10.949219 13.15625-23.121094 28.160157-26.046875 8.179687-1.578125 15.769531-.285156 20.3125 3.464844 2.652343 2.191406 3.996093 5.042968 3.996093 8.46875 0 10.957031-13.152343 23.117187-28.160156 26.023437zm167.90625-172.398437-119.621094 22.238281v-26.109375c0-1.195312 1.507813-3.136719 2.996094-3.410156.007813-.003906.015625-.003906.023437-.003906l119.613282-22.265626v26.105469c.003906 1.230469-1.496094 3.160157-3.011719 3.445313zm-24.835937 113.625c-8.195313 1.332031-15.84375-.21875-20.460938-4.144532-2.761719-2.351562-4.160156-5.328124-4.160156-8.839843 0-10.996094 12.753906-22.378907 27.855468-24.859375 8.1875-1.332032 15.832032.21875 20.445313 4.144531 2.765625 2.359375 4.167969 5.34375 4.167969 8.871094.003906 10.8125-13.011719 22.417969-27.847656 24.828125zm0 0"/><path d="m132.585938 211.460938c1.558593.898437 3.292968 1.347656 5.03125 1.347656 1.738281 0 3.476562-.449219 5.03125-1.347656l67.046874-38.738282c3.117188-1.796875 5.035157-5.121094 5.035157-8.71875 0-3.601562-1.917969-6.925781-5.035157-8.722656l-67.046874-38.738281c-3.113282-1.800781-6.949219-1.800781-10.0625 0-3.113282 1.796875-5.03125 5.121093-5.03125 8.722656v77.472656c0 3.597657 1.917968 6.921875 5.03125 8.722657zm15.09375-68.753907 36.859374 21.292969-36.859374 21.296875zm0 0"/><path d="m157.210938 289.46875c-47.890626 0-86.851563 38.996094-86.851563 86.925781 0 47.929688 38.960937 86.921875 86.851563 86.921875 47.875 0 86.824218-38.992187 86.824218-86.921875 0-47.929687-38.949218-86.925781-86.824218-86.925781zm0 153.707031c-36.792969 0-66.726563-29.960937-66.726563-66.78125 0-36.824219 29.933594-66.78125 66.726563-66.78125 36.777343 0 66.695312 29.957031 66.695312 66.78125 0 36.820313-29.917969 66.78125-66.695312 66.78125zm0 0"/><path d="m157.210938 337.164062c-21.628907 0-39.226563 17.597657-39.226563 39.230469 0 21.644531 17.597656 39.257813 39.226563 39.257813 21.613281 0 39.199218-17.613282 39.199218-39.257813 0-21.632812-17.585937-39.230469-39.199218-39.230469zm0 58.347657c-10.53125 0-19.101563-8.578125-19.101563-19.117188 0-10.527343 8.570313-19.089843 19.101563-19.089843 10.515624 0 19.070312 8.5625 19.070312 19.089843 0 10.539063-8.554688 19.117188-19.070312 19.117188zm0 0"/><path d="m157.210938 72.765625h.171874c5.554688 0 10.0625-4.507813 10.0625-10.070313s-4.507812-10.074218-10.0625-10.074218h-.171874c-5.558594 0-10.0625 4.511718-10.0625 10.074218s4.503906 10.070313 10.0625 10.070313zm0 0"/></svg>
