<svg id="icon" height="511pt" viewBox="-33 1 511 511.999" width="511pt" xmlns="http://www.w3.org/2000/svg"><g fill-rule="evenodd"><path d="m33.851562 179.304688h30.3125v-43.242188c0-.992188.027344-1.984375.113282-2.949219h-30.425782c-12.796874 0-23.28125 10.402344-23.28125 23.097657 0 12.691406 10.484376 23.09375 23.28125 23.09375zm0 0" fill="#e8e7e9"/><path d="m64.164062 221.667969-30.3125.027343c-12.796874 0-23.28125 10.375-23.28125 23.097657 0 12.695312 10.484376 23.09375 23.28125 23.09375h30.3125zm0 0" fill="#e8e7e9"/><path d="m380.835938 136.0625v43.242188h30.308593c12.800781 0 23.285157-10.402344 23.285157-23.09375 0-12.695313-10.484376-23.097657-23.285157-23.097657h-30.425781c.058594.964844.117188 1.957031.117188 2.949219zm0 0" fill="#e8e7e9"/><path d="m411.144531 221.695312h-30.308593v46.191407h30.308593c12.800781 0 23.285157-10.398438 23.285157-23.09375 0-12.722657-10.484376-23.097657-23.285157-23.097657zm0 0" fill="#e8e7e9"/><path d="m313.816406 10.070312h-182.632812c-9 0-16.371094 7.3125-16.371094 16.238282v72.882812h215.371094v-72.882812c0-8.925782-7.367188-16.238282-16.367188-16.238282zm0 0" fill="#bdd9ff"/><path d="m330.183594 99.191406h-228.855469c-19.453125 0-35.535156 15.019532-37.050781 33.921875-.085938.964844-.113282 1.953125-.113282 2.945313v329.003906c0 20.257812 16.710938 36.867188 37.167969 36.867188h242.339844c20.453125 0 37.164063-16.609376 37.164063-36.867188v-329c0-.992188-.054688-1.984375-.113282-2.949219-1.542968-18.898437-17.597656-33.917969-37.050781-33.917969h-13.488281zm0 0" fill="#b3b0b5"/><path d="m159.207031 187.4375c0-12.867188-10.511719-23.265625-23.484375-23.265625-12.9375 0-23.453125 10.398437-23.453125 23.265625 0 12.863281 10.515625 23.265625 23.453125 23.265625 12.972656 0 23.484375-10.402344 23.484375-23.265625zm0 0" fill="#f6838d"/><path d="m222.371094 164.171875c-12.882813.058594-23.339844 10.457031-23.339844 23.265625 0 12.863281 10.511719 23.265625 23.453125 23.265625 12.96875 0 23.484375-10.402344 23.484375-23.265625 0-12.867188-10.515625-23.265625-23.484375-23.265625zm0 0" fill="#60a4ff"/><path d="m309.246094 164.171875c-12.941406 0-23.457032 10.398437-23.457032 23.265625 0 12.863281 10.515626 23.265625 23.457032 23.265625 12.96875 0 23.480468-10.402344 23.480468-23.265625 0-12.867188-10.511718-23.265625-23.480468-23.265625zm0 0" fill="#f6838d"/><path d="m120.753906 303.394531v130.496094c0 8.839844 7.316406 16.09375 16.226563 16.09375h173.777343c8.914063 0 16.226563-7.253906 16.226563-16.09375v-130.496094c0-8.871093-7.3125-16.09375-16.226563-16.09375h-173.777343c-8.910157 0-16.226563 7.222657-16.226563 16.09375zm0 0" fill="#e8e7e9"/></g><path d="m319.316406 155.636719v-6.058594c0-5.5625-4.511718-10.070313-10.070312-10.070313-5.5625 0-10.074219 4.507813-10.074219 10.070313v6.0625c-13.578125 4.261719-23.453125 16.902344-23.453125 31.796875 0 18.378906 15.039062 33.335938 33.523438 33.335938 18.503906 0 33.554687-14.957032 33.554687-33.335938 0-14.898438-9.886719-27.539062-23.480469-31.800781zm-10.070312 44.996093c-7.378906 0-13.382813-5.921874-13.382813-13.195312 0-7.277344 6.003907-13.195312 13.382813-13.195312 7.394531 0 13.410156 5.917968 13.410156 13.195312 0 7.273438-6.015625 13.195312-13.410156 13.195312zm0 0"/><path d="m380.636719 351.925781c-5.5625 0-10.070313 4.511719-10.070313 10.070313v.199218c0 5.5625 4.507813 10.070313 10.070313 10.070313s10.070312-4.507813 10.070312-10.070313v-.199218c0-5.558594-4.511719-10.070313-10.070312-10.070313zm0 0"/><path d="m411.144531 211.625h-20.238281v-22.25h20.238281c18.390625 0 33.355469-14.878906 33.355469-33.164062 0-18.289063-14.964844-33.167969-33.355469-33.167969h-22.101562c-5.695313-19.566407-23.875-33.921875-45.375-33.921875h-3.414063v-62.8125c0-14.507813-11.859375-26.308594-26.4375-26.308594h-182.632812c-14.582032 0-26.441406 11.800781-26.441406 26.308594v62.8125h-3.414063c-21.550781 0-39.757813 14.371094-45.363281 33.921875h-22.113282c-18.390624 0-33.351562 14.878906-33.351562 33.167969 0 18.285156 14.960938 33.164062 33.351562 33.164062h20.328126v22.230469l-20.328126.019531c-18.390624 0-33.351562 14.878906-33.351562 33.167969 0 18.285156 14.960938 33.164062 33.351562 33.164062h20.328126v186.765625c0 26.066406 21.152343 47.277344 47.148437 47.277344h242.339844c12.671875 0 24.59375-4.953125 33.558593-13.949219 8.855469-8.878906 13.714844-20.605469 13.679688-33.023437l-.199219-58.09375c-.019531-5.550782-4.523437-10.035156-10.070312-10.035156-.011719 0-.023438 0-.035157 0-5.5625.019531-10.054687 4.542968-10.035156 10.105468l.199219 58.085938c.019531 7.019531-2.75 13.675781-7.800781 18.738281-5.160156 5.179687-12.011719 8.027344-19.296875 8.027344h-242.339844c-14.640625 0-27.011719-12.425781-27.011719-27.132813v-329.003906c0-14.585938 12.117188-26.453125 27.011719-26.453125h242.339844c14.941406 0 27.097656 12.019531 27.097656 26.796875v181.132812c0 5.5625 4.507813 10.070313 10.070313 10.070313s10.070312-4.507813 10.070312-10.070313v-39.238281h20.242188c18.390624 0 33.351562-14.878906 33.351562-33.164062 0-18.289063-14.964844-33.167969-33.355469-33.167969zm-20.238281-68.441406h20.238281c7.285157 0 13.214844 5.84375 13.214844 13.027344 0 7.179687-5.929687 13.023437-13.214844 13.023437h-20.238281zm-336.730469 114.632812h-20.324219c-7.285156 0-13.210937-5.84375-13.210937-13.023437 0-7.183594 5.925781-13.023438 13.222656-13.023438l20.316407-.019531v26.066406zm0-88.582031h-20.324219c-7.285156 0-13.210937-5.84375-13.210937-13.027344 0-7.179687 5.925781-13.023437 13.210937-13.023437h20.328126v26.050781zm265.9375-80.113281h-195.230469v-62.8125c0-3.34375 2.886719-6.164063 6.300782-6.164063h182.632812c3.414063 0 6.296875 2.820313 6.296875 6.164063zm91.03125 168.695312h-20.238281v-26.046875h20.238281c7.285157 0 13.214844 5.839844 13.214844 13.023438 0 7.179687-5.929687 13.023437-13.214844 13.023437zm0 0"/><path d="m157.636719 44.574219h-.203125c-5.558594 0-10.066406 4.511719-10.066406 10.070312 0 5.5625 4.507812 10.074219 10.066406 10.074219h.203125c5.5625 0 10.070312-4.511719 10.070312-10.074219 0-5.558593-4.507812-10.070312-10.070312-10.070312zm0 0"/><path d="m222.597656 44.574219h-.199218c-5.5625 0-10.070313 4.511719-10.070313 10.070312 0 5.5625 4.511719 10.074219 10.070313 10.074219h.199218c5.5625 0 10.070313-4.511719 10.070313-10.074219 0-5.558593-4.507813-10.070312-10.070313-10.070312zm0 0"/><path d="m287.53125 44.574219h-.167969c-5.5625 0-10.074219 4.511719-10.074219 10.070312 0 5.5625 4.511719 10.074219 10.074219 10.074219h.167969c5.5625 0 10.070312-4.511719 10.070312-10.074219 0-5.558593-4.507812-10.070312-10.070312-10.070312zm0 0"/><path d="m136.980469 460.058594h173.777343c14.5 0 26.296876-11.742188 26.296876-26.167969v-130.496094c0-14.425781-11.796876-26.167969-26.296876-26.167969h-173.777343c-14.5 0-26.296875 11.742188-26.296875 26.167969v130.496094c0 14.425781 11.796875 26.167969 26.296875 26.167969zm-6.15625-156.664063c0-3.265625 2.820312-6.023437 6.15625-6.023437h173.777343c3.339844 0 6.15625 2.757812 6.15625 6.023437v130.496094c0 3.265625-2.816406 6.023437-6.15625 6.023437h-173.777343c-3.335938 0-6.15625-2.757812-6.15625-6.023437zm0 0"/><path d="m168.261719 378.699219h111.214843c5.5625 0 10.070313-4.507813 10.070313-10.070313s-4.507813-10.070312-10.070313-10.070312h-111.214843c-5.558594 0-10.066407 4.507812-10.066407 10.070312-.003906 5.5625 4.507813 10.070313 10.066407 10.070313zm0 0"/><path d="m168.261719 338.175781h111.214843c5.5625 0 10.070313-4.507812 10.070313-10.070312s-4.507813-10.070313-10.070313-10.070313h-111.214843c-5.558594 0-10.066407 4.507813-10.066407 10.070313-.003906 5.5625 4.507813 10.070312 10.066407 10.070312zm0 0"/><path d="m168.261719 419.25h111.214843c5.5625 0 10.070313-4.507812 10.070313-10.070312s-4.507813-10.070313-10.070313-10.070313h-111.214843c-5.558594 0-10.066407 4.507813-10.066407 10.070313-.003906 5.5625 4.507813 10.070312 10.066407 10.070312zm0 0"/><path d="m135.722656 139.507812c-5.558594 0-10.066406 4.507813-10.066406 10.070313v6.0625c-13.582031 4.261719-23.457031 16.902344-23.457031 31.796875 0 18.378906 15.039062 33.335938 33.523437 33.335938 18.503906 0 33.554688-14.957032 33.554688-33.335938 0-14.898438-9.886719-27.542969-23.484375-31.800781v-6.058594c0-5.5625-4.507813-10.070313-10.070313-10.070313zm13.414063 47.929688c0 7.273438-6.015625 13.195312-13.414063 13.195312-7.378906 0-13.382812-5.917968-13.382812-13.195312s6.003906-13.195312 13.382812-13.195312c7.398438 0 13.414063 5.917968 13.414063 13.195312zm0 0"/><path d="m222.371094 139.507812c-5.5625 0-10.070313 4.507813-10.070313 10.070313v6.101563c-13.519531 4.296874-23.339843 16.90625-23.339843 31.757812 0 18.378906 15.039062 33.335938 33.523437 33.335938 18.5 0 33.554687-14.957032 33.554687-33.335938 0-14.941406-9.945312-27.617188-23.597656-31.839844v-6.019531c0-5.5625-4.507812-10.070313-10.070312-10.070313zm13.527344 47.929688c0 7.273438-6.019532 13.195312-13.414063 13.195312-7.378906 0-13.382813-5.917968-13.382813-13.195312s6.003907-13.195312 13.382813-13.195312c7.394531 0 13.414063 5.917968 13.414063 13.195312zm0 0"/></svg>
