<svg id="icon" enable-background="new 0 0 128 128" height="512" viewBox="0 0 128 128" width="512" xmlns="http://www.w3.org/2000/svg"><path d="m85.3 51.5-42.2 7.3-10.4 1.8c-2.6-14.5 7-28.4 21.5-31s28.4 7 31 21.5c.1.2.1.3.1.4z" fill="#e4474f"/><path d="m86.4 57.6-9.2 1.7-33 5.7-10.3 1.8-1.1-6.1 10.4-1.8 42.1-7.4z" fill="#ffda2d"/><path d="m118.8 74.1c-7.4-3-15.7-3.7-24.4-2.9-7.5.8-14.8 2.5-21.9 4.9-9.2 3.1-18.1 6.9-26.6 11.3-13 6.6-24.2 4.2-30.7 1.5-2.1-.8-4-1.9-5.9-3.2l24.7-19 10.2-1.7 33-5.7 9.3-1.6c2.3.3 4.5.7 6.7 1.3 9.6 2.7 18.5 7.9 25.6 15.1z" fill="#ff596b"/><path d="m118.8 74.1s-.2-.2-.6-.6c.4.4.6.6.6.6z" fill="#e4474f"/><path d="m45.8 87.5c-1.7.9-3.5 1.6-5.3 2.2s30.3-10.6 49.6-10.8c20-.3 28.7-4.8 28.7-4.8-21.2-8.7-50.5 1.9-73 13.4z" fill="#e4474f"/><path d="m85.3 51.5s-5.6 27.8 10.4 42.5l-5.7 4.5c.1.1-19.3-24.8-4.7-47z" fill="#ffda2d"/><g fill="#612c00"><path d="m75.3 55h.3l1.1-.2c1-.2 1.6-1.1 1.4-2s-1.1-1.6-2-1.4l-1.1.1c-1 .2-1.6 1.1-1.4 2 .1.9.9 1.5 1.7 1.5z"/><path d="m120.5 74.3c0-.4-.1-.9-.4-1.3 0 0-.2-.2-.5-.6-2.6-2.7-15.1-14.5-33-16.6 0 0 0 0-.1 0 .2-2.4.5-4 .5-4 0-.2 0-.4 0-.5-2.7-15.5-17.4-25.8-32.9-23.1-12.9 2.2-22.6 13-23.5 26-.1 1 .7 1.8 1.6 1.9h.1c.9 0 1.7-.7 1.7-1.6.9-13.7 12.8-24.1 26.6-23.1 11.2.8 20.5 9 22.7 20-1.1 1.8-2.1 3.7-2.9 5.7l-45.3 7.9-.5-2.7 33.1-5.8c1-.2 1.6-1.1 1.4-2s-1.1-1.6-2-1.4l-34.8 6c-1 .2-1.6 1.1-1.4 2l1.1 4.9-23.9 18.4c-.8.6-.9 1.7-.3 2.5.1.1.2.2.4.3 6 4.1 13.2 6.3 20.5 6.3 4.2 0 8.4-.7 12.4-2.1.2-.1 21-7.3 38.7-9.8.2.8.5 1.6.7 2.4 1.9 5.6 4.6 10.9 8.1 15.7.6.8 1.7.9 2.5.3l5.7-4.5c.8-.6.9-1.7.3-2.5-.1-.1-.1-.1-.2-.2-5.6-5.1-8.4-12-9.7-18.7 10-1.9 18.8-1.9 26.2.1-6.2 1.7-12.6 2.6-19.1 2.8-1 0-1.7.8-1.7 1.8s.8 1.7 1.8 1.7h.1c17-.8 24.6-4.6 25-4.8.5-.2 1-.8 1-1.4zm-56.5 6.8c3.4-1.3 6.6-2.5 9.8-3.5.9-.3 1.4-1.3 1.1-2.2s-1.3-1.4-2.2-1.1c-9.5 3.2-18.8 7.1-27.7 11.7-15.4 7.9-28 2.5-32.7-.2l22.3-17.3 44.8-7.8c-1.5 5.7-1.6 11.7-.3 17.5-5.1.6-10.2 1.7-15.1 2.9zm26.4 15c-3.1-4.6-11.7-19.2-7.8-34.3 0 1.7 0 3.6.1 5.6.1 1.9.3 3.7.6 5.5v.1c1.4 8.5 4.7 15.6 9.6 20.8zm-3.7-25.5c-.5-3.7-.6-7.5-.4-11.2h.2c10.8 1.3 19.7 6.6 25.2 10.8-7.4-1.5-15.7-1.3-25 .4z"/></g></svg>
