<svg id="icon" enable-background="new 0 0 128 128" height="512" viewBox="0 0 128 128" width="512" xmlns="http://www.w3.org/2000/svg"><path d="m118.5 106.1h-88l-21-22h109z" fill="#b55607"/><path d="m118.5 95.1h-75.5l-12.5 11h88z" fill="#983729"/><path d="m71.1 15.8v68.3h-5.8v-68.3c0-1 .6-2 1.4-2.5.4-.3.9-.4 1.4-.4 1.7 0 3 1.3 3 2.9z" fill="#983729"/><path d="m65.3 21.4v48h-42.3l36.9-41.8z" fill="#92d5f3"/><path d="m113.4 75.4h-42.3v-54z" fill="#92d5f3"/><g fill="#612c00"><path d="m108.7 113.3h-89.4c-1 0-1.8.8-1.8 1.8s.8 1.8 1.8 1.8h89.3c1 0 1.8-.8 1.8-1.8s-.8-1.8-1.7-1.8z"/><path d="m118.5 82.3h-45.6v-32.7c0-1-.8-1.8-1.8-1.8s-1.8.8-1.8 1.8v32.8h-2.3v-66.6c0-.6.5-1.1 1.1-1.1s1.1.5 1.1 1.1v19.7c0 1 .8 1.8 1.8 1.8s1.8-.8 1.8-1.8v-9l37 47.2h-30.3c-1 0-1.8.8-1.8 1.8s.8 1.8 1.8 1.8h33.9c1 0 1.8-.8 1.8-1.7 0-.4-.1-.8-.4-1.1l-42-53.5v-5c0-2.6-2.1-4.6-4.6-4.6s-4.6 2.1-4.6 4.6v51.9h-36.7l33.4-37.8c.6-.7.5-1.8-.2-2.5-.7-.6-1.8-.5-2.4.2l-36 40.5c-.6.7-.6 1.8.2 2.5.3.3.7.4 1.2.4h40.6v11.2h-54.2c-1 0-1.7.8-1.8 1.7 0 .5.2.9.5 1.2l15.8 16.5c.7.7 1.8.8 2.5.1s.8-1.8.1-2.5c0 0 0 0-.1-.1l-12.9-13.5h103.2v18.5h-81.7l8.5-7.5h59.8c1 0 1.8-.8 1.8-1.8s-.8-1.8-1.8-1.8h-60.4c-.4 0-.8.2-1.2.4l-12 10.6h-20.3c-1 0-1.8.8-1.8 1.8s.8 1.8 1.8 1.8h109c1 0 1.8-.8 1.8-1.8v-22c0-.9-.8-1.7-1.8-1.7z"/><path d="m111.5 96.8c1 0 1.8-.8 1.8-1.8s-.8-1.8-1.8-1.8h-1.5c-1 0-1.8.8-1.8 1.8s.8 1.8 1.8 1.8z"/><path d="m71.1 40.1c-1 0-1.8.8-1.8 1.8v1.3c0 1 .8 1.8 1.8 1.8s1.8-.8 1.8-1.8v-1.3c0-1-.8-1.8-1.8-1.8z"/></g></svg>
