<svg id="icon" enable-background="new 0 0 128 128" height="512" viewBox="0 0 128 128" width="512" xmlns="http://www.w3.org/2000/svg"><path d="m16.4 31.8h95v9.8h-95z" fill="#b55607"/><path d="m102.7 52.9v65.6h-77.4v-65.6c0-4.1 2.6-7.8 6.4-9.3 1.1-.4 2.3-.6 3.5-.6h57.5c5.5-.1 10 4.4 10 9.9z" fill="#4b9641"/><path d="m25.1 87.1h.2v31.4h-9v-22.7c.1-4.8 4-8.7 8.8-8.7z" fill="#ffa500"/><path d="m111.6 118.5h-9v-31.4h.2c4.8 0 8.7 3.9 8.7 8.7z" fill="#ff8f2b"/><path d="m90.6 105.2v3.7h-53.2v-3.7c0-12.9 9.5-23.8 22.2-25.6 1.2-.2 2.4-.3 3.7-.3h1.5c14.2 0 25.8 11.5 25.8 25.9z" fill="#ff8f2b"/><path d="m31.7 19.5h64.5v25.8c0 7.5-6.1 13.6-13.6 13.6h-37.3c-7.5 0-13.6-6.1-13.6-13.6z" fill="#5dbd52"/><path d="m63.8 44.6h.3c3.2 0 5.8 2.6 5.8 5.8v14c0 3.2-2.6 5.8-5.8 5.8h-.3c-3.2 0-5.8-2.6-5.8-5.8v-14c0-3.2 2.6-5.8 5.8-5.8z" fill="#ffa500"/><circle cx="64" cy="64.3" fill="#983729" r="2.9"/><path d="m96.3 31.8h15.1v9.8h-15.1z" fill="#983729"/><g fill="#612c00"><path d="m98 45.3v-2h13.4c1 0 1.8-.8 1.8-1.8v-9.8c0-1-.8-1.8-1.8-1.8h-9.4c-1 0-1.8.8-1.8 1.8s.8 1.8 1.8 1.8h7.6v6.3h-11.6v-20.3c0-1-.8-1.8-1.8-1.8h-21.4c-.3-5.6-5-10-10.6-10h-.5c-5.6 0-10.3 4.4-10.6 10h-21.4c-1 0-1.8.8-1.8 1.8v10.5h-13.5c-1 0-1.8.8-1.8 1.8v9.8c0 1 .8 1.8 1.8 1.8h9c1 0 1.8-.8 1.8-1.8s-.8-1.8-1.8-1.8h-7.2v-6.3h11.8v8.9c-3.9 2-6.4 6-6.4 10.4v32.6c-5.1.7-9 5.2-9 10.3v22.6c0 1 .8 1.8 1.8 1.8s1.8-.8 1.8-1.8v-22.5c0-3.3 2.3-6.1 5.5-6.8v29.5c0 1 .8 1.8 1.8 1.8h68.5c1 0 1.8-.8 1.8-1.8s-.8-1.8-1.8-1.8h-66.9v-63.8c0-2.4 1.1-4.8 3-6.3.7 7.9 7.3 14 15.2 14.1h5c1 0 1.8-.8 1.8-1.8s-.8-1.8-1.8-1.8h-5c-6.5 0-11.8-5.3-11.8-11.8v-24h61v24c0 6.5-5.3 11.8-11.8 11.8h-11v-6.6c0-4.2-3.4-7.6-7.6-7.6h-.3c-4.2 0-7.6 3.4-7.6 7.6v14c0 4.2 3.4 7.6 7.6 7.6h.3c4.2 0 7.6-3.4 7.6-7.6v-3.8h11c8.5-.1 15.3-6.9 15.3-15.4zm-41.4-27.5c.3-3.7 3.4-6.5 7.1-6.5h.5c3.7 0 6.8 2.8 7.1 6.5zm11.6 46.7c0 2.3-1.8 4.1-4.1 4.1h-.3c-2.3 0-4.1-1.8-4.1-4.1v-14c0-2.3 1.8-4.1 4.1-4.1h.3c2.3 0 4.1 1.8 4.1 4.1z"/><path d="m104.4 85.5v-32.6c0-1-.8-1.8-1.8-1.8s-1.8.8-1.8 1.8v65.6c0 1 .8 1.8 1.8 1.8h9c1 0 1.8-.8 1.8-1.8v-22.7c0-5.1-3.8-9.5-9-10.3zm5.5 31.3h-5.5v-27.7c3.2.7 5.5 3.5 5.5 6.8z"/><path d="m64 61.4c-1.6 0-2.9 1.3-2.9 2.9s1.3 2.9 2.9 2.9 2.9-1.3 2.9-2.9c0-1.6-1.3-2.9-2.9-2.9zm0 3.5c-.3 0-.6-.3-.6-.6s.3-.6.6-.6.6.3.6.6-.3.6-.6.6z"/><path d="m63.3 81h1.5c2.2 0 4.3.3 6.4.8.9.3 1.9-.3 2.1-1.2s-.3-1.9-1.3-2.1c-2.4-.6-4.8-1-7.3-1h-1.5c-15.3 0-27.6 12.4-27.6 27.6v3.7c0 1 .8 1.8 1.8 1.8h53.3c1 0 1.8-.8 1.8-1.8v-3.7c0-6.4-2.2-12.6-6.3-17.6-.6-.7-1.7-.9-2.5-.2s-.9 1.7-.2 2.5c3.6 4.3 5.5 9.8 5.5 15.4v1.9h-49.9v-1.9c0-13.4 10.8-24.2 24.2-24.2z"/><path d="m78.4 85.2c.8.5 1.9.3 2.4-.5s.3-1.9-.5-2.4c-.5-.3-.9-.6-1.4-.9-.8-.5-1.9-.2-2.4.6s-.2 1.9.6 2.4c.5.3.9.6 1.3.8z"/></g></svg>
