<svg id="icon" enable-background="new 0 0 128 128" height="512" viewBox="0 0 128 128" width="512" xmlns="http://www.w3.org/2000/svg"><path d="m95 76-10.4 23c-1 2.1-3 3.4-5.3 3.4h-30.5c-2.3 0-4.4-1.3-5.3-3.4l-10.5-23c-1.4-3.1-.7-6.8 2-9.1 7.4-6.3 16.7-10.1 26.4-10.7.9 0 1.8-.1 2.7-.1 10.7 0 21 3.8 29.1 10.7 2.5 2.4 3.3 6.1 1.8 9.2z" fill="#e4474f"/><path d="m42 34.8c0 7-5.7 12.7-12.7 12.7-.8 0-1.6-.1-2.3-.2-6.9-1.3-11.4-7.9-10.1-14.8.8-4.3 3.7-7.9 7.8-9.5 1.5-.6 3.1-.9 4.6-.9v12.7z" fill="#e4474f"/><path d="m111.3 34.8c0 7-5.7 12.7-12.7 12.7s-12.6-5.7-12.6-12.7h12.7v-12.7h.3c6.8.1 12.3 5.8 12.3 12.7z" fill="#e4474f"/><g fill="#612c00"><path d="m60.6 100.6h-.9c-1 0-1.8.8-1.8 1.8s.8 1.8 1.8 1.8h.9c1 0 1.8-.8 1.8-1.8s-.9-1.8-1.8-1.8z"/><path d="m17.1 70.3c.2.4.5.7.9.9l7.6 3.4c.9.4 1.9 0 2.3-.9s0-1.9-.9-2.3l-7-3.2-8.4-19.4 6.7-4.8c5.1 6.1 14.2 6.8 20.3 1.7 3.2-2.7 5.1-6.8 5.1-11 0-1-.8-1.8-1.7-1.8h-10.9v-10.8c0-1-.8-1.8-1.8-1.8-7.9 0-14.4 6.4-14.4 14.4 0 2.2.5 4.5 1.5 6.5l-8 5.7c-.7.5-.9 1.4-.6 2.1zm10.5-46.3v10.8c0 1 .8 1.8 1.8 1.8h10.8c-1 6-6.6 10-12.5 9s-10-6.6-9-12.5c.6-4.7 4.2-8.4 8.9-9.1z"/><path d="m119.8 93.9-10.4-11.3c-.3-.4-.8-.6-1.3-.6h-9.4c-1 0-1.8.8-1.8 1.8s.8 1.8 1.8 1.8h8.6l9.9 10.7c.7.7 1.8.8 2.5.1s.7-1.8.1-2.5z"/><path d="m103.5 93.4c-.3-.4-.8-.6-1.3-.6h-12.9l7.1-15.5 13.6-6.1c.4-.2.7-.5.9-.9l9.3-21.3c.3-.8.1-1.6-.6-2.1l-8-5.7c3.6-7.1.7-15.7-6.4-19.3-2-1-4.2-1.5-6.5-1.5-1 0-1.8.8-1.8 1.8v6.1c0 1 .8 1.8 1.8 1.8s1.8-.8 1.8-1.8v-4.3c6 1 10 6.6 9 12.5s-6.6 10-12.5 9c-4.6-.8-8.3-4.4-9-9h10.8c1 0 1.8-.8 1.8-1.8s-1-1.7-1.9-1.7h-12.7c-1 0-1.8.8-1.8 1.8 0 8 6.4 14.4 14.4 14.4 4.2 0 8.3-1.9 11-5.1l6.7 4.8-8.4 19.4-10.4 4.7c.1-2.8-1.1-5.5-3.3-7.4-3.6-3-7.6-5.5-11.8-7.4l1.8-2.5c.6-.8.4-1.9-.4-2.4s-1.9-.4-2.4.4l-2.4 3.2c-9.7-3.3-20.3-3.3-30 0l-2.4-3.3c-.6-.8-1.7-.9-2.5-.3-.7.6-.9 1.6-.4 2.4l1.8 2.5c-4.3 1.8-8.3 4.3-11.8 7.4-3.2 2.8-4.2 7.3-2.4 11.1l2.4 5.3h-13.9c-.5 0-1 .2-1.3.6l-10.3 11.3c-.7.7-.6 1.8.1 2.5.7.6 1.8.6 2.4-.1l9.9-10.7h14.7l3.3 7.3h-12.9c-.5 0-1 .2-1.3.6l-10.4 11.2c-.7.7-.6 1.8.1 2.5s1.8.6 2.5-.1l9.9-10.7h13.8l1.5 3.3c1.2 2.7 4 4.5 6.9 4.5h4.6c1 0 1.8-.8 1.8-1.8s-.8-1.8-1.8-1.8h-4.6c-1.6 0-3.1-.9-3.8-2.4l-1.9-4.3s0 0 0-.1l-8.5-18.6c-1.1-2.4-.5-5.3 1.5-7 16.1-13.8 39.8-13.8 55.9 0 2 1.8 2.6 4.6 1.5 7l-8.4 18.7v.1l-2 4.2c-.7 1.5-2.1 2.4-3.8 2.4h-12.3c-1 0-1.8.8-1.8 1.8s.8 1.8 1.8 1.8h12.3c3 0 5.7-1.7 6.9-4.5l1.5-3.3h13.8l9.9 10.7c.7.7 1.8.8 2.5.1s.8-1.8.1-2.5z"/></g></svg>
