<svg id="icon" enable-background="new 0 0 128 128" height="512" viewBox="0 0 128 128" width="512" xmlns="http://www.w3.org/2000/svg"><path d="m69 107.4h-10.2v-88.8c0-2.8 2.3-5.1 5.1-5.1 2.8 0 5.1 2.3 5.1 5.1z" fill="#983729"/><path d="m107.5 118.5h-87c.5-9.8 8.8-17.3 18.6-16.8 3.3.2 6.5 1.3 9.3 3.2 1.3.9 2.4 1.9 3.4 3.1 2.6-5.4 7.4-9.5 13.2-11 1.7-.5 3.5-.7 5.3-.7 8.3 0 15.7 5 18.9 12.7 7.6-2.5 15.7 1.6 18.2 9.2 0 0 .1.2.1.3z" fill="#ff8f2b"/><path d="m75.2 22.8v22.3h-53.7l-12-11.2 12-11.1z" fill="#b55607"/><path d="m118.5 68.3-12 11.2h-53.7v-22.3h53.7z" fill="#b55607"/><g fill="#612c00"><path d="m118.5 116.8h-9.8c-2.5-6.2-8.4-10.3-15.1-10.3-1.2 0-2.4.1-3.5.4-3.6-7.5-11.1-12.2-19.4-12.4v-7.3c0-1-.8-1.8-1.8-1.8s-1.8.8-1.8 1.8v7.5c-2.3.3-4.6 1-6.8 2.1v-15.5h46c.4 0 .9-.2 1.2-.5l12-11.2c.7-.7.7-1.8.1-2.5 0 0-.1-.1-.1-.1l-12-11.2c-.3-.3-.7-.5-1.2-.5h-35.5v-8.6h4.4c1 0 1.8-.8 1.8-1.8v-22.1c0-1-.8-1.7-1.7-1.8h-4.4v-2.4c0-3.8-3.1-6.9-6.9-6.9s-7 3.2-7 6.9v2.4h-21.9c-1 0-1.8.8-1.8 1.8s.8 1.8 1.8 1.8h38.3v18.8h-51.2l-10.1-9.4 10.6-10c.7-.7.7-1.8.1-2.5-.7-.7-1.8-.7-2.5-.1l-12 11.2c-.7.7-.7 1.8-.1 2.5 0 0 .1.1.1.1l12 11.2c.3.3.7.5 1.2.5h45.8v8.6h-6.8v-4.2c0-1-.8-1.8-1.8-1.8s-1.7.8-1.7 1.8v4.2h-4.2c-1 0-1.8.8-1.8 1.8v22.3c0 1 .8 1.8 1.8 1.8h4.2v17.7c-2.2 1.7-4.1 3.7-5.6 6.1-7.9-7.3-20.3-6.8-27.5 1.2-1.4 1.5-2.5 3.1-3.3 5-.4.9 0 1.9.8 2.3s1.9 0 2.3-.8c3.7-8 13.2-11.5 21.2-7.7 2.1 1 4 2.4 5.5 4.2.6.7 1.7.8 2.5.2.2-.2.3-.4.5-.6 4.4-9.3 15.5-13.3 24.9-8.9 4.2 2 7.5 5.5 9.3 9.8.3.8 1.3 1.3 2.2 1 5.9-1.9 12.3.7 15.2 6.2h-95.5c-1 0-1.8.8-1.8 1.8s.8 1.8 1.8 1.8h109c1 0 1.8-.8 1.8-1.8s-.8-2.1-1.8-2.1zm-58-98.1c0-1.9 1.5-3.4 3.4-3.4s3.4 1.5 3.4 3.4v2.3h-6.8zm-5.9 40.2h51.2l10.1 9.4-10.1 9.4h-51.2z"/><path d="m27.8 24.5h1.2c1 0 1.8-.8 1.8-1.8s-.9-1.7-1.9-1.7h-1.2c-1 0-1.8.8-1.8 1.8s.9 1.7 1.9 1.7z"/><path d="m64 31.5c1.3 0 2.4-1.1 2.4-2.4s-1.1-2.4-2.4-2.4-2.4 1.1-2.4 2.4 1.1 2.4 2.4 2.4z"/><path d="m64 41.1c1.3 0 2.4-1.1 2.4-2.4s-1.1-2.4-2.4-2.4-2.4 1.1-2.4 2.4c0 1.3 1.1 2.4 2.4 2.4z"/><path d="m64 66c1.3 0 2.4-1.1 2.4-2.4s-1.1-2.4-2.4-2.4-2.4 1.1-2.4 2.4c0 1.3 1.1 2.4 2.4 2.4z"/><path d="m64 75.6c1.3 0 2.4-1.1 2.4-2.4s-1.1-2.4-2.4-2.4-2.4 1.1-2.4 2.4 1.1 2.4 2.4 2.4z"/></g></svg>
