<svg id="icon" enable-background="new 0 0 128 128" height="512" viewBox="0 0 128 128" width="512" xmlns="http://www.w3.org/2000/svg"><path d="m13.3 46.9h29.7v71.5h-29.7z" fill="#983729"/><path d="m84.9 46.9h29.7v71.5h-29.7z" fill="#983729"/><path d="m84.9 22.5v95.9h-41.8v-95.9l17.9-11.1 3-1.9z" fill="#ffa500"/><path d="m38.5 30.3v8.4h-6.1v-8.4h-8.4v8.4h-6.1v-8.4h-8.4v16.6h37.4v-16.6z" fill="#b55607"/><path d="m110.1 30.3v8.4h-6.1v-8.4h-8.4v8.4h-6.1v-8.4h-8.4v16.6h37.4v-16.6z" fill="#b55607"/><path d="m96.8 105.1v13.3h-65.6v-13.3c0-16.6 12.4-30.6 28.9-32.6 1.3-.2 2.6-.2 3.9-.2 18.1 0 32.8 14.7 32.8 32.8z" fill="#ff8f2b"/><g fill="#612c00"><path d="m118.5 28.5h-8.4c-1 0-1.8.8-1.8 1.8v6.7h-2.5v-6.7c0-1-.8-1.8-1.8-1.8h-8.4c-1 0-1.8.8-1.8 1.8v6.7h-2.5v-6.7c0-1-.8-1.8-1.8-1.8h-8.4c-1 0-1.8.8-1.8 1.8v16.7c0 1 .8 1.8 1.8 1.8h2.1v27.7c-11.6-7.8-26.8-7.8-38.4 0v-21c0-1-.8-1.8-1.8-1.8s-1.8.8-1.8 1.8v23.6c-7.5 6.5-11.9 16-11.9 26v5.6c0 1 .8 1.8 1.8 1.8s1.8-.8 1.8-1.8v-5.6c0-17.1 13.9-31 31-31s31 13.9 31 31v11.6h-10c-1 0-1.8.8-1.8 1.8s.8 1.8 1.8 1.8h29.8c1 0 1.8-.8 1.8-1.8v-63c0-1-.8-1.8-1.8-1.8s-1.8.8-1.8 1.8v61.2h-14.4v-11.6c0-10-4.3-19.5-11.9-26v-30.4h31.8c1 0 1.8-.8 1.8-1.8v-16.6c.1-1-.7-1.8-1.7-1.8zm-1.7 16.7h-33.9v-13.2h4.9v6.7c0 1 .8 1.8 1.8 1.8h6c1 0 1.8-.8 1.8-1.8v-6.7h4.9v6.7c0 1 .8 1.8 1.8 1.8h6c1 0 1.8-.8 1.8-1.8v-6.7h4.9z"/><path d="m67.9 116.7h-52.8v-68h31.8c1 0 1.8-.8 1.8-1.8v-16.6c0-1-.8-1.8-1.8-1.8h-2.1v-5l19.2-11.9 20 12.4c.8.5 1.9.3 2.4-.6s.3-1.9-.6-2.4l-20.9-13c-.6-.4-1.3-.4-1.8 0l-21 13c-.5.3-.8.9-.8 1.5v6h-2.9c-1 0-1.8.8-1.8 1.8v6.7h-2.5v-6.7c0-1-.8-1.8-1.8-1.8h-8.3c-1 0-1.8.8-1.8 1.8v6.7h-2.5v-6.7c0-1-.8-1.8-1.8-1.8h-8.4c-1 0-1.8.8-1.8 1.8v16.7c0 1 .8 1.8 1.8 1.8h2.1v69.7c0 1 .8 1.8 1.8 1.8h54.6c1 0 1.8-.8 1.8-1.8s-.9-1.8-1.9-1.8zm-56.6-84.7h4.9v6.7c0 1 .8 1.8 1.8 1.8h6c1 0 1.8-.8 1.8-1.8v-6.7h4.9v6.7c0 1 .8 1.8 1.8 1.8h6c1 0 1.7-.8 1.7-1.8v-6.7h4.9v13.2h-33.8z"/><path d="m77 116.7h-1.3c-1 0-1.8.8-1.8 1.8s.8 1.8 1.8 1.8h1.3c1 0 1.8-.8 1.8-1.8s-.8-1.8-1.8-1.8z"/><path d="m32.4 53.8h-8.4c-1 0-1.8.8-1.8 1.8s.8 1.8 1.8 1.8h8.4c1 0 1.8-.8 1.8-1.8s-.8-1.8-1.8-1.8z"/><path d="m32.4 65.5h-8.4c-1 0-1.8.8-1.8 1.8s.8 1.7 1.8 1.7h8.4c1 0 1.8-.8 1.8-1.8s-.8-1.7-1.8-1.7z"/><path d="m104 53.8h-8.4c-1 0-1.8.8-1.8 1.8s.8 1.8 1.8 1.8h8.4c1 0 1.8-.8 1.8-1.8s-.8-1.8-1.8-1.8z"/><path d="m104 65.5h-8.4c-1 0-1.8.8-1.8 1.8s.8 1.8 1.8 1.8h8.4c1 0 1.8-.8 1.8-1.8s-.8-1.8-1.8-1.8z"/><path d="m68.2 28.6h-8.4c-1 0-1.8.8-1.8 1.8s.8 1.8 1.8 1.8h8.4c1 0 1.8-.8 1.8-1.8s-.8-1.8-1.8-1.8z"/><path d="m68.2 40.4h-8.4c-1 0-1.8.8-1.8 1.8s.8 1.8 1.8 1.8h8.4c1 0 1.8-.8 1.8-1.8s-.8-1.8-1.8-1.8z"/><path d="m68.2 52.2h-8.4c-1 0-1.8.8-1.8 1.8s.8 1.8 1.8 1.8h8.4c1 0 1.8-.8 1.8-1.8s-.8-1.8-1.8-1.8z"/></g></svg>
