<svg id="icon" enable-background="new 0 0 128 128" height="512" viewBox="0 0 128 128" width="512" xmlns="http://www.w3.org/2000/svg"><path d="m64 19.8c-24.4 0-44.2 19.8-44.2 44.2s19.8 44.2 44.2 44.2 44.2-19.8 44.2-44.2c0-24.4-19.8-44.2-44.2-44.2zm0 66.7c-12.4 0-22.5-10.1-22.5-22.5s10.1-22.5 22.5-22.5 22.5 10.1 22.5 22.5-10.1 22.5-22.5 22.5z" fill="#d1d1d1"/><g fill="#e4474f"><path d="m50.9 21.8 3.3 22c6.2-3 13.4-3 19.6 0l3.3-22c-8.5-2.7-17.7-2.7-26.2 0z"/><path d="m106.2 50.9-22 3.3c3 6.2 3 13.4 0 19.6l22 3.3c2.7-8.5 2.7-17.7 0-26.2z"/><path d="m77.1 106.2-3.3-22c-6.2 3-13.4 3-19.6 0l-3.3 22c8.5 2.7 17.7 2.7 26.2 0z"/><path d="m21.8 77.1 22-3.3c-3-6.2-3-13.4 0-19.6l-22-3.3c-2.7 8.5-2.7 17.7 0 26.2z"/></g><path d="m119.4 66.1c.1-1-.6-1.8-1.6-1.9s-1.8.6-1.9 1.6c-.4 4.5-2.4 8.8-5.6 12l-3.8 3.8c.5-1.2 1-2.5 1.4-3.8 0-.1.1-.1.1-.2 2.7-8.8 2.7-18.3 0-27.2 0-.1 0-.1-.1-.2-.4-1.3-.9-2.5-1.4-3.7l3.8 3.8c1.3 1.3 2.4 2.7 3.2 4.3.5.8 1.6 1.1 2.4.6s1.1-1.5.7-2.3c-1-1.8-2.3-3.5-3.8-5l-16-16c-.1-.1-.3-.3-.4-.4l-16-16c-9-9-23.5-9-32.5 0l-16.2 15.8c-.1.1-.2.2-.4.4l-16 16.1c-9 9-9 23.5 0 32.5l16.1 16.1c.1.1.2.2.4.4l16.1 16.1c9 9 23.5 9 32.5 0l16-16 .4-.4 16-16c3.7-4.1 6.1-9.1 6.6-14.4zm-25.6 28.1c-10.8 10.7-26.4 14.7-41 10.8l2.8-18.2c5.4 2 11.4 2 16.8 0l1.9 12.7c.1 1 1 1.6 2 1.5s1.6-1 1.5-2l-2.1-13.7c4-2.2 7.3-5.5 9.5-9.5l18.7 2.8c-2.1 5.7-5.4 10.9-9.7 15.2zm-59.6 0-.5-.5c-4.3-4.3-7.6-9.5-9.7-15.2l18.7-2.8c2.2 4 5.5 7.3 9.5 9.5l-2.8 18.7c-5.7-2.1-10.8-5.4-15.2-9.7zm0-60.4c4.3-4.3 9.5-7.6 15.2-9.7l1.9 11.9c.1.9.9 1.5 1.7 1.5h.3c1-.1 1.6-1 1.5-2l-2-12.5c7.3-2 15-2 22.3 0l-2.8 18.2c-11.2-4.2-23.8.5-29.6 11l-18.7-2.8c2.1-5.7 5.4-10.9 9.7-15.2zm72.3 30.2c0 3.8-.5 7.5-1.5 11.2l-18.2-2.8c2-5.4 2-11.4 0-16.8l18.2-2.8c1 3.7 1.5 7.4 1.5 11.2zm-21.8 0c0 11.4-9.3 20.7-20.7 20.7s-20.7-9.3-20.7-20.7 9.3-20.7 20.7-20.7 20.7 9.3 20.7 20.7zm-63.2 0c0-3.8.5-7.5 1.5-11.2l18.2 2.8c-2 5.4-2 11.4 0 16.8l-18.2 2.8c-1-3.7-1.5-7.4-1.5-11.2zm82.4-14.5-18.7 2.8c-2.2-4-5.5-7.3-9.5-9.5l2.8-18.7c5.7 2.1 10.9 5.4 15.2 9.6l.5.5c4.3 4.4 7.6 9.6 9.7 15.3zm-53.7-31.7c7.6-7.6 19.9-7.6 27.5 0l3.8 3.8c-1.2-.5-2.5-1-3.7-1.4-.1 0-.1 0-.2-.1-8.9-2.7-18.4-2.7-27.2 0-.1 0-.1 0-.2.1-1.3.4-2.5.9-3.7 1.4zm-32.4 60c-7.6-7.6-7.6-19.9 0-27.5l3.8-3.8c-.5 1.2-1 2.5-1.4 3.8v.2c-2.7 8.9-2.8 18.3 0 27.2 0 .1 0 .1.1.2.4 1.3.9 2.5 1.4 3.8zm60 32.4c-7.6 7.6-19.9 7.6-27.5 0l-3.8-3.8c1.2.5 2.5 1 3.7 1.4.1 0 .1 0 .2.1 10.2 3.2 21.2 2.7 31.1-1.4z" fill="#612c00"/><path d="m115.5 59.6c0 .2.1.4.1.5.2.8.9 1.4 1.7 1.4h.3c.9-.2 1.6-1.1 1.4-2.1 0-.2-.1-.4-.1-.7-.2-.9-1.2-1.5-2.1-1.3-1 .4-1.5 1.3-1.3 2.2z" fill="#612c00"/></svg>
