<svg id="icon" enable-background="new 0 0 128 128" height="512" viewBox="0 0 128 128" width="512" xmlns="http://www.w3.org/2000/svg"><path d="m70.3 87.2-3.4 3.4c0 7.2-2.8 14.1-7.9 19.2-10.8 10.8-28.7 10.5-40-.8-.7-.7-1.5-1.5-2.1-2.4-9.1-11.3-8.7-27.5 1.4-37.6 5.1-5.1 12-7.9 19.1-7.9l3.4-3.4c6.6-6.4 16.6-7.6 24.5-2.9 1.6.9 3.1 2.1 4.5 3.4 8.1 8.2 8.3 21.1.5 29z" fill="#b55607"/><ellipse cx="45.6" cy="82.4" fill="#983729" rx="11.2" ry="11.2" transform="matrix(.707 -.707 .707 .707 -44.873 56.394)"/><path d="m27.1 87.3h4.8v22.5h-4.8z" fill="#ffa500" transform="matrix(.707 -.707 .707 .707 -61.033 49.7)"/><path d="m101.9 34.3-5.3 5.3-2.5 2.4-5 5.1-2.5 2.5-5 5-2.5 2.5-14.6 14.6-8.2-8.2 14.6-14.6 2.5-2.5 5-5 2.5-2.5 5-5 2.5-2.5 5.3-5.3z" fill="#ffa500"/><path d="m101.9 34.3-8.2-8.2 10.8-14.3c1.2-1.6 3.5-1.9 5.1-.7.1.1.3.2.4.3l6.6 6.6c1.4 1.4 1.4 3.7 0 5.2-.1.1-.2.2-.4.3z" fill="#ff8f2b"/><path d="m96.6 39.6-2.5 2.4-8.2-8.1 2.5-2.5z" fill="#ff8f2b"/><path d="m89.1 47.1-2.5 2.5-8.2-8.2 2.5-2.5z" fill="#ff8f2b"/><path d="m81.6 54.6-2.5 2.5-8.2-8.2 2.5-2.5z" fill="#ff8f2b"/><g fill="#612c00"><path d="m75.8 69.4c-1 .1-1.7 1-1.6 1.9.6 5.4-1.3 10.8-5.1 14.6l-3.4 3.4c-.3.3-.5.8-.5 1.2 0 14-11.3 25.3-25.2 25.3-.3 0-.5 0-.8 0-14.8-.4-26.7-12.3-27.1-27.1-.2-6.9 2.5-13.6 7.4-18.6.7-.7.7-1.8 0-2.5s-1.8-.7-2.5 0c-5.5 5.7-8.6 13.4-8.4 21.3.4 16.7 13.8 30.1 30.5 30.5h.6c15.7.1 28.6-12.4 28.9-28.1l2.9-2.9c4.6-4.6 6.8-11 6.1-17.4 0-1-.9-1.7-1.8-1.6z"/><path d="m24 66.4c.3 0 .6-.1.9-.2.2-.1.4-.2.5-.3.9-.5 1.2-1.5.7-2.4s-1.5-1.2-2.4-.7c-.2.1-.4.2-.6.3-.8.5-1.1 1.5-.7 2.4.4.6.9.9 1.6.9z"/><path d="m54.8 91.5c5.1-5.1 5.1-13.3 0-18.4s-13.3-5.1-18.4 0-5.1 13.3 0 18.4c2.4 2.4 5.7 3.8 9.2 3.8s6.8-1.3 9.2-3.8zm-15.9-2.4c-3.7-3.7-3.7-9.7 0-13.4s9.7-3.7 13.4 0 3.7 9.7 0 13.4c-3.7 3.7-9.7 3.7-13.4 0z"/><path d="m18.6 93.5 15.9 15.9c.7.7 1.8.7 2.5 0l3.4-3.4c.7-.7.7-1.8 0-2.5l-15.9-15.8c-.7-.7-1.8-.7-2.5 0l-3.4 3.3c-.7.7-.7 1.8 0 2.5zm4.6-2.1 13.4 13.4-.9.9-13.4-13.4z"/><path d="m117.8 16.8-6.6-6.6c-2.1-2.1-5.5-2.1-7.6 0-.2.2-.3.4-.5.6l-10.7 14.2-14 13.9-7.5 7.5-6.1 6.1c-8.4-4.2-18.5-2.6-25.2 3.9l-2.9 2.9c-2 .1-4 .3-5.9.8-.9.2-1.5 1.2-1.3 2.1s1.2 1.5 2.1 1.3c1.9-.4 3.9-.7 5.9-.7.5 0 .9-.2 1.2-.5l3.4-3.4c5.3-5.2 13.3-6.6 20.1-3.7l-7 7c-.7.7-.7 1.8 0 2.5l8.2 8.2c.7.7 1.8.7 2.5 0l15.8-15.8 7.5-7.5 14-14c.7-.7.7-1.8 0-2.5l-7.2-7.1 9.9-13.1c.3-.4.8-.7 1.4-.7.5 0 1.1.2 1.5.6l6.6 6.6c.7.7.7 1.9 0 2.7-.1.1-.1.1-.2.2l-8.9 6.7c-.8.6-.9 1.7-.3 2.5s1.7.9 2.4.3l8.9-6.7c2.4-1.8 2.8-5.2 1.1-7.6-.3-.4-.4-.6-.6-.7zm-30 29.1-5.7-5.7 5-5 5.7 5.7zm-7.5 7.5-5.7-5.7 5-5 5.7 5.7zm-15.8 15.8-5.7-5.7 13.3-13.3 5.7 5.7zm30.9-30.9-5.7-5.7 4-4 5.7 5.7z"/></g></svg>
