<svg id="icon" enable-background="new 0 0 128 128" height="512" viewBox="0 0 128 128" width="512" xmlns="http://www.w3.org/2000/svg"><path d="m111.3 52.7-2.7 2.7-7.8 7.8c-6.1 6.1-15.4 7.3-22.8 3.1l-11.4-6.5c-1.5.7-2.8 1.7-4 2.9-.6.6-1.2 1.3-1.7 2-.4.6-.8 1.3-1.2 1.9l6.5 11.4c4.2 7.4 3 16.8-3.1 22.8l-2.8 2.8-7.7 7.7c-7.4 7.4-19.4 7.4-26.9 0l-11.3-11.4c-1.6-1.6-1.8-4.2-.4-5.9.1-.2.2-.3.4-.4l29.4-29.4c2.6-2.6 6.4-3.5 9.8-2.5.3.1.6.2.9.3.4-.8.8-1.5 1.3-2.2s1.1-1.4 1.7-2.1l.4-.4c1.2-1.1 2.5-2 3.9-2.7-1.4-3.4-.8-7.3 1.6-10.1.2-.2.4-.4.6-.6l29.4-29.4c1.8-1.8 4.6-1.8 6.4 0l11.4 11.4c7.5 7.3 7.5 19.3.1 26.8z" fill="#983729"/><path d="m106.3 30.9-9.6-9.6-2.6 2.6-2.1 2.2-8 8-14.8 14.8c-.8.8-1 2-.6 3l.4.9 12.6 7.2c.8.4 1.6.8 2.4 1 1.8.6 3.8.7 5.7.3.8-.2 1.6-.4 2.3-.7.8-.3 1.5-.7 2.2-1.2.6-.4 1.1-.9 1.7-1.4l10.5-10.5c4.5-4.5 4.6-12-.1-16.6zm-46.3 50.7-7.2-12.6-.9-.4c-1-.4-2.2-.2-3 .6l-2.5 2.5-2.2 2.2-22.9 22.8 9.5 9.6c2.9 2.9 7.1 4.1 11 3.2 1.6-.4 3.2-1.1 4.5-2.1.4-.3.8-.7 1.2-1.1l10.5-10.5c3.9-3.8 4.7-9.6 2-14.2z" fill="#b5e3e9"/><g fill="#ebecee"><path d="m41.9 76.1v33.3c-1.9.4-3.8.4-5.7-.1v-27.5z"/><path d="m46.4 71.7v35.7c-.7.5-1.4.9-2.2 1.3v-34.9z"/><path d="m89.7 28.4v33c-1.9.4-3.8.3-5.7-.3v-27z"/><path d="m94.2 23.9v35.6c-.7.5-1.4.9-2.2 1.2v-34.6z"/></g><path d="m112.6 24.6-10.4-10.4 1.9-1.9c.7-.7.7-1.8 0-2.5s-1.8-.7-2.5 0l-2.1 2.2c-2.4-1.2-5.3-.7-7.2 1.2l-29.4 29.4c-2.9 2.9-4.1 7.1-3.1 11.1-2.5 1.5-4.6 3.6-6.1 6.1-4-1-8.2.1-11.1 3.1l-29.4 29.4c-1.9 1.9-2.4 4.8-1.2 7.2l-2.1 2.1c-.7.7-.7 1.8 0 2.5s1.8.7 2.5 0l1.9-1.9 10.4 10.4c8.1 8.1 21.2 8.1 29.3 0l10.5-10.5c6.6-6.6 8-16.8 3.3-25l-2.3-4.1 7.6-7.6 4.1 2.3c4.6 2.6 10 3.4 15.1 2.2.9-.3 1.5-1.2 1.2-2.2-.3-.9-1.1-1.4-2-1.2-4.3 1-8.8.4-12.6-1.8l-11.4-6.5c-.5-.3-1.1-.3-1.7 0-3.3 1.7-6 4.3-7.7 7.7-.3.5-.2 1.1 0 1.7l6.5 11.4c3.8 6.8 2.7 15.2-2.8 20.7l-10.5 10.5c-6.7 6.7-17.6 6.7-24.4 0l-11.2-11.5c-1.1-1.1-1.1-2.8 0-3.9l29.4-29.4c2.3-2.3 5.8-3 8.8-1.8.9.3 1.8 0 2.2-.9 1.4-2.9 3.7-5.2 6.5-6.5.8-.4 1.2-1.4.9-2.2-1.2-3-.5-6.5 1.8-8.8l29.4-29.4c1.1-1.1 2.8-1.1 3.9 0l11.4 11.4c6.7 6.7 6.7 17.7 0 24.4l-10.4 10.3c-.7.7-.7 1.8 0 2.5s1.8.7 2.5 0l10.5-10.5c8.1-8.1 8.1-21.2 0-29.3zm-48.8 39.2c.8-.8 1.7-1.5 2.7-2.1l3.4 1.9-6.3 6.3-1.9-3.4c.6-.9 1.3-1.9 2.1-2.7z" fill="#612c00"/><path d="m98 22.6c.7-.7.7-1.8 0-2.5s-1.8-.7-2.5 0l-27.6 27.6c-1.3 1.3-1.7 3.2-1 4.9l.4.9c.1.4.4.7.8.9l12.6 7.2c5.3 3 12 2.1 16.4-2.2l10.5-10.5c5.3-5.3 5.3-13.9 0-19.2l-5-5c-.7-.7-1.8-.7-2.5 0s-.7 1.8 0 2.5l5 5c3.9 3.9 3.9 10.3 0 14.3l-10.5 10.4c-3.2 3.2-8.2 3.9-12.2 1.6l-12.1-6.9-.1-.3c-.2-.4-.1-.8.2-1.1z" fill="#612c00"/><path d="m49.5 71 .6-.6c.7-.7.7-1.8 0-2.5s-1.8-.7-2.5 0l-.6.6c-.7.7-.7 1.8 0 2.5s1.8.7 2.5 0z" fill="#612c00"/><path d="m45.5 72.6c-.7-.7-1.8-.7-2.5 0l-22.9 22.9c-.7.7-.7 1.8 0 2.5l9.6 9.6c5.3 5.3 13.9 5.3 19.2 0l10.5-10.6c4.3-4.3 5.2-11 2.2-16.4l-3.9-6.9c-.5-.8-1.5-1.1-2.4-.7-.8.5-1.1 1.5-.7 2.4l3.9 6.9c2.3 4 1.6 8.9-1.6 12.2l-10.5 10.5c-3.9 3.9-10.3 3.9-14.3 0l-8.3-8.3 21.7-21.7c.7-.6.7-1.7 0-2.4z" fill="#612c00"/></svg>
