<svg id="icon" enable-background="new 0 0 128 128" height="512" viewBox="0 0 128 128" width="512" xmlns="http://www.w3.org/2000/svg"><path d="m74 75.3v33.1c0 4.4-2.9 8.3-7 9.6-1 .3-2 .4-3 .4-5.5 0-10-4.5-10-10v-33.1z" fill="#b55607"/><path d="m102.8 68.7h-77.6l18.1-51.3c1.7-4.7 6.2-7.9 11.2-7.9h19c5 0 9.5 3.2 11.2 7.9z" fill="#e4474f"/><path d="m22.2 68.7h83.6v6.7h-83.6z" fill="#ffa500"/><path d="m78.1 68.7h-28.8c0-53.3 14.2-59.2 14.2-59.2h.4s14.2 5.8 14.2 59.2z" fill="#ffc900"/><g fill="#612c00"><path d="m87.1 29.4.3.7c.3.9 1.3 1.4 2.2 1.1s1.4-1.3 1.1-2.2l-.3-.7c-.3-.9-1.3-1.4-2.2-1.1s-1.4 1.2-1.1 2.2z"/><path d="m105.8 66.9h-1.7l-11-31.1c-.3-.9-1.3-1.4-2.2-1.1s-1.4 1.3-1.1 2.2l10.6 30h-49.3c.3-43.7 10.3-53.8 12.6-55.5 2.2 1.6 11.3 10.6 12.5 48.6 0 1 .8 1.7 1.8 1.7 1 0 1.7-.8 1.7-1.8-1-30.8-7-43.5-11.2-48.7h5c4.3 0 8.1 2.7 9.6 6.8l1.7 4.7c.3.9 1.3 1.4 2.2 1.1s1.4-1.3 1.1-2.2l-1.7-4.7c-1.9-5.4-7.1-9.1-12.9-9.1h-19c-5.8 0-10.9 3.6-12.9 9.1l-15.3 43.2c-.3.9.2 1.9 1.1 2.2s1.9-.1 2.2-1.1l15.3-43.2c1.4-4 5.3-6.8 9.6-6.8h4.5c-1.7 2.2-3.1 4.6-4.2 7.1-4.7 10.7-7.1 27-7.2 48.5h-25.4c-1 0-1.8.8-1.8 1.8v6.7c0 1 .8 1.8 1.8 1.8h30v31.4c0 6.5 5.3 11.8 11.8 11.8s11.8-5.3 11.8-11.8v-24.3c0-1-.8-1.8-1.8-1.8s-1.8.8-1.8 1.8v24.2c0 4.6-3.7 8.3-8.3 8.3s-8.3-3.7-8.3-8.3v-31.3h50.1c1 0 1.8-.8 1.8-1.8v-6.7c.1-.9-.7-1.7-1.7-1.7zm-1.7 6.7h-80.2v-3.2h80.1v3.2z"/></g></svg>
