<svg id="icon" enable-background="new 0 0 128 128" height="512" viewBox="0 0 128 128" width="512" xmlns="http://www.w3.org/2000/svg"><path d="m93.3 44.4c-.2 1.6-.7 3.2-1.4 4.7-.9 3.3-1.5 6.6-1.8 10h-5.8-3.6c-13.7 0-16.7-6.7-16.7-6.7-.7 1.3-1.7 2.3-2.9 3.1-2.4 1.8-6.7 3.6-13.9 3.6h-9.4c-.3-3.4-.9-6.7-1.8-10-.8-1.5-1.3-3.1-1.4-4.7-.4-3.7.6-7.4 3-10.3.4-1.4.8-3 1.3-4.7 2-6.3 5.4-13.9 11-20h4.3s-5.4 6.5-9.4 19.6c0 .1-.1.2-.1.4.3-.1.6-.1.9-.2.9-.2 1.9-.3 2.9-.3 5.1 0 9.9 2.8 12.3 7.4.6 1.2 1.9 1.9 3.2 2h.2c1.3 0 2.5-.7 3.1-1.8 1.9-3.7 5.4-6.3 9.4-7.2.3 0 .5-.1.8-.1.7-.1 1.4-.2 2.1-.2 1.3 0 2.5.2 3.7.5 0-.1-.1-.2-.1-.3-4-13.2-9.4-19.7-9.4-19.7h4.3c7 7.7 10.6 17.6 12.3 24.6 2.3 2.9 3.4 6.6 2.9 10.3z" fill="#5dbd52"/><path d="m92.1 84.6c0 4.4-2.4 8.5-6.3 10.7-7.2 4.1-12.6 10.7-15.2 18.5-1.1 3.2-4.2 5.1-7.5 4.7-.7-.1-1.3-.3-1.9-.6-1.8-.9-3.1-2.4-3.8-4.3-2.6-7.8-8.1-14.4-15.3-18.4-3.8-2.2-6.2-6.2-6.1-10.6 0-1.9.1-3.7.4-5.6.1-.6.2-1.1.3-1.6.5-2.1.9-4.3 1.1-6.5h52.4c.2 2.2.6 4.3 1.1 6.5.1.5.2 1.1.3 1.6.3 1.9.5 3.7.5 5.6z" fill="#5dbd52"/><path d="m91.6 79h-55.2c.1-.6.2-1.1.3-1.6.5-2.1.9-4.3 1.1-6.5h52.4c.2 2.2.6 4.3 1.1 6.5.1.5.2 1 .3 1.6z" fill="#ff8f2b"/><g fill="#612c00"><path d="m92 33.3c-1.8-7.2-5.4-17.2-12.6-25-.4-.3-.9-.6-1.4-.6h-4.3c-1 0-1.8.8-1.7 1.8 0 .4.1.8.4 1.1 0 .1 4.6 5.6 8.3 16.6-6.3-.5-12.2 2.8-15.1 8.4-.3.6-.9.9-1.5.9h-.2c-.7 0-1.3-.4-1.7-1-1.9-3.6-5-6.2-8.8-7.5-.9-.3-1.9.1-2.2 1.1s.1 1.9 1.1 2.2h.1c3 1 5.4 3.1 6.9 5.8.9 1.8 2.8 2.9 4.8 2.9h.2c2 0 3.8-1.1 4.7-2.8 2.6-5.1 8.5-7.7 14-6.1.9.3 1.9-.3 2.2-1.2.1-.3.1-.7 0-1-1.8-6.2-4.4-12.2-7.8-17.7h.1c6.5 7.4 9.8 16.7 11.4 23.3.1.2.2.5.3.7 2 2.5 3 5.8 2.6 9-.2 1.4-.6 2.8-1.3 4.1-.1.1-.1.2-.1.4-.9 3.4-1.5 6.8-1.8 10.3-.1 1 .6 1.8 1.6 1.9h.2c.9 0 1.7-.7 1.7-1.6.3-3.2.9-6.4 1.7-9.5.8-1.6 1.3-3.3 1.5-5.1.2-4.1-.9-8.1-3.3-11.4z"/><path d="m36.1 59.3c.1.9.8 1.6 1.7 1.6h9.4c9.7 0 14.5-3.3 16.7-5.6 2.2 2.3 7 5.6 16.7 5.6h2.4c1 0 1.8-.8 1.8-1.8s-.8-1.8-1.8-1.8h-2.4c-12.3 0-15-5.5-15.1-5.7-.4-.9-1.4-1.3-2.3-.9-.4.2-.7.5-.9.9 0 .1-2.8 5.7-15.1 5.7h-7.8c-.3-2.9-.9-5.8-1.7-8.7 0-.1-.1-.2-.1-.4-.7-1.3-1.1-2.7-1.3-4.1-.3-3.1.7-6.3 2.7-8.9.2-.2.3-.4.3-.7 1.6-6.6 4.9-16 11.4-23.3h.1c-3.4 5.5-6 11.5-7.8 17.7-.3.9.2 1.9 1.1 2.2s1.9-.2 2.2-1.1v-.1c3.8-12.8 9.1-19.3 9.2-19.4.6-.7.5-1.8-.2-2.5-.3-.3-.7-.4-1.1-.4h-4.2c-.5 0-1 .2-1.3.6-7.2 7.8-10.8 17.9-12.6 25-2.5 3.2-3.6 7.3-3.1 11.3.2 1.8.7 3.5 1.5 5.1.8 3.3 1.3 6.5 1.6 9.7z"/><path d="m93.3 78.7c-.1-.6-.2-1.1-.3-1.7-.5-2.1-.8-4.2-1.1-6.3-.1-.9-.8-1.6-1.7-1.6h-52.4c-.9 0-1.6.7-1.7 1.6-.2 2.1-.6 4.2-1.1 6.3-.1.5-.2 1.1-.4 1.7-.3 1.9-.5 3.9-.4 5.9 0 5 2.7 9.6 7 12.1 6.8 3.8 12 10.1 14.5 17.5 1.1 3.6 4.5 6.1 8.3 6.1 3.7 0 7-2.4 8.2-5.9 1.1-3.3 2.7-6.3 4.8-9.1.6-.8.4-1.9-.4-2.4-.8-.6-1.9-.4-2.4.3-2.3 3.1-4.1 6.5-5.3 10.1-.8 2.4-3.1 3.9-5.6 3.5-2-.3-3.6-1.8-4.3-3.7-2.8-8.2-8.5-15.2-16.1-19.4-3.3-1.8-5.3-5.3-5.2-9 0-1.8.1-3.5.4-5.3.1-.5.2-1 .3-1.5.4-1.7.7-3.4.9-5.1h49.3c.2 1.6.5 3.1.8 4.6h-38.2c-1 0-1.8.8-1.8 1.8s.8 1.8 1.8 1.8h38.9c.2 1.3.2 2.6.2 3.9 0 3.8-2.1 7.3-5.4 9.1-1.9 1.1-3.8 2.4-5.4 3.8-.7.6-.9 1.7-.2 2.5.6.7 1.7.9 2.5.2 1.5-1.3 3.2-2.4 4.9-3.4 4.4-2.5 7.1-7.1 7.2-12.2-.1-2.3-.2-4.2-.6-6.2z"/><path d="m43.3 77.2c-1 0-1.8.8-1.8 1.8s.8 1.8 1.8 1.8h1.2c1 0 1.8-.8 1.8-1.8s-.8-1.8-1.8-1.8z"/></g></svg>
