<svg id="icon" enable-background="new 0 0 128 128" height="512" viewBox="0 0 128 128" width="512" xmlns="http://www.w3.org/2000/svg"><path d="m91.8 9.5-.7 7.2-1.7 15.3-4.8 43.8-1.8 16.1h-37.6l-2-16.1-5.3-43.8-1.9-15.3-.8-7.2z" fill="#d1d1d1"/><path d="m89.4 32-4.8 43.8h-41.4l-5.3-43.8z" fill="#5dbd52"/><path d="m82.8 91.9v20.9c0 3.2-2.6 5.7-5.7 5.7h-26.2c-3.2 0-5.7-2.6-5.7-5.7v-20.9z" fill="#5dbd52"/><path d="m91.8 9.5-.7 7.2h-55.1l-.8-7.2z" fill="#5dbd52"/><path d="m64 102.8c-4.3 0-7.8 3.5-7.8 7.8h15.5c.1-4.4-3.4-7.8-7.7-7.8z" fill="#4b9641"/><circle cx="64" cy="53.9" fill="#ffda2d" r="11.8"/><g fill="#612c00"><path d="m49.8 52.1c-1 0-1.8.8-1.8 1.8s.8 1.8 1.8 1.8h2.5c.3 1.9 1 3.7 2.2 5.3l-1.8 1.8c-.7.7-.7 1.8 0 2.5s1.8.7 2.5 0l1.8-1.8c1.6 1.2 3.4 1.9 5.3 2.2v2.5c0 1 .8 1.8 1.8 1.8s1.8-.8 1.8-1.8v-2.5c1.9-.3 3.7-1 5.3-2.2l1.8 1.8c.7.7 1.8.7 2.5 0s.7-1.8 0-2.5l-1.8-1.8c1.2-1.6 1.9-3.4 2.2-5.3h2.5c1 0 1.8-.8 1.8-1.8s-.8-1.8-1.8-1.8h-2.5c-.3-1.9-1-3.7-2.2-5.3l1.8-1.8c.7-.7.7-1.8 0-2.5s-1.8-.7-2.5 0l-2 1.9c-1.6-1.2-3.4-1.9-5.3-2.2v-2.5c0-1-.8-1.8-1.8-1.8s-1.8.8-1.8 1.8v2.5c-1.9.3-3.7 1-5.3 2.2l-1.8-1.8c-.7-.7-1.8-.7-2.5 0s-.7 1.8 0 2.5l1.8 1.8c-1.2 1.6-1.9 3.4-2.2 5.3zm14.2-6.6c4.6 0 8.4 3.7 8.4 8.4s-3.7 8.4-8.4 8.4-8.4-3.7-8.4-8.4c0-4.6 3.8-8.4 8.4-8.4z"/><path d="m93.1 8.3c-.3-.4-.8-.6-1.3-.6h-33.8c-1 0-1.8.8-1.8 1.8s.8 1.8 1.8 1.8h31.9l-.4 3.7h-51.9l-.4-3.7h8c1 0 1.8-.8 1.8-1.8s-.8-1.8-1.8-1.8h-10c-1 0-1.7.8-1.7 1.8v.2l.9 7.2 9 75.1v20.8c0 4.1 3.3 7.5 7.5 7.5h26.2c4.1 0 7.5-3.3 7.5-7.5v-20.8l7.4-67.6c.1-1-.6-1.8-1.5-2-1-.1-1.8.6-2 1.5v.1l-.7 6.2h-42.6c-1 0-1.8.8-1.8 1.8s.8 1.8 1.8 1.8h42.3l-6.2 56.4h-34.6l-1.5-12.7h31.6c1 0 1.8-.8 1.8-1.8s-.8-1.7-1.8-1.7h-32l-6.8-55.6h53c.9 0 1.6-.7 1.7-1.6l.8-7.2c.1-.4 0-.9-.4-1.3zm-46.2 85.4h34.2v19.1c0 2.2-1.8 4-4 4h-26.2c-2.2 0-4-1.8-4-4z"/><path d="m51.2 11.3h1c1 0 1.8-.8 1.8-1.8s-.8-1.8-1.8-1.8h-1c-1 0-1.8.8-1.8 1.8s.8 1.8 1.8 1.8z"/><path d="m56.3 112.3h15.5c1 0 1.8-.8 1.8-1.8 0-5.2-4.3-9.5-9.5-9.5s-9.5 4.3-9.5 9.5c-.1 1 .7 1.8 1.7 1.8zm7.7-7.8c2.6 0 5 1.7 5.7 4.3h-11.4c.7-2.6 3.1-4.3 5.7-4.3z"/></g></svg>
