<svg id="icon" enable-background="new 0 0 128 128" height="512" viewBox="0 0 128 128" width="512" xmlns="http://www.w3.org/2000/svg"><path d="m111.7 105.6h-95.4l47.7-81.8z" fill="#5dbd52"/><path d="m64 23.8v81.8h47.7z" fill="#4b9641"/><path d="m87.8 105.6h-23.8v-33.6z" fill="#ff8f2b"/><g fill="#612c00"><path d="m118.5 103.9h-5.8l-33.8-58c-.5-.8-1.6-1.1-2.4-.6s-1.1 1.6-.6 2.4l32.8 56.3h-19.9l-23-32.4v-41.3l3 5.2c.5.8 1.6 1.1 2.4.6s1.1-1.6.6-2.4l-4.7-8.1-1.1-1.8 5.6-9.5c.5-.8.2-1.9-.6-2.4s-1.9-.2-2.4.6l-4.6 7.8-4.6-7.8c-.5-.8-1.6-1.1-2.4-.6s-1.1 1.6-.6 2.4l5.6 9.5-42.9 73.5c-.5.8-.2 1.9.6 2.4s1.9.2 2.4-.6l40.1-68.7v65.6c0 1 .8 1.8 1.8 1.8s1.8-.8 1.8-1.8v-18.5l18.7 26.3h-75c-1 0-1.8.8-1.8 1.8s.8 1.8 1.8 1.8h109c1 0 1.8-.8 1.8-1.8s-.8-1.7-1.8-1.7z"/><path d="m108.7 112.9h-26.7c-1 0-1.8.8-1.8 1.8s.8 1.8 1.8 1.8h26.7c1 0 1.8-.8 1.8-1.8s-.9-1.8-1.8-1.8z"/><path d="m74 112.9h-54.7c-1 0-1.8.8-1.8 1.8s.8 1.8 1.8 1.8h54.7c1 0 1.8-.8 1.8-1.8s-.8-1.8-1.8-1.8z"/><path d="m72 40.9.6 1.1c.5.8 1.6 1.1 2.4.6s1.1-1.6.6-2.4l-.6-1c-.5-.8-1.6-1.1-2.4-.6s-1.1 1.5-.6 2.3z"/></g></svg>
