<svg id="icon" enable-background="new 0 0 128 128" height="512" viewBox="0 0 128 128" width="512" xmlns="http://www.w3.org/2000/svg"><path d="m110.4 54.9c0 .6-.4 1-1 1s-1-.4-1-1c0-7.1-5.3-13.1-12.3-14-.6-.1-1.2-.1-1.9-.1-7.8 0-14.1 6.3-14.1 14.1 0 .6-.4 1-1 1s-1-.4-1-1c0-7.8-6.3-14.1-14.1-14.1s-14.1 6.3-14.1 14.1c0 .6-.4 1-1 1s-1-.4-1-1c0-7.8-6.3-14.1-14.1-14.1s-14.1 6.3-14.1 14.1c0 .6-.4 1-1 1s-1-.4-1-1c-.1-25.6 20.7-46.4 46.3-46.4h.6c25.4.4 45.8 21 45.8 46.4z" fill="#ff596b"/><path d="m80.1 54.9c0 .6-.4 1-1 1s-1-.4-1-1c0-7-5.1-12.9-12-14-.7-.1-1.4-.2-2.2-.2-7.8 0-14.1 6.3-14.1 14.1 0 .6-.4 1-1 1s-1-.4-1-1c0-37.5 15-46 15.7-46.3.3-.2.6-.2.9 0 .7.5 15.7 9 15.7 46.4z" fill="#ebecee"/><g fill="#612c00"><path d="m84.6 16.4c.3.2.7.4 1 .5.8.5 1.9.2 2.4-.6s.2-1.9-.6-2.4c-.3-.2-.7-.4-1.1-.6-.9-.5-1.9-.1-2.4.7-.5.9-.1 2 .7 2.4z"/><path d="m118.5 116.8h-7.8v-20.8l7.4-21.6c.3-.9-.2-1.9-1.1-2.2s-1.9.2-2.2 1.1l-7.1 20.7h-20.5c-1 0-1.8.8-1.8 1.8v21.1h-19.6v-75.2c6.7.9 11.6 6.6 11.6 13.3 0 1 .8 1.8 1.8 1.8s1.8-.8 1.8-1.8c0-7.4 6-13.4 13.4-13.4s13.4 6 13.4 13.4c0 1 .8 1.8 1.8 1.8s1.8-.8 1.8-1.8c0-14.4-6.5-27.9-17.7-36.9-.8-.6-1.9-.5-2.5.3s-.5 1.8.3 2.4c7.1 5.6 12.2 13.3 14.7 21.9-6.7-6.4-17.4-6.2-23.8.5-.6.6-1.1 1.3-1.6 1.9-1.8-19.2-7.7-29-11.8-33.6 3.3.4 6.5 1.1 9.5 2.2.9.3 1.9-.1 2.3-1 .3-.9-.1-1.9-1-2.3 0 0 0 0-.1 0-24.6-8.6-51.5 4.3-60.2 28.9-1.8 5-2.7 10.3-2.7 15.6 0 1 .8 1.8 1.8 1.8s1.8-.8 1.8-1.8c0-7.4 6-13.4 13.4-13.4s13.4 6 13.4 13.4c0 1 .8 1.8 1.8 1.8s1.8-.8 1.8-1.8c0-6.7 5-12.4 11.6-13.3v39.3h-23.6c-1 0-1.8.8-1.8 1.8s.8 1.8 1.8 1.8h23.4v32.3h-19.6v-21.1c0-1-.8-1.8-1.8-1.8h-20.5l-7.1-20.7c-.3-.9-1.3-1.4-2.2-1.1s-1.4 1.3-1.1 2.2l7.4 21.7v20.8h-7.8c-1 0-1.8.8-1.8 1.8s.8 1.8 1.8 1.8h109c1 0 1.8-.8 1.8-1.8s-.8-1.8-1.8-1.8zm-69.6-69.4c-4.1-8.4-14.2-11.8-22.6-7.7-1.5.8-2.9 1.7-4.2 2.9 4.9-16.8 19.5-29 36.9-31.1-3.5 3.9-8.2 11.5-10.5 25.3-.2 1 .5 1.9 1.4 2s1.9-.5 2-1.4c2.9-17.2 9.7-23.9 12-25.8 2.7 2.1 10.8 10.3 12.9 32.4-6-7.1-16.6-8.1-23.8-2.1-1.7 1.6-3.1 3.4-4.1 5.5zm58.4 50v12.2h-18.4v-12.2zm-18.4 15.7h18.3v3.7h-18.3zm-49.8-3.5h-18.3v-12.2h18.3zm-18.3 3.5h18.3v3.7h-18.3z"/><path d="m71.2 80.9c-1 0-1.8.8-1.8 1.8s.8 1.8 1.8 1.8h18c1 0 1.8-.8 1.8-1.8s-.8-1.8-1.8-1.8z"/></g></svg>
