<svg id="icon" enable-background="new 0 0 128 128" height="512" viewBox="0 0 128 128" width="512" xmlns="http://www.w3.org/2000/svg"><path d="m14.4 34.2h99.2c2.7 0 4.9 2.2 4.9 4.9v65.1c0 2.7-2.2 4.9-4.9 4.9h-99.2c-2.7 0-4.9-2.2-4.9-4.9v-65.1c0-2.8 2.2-4.9 4.9-4.9z" fill="#983729"/><path d="m21.5 29.1h12v80h-12z" fill="#ebecee"/><path d="m94.5 29.1h12v80h-12z" fill="#ebecee"/><g fill="#612c00"><path d="m113.6 32.4h-5.3v-3.3c0-1-.8-1.8-1.8-1.8h-12c-1 0-1.8.8-1.8 1.8v3.3h-43.4v-7c0-2.6 2.1-4.7 4.8-4.8h20c2.6 0 4.8 2.1 4.8 4.8 0 1 .8 1.8 1.8 1.8s1.8-.8 1.8-1.8c0-4.6-3.7-8.2-8.3-8.3h-20.2c-4.6 0-8.2 3.7-8.3 8.3v7h-10.5v-3.3c0-1-.8-1.8-1.8-1.8h-12c-1 0-1.8.8-1.8 1.8v78.3h-5.3c-1.7 0-3.1-1.4-3.1-3.2v-65.2c0-1.7 1.4-3.1 3.1-3.1 1 0 1.8-.8 1.8-1.8s-.8-1.8-1.8-1.8c-3.7 0-6.6 3-6.7 6.7v65.1c0 3.7 3 6.6 6.7 6.7h99.2c3.7 0 6.6-3 6.7-6.7v-65.1c0-3.6-2.9-6.6-6.6-6.6zm-17.3-1.6h8.5v1.6h-8.5zm-64.6 0v1.6h-8.5v-1.6zm-8.5 76.5v-71.4h69.5v63.4c0 1 .8 1.8 1.8 1.8s1.8-.8 1.8-1.8v-63.4h8.5v71.4h-69.6v-55c0-1-.8-1.8-1.8-1.8s-1.8.8-1.8 1.8v55.1h-8.4zm93.6-3.1c0 1.7-1.4 3.1-3.2 3.2h-5.3v-71.5h5.3c1.7 0 3.1 1.4 3.2 3.2z"/><path d="m33.5 46.8c1 0 1.8-.8 1.8-1.8v-1.3c0-1-.8-1.8-1.8-1.8s-1.8.8-1.8 1.8v1.3c0 1 .8 1.8 1.8 1.8z"/></g></svg>
