<svg id="icon" enable-background="new 0 0 128 128" height="512" viewBox="0 0 128 128" width="512" xmlns="http://www.w3.org/2000/svg"><path d="m41.8 30c0 2.3-.7 4.6-2 6.6-3.6 5.4-10.9 6.8-16.3 3.1-5.4-3.6-6.8-10.9-3.1-16.3s10.9-6.8 16.3-3.1c3.2 2.2 5.1 5.8 5.1 9.7z" fill="#ffc900"/><path d="m117 82.2c-.1.2-.3.4-.5.4h-.1c-.3-.1-.4-.3-.4-.6 1.7-6.2-2-12.6-8.2-14.2-.1 0-.3-.1-.4-.1-6.1-1.4-12.2 2.2-13.8 8.3-.1.3-.3.5-.6.4-.3 0-.4-.3-.4-.5v-.1c1.7-6.2-2-12.6-8.2-14.2-3-.8-6.1-.4-8.8 1.1s-4.6 4.1-5.4 7c-.1.3-.4.4-.6.3s-.4-.3-.4-.5v-.1c1.7-6.2-2-12.6-8.2-14.2s-12.6 2-14.2 8.2c-.1.3-.3.4-.6.4-.2-.1-.4-.3-.4-.5v-.1c5.5-19.9 25.7-31.5 45.3-26.2.1 0 .2.1.4.1 19.4 5.5 30.8 25.6 25.5 45.1z" fill="#ff596b"/><path d="m93.7 75.9c-.1.2-.3.4-.5.4h-.1c-.2-.1-.4-.3-.4-.5v-.1c1.5-5.4-1.2-11.1-6.2-13.5-.6-.3-1.3-.6-2-.7-6.2-1.7-12.6 2-14.2 8.2-.1.3-.4.4-.6.3-.3-.1-.4-.3-.3-.6 7.8-28.7 21-32.1 21.5-32.3.2 0 .3 0 .5.1.3.3 10 9.9 2.3 38.7z" fill="#ebecee"/><path d="m107.5 118.5h-87c.4-7.7 5.7-14.3 13.2-16.3 1.5-.4 3-.6 4.5-.6 5.2 0 10.2 2.3 13.6 6.3 2.7-5.7 7.9-9.8 14-11.2 1.5-.3 3-.5 4.5-.5 8.3 0 15.7 5 18.9 12.7 7.6-2.5 15.7 1.6 18.2 9.2 0 .1.1.3.1.4z" fill="#ff8f2b"/><g fill="#612c00"><path d="m30 43.5c7.5 0 13.5-6 13.5-13.5 0-2.4-.6-4.7-1.8-6.7-.5-.8-1.6-1.1-2.4-.6s-1.1 1.5-.6 2.3c2.7 4.8 1.1 10.9-3.7 13.6s-10.9 1.1-13.6-3.7-1.1-10.9 3.7-13.6c3.1-1.8 7-1.8 10.1.1.8.5 1.9.2 2.4-.6s.2-1.9-.6-2.4c-6.4-3.9-14.7-1.8-18.5 4.6s-1.8 14.7 4.5 18.6c2.1 1.3 4.6 1.9 7 1.9z"/><path d="m30 15.3c1 0 1.8-.8 1.8-1.8v-4c0-1-.8-1.8-1.8-1.8s-1.8.8-1.8 1.8v4c.1 1 .9 1.8 1.8 1.8z"/><path d="m41.7 20.1c.5 0 .9-.2 1.2-.5l2.8-2.8c.7-.7.7-1.8 0-2.5s-1.8-.7-2.5 0l-2.8 2.8c-.7.7-.7 1.8 0 2.5.4.3.8.5 1.3.5z"/><path d="m44.8 30c0 1 .8 1.8 1.8 1.8h4c1 0 1.8-.8 1.8-1.8s-.8-1.8-1.8-1.8h-4c-1 .1-1.8.9-1.8 1.8z"/><path d="m40.5 40.5c-.7.7-.7 1.8 0 2.5l2.8 2.8c.7.7 1.8.7 2.5 0s.7-1.8 0-2.5l-2.8-2.8c-.7-.7-1.9-.7-2.5 0z"/><path d="m28.3 46.5v4c0 1 .8 1.8 1.8 1.8s1.8-.8 1.8-1.8v-4c0-1-.8-1.8-1.8-1.8s-1.8.9-1.8 1.8z"/><path d="m17.1 40.5-2.8 2.8c-.7.7-.7 1.8 0 2.5s1.8.7 2.5 0l2.8-2.8c.7-.7.7-1.8 0-2.5s-1.8-.7-2.5 0z"/><path d="m9.5 31.8h4c1 0 1.8-.8 1.8-1.8s-.8-1.8-1.8-1.8h-4c-1 0-1.8.8-1.8 1.8s.8 1.8 1.8 1.8z"/><path d="m17.1 19.6c.7.7 1.8.7 2.5 0s.7-1.8 0-2.5l-2.8-2.8c-.7-.7-1.8-.7-2.5 0s-.7 1.8 0 2.5z"/><path d="m106.9 49.2c.7.7 1.8.7 2.5.1.7-.7.7-1.7.1-2.4-.2-.3-.5-.5-.7-.8-.7-.7-1.8-.7-2.5 0s-.7 1.8 0 2.5c.2.1.4.3.6.6z"/><path d="m118.5 116.8h-9.8c-2.5-6.2-8.4-10.3-15.1-10.3-1.2 0-2.4.1-3.5.4-2.7-5.4-7.4-9.4-13.1-11.3l8.8-32.4c4.6 2.1 7 7.2 5.6 12.1-.3.9.3 1.9 1.2 2.1s1.9-.3 2.1-1.2c1.6-5.5 7.3-8.7 12.8-7.1 5.4 1.5 8.6 7.1 7.2 12.5-.3.9.3 1.9 1.2 2.1.9.3 1.9-.3 2.1-1.2 2.9-10.7 1-22-5.1-31.2-.5-.8-1.6-1-2.4-.5s-1 1.6-.5 2.4c3.5 5.2 5.5 11.2 5.8 17.4-4.2-5.7-11.9-7.3-18.1-3.8-.4.2-.8.5-1.2.8 2.4-13.8.4-22.3-1.7-26.9 2.3 1 4.6 2.3 6.6 3.7.8.6 1.9.4 2.4-.4.6-.8.4-1.9-.4-2.4-17.1-12.3-40.9-8.4-53.2 8.6-2.7 3.7-4.7 7.9-5.9 12.3-.3.9.3 1.9 1.2 2.1.9.3 1.9-.3 2.1-1.2 1.5-5.5 7.2-8.8 12.7-7.3s8.8 7.2 7.3 12.7c0 .1-.1.3-.1.5 0 1 .8 1.7 1.8 1.7.8 0 1.5-.5 1.7-1.3 1.3-4.9 6-8.1 11-7.6l-8.8 32.5c-8.8-1.4-17.6 2.7-22.3 10.3-7.9-7.3-20.3-6.8-27.5 1.2-1.1 1.2-2.1 2.6-2.9 4.1-.5.9-.1 1.9.7 2.4.9.5 1.9.1 2.4-.7 4.1-7.8 13.8-10.8 21.6-6.6 1.8 1 3.4 2.3 4.7 3.8.6.7 1.7.8 2.5.2.2-.2.3-.4.5-.6 4.4-9.3 15.5-13.3 24.9-8.9 4.2 2 7.5 5.5 9.3 9.8.3.8 1.3 1.3 2.2 1 5.9-1.9 12.3.7 15.2 6.2h-16.7c-1 0-1.8.8-1.8 1.8s.8 1.8 1.8 1.8h30.7c1 0 1.8-.8 1.8-1.8s-.8-1.8-1.8-1.8zm-43.9-56.2c-1.1.6-2.1 1.4-3 2.3-1.8-7.4-9.4-12-16.8-10.1-.7.2-1.4.4-2.1.7 7.3-10.9 20.1-16.9 33.1-15.2-3.4 2.4-8.2 7.2-12.5 16.3-.4.9-.1 1.9.8 2.3s1.9.1 2.3-.8c0 0 0 0 0-.1 5.5-11.7 11.7-15.5 14-16.5 1.7 2.4 5.7 10 3.1 26.2-3.7-6.7-12.2-9-18.9-5.3.1.1 0 .1 0 .2z"/><path d="m80.3 116.8h-70.8c-1 0-1.8.8-1.8 1.8s.8 1.8 1.8 1.8h70.8c1 0 1.8-.8 1.8-1.8s-.8-1.8-1.8-1.8z"/></g></svg>
