<svg id="icon" enable-background="new 0 0 128 128" height="512" viewBox="0 0 128 128" width="512" xmlns="http://www.w3.org/2000/svg"><path d="m60.2 17.2s-10.6 4.6-10.6 15.7h-5.3s-1.4-15.8 9.7-20l1.7 1.2z" fill="#b55607"/><path d="m86.4 67.9c0 9.3-3.4 18.4-9.6 25.4-.8.9-1.6 1.7-2.5 2.6-2.7 2.6-5.8 4.8-9.2 6.5-1.1.5-2.1 1-3.2 1.4-4.5 1.7-9.2 2.6-14 2.6-1.5 0-2.9-.1-4.4-.3-.5-.1-1-.1-1.5-.2-.7-.1-1.4-.2-2-.4-3.7-.8-7.3-2.1-10.6-3.9-1-.6-2-1.2-3-1.8-17.6-11.9-22.2-35.8-10.3-53.4 2.3-3.3 5-6.3 8.2-8.8 1.1-.9 2.3-1.7 3.5-2.4 2.3-1.4 4.8-2.6 7.3-3.5 1.3-.5 2.6-.9 4-1.2.9-.2 1.9-.4 2.8-.5 2-.3 4-.5 6-.5 2.6 0 5.3.3 7.8.8 1.1.2 2.3.5 3.4.9 4.2 1.3 8.1 3.2 11.6 5.8 1.2.9 2.4 1.9 3.5 2.9 7.8 7.2 12.2 17.4 12.2 28z" fill="#4b9641"/><path d="m118.5 74c0 22.7-18.4 41-41 41-1.2 0-2.4-.1-3.5-.2-21.3-1.7-37.6-19.5-37.6-40.8z" fill="#5dbd52"/><path d="m108.9 74c0 17.4-14.1 31.4-31.4 31.4-1.3 0-2.6-.1-3.9-.2-15.8-2-27.6-15.3-27.6-31.2z" fill="#e4474f"/><path d="m58.4 79c-1 0-1.8.8-1.8 1.8v2.4c0 1 .8 1.8 1.8 1.8s1.8-.8 1.8-1.8v-2.4c-.1-1-.8-1.8-1.8-1.8z" fill="#983729"/><path d="m72.2 87.3c-1 0-1.8.8-1.8 1.8v2.4c0 1 .8 1.8 1.8 1.8s1.8-.8 1.8-1.8v-2.5c-.1-.9-.9-1.7-1.8-1.7z" fill="#983729"/><path d="m83.7 80.2c-1 0-1.8.8-1.8 1.8v2.4c0 1 .8 1.8 1.8 1.8s1.8-.8 1.8-1.8v-2.4c0-1-.8-1.8-1.8-1.8z" fill="#983729"/><path d="m95.1 84.8c-1 0-1.8.8-1.8 1.8v2.4c0 1 .8 1.8 1.8 1.8s1.8-.8 1.8-1.8v-2.4c-.1-1-.9-1.8-1.8-1.8z" fill="#983729"/><g fill="#612c00"><path d="m118.5 72.3h-44.3c.3-1.5.6-2.9 1-4.3.6-2.6 1.2-5.2 1.7-7.9.8-5.3.5-10.7-1-15.8 5.2 6.1 8.2 13.7 8.7 21.6 0 1 .9 1.7 1.8 1.7 1 0 1.7-.9 1.7-1.8-.6-11.5-6.3-22.3-15.4-29.4 0 0-.1 0-.1-.1-7-5.5-15.7-8.5-24.7-8.5-.6 0-1.1 0-1.7 0 .5-4.4 2.2-10.4 7.6-12.9l3.1 2.2c-2 1.3-3.8 2.9-5.2 4.8-.6.8-.5 1.9.3 2.5s1.9.5 2.5-.3c1.7-2.2 3.9-4 6.4-5.2.9-.4 1.3-1.4.9-2.3-.1-.3-.3-.6-.6-.7l-6.2-4.4c-.5-.3-1.1-.4-1.6-.2-8.1 3-10.2 11.3-10.8 16.8-1.9.2-3.8.6-5.6 1.2h-.1c-4 1.2-7.9 2.9-11.4 5.3-.1.1-.3.2-.4.3-18.2 12.5-22.9 37.5-10.3 55.8 3.2 4.6 7.3 8.5 12 11.4.1.1.2.1.3.2 4.4 2.7 9.2 4.4 14.2 5.3h.1c2.2.4 4.4.5 6.6.5 1.2 0 2.3-.1 3.5-.2 15.9 12.2 38.1 11.7 53.4-1.1.7-.6.8-1.7.2-2.5-.6-.7-1.7-.8-2.5-.2-16.7 13.9-41.4 11.7-55.3-5-5.5-6.6-8.7-14.8-9.1-23.4h4.6 64.2c-1 16.4-15 28.8-31.4 27.9-12.4-.7-23-9.1-26.6-21-.3-.9-1.3-1.4-2.2-1.2s-1.4 1.3-1.2 2.2c5.4 17.5 23.9 27.4 41.4 22 13.3-4.1 22.7-16.1 23.4-30h6.1c-.2 4.9-1.3 9.7-3.3 14.1-.4.9.1 1.9 1 2.3s1.9 0 2.2-.9c2.4-5.4 3.6-11.3 3.6-17.3.2-.7-.5-1.5-1.5-1.5zm-63.1-40.3c-.5 3.3-1 11.7 3.7 23.8 1.2 3.2 1.5 6.7.7 10-.2.9.4 1.9 1.4 2.1s1.9-.4 2.1-1.4c.9-4 .6-8.1-.9-11.9-4.2-10.8-3.9-18.5-3.5-21.6 4.1 1.3 7.9 3.3 11.4 5.9.9 1.8 4.9 10.8 3.3 20.7-.4 2.5-1 5.1-1.6 7.6-.4 1.7-.8 3.4-1.2 5.2h-26.8c-1.5-3.4-1.7-7.2-.5-10.7 4.2-13.1 3.8-18.1-2.1-24.2-2.5-2.7-2.9-4.2-2.8-4.8 5.5-1.7 11.2-1.8 16.8-.7zm-7.8 72.6c-1.1 0-2.2-.1-3.3-.2.4-.8.7-1.5 1-2.2.7.9 1.5 1.7 2.3 2.4zm-4.8-5.5c-.6 1.5-1.3 3.2-2.1 4.8-3.7-.7-7.3-2.1-10.6-3.9 2-5.2 8-23.2 1.7-36.2-.8-1.6-1.4-3.2-2-4.8-.3-.9-1.3-1.4-2.2-1.1s-1.4 1.3-1.1 2.2c.6 1.8 1.3 3.5 2.1 5.2 5.4 11.2.4 27.2-1.6 32.8-16.6-11.5-20.8-34.3-9.3-51 1.8-2.6 3.9-4.9 6.3-7-.3 3.5-.2 7.1.2 10.6.1.9.9 1.5 1.7 1.5h.2c1-.1 1.6-1 1.5-2-.6-4.3-.5-8.7.2-13 2.3-1.5 4.7-2.7 7.2-3.7.3 1.8 1.6 3.9 3.7 6.2 4.5 4.8 5.3 8.2 1.3 20.7-1.3 3.8-1.3 8 .1 11.8h-3.9c-1 0-1.8.8-1.8 1.8.3 9 3.1 17.8 8.4 25.1z"/><path d="m113.1 94.5c-.8-.5-1.9-.3-2.4.5-.6.9-1.2 1.9-1.9 2.7-.6.8-.5 1.9.3 2.5s1.9.5 2.5-.3c.7-1 1.4-2 2.1-3 .4-.8.2-1.9-.6-2.4z"/><path d="m60.1 83.2v-2.4c0-1-.8-1.8-1.8-1.8s-1.8.8-1.8 1.8v2.4c0 1 .8 1.8 1.8 1.8s1.8-.8 1.8-1.8z"/><path d="m73.9 91.4v-2.4c0-1-.8-1.8-1.8-1.8s-1.8.8-1.8 1.8v2.4c0 1 .8 1.8 1.8 1.8s1.8-.8 1.8-1.8z"/><path d="m85.5 84.4v-2.4c0-1-.8-1.8-1.8-1.8s-1.7.8-1.7 1.8v2.4c0 1 .8 1.8 1.8 1.8s1.7-.8 1.7-1.8z"/><path d="m96.8 89v-2.4c0-1-.8-1.8-1.8-1.8s-1.8.8-1.8 1.8v2.4c0 1 .8 1.8 1.8 1.8s1.8-.8 1.8-1.8z"/></g></svg>
