<svg id="icon" enable-background="new 0 0 128 128" height="512" viewBox="0 0 128 128" width="512" xmlns="http://www.w3.org/2000/svg"><path d="m52.6 95.4c4.3 19-10.8 26-22 22.1-6.5-2.3-11.6-8.2-10.7-17.5.8-8.5.9-11.8-3.8-49.4-4-32.8 13.9-39.3 18.6-40.5.4-.1.7-.2 1.1-.2 15.2-2 24 4.2 25.4 17.8s-15.5 37.6-8.6 67.7z" fill="#92d5f3"/><path d="m37.7 24.4s-21.1 13.5-18.3 52.6c0 1.7 1.3 3.1 3.1 3.3 1.7.1 3.2-1.2 3.3-3 .5-7.5-2.8-27.7 13.6-44.2 0 0 8.8 5.7 5.8 22.6-1.6 8.7-1.9 17.5-1.1 26.3.2 1.7 1.6 2.9 3.2 2.9 1.8 0 3.2-1.4 3.3-3.2 0-.1 0-.2 0-.2-.7-9 .1-18 2.2-26.8 4-15.6-8.5-30.6-15.1-30.3z" fill="#ebecee"/><path d="m111.8 50.6c-4.6 37.6-4.6 40.9-3.8 49.4 1.4 14.8-12.3 21-22.5 17.7-7.4-2.4-13-9.7-10.1-22.2 6.9-30.1-10-54.1-8.7-67.7 1-10 6.1-16 14.7-17.6 3.5-.6 7.2-.7 10.7-.1.1-.2 24.4 2.9 19.7 40.5z" fill="#92d5f3"/><path d="m90.3 24.4s21.1 13.5 18.3 52.6c0 1.7-1.3 3.1-3.1 3.3-1.7.1-3.2-1.2-3.3-3-.5-7.5 2.8-27.7-13.6-44.2 0 0-8.8 5.7-5.8 22.6 1.6 8.7 1.9 17.5 1.1 26.3-.2 1.7-1.6 2.9-3.2 2.9-1.8 0-3.2-1.4-3.3-3.2 0-.1 0-.2 0-.2.7-9-.1-18-2.2-26.8-4-15.6 8.5-30.6 15.1-30.3z" fill="#ebecee"/><g fill="#612c00"><path d="m55.6 12.1c-4.7-3.7-11.4-5.1-20-4-.3 0-26 3.8-21.2 42.7 4.6 37.3 4.6 40.7 3.8 49-.7 6.7 1.6 12.5 6.3 16.3 3.5 2.7 7.8 4.2 12.3 4.1 2.1 0 4.3-.3 6.3-1 .9-.3 1.4-1.3 1.1-2.2s-1.3-1.4-2.2-1.1c-5.2 1.7-10.9.8-15.3-2.6-2.7-2.1-5.7-6.2-5-13.2.5-5.1.7-8.4-.2-18.2.3.1.6.1.9.1 2.7.1 5-1.9 5.1-4.6.1-1.2.1-2.7 0-4.5-.1-9.1-.3-24.2 11.9-37.5 2 2.1 6 7.9 3.9 19.9-1.6 8.8-2 17.9-1.1 26.8.3 2.7 2.7 4.7 5.5 4.4.5-.1 1.1-.2 1.6-.4.3 3.2.7 6.4 1.5 9.5 1 4.6 1 8.6-.3 11.9-.3.9.1 1.9 1 2.2s1.9-.1 2.2-1c1.5-4 1.6-8.7.4-13.9-4.2-18.5.8-34.6 4.8-47.6 2.4-7.8 4.5-14.5 3.9-19.9-.5-6.7-3-11.8-7.2-15.2zm.1 34.2c-.1.5-.3 1-.5 1.5-.2-6.8-2.7-13.4-7-18.7-3.5-4.2-7.4-6.7-10.6-6.5-1 0-1.7.9-1.7 1.8 0 1 .9 1.7 1.8 1.7 1.6-.1 4.7 1.5 7.7 5.2 4.2 5.1 7.9 13.9 5.6 22.9-2.2 9-2.9 18.2-2.2 27.4 0 .4-.1.8-.4 1.1-.6.6-1.5.6-2.1.1-.3-.2-.4-.6-.5-.9-.8-8.6-.5-17.3 1-25.8 3.1-17.8-6.1-24.1-6.5-24.4-.7-.5-1.6-.4-2.2.2-14.3 14.5-14.1 31.8-14 41.1v4.2c-.1.8-.7 1.4-1.5 1.3s-1.4-.8-1.4-1.7c-2-26.5 7.4-40.9 13.1-47.1.7-.7.6-1.8-.1-2.5s-1.8-.6-2.5.1c-4.3 4.7-10.6 13.8-13.2 28.6-.2-1.8-.4-3.6-.7-5.6-4.3-35.3 17.2-38.6 18.2-38.8 7.5-1 13.4.1 17.3 3.2 3.5 2.7 5.5 7.1 6.1 13 .6 4.8-1.4 11.2-3.7 18.6z"/><path d="m47.8 112.3c-.2.2-.4.4-.6.6-.7.7-.7 1.8-.1 2.5.7.7 1.8.7 2.5.1.3-.2.5-.5.8-.8.6-.7.6-1.8-.2-2.5-.7-.6-1.7-.6-2.4.1z"/><path d="m107.6 90.6c1 .1 1.8-.7 1.8-1.6.3-6.2 1.3-15.8 4.1-38.1 4.8-38.9-20.9-42.6-21.2-42.7-8.5-1.1-15.2.2-20 4-4.2 3.4-6.7 8.5-7.4 15.4-.5 5.4 1.5 12.1 3.9 19.9 4 13 9 29.2 4.8 47.6-2.9 12.7 2.6 19 6.1 21.6 3.3 2.4 7.3 3.7 11.4 3.6 3.4 0 6.8-.9 9.8-2.5 6.3-3.6 9.5-10.1 8.7-17.9-.1-1-.9-1.7-1.9-1.6s-1.7.9-1.6 1.9v.1c.9 8.8-4 12.9-6.9 14.5-5.5 3.1-12.3 2.7-17.5-.9-4.9-3.7-6.6-10.1-4.8-18 .7-3.1 1.2-6.3 1.5-9.5 2.5 1.1 5.5 0 6.6-2.5.2-.5.4-1 .4-1.6.9-8.9.5-18-1.1-26.8-2.1-12 1.9-17.8 3.9-19.9 12.2 13.2 12 28.3 11.9 37.5v4.5c.2 2.7 2.5 4.7 5.1 4.6.3 0 .6-.1.9-.1-.3 2.8-.4 5-.5 6.9.3.7 1.1 1.5 2 1.6zm-13.2-60c5.4 6.2 14.3 20.6 12.4 46.3 0 .8-.6 1.5-1.4 1.7-.8 0-1.4-.6-1.5-1.3-.1-1.1-.1-2.5 0-4.2.1-9.3.3-26.6-14-41.1-.6-.6-1.5-.7-2.2-.2-.4.3-9.7 6.6-6.5 24.4 1.5 8.5 1.9 17.2 1 25.8-.1.8-.8 1.4-1.7 1.3-.4 0-.7-.2-.9-.5-.3-.3-.4-.7-.4-1.1.7-9.2-.1-18.4-2.2-27.4-2.3-9 1.4-17.7 5.6-22.9 3-3.7 6.1-5.3 7.7-5.2 1 0 1.8-.7 1.8-1.7s-.7-1.8-1.7-1.8c-3.2-.1-7.1 2.3-10.6 6.5-4.3 5.2-6.8 11.8-7.1 18.6-.2-.5-.3-1-.4-1.5-2.3-7.4-4.3-13.8-3.8-18.5.6-5.9 2.7-10.2 6.1-13 4-3.1 9.8-4.2 17.3-3.2.9.1 22.5 3.5 18.2 38.8-.2 2-.5 3.9-.7 5.7-1.6-9.4-5.1-19.5-12.3-27.8-.6-.7-1.7-.8-2.5-.2-.7.6-.8 1.7-.2 2.5z"/></g></svg>
