<svg id="icon" enable-background="new 0 0 128 128" height="512" viewBox="0 0 128 128" width="512" xmlns="http://www.w3.org/2000/svg"><path d="m67.5 107.8h-20.2c33-34.8 7-56.1 7-56.1l6.2-2.8c.8.7 1.7 1.4 2.4 2.1 26.5 24.8 4.6 56.8 4.6 56.8z" fill="#983729"/><path d="m57.8 53.2-4.2-3.7-7.2-6.3 1.3-4.9-4.6 1.9-16-13.7 1.3-4.9-4.6 1.9-11.4-9.9h-.1c4.8-5.5 18.9-1.1 31.5 9.8s18.8 24.3 14 29.8z" fill="#4b9641"/><path d="m58.3 54.1-.7.1-2.5.2-8.1.5-1.9-3.2-1.4 3.5-15.7 1.2-1.9-3.2-1.4 3.5-11.3.9c-.4-5.5 9.3-10.6 21.8-11.6s22.7 2.6 23.1 8.1z" fill="#4b9641"/><path d="m97.7 71.4s0 .1 0 0l-9-4.8.1-3.4-2.8 1.9-12.4-6.7.1-3.4-2.7 2.1-6-3.3-2.9-1.6c2.3-4.3 12.2-3.5 22 1.8s15.9 13.1 13.6 17.4z" fill="#4b9641"/><path d="m115.8 30.5-14.1 5.7-3.8-3.3-.4 5-19.5 7.9-3.8-3.3-.4 5-9 3.7-5.1 2c-2.7-6.8 7.5-17.3 23-23.6s30.3-5.8 33.1.9z" fill="#4b9641"/><path d="m62.1 55.2c0 3.5-2.8 6.3-6.3 6.3s-6.3-2.8-6.3-6.3 2.8-6.3 6.3-6.3h.2c3.4.1 6.1 2.9 6.1 6.3z" fill="#ffc900"/><path d="m70.3 54.1c0 3.5-2.8 6.3-6.3 6.3s-6.3-2.8-6.3-6.3c0-3.4 2.7-6.2 6.1-6.3h.3c3.4 0 6.2 2.8 6.2 6.3z" fill="#ffc900"/><g fill="#612c00"><path d="m22.5 24.9c.5.4 1.2.6 1.8.3l1.4-.6-.4 1.5c-.2.6 0 1.3.5 1.8l15.9 13.8c.7.6 1.8.6 2.5-.2.6-.7.6-1.8-.2-2.5l-15-13.1 1-3.8c.2-.9-.3-1.9-1.3-2.1-.4-.1-.8-.1-1.1.1l-3.6 1.5-9-7.9c4.4-2.2 13.7.7 22.9 7.4.8.6 1.9.4 2.4-.4.6-.8.4-1.9-.4-2.4-12.3-9-24.2-11.3-29-5.8-.6.7-.6 1.8.2 2.5z"/><path d="m26.2 57.3.1-.2.1.2c.3.6 1 .9 1.6.8l15.7-1.2c1-.1 1.7-.9 1.6-1.9s-.9-1.7-1.9-1.6l-14.6 1.1-1.4-2.3c-.5-.8-1.6-1.1-2.4-.6-.3.2-.6.5-.7.8l-1 2.5-7.9.6c1.2-1.8 2.8-3.1 4.7-4 4.7-2.3 9.8-3.6 15-3.9 5.1-.5 10.3 0 15.3 1.5-3.3 2.9-3.7 8-.7 11.4 2.8 3.2 7.7 3.6 11 1 2.6 1.1 5.6.8 7.9-.8 9.7 15.4 4.5 31.9.4 40.5-.4.9 0 1.9.8 2.3s1.9 0 2.3-.8c4.7-9.5 10.3-27.7-1-44.7 1.1-2 1.3-4.4.5-6.5 4.1.7 8 2.1 11.7 4.1 7.7 4.2 12.6 9.7 13.1 13.2l-5.9-3.2.1-2.3c0-1-.7-1.8-1.7-1.8-.4 0-.8.1-1.1.3l-1.8 1.3-8.6-4.6c-.9-.4-1.9-.1-2.3.8-.4.8-.1 1.8.7 2.3l9.6 5.2c.5.3 1.2.3 1.7 0 0 .6.4 1.2.9 1.5l8.9 4.8c.9.5 1.9.1 2.4-.7 2.9-5.3-3.3-13.8-14.3-19.8-5.6-3-11.4-4.7-16.1-4.8-1.7-1.3-3.9-1.9-6.1-1.6 3-4.8 10.1-10.7 20.7-14.9 7.3-2.9 14.6-4.5 20.5-4.3 4.3.1 7.5 1.1 9.1 2.8l-11.1 4.5-3-2.6c-.7-.6-1.8-.6-2.5.2-.2.3-.4.6-.4 1l-.3 3.9-17.5 7.1-3-2.6c-.7-.7-1.8-.6-2.5.1s-.6 1.8.1 2.5l3.8 3.3c.5.4 1.2.6 1.8.3l19.5-7.9c.6-.2 1-.8 1.1-1.5l.1-1.5 1.2 1c.5.4 1.2.6 1.8.3l14.1-5.7c.9-.4 1.3-1.4 1-2.3-1.6-4-6.3-6.2-13.3-6.4-6.4-.2-14.2 1.4-21.9 4.6-9.9 4-17.9 9.8-21.8 15.5-2-6.6-7.6-14.5-15.5-21.4-.7-.6-1.8-.6-2.5.2-.6.7-.6 1.8.2 2.5 9.6 8.3 14.5 17.1 15 22.6-.9-.2-1.9-.3-2.8-.2-4.7-2.5-12-3.7-19.8-3.1-5.7.3-11.3 1.8-16.4 4.3-4.8 2.5-7.2 5.8-7 9.2.1.9.8 1.6 1.7 1.6h.1l11.3-.9c.8-.1 1.4-.5 1.6-1.1zm25-2.1c0-2.5 2-4.5 4.5-4.6.3 0 .7 0 1 .1-1.3 2.8-.9 6.2 1.1 8.5-2.2 1.1-5 .2-6.1-2-.3-.5-.5-1.3-.5-2zm17.4-1.1c0 2.5-2 4.6-4.6 4.6-2.5 0-4.6-2-4.6-4.6s2-4.6 4.6-4.6c2.5.1 4.6 2.1 4.6 4.6z"/><path d="m118.5 106h-67.3c15-17.2 15.8-31.1 13.6-39.8-.2-.9-1.2-1.5-2.1-1.3s-1.5 1.2-1.3 2.1c3 11.9-2.2 25.4-14.9 39h-30.9c-1 0-1.8.8-1.8 1.8s.8 1.8 1.8 1.8h102.9c1 0 1.8-.8 1.8-1.8s-.8-1.8-1.8-1.8z"/><path d="m10.3 106h-.8c-1 0-1.8.8-1.8 1.8s.8 1.8 1.8 1.8h.8c1 0 1.8-.8 1.8-1.8s-.9-1.8-1.8-1.8z"/><path d="m108.7 115h-21c-1 0-1.8.8-1.8 1.8s.8 1.8 1.8 1.8h21c1 0 1.8-.8 1.8-1.8s-.9-1.8-1.8-1.8z"/><path d="m81.3 115h-62c-1 0-1.8.8-1.8 1.8s.8 1.8 1.8 1.8h62c1 0 1.8-.8 1.8-1.8s-.8-1.8-1.8-1.8z"/></g></svg>
