<svg id="icon" enable-background="new 0 0 128 128" height="512" viewBox="0 0 128 128" width="512" xmlns="http://www.w3.org/2000/svg"><path d="m92.6 83.9v8.2c-1.5.4-3 1-4.5 1.7-3.6 1.7-6.8 4.1-9.6 6.9-3.5 3.7-6.2 8.1-7.8 12.9-1.2 3.7-5.2 5.7-8.9 4.5-2.1-.7-3.8-2.4-4.5-4.5-.5-1.4-1.1-2.8-1.7-4.2-4-8.4-11.3-14.7-20.2-17.4v-8.2c0-5.1 4.1-8.9 11.6-17.4 4.7-5.4 9.5-13.2 12.3-18.2-2.6 2.9-10.7 4.2-10.7 4.2s-10.7-5.3-11.4-11.1c-.4-3.4.6-6.8 2.7-9.4 1.6-6.4 4.8-15.5 11.3-22.5h3.8s-5 6.1-8.7 18.3c1.1-.3 2.3-.5 3.4-.5 4.7 0 9 2.6 11.2 6.8.6 1.1 1.7 1.8 2.9 1.8h.2c1.2 0 2.3-.7 2.9-1.8 2.2-4.2 6.5-6.8 11.2-6.8 1.2 0 2.3.2 3.4.5-3.5-12.1-8.6-18.2-8.6-18.2h3.9c6.4 7 9.7 16.1 11.3 22.5 2.1 2.6 3.1 6 2.7 9.4-.7 5.9-11.4 11.1-11.4 11.1s-8.1-1.3-10.7-4.3c2.8 5 7.6 12.8 12.3 18.2 7.5 8.6 11.6 12.4 11.6 17.5z" fill="#ffda2d"/><path d="m59.3 48.3h9.4v6.9h-9.4z" fill="#ffa500"/><g fill="#612c00"><path d="m85.1 68.5c-.9-1-1.8-2-2.8-3.1-2.2-2.5-4.2-5.2-6-7.9-.5-.8-1.6-1-2.4-.5s-1 1.6-.5 2.4c1.9 2.9 4 5.7 6.3 8.3 1 1.1 1.9 2.2 2.8 3.1 5.4 6.1 8.4 9.4 8.4 13.1v6.8c-10.4 3.6-18.4 11.9-21.8 22.3-.9 2.8-3.9 4.3-6.7 3.4-1.6-.5-2.9-1.8-3.4-3.4-1.5-4.3-3.7-8.3-6.6-11.8-.6-.7-1.7-.8-2.5-.2-.7.6-.8 1.7-.2 2.5 2.6 3.2 4.7 6.8 6 10.7 1.5 4.6 6.5 7.1 11.1 5.6 2.6-.9 4.7-2.9 5.6-5.6 3.2-9.8 10.9-17.4 20.7-20.4.8-.2 1.3-.9 1.3-1.7v-8.1c0-5.2-3.3-8.9-9.3-15.5z"/><path d="m47.6 96.6c-.8-.6-1.9-.5-2.5.3-.6.7-.5 1.8.3 2.4.2.1.4.3.5.5.7.6 1.8.5 2.5-.2.6-.7.5-1.8-.2-2.4-.2-.2-.4-.4-.6-.6z"/><path d="m42.8 93.3c-1.8-1-3.7-1.9-5.6-2.6v-6.8c0-3.7 3-7.1 8.4-13.1.9-1 1.8-2 2.8-3.1 3.4-4.1 6.5-8.4 9.2-12.9v.5c0 1 .8 1.7 1.8 1.7h9.4c1 0 1.8-.8 1.8-1.8v-3.6c2.8 1.3 5.7 2.1 8.7 2.6.4.1.7 0 1.1-.2 1.2-.6 11.6-5.9 12.4-12.5.4-3.7-.6-7.4-2.8-10.4-1.7-6.6-5-15.7-11.6-22.9-.3-.4-.8-.6-1.3-.6h-3.9c-1 0-1.7.8-1.7 1.8 0 .4.1.8.4 1.1 0 .1 4.1 5 7.5 14.9-5.7-.4-11 2.7-13.6 7.7-.3.5-.8.8-1.3.9h-.2c-.6 0-1.1-.3-1.4-.9-1.5-2.9-4-5.1-6.9-6.5-.9-.4-1.9 0-2.3.9s0 1.9.9 2.3c2.2 1 4.1 2.7 5.2 4.9.9 1.7 2.6 2.7 4.5 2.7h.2c1.9 0 3.6-1.1 4.4-2.7 2.4-4.6 7.6-6.8 12.6-5.4.9.3 1.9-.3 2.2-1.2.1-.3.1-.7 0-1-1.5-5.2-3.7-10.3-6.4-15 5.3 6.5 8.1 14.5 9.5 20.2.1.2.2.5.3.7 1.8 2.3 2.7 5.2 2.3 8.1-.4 3.8-7 8-9.9 9.5-3-.6-7.6-1.9-9.1-3.6-.3-.3-.6-.6-1.3-.6-2.4 0-7.1 0-9.4 0-.7 0-1 .2-1.3.6-1.5 1.7-6.1 3-9.1 3.6-2.9-1.5-9.5-5.7-9.9-9.5-.3-2.9.5-5.8 2.3-8.1.2-.2.3-.4.3-.7 1.4-5.7 4.2-13.7 9.5-20.2-2.7 4.7-4.9 9.8-6.4 15-.3.9.2 1.9 1.1 2.2s1.9-.2 2.2-1.1v-.1c3.5-11.7 8.3-17.6 8.4-17.6.6-.7.5-1.8-.2-2.5-.3-.3-.7-.4-1.1-.4h-3.9c-.5 0-1 .2-1.3.6-6.6 7.2-9.9 16.4-11.6 22.9-2.3 3-3.3 6.7-2.8 10.4.8 6.6 11.2 11.9 12.4 12.5.3.2.7.2 1.1.2 1.9-.3 3.8-.8 5.7-1.4-2.6 4.4-5.6 8.6-8.9 12.5-1 1.1-1.9 2.1-2.8 3.1-6 6.7-9.3 10.4-9.3 15.5v8.1c0 .8.5 1.5 1.3 1.7 2.1.6 4.2 1.5 6.1 2.6.8.5 1.9.2 2.4-.7 0-.7-.3-1.8-1.1-2.3zm18.2-43.2h6v3.4h-6z"/></g></svg>
