<svg id="icon" height="512pt" viewBox="-1 0 512 512" width="512pt" xmlns="http://www.w3.org/2000/svg"><path d="m510.328125 89.800781c0-49.515625-40.285156-89.800781-89.800781-89.800781s-89.800782 40.285156-89.800782 89.800781c0 44.324219 32.285157 81.246094 74.574219 88.5v159.964844c0 79.003906-64.277343 143.277344-143.28125 143.277344-79.003906 0-143.28125-64.273438-143.28125-143.277344v-54.78125c49.882813-7.386719 88.285157-50.488281 88.285157-102.390625v-165.863281c0-8.414063-6.820313-15.230469-15.230469-15.230469h-42.800781c-8.410157 0-15.230469 6.816406-15.230469 15.230469 0 8.410156 6.820312 15.226562 15.230469 15.226562h27.574218v150.636719c0 40.28125-32.773437 73.054688-73.054687 73.054688s-73.054688-32.773438-73.054688-73.054688v-150.636719h27.574219c8.410156 0 15.230469-6.816406 15.230469-15.226562 0-8.414063-6.820313-15.230469-15.230469-15.230469h-42.800781c-8.414063 0-15.230469 6.816406-15.230469 15.230469v165.863281c0 51.902344 38.402344 95 88.28125 102.390625v54.78125c0 95.796875 77.941406 173.734375 173.738281 173.734375s173.738281-77.9375 173.738281-173.734375v-159.964844c42.285157-7.253906 74.570313-44.175781 74.570313-88.5zm-89.800781 59.339844c-32.71875 0-59.34375-26.621094-59.34375-59.339844 0-32.722656 26.625-59.34375 59.34375-59.34375 32.722656 0 59.34375 26.621094 59.34375 59.34375 0 32.71875-26.621094 59.339844-59.34375 59.339844zm0 0"/><path d="m420.527344 46.007812c-24.144532 0-43.789063 19.644532-43.789063 43.792969 0 24.144531 19.644531 43.789063 43.789063 43.789063 24.144531 0 43.789062-19.644532 43.789062-43.789063 0-24.148437-19.644531-43.792969-43.789062-43.792969zm0 57.125c-7.351563 0-13.332032-5.980468-13.332032-13.332031 0-7.351562 5.980469-13.332031 13.332032-13.332031 7.351562 0 13.332031 5.980469 13.332031 13.332031 0 7.351563-5.980469 13.332031-13.332031 13.332031zm0 0"/></svg>
