<svg id="icon" height="511pt" viewBox="-70 1 511 511.99898" width="511pt" xmlns="http://www.w3.org/2000/svg"><path d="m356.6875 0c-8.484375 0-15.363281 6.878906-15.363281 15.359375v89.679687h-35.53125v-89.679687c0-8.480469-6.878907-15.359375-15.363281-15.359375-8.480469 0-15.359376 6.878906-15.359376 15.359375v89.679687h-35.53125v-89.679687c0-8.480469-6.878906-15.359375-15.363281-15.359375-8.480469 0-15.359375 6.878906-15.359375 15.359375v126.785156c0 28.1875 14.742188 54.347657 38.273438 69.144531v257.363282c0 23.902344 19.445312 43.34375 43.34375 43.34375 23.902344 0 43.347656-19.441406 43.347656-43.34375v-257.367188c23.527344-14.796875 38.265625-40.957031 38.265625-69.140625v-126.785156c0-8.480469-6.878906-15.359375-15.359375-15.359375zm-15.363281 142.144531c0 19.6875-11.539063 37.796875-29.402344 46.136719-5.40625 2.527344-8.859375 7.953125-8.859375 13.917969v266.453125c0 6.964844-5.664062 12.625-12.628906 12.625-6.960938 0-12.625-5.660156-12.625-12.625v-266.449219c0-5.96875-3.453125-11.394531-8.863282-13.917969-17.863281-8.339844-29.40625-26.449218-29.40625-46.140625v-6.386719h101.785157zm0 0"/><path d="m85.148438 0c-47.464844 0-84.648438 55.894531-84.648438 127.25 0 47.925781 16.773438 88.875 42.167969 110.601562-17.496094 13.011719-28.851563 33.835938-28.851563 57.261719v172.871094c0 23.832031 18.351563 43.15625 41.78125 43.984375.53125.019531 1.0625.03125 1.59375.03125 11.285156 0 21.914063-4.285156 30.070313-12.15625 8.542969-8.242188 13.246093-19.320312 13.246093-31.191406v-453.292969c0-8.480469-6.875-15.359375-15.359374-15.359375zm-53.929688 127.25c0-27.066406 6.390625-52.292969 17.992188-71.03125 3.992187-6.445312 11.019531-15.851562 20.578124-21.253906v184.570312c-9.558593-5.402344-16.582031-14.804687-20.578124-21.253906-11.601563-18.738281-17.992188-43.960938-17.992188-71.03125zm38.570312 341.402344c0 3.457031-1.371093 6.683594-3.859374 9.085937-2.488282 2.402344-5.765626 3.652344-9.242188 3.53125-6.699219-.234375-12.148438-6.199219-12.148438-13.285156v-172.871094c0-16.960937 10.449219-31.523437 25.25-37.597656zm0 0"/></svg>
