<svg id="icon" height="512pt" viewBox="-65 0 512 512" width="512pt" xmlns="http://www.w3.org/2000/svg"><path d="m206.296875 305.390625v-182.636719c0-8.417968-6.824219-15.238281-15.238281-15.238281-8.417969 0-15.238282 6.820313-15.238282 15.238281v182.636719c-19.644531 6.429687-33.875 24.917969-33.875 46.679687 0 27.082032 22.03125 49.113282 49.113282 49.113282 27.078125 0 49.109375-22.03125 49.109375-49.113282 0-21.761718-14.230469-40.25-33.871094-46.679687zm-15.238281 65.316406c-10.277344 0-18.636719-8.359375-18.636719-18.636719 0-10.277343 8.359375-18.636718 18.636719-18.636718 10.273437 0 18.636718 8.359375 18.636718 18.636718 0 10.277344-8.363281 18.636719-18.636718 18.636719zm0 0"/><path d="m252.8125 269.53125v-150.9375c0-34.054688-27.703125-61.757812-61.753906-61.757812-34.054688 0-61.757813 27.703124-61.757813 61.757812v150.9375c-26.035156 19.429688-41.335937 49.691406-41.335937 82.539062 0 56.847657 46.246094 103.09375 103.09375 103.09375s103.09375-46.246093 103.09375-103.09375c0-32.847656-15.300782-63.109374-41.339844-82.539062zm-61.753906 155.15625c-40.042969 0-72.617188-32.574219-72.617188-72.617188 0-25.183593 12.777344-48.210937 34.179688-61.597656 4.449218-2.785156 7.15625-7.667968 7.15625-12.917968v-158.960938c0-17.25 14.03125-31.28125 31.28125-31.28125 17.246094 0 31.28125 14.03125 31.28125 31.28125v158.960938c0 5.25 2.703125 10.132812 7.15625 12.917968 21.402344 13.386719 34.179687 36.414063 34.179687 61.597656 0 40.042969-32.578125 72.617188-72.617187 72.617188zm0 0"/><path d="m325.820312 0h-269.527343c-31.039063 0-56.292969 25.253906-56.292969 56.292969v399.414062c0 31.039063 25.253906 56.292969 56.292969 56.292969h269.527343c31.042969 0 56.292969-25.253906 56.292969-56.292969v-399.414062c0-31.039063-25.25-56.292969-56.292969-56.292969zm25.816407 455.707031c0 14.234375-11.578125 25.816407-25.816407 25.816407h-269.527343c-14.234375 0-25.816407-11.582032-25.816407-25.816407v-399.414062c0-14.234375 11.582032-25.816407 25.816407-25.816407h269.527343c14.238282 0 25.816407 11.582032 25.816407 25.816407zm0 0"/><path d="m70.238281 87.3125h29.003907c8.414062 0 15.238281-6.824219 15.238281-15.238281 0-8.417969-6.824219-15.238281-15.238281-15.238281h-29.003907c-8.417969 0-15.238281 6.820312-15.238281 15.238281 0 8.414062 6.820312 15.238281 15.238281 15.238281zm0 0"/><path d="m70.238281 142.269531h29.003907c8.414062 0 15.238281-6.824219 15.238281-15.238281s-6.824219-15.238281-15.238281-15.238281h-29.003907c-8.417969 0-15.238281 6.824219-15.238281 15.238281s6.820312 15.238281 15.238281 15.238281zm0 0"/><path d="m70.238281 197.226562h29.003907c8.414062 0 15.238281-6.820312 15.238281-15.238281 0-8.414062-6.824219-15.238281-15.238281-15.238281h-29.003907c-8.417969 0-15.238281 6.824219-15.238281 15.238281 0 8.417969 6.820312 15.238281 15.238281 15.238281zm0 0"/><path d="m114.480469 236.949219c0-8.417969-6.824219-15.238281-15.238281-15.238281h-29.003907c-8.417969 0-15.238281 6.820312-15.238281 15.238281 0 8.414062 6.820312 15.234375 15.238281 15.234375h29.003907c8.414062 0 15.238281-6.820313 15.238281-15.234375zm0 0"/><path d="m319.015625 56.835938h-29.003906c-8.414063 0-15.238281 6.820312-15.238281 15.238281 0 8.414062 6.824218 15.238281 15.238281 15.238281h29.003906c8.414063 0 15.238281-6.824219 15.238281-15.238281 0-8.417969-6.824218-15.238281-15.238281-15.238281zm0 0"/><path d="m319.015625 111.792969h-29.003906c-8.414063 0-15.238281 6.824219-15.238281 15.238281s6.824218 15.238281 15.238281 15.238281h29.003906c8.414063 0 15.238281-6.824219 15.238281-15.238281s-6.824218-15.238281-15.238281-15.238281zm0 0"/><path d="m319.015625 166.75h-29.003906c-8.414063 0-15.238281 6.824219-15.238281 15.238281 0 8.417969 6.824218 15.238281 15.238281 15.238281h29.003906c8.414063 0 15.238281-6.820312 15.238281-15.238281 0-8.414062-6.824218-15.238281-15.238281-15.238281zm0 0"/><path d="m319.015625 221.710938h-29.003906c-8.414063 0-15.238281 6.820312-15.238281 15.238281 0 8.414062 6.824218 15.234375 15.238281 15.234375h29.003906c8.414063 0 15.238281-6.820313 15.238281-15.234375 0-8.417969-6.824218-15.238281-15.238281-15.238281zm0 0"/></svg>
