<svg id="icon" height="512pt" viewBox="0 -121 512.00055 512" width="512pt" xmlns="http://www.w3.org/2000/svg"><path d="m502.527344 140.628906-86.574219-133.691406c-2.800781-4.324219-7.605469-6.9375-12.757813-6.9375h-210.355468c-18.734375 0-34.171875 14.367188-35.882813 32.664062h-72.902343c-46.347657 0-84.054688 37.707032-84.054688 84.054688v78.054688c0 19.648437 15.984375 35.632812 35.632812 35.632812h4.964844c6.617188 23.035156 27.859375 39.945312 52.992188 39.945312 25.132812 0 46.378906-16.910156 52.996094-39.945312h121.554687c6.617187 23.035156 27.863281 39.945312 52.996094 39.945312 25.132812 0 46.375-16.910156 52.992187-39.945312h79.582032c21.648437 0 40.75-11.355469 51.09375-30.375 10.34375-19.023438 9.492187-41.230469-2.277344-59.402344zm-24.421875 44.882813c-4.9375 9.082031-14.058594 14.503906-24.394531 14.503906h-28.945313l-47.355469-143.753906c-2.054687-6.230469-7.875-10.445313-14.433594-10.445313h-40.84375c-4.25 0-7.710937-3.457031-7.710937-7.710937 0-4.253907 3.460937-7.714844 7.710937-7.714844h72.800782l82.085937 126.757813c5.617188 8.679687 6.023438 19.28125 1.085938 28.363281zm-394.050781-122.457031h14.40625v45.289062h-21.320313c-14.816406 0-29.414063 3.941406-42.214844 11.398438l-4.535156 2.640624v-5.664062c0-29.589844 24.074219-53.664062 53.664063-53.664062zm-53.664063 131.71875v-37.21875l19.835937-11.550782c8.160157-4.757812 17.464844-7.269531 26.914063-7.269531h36.515625c8.390625 0 15.195312-6.804687 15.195312-15.195313v-60.484374h27.941407v136.960937h-10.207031c-6.617188-23.035156-27.859376-39.945313-52.992188-39.945313-25.136719 0-46.378906 16.910157-52.996094 39.945313h-4.964844c-2.890624 0-5.242187-2.351563-5.242187-5.242187zm87.949219 20.4375c0 13.644531-11.101563 24.746093-24.75 24.746093-13.644532 0-24.746094-11.097656-24.746094-24.746093 0-13.648438 11.101562-24.75 24.746094-24.75 13.648437 0 24.75 11.101562 24.75 24.75zm227.542968 0c0 13.644531-11.101562 24.746093-24.746093 24.746093-13.648438 0-24.75-11.097656-24.75-24.746093 0-13.648438 11.101562-24.75 24.75-24.75 13.644531 0 24.746093 11.101562 24.746093 24.75zm28.246094-15.195313c-6.617187-23.035156-27.859375-39.945313-52.992187-39.945313-25.132813 0-46.378907 16.910157-52.996094 39.945313h-80.957031v-163.96875c0-3.117187 2.535156-5.65625 5.65625-5.65625h91.976562c-.515625 2.492187-.785156 5.074219-.785156 7.714844 0 21.011719 17.09375 38.105469 38.101562 38.105469h29.851563l40.78125 123.804687zm0 0"/></svg>
