<svg id="icon" height="512pt" viewBox="0 -12 512 512" width="512pt" xmlns="http://www.w3.org/2000/svg"><path d="m217.433594 91.386719c8.4375 0 15.277344-6.84375 15.277344-15.28125s-6.839844-15.277344-15.277344-15.277344h-8.753906v-45.550781c0-8.4375-6.839844-15.277344-15.277344-15.277344h-154.09375c-8.4375 0-15.277344 6.839844-15.277344 15.277344v45.550781h-8.753906c-8.4375 0-15.277344 6.839844-15.277344 15.277344s6.839844 15.28125 15.277344 15.28125h8.753906v19.140625h-8.753906c-8.4375 0-15.277344 6.839844-15.277344 15.277344 0 8.441406 6.839844 15.28125 15.277344 15.28125h8.753906v19.144531h-8.753906c-8.4375 0-15.277344 6.839843-15.277344 15.277343s6.839844 15.277344 15.277344 15.277344h8.753906v281.441406c0 8.4375 6.839844 15.277344 15.277344 15.277344h154.09375c8.4375 0 15.277344-6.839844 15.277344-15.277344v-281.441406h8.753906c8.4375 0 15.277344-6.839844 15.277344-15.277344s-6.839844-15.277343-15.277344-15.277343h-8.753906v-19.144531h8.753906c8.4375 0 15.277344-6.839844 15.277344-15.28125 0-8.4375-6.839844-15.277344-15.277344-15.277344h-8.753906v-19.140625zm-162.847656-60.828125h123.539062v30.269531h-123.539062zm123.539062 426.386718h-123.539062v-266.160156h123.539062zm0-296.714843h-123.539062v-19.144531h123.539062zm0-49.703125h-123.539062v-19.140625h123.539062zm0 0"/><path d="m496.722656 141.085938c8.4375 0 15.277344-6.839844 15.277344-15.28125 0-8.4375-6.839844-15.277344-15.277344-15.277344h-8.753906v-19.140625h8.753906c8.4375 0 15.277344-6.84375 15.277344-15.28125s-6.839844-15.277344-15.277344-15.277344h-8.753906v-45.550781c0-8.4375-6.839844-15.277344-15.277344-15.277344h-154.09375c-8.4375 0-15.277344 6.839844-15.277344 15.277344v45.550781h-8.753906c-8.4375 0-15.277344 6.839844-15.277344 15.277344s6.839844 15.28125 15.277344 15.28125h8.753906v19.140625h-8.753906c-8.4375 0-15.277344 6.839844-15.277344 15.277344 0 8.441406 6.839844 15.28125 15.277344 15.28125h8.753906v19.144531h-8.753906c-8.4375 0-15.277344 6.839843-15.277344 15.277343s6.839844 15.277344 15.277344 15.277344h8.753906v281.441406c0 8.4375 6.839844 15.277344 15.277344 15.277344h154.09375c8.4375 0 15.277344-6.839844 15.277344-15.277344v-281.441406h8.753906c8.4375 0 15.277344-6.839844 15.277344-15.277344s-6.839844-15.277343-15.277344-15.277343h-8.753906v-19.144531zm-162.847656-110.527344h123.539062v30.269531h-123.539062zm0 60.828125h123.539062v19.140625h-123.539062zm123.539062 365.558593h-123.539062v-266.160156h123.539062zm0-296.714843h-123.539062v-19.144531h123.539062zm0 0"/></svg>
