<svg id="icon" height="512pt" viewBox="0 0 512 512" width="512pt" xmlns="http://www.w3.org/2000/svg"><path d="m128.234375 240.699219h-34.464844c-8.449219 0-15.296875 6.847656-15.296875 15.296875 0 8.449218 6.847656 15.300781 15.296875 15.300781h34.464844c8.449219 0 15.296875-6.851563 15.296875-15.300781 0-8.449219-6.847656-15.296875-15.296875-15.296875zm0 0"/><path d="m206.707031 240.699219h-34.460937c-8.449219 0-15.300782 6.847656-15.300782 15.296875 0 8.449218 6.851563 15.300781 15.300782 15.300781h34.460937c8.449219 0 15.300781-6.851563 15.300781-15.300781 0-8.449219-6.851562-15.296875-15.300781-15.296875zm0 0"/><path d="m255.996094 368.464844c-8.449219 0-15.296875 6.851562-15.296875 15.300781v34.460937c0 8.449219 6.847656 15.300782 15.296875 15.300782 8.449218 0 15.300781-6.851563 15.300781-15.300782v-34.460937c0-8.449219-6.851563-15.300781-15.300781-15.300781zm0 0"/><path d="m255.996094 289.992188c-8.449219 0-15.296875 6.851562-15.296875 15.300781v34.460937c0 8.449219 6.847656 15.300782 15.296875 15.300782 8.449218 0 15.300781-6.851563 15.300781-15.300782v-34.460937c0-8.449219-6.851563-15.300781-15.300781-15.300781zm0 0"/><path d="m418.226562 240.703125h-34.460937c-8.449219 0-15.300781 6.851563-15.300781 15.300781 0 8.449219 6.851562 15.296875 15.300781 15.296875h34.460937c8.449219 0 15.300782-6.847656 15.300782-15.296875 0-8.449218-6.851563-15.300781-15.300782-15.300781zm0 0"/><path d="m339.753906 240.703125h-34.460937c-8.449219 0-15.300781 6.851563-15.300781 15.300781 0 8.449219 6.851562 15.296875 15.300781 15.296875h34.460937c8.449219 0 15.300782-6.847656 15.300782-15.296875 0-8.449218-6.851563-15.300781-15.300782-15.300781zm0 0"/><path d="m256.003906 78.472656c-8.449218 0-15.300781 6.847656-15.300781 15.296875v34.464844c0 8.449219 6.851563 15.296875 15.300781 15.296875 8.449219 0 15.296875-6.847656 15.296875-15.296875v-34.464844c0-8.449219-6.847656-15.296875-15.296875-15.296875zm0 0"/><path d="m256.003906 156.945312c-8.449218 0-15.300781 6.851563-15.300781 15.300782v34.460937c0 8.449219 6.851563 15.300781 15.300781 15.300781 8.449219 0 15.296875-6.851562 15.296875-15.300781v-34.460937c0-8.449219-6.847656-15.300782-15.296875-15.300782zm0 0"/><path d="m496.703125 180.523438h-158.09375c-3.933594 0-7.132813-3.199219-7.132813-7.132813v-158.09375c0-8.445313-6.851562-15.296875-15.300781-15.296875h-120.351562c-8.449219 0-15.300781 6.851562-15.300781 15.296875v34.90625c0 3.933594-3.199219 7.132813-7.132813 7.132813h-158.09375c-8.445313 0-15.296875 6.851562-15.296875 15.300781v50.320312c0 8.449219 6.851562 15.300781 15.296875 15.300781h158.09375c3.933594 0 7.132813 3.199219 7.132813 7.132813v28c0 3.933594-3.199219 7.132813-7.132813 7.132813h-158.09375c-8.445313 0-15.296875 6.851562-15.296875 15.300781v120.351562c0 8.449219 6.851562 15.300781 15.296875 15.300781h158.09375c3.933594 0 7.132813 3.199219 7.132813 7.132813v158.09375c0 8.445313 6.851562 15.296875 15.300781 15.296875h120.351562c8.449219 0 15.300781-6.851562 15.300781-15.296875v-34.90625c0-3.933594 3.199219-7.132813 7.132813-7.132813h158.09375c8.445313 0 15.296875-6.851562 15.296875-15.300781v-50.320312c0-8.449219-6.851562-15.300781-15.296875-15.300781h-158.09375c-3.933594 0-7.132813-3.199219-7.132813-7.132813v-28c0-3.933594 3.199219-7.132813 7.132813-7.132813h158.09375c8.445313 0 15.296875-6.851562 15.296875-15.300781v-120.351562c0-8.449219-6.851562-15.300781-15.296875-15.300781zm-158.09375 120.355468c-20.804687 0-37.730469 16.925782-37.730469 37.730469v28c0 20.804687 16.925782 37.730469 37.730469 37.730469h142.792969v19.726562h-142.792969c-20.804687 0-37.730469 16.925782-37.730469 37.730469v19.605469h-29.582031v-19.164063c0-8.449219-6.851563-15.300781-15.300781-15.300781-8.449219 0-15.296875 6.851562-15.296875 15.300781v19.164063h-29.578125v-142.792969c0-20.804687-16.925782-37.730469-37.730469-37.730469h-142.792969v-29.582031h19.164063c8.449219 0 15.300781-6.851563 15.300781-15.300781 0-8.449219-6.851562-15.296875-15.300781-15.296875h-19.164063v-29.578125h142.792969c20.804687 0 37.730469-16.925782 37.730469-37.730469v-28c0-20.804687-16.925782-37.730469-37.730469-37.730469h-142.792969v-19.726562h142.792969c20.804687 0 37.730469-16.925782 37.730469-37.730469v-19.605469h29.582031v19.164063c0 8.449219 6.851563 15.300781 15.300781 15.300781 8.449219 0 15.296875-6.851562 15.296875-15.300781v-19.164063h29.578125v142.792969c0 20.804687 16.925782 37.730469 37.730469 37.730469h142.792969v29.582031h-19.164063c-8.449219 0-15.300781 6.851563-15.300781 15.300781 0 8.449219 6.851562 15.296875 15.300781 15.296875h19.164063v29.578125zm0 0"/><path d="m128.667969 397.886719-35.699219-27.476563c-5.5-4.234375-13.160156-4.234375-18.660156 0l-35.699219 27.476563c-3.761719 2.894531-5.964844 7.375-5.964844 12.121093v43.917969c0 8.449219 6.847657 15.296875 15.296875 15.296875h71.394532c8.449218 0 15.296874-6.847656 15.296874-15.296875v-43.917969c0-4.746093-2.203124-9.226562-5.964843-12.121093zm-24.628907 40.738281h-40.796874v-21.085938l20.398437-15.703124 20.398437 15.703124zm0 0"/><path d="m377.445312 110.503906v34.140625c0 8.449219 6.847657 15.296875 15.296876 15.296875 8.449218 0 15.300781-6.847656 15.300781-15.296875v-34.140625c5.289062-1.925781 10.113281-4.828125 14.265625-8.472656 4.152344 3.644531 8.972656 6.546875 14.265625 8.472656v34.140625c0 8.449219 6.847656 15.296875 15.296875 15.296875 8.449218 0 15.300781-6.847656 15.300781-15.296875v-34.140625c17.226563-6.269531 29.5625-22.808594 29.5625-42.175781 0-24.738281-20.125-44.863281-44.863281-44.863281-11.316406 0-21.660156 4.222656-29.5625 11.164062-7.902344-6.941406-18.25-11.164062-29.566406-11.164062-24.738282 0-44.863282 20.125-44.863282 44.863281 0 19.367187 12.339844 35.90625 29.566406 42.175781zm74.425782-56.441406c7.867187 0 14.265625 6.398438 14.265625 14.265625s-6.398438 14.265625-14.265625 14.265625c-7.867188 0-14.265625-6.398438-14.265625-14.265625s6.402343-14.265625 14.265625-14.265625zm-59.128906 0c7.867187 0 14.265624 6.398438 14.265624 14.265625s-6.398437 14.265625-14.265624 14.265625c-7.867188 0-14.265626-6.398438-14.265626-14.265625s6.398438-14.265625 14.265626-14.265625zm0 0"/></svg>
