<svg id="icon" height="512pt" viewBox="0 0 512 512" width="512pt" xmlns="http://www.w3.org/2000/svg"><path d="m258.132812 71.796875h-86.519531c-24.960937 0-45.265625 20.304687-45.265625 45.265625v308.050781c0 8.332031 6.753906 15.089844 15.085938 15.089844h60.355468c8.332032 0 15.085938-6.757813 15.085938-15.089844v-98.273437h41.257812c70.316407 0 127.519532-57.203125 127.519532-127.519532 0-70.316406-57.203125-127.523437-127.519532-127.523437zm0 224.867187h-56.34375c-8.332031 0-15.089843 6.753907-15.089843 15.089844v98.273438h-30.175781v-292.964844c0-8.320312 6.769531-15.089844 15.089843-15.089844h86.519531c53.675782 0 97.34375 43.667969 97.34375 97.347656 0 53.675782-43.667968 97.34375-97.34375 97.34375zm0 0"/><path d="m258.132812 132.148438h-56.34375c-8.332031 0-15.089843 6.757812-15.089843 15.089843v104.160157c0 8.332031 6.757812 15.089843 15.089843 15.089843h56.34375c37.035157 0 67.167969-30.132812 67.167969-67.167969 0-37.039062-30.132812-67.171874-67.167969-67.171874zm0 104.164062h-41.257812v-73.984375h41.257812c20.394532 0 36.992188 16.59375 36.992188 36.992187 0 20.394532-16.597656 36.992188-36.992188 36.992188zm0 0"/><path d="m433.039062 0h-354.078124c-43.539063 0-78.960938 35.421875-78.960938 78.960938v354.078124c0 43.539063 35.421875 78.960938 78.960938 78.960938h354.078124c43.539063 0 78.960938-35.421875 78.960938-78.960938v-354.078124c0-43.539063-35.421875-78.960938-78.960938-78.960938zm48.785157 433.039062c0 26.898438-21.886719 48.785157-48.785157 48.785157h-354.078124c-26.898438 0-48.785157-21.886719-48.785157-48.785157v-354.078124c0-26.898438 21.886719-48.785157 48.785157-48.785157h354.078124c26.898438 0 48.785157 21.886719 48.785157 48.785157zm0 0"/></svg>
