<svg id="icon" height="512pt" viewBox="0 -54 512 512" width="512pt" xmlns="http://www.w3.org/2000/svg"><path d="m438.757812 45.347656c-13.273437-27.515625-41.128906-45.347656-72.371093-45.347656-31.242188 0-59.101563 17.832031-72.371094 45.347656-40.992187 3.628906-73.242187 38.160156-73.242187 80.078125 0 41.921875 32.25 76.449219 73.242187 80.082031 6.953125 14.417969 17.917969 26.171876 31.269531 34.097657v149.316406c0 8.382813 6.796875 15.179687 15.179688 15.179687h51.84375c8.382812 0 15.179687-6.796874 15.179687-15.179687v-149.316406c13.351563-7.929688 24.316407-19.679688 31.269531-34.097657 40.992188-3.632812 73.242188-38.164062 73.242188-80.082031 0-41.921875-32.25-76.449219-73.242188-80.078125zm-7.152343 130.117188c-.769531 0-1.566407-.019532-2.449219-.0625-6.855469-.339844-13.054688 3.96875-15.164062 10.484375-6.703126 20.703125-25.835938 34.609375-47.605469 34.609375s-40.902344-13.90625-47.605469-34.609375c-2.035156-6.28125-7.882812-10.5-14.433594-10.5-.242187 0-.488281.003906-.734375.015625-.878906.042968-1.679687.0625-2.445312.0625-27.59375 0-50.042969-22.445313-50.042969-50.039063 0-27.589843 22.449219-50.039062 50.042969-50.039062.753906 0 1.554687.019531 2.445312.0625 6.820313.320312 13.054688-3.964844 15.167969-10.484375 6.703125-20.699219 25.832031-34.609375 47.605469-34.609375 21.769531 0 40.902343 13.910156 47.605469 34.609375 2.109374 6.515625 8.359374 10.816406 15.164062 10.484375.894531-.042969 1.695312-.0625 2.449219-.0625 27.589843 0 50.039062 22.449219 50.039062 50.039062 0 27.59375-22.449219 50.039063-50.039062 50.039063zm-54.472657 198.28125h-21.492187v-123.613282c3.527344.46875 7.109375.722657 10.746094.722657 3.632812 0 7.21875-.25 10.746093-.722657zm0 0"/><path d="m257.796875 330.042969h-12.828125v-70.605469c0-8.382812-6.792969-15.175781-15.175781-15.175781h-186.609375c-8.382813 0-15.179688 6.792969-15.179688 15.175781v70.605469h-12.828125c-8.378906 0-15.175781 6.796875-15.175781 15.175781 0 8.382812 6.796875 15.179688 15.175781 15.179688h12.828125v28.523437c0 8.382813 6.796875 15.175781 15.179688 15.175781 8.382812 0 15.175781-6.792968 15.175781-15.175781v-28.523437h156.257813v28.523437c0 8.382813 6.792968 15.175781 15.175781 15.175781 8.382812 0 15.179687-6.792968 15.179687-15.175781v-28.523437h12.824219c8.382813 0 15.179687-6.796876 15.179687-15.179688 0-8.378906-6.796874-15.175781-15.179687-15.175781zm-43.179687-55.425781v12.535156h-156.257813v-12.535156zm-156.257813 42.890624h156.257813v12.535157h-156.257813zm0 0"/></svg>
