<svg id="icon" height="512pt" viewBox="-81 0 512 512" width="512pt" xmlns="http://www.w3.org/2000/svg"><path d="m343.527344 7.082031c-3.578125-2.917969-8.285156-4.066406-12.800782-3.136719l-126.835937 26.183594c-4.691406-17.335937-20.550781-30.128906-39.347656-30.128906-22.480469 0-40.769531 18.289062-40.769531 40.765625v31.785156c-71.074219 18.183594-123.773438 82.765625-123.773438 159.425781 0 8.480469 6.875 15.355469 15.355469 15.355469s15.355469-6.875 15.355469-15.355469c0-59.585937 39.144531-110.191406 93.0625-127.476562v30.558594c-37.789063 15.957031-64.375 53.390625-64.375 96.917968v239.269532c0 22.472656 18.28125 40.753906 40.75 40.753906h128.785156c22.472656 0 40.753906-18.28125 40.753906-40.753906v-239.269532c0-43.527343-26.589844-80.960937-64.378906-96.917968v-9.449219l125.417968 25.886719c1.027344.214844 2.066407.320312 3.101563.320312 3.503906 0 6.933594-1.199218 9.699219-3.453125 3.578125-2.914062 5.65625-7.285156 5.65625-11.902343v-117.476563c0-4.617187-2.078125-8.988281-5.65625-11.902344zm-178.984375 119.75c-3.394531 0-6.746094.167969-10.058594.484375v-86.550781c0-5.542969 4.511719-10.054687 10.058594-10.054687s10.054687 4.511718 10.054687 10.054687v86.550781c-3.308594-.316406-6.664062-.484375-10.054687-.484375zm64.390625 354.457031h-128.785156c-5.535157 0-10.042969-4.503906-10.042969-10.042968v-52.480469h148.871093v52.480469c0 5.539062-4.507812 10.042968-10.042968 10.042968zm10.042968-93.230468h-148.863281v-114.160156h148.863281zm0-156.082032v11.214844h-148.871093v-11.214844c0-41.042968 33.394531-74.433593 74.4375-74.433593s74.433593 33.390625 74.433593 74.433593zm79.496094-114.363281-113.164062-23.359375v-33.0625l113.164062-23.359375zm0 0"/></svg>
