<svg id="icon" height="512pt" viewBox="-63 0 512 512" width="512pt" xmlns="http://www.w3.org/2000/svg"><path d="m140.765625 156.460938h104.253906c8.351563 0 15.121094-6.765626 15.121094-15.117188 0-8.347656-6.769531-15.117188-15.121094-15.117188h-104.253906c-8.347656 0-15.117187 6.769532-15.117187 15.117188 0 8.351562 6.769531 15.117188 15.117187 15.117188zm0 0"/><path d="m271.394531 229.304688h-157c-8.351562 0-15.117187 6.769531-15.117187 15.117187v148.328125c0 8.347656 6.765625 15.117188 15.117187 15.117188h157c8.347657 0 15.117188-6.769532 15.117188-15.117188v-148.328125c0-8.347656-6.769531-15.117187-15.117188-15.117187zm-15.117187 148.328124h-126.765625v-118.09375h126.765625zm0 0"/><path d="m385.78125 61.273438c0-20.835938-13.433594-38.863282-33.429688-44.851563-25-7.492187-72.957031-16.421875-159.460937-16.421875s-134.464844 8.929688-159.464844 16.421875c-19.992187 5.988281-33.425781 24.015625-33.425781 44.851563 0 23.527343 17.457031 43.050781 40.097656 46.3125v389.296874c0 8.347657 6.769532 15.117188 15.117188 15.117188h275.351562c8.347656 0 15.117188-6.769531 15.117188-15.117188v-389.292968c22.640625-3.265625 40.097656-22.785156 40.097656-46.316406zm-315.449219 146.726562h245.113281v221.167969h-245.113281zm245.113281-30.234375h-245.113281v-69.691406h245.113281zm0 304h-245.113281v-22.359375h245.113281zm23.53125-403.925781h-292.175781c-9.132812 0-16.566406-7.433594-16.566406-16.566406 0-7.375 4.773437-13.761719 11.871094-15.890626 23.0625-6.910156 67.945312-15.148437 150.785156-15.148437s127.71875 8.238281 150.785156 15.148437c7.097657 2.128907 11.867188 8.515626 11.867188 15.890626 0 9.132812-7.429688 16.566406-16.566407 16.566406zm0 0"/></svg>
