<svg id="icon" height="512pt" viewBox="-82 0 512 512" width="512pt" xmlns="http://www.w3.org/2000/svg"><path d="m173.570312 175.742188c48.449219 0 87.871094-39.421876 87.871094-87.871094 0-48.453125-39.421875-87.871094-87.871094-87.871094-48.453124 0-87.871093 39.417969-87.871093 87.871094 0 48.449218 39.417969 87.871094 87.871093 87.871094zm0-145.484376c31.765626 0 57.613282 25.84375 57.613282 57.613282 0 31.765625-25.847656 57.613281-57.613282 57.613281-31.769531 0-57.613281-25.847656-57.613281-57.613281 0-31.769532 25.84375-57.613282 57.613281-57.613282zm0 0"/><path d="m263.621094 262.003906c24.082031-12.230468 52.457031-34.4375 70.175781-52.160156 17.761719-17.761719 17.761719-46.664062 0-64.429688-8.605469-8.605468-20.046875-13.34375-32.214844-13.34375s-23.609375 4.738282-32.214843 13.34375c-31.125 31.125-61.566407 45.621094-95.796876 45.621094-34.230468 0-64.671874-14.496094-95.796874-45.621094-17.761719-17.761718-46.664063-17.761718-64.429688 0-8.605469 8.605469-13.34375 20.046876-13.34375 32.214844 0 12.167969 4.738281 23.609375 13.34375 32.214844 17.71875 17.71875 46.09375 39.929688 70.175781 52.160156v71.449219c0 1.863281.0625 3.714844.175781 5.546875-29.003906 36.351562-44.871093 81.523438-44.871093 128.382812 0 24.601563 20.015625 44.617188 44.617187 44.617188 24.597656 0 44.613282-20.015625 44.613282-44.617188 0-17.800781 3.957031-34.992187 11.445312-50.578124 10.515625 4.316406 22.019531 6.703124 34.070312 6.703124 12.050782 0 23.554688-2.386718 34.070313-6.703124 7.488281 15.585937 11.445313 32.777343 11.445313 50.578124 0 24.601563 20.015624 44.613282 44.617187 44.617188 24.601563 0 44.613281-20.015625 44.613281-44.617188 0-46.859374-15.867187-92.03125-44.867187-128.382812.109375-1.835938.175781-3.683594.175781-5.546875v-71.449219zm-228.886719-95.195312c2.984375-2.980469 6.90625-4.472656 10.824219-4.472656 3.917968 0 7.835937 1.492187 10.820312 4.472656 36.660156 36.664062 74.992188 54.484375 117.191406 54.484375 42.195313 0 80.527344-17.820313 117.191407-54.484375 2.890625-2.890625 6.730469-4.480469 10.820312-4.480469 4.085938 0 7.929688 1.589844 10.820313 4.480469 5.964844 5.964844 5.964844 15.675781 0 21.640625-17.515625 17.515625-47.882813 40.957031-69.65625 49.898437-5.671875 2.332032-9.378906 7.859375-9.378906 13.992188v44.867187h-119.59375v-44.867187c0-6.132813-3.707032-11.660156-9.382813-13.992188-21.773437-8.941406-52.136719-32.382812-69.652344-49.898437-2.890625-2.890625-4.484375-6.730469-4.484375-10.820313 0-4.085937 1.59375-7.929687 4.480469-10.820312zm79.039063 166.644531v-5.988281h119.59375v5.988281c0 32.972656-26.824219 59.796875-59.796876 59.796875-32.972656 0-59.796874-26.824219-59.796874-59.796875zm-15.976563 133.929687c0 7.917969-6.441406 14.359376-14.359375 14.359376s-14.355469-6.441407-14.355469-14.359376c-.003906-32.351562 8.863281-63.757812 25.347657-90.992187 4.996093 9.171875 11.542968 17.378906 19.285156 24.28125-10.40625 20.414063-15.917969 43.136719-15.917969 66.710937zm180.261719 0c0 7.917969-6.441406 14.359376-14.355469 14.359376-7.917969 0-14.359375-6.441407-14.359375-14.359376 0-23.574218-5.511719-46.296874-15.917969-66.710937 7.742188-6.902344 14.289063-15.109375 19.285157-24.28125 16.484374 27.234375 25.347656 58.640625 25.347656 90.992187zm0 0"/></svg>
