<svg id="icon" height="512pt" viewBox="-61 0 511 512" width="512pt" xmlns="http://www.w3.org/2000/svg"><path d="m389.523438 194.511719c0-107.253907-87.257813-194.511719-194.511719-194.511719-107.253907 0-194.511719 87.257812-194.511719 194.511719 0 86.566406 56.847656 160.089843 135.164062 185.242187v117.15625c0 8.335938 6.757813 15.089844 15.089844 15.089844h88.515625c8.332031 0 15.089844-6.753906 15.089844-15.089844v-117.15625c78.316406-25.152344 135.164063-98.679687 135.164063-185.242187zm-194.511719 164.332031c-90.613281 0-164.335938-73.71875-164.335938-164.332031 0-90.617188 73.722657-164.335938 164.335938-164.335938s164.335937 73.722657 164.335937 164.335938-73.722656 164.332031-164.335937 164.332031zm29.167969 122.980469h-58.335938v-94.988281c9.515625 1.4375 19.257812 2.1875 29.167969 2.1875 9.910156 0 19.652343-.75 29.167969-2.1875zm0 0"/><path d="m295.050781 152.066406h-200.078125c-8.332031 0-15.085937 6.753906-15.085937 15.089844v54.710938c0 8.335937 6.753906 15.089843 15.085937 15.089843h200.078125c8.332031 0 15.085938-6.753906 15.085938-15.089843v-54.710938c0-8.335938-6.753907-15.089844-15.085938-15.089844zm-15.089843 54.714844h-169.898438v-24.539062h169.898438zm0 0"/></svg>
