<svg id="icon" height="512pt" viewBox="-121 0 512 512" width="512pt" xmlns="http://www.w3.org/2000/svg"><path d="m221.003906 82.640625h-.359375v-49.355469c0-18.351562-14.933593-33.285156-33.285156-33.285156h-104.589844c-18.355469 0-33.289062 14.933594-33.289062 33.285156v49.355469h-.359375c-27.085938 0-49.121094 22.035156-49.121094 49.121094v287.351562c0 27.085938 22.035156 49.121094 49.121094 49.121094h.359375v28.882813c0 8.21875 6.664062 14.882812 14.882812 14.882812h141.394531c8.222657 0 14.886719-6.664062 14.886719-14.882812v-28.882813h.355469c27.085938 0 49.125-22.035156 49.125-49.121094v-287.351562c0-27.085938-22.035156-49.121094-49.121094-49.121094zm-141.753906-49.355469c0-1.9375 1.578125-3.515625 3.519531-3.515625h104.585938c1.941406 0 3.519531 1.578125 3.519531 3.515625v49.355469h-40.011719v-11.550781h3.054688c8.222656 0 14.886719-6.664063 14.886719-14.886719 0-8.21875-6.664063-14.882813-14.886719-14.882813h-35.875c-8.222657 0-14.886719 6.664063-14.886719 14.882813 0 8.222656 6.664062 14.886719 14.886719 14.886719h3.054687v11.550781h-41.847656zm111.625 448.945313h-111.625v-13.996094h111.625zm49.480469-63.117188c0 10.671875-8.679688 19.355469-19.351563 19.355469h-171.878906c-10.671875 0-19.355469-8.683594-19.355469-19.355469v-287.351562c0-10.671875 8.679688-19.355469 19.355469-19.355469h171.878906c10.671875 0 19.355469 8.683594 19.355469 19.355469v287.351562zm0 0"/><path d="m148.203125 169.710938c-2.582031-4.855469-7.636719-7.890626-13.136719-7.890626-5.503906 0-10.554687 3.03125-13.140625 7.890626-.59375 1.117187-14.742187 27.746093-29.136719 58.765624-30.160156 64.992188-30.160156 82.414063-30.160156 88.140626 0 39.941406 32.496094 72.4375 72.4375 72.4375s72.4375-32.496094 72.4375-72.4375c0-5.726563 0-23.148438-30.160156-88.140626-14.394531-31.015624-28.542969-57.648437-29.140625-58.765624zm-24.523437 178.257812c.191406-4.34375 5.015624-16.585938 11.386718-30.425781 6.359375 13.8125 11.175782 26.03125 11.386719 30.398437-.023437 6.261719-5.125 11.34375-11.386719 11.34375-6.28125 0-11.386718-5.105468-11.386718-11.316406zm50.09375-13.425781c-5.519532-18.746094-18.96875-45.105469-25.570313-57.503907-2.582031-4.855468-7.636719-7.890624-13.136719-7.890624-5.503906 0-10.554687 3.035156-13.140625 7.890624-6.597656 12.398438-20.046875 38.757813-25.566406 57.503907-2.535156-5.453125-3.960937-11.523438-3.960937-17.925781 0-4.976563 2.664062-22.300782 27.339843-75.496094 5.339844-11.511719 10.710938-22.527344 15.328125-31.777344 4.613282 9.25 9.984375 20.265625 15.324219 31.777344 24.675781 53.195312 27.34375 70.519531 27.34375 75.496094 0 6.402343-1.425781 12.472656-3.960937 17.925781zm0 0"/></svg>
