<svg id="icon" height="512pt" viewBox="-44 0 512 512" width="512pt" xmlns="http://www.w3.org/2000/svg"><path d="m407.992188 481.402344h-28.625l-114.464844-469.726563c-1.671875-6.851562-7.808594-11.675781-14.863282-11.675781h-76.789062c-7.054688 0-13.191406 4.824219-14.863281 11.675781l-114.464844 469.726563h-28.625c-8.445313 0-15.296875 6.851562-15.296875 15.300781 0 8.445313 6.851562 15.296875 15.296875 15.296875h392.691406c8.449219 0 15.300781-6.851562 15.300781-15.296875 0-8.449219-6.847656-15.300781-15.296874-15.300781zm-130.464844-288.6875h-131.761719l11.253906-46.1875h109.25zm7.453125 30.597656 14.632812 60.050781h-175.9375l14.632813-60.050781zm22.089843 90.648438 11.257813 46.1875h-213.367187l11.257812-46.1875zm-121.800781-283.363282h52.75l20.792969 85.332032h-94.335938zm-109.855469 450.804688 22.09375-90.65625h228.273438l22.09375 90.65625zm0 0"/></svg>
