<svg id="icon" height="512pt" viewBox="-19 0 512 512" width="512pt" xmlns="http://www.w3.org/2000/svg"><path d="m470.941406 299.261719-58.1875-75.273438c-2.863281-3.703125-7.28125-5.871093-11.960937-5.871093-4.679688 0-9.097657 2.167968-11.960938 5.871093l-58.1875 75.273438c-3.527343 4.5625-4.152343 10.734375-1.613281 15.910156 2.542969 5.175781 7.804688 8.453125 13.570312 8.453125h17.53125c-5.765624 47.390625-38.304687 87.207031-83.335937 102.371094v-185.582032h6.558594c8.347656 0 15.117187-6.769531 15.117187-15.117187 0-8.351563-6.769531-15.121094-15.117187-15.121094h-6.558594v-23.582031c15.097656-6.789062 28.484375-17.460938 38.4375-30.785156 12.664063-16.953125 19.355469-37.101563 19.355469-58.269532 0-53.78125-43.757813-97.539062-97.539063-97.539062-53.785156 0-97.539062 43.757812-97.539062 97.539062 0 21.167969 6.691406 41.316407 19.355469 58.269532 9.953124 13.324218 23.339843 23.996094 38.433593 30.785156v23.582031h-6.5625c-8.347656 0-15.117187 6.769531-15.117187 15.121094 0 8.347656 6.769531 15.117187 15.117187 15.117187h6.5625v185.585938c-45.027343-15.167969-77.566406-54.984375-83.332031-102.371094h17.527344c5.765625 0 11.03125-3.28125 13.570312-8.457031 2.542969-5.175781 1.917969-11.347656-1.609375-15.910156l-58.1875-75.269531c-2.863281-3.703126-7.28125-5.875-11.960937-5.875-4.679688 0-9.097656 2.167968-11.960938 5.875l-58.191406 75.269531c-3.523438 4.5625-4.148438 10.734375-1.609375 15.910156s7.804687 8.457031 13.570313 8.457031h19c7.753906 105.175782 95.808593 188.371094 202.933593 188.371094 107.121094 0 195.179688-83.195312 202.933594-188.371094h19c5.765625 0 11.03125-3.28125 13.570313-8.457031 2.539062-5.175781 1.914062-11.347656-1.613282-15.910156zm-253.996094-137.488281c-28.230468-8.859376-47.199218-34.671876-47.199218-64.234376 0-37.109374 30.191406-67.304687 67.304687-67.304687 37.109375 0 67.304688 30.195313 67.304688 67.304687 0 29.5625-18.96875 55.378907-47.203125 64.234376-6.300782 1.980468-10.589844 7.820312-10.589844 14.425781v33.976562h-19.023438v-33.976562c0-6.605469-4.289062-12.445313-10.59375-14.425781zm208.476563 131.617187c-8.347656 0-15.117187 6.769531-15.117187 15.117187 0 95.535157-77.722657 173.257813-173.253907 173.257813-95.535156 0-173.253906-77.722656-173.253906-173.257813 0-8.347656-6.769531-15.117187-15.121094-15.117187h-2.761719l27.394532-35.433594 27.394531 35.433594h-2.765625c-8.347656 0-15.117188 6.769531-15.117188 15.117187 0 36.355469 12.941407 71.679688 36.441407 99.46875 23.210937 27.449219 55.347656 46.039063 90.488281 52.34375 4.40625.789063 8.9375-.414062 12.371094-3.285156s5.417968-7.121094 5.417968-11.597656v-205.023438h19.023438v205.023438c0 4.476562 1.984375 8.722656 5.417969 11.597656 3.433593 2.871094 7.960937 4.074219 12.367187 3.28125 35.144532-6.300781 67.28125-24.890625 90.492188-52.339844 23.496094-27.789062 36.441406-63.113281 36.441406-99.46875 0-8.347656-6.769531-15.117187-15.121094-15.117187h-2.761718l27.394531-35.433594 27.394531 35.433594zm0 0"/><path d="m285.328125 97.539062c0-26.621093-21.65625-48.277343-48.277344-48.277343-26.621093 0-48.28125 21.65625-48.28125 48.277343 0 26.621094 21.660157 48.28125 48.28125 48.28125 26.621094 0 48.277344-21.660156 48.277344-48.28125zm-66.320313 0c0-9.949218 8.09375-18.042968 18.042969-18.042968s18.042969 8.09375 18.042969 18.042968c0 9.949219-8.09375 18.042969-18.042969 18.042969s-18.042969-8.09375-18.042969-18.042969zm0 0"/></svg>
