<svg id="icon" height="512pt" viewBox="-33 0 512 512" width="512pt" xmlns="http://www.w3.org/2000/svg"><path d="m247.816406 344.058594h-49.15625c-8.484375 0-15.359375 6.878906-15.359375 15.359375v77.832031c0 8.480469 6.875 15.359375 15.359375 15.359375h49.15625c8.484375 0 15.359375-6.878906 15.359375-15.359375v-77.832031c0-8.480469-6.875-15.359375-15.359375-15.359375zm-15.359375 77.832031h-18.4375v-47.113281h18.4375zm0 0"/><path d="m431.117188 0h-415.757813c-8.480469 0-15.359375 6.878906-15.359375 15.359375v481.28125c0 8.480469 6.878906 15.359375 15.359375 15.359375h415.757813c8.484374 0 15.359374-6.878906 15.359374-15.359375v-481.28125c0-8.480469-6.875-15.359375-15.359374-15.359375zm-400.398438 30.71875h28.679688v450.5625h-28.679688zm59.398438 0h266.242187v450.5625h-266.242187zm325.640624 450.5625h-28.675781v-450.5625h28.675781zm0 0"/><path d="m247.816406 201.726562h-49.15625c-8.484375 0-15.359375 6.875-15.359375 15.359376v77.828124c0 8.484376 6.875 15.359376 15.359375 15.359376h49.15625c8.484375 0 15.359375-6.875 15.359375-15.359376v-77.828124c0-8.484376-6.875-15.359376-15.359375-15.359376zm-15.359375 77.828126h-18.4375v-47.109376h18.4375zm0 0"/><path d="m247.816406 59.390625h-49.15625c-8.484375 0-15.359375 6.878906-15.359375 15.359375v77.832031c0 8.480469 6.875 15.359375 15.359375 15.359375h49.15625c8.484375 0 15.359375-6.878906 15.359375-15.359375v-77.832031c0-8.480469-6.875-15.359375-15.359375-15.359375zm-15.359375 77.832031h-18.4375v-47.113281h18.4375zm0 0"/></svg>
