<svg id="icon" height="512pt" viewBox="-37 0 511 512" width="512pt" xmlns="http://www.w3.org/2000/svg"><path d="m233.277344 50.597656h-163.859375c-8.550781 0-15.484375 6.933594-15.484375 15.484375v120.40625c0 8.546875 6.933594 15.480469 15.484375 15.480469h163.859375c8.550781 0 15.484375-6.933594 15.484375-15.480469v-120.40625c0-8.550781-6.929688-15.484375-15.484375-15.484375zm-15.480469 120.40625h-132.898437v-89.441406h132.898437zm0 0"/><path d="m151.347656 260.132812c-5.722656 0-10.976562 3.15625-13.667968 8.207032-9.316407 17.507812-39.71875 76.417968-39.71875 99.425781 0 29.441406 23.949218 53.390625 53.386718 53.390625s53.390625-23.949219 53.390625-53.390625c0-23.007813-30.402343-81.917969-39.722656-99.425781-2.6875-5.050782-7.945313-8.207032-13.667969-8.207032zm0 130.058594c-12.363281 0-22.421875-10.058594-22.421875-22.425781 0-7.75 10.144531-32.394531 22.421875-57.871094 12.277344 25.476563 22.421875 50.125 22.421875 57.871094 0 12.363281-10.058593 22.425781-22.421875 22.425781zm0 0"/><path d="m368.75 94.292969h-66.558594v-45.695313c0-26.796875-21.800781-48.597656-48.597656-48.597656h-204.496094c-26.796875 0-48.597656 21.800781-48.597656 48.597656v447.917969c0 8.550781 6.933594 15.484375 15.484375 15.484375h270.722656c8.550781 0 15.484375-6.933594 15.484375-15.484375v-252.210937h18.542969c10.226563 0 18.542969 8.320312 18.542969 18.546874v159.027344c0 27.296875 22.210937 49.507813 49.511718 49.507813 27.300782 0 49.507813-22.210938 49.507813-49.507813v-258.039062c0-38.347656-31.195313-69.546875-69.546875-69.546875zm-97.523438 386.742187h-239.761718v-432.4375c0-9.722656 7.910156-17.632812 17.632812-17.632812h204.496094c9.722656 0 17.632812 7.910156 17.632812 17.632812zm113.007813-352.53125c13.585937 5.976563 23.097656 19.566406 23.097656 35.335938v41.4375c-13.585937-5.976563-23.097656-19.566406-23.097656-35.335938zm4.554687 311.917969c-10.226562 0-18.546874-8.320313-18.546874-18.542969v-159.03125c0-27.296875-22.207032-49.507812-49.507813-49.507812h-18.542969v-88.082032h51.078125v44.683594c0 33.027344 23.144531 60.726563 54.0625 67.789063v184.148437c0 10.222656-8.320312 18.542969-18.542969 18.542969zm0 0"/></svg>
