<svg id="icon" height="512pt" viewBox="0 -24 512.00101 512" width="512pt" xmlns="http://www.w3.org/2000/svg"><path d="m287.546875 106.414062c29.335937 0 53.207031-23.867187 53.207031-53.207031 0-29.339843-23.871094-53.207031-53.207031-53.207031-29.339844 0-53.207031 23.871094-53.207031 53.207031 0 29.339844 23.867187 53.207031 53.207031 53.207031zm0-76.019531c12.578125 0 22.808594 10.234375 22.808594 22.8125s-10.230469 22.8125-22.808594 22.8125-22.8125-10.234375-22.8125-22.8125 10.234375-22.8125 22.8125-22.8125zm0 0"/><path d="m496.800781 338.78125h-106.582031l-54.871094-48.566406v-116.234375c0-26.359375-21.441406-47.800781-47.800781-47.800781s-47.804687 21.441406-47.804687 47.800781v31.621093l-71.308594-63.109374c-2.777344-2.460938-6.359375-3.816407-10.070313-3.816407h-143.164062c-8.394531 0-15.199219 6.804688-15.199219 15.195313v94.976562c0 8.394532 6.804688 15.199219 15.199219 15.199219h85.550781l221.785156 196.285156c2.777344 2.460938 6.359375 3.820313 10.070313 3.820313h164.199219c8.390624 0 15.195312-6.804688 15.195312-15.199219v-94.976563c0-8.390624-6.804688-15.195312-15.199219-15.195312zm-15.195312 94.972656h-143.242188l-221.78125-196.285156c-2.777343-2.460938-6.363281-3.816406-10.070312-3.816406h-76.117188v-64.582032h122.210938l221.78125 196.285157c2.78125 2.460937 6.363281 3.820312 10.074219 3.820312h97.144531zm-211.464844-259.773437c0-9.597657 7.808594-17.40625 17.40625-17.40625s17.40625 7.808593 17.40625 17.40625v89.332031l-34.8125-30.808594zm0 0"/></svg>
