<svg id="icon" height="512pt" viewBox="-26 0 512 512" width="512pt" xmlns="http://www.w3.org/2000/svg"><path d="m445.238281 0h-429.816406c-8.515625 0-15.421875 6.90625-15.421875 15.421875v481.15625c0 8.515625 6.90625 15.421875 15.421875 15.421875h429.816406c8.515625 0 15.421875-6.90625 15.421875-15.421875v-481.15625c0-8.515625-6.90625-15.421875-15.421875-15.421875zm-15.421875 272.785156h-33.570312v-26.054687h33.570312zm-33.570312 30.84375h33.570312v26.054688h-33.570312zm-365.402344-272.785156h398.972656v185.042969h-33.570312v-136.054688c0-8.515625-6.902344-15.417969-15.417969-15.417969h-300.996094c-8.515625 0-15.417969 6.902344-15.417969 15.417969v401.324219h-33.570312zm64.410156 64.410156h119.65625v385.902344h-119.652344v-385.902344zm150.496094 385.902344v-385.902344h119.65625v385.902344zm150.496094 0v-120.632812h33.570312v120.632812zm0 0"/></svg>
