<svg id="icon" height="512pt" viewBox="-67 0 512 512" width="512pt" xmlns="http://www.w3.org/2000/svg"><path d="m362.992188 53.074219h-108.183594v-37.804688c0-8.433593-6.835938-15.269531-15.269532-15.269531h-100.820312c-8.429688 0-15.265625 6.835938-15.265625 15.269531v37.804688h-108.183594c-8.433593 0-15.269531 6.839843-15.269531 15.269531v69.320312c0 8.433594 6.835938 15.269532 15.269531 15.269532h12.542969v343.796875c0 8.433593 6.835938 15.269531 15.269531 15.269531h292.097657c8.433593 0 15.269531-6.835938 15.269531-15.269531v-343.796875h12.542969c8.433593 0 15.269531-6.835938 15.269531-15.269532v-69.320312c0-8.433594-6.835938-15.269531-15.269531-15.269531zm-209.003907-22.539063h70.285157v22.320313h-70.285157zm-123.453125 53.078125h317.1875v38.785157h-317.1875zm289.375 397.851563h-261.558594v-328.53125h261.5625v328.53125zm0 0"/><path d="m137.320312 370.777344c-4.539062 7.105468-2.460937 16.546875 4.644532 21.089844 14.378906 9.191406 31.015625 14.050781 48.105468 14.050781 10.332032 0 20.492188-1.785157 30.09375-5.222657-.777343 7.34375 3.859376 14.367188 11.214844 16.335938 1.324219.355469 2.652344.527344 3.964844.527344 6.738281 0 12.910156-4.5 14.734375-11.324219l8.183594-30.527344c2.179687-8.148437-2.652344-16.519531-10.796875-18.703125l-30.53125-8.179687c-8.148438-2.183594-16.519532 2.652343-18.699219 10.796875-1.4375 5.359375.179687 10.808594 3.765625 14.535156-3.902344.808594-7.894531 1.226562-11.929688 1.226562-11.25 0-22.199218-3.199218-31.660156-9.246093-7.105468-4.539063-16.546875-2.464844-21.089844 4.640625zm0 0"/><path d="m105.179688 346.785156c2.980468 2.980469 6.890624 4.472656 10.796874 4.472656s7.8125-1.492187 10.792969-4.472656l22.351563-22.351562c5.964844-5.960938 5.964844-15.628906 0-21.59375-4.152344-4.152344-10.097656-5.402344-15.339844-3.773438 4.566406-14.8125 14.882812-27.441406 29.132812-34.859375 7.476563-3.898437 10.382813-13.117187 6.488282-20.597656-3.898438-7.476563-13.113282-10.382813-20.597656-6.488281-25.015626 13.03125-42.050782 36.636718-46.820313 63.742187-5.921875-3.886719-13.949219-3.226562-19.15625 1.980469-5.960937 5.960938-5.960937 15.628906 0 21.589844zm0 0"/><path d="m204.152344 277.902344c1.828125 6.824218 7.996094 11.324218 14.734375 11.324218 1.308593 0 2.640625-.171874 3.964843-.527343 5.761719-1.542969 9.847657-6.1875 10.984376-11.652344 9.605468 10.632813 15.140624 24.570313 15.140624 39.429687 0 .726563-.023437 1.53125-.070312 2.605469-.367188 8.425781 6.160156 15.554688 14.585938 15.925781.226562.007813.453124.015626.679687.015626 8.125 0 14.882813-6.40625 15.242187-14.601563.042969-.953125.097657-2.402344.097657-3.945313 0-26.464843-11.550781-51.007812-31.078125-67.777343 6.128906-3.265625 9.4375-10.414063 7.5625-17.410157-2.183594-8.144531-10.550782-12.980468-18.699219-10.796874l-30.53125 8.183593c-3.910156 1.046875-7.246094 3.605469-9.269531 7.113281-2.027344 3.507813-2.574219 7.675782-1.527344 11.585938zm0 0"/></svg>
