<svg id="icon" height="512pt" viewBox="-158 0 512 512" width="512pt" xmlns="http://www.w3.org/2000/svg"><path d="m180.054688 0h-164.9375c-8.347657 0-15.117188 6.769531-15.117188 15.117188v344.660156c0 8.351562 6.769531 15.117187 15.117188 15.117187h36.90625v121.988281c0 8.347657 6.769531 15.117188 15.117187 15.117188h60.890625c8.351562 0 15.117188-6.769531 15.117188-15.117188v-121.988281h36.90625c8.347656 0 15.117187-6.765625 15.117187-15.117187v-344.660156c0-8.347657-6.769531-15.117188-15.117187-15.117188zm-67.140626 481.765625h-30.65625v-106.871094h30.65625zm52.023438-137.105469h-134.703125v-314.425781h134.703125zm0 0"/><path d="m97.585938 331.777344c25.125 0 45.5625-20.4375 45.5625-45.5625s-20.4375-45.566406-45.5625-45.566406-45.5625 20.441406-45.5625 45.566406 20.4375 45.5625 45.5625 45.5625zm0-60.890625c8.453124 0 15.328124 6.875 15.328124 15.328125s-6.875 15.328125-15.328124 15.328125c-8.453126 0-15.328126-6.875-15.328126-15.328125s6.875-15.328125 15.328126-15.328125zm0 0"/><path d="m97.585938 233.011719c25.125 0 45.5625-20.441407 45.5625-45.5625 0-25.125-20.4375-45.566407-45.5625-45.566407s-45.5625 20.441407-45.5625 45.566407c0 25.121093 20.4375 45.5625 45.5625 45.5625zm0-60.890625c8.453124 0 15.328124 6.875 15.328124 15.328125 0 8.449219-6.875 15.324219-15.328124 15.324219-8.453126 0-15.328126-6.875-15.328126-15.324219 0-8.453125 6.875-15.328125 15.328126-15.328125zm0 0"/><path d="m97.585938 134.246094c25.125 0 45.5625-20.441406 45.5625-45.5625 0-25.125-20.4375-45.566406-45.5625-45.566406s-45.5625 20.441406-45.5625 45.566406c0 25.121094 20.4375 45.5625 45.5625 45.5625zm0-60.890625c8.453124 0 15.328124 6.875 15.328124 15.328125 0 8.449218-6.875 15.324218-15.328124 15.324218-8.453126 0-15.328126-6.875-15.328126-15.324218 0-8.453125 6.875-15.328125 15.328126-15.328125zm0 0"/></svg>
