<svg id="icon" height="511pt" viewBox="-70 1 511 511.99898" width="511pt" xmlns="http://www.w3.org/2000/svg"><path d="m356.878906 431.246094h-11.722656v-35.746094c0-8.433594-6.835938-15.269531-15.269531-15.269531h-11.621094v-178.160157c0-50.242187-40.875-91.117187-91.121094-91.117187h-81.644531c-50.246094 0-91.121094 40.875-91.121094 91.117187v178.160157h-11.621094c-8.433593 0-15.269531 6.835937-15.269531 15.269531v35.746094h-11.71875c-8.433593 0-15.269531 6.835937-15.269531 15.269531v50.214844c0 8.433593 6.835938 15.269531 15.269531 15.269531h341.109375c8.429688 0 15.265625-6.835938 15.265625-15.269531v-50.214844c0-8.433594-6.835937-15.269531-15.265625-15.269531zm-271.960937-229.175782c0-33.402343 27.175781-60.582031 60.582031-60.582031h81.648438c33.402343 0 60.582031 27.175781 60.582031 60.582031v177.148438h-86.140625v-83.371094c23.988281-6.691406 41.644531-28.722656 41.644531-54.816406 0-31.378906-25.53125-56.910156-56.910156-56.910156-31.382813 0-56.914063 25.53125-56.914063 56.910156 0 26.09375 17.65625 48.125 41.644532 54.816406v83.375h-86.136719zm101.40625 65.339844c-14.546875 0-26.378907-11.832031-26.378907-26.378906 0-14.542969 11.832032-26.375 26.378907-26.375 14.542969 0 26.375 11.832031 26.375 26.375 0 14.546875-11.832031 26.378906-26.375 26.378906zm-128.296875 143.359375h256.589844v20.476563h-256.589844zm283.582031 70.695313h-310.574219v-19.679688h310.574219zm0 0"/><path d="m186.324219 70.238281c8.429687 0 15.265625-6.835937 15.265625-15.269531v-39.699219c0-8.433593-6.835938-15.269531-15.265625-15.269531-8.433594 0-15.269531 6.835938-15.269531 15.269531v39.699219c0 8.433594 6.835937 15.269531 15.269531 15.269531zm0 0"/><path d="m104.855469 72.027344c2.257812 6.199218 8.113281 10.050781 14.351562 10.050781 1.730469 0 3.496094-.296875 5.21875-.925781 7.925781-2.882813 12.011719-11.644532 9.125-19.570313l-13.578125-37.304687c-2.882812-7.925782-11.648437-12.011719-19.570312-9.128906-7.921875 2.886718-12.007813 11.648437-9.125 19.570312zm0 0"/><path d="m48.484375 110.695312c3.019531 3.601563 7.347656 5.453126 11.703125 5.453126 3.464844 0 6.945312-1.171876 9.808594-3.570313 6.457031-5.421875 7.300781-15.050781 1.878906-21.511719l-25.519531-30.414062c-5.417969-6.460938-15.050781-7.300782-21.507813-1.878906-6.460937 5.417968-7.300781 15.046874-1.882812 21.507812zm0 0"/><path d="m302.648438 112.578125c2.863281 2.398437 6.34375 3.574219 9.808593 3.574219 4.355469 0 8.683594-1.855469 11.703125-5.457032l25.519532-30.410156c5.421874-6.460937 4.578124-16.09375-1.882813-21.511718-6.460937-5.421876-16.09375-4.578126-21.507813 1.882812l-25.519531 30.414062c-5.421875 6.457032-4.578125 16.085938 1.878907 21.507813zm0 0"/><path d="m248.21875 81.152344c1.722656.628906 3.488281.925781 5.222656.925781 6.234375 0 12.089844-3.851563 14.347656-10.050781l13.578126-37.308594c2.886718-7.921875-1.199219-16.683594-9.125-19.570312-7.925782-2.882813-16.683594 1.203124-19.570313 9.128906l-13.578125 37.304687c-2.882812 7.925781 1.199219 16.6875 9.125 19.570313zm0 0"/></svg>
