<svg id="icon" height="512pt" viewBox="0 -68 512 511" width="512pt" xmlns="http://www.w3.org/2000/svg"><path d="m471.03125.5h-386.304688c-22.589843 0-40.96875 18.378906-40.96875 40.96875v44.503906h-13.351562v-19.257812c0-8.394532-6.808594-15.203125-15.203125-15.203125s-15.203125 6.808593-15.203125 15.203125v68.917968c0 8.394532 6.808594 15.203126 15.203125 15.203126s15.203125-6.808594 15.203125-15.203126v-19.257812h13.351562v218.140625c0 22.59375 18.378907 40.96875 40.96875 40.96875h386.304688c22.589844 0 40.96875-18.375 40.96875-40.96875v-293.046875c0-22.589844-18.378906-40.96875-40.96875-40.96875zm10.5625 334.015625c0 5.828125-4.738281 10.566406-10.5625 10.566406h-386.304688c-5.824218 0-10.566406-4.738281-10.566406-10.566406v-293.046875c0-5.824219 4.742188-10.5625 10.566406-10.5625h386.304688c5.824219 0 10.5625 4.738281 10.5625 10.5625zm0 0"/><path d="m112.402344 46.105469c-8.394532 0-15.203125 6.808593-15.203125 15.203125v255.402344c0 8.394531 6.808593 15.203124 15.203125 15.203124 8.398437 0 15.203125-6.808593 15.203125-15.203124v-255.402344c0-8.394532-6.804688-15.203125-15.203125-15.203125zm0 0"/><path d="m167.5625 46.105469c-8.398438 0-15.203125 6.808593-15.203125 15.203125v255.402344c0 8.394531 6.804687 15.203124 15.203125 15.203124 8.394531 0 15.203125-6.808593 15.203125-15.203124v-255.402344c0-8.394532-6.808594-15.203125-15.203125-15.203125zm0 0"/><path d="m222.71875 46.105469c-8.394531 0-15.199219 6.808593-15.199219 15.203125v255.402344c0 8.394531 6.804688 15.203124 15.199219 15.203124 8.398438 0 15.203125-6.808593 15.203125-15.203124v-255.402344c0-8.394532-6.804687-15.203125-15.203125-15.203125zm0 0"/><path d="m277.878906 46.105469c-8.398437 0-15.203125 6.808593-15.203125 15.203125v255.402344c0 8.394531 6.804688 15.203124 15.203125 15.203124 8.394532 0 15.203125-6.808593 15.203125-15.203124v-255.402344c0-8.394532-6.808593-15.203125-15.203125-15.203125zm0 0"/><path d="m333.035156 46.105469c-8.394531 0-15.199218 6.808593-15.199218 15.203125v255.402344c0 8.394531 6.804687 15.203124 15.199218 15.203124 8.398438 0 15.203125-6.808593 15.203125-15.203124v-255.402344c0-8.394532-6.804687-15.203125-15.203125-15.203125zm0 0"/><path d="m388.195312 46.105469c-8.394531 0-15.203124 6.808593-15.203124 15.203125v255.402344c0 8.394531 6.808593 15.203124 15.203124 15.203124 8.394532 0 15.203126-6.808593 15.203126-15.203124v-255.402344c0-8.394532-6.808594-15.203125-15.203126-15.203125zm0 0"/><path d="m443.355469 46.105469c-8.398438 0-15.203125 6.808593-15.203125 15.203125v255.402344c0 8.394531 6.804687 15.203124 15.203125 15.203124 8.394531 0 15.199219-6.808593 15.199219-15.203124v-255.402344c0-8.394532-6.804688-15.203125-15.199219-15.203125zm0 0"/></svg>
