<svg id="icon" height="511pt" viewBox="0 -54 511.99987 511" width="511pt" xmlns="http://www.w3.org/2000/svg"><path d="m507.554688 104.695312c-67.191407-67.191406-156.53125-104.195312-251.554688-104.195312-95.027344 0-184.363281 37.003906-251.554688 104.195312-5.925781 5.929688-5.925781 15.539063 0 21.464844l37.648438 37.652344c5.929688 5.925781 15.539062 5.925781 21.464844 0 51.316406-51.316406 119.660156-79.578125 192.441406-79.578125s141.125 28.261719 192.441406 79.578125c2.960938 2.960938 6.847656 4.445312 10.730469 4.445312s7.769531-1.484374 10.730469-4.445312l37.652344-37.652344c5.925781-5.925781 5.925781-15.535156 0-21.464844zm-48.648438 27.183594c-57.429688-51.992187-130.171875-77.992187-202.90625-77.992187-72.738281 0-145.476562 26-202.90625 77.992187l-16.207031-16.207031c60.046875-54.808594 137.273437-84.816406 219.113281-84.816406s159.066406 30.003906 219.113281 84.816406zm0 0"/><path d="m256 103.683594c-67.464844 0-130.890625 26.269531-178.59375 73.972656-5.925781 5.929688-5.925781 15.539062 0 21.464844l37.648438 37.652344c2.847656 2.84375 6.707031 4.445312 10.734374 4.445312 4.023438 0 7.886719-1.597656 10.730469-4.445312 31.859375-31.859376 74.289063-49.40625 119.476563-49.40625 45.191406 0 87.621094 17.546874 119.480468 49.40625 2.964844 2.960937 6.847657 4.445312 10.730469 4.445312 3.886719 0 7.769531-1.484375 10.734375-4.445312l37.648438-37.652344c5.929687-5.925782 5.929687-15.535156 0-21.464844-47.699219-47.703125-111.125-73.972656-178.589844-73.972656zm129.808594 101.292968c-36.074219-31.035156-81.617188-47.964843-129.808594-47.964843-48.195312 0-93.738281 16.929687-129.808594 47.964843l-16.230468-16.226562c40.472656-35.390625 91.769531-54.710938 146.039062-54.710938s105.566406 19.320313 146.039062 54.710938zm0 0"/><path d="m150.742188 250.992188c-2.847657 2.847656-4.445313 6.707031-4.445313 10.734374 0 4.023438 1.597656 7.886719 4.445313 10.730469l37.648437 37.648438c5.925781 5.929687 15.535156 5.929687 21.464844 0 25.445312-25.441407 66.84375-25.441407 92.289062 0 2.964844 2.964843 6.847657 4.445312 10.730469 4.445312 3.886719 0 7.769531-1.480469 10.734375-4.445312l37.648437-37.648438c2.847657-2.847656 4.445313-6.707031 4.445313-10.730469 0-4.027343-1.597656-7.886718-4.445313-10.734374-58.035156-58.035157-152.472656-58.035157-210.515624 0zm161.285156 27.769531c-16.652344-12.050781-36.339844-18.078125-56.027344-18.078125s-39.378906 6.027344-56.027344 18.078125l-16.351562-16.351563c42.476562-32.804687 102.285156-32.804687 144.757812 0zm0 0"/><path d="m256 309.453125c-25.804688 0-46.796875 20.996094-46.796875 46.796875 0 25.804688 20.992187 46.796875 46.796875 46.796875s46.796875-20.992187 46.796875-46.796875c0-25.800781-20.992187-46.796875-46.796875-46.796875zm0 63.238281c-9.066406 0-16.441406-7.375-16.441406-16.441406 0-9.0625 7.375-16.441406 16.441406-16.441406s16.441406 7.378906 16.441406 16.441406c0 9.066406-7.375 16.441406-16.441406 16.441406zm0 0"/></svg>
