<svg id="icon" height="512pt" viewBox="0 -134 512 512" width="512pt" xmlns="http://www.w3.org/2000/svg"><path d="m496.761719 186.335938c8.414062 0 15.238281-6.820313 15.238281-15.238282v-155.859375c0-8.414062-6.824219-15.238281-15.238281-15.238281h-368.332031c-62.714844 0-115.066407 45.191406-126.226563 104.714844-.027344.136718-.050781.273437-.078125.414062-1.390625 7.558594-2.125 15.34375-2.125 23.300782 0 31.929687 25.976562 57.90625 57.90625 57.90625h12.390625v28.066406h-53.203125c-8.417969 0-15.238281 6.824218-15.238281 15.238281 0 8.417969 6.820312 15.238281 15.238281 15.238281h479.667969c8.414062 0 15.238281-6.820312 15.238281-15.238281 0-8.414063-6.824219-15.238281-15.238281-15.238281h-53.203125v-28.066406zm-375.082031-155.625-9.519532 25.191406c-8.316406 22.011718-29.710937 36.800781-53.246094 36.800781h-21.691406c13.523438-34.402344 45.972656-59.359375 84.457032-61.992187zm-91.203126 97.71875c0-1.761719.046876-3.511719.140626-5.25h28.296874c36.132813 0 68.984376-22.707032 81.757813-56.503907l13.675781-36.199219h327.175782v125.386719h-423.617188c-15.125 0-27.429688-12.308593-27.429688-27.433593zm268.34375 57.90625v28.066406h-83.785156v-28.066406zm-198.046874 0h83.785156v28.066406h-83.785156zm312.308593 28.066406h-83.785156v-28.066406h83.785156zm0 0"/><path d="m185.082031 90.140625h45.902344c8.414063 0 15.238281-6.820313 15.238281-15.234375 0-8.417969-6.824218-15.238281-15.238281-15.238281h-45.902344c-8.414062 0-15.238281 6.820312-15.238281 15.238281 0 8.414062 6.824219 15.234375 15.238281 15.234375zm0 0"/><path d="m287.855469 90.140625h45.902343c8.414063 0 15.238282-6.820313 15.238282-15.234375 0-8.417969-6.824219-15.238281-15.238282-15.238281h-45.902343c-8.417969 0-15.238281 6.820312-15.238281 15.238281 0 8.414062 6.820312 15.234375 15.238281 15.234375zm0 0"/><path d="m390.628906 90.140625h45.902344c8.414062 0 15.234375-6.820313 15.234375-15.234375 0-8.417969-6.820313-15.238281-15.234375-15.238281h-45.902344c-8.417968 0-15.238281 6.820312-15.238281 15.238281 0 8.414062 6.820313 15.234375 15.238281 15.234375zm0 0"/></svg>
