<svg id="icon" height="512pt" viewBox="-60 0 512 512" width="512pt" xmlns="http://www.w3.org/2000/svg"><path d="m194.390625 103.710938c28.59375 0 51.855469-23.261719 51.855469-51.855469s-23.261719-51.855469-51.855469-51.855469-51.855469 23.261719-51.855469 51.855469 23.261719 51.855469 51.855469 51.855469zm0-73.296876c11.820313 0 21.4375 9.621094 21.4375 21.441407 0 11.820312-9.617187 21.4375-21.4375 21.4375s-21.4375-9.617188-21.4375-21.4375c0-11.820313 9.613281-21.441407 21.4375-21.441407zm0 0"/><path d="m296.574219 356.8125c-8.355469-.914062-15.855469 5.113281-16.769531 13.464844-6.9375 63.457031-60.382813 111.308594-124.320313 111.308594-68.964844 0-125.070313-56.105469-125.070313-125.070313 0-52.269531 32.960938-99.476563 82.011719-117.464844 7.886719-2.890625 11.933594-11.625 9.042969-19.511719-2.890625-7.886718-11.625-11.933593-19.511719-9.042968-29.601562 10.855468-54.941406 30.230468-73.28125 56.03125-18.761719 26.390625-28.675781 57.507812-28.675781 89.988281 0 85.734375 69.75 155.484375 155.484375 155.484375 38.546875 0 75.527344-14.210938 104.128906-40.015625 28.382813-25.609375 46.292969-60.554687 50.425781-98.402344.914063-8.351562-5.113281-15.859375-13.464843-16.769531zm0 0"/><path d="m390.828125 402.914062-47.828125-93.054687c-2.605469-5.070313-7.828125-8.257813-13.527344-8.257813h-88.4375v-65.363281h72.175782c8.398437 0 15.207031-6.808593 15.207031-15.207031s-6.808594-15.207031-15.207031-15.207031h-72.175782v-37.523438c0-25.71875-20.925781-46.644531-46.644531-46.644531s-46.644531 20.925781-46.644531 46.644531v113.984375c0 27.421875 22.308594 49.734375 49.734375 49.734375h122.710937l43.582032 84.800781c2.695312 5.246094 8.019531 8.257813 13.539062 8.257813 2.339844 0 4.714844-.539063 6.941406-1.683594 7.46875-3.839843 10.410156-13.007812 6.574219-20.480469zm-212.664063-120.628906v-113.984375c0-8.949219 7.277344-16.226562 16.226563-16.226562s16.226563 7.277343 16.226563 16.226562v133.300781h-13.136719c-10.652344 0-19.316407-8.664062-19.316407-19.316406zm0 0"/></svg>
