<svg id="icon" height="512pt" viewBox="0 0 512.00198 512" width="512pt" xmlns="http://www.w3.org/2000/svg"><path d="m497.671875 72.683594-27.652344-27.648438c-45.09375-45.097656-105.601562-56.601562-174.984375-33.261718-54.46875 18.320312-114.722656 58.667968-169.660156 113.605468s-95.28125 115.1875-113.605469 169.660156c-23.335937 69.378907-11.832031 129.886719 33.261719 174.984376l27.652344 27.648437c9.238281 9.242187 21.523437 14.328125 34.589844 14.328125 13.066406 0 25.351562-5.085938 34.589843-14.328125l60.171875-60.167969c19.074219-19.074218 19.074219-50.109375 0-69.179687l-27.652344-27.652344s0-.003906-.003906-.003906c-45.703125-45.710938-.4375-104.625 30.613282-135.675781 31.050781-31.050782 89.964843-76.316407 135.679687-30.605469l27.652344 27.648437c9.234375 9.238282 21.523437 14.328125 34.589843 14.328125 13.066407 0 25.347657-5.089843 34.589844-14.328125l60.167969-60.167968c9.238281-9.242188 14.332031-21.523438 14.332031-34.59375 0-13.066407-5.09375-25.351563-14.332031-34.589844zm-317.863281 342.59375-60.171875 60.171875c-3.304688 3.300781-7.695313 5.121093-12.363281 5.121093-4.671876 0-9.0625-1.820312-12.367188-5.125l-16.535156-16.535156 84.898437-84.902344 16.539063 16.539063c6.816406 6.820313 6.816406 17.910156 0 24.730469zm88.804687-287.839844c-27.671875 7.707031-57.359375 26.835938-85.847656 55.328125-28.492187 28.488281-47.625 58.175781-55.332031 85.847656-8.457032 30.375-3.46875 58.574219 14.382812 82.398438l-85.035156 85.039062c-27.613281-34.914062-32.738281-78.898437-15.21875-130.992187 16.804688-49.960938 54.464844-105.878906 106.039062-157.457032 51.574219-51.574218 107.492188-89.230468 157.453126-106.035156 20.183593-6.789062 39.140624-10.175781 56.832031-10.175781 27.976562 0 52.773437 8.476563 74.160156 25.390625l-85.035156 85.039062c-23.828125-17.855468-52.023438-22.84375-82.398438-14.382812zm206.832031-7.800781-60.171874 60.171875c-3.300782 3.304687-7.691407 5.121094-12.363282 5.121094s-9.0625-1.816407-12.363281-5.121094l-16.539063-16.539063 84.898438-84.898437 16.539062 16.539062c3.300782 3.300782 5.121094 7.691406 5.121094 12.363282 0 4.671874-1.820312 9.0625-5.121094 12.363281zm0 0"/></svg>
