<svg id="icon" height="511.99899pt" viewBox="1 1 511.99899 511.99899" width="511.99899pt" xmlns="http://www.w3.org/2000/svg"><path d="m437.019531 74.980469c-48.351562-48.351563-112.640625-74.980469-181.019531-74.980469-68.382812 0-132.667969 26.628906-181.019531 74.980469-48.351563 48.351562-74.980469 112.640625-74.980469 181.019531s26.628906 132.667969 74.980469 181.019531c48.351562 48.351563 112.640625 74.980469 181.019531 74.980469s132.667969-26.628906 181.019531-74.980469c48.351563-48.351562 74.980469-112.640625 74.980469-181.019531s-26.628906-132.667969-74.980469-181.019531zm44.625 181.019531c0 56.761719-21.074219 108.6875-55.800781 148.382812l-101.503906-101.503906h120.425781c8.382813 0 15.179687-6.796875 15.179687-15.179687v-63.390625c0-8.382813-6.796874-15.179688-15.179687-15.179688h-214.171875l-122.976562-122.976562c39.695312-34.722656 91.621093-55.796875 148.382812-55.796875 124.417969 0 225.644531 101.222656 225.644531 225.644531zm-298.496093 16.523438h-100.730469v-33.039063h100.734375v33.039063zm30.355468-33.039063h4.515625l33.039063 33.039063h-37.554688zm47.445313 0h123.558593v33.039063h-90.523437zm153.914062 0h14.726563v33.039063h-14.726563zm-384.507812 16.515625c0-56.761719 21.074219-108.6875 55.796875-148.382812l101.511718 101.511718h-120.425781c-8.378906 0-15.175781 6.796875-15.175781 15.175782v63.394531c0 8.382812 6.796875 15.179687 15.175781 15.179687h214.175781l122.96875 122.96875c-39.695312 34.722656-91.621093 55.796875-148.382812 55.796875-124.417969 0-225.644531-101.222656-225.644531-225.644531zm0 0"/></svg>
