<svg id="icon" height="512pt" viewBox="0 -54 512.00101 512" width="512pt" xmlns="http://www.w3.org/2000/svg"><path d="m444.40625 268.195312c-22.6875 0-42.789062 11.25-55.054688 28.449219h-32.34375c14.992188-33.347656 48.527344-56.628906 87.398438-56.628906 8.382812 0 15.179688-6.792969 15.179688-15.175781 0-8.382813-6.796876-15.179688-15.179688-15.179688-55.886719 0-103.390625 36.542969-119.898438 86.984375h-201.863281c-9.441406-13.242187-23.53125-22.945312-39.875-26.710937v-24.140625c27.394531-6.808594 47.757813-31.605469 47.757813-61.074219v-43.105469c0-29.472656-20.363282-54.265625-47.757813-61.078125v-50.179687h37.238281c8.378907 0 15.175782-6.792969 15.175782-15.175781 0-8.382813-6.796875-15.179688-15.175782-15.179688h-52.414062c-8.382812 0-15.179688 6.796875-15.179688 15.179688v254.753906c-29.984374 6.910156-52.414062 33.800781-52.414062 65.851562 0 37.269532 30.320312 67.59375 67.59375 67.59375 22.6875 0 42.789062-11.25 55.054688-28.453125h266.707031c12.265625 17.203125 32.363281 28.453125 55.054687 28.453125 37.269532 0 67.589844-30.324218 67.589844-67.59375 0-37.269531-30.320312-67.589844-67.59375-67.589844zm0 104.828126c-20.53125 0-37.234375-16.707032-37.234375-37.238282s16.703125-37.234375 37.234375-37.234375c20.535156 0 37.238281 16.703125 37.238281 37.234375s-16.703125 37.238282-37.238281 37.238282zm-376.8125 0c-20.535156 0-37.238281-16.707032-37.238281-37.238282s16.703125-37.234375 37.238281-37.234375c20.53125 0 37.234375 16.703125 37.234375 37.234375s-16.703125 37.238282-37.234375 37.238282zm67-28.453126c.375-2.878906.589844-5.804687.589844-8.785156 0-2.980468-.214844-5.90625-.589844-8.785156h242.8125c-.375 2.878906-.589844 5.804688-.589844 8.785156 0 2.980469.214844 5.90625.589844 8.785156zm-34.417969-202.957031v43.105469c0 12.488281-7.066406 23.355469-17.40625 28.824219v-100.757813c10.339844 5.46875 17.40625 16.339844 17.40625 28.828125zm0 0"/></svg>
