<svg id="icon" height="512pt" viewBox="0 0 512 512.00026" width="512pt" xmlns="http://www.w3.org/2000/svg"><path d="m413.410156 187.507812 80.195313-80.199218c24.515625-24.515625 24.515625-64.40625 0-88.921875s-64.40625-24.515625-88.921875 0l-80.195313 80.199219-218.625-83.988282c-3.824219-1.46875-8.070312-1.359375-11.8125.308594-3.742187 1.667969-6.664062 4.757812-8.125 8.582031l-19.6875 51.515625c-2.605469 6.820313-.074219 14.53125 6.066407 18.480469l156.605468 100.679687-96.140625 96.136719-95.398437-25.027343c-7.617188-2-15.511719 2.058593-18.320313 9.410156l-18.03125 47.183594c-2.589843 6.777343-.109375 14.441406 5.957031 18.410156l99.558594 65.1875 65.1875 99.558594c2.917969 4.457031 7.824219 6.976562 12.90625 6.976562 1.839844 0 3.703125-.328125 5.503906-1.019531l47.183594-18.03125c7.351563-2.808594 11.410156-10.707031 9.414063-18.320313l-25.035157-95.40625 96.136719-96.136718 100.679688 156.601562c2.90625 4.519531 7.851562 7.082031 12.976562 7.082031 1.839844 0 3.703125-.328125 5.503907-1.015625l51.515624-19.6875c3.824219-1.460937 6.910157-4.386718 8.578126-8.125 1.667968-3.738281 1.78125-7.992187.3125-11.8125zm-304.183594-138.574218 191.386719 73.527344-49.382812 49.382812-151.703125-97.53125zm80.382813 329.554687 23.769531 90.585938-22.65625 8.65625-60.144531-91.855469c-1.160156-1.777344-2.675781-3.292969-4.453125-4.457031l-91.855469-60.140625 8.65625-22.65625 90.578125 23.765625c5.300782 1.390625 10.945313-.136719 14.820313-4.015625l278.171875-278.171875c12.488281-12.488281 32.808594-12.488281 45.296875 0s12.488281 32.808593 0 45.296875l-278.171875 278.171875c-3.875 3.875-5.402344 9.519531-4.011719 14.820312zm248.074219 33.976563-97.53125-151.703125 49.382812-49.382813 73.523438 191.390625zm0 0"/></svg>
