<svg id="icon" height="512pt" viewBox="0 -125 512 512" width="512pt" xmlns="http://www.w3.org/2000/svg"><path d="m496.703125 0h-481.40625c-8.445313 0-15.296875 6.851562-15.296875 15.296875v179.515625c0 8.445312 6.851562 15.296875 15.296875 15.296875h85.675781v35.695313c0 8.449218 6.847656 15.300781 15.296875 15.300781h279.460938c8.449219 0 15.296875-6.851563 15.296875-15.300781v-35.695313h85.675781c8.445313 0 15.296875-6.851563 15.296875-15.296875v-179.515625c0-8.445313-6.847656-15.296875-15.296875-15.296875zm-66.296875 81.59375v46.921875h-19.378906v-46.921875zm-298.839844 110.957031c18.277344 5.257813 32.699219 19.679688 37.960938 37.957031h-37.960938zm248.867188-73c-18.277344-5.257812-32.699219-19.679687-37.960938-37.957031h37.960938zm-210.90625-37.957031c-5.261719 18.277344-19.683594 32.699219-37.960938 37.957031v-37.957031zm31.371094 0h110.203124c6.347657 35.183594 34.144532 62.984375 69.332032 69.328125v10.253906c-35.1875 6.347657-62.984375 34.148438-69.332032 69.332031h-110.203124c-6.347657-35.183593-34.144532-62.984374-69.332032-69.332031v-10.253906c35.1875-6.34375 62.984375-34.144531 69.332032-69.328125zm141.574218 148.914062c5.261719-18.277343 19.683594-32.699218 37.960938-37.960937v37.960937zm-241.5-101.992187h-19.378906v-46.921875h19.378906zm380.429688 50.996094h-70.375v-20.398438h34.679687c8.449219 0 15.296875-6.847656 15.296875-15.296875v-77.519531c0-8.449219-6.847656-15.300781-15.296875-15.300781h-379.414062c-8.449219 0-15.296875 6.851562-15.296875 15.300781v77.519531c0 8.449219 6.847656 15.296875 15.296875 15.296875h34.679687v20.398438h-70.375v-148.914063h450.804688zm0 0"/><path d="m256 217.925781c26.691406 0 47.597656-27.179687 47.597656-61.875 0-34.695312-20.90625-61.875-47.597656-61.875s-47.597656 27.179688-47.597656 61.875c0 34.695313 20.90625 61.875 47.597656 61.875zm0-93.152343c8.027344 0 17 13.375 17 31.277343 0 17.902344-8.972656 31.277344-17 31.277344s-17-13.375-17-31.277344c0-17.902343 8.972656-31.277343 17-31.277343zm0 0"/></svg>
