<svg id="icon" height="512pt" viewBox="-135 0 511 512" width="512pt" xmlns="http://www.w3.org/2000/svg"><path d="m225.75 272.328125c8.429688 0 15.265625-6.835937 15.265625-15.269531v-37.121094c0-8.433594-6.835937-15.269531-15.265625-15.269531h-45.402344l-9.125-43.695313h30.253906c8.433594 0 15.269532-6.835937 15.269532-15.265625 0-8.433593-6.835938-15.269531-15.269532-15.269531h-36.632812l-10.953125-52.4375c-2.144531-10.277344-8.929687-18.699219-17.863281-23.25v-39.480469c0-8.433593-6.835938-15.269531-15.269532-15.269531-8.429687 0-15.265624 6.835938-15.265624 15.269531v39.480469c-8.9375 4.550781-15.71875 12.972656-17.867188 23.253906l-10.953125 52.433594h-36.632813c-8.433593 0-15.269531 6.835938-15.269531 15.269531 0 8.429688 6.835938 15.265625 15.269531 15.265625h30.257813l-9.128906 43.699219h-45.398438c-8.433593 0-15.269531 6.835937-15.269531 15.265625v36.1875c0 8.433594 6.835938 15.269531 15.269531 15.269531 8.429688 0 15.265625-6.835937 15.265625-15.269531v-20.917969h23.757813l-53.96875 258.402344c-.941407 4.5.195312 9.183594 3.09375 12.75 2.902343 3.570313 7.253906 5.640625 11.851562 5.640625h209.976563c4.597656 0 8.949218-2.070312 11.851562-5.640625 2.898438-3.566406 4.035156-8.25 3.097656-12.75l-53.96875-258.402344h23.753907v21.851563c0 8.433594 6.835937 15.269531 15.269531 15.269531zm-108.234375-188.082031c.320313-1.527344 1.683594-2.636719 3.242187-2.636719 1.5625 0 2.925782 1.109375 3.246094 2.636719l9.644532 46.191406h-25.777344zm-16.023437 76.726562h38.535156l9.125 43.695313h-56.785156zm-51.699219 247.53125 41.390625 24.945313-53.3125 32.132812zm70.964843 42.773438 50.085938 30.1875h-100.167969zm29.578126-17.828125 41.390624-24.945313 11.917969 57.078125zm25.449218-50.992188-55.027344 33.164063-55.023437-33.164063 55.03125-44.75zm-30.820312-64.429687 23.816406-19.371094 9.75 46.671875zm-81.976563 27.304687 9.75-46.691406 23.832031 19.382813zm98.769531-80.320312-40.988281 33.332031-41.003906-33.347656 6.222656-29.789063h69.542969zm0 0"/></svg>
