<svg id="icon" height="511pt" viewBox="-45 0 511 511.99794" width="511pt" xmlns="http://www.w3.org/2000/svg"><path d="m334.074219 298.675781h15.484375c40.097656 0 72.71875-32.621093 72.71875-72.714843s-32.621094-72.714844-72.71875-72.714844h-301.226563c-8.707031 0-15.765625 7.058594-15.765625 15.761718v127.78125c0 48.453126 22.984375 91.632813 58.613282 119.234376h-74.914063c-8.707031 0-15.765625 7.058593-15.765625 15.761718 0 44.230469 35.980469 80.210938 80.210938 80.210938h205.246093c44.230469 0 80.210938-35.980469 80.210938-80.210938 0-8.703125-7.058594-15.761718-15.765625-15.761718h-74.914063c35.164063-27.242188 57.996094-69.664063 58.585938-117.347657zm56.671875-72.714843c0 22.707031-18.476563 41.183593-41.1875 41.183593h-15.460938v-82.367187h15.460938c22.710937 0 41.1875 18.472656 41.1875 41.183594zm-58.726563 221.59375c-6.566406 19.128906-24.734375 32.914062-46.0625 32.914062h-205.246093c-21.328126 0-39.496094-13.785156-46.0625-32.914062zm-267.921875-150.765626v-112.011718h238.46875v112.011718c0 65.746094-53.488281 119.234376-119.234375 119.234376-65.746093 0-119.234375-53.488282-119.234375-119.234376zm0 0"/><path d="m239.339844 121.394531c3.003906 2.671875 6.742187 3.984375 10.46875 3.984375 4.347656 0 8.675781-1.789062 11.789062-5.292968 5.785156-6.503907 5.199219-16.46875-1.308594-22.253907-.03125-.03125-3.3125-3.296875-4.972656-8.300781-2.417968-7.304688-.207031-15.050781 6.765625-23.6875 17.5-21.671875 16.273438-41.011719 12.160157-53.417969-.265626-.796875-.542969-1.570312-.832032-2.328125-4.222656-10.96875-18.539062-13.613281-26.414062-4.890625-3.933594 4.351563-5.253906 10.578125-3.085938 16.03125.25.628907.476563 1.292969.671875 1.988281 1.976563 7.046876-.324219 14.507813-7.03125 22.808594-17.5 21.675782-16.269531 41.011719-12.160156 53.417969 4.265625 12.875 12.367187 20.535156 13.949219 21.941406zm0 0"/><path d="m172.859375 121.394531c3.003906 2.671875 6.742187 3.984375 10.46875 3.984375 4.347656 0 8.675781-1.789062 11.789063-5.292968 5.785156-6.503907 5.199218-16.46875-1.308594-22.257813-.03125-.027344-3.3125-3.292969-4.972656-8.296875-2.421876-7.304688-.207032-15.050781 6.765624-23.6875 17.5-21.671875 16.273438-41.011719 12.160157-53.417969-.265625-.792969-.542969-1.570312-.832031-2.324219-4.21875-10.96875-18.535157-13.617187-26.414063-4.894531-3.933594 4.351563-5.25 10.578125-3.085937 16.03125.25.632813.476562 1.296875.671874 1.988281 1.976563 7.046876-.324218 14.507813-7.03125 22.808594-17.5 21.675782-16.273437 41.011719-12.160156 53.421875 4.265625 12.871094 12.367188 20.53125 13.949219 21.9375zm0 0"/><path d="m106.378906 121.394531c3.003906 2.671875 6.742188 3.984375 10.46875 3.984375 4.34375 0 8.671875-1.789062 11.789063-5.292968 5.785156-6.503907 5.195312-16.46875-1.308594-22.257813-.03125-.027344-3.3125-3.292969-4.972656-8.296875-2.421875-7.304688-.207031-15.050781 6.761719-23.6875 17.503906-21.671875 16.273437-41.011719 12.160156-53.417969-.261719-.792969-.539063-1.570312-.832032-2.324219-4.21875-10.96875-18.535156-13.617187-26.410156-4.894531-3.933594 4.351563-5.253906 10.578125-3.089844 16.03125.25.632813.480469 1.296875.675782 1.988281 1.972656 7.046876-.328125 14.507813-7.03125 22.808594-17.503906 21.675782-16.273438 41.011719-12.160156 53.421875 4.265624 12.871094 12.367187 20.53125 13.949218 21.9375zm0 0"/></svg>
