<svg id="icon" height="512pt" viewBox="0 -81 512.001 512" width="512pt" xmlns="http://www.w3.org/2000/svg"><path d="m496.960938 0h-481.921876c-8.304687 0-15.039062 6.734375-15.039062 15.039062 0 8.304688 6.734375 15.039063 15.039062 15.039063h174.234376c-1.074219 3.695313-1.664063 7.597656-1.664063 11.636719 0 23 18.714844 41.714844 41.714844 41.714844 4.039062 0 7.941406-.589844 11.636719-1.664063v26.273437h-77.394532c-30.996094 0-56.207031 25.214844-56.207031 56.210938v171.558594c0 8.308594 6.730469 15.039062 15.039063 15.039062h267.207031c8.304687 0 15.039062-6.730468 15.039062-15.039062v-171.558594c0-30.996094-25.214843-56.210938-56.207031-56.210938h-77.398438v-26.273437c3.695313 1.074219 7.597657 1.664063 11.636719 1.664063 23 0 41.714844-18.714844 41.714844-41.714844 0-4.039063-.585937-7.941406-1.664063-11.636719h174.234376c8.304687 0 15.039062-6.734375 15.039062-15.039063 0-8.304687-6.734375-15.039062-15.039062-15.039062zm-256 187.472656v43.101563h-38.277344v-43.101563zm68.355468 0v43.101563h-38.277344v-43.101563zm65.246094 0v43.101563h-35.167969v-43.101563zm-201.957031 43.101563h-35.171875v-43.101563h35.171875zm-35.167969 30.078125h103.523438v60.117187h-103.523438zm237.125 60.117187h-103.523438v-60.117187h103.523438zm-.910156-163.375h-235.304688c3.019532-11.09375 13.179688-19.277343 25.214844-19.277343h184.871094c12.039062 0 22.199218 8.183593 25.21875 19.277343zm-144.328125-104.042969c-6.414063 0-11.636719-5.222656-11.636719-11.636718 0-6.414063 5.222656-11.636719 11.636719-11.636719 6.417969 0 11.636719 5.222656 11.636719 11.636719 0 6.414062-5.21875 11.636718-11.636719 11.636718zm64.988281-11.636718c0 6.414062-5.222656 11.636718-11.636719 11.636718-6.417969 0-11.636719-5.222656-11.636719-11.636718 0-6.417969 5.21875-11.636719 11.636719-11.636719 6.414063 0 11.636719 5.21875 11.636719 11.636719zm0 0"/></svg>
