<svg id="icon" height="512pt" viewBox="0 -29 512 512" width="512pt" xmlns="http://www.w3.org/2000/svg"><path d="m512 14.769531c0-8.15625-6.613281-14.769531-14.769531-14.769531h-482.460938c-8.15625 0-14.769531 6.613281-14.769531 14.769531s6.613281 14.769531 14.769531 14.769531h170.484375c-1.988281 5.03125-3.097656 10.511719-3.097656 16.242188 0 24.433594 19.875 44.308594 44.308594 44.308594 5.175781 0 10.144531-.902344 14.765625-2.539063v33.554688h-150.292969c-39.628906 0-71.871094 32.242187-71.871094 71.875v147.121093c0 31.253907 25.425782 56.679688 56.679688 56.679688h.261718v27.203125h-51.566406c-8.15625 0-14.769531 6.613281-14.769531 14.769531s6.613281 14.769532 14.769531 14.769532h464.914063c8.160156 0 14.769531-6.613282 14.769531-14.769532s-6.609375-14.769531-14.769531-14.769531h-51.566407v-27.242187c30.542969-.816407 55.144532-25.898438 55.144532-56.640626v-147.121093c0-39.632813-32.242188-71.875-71.875-71.875h-150.289063v-33.554688c4.621094 1.636719 9.589844 2.539063 14.765625 2.539063 24.433594 0 44.308594-19.875 44.308594-44.308594 0-5.734375-1.109375-11.210938-3.097656-16.242188h170.484375c8.15625 0 14.769531-6.613281 14.769531-14.769531zm-344.824219 192.980469v55.132812h-44.515625v-55.132812zm74.054688 0v55.132812h-44.515625v-55.132812zm74.054687 0v55.132812h-44.515625v-55.132812zm74.054688 0v55.132812h-44.515625v-55.132812zm74.054687 0v55.132812h-44.515625v-55.132812zm-370.273437 55.132812h-44.515625v-55.132812h44.515625zm12.425781 133.898438h81.210937v27.203125h-81.210937zm191.957031 0v27.203125h-81.210937v-27.203125zm29.539063 27.203125v-27.203125h81.207031v27.203125zm109.210937-56.738281h-360.507812c-14.609375 0-26.554688-11.609375-27.113282-26.085938h22.230469c8.15625 0 14.769531-6.613281 14.769531-14.769531s-6.613281-14.769531-14.769531-14.769531h-22.257812v-19.199219h414.789062v19.199219h-22.257812c-8.15625 0-14.769531 6.613281-14.769531 14.769531 0 8.160156 6.613281 14.769531 14.769531 14.769531h22.230469c-.558594 14.476563-12.503907 26.085938-27.113282 26.085938zm24.484375-189.035156h-409.476562c6.007812-16.082032 21.527343-27.566407 39.679687-27.566407h330.121094c18.148438 0 33.667969 11.484375 39.675781 27.566407zm-234.273437-117.660157c-8.144532 0-14.769532-6.625-14.769532-14.769531 0-8.140625 6.625-14.765625 14.769532-14.765625 8.140625 0 14.765625 6.625 14.765625 14.765625 0 8.144531-6.625 14.769531-14.765625 14.769531zm59.070312 0c-8.140625 0-14.765625-6.625-14.765625-14.769531 0-8.140625 6.625-14.765625 14.765625-14.765625 8.144532 0 14.769532 6.625 14.769532 14.765625 0 8.144531-6.625 14.769531-14.769532 14.769531zm0 0"/></svg>
