<svg id="icon" height="512pt" viewBox="-39 0 512 512.00094" width="512pt" xmlns="http://www.w3.org/2000/svg"><path d="m273.394531 318.882812h-113.417969c-88.210937 0-159.976562 71.761719-159.976562 159.972657v17.816406c0 8.464844 6.863281 15.328125 15.328125 15.328125h402.710937c8.464844 0 15.328126-6.863281 15.328126-15.328125v-17.816406c.003906-88.210938-71.761719-159.972657-159.972657-159.972657zm-72.039062 162.460938h-170.699219v-2.488281c0-71.308594 58.011719-129.320313 129.320312-129.320313h41.382813v131.808594zm201.359375 0h-170.703125v-131.808594h41.382812c71.304688 0 129.320313 58.015625 129.320313 129.320313zm0 0"/><path d="m330.8125 374.78125h-61.3125c-8.464844 0-15.324219 6.863281-15.324219 15.328125v40.875c0 4.183594 1.710938 8.1875 4.738281 11.082031l30.652344 29.289063c2.964844 2.832031 6.777344 4.246093 10.589844 4.246093s7.628906-1.414062 10.589844-4.246093l30.65625-29.289063c3.023437-2.894531 4.738281-6.898437 4.738281-11.082031v-40.875c0-8.464844-6.863281-15.328125-15.328125-15.328125zm-15.328125 49.648438-15.328125 14.644531-15.328125-14.644531v-18.992188h30.65625zm0 0"/><path d="m85.457031 107.339844c3.070313 13.015625 6.140625 26.027344 9.210938 39.042968.503906 2.148438 1.582031 4.09375 3.015625 5.75.046875.058594.101562.109376.152344.164063.183593.210937.371093.417969.566406.613281.121094.125.226562.257813.351562.378906 3.867188 3.765626 8.003906 7.257813 12.386719 10.488282-1.5 7.152344-2.289063 14.558594-2.289063 22.144531 0 59.460937 48.375 107.835937 107.832032 107.835937 59.460937 0 107.835937-48.375 107.835937-107.835937 0-7.585937-.792969-14.992187-2.289062-22.144531 4.253906-3.136719 8.273437-6.523438 12.042969-10.164063 1.621093-1.398437 2.933593-3.15625 3.777343-5.234375.0625-.140625.121094-.28125.179688-.425781.011719-.03125.023437-.0625.035156-.09375.425781-1.046875 5.980469-24.96875 8.539063-35.8125 2.289062-9.707031 8.609374-24.808594 3.113281-34.105469-5.03125-8.519531-11.824219-16.371094-18.457031-23.65625-11.957032-13.125-25.917969-24.777344-41.171876-33.886718-41.148437-24.570313-90.738281-27.03125-134.152343-6.910157-28.585938 13.246094-53.253907 35.980469-70.976563 61.882813-3.25 4.75-4.878906 9.171875-3.601562 15.433594 1.125 5.542968 2.601562 11.035156 3.898437 16.535156zm208.40625 78.585937c0 42.554688-34.621093 77.175781-77.175781 77.175781-42.558594 0-77.179688-34.621093-77.179688-77.175781 0-2.105469.105469-4.183593.273438-6.25 21.648438 8.800781 47.347656 13.246094 76.90625 13.246094 29.554688 0 55.253906-4.445313 76.902344-13.246094.164062 2.066407.273437 4.144531.273437 6.25zm-159.898437-43.617187c20.503906-13.257813 48.234375-19.957032 82.71875-19.957032 34.488281 0 62.21875 6.703126 82.722656 19.957032-20.503906 13.257812-48.234375 19.957031-82.722656 19.957031-34.488282 0-62.214844-6.699219-82.71875-19.957031zm82.648437-112.03125c69.8125 0 104.070313 59.039062 104.070313 59.039062s-4.128906 17.503906-6.191406 26.253906c-25.308594-15.855468-58.078126-23.875-97.808594-23.875-39.726563 0-72.496094 8.019532-97.804688 23.875-2.0625-8.753906-6.195312-26.253906-6.195312-26.253906s34.117187-59.039062 103.929687-59.039062zm0 0"/><path d="m216.683594 77.9375c8.019531 0 15.699218-7.050781 15.328125-15.328125-.371094-8.304687-6.734375-15.328125-15.328125-15.328125-8.015625 0-15.695313 7.050781-15.328125 15.328125.375 8.304687 6.738281 15.328125 15.328125 15.328125zm0 0"/></svg>
