<svg id="icon" height="511pt" viewBox="-15 1 511 511.99899" width="511pt" xmlns="http://www.w3.org/2000/svg"><path d="m480.289062 259.789062-62.707031-202.320312c-1.972656-6.351562-7.847656-10.683594-14.5-10.683594h-117.125v-1.578125c0-24.925781-20.28125-45.207031-45.210937-45.207031-24.925782 0-45.207032 20.28125-45.207032 45.207031v1.582031h-117.121093c-6.652344 0-12.527344 4.328126-14.496094 10.683594l-62.710937 202.324219c-.460938 1.445313-.710938 2.988281-.710938 4.589844v7.367187c0 42.964844 34.953125 77.917969 77.917969 77.917969 42.964843 0 77.921875-34.953125 77.921875-77.917969v-7.367187c0-1.601563-.253906-3.140625-.710938-4.589844l-56.613281-182.65625h96.523437v356.925781h-69.539062c-34.605469 0-62.757812 28.148438-62.757812 62.753906 0 8.382813 6.796874 15.179688 15.175781 15.179688h324.664062c8.382813 0 15.179688-6.796875 15.179688-15.179688 0-34.605468-28.152344-62.753906-62.757813-62.753906h-69.546875v-356.925781h96.53125l-56.609375 182.644531c-.460937 1.453125-.714844 2.996094-.714844 4.597656v7.367188c0 42.96875 34.953126 77.921875 77.921876 77.921875 42.964843 0 77.917968-34.953125 77.917968-77.921875v-7.367188c0-1.601562-.253906-3.144531-.714844-4.59375zm-401.871093 59.527344c-23.566407 0-43.1875-17.226562-46.921875-39.753906h93.847656c-3.738281 22.527344-23.355469 39.753906-46.925781 39.753906zm-42.144531-70.109375 42.144531-135.976562 42.148437 135.976562zm189.621093-204c0-8.1875 6.664063-14.851562 14.851563-14.851562 8.191406 0 14.855468 6.664062 14.855468 14.851562v1.582031h-29.707031zm158.230469 436.4375h-286.75c5.453125-10.238281 16.238281-17.222656 28.621094-17.222656h229.507812c12.386719 0 23.167969 6.984375 28.621094 17.222656zm-128.523438-47.578125h-29.707031v-356.925781h29.707031zm147.480469-320.835937 42.148438 135.976562h-84.296875zm0 206.085937c-23.566406 0-43.1875-17.226562-46.921875-39.753906h93.84375c-3.734375 22.527344-23.351562 39.753906-46.921875 39.753906zm0 0"/></svg>
