<svg id="icon" height="512pt" viewBox="0 -72 512 512" width="512pt" xmlns="http://www.w3.org/2000/svg"><path d="m445.214844 159.535156h-25.90625l-46.445313-95.671875c-2.535156-5.230469-7.839843-8.550781-13.652343-8.550781h-33.050782v-13.824219c0-22.875-18.613281-41.488281-41.492187-41.488281h-57.335938c-22.878906 0-41.492187 18.613281-41.492187 41.488281v13.824219h-33.050782c-5.8125 0-11.117187 3.320312-13.652343 8.550781l-46.445313 95.671875h-25.90625c-36.828125 0-66.785156 29.957032-66.785156 66.785156v49.28125c0 23.273438 18.933594 42.210938 42.210938 42.210938h20.28125c6.847656 28.304688 32.378906 49.394531 62.757812 49.394531s55.90625-21.089843 62.753906-49.394531h135.996094c6.847656 28.304688 32.378906 49.394531 62.757812 49.394531 30.378907 0 55.90625-21.089843 62.753907-49.394531h20.277343c23.277344 0 42.210938-18.9375 42.210938-42.210938v-49.28125c0-36.828124-29.960938-66.785156-66.785156-66.785156zm-59.648438 0h-114.390625v-73.867187h78.53125zm-169.371094-118.046875c0-6.136719 4.996094-11.132812 11.136719-11.132812h57.335938c6.140625 0 11.136719 4.996093 11.136719 11.132812v13.824219h-79.609376zm-53.902343 44.179688h78.53125v73.867187h-114.390625zm-131.9375 189.933593v-49.28125c0-20.089843 16.339843-36.429687 36.429687-36.429687h174.039063v97.566406h-52.820313c-6.847656-28.304687-32.375-49.398437-62.753906-49.398437s-55.910156 21.09375-62.757812 49.398437h-20.28125c-6.539063 0-11.855469-5.320312-11.855469-11.855469zm129.113281 27.03125c0 18.867188-15.351562 34.21875-34.21875 34.21875s-34.21875-15.351562-34.21875-34.21875c0-18.867187 15.351562-34.21875 34.21875-34.21875s34.21875 15.351563 34.21875 34.21875zm261.507812 0c0 18.867188-15.351562 34.21875-34.21875 34.21875-18.867187 0-34.21875-15.351562-34.21875-34.21875 0-18.867187 15.351563-34.21875 34.21875-34.21875 18.867188 0 34.21875 15.351563 34.21875 34.21875zm60.667969-27.03125c0 6.535157-5.316406 11.855469-11.855469 11.855469h-20.277343c-6.847657-28.304687-32.375-49.398437-62.753907-49.398437-30.378906 0-55.910156 21.09375-62.757812 49.398437h-52.824219v-97.566406h174.039063c20.085937 0 36.429687 16.339844 36.429687 36.429687zm0 0"/></svg>
