<svg id="icon" height="512pt" viewBox="-50 0 511 512" width="512pt" xmlns="http://www.w3.org/2000/svg"><path d="m205.867188 392.9375c45.039062 0 81.683593-36.644531 81.683593-81.6875 0-45.039062-36.644531-81.683594-81.683593-81.683594-45.042969 0-81.6875 36.644532-81.6875 81.683594 0 45.042969 36.644531 81.6875 81.6875 81.6875zm0-133.3125c28.464843 0 51.625 23.160156 51.625 51.625 0 28.46875-23.160157 51.625-51.625 51.625-28.46875 0-51.625-23.15625-51.625-51.625 0-28.464844 23.15625-51.625 51.625-51.625zm0 0"/><path d="m205.867188 349.503906c21.09375 0 38.253906-17.160156 38.253906-38.253906s-17.160156-38.253906-38.253906-38.253906-38.253907 17.160156-38.253907 38.253906 17.160157 38.253906 38.253907 38.253906zm0-46.445312c4.519531 0 8.195312 3.675781 8.195312 8.191406 0 4.519531-3.675781 8.195312-8.195312 8.195312-4.519532 0-8.195313-3.675781-8.195313-8.195312 0-4.515625 3.675781-8.191406 8.195313-8.191406zm0 0"/><path d="m396.203125 254.285156h-28.371094v-9.6875c0-8.300781-6.730469-15.03125-15.03125-15.03125h-28.375v-36.207031h.464844c8.300781 0 15.03125-6.726563 15.03125-15.027344 0-35.796875-13.945313-69.457031-39.261719-94.789062-15.828125-15.828125-34.914062-27.207031-55.746094-33.515625v-34.996094c0-8.300781-6.730468-15.03125-15.03125-15.03125h-48.027343c-8.300781 0-15.027344 6.730469-15.027344 15.03125v35.054688c-54.9375 16.753906-95.019531 67.90625-95.019531 128.246093 0 8.300781 6.730468 15.027344 15.027344 15.027344h.464843v36.207031h-28.371093c-8.300782 0-15.027344 6.730469-15.027344 15.03125v9.6875h-28.371094c-8.300781 0-15.03125 6.730469-15.03125 15.027344v83.875c0 8.300781 6.730469 15.03125 15.03125 15.03125h28.371094v9.6875c0 8.300781 6.726562 15.03125 15.027344 15.03125h28.371093v38.792969c-25.078125 7.558593-43.398437 30.863281-43.398437 58.371093v6.867188c0 8.300781 6.726562 15.03125 15.027344 15.03125h293.871093c8.300781 0 15.027344-6.730469 15.027344-15.03125v-6.867188c0-27.511718-18.324219-50.8125-43.402344-58.371093v-38.792969h28.375c8.300781 0 15.027344-6.730469 15.027344-15.03125v-9.6875h28.371094c8.300781 0 15.03125-6.730469 15.03125-15.03125v-83.875c0-8.296875-6.726563-15.027344-15.027344-15.027344zm-190.332031-179.945312c27.777344 0 53.890625 10.816406 73.53125 30.453125 16.050781 16.0625 26.210937 36.441406 29.386718 58.511719h-205.839843c7.304687-50.246094 50.675781-88.964844 102.921875-88.964844zm88.496094 119.019531v235.78125h-177.007813v-51.183594c0-.019531 0-.035156 0-.050781v-133.308594c0-.019531 0-.035156 0-.050781v-51.183594h177.007813zm-97.480469-163.300781h17.96875v14.527344c-2.980469-.195313-5.972657-.304688-8.988281-.304688-3.019532 0-6.011719.113281-8.980469.308594zm-166.328125 308.101562v-53.816406h13.34375v53.816406zm43.402344 24.71875v-103.253906h13.339843v103.253906zm262.71875 119.0625h-261.625c3.585937-13.089844 15.589843-22.738281 29.804687-22.738281h202.011719c14.214844 0 26.21875 9.648437 29.808594 22.738281zm1.09375-119.0625h-13.34375v-103.253906h13.34375zm43.398437-24.71875h-13.339844v-53.816406h13.339844zm0 0"/></svg>
