<svg id="icon" enable-background="new 0 0 24 24" height="512" viewBox="0 0 24 24" width="512" xmlns="http://www.w3.org/2000/svg"><path d="m18.293 21.708c-.391-.39-.391-1.023-.001-1.414 1.721-1.724 2.708-4.334 2.708-7.16 0-1.318-.218-2.596-.647-3.797-.186-.52.085-1.092.605-1.278.521-.184 1.092.085 1.278.605.507 1.418.764 2.921.764 4.47 0 3.353-1.2 6.477-3.292 8.573-.387.387-1.021.394-1.415.001z" fill="#607d8b"/><path d="m22 14h-3c-.552 0-1-.448-1-1s.448-1 1-1h3c.552 0 1 .448 1 1s-.448 1-1 1z" fill="#607d8b"/><path d="m13.25 24h-2.5c-1.517 0-2.75-1.233-2.75-2.75v-9.5c0-1.517 1.233-2.75 2.75-2.75h2.5c1.517 0 2.75 1.233 2.75 2.75v9.5c0 1.517-1.233 2.75-2.75 2.75z" fill="#00bcd4"/><path d="m12 15c-.552 0-1-.448-1-1v-1c0-.552.448-1 1-1s1 .448 1 1v1c0 .552-.448 1-1 1z" fill="#fff"/><path d="m12 21c-.552 0-1-.448-1-1v-2c0-.552.448-1 1-1s1 .448 1 1v2c0 .552-.448 1-1 1z" fill="#fff"/><path d="m4.292 21.707c-2.092-2.096-3.292-5.221-3.292-8.573 0-1.548.257-3.052.763-4.47.187-.52.759-.789 1.278-.605.52.186.791.758.605 1.278-.428 1.201-.646 2.478-.646 3.797 0 2.827.987 5.436 2.708 7.16.39.391.39 1.024-.001 1.414-.39.388-1.023.391-1.415-.001z" fill="#607d8b"/><path d="m5 14h-3c-.552 0-1-.448-1-1s.448-1 1-1h3c.552 0 1 .448 1 1s-.448 1-1 1z" fill="#607d8b"/><path d="m12 9h-1.25c-1.517 0-2.75 1.233-2.75 2.75v9.5c0 1.517 1.233 2.75 2.75 2.75h1.25v-3c-.552 0-1-.448-1-1v-2c0-.552.448-1 1-1v-2c-.552 0-1-.448-1-1v-1c0-.552.448-1 1-1z" fill="#00a4b9"/><path d="m12 12c-.552 0-1 .448-1 1v1c0 .552.448 1 1 1z" fill="#dedede"/><path d="m12 17c-.552 0-1 .448-1 1v2c0 .552.448 1 1 1z" fill="#dedede"/><path d="m1 13.028v.105c0 3.353 1.2 6.477 3.292 8.573.196.197.452.294.707.294.256 0 .512-.098.707-.292.391-.39.391-1.023.001-1.414-1.543-1.547-2.496-3.805-2.676-6.294h-1.031c-.543 0-.985-.432-1-.972zm1.707-5.028c-.411 0-.797.254-.944.664-.486 1.362-.743 2.803-.762 4.287.026-.53.463-.951.999-.951h1.055c.089-.918.287-1.81.592-2.664.186-.52-.085-1.092-.605-1.278-.111-.039-.224-.058-.335-.058z" fill="#546d79"/><path d="m5 12h-1.945-1.055c-.536 0-.973.421-.999.951-.001.016-.001.032-.001.049v.028c.015.54.457.972 1 .972h1.031 1.969c.552 0 1-.448 1-1s-.448-1-1-1z" fill="#546d79"/><g fill="#00bcd4"><path d="m18.25 7h-.5c-.965 0-1.75-.785-1.75-1.75v-3.5c0-.965.785-1.75 1.75-1.75h.5c.965 0 1.75.785 1.75 1.75v3.5c0 .965-.785 1.75-1.75 1.75zm-.5-5.5c-.138 0-.25.112-.25.25v3.5c0 .138.112.25.25.25h.5c.138 0 .25-.112.25-.25v-3.5c0-.138-.112-.25-.25-.25z"/><path d="m6.25 7h-1.5c-.414 0-.75-.336-.75-.75s.336-.75.75-.75h1.5c.138 0 .25-.112.25-.25v-.75c0-.138-.112-.25-.25-.25h-1.5c-.414 0-.75-.336-.75-.75s.336-.75.75-.75h1.5c.965 0 1.75.785 1.75 1.75v.75c0 .965-.785 1.75-1.75 1.75z"/><path d="m6.25 4.25h-1.5c-.414 0-.75-.336-.75-.75s.336-.75.75-.75h1.5c.138 0 .25-.112.25-.25v-.75c0-.138-.112-.25-.25-.25h-1.5c-.414 0-.75-.336-.75-.75s.336-.75.75-.75h1.5c.965 0 1.75.785 1.75 1.75v.75c0 .965-.785 1.75-1.75 1.75z"/><path d="m12.25 7h-.5c-.965 0-1.75-.785-1.75-1.75v-3.5c0-.965.785-1.75 1.75-1.75h1.5c.414 0 .75.336.75.75s-.336.75-.75.75h-1.5c-.138 0-.25.112-.25.25v1h.75c.965 0 1.75.785 1.75 1.75v.75c0 .965-.785 1.75-1.75 1.75zm-.75-2.75v1c0 .138.112.25.25.25h.5c.138 0 .25-.112.25-.25v-.75c0-.138-.112-.25-.25-.25z"/></g><path d="m20 3.5h-1.5v1.75c0 .138-.112.25-.25.25h-.5c-.138 0-.25-.112-.25-.25v-1.75h-1.5v1.75c0 .965.785 1.75 1.75 1.75h.5c.965 0 1.75-.785 1.75-1.75z" fill="#00a4b9"/><path d="m4 3.5c0 .414.336.75.75.75h1.5c.138 0 .25.112.25.25v.75c0 .138-.112.25-.25.25h-1.5c-.414 0-.75.336-.75.75s.336.75.75.75h1.5c.965 0 1.75-.785 1.75-1.75v-.75c0-.371-.116-.716-.315-1-.316.453-.842.75-1.435.75h-1.5c-.414 0-.75-.336-.75-.75z" fill="#00a4b9"/><path d="m7.685 3.5h-3.685c0 .414.336.75.75.75h1.5c.593 0 1.119-.297 1.435-.75z" fill="#00a4b9"/><path d="m11.75 5.5c-.138 0-.25-.112-.25-.25v-1h.75c.138 0 .25.112.25.25v.75c0 .138-.112.25-.25.25zm1.935-2h-3.685v1.75c0 .965.785 1.75 1.75 1.75h.5c.965 0 1.75-.785 1.75-1.75v-.75c0-.371-.116-.716-.315-1z" fill="#00a4b9"/></svg>
