<svg id="icon" enable-background="new 0 0 24 24" height="512" viewBox="0 0 24 24" width="512" xmlns="http://www.w3.org/2000/svg"><path d="m21.25 16.25c-.414 0-.75-.336-.75-.75v-1.75c0-.138-.112-.25-.25-.25h-8.5c-.138 0-.25.112-.25.25v1.75c0 .414-.336.75-.75.75s-.75-.336-.75-.75v-1.75c0-.965.785-1.75 1.75-1.75h8.5c.965 0 1.75.785 1.75 1.75v1.75c0 .414-.336.75-.75.75z" fill="#90a4ae"/><path d="m22.25 15h-12.5c-.96 0-1.75.79-1.75 1.75v5.5c0 .96.79 1.75 1.75 1.75h3.28c.52 0 1.01-.23 1.35-.63l1.43-1.72c.131-.15.25-.15.381 0l1.43 1.72c.34.4.83.63 1.35.63h3.28c.96 0 1.75-.79 1.75-1.75v-5.5c-.001-.96-.791-1.75-1.751-1.75z" fill="#00bcd4"/><path d="m16 12h-4.25c-.965 0-1.75.785-1.75 1.75v1.25h1.5v-1.25c0-.138.112-.25.25-.25h4.25z" fill="#7d8f97"/><path d="m16 15h-4.5-1.5-.25c-.96 0-1.75.79-1.75 1.75v5.5c0 .96.79 1.75 1.75 1.75h3.28c.52 0 1.01-.23 1.35-.63l1.43-1.72c.065-.075.128-.112.19-.112z" fill="#00a4b9"/><path d="m5 0 5 2.231-5 2.269-5-2.269z" fill="#ffc107"/><path d="m0 2.25 5 2.231v5.519l-5-2.269z" fill="#ffd54f"/><path d="m10 2.25-5 2.231v5.519l5-2.269z" fill="#ffca28"/><path d="m5 0-5 2.231 2.5 1.134 2.5 1.116v.019-.019z" fill="#dea806"/><path d="m0 2.25v5.481l5 2.269v-5.5-.019l-2.5-1.116z" fill="#deb945"/><path d="m24 18.5v1.5h-3.25c-.41 0-.75-.34-.75-.75s.34-.75.75-.75z" fill="#0097a7"/><path d="m12 19.25c0 .41-.34.75-.75.75h-3.25v-1.5h3.25c.41 0 .75.34.75.75z" fill="#0097a7"/><path d="m24 19.25h-4c0 .41.34.75.75.75h3.25z" fill="#008391"/><path d="m12 19.25h-4v.75h3.25c.41 0 .75-.34.75-.75z" fill="#008391"/><path d="m18.443 7.465c-.115-.281-.388-.465-.693-.465h-.75v-1.25c0-.965-.785-1.75-1.75-1.75h-2.5c-.414 0-.75.336-.75.75s.336.75.75.75h2.5c.138 0 .25.112.25.25v1.25h-.75c-.303 0-.575.182-.692.461-.116.279-.054.601.158.816l1.48 1.5c.14.142.33.222.529.223h.005c.197 0 .387-.078.527-.216l1.52-1.5c.216-.214.283-.537.166-.819z" fill="#607d8b"/><path d="m15.25 4.75h-3.25c0 .414.336.75.75.75h2.5c.138 0 .25.112.25.25v1.25h-.75c-.303 0-.575.182-.692.461-.116.279-.054.601.158.816l1.48 1.5c.14.142.33.222.529.223h.005.02v-4.25c0-.552-.447-1-1-1z" fill="#546d79"/></svg>
