<svg id="icon" enable-background="new 0 0 24 24" height="512" viewBox="0 0 24 24" width="512" xmlns="http://www.w3.org/2000/svg"><path d="m4 11.5c-.552 0-1-.448-1-1v-3.5c0-.552.448-1 1-1s1 .448 1 1v3.5c0 .552-.448 1-1 1z" fill="#607d8b"/><path d="m20 11.5c-.552 0-1-.448-1-1v-3.5c0-.552.448-1 1-1s1 .448 1 1v3.5c0 .552-.448 1-1 1z" fill="#607d8b"/><path d="m21.25 24h-5.514c-1.048 0-1.99-.583-2.459-1.52l-.158-.317c-.216-.432-.634-.69-1.118-.69s-.902.258-1.118.691l-.158.316c-.471.937-1.413 1.52-2.461 1.52h-5.514c-1.517 0-2.75-1.233-2.75-2.75v-8.5c0-1.517 1.233-2.75 2.75-2.75h18.5c1.517 0 2.75 1.233 2.75 2.75v8.5c0 1.517-1.233 2.75-2.75 2.75z" fill="#00bcd4"/><path d="m12 10h-7-2-.25c-1.517 0-2.75 1.233-2.75 2.75v8.5c0 1.517 1.233 2.75 2.75 2.75h5.514c1.048 0 1.99-.583 2.459-1.521l.158-.316c.216-.433.634-.691 1.118-.691v-11.472z" fill="#00a4b9"/><path d="m12 0 5 2.231-5 2.269-5-2.269z" fill="#ffc107"/><path d="m7 2.25 5 2.231v5.519l-5-2.269z" fill="#ffd54f"/><path d="m17 2.25-5 2.231v5.519l5-2.269z" fill="#ffca28"/><path d="m4 6c-.552 0-1 .448-1 1v3h2v-3c0-.552-.448-1-1-1z" fill="#546d79"/><path d="m12 0-5 2.231 2.502 1.135 2.498 1.115v.019-.019z" fill="#dea806"/><path d="m7 2.25v5.481l5 2.269v-5.5-.019l-2.498-1.115z" fill="#deb945"/><path d="m8.25 20h-3.5c-.965 0-1.75-.785-1.75-1.75v-3.5c0-.965.785-1.75 1.75-1.75h3.5c.965 0 1.75.785 1.75 1.75v3.5c0 .965-.785 1.75-1.75 1.75z" fill="#fff"/><path d="m19.25 20h-3.5c-.965 0-1.75-.785-1.75-1.75v-3.5c0-.965.785-1.75 1.75-1.75h3.5c.965 0 1.75.785 1.75 1.75v3.5c0 .965-.785 1.75-1.75 1.75z" fill="#fff"/><g fill="#dedede"><path d="m6.5 13h-1.75c-.965 0-1.75.785-1.75 1.75v3.5c0 .965.785 1.75 1.75 1.75h1.75z"/><path d="m17.5 13h-1.75c-.965 0-1.75.785-1.75 1.75v3.5c0 .965.785 1.75 1.75 1.75h1.75z"/></g></svg>
