<svg id="icon" enable-background="new 0 0 24 24" height="512" viewBox="0 0 24 24" width="512" xmlns="http://www.w3.org/2000/svg"><path d="m16 22h-2v-2h-4v2h-2c-.552 0-1 .448-1 1s.448 1 1 1h8c.553 0 1-.448 1-1s-.447-1-1-1z" fill="#90a4ae"/><path d="m22.25 4h-20.5c-.965 0-1.75.785-1.75 1.75v12.5c0 .965.785 1.75 1.75 1.75h20.5c.965 0 1.75-.785 1.75-1.75v-12.5c0-.965-.785-1.75-1.75-1.75z" fill="#607d8b"/><path d="m22 18h-20v-12h20z" fill="#fff"/><path d="m12 20h-2v2h-2c-.552 0-1 .448-1 1s.448 1 1 1h4z" fill="#7d8f97"/><path d="m12 4h-10.25c-.965 0-1.75.785-1.75 1.75v12.5c0 .965.785 1.75 1.75 1.75h10.25v-2h-10v-12h10z" fill="#546d79"/><path d="m12 6h-10v12h10z" fill="#dedede"/><path d="m17.25 4.25c-.414 0-.75-.336-.75-.75v-1.75c0-.138-.112-.25-.25-.25h-8.5c-.138 0-.25.112-.25.25v1.75c0 .414-.336.75-.75.75s-.75-.336-.75-.75v-1.75c0-.965.785-1.75 1.75-1.75h8.5c.965 0 1.75.785 1.75 1.75v1.75c0 .414-.336.75-.75.75z" fill="#90a4ae"/><path d="m18.25 3h-12.5c-.96 0-1.75.79-1.75 1.75v5.5c0 .96.79 1.75 1.75 1.75h3.28c.52 0 1.01-.23 1.35-.63l1.43-1.72c.13-.15.25-.15.38 0l1.43 1.72c.34.4.83.63 1.35.63h3.28c.96 0 1.75-.79 1.75-1.75v-5.5c0-.96-.79-1.75-1.75-1.75z" fill="#00bcd4"/><path d="m12 0h-4.25c-.965 0-1.75.785-1.75 1.75v1.25h1.5v-1.25c0-.138.112-.25.25-.25h4.25z" fill="#7d8f97"/><path d="m12 3h-4.5-1.5-.25c-.96 0-1.75.79-1.75 1.75v5.5c0 .96.79 1.75 1.75 1.75h3.28c.52 0 1.01-.23 1.35-.63l1.43-1.72c.065-.075.127-.112.19-.112z" fill="#00a4b9"/><path d="m20 6.5v1.5h-3.25c-.41 0-.75-.34-.75-.75s.34-.75.75-.75z" fill="#0097a7"/><path d="m8 7.25c0 .41-.34.75-.75.75h-3.25v-1.5h3.25c.41 0 .75.34.75.75z" fill="#0097a7"/><g fill="#008391"><path d="m20 7.25h-4c0 .41.34.75.75.75h3.25z"/><path d="m8 7.25h-4v.75h3.25c.41 0 .75-.34.75-.75z"/></g></svg>
