<svg id="icon" enable-background="new 0 0 24 24" height="512" viewBox="0 0 24 24" width="512" xmlns="http://www.w3.org/2000/svg"><path d="m15.854 23.146c-1.313-1.313-1.353-2.586-1.354-2.649-.002-.275-.225-.497-.5-.497h-4.02c-.276 0-.5.227-.5.503 0 .054-.018 1.328-1.334 2.644-.313.313-.091.853.354.853h7c.445 0 .667-.539.354-.854z" fill="#90a4ae"/><path d="m22.25 4h-20.5c-.965 0-1.75.785-1.75 1.75v13.5c0 .965.785 1.75 1.75 1.75h20.5c.965 0 1.75-.785 1.75-1.75v-13.5c0-.965-.785-1.75-1.75-1.75z" fill="#607d8b"/><path d="m22 17h-20v-11h20z" fill="#fff"/><path d="m12 21h-2.591c-.118.501-.431 1.315-1.262 2.146-.314.314-.092.854.353.854h3.5z" fill="#7d8f97"/><path d="m12 4h-10.25c-.965 0-1.75.785-1.75 1.75v13.5c0 .965.785 1.75 1.75 1.75h7.659 2.591v-4h-10v-11h10z" fill="#546d79"/><path d="m12 6h-10v11h10z" fill="#dedede"/><path d="m17.25 4.25c-.414 0-.75-.336-.75-.75v-1.75c0-.138-.112-.25-.25-.25h-8.5c-.138 0-.25.112-.25.25v1.75c0 .414-.336.75-.75.75s-.75-.336-.75-.75v-1.75c0-.965.785-1.75 1.75-1.75h8.5c.965 0 1.75.785 1.75 1.75v1.75c0 .414-.336.75-.75.75z" fill="#90a4ae"/><path d="m18.25 3h-12.5c-.96 0-1.75.79-1.75 1.75v5.5c0 .96.79 1.75 1.75 1.75h3.28c.52 0 1.01-.23 1.35-.63l1.43-1.72c.13-.15.25-.15.38 0l1.43 1.72c.34.4.83.63 1.35.63h3.28c.96 0 1.75-.79 1.75-1.75v-5.5c0-.96-.79-1.75-1.75-1.75z" fill="#00bcd4"/><path d="m12 0h-4.25c-.965 0-1.75.785-1.75 1.75v1.25h1.5v-1.25c0-.138.112-.25.25-.25h4.25z" fill="#7d8f97"/><path d="m12 3h-4.5-1.5-.25c-.96 0-1.75.79-1.75 1.75v5.5c0 .96.79 1.75 1.75 1.75h3.28c.52 0 1.01-.23 1.35-.63l1.43-1.72c.065-.075.127-.112.19-.112z" fill="#00a4b9"/><path d="m20 6.5v1.5h-3.25c-.41 0-.75-.34-.75-.75s.34-.75.75-.75z" fill="#0097a7"/><path d="m8 7.25c0 .41-.34.75-.75.75h-3.25v-1.5h3.25c.41 0 .75.34.75.75z" fill="#0097a7"/><g fill="#008391"><path d="m20 7.25h-4c0 .41.34.75.75.75h3.25z"/><path d="m8 7.25h-4v.75h3.25c.41 0 .75-.34.75-.75z"/></g></svg>
