<svg id="icon" enable-background="new 0 0 24 24" height="512" viewBox="0 0 24 24" width="512" xmlns="http://www.w3.org/2000/svg"><path d="m5.05 8.35-1.05.8-1.03.78c-1.86 1.41-2.97 3.64-2.97 5.97v7.6c0 .21.12.39.3.46.06.03.13.04.2.04h8c.28 0 .5-.22.5-.5v-1.54c1.08-.18 1.97-.94 2.33-1.96.11-.31.17-.65.17-1v-10.64c-.209-.001-6.242-.036-6.45-.01z" fill="#ffcc80"/><path d="m11.5 16v3c0 .35-.06.69-.17 1-.36 1.02-1.25 1.78-2.33 1.96v1.54c0 .28-.22.5-.5.5h-7.5l1.5-7.412z" fill="#ffa726"/><path d="m6 10.016-1.582 1.574c-.908.903-1.424 2.129-1.434 3.41h3.016z" fill="#ffa726"/><path d="m22 17c1.104 0 2-.896 2-2v-8c0-1.104-.896-2-2-2h-15c-1.104 0-2 .896-2 2v8c0 1.104.896 2 2 2z" fill="#607d8b"/><path d="m22 7.75c0 .415-.336.75-.75.75s-.75.336-.75.75v3.5c0 .414.336.75.75.75s.75.336.75.75-.336.75-.75.75h-13.25c-.552 0-1-.448-1-1v-6c0-.552.448-1 1-1h13.25c.414 0 .75.336.75.75z" fill="#fff"/><path d="m24 11h-3.5v1.75c0 .414.336.75.75.75s.75.336.75.75-.336.75-.75.75h-13.25c-.552 0-1-.448-1-1v-3h-2v4c0 1.104.896 2 2 2h15c1.104 0 2-.896 2-2z" fill="#546d79"/><path d="m20.5 11h-13.5v3c0 .552.448 1 1 1h13.25c.414 0 .75-.336.75-.75s-.336-.75-.75-.75-.75-.336-.75-.75z" fill="#dedede"/><path d="m9.32 12.68-1.82 1.82c.24.49.36 1.01.36 1.53 0 .79-.27 1.56-.8 2.19l-1.56 1.87v3.91h-5c-.07 0-.14-.01-.2-.04-.18-.07-.3-.25-.3-.46v-6.19l8.63-8c.2-.18.5-.18.69.01.47.46.7 1.07.7 1.68s-.23 1.22-.7 1.68z" fill="#ffcc80"/><path d="m19 0 5 2.231-5 2.269-5-2.269z" fill="#ffc107"/><path d="m14 2.25 5 2.231v5.519l-5-2.269z" fill="#ffd54f"/><path d="m24 2.25-5 2.231v5.519l5-2.269z" fill="#ffca28"/><path d="m19 0-5 2.231 2.5 1.134 2.5 1.116v.019z" fill="#dea806"/><path d="m14 2.25v5.481l5 2.269v-5.5-.019l-2.5-1.116z" fill="#deb945"/></svg>
