<svg id="icon" enable-background="new 0 0 24 24" height="512" viewBox="0 0 24 24" width="512" xmlns="http://www.w3.org/2000/svg"><g fill="#90a4ae"><path d="m5.75 16.5c-.414 0-.75-.336-.75-.75v-2c0-.965.785-1.75 1.75-1.75h.5c.414 0 .75.336.75.75s-.336.75-.75.75h-.5c-.138 0-.25.112-.25.25v2c0 .414-.336.75-.75.75z"/><path d="m18.25 16.5c-.414 0-.75-.336-.75-.75v-2c0-.138-.112-.25-.25-.25h-.5c-.414 0-.75-.336-.75-.75s.336-.75.75-.75h.5c.965 0 1.75.785 1.75 1.75v2c0 .414-.336.75-.75.75z"/><path d="m21 9v-7c0-1.104-.896-2-2-2h-14c-1.105 0-2 .896-2 2v7c0 1.105.895 2 2 2h14c1.104 0 2-.895 2-2z"/></g><path d="m19 3v5c0 .551-.448 1-1 1h-11.5v-7h11.5c.552 0 1 .449 1 1z" fill="#fafafa"/><path d="m19.25 15h-14.5c-.96 0-1.75.79-1.75 1.75v5.5c0 .96.79 1.75 1.75 1.75h4.28c.52 0 1.01-.23 1.35-.63l1.43-1.72c.131-.15.25-.15.381 0l1.43 1.72c.34.4.83.63 1.35.63h4.28c.96 0 1.75-.79 1.75-1.75v-5.5c-.001-.96-.791-1.75-1.751-1.75z" fill="#00bcd4"/><path d="m14.936 13.458c-.121-.271-.39-.445-.686-.445h-1.25v-5.027c0-.552-.447-1-1-1s-1 .448-1 1v5.027h-1.25c-.296 0-.564.174-.686.445-.12.271-.07.587.128.807l2.25 2.5c.143.158.345.248.558.248s.415-.09.558-.248l2.25-2.5c.198-.22.248-.536.128-.807z" fill="#607d8b"/><path d="m7.25 12h-.5c-.965 0-1.75.785-1.75 1.75v1.25h1.5v-1.25c0-.138.112-.25.25-.25h.5c.414 0 .75-.336.75-.75s-.336-.75-.75-.75z" fill="#7d8f97"/><path d="m12 0h-7c-1.105 0-2 .896-2 2v7c0 1.105.895 2 2 2h6v-2h-4.5v-7h5.5z" fill="#7d8f97"/><path d="m12 2h-5.5v7h4.5v-1.014c0-.552.447-1 1-1z" fill="#dadada"/><path d="m9.853 15h-3.353-1.5-.25c-.96 0-1.75.79-1.75 1.75v5.5c0 .96.79 1.75 1.75 1.75h4.28c.52 0 1.01-.23 1.35-.63l1.43-1.72c.065-.075.128-.112.19-.112v-4.524c-.213 0-.415-.09-.558-.248z" fill="#00a4b9"/><path d="m12 6.986c-.553 0-1 .448-1 1v1.014 2 2.014h-1.25c-.296 0-.564.174-.686.445-.12.271-.07.587.128.807l.661.734 1.589 1.766c.143.158.345.248.558.248z" fill="#546d79"/><path d="m21 18.5v1.5h-3.25c-.41 0-.75-.34-.75-.75s.34-.75.75-.75z" fill="#0097a7"/><path d="m7 19.25c0 .41-.34.75-.75.75h-3.25v-1.5h3.25c.41 0 .75.34.75.75z" fill="#0097a7"/><path d="m21 19.25h-4c0 .41.34.75.75.75h3.25z" fill="#008391"/><path d="m7 19.25h-4v.75h3.25c.41 0 .75-.34.75-.75z" fill="#008391"/></svg>
