<svg id="icon" enable-background="new 0 0 24 24" height="512" viewBox="0 0 24 24" width="512" xmlns="http://www.w3.org/2000/svg"><path d="m16.677 12.833c-.295.106-.607.167-.927.167-.355 0-.698-.074-1.026-.206l1.94 2.425c.26.323.732.375 1.055.117.323-.259.376-.731.117-1.055z" fill="#90a4ae"/><path d="m13 9.925c-.682-.139-1.291-.47-1.785-.925-.323 0-.557-.011-.791.27-.955 1.146-2.893 1.146-3.848 0-.142-.171-.353-.27-.576-.27h-2.25c-.264 0-.508.139-.644.364l-3 5c-.213.355-.098.815.258 1.029.357.213.817.096 1.029-.258l2.782-4.635h1.495c.748.748 1.761 1.171 2.83 1.171s2.082-.423 2.83-1.171h1.56z" fill="#90a4ae"/><path d="m15.25 24h-2.813c-.818 0-1.589-.36-2.112-.989l-.365-.437c-.477-.572-1.443-.571-1.92-.001l-.364.438c-.524.629-1.294.989-2.113.989h-2.813c-1.517 0-2.75-1.233-2.75-2.75v-6.5c0-.414.336-.75.75-.75h16.5c.414 0 .75.336.75.75v6.5c0 1.517-1.233 2.75-2.75 2.75z" fill="#00bcd4"/><path d="m6 9h-2.25c-.264 0-.508.139-.644.364l-3 5c-.076.128-.11.269-.106.408v-.022c0-.414.336-.75.75-.75h1.325l2.1-3.5h1.495c.748.748 1.761 1.171 2.83 1.171.168 0 .335-.01.5-.031v-1.557c-.165.031-.332.046-.5.046-.723 0-1.446-.287-1.924-.86-.142-.17-.353-.269-.576-.269z" fill="#7d8f97"/><path d="m9 14h-6.925-1.325c-.414 0-.75.336-.75.75v.022 6.478c0 1.517 1.233 2.75 2.75 2.75h2.813c.818 0 1.589-.36 2.112-.989l.364-.438c.238-.285.599-.428.96-.428v-8.145z" fill="#00a4b9"/><path d="m15 10.25v-2.25h-1.25c-.965 0-1.75-.785-1.75-1.75v-4.5c0-.965.785-1.75 1.75-1.75h8.5c.965 0 1.75.785 1.75 1.75v4.5c0 .965-.785 1.75-1.75 1.75h-2.957l-3.035 2.801c-.479.442-1.258.103-1.258-.551z" fill="#607d8b"/><path d="m18 0h-4.25c-.965 0-1.75.785-1.75 1.75v4.5c0 .965.785 1.75 1.75 1.75h1.25v2.25c0 .45.369.751.755.751.175 0 .354-.062.504-.2l1.741-1.607z" fill="#546d79"/><g fill="#fff"><path d="m18.75 4c0 .414-.336.75-.75.75s-.75-.336-.75-.75.336-.75.75-.75.75.336.75.75z"/><path d="m21.5 4c0 .414-.336.75-.75.75s-.75-.336-.75-.75.336-.75.75-.75.75.336.75.75z"/><path d="m16 4c0 .414-.336.75-.75.75s-.75-.336-.75-.75.336-.75.75-.75.75.336.75.75z"/></g><path d="m18.75 4h-1.5c0 .414.336.75.75.75s.75-.336.75-.75z" fill="#dedede"/><path d="m21.5 4h-1.5c0 .414.336.75.75.75s.75-.336.75-.75z" fill="#dedede"/><path d="m16 4h-1.5c0 .414.336.75.75.75s.75-.336.75-.75z" fill="#dedede"/><path d="m18 21h-3.25c-.414 0-.75-.336-.75-.75v-2.5c0-.414.336-.75.75-.75h3.25z" fill="#0097a7"/><path d="m3.25 21h-3.25v-4h3.25c.414 0 .75.336.75.75v2.5c0 .414-.336.75-.75.75z" fill="#0097a7"/><path d="m2 17h-2v4h2z" fill="#008391"/><path d="m16 17h-1.25c-.414 0-.75.336-.75.75v2.5c0 .414.336.75.75.75h1.25z" fill="#008391"/></svg>
