<svg id="icon" enable-background="new 0 0 24 24" height="512" viewBox="0 0 24 24" width="512" xmlns="http://www.w3.org/2000/svg"><path d="m16.311 12.375c-.414.316-.909.522-1.451.588l1.804 2.255c.26.323.732.375 1.055.117.323-.259.376-.731.117-1.055z" fill="#90a4ae"/><path d="m11.5 9h-.5c-.223 0-.434.099-.576.27-.955 1.146-2.893 1.146-3.848 0-.142-.171-.353-.27-.576-.27h-2.25c-.264 0-.508.139-.644.364l-3 5c-.213.355-.098.815.258 1.029.357.213.817.096 1.029-.258l2.782-4.635h1.495c.748.748 1.761 1.171 2.83 1.171s2.082-.423 2.83-1.171h.22c-.027-.163-.05-1.5-.05-1.5z" fill="#90a4ae"/><path d="m15.25 24h-2.813c-.818 0-1.589-.36-2.112-.989l-.365-.437c-.477-.572-1.443-.571-1.92-.001l-.364.438c-.524.629-1.294.989-2.113.989h-2.813c-1.517 0-2.75-1.233-2.75-2.75v-6.5c0-.414.336-.75.75-.75h16.5c.414 0 .75.336.75.75v6.5c0 1.517-1.233 2.75-2.75 2.75z" fill="#00bcd4"/><path d="m6 9h-2.25c-.264 0-.508.139-.644.364l-3 5c-.076.128-.11.269-.106.408v-.022c0-.414.336-.75.75-.75h1.325l2.1-3.5h1.495c.748.748 1.761 1.171 2.83 1.171.168 0 .335-.01.5-.031v-1.557c-.165.031-.332.046-.5.046-.723 0-1.446-.287-1.924-.86-.142-.17-.353-.269-.576-.269z" fill="#7d8f97"/><path d="m9 14h-6.925-1.325c-.414 0-.75.336-.75.75v.022 6.478c0 1.517 1.233 2.75 2.75 2.75h2.813c.818 0 1.589-.36 2.112-.989l.364-.438c.238-.285.599-.428.96-.428v-8.145z" fill="#00a4b9"/><path d="m18 21h-3.25c-.414 0-.75-.336-.75-.75v-2.5c0-.414.336-.75.75-.75h3.25z" fill="#0097a7"/><path d="m3.25 21h-3.25v-4h3.25c.414 0 .75.336.75.75v2.5c0 .414-.336.75-.75.75z" fill="#0097a7"/><path d="m2 17h-2v4h2z" fill="#008391"/><path d="m16 17h-1.25c-.414 0-.75.336-.75.75v2.5c0 .414.336.75.75.75h1.25z" fill="#008391"/><path d="m17.254 4.089c.31 0 .588-.19.699-.479s.034-.617-.195-.825l-2.75-2.5c-.286-.26-.723-.26-1.009 0l-2.75 2.5c-.229.208-.307.536-.195.825s.39.479.7.479h1.75v6c0 .553.447 1 1 1 .552 0 1-.447 1-1v-6z" fill="#607d8b"/><path d="m14.503.089c-.181 0-.361.065-.504.195l-2.75 2.5c-.229.208-.307.536-.195.825s.39.479.7.479h1.75v6c0 .553.447 1 1 1l-.001-10.999c.001 0 .001 0 0 0z" fill="#546d79"/><path d="m23.953 7.568c-.111-.289-.39-.479-.699-.479h-1.75v-6c0-.552-.448-1-1-1-.553 0-1 .448-1 1v6h-1.75c-.311 0-.588.19-.7.479-.111.289-.034.617.195.826l2.75 2.5c.144.13.324.194.505.194s.361-.064.504-.194l2.75-2.5c.229-.208.306-.537.195-.826z" fill="#607d8b"/><path d="m20.504.089c-.553 0-1 .448-1 1v6h-1.75c-.311 0-.588.19-.7.479-.111.289-.034.617.195.826l2.75 2.5c.144.13.324.194.505.194z" fill="#546d79"/></svg>
