<svg id="icon" enable-background="new 0 0 24 24" height="512" viewBox="0 0 24 24" width="512" xmlns="http://www.w3.org/2000/svg"><path d="m20 9.75c-.552 0-1-.448-1-1v-1.75c0-.551-.449-1-1-1h-12c-.551 0-1 .449-1 1v1.75c0 .552-.448 1-1 1s-1-.448-1-1v-1.75c0-1.654 1.346-3 3-3h12c1.654 0 3 1.346 3 3v1.75c0 .552-.448 1-1 1z" fill="#607d8b"/><path d="m21.25 22h-6.08c-.323 0-.609-.207-.711-.513l-.439-1.317c-.034-.101-.129-.17-.237-.17h-3.565c-.108 0-.203.069-.237.171l-.438 1.316c-.104.306-.39.513-.713.513h-6.08c-1.517 0-2.75-1.233-2.75-2.75v-8.5c0-1.517 1.233-2.75 2.75-2.75h18.5c1.517 0 2.75 1.233 2.75 2.75v8.5c0 1.517-1.233 2.75-2.75 2.75z" fill="#00bcd4"/><path d="m12 4h-6c-1.654 0-3 1.346-3 3v1h2v-1c0-.551.449-1 1-1h6z" fill="#546d79"/><path d="m12 8h-7-2-.25c-1.517 0-2.75 1.233-2.75 2.75v8.5c0 1.517 1.233 2.75 2.75 2.75h6.08c.323 0 .609-.207.711-.513l.438-1.316c.035-.102.13-.171.238-.171h1.783z" fill="#00a4b9"/><g fill="#fff"><path d="m11.75 17c-.414 0-.75-.336-.75-.75v-4.5c0-.414.336-.75.75-.75h1.125c1.172 0 2.125.953 2.125 2.125s-.953 2.125-2.125 2.125h-.375v1c0 .414-.336.75-.75.75zm.75-3.25h.375c.345 0 .625-.28.625-.625s-.28-.625-.625-.625h-.375z"/><path d="m13.72 16.78-1.75-1.75c-.293-.293-.293-.768 0-1.061s.768-.293 1.061 0l1.75 1.75c.293.293.293.768 0 1.061-.294.293-.768.293-1.061 0z"/><path d="m7 17c-.323 0-.609-.207-.711-.513l-1.5-4.5c-.131-.393.081-.818.474-.949.393-.13.818.082.949.474l.788 2.366.789-2.366c.13-.393.554-.606.949-.474.393.131.605.556.474.949l-1.5 4.5c-.103.306-.389.513-.712.513z"/></g><path d="m11.941 14h-.941v2.25c0 .414.336.75.75.75s.75-.336.75-.75v-.689l-.53-.53c-.283-.284-.293-.736-.029-1.031zm2.87 0h-1.751l.932.932c.358-.222.645-.546.819-.932z" fill="#dedede"/><path d="m13.061 14h-1.119c-.264.295-.254.747.029 1.03l.53.53 1.22 1.22c.146.146.338.22.53.22s.384-.073.53-.22c.293-.293.293-.768 0-1.061l-.788-.788z" fill="#dedede"/><path d="m8.541 14h-3.082l.829 2.487c.103.306.389.513.712.513s.609-.207.711-.513z" fill="#dedede"/><path d="m20 12.5c0 .829-.671 1.5-1.5 1.5s-1.5-.671-1.5-1.5.671-1.5 1.5-1.5 1.5.671 1.5 1.5z" fill="#fff"/><path d="m18.5 11c-.829 0-1.5.671-1.5 1.5s.671 1.5 1.5 1.5z" fill="#dedede"/></svg>
