<svg id="icon" enable-background="new 0 0 24 24" height="512" viewBox="0 0 24 24" width="512" xmlns="http://www.w3.org/2000/svg"><path d="m23 12.75c-.437 0-.839-.289-.962-.73l-2.6-9.28c-.122-.437-.519-.74-.968-.74h-.725c-.874 2.385-3.145 4-5.73 4-2.593 0-4.86-1.614-5.732-4h-.753c-.449 0-.846.303-.966.736l-2.601 9.284c-.149.532-.703.842-1.233.693-.532-.149-.842-.701-.693-1.233l2.6-9.28c.357-1.293 1.547-2.2 2.893-2.2h1.5c.461 0 .863.316.972.764l.024.099c.448 1.847 2.088 3.137 3.989 3.137 1.887 0 3.524-1.278 3.982-3.109l.033-.132c.11-.446.511-.759.97-.759h1.47c1.346 0 2.536.907 2.894 2.205l2.599 9.275c.149.532-.161 1.084-.693 1.233-.09.025-.181.037-.27.037z" fill="#607d8b"/><path d="m21.25 24h-18.5c-1.517 0-2.75-1.233-2.75-2.75v-9.5c0-.414.336-.75.75-.75h22.5c.414 0 .75.336.75.75v9.5c0 1.517-1.233 2.75-2.75 2.75z" fill="#00bcd4"/><path d="m7.03 0h-1.5c-1.346 0-2.536.907-2.893 2.2l-2.6 9.28c-.027.097-.039.195-.037.291v-.021c0-.414.336-.75.75-.75h1.499l2.315-8.264c.12-.433.517-.736.966-.736h.753c.871 2.382 3.131 3.994 5.717 4v-2c-1.895-.007-3.528-1.295-3.975-3.137l-.024-.099c-.108-.448-.51-.764-.971-.764z" fill="#546d79"/><path d="m12 11h-9.751-1.499c-.414 0-.75.336-.75.75v.021 9.479c0 1.517 1.233 2.75 2.75 2.75h9.25z" fill="#00a4b9"/><g fill="#fff"><path d="m24 20h-3.25c-.965 0-1.75-.785-1.75-1.75v-2.5c0-.965.785-1.75 1.75-1.75h3.25z"/><path d="m3.25 20h-3.25v-6h3.25c.965 0 1.75.785 1.75 1.75v2.5c0 .965-.785 1.75-1.75 1.75z"/><path d="m15 18h-6c-.552 0-1-.448-1-1s.448-1 1-1h6c.552 0 1 .448 1 1s-.448 1-1 1z"/></g><path d="m24 17h-5v1.25c0 .965.785 1.75 1.75 1.75h3.25z" fill="#dedede"/><path d="m5 17h-5v3h3.25c.965 0 1.75-.785 1.75-1.75z" fill="#dedede"/><path d="m16 17h-8c0 .552.448 1 1 1h6c.552 0 1-.448 1-1z" fill="#dedede"/></svg>
