<svg id="icon" enable-background="new 0 0 24 24" height="512" viewBox="0 0 24 24" width="512" xmlns="http://www.w3.org/2000/svg"><path d="m20 8.75c-.552 0-1-.448-1-1v-1.75c0-.551-.449-1-1-1h-12c-.551 0-1 .449-1 1v1.75c0 .552-.448 1-1 1s-1-.448-1-1v-1.75c0-1.654 1.346-3 3-3h12c1.654 0 3 1.346 3 3v1.75c0 .552-.448 1-1 1z" fill="#607d8b"/><path d="m21.25 21h-5.514c-1.048 0-1.99-.583-2.459-1.52l-.158-.317c-.216-.432-.634-.69-1.118-.69s-.902.258-1.118.691l-.158.316c-.471.937-1.413 1.52-2.461 1.52h-5.514c-1.517 0-2.75-1.233-2.75-2.75v-8.5c0-1.517 1.233-2.75 2.75-2.75h18.5c1.517 0 2.75 1.233 2.75 2.75v8.5c0 1.517-1.233 2.75-2.75 2.75z" fill="#00bcd4"/><path d="m12 3h-6c-1.654 0-3 1.346-3 3v1h2v-1c0-.551.449-1 1-1h6z" fill="#546d79"/><path d="m12 7h-7-2-.25c-1.517 0-2.75 1.233-2.75 2.75v8.5c0 1.517 1.233 2.75 2.75 2.75h5.514c1.048 0 1.99-.583 2.459-1.521l.158-.316c.216-.433.634-.691 1.118-.691v-11.472z" fill="#00a4b9"/><path d="m8.25 17h-3.5c-.965 0-1.75-.785-1.75-1.75v-3.5c0-.965.785-1.75 1.75-1.75h3.5c.965 0 1.75.785 1.75 1.75v3.5c0 .965-.785 1.75-1.75 1.75z" fill="#fff"/><path d="m19.25 17h-3.5c-.965 0-1.75-.785-1.75-1.75v-3.5c0-.965.785-1.75 1.75-1.75h3.5c.965 0 1.75.785 1.75 1.75v3.5c0 .965-.785 1.75-1.75 1.75z" fill="#fff"/><g fill="#dedede"><path d="m6.5 10h-1.75c-.965 0-1.75.785-1.75 1.75v3.5c0 .965.785 1.75 1.75 1.75h1.75z"/><path d="m17.5 10h-1.75c-.965 0-1.75.785-1.75 1.75v3.5c0 .965.785 1.75 1.75 1.75h1.75z"/></g></svg>
