<svg id="icon" enable-background="new 0 0 24 24" height="512" viewBox="0 0 24 24" width="512" xmlns="http://www.w3.org/2000/svg"><path d="m.364 15.394c-.355-.214-.471-.674-.258-1.029l3-5c.136-.226.38-.365.644-.365h2.25c.223 0 .434.099.576.27.955 1.146 2.893 1.146 3.848 0 .142-.171.353-.27.576-.27h2.25c.228 0 .443.104.586.281l4 5c.259.323.206.796-.117 1.055-.322.258-.795.206-1.055-.117l-3.774-4.719h-1.56c-.748.748-1.761 1.171-2.83 1.171s-2.082-.423-2.83-1.171h-1.495l-2.781 4.636c-.213.353-.673.471-1.03.258z" fill="#90a4ae"/><path d="m15.25 24h-2.813c-.818 0-1.589-.36-2.112-.989l-.365-.437c-.477-.572-1.443-.571-1.92-.001l-.364.438c-.524.629-1.294.989-2.113.989h-2.813c-1.517 0-2.75-1.233-2.75-2.75v-6.5c0-.414.336-.75.75-.75h16.5c.414 0 .75.336.75.75v6.5c0 1.517-1.233 2.75-2.75 2.75z" fill="#00bcd4"/><path d="m6 9h-2.25c-.264 0-.508.139-.644.364l-3 5c-.076.128-.11.269-.106.408v-.022c0-.414.336-.75.75-.75h1.325l2.1-3.5h1.495c.748.748 1.761 1.171 2.83 1.171.168 0 .335-.01.5-.031v-1.557c-.165.031-.332.046-.5.046-.723 0-1.446-.287-1.924-.86-.142-.17-.353-.269-.576-.269z" fill="#7d8f97"/><path d="m9 14h-6.925-1.325c-.414 0-.75.336-.75.75v.022 6.478c0 1.517 1.233 2.75 2.75 2.75h2.813c.818 0 1.589-.36 2.112-.989l.364-.438c.238-.285.599-.428.96-.428v-8.145z" fill="#00a4b9"/><path d="m18 21h-3.25c-.414 0-.75-.336-.75-.75v-2.5c0-.414.336-.75.75-.75h3.25z" fill="#0097a7"/><path d="m3.25 21h-3.25v-4h3.25c.414 0 .75.336.75.75v2.5c0 .414-.336.75-.75.75z" fill="#0097a7"/><path d="m2 17h-2v4h2z" fill="#008391"/><path d="m16 17h-1.25c-.414 0-.75.336-.75.75v2.5c0 .414.336.75.75.75h1.25z" fill="#008391"/><g fill="#00bcd4"><path d="m20.5 7c0 .553-.447 1-1 1s-1-.447-1-1 .447-1 1-1 1 .447 1 1z"/><path d="m21.004 5.15c-.809-.838-2.199-.838-3.008 0-.287.298-.762.309-1.061.019-.298-.287-.307-.763-.02-1.061 1.379-1.432 3.789-1.432 5.168 0 .287.298.278.773-.02 1.061-.296.289-.771.279-1.059-.019z"/><path d="m22.71 2.881c-.858-.891-1.998-1.381-3.21-1.381s-2.352.49-3.21 1.381c-.288.298-.762.308-1.061.02-.298-.287-.307-.762-.02-1.061 1.145-1.187 2.668-1.84 4.291-1.84s3.146.653 4.29 1.84c.287.299.278.773-.019 1.061-.298.287-.773.278-1.061-.02z"/></g><path d="m19.5 6c-.553 0-1 .447-1 1s.447 1 1 1z" fill="#00a4b9"/><path d="m19.5 3.036c-.947 0-1.895.358-2.584 1.074-.287.298-.278.773.02 1.061.146.141.333.21.52.21.197 0 .393-.077.541-.23.403-.42.953-.629 1.503-.629z" fill="#00a4b9"/><path d="m19.5 0c-1.623 0-3.147.653-4.29 1.84-.287.299-.278.773.02 1.061.146.14.333.21.52.21.197 0 .393-.077.541-.23.857-.891 1.997-1.381 3.209-1.381z" fill="#00a4b9"/></svg>
