<svg id="icon" enable-background="new 0 0 24 24" height="512" viewBox="0 0 24 24" width="512" xmlns="http://www.w3.org/2000/svg"><path d="m20 12.75c-.552 0-1-.448-1-1v-1.75c0-.551-.449-1-1-1h-1c-.552 0-1-.448-1-1s.448-1 1-1h1c1.654 0 3 1.346 3 3v1.75c0 .552-.448 1-1 1z" fill="#607d8b"/><path d="m4 12.75c-.552 0-1-.448-1-1v-1.75c0-1.654 1.346-3 3-3h1c.552 0 1 .448 1 1s-.448 1-1 1h-1c-.551 0-1 .449-1 1v1.75c0 .552-.448 1-1 1z" fill="#607d8b"/><path d="m21.25 24h-18.5c-1.517 0-2.75-1.233-2.75-2.75v-7.5c0-1.517 1.233-2.75 2.75-2.75h18.5c1.517 0 2.75 1.233 2.75 2.75v7.5c0 1.517-1.233 2.75-2.75 2.75z" fill="#00bcd4"/><g fill="#ffc107"><path d="m13 7c0 .552-.448 1-1 1s-1-.448-1-1 .448-1 1-1 1 .448 1 1z"/><path d="m13.504 5.15c-.81-.839-2.199-.839-3.009 0-.287.299-.762.307-1.06.019s-.307-.762-.019-1.06c1.38-1.431 3.787-1.431 5.167 0 .288.298.279.772-.019 1.06-.298.289-.774.279-1.06-.019z"/><path d="m15.21 2.88c-.858-.89-1.999-1.38-3.21-1.38s-2.352.49-3.21 1.38c-.287.3-.762.307-1.061.02-.298-.288-.306-.763-.019-1.061 1.144-1.186 2.667-1.839 4.29-1.839s3.146.653 4.29 1.839c.287.298.279.773-.02 1.061-.298.287-.772.279-1.06-.02z"/></g><path d="m14.25 15h-4.5c-.965 0-1.75-.785-1.75-1.75v-2.25h8v2.25c0 .965-.785 1.75-1.75 1.75z" fill="#fff"/><path d="m16 24h-8v-2.25c0-.965.785-1.75 1.75-1.75h4.5c.965 0 1.75.785 1.75 1.75z" fill="#fff"/><path d="m7 7h-1c-1.654 0-3 1.346-3 3v1h2v-1c0-.551.449-1 1-1h1c.552 0 1-.448 1-1s-.448-1-1-1z" fill="#546d79"/><path d="m8 11h-3-2-.25c-1.517 0-2.75 1.233-2.75 2.75v7.5c0 1.517 1.233 2.75 2.75 2.75h9.25-4v-2.25c0-.965.785-1.75 1.75-1.75h2.25v-5h-2.25c-.965 0-1.75-.785-1.75-1.75z" fill="#00a4b9"/><path d="m12 6c-.552 0-1 .448-1 1s.448 1 1 1z" fill="#dea806"/><path d="m12 3.036c-.947 0-1.894.358-2.583 1.073-.288.298-.279.772.019 1.06.145.141.333.211.521.211.196 0 .392-.077.539-.23.404-.419.954-.629 1.504-.629z" fill="#dea806"/><path d="m12 0c-1.623 0-3.146.653-4.29 1.839-.287.298-.279.773.019 1.061.146.14.334.211.522.211.196 0 .392-.077.539-.23.858-.891 1.999-1.381 3.21-1.381z" fill="#dea806"/><path d="m12 11h-4v2.25c0 .965.785 1.75 1.75 1.75h2.25z" fill="#dedede"/><path d="m12 20h-2.25c-.965 0-1.75.785-1.75 1.75v2.25h4z" fill="#dedede"/><path d="m21 17.5c0 .829-.671 1.5-1.5 1.5s-1.5-.671-1.5-1.5.671-1.5 1.5-1.5 1.5.671 1.5 1.5z" fill="#fff"/><path d="m19.5 16c-.829 0-1.5.671-1.5 1.5s.671 1.5 1.5 1.5z" fill="#dedede"/></svg>
