<svg id="icon" enable-background="new 0 0 24 24" height="512" viewBox="0 0 24 24" width="512" xmlns="http://www.w3.org/2000/svg"><path d="m20.5 24h-9c-.276 0-.5-.224-.5-.5v-3.325l-2.414.734c-.163.058-.367.091-.586.091-1.103 0-2-.897-2-2v-3h-2c-.561 0-1-.439-1-1 0-.188.053-.368.155-.534l2.338-3.71c.332-.526.507-1.132.507-1.753 0-4.965 4.037-9.003 9-9.003s9 4.038 9 9c0 1.858-.565 3.647-1.636 5.17-.892 1.269-1.364 2.757-1.364 4.304v5.026c0 .276-.224.5-.5.5z" fill="#ffcc80"/><path d="m15 0c-4.963 0-9 4.038-9 9.003 0 .621-.175 1.227-.507 1.753l-2.338 3.71c-.102.166-.155.346-.155.534 0 .561.439 1 1 1h2v3c0 1.103.897 2 2 2 .219 0 .423-.033.586-.091l2.414-.734v3.325c0 .276.224.5.5.5h4v-23.986c-.166-.009-.332-.014-.5-.014z" fill="#deb26f"/><path d="m22.25 10.25h-13.5c-.965 0-1.75-.785-1.75-1.75v-1c0-.965.785-1.75 1.75-1.75h13.5c.965 0 1.75.785 1.75 1.75v1c0 .965-.785 1.75-1.75 1.75z" fill="#607d8b"/><path d="m10.25 13h-7.5c-1.517 0-2.75-1.233-2.75-2.75v-4.5c0-1.517 1.233-2.75 2.75-2.75h7.5c.965 0 1.75.785 1.75 1.75v6.5c0 .965-.785 1.75-1.75 1.75z" fill="#00bcd4"/><path d="m5 13h-2v-10h2z" fill="#607d8b"/><path d="m24 8h-12v2.25h10.25c.965 0 1.75-.785 1.75-1.75z" fill="#546d79"/><path d="m12 8h-7v5h-2v-5h-3v2.25c0 1.517 1.233 2.75 2.75 2.75h7.5c.965 0 1.75-.785 1.75-1.75v-1z" fill="#00a4b9"/><path d="m5 8h-2v5h2z" fill="#546d79"/></svg>
