<svg id="icon" enable-background="new 0 0 24 24" height="512" viewBox="0 0 24 24" width="512" xmlns="http://www.w3.org/2000/svg"><path d="m17.417 11.75h-11.417v-6.25h11.417z" fill="#ffcc80"/><path d="m12.01 24c-5.889 0-8.892-4.875-9.738-9.438-.101-.543.258-1.065.801-1.166.543-.102 17.335-.113 17.872-.008.543.105.898.629.792 1.172-1.508 7.802-6.123 9.44-9.727 9.44z" fill="#ffcc80"/><path d="m12 20.999c-.938 0-1.874-.196-2.604-.588-.365-.196-.502-.65-.307-1.015.196-.365.65-.505 1.016-.306 1.027.551 2.764.551 3.791 0 .364-.196.819-.059 1.016.306.195.365.059.819-.307 1.015-.731.392-1.667.588-2.605.588z" fill="#fff"/><path d="m20.783 10.976-6.75-1.5c-2.3-.499-4.311-1.967-5.545-3.055-.54 1.277-1.491 2.582-2.561 2.989l-2.412 1.447c-.666.4-1.515-.081-1.515-.857v-1.51c0-5.833 5.188-8.49 10.01-8.49 4.811 0 9.99 2.66 9.99 8.5v1.5c0 .644-.597 1.114-1.217.976z" fill="#607d8b"/><path d="m23 14h-2c-.553 0-1-.448-1-1v-2c0-.552.447-1 1-1h2c.553 0 1 .448 1 1v2c0 .552-.447 1-1 1z" fill="#0097a7"/><path d="m3 14h-2c-.553 0-1-.448-1-1v-2c0-.552.447-1 1-1h2c.553 0 1 .448 1 1v2c0 .552-.447 1-1 1z" fill="#0097a7"/><path d="m20.582 7.604c-1.575-.304-3.083-.515-4.582-.651v2.297c0 .965-.785 1.75-1.75 1.75h-4.5c-.965 0-1.75-.785-1.75-1.75v-2.285c-1.592.146-3.144.362-4.582.639-.821.157-1.418.883-1.418 1.726v6.96c0 1.013.869 1.894 2.078 1.717 1.531-.287 3.078-.486 4.728-.609.391-.029.694-.356.694-.748v-.9c0-.138.112-.25.25-.25h4.5c.138 0 .25.112.25.25v.9c0 .393.303.719.694.748 1.649.123 3.196.322 4.71.606 1.024.217 2.096-.567 2.096-1.714v-6.96c0-.843-.597-1.569-1.418-1.726z" fill="#00bcd4"/><path d="m8.488 6.421c-.137.325-.302.653-.488.967v1.862c0 .965.785 1.75 1.75 1.75h2.255v-2.221c-1.436-.67-2.663-1.605-3.517-2.358z" fill="#deb26f"/><path d="m12.005 15.5h-2.255c-.138 0-.25.112-.25.25v.9c0 .393-.303.719-.694.748-1.649.123-3.196.322-4.728.609-.105.015-.207.023-.307.023-.155 0-.302-.018-.441-.051 1.479 3.287 4.269 6.019 8.675 6.021v-3.001c-.002 0-.003 0-.005 0-.938 0-1.874-.196-2.604-.588-.365-.196-.502-.65-.307-1.015.136-.252.394-.397.661-.397.12 0 .241.029.354.091.514.275 1.205.413 1.896.413h.005z" fill="#deb26f"/><path d="m9.75 18.999c-.267 0-.526.145-.661.397-.195.365-.059.819.307 1.015.73.392 1.667.588 2.604.588h.005v-1.496c-.002 0-.003 0-.005 0-.691 0-1.382-.138-1.896-.413-.113-.062-.234-.091-.354-.091z" fill="#dedede"/><path d="m12.005 0c-4.82.002-10.005 2.659-10.005 8.49v1.51-.67c0-.843.597-1.569 1.418-1.727 1.438-.276 2.99-.492 4.582-.638v.422c.186-.314.351-.641.488-.967.854.753 2.08 1.688 3.517 2.358z" fill="#546d79"/><path d="m2 10h-1c-.553 0-1 .448-1 1v2c0 .552.447 1 1 1h1z" fill="#008391"/><path d="m8 6.965c-1.592.146-3.144.362-4.582.639-.821.157-1.418.883-1.418 1.726v.67 4 2.29c0 .788.526 1.497 1.33 1.689.139.033.287.051.441.051.1 0 .202-.007.307-.023 1.531-.287 3.078-.486 4.728-.609.391-.029.694-.356.694-.748v-.9c0-.138.112-.25.25-.25h2.255v-4.5h-2.255c-.965 0-1.75-.785-1.75-1.75v-1.862z" fill="#00a4b9"/></svg>
