<svg id="icon" enable-background="new 0 0 24 24" height="512" viewBox="0 0 24 24" width="512" xmlns="http://www.w3.org/2000/svg"><path d="m18.25 7h-.5c-.965 0-1.75-.785-1.75-1.75v-3.5c0-.965.785-1.75 1.75-1.75h.5c.965 0 1.75.785 1.75 1.75v3.5c0 .965-.785 1.75-1.75 1.75zm-.5-5.5c-.138 0-.25.112-.25.25v3.5c0 .138.112.25.25.25h.5c.138 0 .25-.112.25-.25v-3.5c0-.138-.112-.25-.25-.25z"/><path d="m8 1.75c0-.965-.785-1.75-1.75-1.75h-1.5c-.414 0-.75.336-.75.75s.336.75.75.75h1.5c.138 0 .25.112.25.25v.75c0 .138-.112.25-.25.25h-1.5c-.414 0-.75.336-.75.75s.336.75.75.75h1.5c.138 0 .25.112.25.25v.75c0 .138-.112.25-.25.25h-1.5c-.414 0-.75.336-.75.75s.336.75.75.75h1.5c.965 0 1.75-.785 1.75-1.75v-.75c0-.372-.119-.716-.318-1 .199-.284.318-.628.318-1z"/><path d="m13.25 9h-2.5c-1.517 0-2.75 1.233-2.75 2.75v9.5c0 1.517 1.233 2.75 2.75 2.75h2.5c1.517 0 2.75-1.233 2.75-2.75v-9.5c0-1.517-1.233-2.75-2.75-2.75zm-.25 11c0 .552-.448 1-1 1s-1-.448-1-1v-2c0-.552.448-1 1-1s1 .448 1 1zm0-6c0 .552-.448 1-1 1s-1-.448-1-1v-1c0-.552.448-1 1-1s1 .448 1 1z"/><path d="m3.038 14h1.962c.552 0 1-.448 1-1s-.448-1-1-1h-1.94c.089-.917.282-1.81.587-2.664.186-.52-.085-1.092-.605-1.278-.52-.183-1.092.086-1.279.606-.506 1.418-.763 2.921-.763 4.47 0 3.353 1.2 6.477 3.292 8.573.387.388 1.02.394 1.414.001.391-.39.391-1.023.001-1.414-1.543-1.546-2.489-3.806-2.669-6.294z"/><path d="m22.237 8.664c-.186-.52-.757-.789-1.278-.605-.52.186-.791.758-.605 1.278.305.853.498 1.746.587 2.664h-1.941c-.552 0-1 .448-1 1s.448 1 1 1h1.962c-.18 2.488-1.127 4.748-2.67 6.293-.39.391-.39 1.024.001 1.414.389.388 1.023.391 1.414-.001 2.093-2.096 3.293-5.221 3.293-8.573 0-1.549-.257-3.052-.763-4.47z"/><path d="m12.25 7h-.5c-.965 0-1.75-.785-1.75-1.75v-3.5c0-.965.785-1.75 1.75-1.75h1.5c.414 0 .75.336.75.75s-.336.75-.75.75h-1.5c-.138 0-.25.112-.25.25v1h.75c.965 0 1.75.785 1.75 1.75v.75c0 .965-.785 1.75-1.75 1.75zm-.75-2.75v1c0 .138.112.25.25.25h.5c.138 0 .25-.112.25-.25v-.75c0-.138-.112-.25-.25-.25z"/></svg>
