<svg id="icon" enable-background="new 0 0 24 24" height="512" viewBox="0 0 24 24" width="512" xmlns="http://www.w3.org/2000/svg"><path d="m7 18h-1c-.552 0-1-.448-1-1v-1c0-.552.448-1 1-1h1c.552 0 1 .448 1 1v1c0 .552-.448 1-1 1z"/><path d="m18 18h-1c-.552 0-1-.448-1-1v-1c0-.552.448-1 1-1h1c.552 0 1 .448 1 1v1c0 .552-.448 1-1 1z"/><path d="m12 0 5 2.231-5 2.231-5-2.231z"/><path d="m13 5.658v3.857l4-1.784v-3.858z"/><path d="m11 5.658-4-1.785v3.858l4 1.784z"/><path d="m21.25 10h-3.637c-.071.036-.14.074-.215.103l-4.5 1.731c-.296.111-.594.166-.898.166s-.602-.055-.887-.163l-4.511-1.735c-.075-.028-.144-.066-.215-.102h-3.637c-1.517 0-2.75 1.233-2.75 2.75v8.5c0 1.517 1.233 2.75 2.75 2.75h5.514c1.048 0 1.99-.583 2.459-1.521l.158-.316c.216-.433.634-.691 1.118-.691s.902.258 1.118.69l.158.317c.469.938 1.412 1.52 2.459 1.52h5.514c1.517 0 2.75-1.233 2.75-2.75v-8.5c.002-1.516-1.231-2.749-2.748-2.749zm-11.25 8.25c0 .965-.785 1.75-1.75 1.75h-3.5c-.965 0-1.75-.785-1.75-1.75v-3.5c0-.965.785-1.75 1.75-1.75h3.5c.965 0 1.75.785 1.75 1.75zm11 0c0 .965-.785 1.75-1.75 1.75h-3.5c-.965 0-1.75-.785-1.75-1.75v-3.5c0-.965.785-1.75 1.75-1.75h3.5c.965 0 1.75.785 1.75 1.75z"/><path d="m19 6.184v1.585c0 .266-.045.526-.126.772.074.139.126.291.126.459v1.75c0 .552.448 1 1 1s1-.448 1-1v-1.75c0-1.302-.839-2.402-2-2.816z"/><path d="m5 7.769v-1.585c-1.161.414-2 1.514-2 2.816v1.75c0 .552.448 1 1 1s1-.448 1-1v-1.75c0-.168.052-.32.126-.459-.081-.246-.126-.506-.126-.772z"/></svg>
