<svg id="icon" enable-background="new 0 0 24 24" height="512" viewBox="0 0 24 24" width="512" xmlns="http://www.w3.org/2000/svg"><path d="m21.25 3h-18.5c-1.517 0-2.75 1.233-2.75 2.75v3.5c0 1.517 1.233 2.75 2.75 2.75h5.25v2h-4.25c-.965 0-1.75.785-1.75 1.75v.25h4c.553 0 1 .448 1 1s-.447 1-1 1h-4v.25c0 .965.785 1.75 1.75 1.75h16.5c.965 0 1.75-.785 1.75-1.75v-.25h-4c-.553 0-1-.448-1-1s.447-1 1-1h4v-.25c0-.965-.785-1.75-1.75-1.75h-4.25v-2h5.25c1.517 0 2.75-1.233 2.75-2.75v-3.5c0-1.517-1.233-2.75-2.75-2.75zm-16.25 6.5c-1.103 0-2-.897-2-2s.897-2 2-2 2 .897 2 2-.897 2-2 2zm3.5-2c0-1.103.897-2 2-2s2 .897 2 2-.897 2-2 2-2-.897-2-2zm5.5 6.5h-4v-2h4zm5-4.5c-1.103 0-2-.897-2-2s.897-2 2-2 2 .897 2 2-.897 2-2 2z"/></svg>
