<svg id="icon" enable-background="new 0 0 24 24" height="512" viewBox="0 0 24 24" width="512" xmlns="http://www.w3.org/2000/svg"><path d="m17 6h3v-1.25c0-.965-.785-1.75-1.75-1.75h-.25v-1c0-1.103-.897-2-2-2h-8c-1.103 0-2 .897-2 2v1h-.25c-.965 0-1.75.785-1.75 1.75v1.25h3c.553 0 1 .448 1 1s-.447 1-1 1h-3v2.25c0 .965.785 1.75 1.75 1.75h3.281c.521 0 1.011-.229 1.345-.63l1.432-1.718c.131-.157.254-.157.385 0l1.433 1.719c.332.4.822.629 1.343.629h3.281c.965 0 1.75-.785 1.75-1.75v-2.25h-3c-.553 0-1-.448-1-1s.447-1 1-1zm-9.5-3v-1c0-.276.224-.5.5-.5h8c.276 0 .5.224.5.5v1z"/><path d="m22.25 4h-.335c.05.243.085.492.085.75v13.25h-20v-13.25c0-.258.035-.507.085-.75h-.335c-.965 0-1.75.785-1.75 1.75v12.5c0 .965.785 1.75 1.75 1.75h8.25v2h-2c-.552 0-1 .448-1 1s.448 1 1 1h8c.553 0 1-.448 1-1s-.447-1-1-1h-2v-2h8.25c.965 0 1.75-.785 1.75-1.75v-12.5c0-.965-.785-1.75-1.75-1.75z"/></svg>
