<svg id="icon" enable-background="new 0 0 24 24" height="512" viewBox="0 0 24 24" width="512" xmlns="http://www.w3.org/2000/svg"><path d="m14.936 13.458c-.121-.271-.39-.445-.686-.445h-1.25v-5.027c0-.552-.447-1-1-1s-1 .448-1 1v5.027h-1.25c-.296 0-.564.174-.686.445-.12.271-.07.587.128.807l2.25 2.5c.143.158.345.248.558.248s.415-.09.558-.248l2.25-2.5c.198-.22.248-.536.128-.807z"/><path d="m18.5 0h-13c-1.379 0-2.5 1.122-2.5 2.5v6c0 1.378 1.121 2.5 2.5 2.5h3.5v-2h-3.5c-.275 0-.5-.224-.5-.5v-6c0-.276.225-.5.5-.5h13c.275 0 .5.224.5.5v.25c-1.103 0-2 .897-2 2v1.5c0 1.103.897 2 2 2v.25c0 .276-.225.5-.5.5h-3.5v2h3.5c1.379 0 2.5-1.122 2.5-2.5v-6c0-1.378-1.121-2.5-2.5-2.5z"/><path d="m18 18h3v-1.25c0-.965-.785-1.75-1.75-1.75h-.25v-1c0-1.103-.897-2-2-2h-.657c.164.194.311.403.418.641l.003.006c.122.275.191.563.219.853h.017c.276 0 .5.224.5.5v1h-.798c-.108.215-.242.419-.408.604l-2.25 2.5c-.523.58-1.268.91-2.044.91s-1.521-.331-2.041-.907l-2.253-2.503c-.166-.185-.3-.389-.408-.604h-.798v-1c0-.276.224-.5.5-.5h.017c.028-.29.097-.578.219-.853.108-.241.257-.452.422-.647h-.658c-1.103 0-2 .897-2 2v1h-.25c-.965 0-1.75.785-1.75 1.75v1.25h3c.553 0 1 .448 1 1s-.447 1-1 1h-3v2.25c0 .965.785 1.75 1.75 1.75h4.281c.521 0 1.011-.229 1.345-.63l1.432-1.718c.131-.157.254-.157.385 0l1.433 1.719c.332.4.822.629 1.343.629h4.281c.965 0 1.75-.785 1.75-1.75v-2.25h-3c-.553 0-1-.448-1-1s.447-1 1-1z"/></svg>
