<svg id="icon" enable-background="new 0 0 24 24" height="512" viewBox="0 0 24 24" width="512" xmlns="http://www.w3.org/2000/svg"><path d="m21 13h3v-1.25c0-.965-.785-1.75-1.75-1.75h-.25v-1c0-1.103-.897-2-2-2h-8c-1.103 0-2 .897-2 2v1h-.25c-.965 0-1.75.785-1.75 1.75v1.25h3c.553 0 1 .448 1 1s-.447 1-1 1h-3v2.25c0 .965.785 1.75 1.75 1.75h3.281c.521 0 1.011-.229 1.345-.63l1.432-1.718c.131-.157.254-.157.385 0l1.433 1.719c.332.4.822.629 1.343.629h3.281c.965 0 1.75-.785 1.75-1.75v-2.25h-3c-.553 0-1-.448-1-1s.447-1 1-1zm-9.5-3v-1c0-.276.224-.5.5-.5h8c.276 0 .5.224.5.5v1z"/><path d="m14 20.859v.141c0 .552-.448 1-1 1h-10c-.552 0-1-.448-1-1v-18c0-.552.448-1 1-1h.5c.552 0 1 .448 1 1s.448 1 1 1h5c.552 0 1-.448 1-1s.448-1 1-1h.5c.552 0 1 .448 1 1v2h2v-2c0-1.654-1.346-3-3-3h-10c-1.654 0-3 1.346-3 3v18c0 1.654 1.346 3 3 3h10c1.654 0 3-1.346 3-3v-1.455l-.088.105c-.502.603-1.173 1.011-1.912 1.209z"/></svg>
