<svg id="icon" enable-background="new 0 0 24 24" height="512" viewBox="0 0 24 24" width="512" xmlns="http://www.w3.org/2000/svg"><path d="m12 4c-.553 0-1-.448-1-1v-2c0-.552.447-1 1-1s1 .448 1 1v2c0 .552-.447 1-1 1z"/><path d="m20.293 3.707c-.391-.391-.391-1.023 0-1.414l2-2c.391-.391 1.023-.391 1.414 0s.391 1.023 0 1.414l-2 2c-.391.391-1.023.391-1.414 0z"/><path d="m2.293 3.707-2-2c-.391-.391-.391-1.023 0-1.414s1.023-.391 1.414 0l2 2c.391.391.391 1.023 0 1.414s-1.023.391-1.414 0z"/><path d="m22.293 23.707-2-2c-.391-.391-.391-1.023 0-1.414s1.023-.391 1.414 0l2 2c.391.391.391 1.023 0 1.414s-1.023.391-1.414 0z"/><path d="m.293 23.707c-.391-.391-.391-1.023 0-1.414l2-2c.391-.391 1.023-.391 1.414 0s.391 1.023 0 1.414l-2 2c-.391.391-1.023.391-1.414 0z"/><path d="m23.25 9h-1.75v-.25c0-1.517-1.233-2.75-2.75-2.75h-13.5c-1.517 0-2.75 1.233-2.75 2.75v.25h-1.75c-.414 0-.75.336-.75.75v4.5c0 .414.336.75.75.75h1.75v.25c0 1.517 1.233 2.75 2.75 2.75h3.014c1.048 0 1.99-.583 2.46-1.521l.158-.316c.217-.433.635-.691 1.118-.691s.901.258 1.118.69l.158.317c.47.938 1.412 1.52 2.46 1.52h3.014c1.517 0 2.75-1.233 2.75-2.75v-.249h1.75c.414 0 .75-.336.75-.75v-4.5c0-.414-.336-.75-.75-.75zm-13.25 3.25c0 .965-.785 1.75-1.75 1.75h-1.5c-.965 0-1.75-.785-1.75-1.75v-1.5c0-.965.785-1.75 1.75-1.75h1.5c.965 0 1.75.785 1.75 1.75zm9 0c0 .965-.785 1.75-1.75 1.75h-1.5c-.965 0-1.75-.785-1.75-1.75v-1.5c0-.965.785-1.75 1.75-1.75h1.5c.965 0 1.75.785 1.75 1.75z"/><path d="m12 24c-.553 0-1-.448-1-1v-2c0-.552.447-1 1-1s1 .448 1 1v2c0 .552-.447 1-1 1z"/></svg>
