<svg id="icon" enable-background="new 0 0 24 24" height="512" viewBox="0 0 24 24" width="512" xmlns="http://www.w3.org/2000/svg"><path d="m17.053 11.852c-.62-.461-6.053-4.602-6.053-8.114 0-2.061 1.683-3.738 3.75-3.738 1.063 0 2.054.446 2.75 1.194.696-.748 1.687-1.194 2.75-1.194 2.067 0 3.75 1.677 3.75 3.738 0 3.512-5.433 7.653-6.053 8.114-.265.197-.629.197-.894 0z"/><path d="m15.853 13.451c-.394-.293-1.009-.771-1.712-1.387l1.548 1.936h-13.614l2.1-3.5h1.495c.748.748 1.761 1.171 2.83 1.171s2.082-.423 2.83-1.171h1.177c-.446-.467-1.507-1.5-1.507-1.5-.223 0-.434.099-.576.27-.955 1.146-2.893 1.146-3.848 0-.142-.171-.353-.27-.576-.27h-2.25c-.264 0-.508.139-.644.364l-3 5c-.029.049-.106.313-.106.386v2.25h3.25c.414 0 .75.336.75.75v1.5c0 .414-.336.75-.75.75h-3.25v1.25c0 1.517 1.233 2.75 2.75 2.75h2.813c.818 0 1.589-.36 2.112-.989l.364-.438c.477-.57 1.443-.571 1.92.001l.364.437c.525.629 1.295.989 2.114.989h2.813c1.517 0 2.75-1.233 2.75-2.75v-1.25h-3.25c-.414 0-.75-.336-.75-.75v-1.5c0-.414.336-.75.75-.75h3.25v-2.25c0-.099-.068-.348-.164-.469-.362-.453-1.077-.149-1.983-.83zm-4.603 5.549h-4.5c-.414 0-.75-.336-.75-.75s.336-.75.75-.75h4.5c.414 0 .75.336.75.75s-.336.75-.75.75z"/></svg>
