<svg id="icon" enable-background="new 0 0 24 24" height="512" viewBox="0 0 24 24" width="512" xmlns="http://www.w3.org/2000/svg"><path d="m10.95 19.65c-.499-.371-1.2-.014-1.2.6v.686c-.614-.034-1.214-.079-1.783-.142-4.875-.502-6.467-1.69-6.467-2.044 0-.414-.336-.75-.75-.75s-.75.336-.75.75c0 2.466 5.464 3.294 7.808 3.536.62.068 1.271.118 1.942.154v.81c0 .618.707.968 1.2.6l2-1.5c.188-.142.3-.364.3-.6s-.111-.458-.3-.6z"/><path d="m23.25 18c-.414 0-.75.336-.75.75 0 .443-2.057 1.678-7.148 2.103-.413.035-.72.397-.685.81.032.392.36.688.746.688.021 0 .042-.001.063-.002 2.563-.216 8.524-.995 8.524-3.599 0-.414-.336-.75-.75-.75z"/><path d="m20 5.75c-.552 0-1-.448-1-1v-1.75c0-.551-.449-1-1-1h-12c-.551 0-1 .449-1 1v1.75c0 .552-.448 1-1 1s-1-.448-1-1v-1.75c0-1.654 1.346-3 3-3h12c1.654 0 3 1.346 3 3v1.75c0 .552-.448 1-1 1z"/><path d="m13.5 9.125c0-.345-.28-.625-.625-.625h-.375v1.25h.375c.345 0 .625-.28.625-.625z"/><path d="m21.25 4h-18.5c-1.517 0-2.75 1.233-2.75 2.75v7.5c0 1.517 1.233 2.75 2.75 2.75h6.08c.323 0 .609-.207.711-.513l.438-1.316c.035-.102.13-.171.238-.171h3.565c.108 0 .203.069.237.17l.438 1.316c.104.307.39.514.713.514h6.08c1.517 0 2.75-1.233 2.75-2.75v-7.5c0-1.517-1.233-2.75-2.75-2.75zm-12.039 3.987-1.5 4.5c-.102.306-.388.513-.711.513s-.609-.207-.711-.513l-1.5-4.5c-.131-.393.081-.818.474-.948s.818.082.949.474l.788 2.365.789-2.366c.13-.393.554-.606.949-.474.392.131.604.556.473.949zm5.569 3.733c.293.293.293.768 0 1.061s-.768.293-1.061 0l-1.22-1.22v.689c0 .414-.336.75-.75.75s-.749-.336-.749-.75v-4.5c0-.414.336-.75.75-.75h1.125c1.172 0 2.125.953 2.125 2.125 0 .763-.407 1.427-1.012 1.802zm3.72-1.72c-.828 0-1.5-.672-1.5-1.5s.672-1.5 1.5-1.5 1.5.672 1.5 1.5-.672 1.5-1.5 1.5z"/></svg>
