<svg id="icon" enable-background="new 0 0 24 24" height="512" viewBox="0 0 24 24" width="512" xmlns="http://www.w3.org/2000/svg"><path d="m22.302 2.66-.311-1.945c-.058-.364-.372-.631-.741-.631h-3.5c-.369 0-.683.268-.741.631l-.311 1.945c-.973.248-1.698 1.124-1.698 2.173v5.5c0 1.049.725 1.926 1.698 2.173l.311 1.945c.058.364.372.631.741.631h3.5c.369 0 .683-.268.741-.631l.311-1.945c.973-.247 1.698-1.123 1.698-2.173v-5.5c0-1.049-.725-1.925-1.698-2.173zm.198 7.673c0 .414-.336.75-.75.75h-4.5c-.414 0-.75-.336-.75-.75v-5.5c0-.414.336-.75.75-.75h4.5c.414 0 .75.336.75.75z"/><path d="m14 19.25v-1.5c0-.414.336-.75.75-.75h2.359c-1.063-.252-1.896-1.109-2.075-2.232l-.123-.768h-12.836l2.1-3.5h1.495c.748.748 1.761 1.171 2.83 1.171s2.082-.423 2.83-1.171h1.56s.11-.055.11-.167v-1.333h-2c-.223 0-.434.099-.576.27-.955 1.146-2.893 1.146-3.848 0-.142-.171-.353-.27-.576-.27h-2.25c-.264 0-.508.139-.644.364l-3 5c-.029.049-.106.313-.106.386v2.25h3.25c.414 0 .75.336.75.75v1.5c0 .414-.336.75-.75.75h-3.25v1.25c0 1.517 1.233 2.75 2.75 2.75h2.813c.818 0 1.589-.36 2.112-.989l.364-.438c.477-.57 1.443-.571 1.92.001l.364.437c.525.629 1.295.989 2.114.989h2.813c1.517 0 2.75-1.233 2.75-2.75v-1.25h-3.25c-.414 0-.75-.336-.75-.75zm-2.75-.25h-4.5c-.414 0-.75-.336-.75-.75s.336-.75.75-.75h4.5c.414 0 .75.336.75.75s-.336.75-.75.75z"/></svg>
