<svg id="icon" enable-background="new 0 0 24 24" height="512" viewBox="0 0 24 24" width="512" xmlns="http://www.w3.org/2000/svg"><path d="m20 9.75c-.552 0-1-.448-1-1v-1.75c0-.551-.449-1-1-1h-12c-.551 0-1 .449-1 1v1.75c0 .552-.448 1-1 1s-1-.448-1-1v-1.75c0-1.654 1.346-3 3-3h12c1.654 0 3 1.346 3 3v1.75c0 .552-.448 1-1 1z"/><path d="m21.25 8h-5.25v2.25c0 .965-.785 1.75-1.75 1.75h-4.5c-.965 0-1.75-.785-1.75-1.75v-2.25h-5.25c-1.517 0-2.75 1.233-2.75 2.75v7.5c0 1.517 1.233 2.75 2.75 2.75h5.25v-2.25c0-.965.785-1.75 1.75-1.75h4.5c.965 0 1.75.785 1.75 1.75v2.25h5.25c1.517 0 2.75-1.233 2.75-2.75v-7.5c0-1.517-1.233-2.75-2.75-2.75zm-1.75 8c-.828 0-1.5-.672-1.5-1.5s.672-1.5 1.5-1.5 1.5.672 1.5 1.5-.672 1.5-1.5 1.5z"/><path d="m10.25 10h3.5c.136 0 .25-.114.25-.25v-1.75h-4v1.75c0 .136.114.25.25.25z"/><path d="m10.25 19h3.5c.136 0 .25.114.25.25v1.75h-4v-1.75c0-.136.114-.25.25-.25z"/></svg>
