<svg id="icon" enable-background="new 0 0 24 24" height="512" viewBox="0 0 24 24" width="512" xmlns="http://www.w3.org/2000/svg"><path d="m21.25 7h-18.5c-1.517 0-2.75 1.233-2.75 2.75v8.5c0 1.517 1.233 2.75 2.75 2.75h5.514c1.048 0 1.99-.583 2.459-1.521l.158-.316c.216-.433.634-.691 1.118-.691s.902.258 1.118.69l.158.317c.469.938 1.412 1.52 2.459 1.52h5.514c1.517 0 2.75-1.233 2.75-2.75v-8.5c.002-1.516-1.231-2.749-2.748-2.749zm-11.25 8.25c0 .965-.785 1.75-1.75 1.75h-3.5c-.965 0-1.75-.785-1.75-1.75v-3.5c0-.965.785-1.75 1.75-1.75h3.5c.965 0 1.75.785 1.75 1.75zm11 0c0 .965-.785 1.75-1.75 1.75h-3.5c-.965 0-1.75-.785-1.75-1.75v-3.5c0-.965.785-1.75 1.75-1.75h3.5c.965 0 1.75.785 1.75 1.75z"/><path d="m20 8.75c-.552 0-1-.448-1-1v-1.75c0-.551-.449-1-1-1h-12c-.551 0-1 .449-1 1v1.75c0 .552-.448 1-1 1s-1-.448-1-1v-1.75c0-1.654 1.346-3 3-3h12c1.654 0 3 1.346 3 3v1.75c0 .552-.448 1-1 1z"/><path d="m7 15h-1c-.552 0-1-.448-1-1v-1c0-.552.448-1 1-1h1c.552 0 1 .448 1 1v1c0 .552-.448 1-1 1z"/><path d="m18 15h-1c-.552 0-1-.448-1-1v-1c0-.552.448-1 1-1h1c.552 0 1 .448 1 1v1c0 .552-.448 1-1 1z"/></svg>
