<svg id="icon" enable-background="new 0 0 24 24" height="512" viewBox="0 0 24 24" width="512" xmlns="http://www.w3.org/2000/svg"><path d="m12 13c-3.584 0-6.5-2.916-6.5-6.5s2.916-6.5 6.5-6.5 6.5 2.916 6.5 6.5-2.916 6.5-6.5 6.5zm0-11.5c-2.757 0-5 2.243-5 5s2.243 5 5 5 5-2.243 5-5-2.243-5-5-5z"/><path d="m9.5 1.085h1.5v10.829h-1.5z"/><path d="m13 1.085h1.5v10.829h-1.5z"/><path d="m6.585 4h10.83v1.5h-10.83z"/><path d="m6.585 7.5h10.83v1.5h-10.83z"/><path d="m10.25 22h3.5c.136 0 .25.114.25.25v1.75h-4v-1.75c0-.136.114-.25.25-.25z"/><path d="m21.25 11h-2.052c-.833 1.328-2.021 2.408-3.433 3.109-.301.529-.864.891-1.515.891h-4.5c-.651 0-1.214-.362-1.515-.891-1.412-.701-2.599-1.781-3.433-3.109h-2.052c-1.517 0-2.75 1.233-2.75 2.75v7.5c0 1.517 1.233 2.75 2.75 2.75h5.25v-2.25c0-.965.785-1.75 1.75-1.75h4.5c.965 0 1.75.785 1.75 1.75v2.25h5.25c1.517 0 2.75-1.233 2.75-2.75v-7.5c0-1.517-1.233-2.75-2.75-2.75zm-1.75 8c-.828 0-1.5-.672-1.5-1.5s.672-1.5 1.5-1.5 1.5.672 1.5 1.5-.672 1.5-1.5 1.5z"/><path d="m3.663 8.143c-.409.512-.663 1.152-.663 1.857v1.75c0 .552.448 1 1 1s1-.448 1-1v-.439c-.647-.938-1.11-2.011-1.337-3.168z"/><path d="m20.337 8.143c-.227 1.157-.69 2.23-1.337 3.168v.439c0 .552.448 1 1 1s1-.448 1-1v-1.75c0-.705-.254-1.345-.663-1.857z"/></svg>
