<svg id="icon" enable-background="new 0 0 24 24" height="512" viewBox="0 0 24 24" width="512" xmlns="http://www.w3.org/2000/svg"><circle cx="12" cy="7" r="1"/><path d="m13.504 5.15c-.81-.839-2.199-.839-3.009 0-.287.299-.762.307-1.06.019s-.307-.762-.019-1.06c1.38-1.431 3.787-1.431 5.167 0 .288.298.279.772-.019 1.06-.298.289-.774.279-1.06-.019z"/><path d="m15.21 2.88c-.858-.89-1.999-1.38-3.21-1.38s-2.352.49-3.21 1.38c-.287.3-.762.308-1.061.02s-.306-.763-.019-1.061c1.144-1.186 2.667-1.839 4.29-1.839s3.146.653 4.29 1.839c.287.298.279.773-.02 1.061-.298.288-.772.279-1.06-.02z"/><path d="m20 12.75c-.552 0-1-.448-1-1v-1.75c0-.551-.449-1-1-1h-1c-.552 0-1-.448-1-1s.448-1 1-1h1c1.654 0 3 1.346 3 3v1.75c0 .552-.448 1-1 1z"/><path d="m4 12.75c-.552 0-1-.448-1-1v-1.75c0-1.654 1.346-3 3-3h1c.552 0 1 .448 1 1s-.448 1-1 1h-1c-.551 0-1 .449-1 1v1.75c0 .552-.448 1-1 1z"/><path d="m10.25 13h3.5c.136 0 .25-.114.25-.25v-1.75h-4v1.75c0 .136.114.25.25.25z"/><path d="m13.75 22h-3.5c-.136 0-.25.114-.25.25v1.75h4v-1.75c0-.136-.114-.25-.25-.25z"/><path d="m21.25 11h-5.25v2.25c0 .965-.785 1.75-1.75 1.75h-4.5c-.965 0-1.75-.785-1.75-1.75v-2.25h-5.25c-1.517 0-2.75 1.233-2.75 2.75v7.5c0 1.517 1.233 2.75 2.75 2.75h5.25v-2.25c0-.965.785-1.75 1.75-1.75h4.5c.965 0 1.75.785 1.75 1.75v2.25h5.25c1.517 0 2.75-1.233 2.75-2.75v-7.5c0-1.517-1.233-2.75-2.75-2.75zm-1.75 8c-.828 0-1.5-.672-1.5-1.5s.672-1.5 1.5-1.5 1.5.672 1.5 1.5-.672 1.5-1.5 1.5z"/></svg>
