<svg id="icon" enable-background="new 0 0 24 24" height="512" viewBox="0 0 24 24" width="512" xmlns="http://www.w3.org/2000/svg"><path d="m19.25 8h-14.5c-1.517 0-2.75 1.233-2.75 2.75v2.5c0 1.517 1.233 2.75 2.75 2.75h14.5c1.517 0 2.75-1.233 2.75-2.75v-2.5c0-1.517-1.233-2.75-2.75-2.75zm-3.75 5c-.828 0-1.5-.672-1.5-1.5s.672-1.5 1.5-1.5 1.5.672 1.5 1.5-.672 1.5-1.5 1.5z"/><path d="m12 20.999c-.938 0-1.874-.196-2.604-.588-.365-.196-.502-.65-.307-1.015.196-.365.65-.505 1.016-.306 1.027.551 2.764.551 3.791 0 .364-.196.819-.059 1.016.306.195.365.059.819-.307 1.015-.731.392-1.668.588-2.605.588z"/><path d="m23 14h-2c-.552 0-1-.448-1-1v-2c0-.552.448-1 1-1h2c.552 0 1 .448 1 1v2c0 .552-.448 1-1 1z"/><path d="m3 14h-2c-.552 0-1-.448-1-1v-2c0-.552.448-1 1-1h2c.552 0 1 .448 1 1v2c0 .552-.448 1-1 1z"/><path d="m12.01 24c-5.889 0-8.892-4.875-9.738-9.438-.101-.543.258-1.065.801-1.166.543-.102 1.064.258 1.166.801.339 1.831 1.903 7.803 7.771 7.803 4.207 0 6.746-2.558 7.764-7.82.104-.542.634-.896 1.171-.792.543.105.897.629.792 1.172-1.508 7.802-6.123 9.44-9.727 9.44z"/><path d="m20.783 10.976-6.75-1.5c-2.3-.499-4.311-1.967-5.545-3.055-.54 1.277-1.491 2.582-2.561 2.989l-2.412 1.447c-.666.4-1.515-.081-1.515-.857v-1.51c0-5.833 5.188-8.49 10.01-8.49 4.811 0 9.99 2.66 9.99 8.5v1.5c0 .644-.597 1.114-1.217.976z"/></svg>
