<svg id="icon" enable-background="new 0 0 24 24" height="512" viewBox="0 0 24 24" width="512" xmlns="http://www.w3.org/2000/svg"><circle cx="19.5" cy="7" r="1"/><path d="m21.004 5.15c-.809-.839-2.199-.839-3.008 0-.287.299-.762.307-1.061.02-.298-.288-.307-.762-.02-1.061 1.379-1.431 3.789-1.431 5.168 0 .287.298.278.773-.02 1.061-.297.288-.771.279-1.059-.02z"/><path d="m22.71 2.88c-.858-.89-1.998-1.38-3.21-1.38s-2.352.49-3.21 1.38c-.288.3-.762.307-1.061.02-.298-.288-.307-.762-.02-1.061 1.145-1.186 2.668-1.839 4.291-1.839s3.146.653 4.29 1.839c.287.298.278.773-.02 1.061s-.772.279-1.06-.02z"/><path d="m0 8.75v4.5c0 1.517 1.233 2.75 2.75 2.75h.25v-10h-.25c-1.517 0-2.75 1.233-2.75 2.75z"/><path d="m22.481 7.19c-.054.844-.462 1.588-1.07 2.1.377.871.589 1.831.589 2.84 0 1.473-.445 2.89-1.288 4.098-1.021 1.464-1.562 3.181-1.562 4.965v1.807c0 .552.447 1 1 1s1-.448 1-1v-1.807c0-1.373.416-2.693 1.202-3.82 1.079-1.545 1.648-3.358 1.648-5.243 0-1.83-.543-3.533-1.469-4.964-.017.007-.033.018-.05.024z"/><path d="m11.307 20.968-2.907.889c-.015.004-.11.018-.125.023-.234 0-.426-.195-.426-.435v-3.098c0-.552-.447-1-1-1h-1.428l1.722-2.752c.464-.741.708-1.593.707-2.465 0-3.873 3.082-7.028 6.903-7.122-.002-.018-.722-.487-.91-.668-.344-.332-.57-.735-.703-1.161-4.152.837-7.29 4.532-7.29 8.955.001.494-.139.978-.402 1.4l-2.22 3.547c-.149.24-.228.512-.228.789 0 .815.661 1.478 1.475 1.478h1.375v2.098c0 1.342 1.088 2.435 2.426 2.435.269 0 .522-.042.711-.111l1.648-.504c.116.422.504.734.965.734.553 0 1-.448 1-1v-1.076c0-.317-.15-.615-.405-.804-.255-.188-.582-.245-.888-.152z"/><path d="m22.969 9.535c-.096-.318-.388-.535-.719-.535h-.542c-.546.608-1.327 1-2.208 1s-1.662-.392-2.208-1h-5.292v-1.25c0-.965-.785-1.75-1.75-1.75h-5.25v10h5.25c.965 0 1.75-.785 1.75-1.75v-1.25h11c.499 0 .862-.483.719-.965z"/></svg>
