<svg id="icon" height="512pt" viewBox="0 0 512 512" width="512pt" xmlns="http://www.w3.org/2000/svg"><path d="m61 250.183594v261.816406h120v-129.789062l-25.722656-25.722657c-5.867188 2.808594-12.351563 4.511719-19.277344 4.511719-24.8125 0-45-20.1875-45-45s20.1875-45 45-45 45 20.1875 45 45c0 6.925781-1.703125 13.410156-4.511719 19.277344l34.511719 34.511718v142.210938h30v-183.761719c-17.421875-6.214843-30-22.707031-30-42.238281 0-24.8125 20.1875-45 45-45s45 20.1875 45 45c0 19.53125-12.578125 36.023438-30 42.238281v183.761719h30v-142.210938l34.511719-34.511718c-2.808594-5.867188-4.511719-12.351563-4.511719-19.277344 0-24.8125 20.1875-45 45-45s45 20.1875 45 45-20.1875 45-45 45c-6.925781 0-13.410156-1.703125-19.277344-4.511719l-25.722656 25.722657v129.789062h120c0-93.796875 0-162.347656 0-261.816406l-195-139.289063zm0 0"/><path d="m256 271c-8.277344 0-15 6.722656-15 15s6.722656 15 15 15 15-6.722656 15-15-6.722656-15-15-15zm0 0"/><path d="m121 316c0 8.277344 6.722656 15 15 15s15-6.722656 15-15-6.722656-15-15-15-15 6.722656-15 15zm0 0"/><path d="m391 316c0-8.277344-6.722656-15-15-15s-15 6.722656-15 15 6.722656 15 15 15 15-6.722656 15-15zm0 0"/><path d="m256 0-256 182.4375v88.5625h31v-36.253906l225-160.710938 225 160.710938v36.253906h31v-88.5625zm0 0"/></svg>
