<svg id="icon" height="512pt" viewBox="0 0 512 512" width="512pt" xmlns="http://www.w3.org/2000/svg"><path d="m256 301c-8.277344 0-15 6.722656-15 15s6.722656 15 15 15 15-6.722656 15-15-6.722656-15-15-15zm0 0"/><path d="m181 181h150v30h-150zm0 0"/><path d="m121 346c0 8.277344 6.722656 15 15 15s15-6.722656 15-15-6.722656-15-15-15-15 6.722656-15 15zm0 0"/><path d="m391 346c0-8.277344-6.722656-15-15-15s-15 6.722656-15 15 6.722656 15 15 15 15-6.722656 15-15zm0 0"/><path d="m256 0c-140.609375 0-256 115.390625-256 256 0 114.515625 76.882812 211.605469 181 243.710938v-87.5l-25.722656-25.722657c-5.867188 2.808594-12.351563 4.511719-19.277344 4.511719-24.8125 0-45-20.1875-45-45s20.1875-45 45-45 45 20.1875 45 45c0 6.925781-1.703125 13.410156-4.511719 19.277344l34.511719 34.511718v106.988282c9.816406 1.757812 19.832031 4.625 30 5.222656v-153.761719c-17.421875-6.214843-30-22.707031-30-42.238281 0-24.8125 20.1875-45 45-45s45 20.1875 45 45c0 19.53125-12.578125 36.023438-30 42.238281v153.761719c10.167969-.59375 20.183594-3.464844 30-5.222656v-106.988282l34.511719-34.511718c-2.808594-5.867188-4.511719-12.351563-4.511719-19.277344 0-24.8125 20.1875-45 45-45s45 20.1875 45 45-20.1875 45-45 45c-6.925781 0-13.410156-1.703125-19.277344-4.511719l-25.722656 25.722657v87.5c104.117188-32.105469 181-129.195313 181-243.710938 0-140.609375-115.390625-256-256-256zm105 241h-210v-90h210zm60 15c0-90.980469-74.019531-165-165-165s-165 74.019531-165 165h-30c0-107.519531 87.480469-195 195-195s195 87.480469 195 195zm0 0"/></svg>
