<svg id="icon" height="512pt" viewBox="-31 0 512 512" width="512pt" xmlns="http://www.w3.org/2000/svg"><path d="m405 392c-19.53125 0-36.023438 12.578125-42.238281 30h-32.761719c0-27.003906 0-33.527344 0-61h97.5v-160.730469c13.207031-5.804687 22.5-18.9375 22.5-34.269531 0-20.683594-16.816406-37.5-37.5-37.5s-37.5 16.816406-37.5 37.5c0 15.332031 9.292969 28.460938 22.5 34.269531v130.730469h-67.5v-34.09375c-29.59375 21.355469-65.796875 34.09375-105 34.09375s-75.40625-12.738281-105-34.09375v125.09375h-32.761719c-6.214843-17.421875-22.707031-30-42.238281-30-24.8125 0-45 20.1875-45 45s20.1875 45 45 45c19.53125 0 36.023438-12.578125 42.238281-30h62.761719v-60h60v32.761719c-17.421875 6.214843-30 22.707031-30 42.238281 0 24.8125 20.1875 45 45 45s45-20.1875 45-45c0-19.53125-12.578125-36.023438-30-42.238281v-32.761719h60v60h62.761719c6.214843 17.421875 22.707031 30 42.238281 30 24.8125 0 45-20.1875 45-45s-20.1875-45-45-45zm0 0"/><path d="m225 301c82.703125 0 150-67.296875 150-150s-67.296875-151-150-151-150 68.296875-150 151 67.296875 150 150 150zm0-225c41.351562 0 75 33.648438 75 75s-33.648438 75-75 75-75-33.648438-75-75 33.648438-75 75-75zm0 0"/><path d="m225 196c24.8125 0 45-20.1875 45-45s-20.1875-45-45-45-45 20.1875-45 45 20.1875 45 45 45zm0 0"/></svg>
