<svg id="icon" height="512pt" viewBox="0 -16 512 512" width="512pt" xmlns="http://www.w3.org/2000/svg"><path d="m331 270h93.289062l-15.003906-60h-306.570312l-15.003906 60h93.289062v68.789062l-25.722656 25.722657c-5.867188-2.808594-12.351563-4.511719-19.277344-4.511719-24.8125 0-45 20.1875-45 45s20.1875 45 45 45 45-20.1875 45-45c0-6.925781-1.703125-13.410156-4.511719-19.277344l34.511719-34.511718v-81.210938h30v122.761719c-17.421875 6.214843-30 22.707031-30 42.238281 0 24.8125 20.1875 45 45 45s45-20.1875 45-45c0-19.53125-12.578125-36.023438-30-42.238281v-122.761719h30v81.210938l34.511719 34.511718c-2.808594 5.867188-4.511719 12.351563-4.511719 19.277344 0 24.8125 20.1875 45 45 45s45-20.1875 45-45-20.1875-45-45-45c-6.925781 0-13.410156 1.703125-19.277344 4.511719l-25.722656-25.722657zm0 0"/><path d="m117.71875 150-7.5 30h291.5625l-7.5-30zm0 0"/><path d="m0 0v270h56.792969l37.488281-150h323.4375l37.492188 150h56.789062v-270zm121 90h-30v-30h30zm60 0h-30v-30h30zm150 0h-60v-30h60zm90 0h-60v-30h60zm0 0"/></svg>
