<svg id="icon" height="512pt" viewBox="0 0 512 512" width="512pt" xmlns="http://www.w3.org/2000/svg"><path d="m0 0v331h181v-98.789062l-25.722656-25.722657c-5.867188 2.808594-12.351563 4.511719-19.277344 4.511719-24.8125 0-45-20.1875-45-45s20.1875-45 45-45 45 20.1875 45 45c0 6.925781-1.703125 13.410156-4.511719 19.277344l34.511719 34.511718v111.210938h30v-182.761719c-17.421875-6.214843-30-22.707031-30-42.238281 0-24.8125 20.1875-45 45-45s45 20.1875 45 45c0 19.53125-12.578125 36.023438-30 42.238281v182.761719h30v-111.210938l34.511719-34.511718c-2.808594-5.867188-4.511719-12.351563-4.511719-19.277344 0-24.8125 20.1875-45 45-45s45 20.1875 45 45-20.1875 45-45 45c-6.925781 0-13.410156-1.703125-19.277344-4.511719l-25.722656 25.722657v98.789062h181v-331zm0 0"/><path d="m271 106c0-8.277344-6.722656-15-15-15s-15 6.722656-15 15 6.722656 15 15 15 15-6.722656 15-15zm0 0"/><path d="m391 166c0-8.277344-6.722656-15-15-15s-15 6.722656-15 15 6.722656 15 15 15 15-6.722656 15-15zm0 0"/><path d="m0 421h211v61h-60v30h210v-30h-60v-61h211v-60h-512zm0 0"/><path d="m121 166c0 8.277344 6.722656 15 15 15s15-6.722656 15-15-6.722656-15-15-15-15 6.722656-15 15zm0 0"/></svg>
