<svg id="icon" height="512pt" viewBox="-16 0 512 512" width="512pt" xmlns="http://www.w3.org/2000/svg"><path d="m392.761719 270c6.214843 17.421875 22.707031 30 42.238281 30 24.8125 0 45-20.1875 45-45s-20.1875-45-45-45c-19.53125 0-36.023438 12.578125-42.238281 30h-122.761719v-30h49.539062l58.632813-39.089844c7.511719 5.632813 16.738281 9.089844 26.828125 9.089844 24.8125 0 45-20.1875 45-45s-20.1875-45-45-45-45 20.1875-45 45c0 3.804688.617188 7.4375 1.507812 10.964844l-51.046874 34.035156h-40.460938v-90h-270v300h270v-60h68.789062l25.722657 25.722656c-2.808594 5.867188-4.511719 12.351563-4.511719 19.277344 0 24.8125 20.1875 45 45 45s45-20.1875 45-45-20.1875-45-45-45c-6.925781 0-13.410156 1.703125-19.277344 4.511719l-34.511718-34.511719h-81.210938v-30zm-182.761719 60h-150v-81.210938l75-75 75 75zm0 0"/><path d="m0 0h270v60h-270zm0 0"/><path d="m90 261.210938v38.789062h30v-30h30v30h30v-38.789062l-45-45zm0 0"/><path d="m150 450h-30v-30h-120v92h270v-92h-120zm0 0"/></svg>
