<svg id="icon" height="512pt" viewBox="0 0 512 512" width="512pt" xmlns="http://www.w3.org/2000/svg"><path d="m256 121c8.277344 0 15-6.722656 15-15s-6.722656-15-15-15-15 6.722656-15 15 6.722656 15 15 15zm0 0"/><path d="m212.507812 116.964844c-.890624-3.527344-1.507812-7.160156-1.507812-10.964844 0-5.285156 1.082031-10.285156 2.761719-15h-122.761719v60h70.460938zm0 0"/><path d="m256 331c-8.277344 0-15 6.722656-15 15s6.722656 15 15 15 15-6.722656 15-15-6.722656-15-15-15zm0 0"/><path d="m236.722656 305.511719c5.867188-2.808594 12.351563-4.511719 19.277344-4.511719 24.8125 0 45 20.1875 45 45 0 5.285156-1.082031 10.285156-2.761719 15h122.761719v-270h-122.761719c1.679688 4.714844 2.761719 9.714844 2.761719 15 0 24.8125-20.1875 45-45 45-10.089844 0-19.316406-3.457031-26.828125-9.089844l-58.632813 39.089844h-79.539062v30h122.761719c6.214843-17.421875 22.707031-30 42.238281-30 24.8125 0 45 20.1875 45 45s-20.1875 45-45 45c-19.53125 0-36.023438-12.578125-42.238281-30h-122.761719v30h111.210938zm124.277344-154.511719h30v150h-30zm0 0"/><path d="m211 346c0-6.925781 1.703125-13.410156 4.511719-19.277344l-25.722657-25.722656h-98.789062v60h122.761719c-1.679688-4.714844-2.761719-9.714844-2.761719-15zm0 0"/><path d="m0 0v451h512v-451zm451 391h-390v-330h390zm0 0"/><path d="m271 226c0-8.277344-6.722656-15-15-15s-15 6.722656-15 15 6.722656 15 15 15 15-6.722656 15-15zm0 0"/><path d="m31 481h90v31h-90zm0 0"/><path d="m391 481h90v31h-90zm0 0"/></svg>
