<svg id="icon" height="512pt" viewBox="0 -31 512 512" width="512pt" xmlns="http://www.w3.org/2000/svg"><path d="m512 270v-270h-241v270h60v120h62.761719c6.214843 17.421875 22.707031 30 42.238281 30 24.8125 0 45-20.1875 45-45s-20.1875-45-45-45c-19.53125 0-36.023438 12.578125-42.238281 30h-32.761719v-90zm-76-210h30v30h-30zm0 60h30v30h-30zm0 60h30v30h-30zm-60-120h30v30h-30zm0 60h30v30h-30zm0 60h30v30h-30zm-30 30h-30v-30h30zm0-60h-30v-30h30zm0-60h-30v-30h30zm0 0"/><path d="m76 141.210938v38.789062h30v-30h30v30h30v-38.789062l-45-45zm0 0"/><path d="m0 0v270h151v90h-32.761719c-6.214843-17.421875-22.707031-30-42.238281-30-24.8125 0-45 20.1875-45 45s20.1875 45 45 45c19.53125 0 36.023438-12.578125 42.238281-30h62.761719v-120h60v-270zm196 210h-150v-81.210938l75-75 75 75zm0 0"/><path d="m241 362.761719c-17.421875 6.214843-30 22.707031-30 42.238281 0 24.8125 20.1875 45 45 45s45-20.1875 45-45c0-19.53125-12.578125-36.023438-30-42.238281v-92.761719h-30zm0 0"/></svg>
