<svg id="icon" height="512pt" viewBox="0 -16 512 512" width="512pt" xmlns="http://www.w3.org/2000/svg"><path d="m241 0h30v30h-30zm0 0"/><path d="m467 390c-19.53125 0-36.023438 12.578125-42.238281 30h-93.761719v-30h30v-30h-60v-30h30v-30h30v-30h-31.519531c-6.96875-34.191406-37.265625-60-73.480469-60s-66.511719 25.808594-73.480469 60h-31.519531v30h30v30h30v30h-60v30h30v30h-93.761719c-6.214843-17.421875-22.707031-30-42.238281-30-24.8125 0-45 20.1875-45 45s20.1875 45 45 45c19.53125 0 36.023438-12.578125 42.238281-30h337.523438c6.214843 17.421875 22.707031 30 42.238281 30 24.8125 0 45-20.1875 45-45s-20.1875-45-45-45zm0 0"/><path d="m241 60h30v30h-30zm0 0"/><path d="m241 120h30v30h-30zm0 0"/><path d="m133.988281 28.667969 15 25.988281-25.988281 15-14.996094-25.988281zm0 0"/><path d="m153.007812 121.609375 25.984376-15-15-25.96875-25.984376 15zm0 0"/><path d="m208.992188 158.578125-25.988282 15-15-25.988281 25.988282-15zm0 0"/><path d="m378.019531 28.660156 25.984375 15-14.996094 25.988282-25.988281-15zm0 0"/><path d="m373.992188 95.640625-25.984376-15-15 25.96875 25.984376 15zm0 0"/><path d="m318.019531 132.597656 25.988281 14.996094-15 25.988281-25.988281-15zm0 0"/><path d="m29.671875 122.011719 25.984375 15-14.996094 25.984375-25.988281-14.996094zm0 0"/><path d="m107.609375 167.007812-25.96875-15-15 25.984376 25.96875 15zm0 0"/><path d="m144.578125 222.988281-25.988281-15 15-25.984375 25.988281 15zm0 0"/><path d="m482.320312 122.015625 15 25.988281-25.988281 15-15-25.988281zm0 0"/><path d="m445.359375 177.992188-15-25.984376-25.96875 15 15 25.984376zm0 0"/><path d="m367.429688 222.988281-15-25.988281 25.988281-15 15 25.988281zm0 0"/></svg>
