<svg id="icon" height="512pt" viewBox="0 0 512 512" width="512pt" xmlns="http://www.w3.org/2000/svg"><path d="m467 211c-19.53125 0-36.023438 12.578125-42.238281 30h-33.761719v-30h-30v30h-30v-75c0-41.351562-33.648438-75-75-75s-75 33.648438-75 75h30c0-24.8125 20.1875-45 45-45s45 20.1875 45 45v75h-30v-90h-30v90h-30v-30h-30v30h-30v-75c0-57.890625 47.109375-105 105-105s105 47.109375 105 105h30c0-74.441406-60.558594-135-135-135s-135 60.558594-135 135v75h-33.761719c-6.214843-17.421875-22.707031-30-42.238281-30-24.8125 0-45 20.1875-45 45s20.1875 45 45 45c19.53125 0 36.023438-12.578125 42.238281-30h33.761719v30h30v-30h30v75c0 41.351562 33.648438 75 75 75s75-33.648438 75-75h-30c0 24.8125-20.1875 45-45 45s-45-20.1875-45-45v-75h30v90h30v-90h30v30h30v-30h30v75c0 57.890625-47.109375 105-105 105s-105-47.109375-105-105h-30c0 74.441406 60.558594 135 135 135s135-60.558594 135-135v-75h33.761719c6.214843 17.421875 22.707031 30 42.238281 30 24.8125 0 45-20.1875 45-45s-20.1875-45-45-45zm0 0"/><path d="m30 30h90v-30h-120v120h30zm0 0"/><path d="m392 0v30h90v90h30v-120zm0 0"/><path d="m30 392h-30v120h120v-30h-90zm0 0"/><path d="m482 482h-90v30h120v-120h-30zm0 0"/></svg>
