<svg id="icon" height="512pt" viewBox="0 0 512 512" width="512pt" xmlns="http://www.w3.org/2000/svg"><path d="m87.238281 30c-6.214843-17.421875-22.707031-30-42.238281-30-24.8125 0-45 20.1875-45 45s20.1875 45 45 45c19.53125 0 36.023438-12.578125 42.238281-30h18.761719v32.515625c-2.503906-.527344-4.839844-1.515625-7.5-1.515625-20.710938 0-38.5 16.789062-38.5 37.5v255c0 20.710938 17.789062 37.5 38.5 37.5 2.660156 0 4.996094-.988281 7.5-1.515625v32.515625h-18.761719c-6.214843-17.421875-22.707031-30-42.238281-30-24.8125 0-45 20.1875-45 45s20.1875 45 45 45c19.53125 0 36.023438-12.578125 42.238281-30h48.761719v-452zm0 0"/><path d="m467 422c-19.53125 0-36.023438 12.578125-42.238281 30h-17.761719v-32.515625c2.503906.527344 4.839844 1.515625 7.5 1.515625 20.710938 0 37.5-16.789062 37.5-37.5v-255c0-20.710938-16.789062-37.5-37.5-37.5-2.660156 0-4.996094.988281-7.5 1.515625v-32.515625h17.761719c6.214843 17.421875 22.707031 30 42.238281 30 24.8125 0 45-20.1875 45-45s-20.1875-45-45-45c-19.53125 0-36.023438 12.578125-42.238281 30h-48.761719v452h48.761719c6.214843 17.421875 22.707031 30 42.238281 30 24.8125 0 45-20.1875 45-45s-20.1875-45-45-45zm0 0"/><path d="m203.5 91c-20.710938 0-37.5 16.789062-37.5 37.5v255c0 20.710938 16.789062 37.5 37.5 37.5s37.5-16.789062 37.5-37.5v-255c0-20.710938-16.789062-37.5-37.5-37.5zm0 0"/><path d="m308.5 91c-20.710938 0-37.5 16.789062-37.5 37.5v255c0 20.710938 16.789062 37.5 37.5 37.5s37.5-16.789062 37.5-37.5v-255c0-20.710938-16.789062-37.5-37.5-37.5zm0 0"/></svg>
