<svg id="icon" height="512pt" viewBox="0 -16 512 512" width="512pt" xmlns="http://www.w3.org/2000/svg"><path d="m424.761719 330c6.214843 17.421875 22.707031 30 42.238281 30 24.8125 0 45-20.1875 45-45s-20.1875-45-45-45c-19.53125 0-36.023438 12.578125-42.238281 30h-93.761719v-30h-60v-30h60v-60h-331v60h60v30h-60v90h60v30h-60v60h331v-60h-60v-30h60v-30zm-243.761719-4.613281v34.613281h-30v-34.613281c-8.800781-5.234375-15-14.429688-15-25.386719 0-16.539062 13.460938-30 30-30s30 13.460938 30 30c0 10.957031-6.199219 20.152344-15 25.386719zm0 0"/><path d="m350.539062 270 58.632813-39.089844c7.511719 5.632813 16.738281 9.089844 26.828125 9.089844 24.8125 0 45-20.1875 45-45s-20.1875-45-45-45-45 20.1875-45 45c0 3.804688.617188 7.4375 1.507812 10.964844l-51.046874 34.035156h-10.460938v30zm0 0"/><path d="m369.789062 390 25.722657 25.722656c-2.808594 5.867188-4.511719 12.351563-4.511719 19.277344 0 24.8125 20.1875 45 45 45s45-20.1875 45-45-20.1875-45-45-45c-6.925781 0-13.410156 1.703125-19.277344 4.511719l-34.511718-34.511719h-51.210938v30zm0 0"/><path d="m106 135c0-33.089844 26.910156-60 60-60s60 26.910156 60 60v15h75v-15c0-74.441406-60.558594-135-135-135s-135 60.558594-135 135v15h75zm0 0"/></svg>
