<svg id="icon" height="512pt" viewBox="0 0 512 512" width="512pt" xmlns="http://www.w3.org/2000/svg"><path d="m467 421c-19.53125 0-36.023438 12.578125-42.238281 30h-41.082031c-10.394532-17.859375-29.527344-30-51.679688-30h-332v91h392v-31h32.761719c6.214843 17.421875 22.707031 31 42.238281 31 24.8125 0 45-21.1875 45-46s-20.1875-45-45-45zm0 0"/><path d="m182 391h150v-30c33.089844 0 60-26.910156 60-60s-26.910156-60-60-60c-54.226562 0-94.851562 0-150 0zm150-120c16.539062 0 30 13.460938 30 30s-13.460938 30-30 30zm0 0"/><path d="m392 76c0-5.136719-.527344-10.152344-1.519531-15h34.28125c6.214843 17.421875 22.707031 30 42.238281 30 24.8125 0 45-20.1875 45-45s-20.1875-46-45-46c-19.53125 0-36.023438 13.578125-42.238281 31h-47.761719v.464844c-13.683594-18.378906-35.378906-31.464844-60-31.464844h-317v91h392zm0 0"/><path d="m152 121h-152v270h152zm-61 210h-30v-30h30zm0-60h-30v-30h30zm0-60h-30v-30h30zm0 0"/><path d="m272 211v-30h30v-60h-90v60h30v30zm0 0"/></svg>
