<svg id="icon" height="512pt" viewBox="0 0 512 512.00041" width="512pt" xmlns="http://www.w3.org/2000/svg"><path d="m424.675781 240.898438c6.214844 17.429687 22.714844 30.011718 42.253907 30.011718 24.824218 0 45.015624-20.191406 45.015624-45.015625s-20.191406-45.015625-45.015624-45.015625c-19.539063 0-36.039063 12.582032-42.253907 30.011719h-100.261719c2.757813-9.75 4.6875-19.753906 5.613282-30.011719h20.398437l58.652344-39.101562c7.515625 5.628906 16.746094 9.089844 26.839844 9.089844 24.824219 0 45.015625-20.195313 45.015625-45.015626 0-24.824218-20.191406-45.019531-45.015625-45.019531s-45.015625 20.195313-45.015625 45.019531c0 3.804688.617187 7.4375 1.507812 10.96875l-51.070312 34.046876h-11.296875c-3.988281-44.183594-25.332031-84.824219-60.199219-113.15625-38.757812-31.507813-89.59375-44.609376-139.445312-34.191407-64.769532 13.511719-116.667969 67.660157-127.9375 133.238281-10.316407 60.0625 12.261718 118.707032 59.050781 156.867188 12.378906 10.089844 20.832031 23.152344 25.382812 37.308594h157.527344c3.488281-11.699219 10.011719-21.796875 18.324219-30.011719h106.9375l25.730468 25.730469c-2.808593 5.871094-4.511718 12.359375-4.511718 19.289062 0 24.820313 20.191406 45.015625 45.015625 45.015625s45.015625-20.195312 45.015625-45.015625c0-24.824218-20.191406-45.019531-45.015625-45.019531-6.929688 0-13.417969 1.707031-19.285157 4.511719l-34.523437-34.519532h-89.164063c7.734376-9.296874 14.324219-19.363281 19.785157-30.011718h111.945312zm-243.851562-8.789063v68.8125h-30.011719v-68.8125l-55.625-55.625 21.21875-21.21875 49.410156 49.410156 49.414063-49.410156 21.21875 21.21875zm0 0"/><path d="m120.800781 480.988281h90.03125v31.011719h-90.03125zm0 0"/><path d="m90.789062 360.945312h150.054688v90.03125h-150.054688zm0 0"/></svg>
