<svg id="icon" height="512pt" viewBox="0 0 512 512" width="512pt" xmlns="http://www.w3.org/2000/svg"><path d="m424.761719 241c6.214843 17.421875 22.707031 30 42.238281 30 24.8125 0 45-20.1875 45-45s-20.1875-45-45-45c-19.53125 0-36.023438 12.578125-42.238281 30h-63.761719v-55.09375l36.0625-34.90625h27.699219c6.214843 17.421875 22.707031 30 42.238281 30 24.8125 0 45-20.1875 45-45s-20.1875-45-45-45c-19.53125 0-36.023438 12.578125-42.238281 30h-39.828125l-23.933594 23.160156v-114.160156h-361v61h121v300h-30v61h60v30c0 16.5-13.5 30-30 30s-30-13.5-30-30v-30h-30v30c0 33 27 60 60 60s60-27 60-60v-30h180v-77.972656l25.460938 16.972656h38.300781c6.214843 17.421875 22.707031 30 42.238281 30 24.8125 0 45-20.1875 45-45s-20.1875-45-45-45c-19.53125 0-36.023438 12.578125-42.238281 30h-29.222657l-34.539062-23.027344v-66.972656zm-198.761719 120h-60v-30h60zm0-60h-60v-30h60zm0-60h-60v-30h60zm90 120h-60v-30h60zm0-60h-60v-30h60zm0-60h-60v-30h60zm0-60h-150v-120h150zm0 0"/><path d="m0 91h91v240h-91zm0 0"/><path d="m0 361h61v61h-61zm0 0"/><path d="m196 91h90v60h-90zm0 0"/></svg>
