<svg id="icon" height="512pt" viewBox="0 0 512 512" width="512pt" xmlns="http://www.w3.org/2000/svg"><path d="m211 301h90v90h-90zm0 0"/><path d="m61 250.183594v261.816406h390c0-93.796875 0-162.347656 0-261.816406l-195-139.289063zm240 20.816406v-45h30v45h45v30h-45v30h45v30h-45v30h45v30h-45v45h-30v-45h-30v45h-30v-45h-30v45h-30v-45h-45v-30h45v-30h-45v-30h45v-30h-45v-30h45v-45h30v45h30v-45h30v45zm0 0"/><path d="m256 0-256 182.4375v88.5625h31v-36.253906l225-160.710938 225 160.710938v36.253906h31v-88.5625zm0 0"/></svg>
