<svg id="icon" height="512pt" viewBox="-31 0 512 512" width="512pt" xmlns="http://www.w3.org/2000/svg"><path d="m362.761719 271c6.214843 17.421875 22.707031 30 42.238281 30 24.8125 0 45-20.1875 45-45s-20.1875-45-45-45c-19.53125 0-36.023438 12.578125-42.238281 30h-302.761719v201.210938l75 69.789062 81.210938-76-30-30 30-30-30-30 15-15h107.578124l25.722657 25.722656c-2.808594 5.867188-4.511719 12.351563-4.511719 19.277344 0 24.8125 20.1875 45 45 45s45-20.1875 45-45-20.1875-45-45-45c-6.925781 0-13.410156 1.703125-19.277344 4.511719l-34.511718-34.511719h-111.210938v-30zm0 0"/><path d="m135 121c19.554688 0 36.238281-12.539062 42.4375-30h-84.875c6.199219 17.460938 22.882812 30 42.4375 30zm0 0"/><path d="m375 91c-24.8125 0-45 20.1875-45 45 0 3.804688.617188 7.4375 1.507812 10.964844l-51.046874 34.035156h-10.460938v-181h-270v211h289.539062l58.632813-39.089844c7.511719 5.632813 16.738281 9.089844 26.828125 9.089844 24.8125 0 45-20.1875 45-45s-20.1875-45-45-45zm-165-15c0 41.351562-33.648438 75-75 75s-75-33.648438-75-75v-15h150zm0 0"/></svg>
