<svg id="icon" height="512pt" viewBox="0 0 512 512" width="512pt" xmlns="http://www.w3.org/2000/svg"><path d="m512 45c0-24.8125-20.1875-45-45-45s-45 20.1875-45 45c0 19.53125 12.578125 36.023438 30 42.238281v33.761719h-90v39.800781h120c0-34.394531 0-42.546875 0-73.5625 17.421875-6.214843 30-22.707031 30-42.238281zm0 0"/><path d="m30 160.800781h302v-39.800781h-272v-33.761719c17.421875-6.214843 30-22.707031 30-42.238281 0-24.8125-20.1875-45-45-45s-45 20.1875-45 45c0 19.53125 12.578125 36.023438 30 42.238281zm0 0"/><path d="m30 191h302v39.800781h-302zm0 0"/><path d="m120 331h121v91h-121zm0 0"/><path d="m332 331h-61v91h121v-91h-30v60h-30zm0 0"/><path d="m30 261h302v40h-302zm0 0"/><path d="m362 191h120v39.800781h-120zm0 0"/><path d="m422 452h-332v-121h-60v181h452v-181h-60zm0 0"/><path d="m362 261h120v40h-120zm0 0"/></svg>
