<svg id="icon" height="512pt" viewBox="0 0 512 512" width="512pt" xmlns="http://www.w3.org/2000/svg"><path d="m479.480469 121c-6.96875-34.191406-37.265625-60-73.480469-60h-75v-16c0-24.8125-20.1875-45-45-45h-60c-24.8125 0-45 20.1875-45 45v16h-75c-36.214844 0-66.511719 25.808594-73.480469 60h-32.519531v30h512v-30zm-268.480469-76c0-8.277344 6.722656-15 15-15h60c8.277344 0 15 6.722656 15 15v16h-90zm0 0"/><path d="m256 271c-8.277344 0-15 6.722656-15 15s6.722656 15 15 15 15-6.722656 15-15-6.722656-15-15-15zm0 0"/><path d="m31 512h150v-129.789062l-25.722656-25.722657c-5.867188 2.808594-12.351563 4.511719-19.277344 4.511719-24.8125 0-45-20.1875-45-45s20.1875-45 45-45 45 20.1875 45 45c0 6.925781-1.703125 13.410156-4.511719 19.277344l34.511719 34.511718v142.210938h30v-183.761719c-17.421875-6.214843-30-22.707031-30-42.238281 0-24.8125 20.1875-45 45-45s45 20.1875 45 45c0 19.53125-12.578125 36.023438-30 42.238281v183.761719h30v-142.210938l34.511719-34.511718c-2.808594-5.867188-4.511719-12.351563-4.511719-19.277344 0-24.8125 20.1875-45 45-45s45 20.1875 45 45-20.1875 45-45 45c-6.925781 0-13.410156-1.703125-19.277344-4.511719l-25.722656 25.722657v129.789062h150v-331h-450zm0 0"/><path d="m391 316c0-8.277344-6.722656-15-15-15s-15 6.722656-15 15 6.722656 15 15 15 15-6.722656 15-15zm0 0"/><path d="m121 316c0 8.277344 6.722656 15 15 15s15-6.722656 15-15-6.722656-15-15-15-15 6.722656-15 15zm0 0"/></svg>
