<svg id="icon" height="512pt" viewBox="-16 0 512 512" width="512pt" xmlns="http://www.w3.org/2000/svg"><path d="m120 76c-33.089844 0-60 26.910156-60 60s26.910156 60 60 60c24.734375 0 39.136719-12.222656 52.515625-30h187.484375v-60h-187.484375c-13.378906-17.777344-27.78125-30-52.515625-30zm0 0"/><path d="m120 301c-8.277344 0-15 6.722656-15 15s6.722656 15 15 15 15-6.722656 15-15-6.722656-15-15-15zm0 0"/><path d="m392.761719 361c6.214843 17.421875 22.707031 30 42.238281 30 24.8125 0 45-20.1875 45-45s-20.1875-45-45-45c-19.53125 0-36.023438 12.578125-42.238281 30h-152.761719v-30h111.210938l34.511718-34.511719c5.867188 2.808594 12.351563 4.511719 19.277344 4.511719 24.8125 0 45-20.1875 45-45s-20.1875-45-45-45-45 20.1875-45 45c0 6.925781 1.703125 13.410156 4.511719 19.277344l-25.722657 25.722656h-98.789062v-75h-52.9375c-16.992188 18.910156-41.53125 30-67.0625 30-49.628906 0-90-40.371094-90-90s40.371094-90 90-90c25.53125 0 50.066406 11.089844 67.0625 30h52.9375v-76h-240v512h240v-90h98.789062l25.722657 25.722656c-2.808594 5.867188-4.511719 12.351563-4.511719 19.277344 0 24.8125 20.1875 45 45 45s45-20.1875 45-45-20.1875-45-45-45c-6.925781 0-13.410156 1.703125-19.277344 4.511719l-34.511718-34.511719h-111.210938v-31zm-257.761719-2.761719v62.761719h-30v-62.761719c-17.421875-6.214843-30-22.707031-30-42.238281 0-24.8125 20.1875-45 45-45s45 20.1875 45 45c0 19.53125-12.578125 36.023438-30 42.238281zm0 0"/></svg>
