<svg id="icon" height="512pt" viewBox="0 0 512 512" width="512pt" xmlns="http://www.w3.org/2000/svg"><path d="m121 301h270v30h-270zm0 0"/><path d="m121 241h270v30h-270zm0 0"/><path d="m271 414.789062 34.394531-34.394531 21.210938 21.210938-70.605469 70.605469-70.605469-70.605469 21.210938-21.210938 34.394531 34.394531v-53.789062h-120v151h270v-151h-120zm0 0"/><path d="m166 60h180c52.808594 0 96.636719 39.183594 103.929688 90h62.070312c-7.613281-83.96875-80.082031-150-166-150h-180c-85.917969 0-158.386719 66.03125-166 150h62.070312c7.292969-50.816406 51.121094-90 103.929688-90zm0 0"/><path d="m421 166c0-41.351562-33.648438-75-75-75h-180c-41.351562 0-75 33.648438-75 75v15h-61v331h61v-301h330v301h61v-331h-61zm-240 15h-60v-30h60zm120 0h-90v-30h90zm90 0h-60v-30h60zm0 0"/></svg>
