<svg id="icon" height="512pt" viewBox="0 0 512 512" width="512pt" xmlns="http://www.w3.org/2000/svg"><path d="m482 424.761719v-88.035157l-61-30v-5.726562h-90v90h90v-50.726562l31 15v69.488281c-17.421875 6.214843-30 22.707031-30 42.238281 0 24.8125 20.1875 45 45 45s45-20.1875 45-45c0-19.53125-12.578125-36.023438-30-42.238281zm0 0"/><path d="m211 301h90v90h-90zm0 0"/><path d="m211 181h90v90h-90zm0 0"/><path d="m331 181v90h90v-5.726562l61-30v-87.039063c17.421875-6.210937 30-22.707031 30-42.234375 0-24.816406-20.1875-45-45-45s-45 20.183594-45 45c0 19.527344 12.578125 36.023438 30 42.234375v68.492187l-31 15v-50.726562zm0 0"/><path d="m91 306.726562-61 30v88.039063c-17.421875 6.210937-30 22.703125-30 42.234375 0 24.8125 20.1875 45 45 45s45-20.1875 45-45c0-19.53125-12.578125-36.023438-30-42.238281v-69.488281l31-15v50.726562h90v-90h-90zm0 0"/><path d="m91 231.726562-31-15v-68.488281c17.421875-6.214843 30-22.707031 30-42.238281 0-24.8125-20.1875-45-45-45s-45 20.1875-45 45c0 19.53125 12.578125 36.023438 30 42.238281v87.035157l61 30v5.726562h90v-90h-90zm0 0"/><path d="m152.378906 151h207.242188c.71875-4.957031 1.378906-9.933594 1.378906-15h30v-30h-34.894531c-3.582031-11.894531-9.03125-22.878906-16.308594-32.59375l22.273437-22.265625-21.210937-21.210937-22.273437 22.265624c-13.707032-10.265624-29.890626-17.113281-47.585938-19.679687v-32.515625h-30v32.515625c-17.699219 2.566406-33.882812 9.417969-47.589844 19.683594l-22.269531-22.269531-21.210937 21.210937 22.269531 22.269531c-7.277344 9.714844-12.726563 20.695313-16.304688 32.589844h-34.894531v30h30c0 5.066406.660156 10.042969 1.378906 15zm0 0"/></svg>
