<svg id="icon" height="512pt" viewBox="0 0 512 512" width="512pt" xmlns="http://www.w3.org/2000/svg"><path d="m284.882812 391.050781c-6.921874 0-13.40625 1.699219-19.269531 4.507813l-25.710937-25.710938v-310.023437l123.390625-30.628907-6.878907-29.195312-266.449218 64.304688v305.542968l-25.710938 25.710938c-5.867187-2.808594-12.347656-4.507813-19.273437-4.507813-24.800781 0-44.980469 20.175781-44.980469 44.980469s20.179688 44.980469 44.980469 44.980469c24.804687 0 44.984375-20.175781 44.984375-44.980469 0-6.925781-1.703125-13.40625-4.507813-19.269531l34.492188-34.496094v-81.179687h29.988281v123.710937c-17.414062 6.210937-29.988281 22.699219-29.988281 42.222656 0 24.800781 20.179687 44.980469 44.984375 44.980469 24.804687 0 44.980468-20.179688 44.980468-44.980469 0-19.523437-12.574218-36.011719-29.988281-42.222656v-123.710937h29.988281v81.179687l34.496094 34.496094c-2.804687 5.863281-4.507812 12.34375-4.507812 19.269531 0 24.804688 20.175781 44.980469 44.980468 44.980469 24.804688 0 44.984376-20.175781 44.984376-44.980469s-20.179688-44.980469-44.984376-44.980469zm0 0"/><path d="m269.890625 121.160156h241.902344v89.960938h-241.902344zm0 0"/><path d="m390.839844 241.109375h120.953125v29.988281h-120.953125zm0 0"/></svg>
