<svg id="icon" height="512pt" viewBox="-120 0 512 512" width="512pt" xmlns="http://www.w3.org/2000/svg"><path d="m0 0 17.648438 301h236.519531l17.648437-301zm90.90625 271h-30v-30h30zm0-60h-30v-30h30zm0-60h-30v-30h30zm0-60h-30v-30h30zm60 180h-30v-30h30zm0-60h-30v-30h30zm0-60h-30v-30h30zm60 120h-30v-30h30zm0-60h-30v-30h30zm0-60h-30v-30h30zm0-60h-30v-30h30zm0 0"/><path d="m25.648438 408.039062c3.429687 58.300782 51.871093 103.960938 110.257812 103.960938 58.390625 0 106.832031-45.660156 110.261719-103.960938l6.238281-77.039062h-232.996094zm65.257812-16.039062h30v-30h30v30h30v30h-30v30h-30v-30h-30zm0 0"/></svg>
