<svg id="icon" height="512pt" viewBox="0 0 512 512" width="512pt" xmlns="http://www.w3.org/2000/svg"><path d="m424.761719 271c6.214843 17.421875 22.707031 30 42.238281 30 24.8125 0 45-20.1875 45-45s-20.1875-45-45-45c-19.53125 0-36.023438 12.578125-42.238281 30h-424.761719v90h369.789062l26.722657 25.722656c-2.808594 5.867188-4.511719 12.351563-4.511719 19.277344 0 24.8125 20.1875 45 45 45s45-20.1875 45-45-20.1875-45-45-45c-6.925781 0-13.410156 1.703125-19.277344 4.511719l-34.511718-34.511719h-52.210938v-30zm0 0"/><path d="m410.171875 171.910156c7.511719 5.632813 16.738281 9.089844 26.828125 9.089844 24.8125 0 45-20.1875 45-45s-20.1875-45-45-45-45 20.1875-45 45c0 3.804688.617188 7.4375 1.507812 10.964844l-52.046874 34.035156h-40.460938v-90h-270v120h319.539062zm-259.171875-20.910156h-60v-30h60zm0 0"/><path d="m31 0h270v61h-270zm0 0"/><path d="m292.410156 361h-252.820312c8.054687 22.570312 21.308594 43.128906 40.015625 58.738281l-22.824219 92.261719h218.4375l-22.820312-92.261719c18.703124-15.609375 31.960937-36.167969 40.011718-58.738281zm0 0"/></svg>
