<svg id="icon" height="512pt" viewBox="0 -46 512 512" width="512pt" xmlns="http://www.w3.org/2000/svg"><path d="m361 240h75c41.351562 0 76-33.648438 76-75s-34.648438-75-76-75h-360c-41.351562 0-76 33.648438-76 75s34.648438 75 76 75h75v90h-32.761719c-6.214843-17.421875-22.707031-30-42.238281-30-24.8125 0-45 20.1875-45 45s20.1875 45 45 45c19.53125 0 36.023438-12.578125 42.238281-30h62.761719v-120h60v92.761719c-17.421875 6.214843-30 22.707031-30 42.238281 0 24.8125 20.1875 45 45 45s45-20.1875 45-45c0-19.53125-12.578125-36.023438-30-42.238281v-92.761719h60v120h62.761719c6.214843 17.421875 22.707031 30 42.238281 30 24.8125 0 45-20.1875 45-45s-20.1875-45-45-45c-19.53125 0-36.023438 12.578125-42.238281 30h-32.761719zm-30-90h120v30h-120zm-240 30h-30v-30h30zm30-30h30v30h-30zm90 30h-30v-30h30zm0 0"/><path d="m211 60h90v-30h60v-30h-210v30h60zm0 0"/></svg>
