<svg id="icon" height="512pt" viewBox="0 0 512 512" width="512pt" xmlns="http://www.w3.org/2000/svg"><path d="m181 249.699219 75-75 6.300781 6.300781h128.699219v-60h-270v180h60zm0 0"/><path d="m331 249.699219v81.300781h-210v60h270v-180h-98.699219zm0 0"/><path d="m211 262.300781v38.699219h30v-30h30v30h30v-38.699219l-45-45zm0 0"/><path d="m467 151c-19.5 0-36 12.597656-42.300781 30h-33.699219v30h33.699219c6.300781 17.398438 22.800781 30 42.300781 30 24.902344 0 45-20.101562 45-45 0-24.902344-20.097656-45-45-45zm0 0"/><path d="m87.300781 301c-6.300781-17.402344-22.800781-30-42.300781-30-24.902344 0-45 20.097656-45 45 0 24.898438 20.097656 45 45 45 19.5 0 36-12.601562 42.300781-30h33.699219v-30zm0 0"/><path d="m184.28125 512h143.4375l22.492188-91h-188.421876zm0 0"/><path d="m327.71875 0h-143.4375l-22.492188 91h188.421876zm0 0"/></svg>
