<svg id="icon" height="448pt" viewBox="-104 0 448 448" width="448pt" xmlns="http://www.w3.org/2000/svg"><path d="m125.96875 99.625c12.511719-19.484375 16.824219-43.121094 12-65.769531-16.683594-3.496094-34.023438-2.027344-49.878906 4.222656 19.535156 15.363281 32.964844 37.183594 37.878906 61.546875zm0 0"/><path d="m138.625 109.808594c22.578125-4.929688 42.320312-18.523438 54.976562-37.863282-9.363281-14.308593-22.671874-25.601562-38.3125-32.503906 3.019532 24.691406-2.890624 49.652344-16.664062 70.367188zm0 0"/><path d="m120 448c8.835938 0 16-7.164062 16-16v-4.902344l-30.984375 10.328125c2.277344 6.320313 8.265625 10.546875 14.984375 10.574219zm0 0"/><path d="m104 254.976562v69.925782l32-10.664063v-59.261719c-10.621094 1.363282-21.378906 1.363282-32 0zm0 0"/><path d="m104 420.894531 32-10.664062v-15.125l-32 10.664062zm0 0"/><path d="m104 388.894531 32-10.664062v-15.125l-32 10.664062zm0 0"/><path d="m136 331.105469-32 10.664062v15.125l32-10.664062zm0 0"/><path d="m33.855469 102.03125c-3.496094 16.683594-2.027344 34.023438 4.222656 49.878906 15.363281-19.535156 37.183594-32.964844 61.546875-37.878906-19.476562-12.527344-43.121094-16.84375-65.769531-12zm0 0"/><path d="m130.183594 138.625c4.933594 22.578125 18.53125 42.320312 37.871094 54.976562 14.3125-9.363281 25.601562-22.675781 32.503906-38.320312-4.195313.523438-8.417969.789062-12.648438.796875-20.539062-.011719-40.621094-6.082031-57.726562-17.453125zm0 0"/><path d="m201.921875 88.089844c-15.363281 19.539062-37.179687 32.96875-61.546875 37.878906 19.480469 12.519531 43.121094 16.835938 65.769531 12 3.496094-16.683594 2.027344-34.023438-4.222656-49.878906zm0 0"/><path d="m240 120c0-66.273438-53.726562-120-120-120s-120 53.726562-120 120 53.726562 120 120 120c66.242188-.074219 119.925781-53.757812 120-120zm-120 104c-57.4375 0-104-46.5625-104-104s46.5625-104 104-104 104 46.5625 104 104c-.066406 57.410156-46.589844 103.933594-104 104zm0 0"/><path d="m114.03125 140.375c-12.511719 19.484375-16.824219 43.121094-12 65.769531 16.683594 3.496094 34.023438 2.027344 49.878906-4.222656-19.535156-15.363281-32.964844-37.183594-37.878906-61.546875zm0 0"/><path d="m109.816406 101.375c-4.9375-22.578125-18.535156-42.316406-37.871094-54.976562-14.3125 9.363281-25.605468 22.671874-32.503906 38.320312 24.691406-3.019531 49.652344 2.886719 70.375 16.65625zm0 0"/><path d="m101.375 130.191406c-22.578125 4.929688-42.320312 18.523438-54.976562 37.863282 9.371093 14.3125 22.6875 25.605468 38.335937 32.503906-3.023437-24.6875 2.875-49.648438 16.640625-70.367188zm0 0"/></svg>
