<svg id="icon" height="443pt" viewBox="0 -17 443.504 443" width="443pt" xmlns="http://www.w3.org/2000/svg"><path d="m183.855469 20.988281c1.753906-1.625 3.605469-3.132812 5.550781-4.519531.121094-.089844.226562-.199219.347656-.28125v-15.933594c-7.328125 4.253906-10.085937 13.464844-6.304687 21.046875.125-.097656.277343-.191406.40625-.3125zm0 0"/><path d="m253.753906.253906v15.933594c.085938.054688.15625.136719.246094.199219 1.964844 1.398437 3.832031 2.921875 5.601562 4.5625.152344.136719.320313.238281.460938.375 3.796875-7.589844 1.03125-16.820313-6.308594-21.070313zm0 0"/><path d="m241.753906 27.523438c-6.054687-3.589844-12.964844-5.460938-20-5.421876-9.046875-.003906-17.808594 3.128907-24.800781 8.863282-.800781.625-1.601563 1.230468-2.320313 1.917968-1.285156 1.226563-2.488281 2.53125-3.601562 3.914063-5.953125 7.089844-9.238281 16.042969-9.277344 25.304687 0 22.089844 17.90625 40 40 40 22.089844 0 40-17.910156 40-40 .027344-8.65625-2.800781-17.078124-8.050781-23.960937-3.222656-4.3125-7.289063-7.925781-11.949219-10.617187zm0 0"/><path d="m221.753906 118.101562c-73.433594 0-145.683594-29.722656-163.722656-63.914062l-58.03125 64.480469c13.222656 18.511719 56.703125 79.769531 67.289062 99.671875 11.652344 20.671875 18.363282 43.757812 19.605469 67.457031 15.289063-9.960937 40.457031-23.695313 62.859375-23.695313 39.0625 0 62.007813 88.496094 72.871094 146.703126 13.167969-58.113282 39.703125-146.703126 79.128906-146.703126 21.125 0 41.671875 12.0625 54.917969 21.894532 1.546875-23.066406 8.226563-45.496094 19.542969-65.65625 10.585937-19.902344 54.066406-81.160156 67.289062-99.671875l-58.03125-64.480469c-18.039062 34.191406-90.289062 63.914062-163.71875 63.914062zm0 0"/></svg>
