<svg id="icon" height="464pt" viewBox="-48 0 464 464.00884" width="464pt" xmlns="http://www.w3.org/2000/svg"><path d="m60.003906 464.007812h-16c0-20.421874 12.6875-30.992187 22.878906-39.496093 9.601563-8 17.121094-14.261719 17.121094-27.199219s-7.550781-19.199219-17.128906-27.199219c-10.183594-8.503906-22.871094-19.046875-22.871094-39.472656 0-21.0625 13.152344-29.382813 23.71875-36.070313 10.402344-6.5625 16.28125-10.875 16.28125-22.5625h16c0 21.066407-13.160156 29.394532-23.726562 36.082032-10.402344 6.574218-16.273438 10.871094-16.273438 22.550781 0 12.921875 7.550782 19.199219 17.128906 27.199219 10.183594 8.496094 22.871094 19.066406 22.871094 39.488281 0 20.425781-12.6875 30.984375-22.871094 39.488281-9.578124 7.992188-17.128906 14.265625-17.128906 27.191406zm0 0"/><path d="m284.003906 464.007812h-16c.140625-16.828124-6.425781-33.019531-18.246094-45-14.082031-14.835937-21.878906-34.542968-21.753906-55-.679687-19.625 7.46875-38.527343 22.199219-51.511718 11.871094-10.019532 18.445313-24.964844 17.800781-40.488282h16c.679688 19.628907-7.464844 38.527344-22.199218 51.511719-11.871094 10.023438-18.441407 24.96875-17.800782 40.488281-.140625 16.832032 6.425782 33.023438 18.25 45 14.078125 14.835938 21.875 34.546876 21.75 55zm0 0"/><path d="m109.460938 239.121094c-8.933594 1.183594-17.980469 1.183594-26.914063 0l-6.734375 16.886718h40.382812zm0 0"/><path d="m139.324219 89.25c5.519531-1.480469 9.832031-5.792969 11.3125-11.3125l-26.777344 7.199219c.992187.984375 2.109375 1.839843 3.320313 2.535156 3.675781 2.125 8.046874 2.691406 12.144531 1.578125zm0 0"/><path d="m368.003906 96.007812c.082032-41.910156-27.082031-79.011718-67.0625-91.589843-39.976562-12.578125-83.492187 2.28125-107.425781 36.6875 9.5 16.738281 14.492187 35.65625 14.488281 54.902343v32c.003906 19.246094-4.988281 38.164063-14.488281 54.90625 23.933594 34.402344 67.449219 49.265626 107.425781 36.683594 39.980469-12.578125 67.144532-49.679687 67.0625-91.589844zm-136-40c13.253906 0 24 10.746094 24 24 0 13.257813-10.746094 24-24 24s-24-10.742187-24-24c0-13.253906 10.746094-24 24-24zm82.503906 102.082032c-2.992187 2.558594-7.40625 2.558594-10.398437 0l-13.488281-11.554688-13.449219 11.546875c-2.992187 2.558594-7.40625 2.558594-10.398437 0l-13.464844-11.539062-13.464844 11.539062c-2.992188 2.558594-7.40625 2.558594-10.398438 0l-18.632812-16 10.398438-12.144531 13.425781 11.535156 13.449219-11.535156c2.992187-2.5625 7.40625-2.5625 10.398437 0l13.457031 11.535156 13.445313-11.535156c2.996093-2.5625 7.40625-2.5625 10.402343 0l13.488282 11.550781 13.527344-11.558593 10.398437 12.160156zm-2.503906-54.082032c-13.253906 0-24-10.742187-24-24 0-13.253906 10.746094-24 24-24s24 10.746094 24 24c0 13.257813-10.746094 24-24 24zm0 0"/><path d="m320.003906 80.007812c0 4.417969-3.582031 8-8 8-4.417968 0-8-3.582031-8-8 0-4.417968 3.582032-8 8-8 4.417969 0 8 3.582032 8 8zm0 0"/><path d="m52.683594 89.25c4.101562 1.113281 8.476562.539062 12.144531-1.601562 1.210937-.699219 2.328125-1.550782 3.320313-2.535157l-26.777344-7.199219c1.472656 5.527344 5.785156 9.851563 11.3125 11.335938zm0 0"/><path d="m285.460938 239.121094c-4.464844.566406-8.957032.863281-13.457032.886718-4.503906 0-9.007812-.265624-13.480468-.800781l-6.710938 16.800781h40.382812zm0 0"/><path d="m240.003906 80.007812c0 4.417969-3.582031 8-8 8-4.417968 0-8-3.582031-8-8 0-4.417968 3.582032-8 8-8 4.417969 0 8 3.582032 8 8zm0 0"/><path d="m192.003906 96.007812c0-53.019531-42.980468-95.9999995-96-95.9999995-53.019531 0-95.99999975 42.9804685-95.99999975 95.9999995v32c0 53.019532 42.98046875 96 95.99999975 96 53.019532 0 96-42.980468 96-96zm-82.070312-23.726562 46.398437-12.425781c4.269531-1.144531 8.65625 1.390625 9.800781 5.65625 4.574219 17.074219-5.554687 34.621093-22.628906 39.195312-17.070312 4.578125-34.621094-5.554687-39.195312-22.625-1.148438-4.257812 1.367187-8.644531 5.625-9.800781zm-84-6.769531c1.144531-4.265625 5.53125-6.800781 9.796875-5.65625l46.402343 12.425781c4.269532 1.144531 6.800782 5.53125 5.65625 9.800781-4.574218 17.070313-22.125 27.203125-39.195312 22.625-17.074219-4.574219-27.203125-22.121093-22.628906-39.195312zm70.070312 142.496093c-44.164062-.046874-79.949218-35.835937-80-80 0-4.417968 3.582032-8 8-8h144c4.417969 0 8 3.582032 8 8-.046875 44.164063-35.835937 79.953126-80 80zm0 0"/><path d="m135.203125 163.585938c-1.351563 2.714843-4.125 4.429687-7.160156 4.429687-3.03125 0-5.804688-1.714844-7.160157-4.429687l-13.824218-27.578126h-22.109375l-13.746094 27.578126c-1.351563 2.714843-4.125 4.429687-7.160156 4.429687-3.03125 0-5.804688-1.714844-7.160157-4.429687l-13.824218-27.578126h-10.558594c4.011719 32.023438 31.234375 56.046876 63.503906 56.046876 32.273438 0 59.496094-24.023438 63.503906-56.046876h-10.558593zm0 0"/><path d="m67.058594 136.007812h-6.109375l3.054687 6.113282zm0 0"/><path d="m131.058594 136.007812h-6.109375l3.054687 6.113282zm0 0"/></svg>
