<svg id="icon" height="480pt" viewBox="0 -8 480 480" width="480pt" xmlns="http://www.w3.org/2000/svg"><path d="m392 40c0 22.089844-17.910156 40-40 40s-40-17.910156-40-40 17.910156-40 40-40 40 17.910156 40 40zm0 0"/><path d="m136 64c-4.417969 0-8-3.582031-8-8 0-13.253906-10.746094-24-24-24s-24 10.746094-24 24c.121094.496094.175781 1.007812.160156 1.519531.003906 2.628907-1.285156 5.085938-3.441406 6.582031-2.160156 1.496094-4.917969 1.839844-7.375.914063-4.882812-1.804687-10.339844-1.097656-14.601562 1.894531-4.261719 2.992188-6.78125 7.882813-6.742188 13.089844h104c0-8.835938-7.164062-16-16-16zm0 0"/><path d="m440 206.238281 25.945312-6.476562c3.558594-.894531 6.054688-4.09375 6.054688-7.761719v-8h8v-16h-16c-4.417969 0-8 3.582031-8 8v9.753906l-16 4v-53.753906h-16v126.609375l-40-34.289063v-20.320312c0-2.121094-.84375-4.15625-2.34375-5.65625l-32-32-11.3125 11.3125 29.65625 29.65625v20.6875c0 2.335938 1.019531 4.550781 2.792969 6.070312l11.605469 9.929688-11.582032 9.921875c-1.109375.941406-1.9375 2.167969-2.402344 3.550781l-8 24 15.203126 5.054688 7.292968-21.894532 11.785156-10.097656 29.304688 25.144532v164.320312h-56v-16h-256v16h-56v-108.6875l23.199219-23.199219 9.929687 8.503907 7.296875 21.894531 15.199219-5.054688-8-24c-.464844-1.382812-1.292969-2.609375-2.402344-3.554687l-10.6875-9.101563 11.121094-11.121093c1.507812-1.503907 2.351562-3.550782 2.34375-5.679688v-20l28.800781-21.601562-9.601562-12.796876-32 24c-2.011719 1.507813-3.199219 3.878907-3.199219 6.398438v20.6875l-32 32v-124.6875h-16v53.753906l-16-4v-9.753906c0-4.417969-3.582031-8-8-8h-16v16h8v8c0 3.667969 2.496094 6.867188 6.054688 7.761719l25.945312 6.476562v113.160157l-16-11.503907v-27.894531c0-1.242188-.285156-2.464844-.839844-3.574219l-8-16-14.320312 7.148438 7.160156 14.3125v30.113281c0 2.574219 1.238281 4.992188 3.328125 6.496094l28.671875 20.609375v52.894531h-40v16h480v-16h-40v-108.894531l28.671875-20.609375c2.089844-1.503906 3.328125-3.921875 3.328125-6.496094v-30.113281l7.199219-14.3125-14.320313-7.148438-8 16c-.566406 1.105469-.867187 2.328125-.878906 3.574219v27.894531l-16 11.503907zm0 0"/><path d="m184 120c1.59375-.003906 3.152344.472656 4.472656 1.367188 2.054688 1.378906 4.632813 1.726562 6.980469.941406 2.347656-.78125 4.199219-2.605469 5.019531-4.941406 1.308594-3.644532 5.042969-5.828126 8.863282-5.179688 3.820312.648438 6.628906 3.9375 6.664062 7.8125h16c.035156-10.113281-6.289062-19.160156-15.800781-22.597656-9.507813-3.441406-20.15625-.535156-26.597657 7.261718-7.148437-1.714843-14.6875-.058593-20.460937 4.492188-5.773437 4.546875-9.140625 11.492188-9.140625 18.84375h16c0-4.417969 3.582031-8 8-8zm0 0"/><path d="m248 280v-24h-16v24c0 4.417969-3.582031 8-8 8h-24v16h24c4.417969 0 8 3.582031 8 8v64h16v-64c0-4.417969 3.582031-8 8-8h24v-16h-24c-4.417969 0-8-3.582031-8-8zm0 0"/><path d="m328 328h-3.71875l-6.785156 10.183594 8.160156 8.160156c2.140625 2.140625 2.890625 5.308594 1.9375 8.183594l-8 24-15.203125-5.054688 6.402344-19.304687-3.105469-3.105469c-1.136719.605469-2.402344.925781-3.6875.9375h-16v-16h11.71875l13.601562-20.441406c1.488282-2.230469 3.996094-3.566406 6.679688-3.558594h8v-16c0-48.601562-39.398438-88-88-88s-88 39.398438-88 88v91.054688l14.960938-7.480469-6.800782-33.972657 15.679688-3.136718 2.039062 10.183594 9.320313-7.046876 9.601562 12.796876-15.441406 11.625 2.480469 12.410156c.710937 3.535156-1.035156 7.113281-4.265625 8.726562l-27.574219 13.785156v11.054688h176zm-64 56c0 4.417969-3.582031 8-8 8h-32c-4.417969 0-8-3.582031-8-8v-64h-24c-4.417969 0-8-3.582031-8-8v-32c0-4.417969 3.582031-8 8-8h24v-24c0-4.417969 3.582031-8 8-8h32c4.417969 0 8 3.582031 8 8v24h24c4.417969 0 8 3.582031 8 8v32c0 4.417969-3.582031 8-8 8h-24zm0 0"/></svg>
