<svg id="icon" height="456pt" viewBox="-4 0 456 456" width="456pt" xmlns="http://www.w3.org/2000/svg"><path d="m40 16c0 8.835938-7.164062 16-16 16s-16-7.164062-16-16 7.164062-16 16-16 16 7.164062 16 16zm0 0"/><path d="m104 74.832031v319.335938c56.246094 17.175781 111.878906 7.832031 170.671875-2.054688 56.527344-9.503906 114.929687-19.3125 173.328125-2.945312v-319.335938c-56.246094-17.167969-111.871094-7.824219-170.671875 2.054688-56.527344 9.496093-114.929687 19.3125-173.328125 2.945312zm200 61.167969v41.886719c5.246094-1.234375 10.613281-1.867188 16-1.886719 39.765625 0 72 32.234375 72 72s-32.234375 72-72 72c-7.617188-.011719-15.179688-1.25-22.398438-3.671875-11.246093 4.894531-24.019531 4.894531-35.265624 0-7.199219 2.414063-14.742188 3.652344-22.335938 3.671875-39.765625 0-72-32.234375-72-72s32.234375-72 72-72c5.386719.019531 10.753906.652344 16 1.886719v-41.886719c0-4.417969 3.582031-8 8-8h32c4.417969 0 8 3.582031 8 8zm0 0"/><path d="m254.113281 205.464844-12.273437-10.265625c.886718-1.046875 1.824218-2.007813 2.753906-2.984375-1.523438-.136719-3.050781-.214844-4.59375-.214844-30.929688 0-56 25.070312-56 56s25.070312 56 56 56c1.503906 0 3.007812-.089844 4.496094-.207031-3.347656-3.554688-6.300782-7.464844-8.800782-11.65625l13.703126-8.257813c5.917968 11.65625 17.558593 19.308594 30.601562 20.121094 13.046875-.804688 24.691406-8.457031 30.609375-20.113281l13.703125 8.257812c-2.503906 4.1875-5.457031 8.09375-8.800781 11.648438 1.488281.117187 2.984375.207031 4.496093.207031 30.929688 0 56-25.070312 56-56s-25.070312-56-56-56c-1.535156 0-3.0625.078125-4.582031.207031.925781.976563 1.863281 1.9375 2.75 2.992188l-12.273437 10.265625c-5.917969-8.441406-15.582032-13.46875-25.890625-13.46875-10.308594 0-19.972657 5.027344-25.890625 13.46875zm-41.664062 31.855468c-3.613281-7.691406-3.996094-16.507812-1.066407-24.480468 1.503907-4.15625 6.09375-6.304688 10.25-4.800782l45.101563 16.425782c4.15625 1.503906 6.308594 6.089844 4.800781 10.246094-4.425781 12.160156-15.742187 20.453124-28.667968 21.019531-12.925782.566406-24.921876-6.710938-30.394532-18.433594zm123.550781 42.679688h-32v8h-16v-8h-16v8h-16v-8h-32v-16h112zm-42.734375-55.511719 45.132813-16.425781c4.15625-1.503906 8.746093.644531 10.25 4.800781 4.140624 10.796875 2.136718 22.984375-5.246094 31.886719-7.378906 8.902344-18.988282 13.128906-30.363282 11.058594-11.375-2.070313-20.75-10.117188-24.519531-21.046875-1.527343-4.148438.597657-8.746094 4.746094-10.273438zm0 0"/><path d="m324 238.832031c5.367188-1.964843 9.289062-6.636719 10.296875-12.265625l-26.066406 9.480469c4.386719 3.671875 10.394531 4.734375 15.769531 2.785156zm0 0"/><path d="m236 238.824219c5.375 1.960937 11.386719.902343 15.769531-2.777344l-26.089843-9.480469c1.007812 5.636719 4.941406 10.304688 10.320312 12.257813zm0 0"/><path d="m288 176.800781v-32.800781h-16v32.800781c5.28125-1.066406 10.71875-1.066406 16 0zm0 0"/><path d="m8 360h32v96h-32zm0 0"/><path d="m8 88h32v16h-32zm0 0"/><path d="m0 56h48v16h-48zm0 0"/><path d="m8 120h32v224h-32zm0 0"/><path d="m56 104h32v16h-32zm0 0"/><path d="m56 344h32v16h-32zm0 0"/></svg>
