<svg id="icon" height="448pt" viewBox="0 0 448 448" width="448pt" xmlns="http://www.w3.org/2000/svg"><path d="m88 312c0 13.253906 10.746094 24 24 24h224c13.253906 0 24-10.746094 24-24v-288c0-13.253906-10.746094-24-24-24h-224c-13.253906 0-24 10.746094-24 24zm232-32h-192v-16h192zm-192-240h16v-16h16v16h16v-16h16v16h16v-16h16v16h16v-16h16v16h16v-16h16v16h16v16h-16v16h-16v-16h-16v16h-16v-16h-16v16h-16v-16h-16v16h-16v-16h-16v16h-16v-16h-16zm-8 112c0-8.835938 7.164062-16 16-16h176c8.835938 0 16 7.164062 16 16v8c-.027344 22.082031-17.917969 39.972656-40 40-8.683594-.03125-17.117188-2.914062-24-8.207031v40.207031c0 8.835938-7.164062 16-16 16h-48c-8.835938 0-16-7.164062-16-16v-40.207031c-6.882812 5.292969-15.316406 8.175781-24 8.207031-22.082031-.027344-39.972656-17.917969-40-40zm0 0"/><path d="m160 184c13.253906 0 24-10.746094 24-24v-8h-48v8c0 13.253906 10.746094 24 24 24zm0 0"/><path d="m376 48h32v32h-32zm0 0"/><path d="m8 56h16v64h-16zm0 0"/><path d="m424 32h16v64h-16zm0 0"/><path d="m288 184c13.253906 0 24-10.746094 24-24v-8h-48v8c0 13.253906 10.746094 24 24 24zm0 0"/><path d="m200 152h48.007812v80h-48.007812zm0 0"/><path d="m64 216c2.703125-.035156 5.390625-.410156 8-1.121094v-61.757812c-11.992188-3.113282-24.703125.988281-32.613281 10.523437-7.914063 9.535157-9.597657 22.785157-4.328125 34 5.273437 11.210938 16.550781 18.363281 28.941406 18.355469zm0 0"/><path d="m295.527344 352c-.621094 5.457031-1.875 10.828125-3.726563 16h129.351563c-12.769532-10.355469-28.710938-16.003906-45.152344-16zm0 0"/><path d="m416 184c.109375-9.929688-4.445312-19.335938-12.304688-25.40625-7.863281-6.070312-18.117187-8.09375-27.695312-5.472656v61.757812c9.578125 2.621094 19.832031.597656 27.695312-5.472656 7.859376-6.070312 12.414063-15.476562 12.304688-25.40625zm0 0"/><path d="m40 72h32v32h-32zm0 0"/><path d="m224 400c27.824219-.035156 51.417969-20.464844 55.433594-48h-110.867188c4.015625 27.535156 27.609375 47.964844 55.433594 48zm0 0"/><path d="m0 432h448v16h-448zm0 0"/><path d="m152.472656 352h-80.472656c-16.441406-.003906-32.382812 5.644531-45.152344 16h129.351563c-1.851563-5.171875-3.105469-10.542969-3.726563-16zm0 0"/><path d="m.472656 416h223.527344c-24.03125-.015625-46.472656-12.019531-59.824219-32h-152c-6.425781 9.566406-10.441406 20.546875-11.703125 32zm0 0"/><path d="m435.824219 384h-152c-13.351563 19.980469-35.792969 31.984375-59.824219 32h223.527344c-1.261719-11.453125-5.277344-22.433594-11.703125-32zm0 0"/></svg>
