<svg id="icon" height="448pt" viewBox="-46 0 448 448" width="448pt" xmlns="http://www.w3.org/2000/svg"><path d="m196.183594 200h-8.367188l4.183594 10.464844zm0 0"/><path d="m65.078125 140.558594c14.105469 3.75 28.960937-2.496094 36.144531-15.199219l-59.863281-16c-.109375 14.585937 9.636719 27.40625 23.71875 31.199219zm0 0"/><path d="m84.183594 200h-8.367188l4.183594 10.464844zm0 0"/><path d="m206.921875 140.558594c14.082031-3.792969 23.828125-16.613282 23.71875-31.199219l-59.863281 16c7.1875 12.699219 22.039062 18.945313 36.144531 15.199219zm0 0"/><path d="m136 296c54.308594-.066406 99.449219-41.855469 103.695312-96h-26.28125l-13.980468 34.976562c-1.214844 3.042969-4.160156 5.039063-7.433594 5.039063s-6.21875-1.996094-7.433594-5.039063l-13.980468-34.976562h-69.171876l-13.980468 34.976562c-1.214844 3.042969-4.160156 5.039063-7.433594 5.039063s-6.21875-1.996094-7.433594-5.039063l-13.980468-34.976562h-26.28125c4.246093 54.144531 49.386718 95.933594 103.695312 96zm0 0"/><path d="m0 328c.0742188 66.242188 53.757812 119.925781 120 120h236.6875l-35.488281-35.480469c-31.601563-31.441406-49.316407-74.214843-49.199219-118.792969v-154.269531c0-74.28125-58.785156-136.800781-131.03125-139.3671872-1.679688-.0898438-3.367188-.0898438-5.015625-.0898438-75.09375.0273438-135.953125 60.90625-135.953125 136zm153.070312-212c1.0625-1.835938 2.808594-3.179688 4.859376-3.726562l77.269531-20.707032c4.269531-1.144531 8.65625 1.390625 9.800781 5.65625 4.5 16.585938-.207031 34.3125-12.347656 46.476563-12.136719 12.167969-29.851563 16.914062-46.449219 12.449219-16.59375-4.464844-29.535156-17.460938-33.929687-34.078126-.550782-2.046874-.261719-4.234374.796874-6.070312zm-126.070312-18.777344c1.144531-4.265625 5.53125-6.800781 9.800781-5.65625l77.269531 20.707032c4.269532 1.140624 6.800782 5.53125 5.65625 9.796874-6.925781 25.527344-33.199218 40.640626-58.746093 33.792969-25.550781-6.847656-40.746094-33.070312-33.980469-58.640625zm-3 86.777344h224c4.417969 0 8 3.582031 8 8 0 66.273438-53.726562 120-120 120s-120-53.726562-120-120c0-4.417969 3.582031-8 8-8zm0 0"/></svg>
