<svg id="icon" height="448pt" viewBox="-80 0 448 448" width="448pt" xmlns="http://www.w3.org/2000/svg"><path d="m40 144h-32v146.238281l32.007812 10.664063zm0 0"/><path d="m8 354.230469 32 10.664062v-15.125l-32-10.664062zm0 0"/><path d="m8 322.230469 32 10.664062v-15.125l-32-10.664062zm0 0"/><path d="m128 40c-21.785156-.082031-43.425781 3.535156-64 10.695312v31.121094c20.691406-6.578125 42.285156-9.890625 64-9.816406 69.425781 0 130.609375 32.976562 159.078125 82.214844-8.621094-64.117188-76.679687-114.214844-159.078125-114.214844zm0 0"/><path d="m8 418.230469 32 10.664062v-15.125l-32-10.664062zm0 0"/><path d="m16 0h16v16h-16zm0 0"/><path d="m0 32h48v96h-48zm0 0"/><path d="m8 386.230469 32 10.664062v-15.125l-32-10.664062zm0 0"/><path d="m8 448h32.007812v-2.230469l-32.007812-10.671875zm0 0"/></svg>
