<svg id="icon" height="448pt" viewBox="-88 0 448 448" width="448pt" xmlns="http://www.w3.org/2000/svg"><path d="m168 256c0 4.417969-3.582031 8-8 8s-8-3.582031-8-8 3.582031-8 8-8 8 3.582031 8 8zm0 0"/><path d="m120 312h32v8h-32zm0 0"/><path d="m16 64h240v-64h-240zm208-48h16v32h-16zm-32 0h16v32h-16zm-32 0h16v32h-16zm-32 0h16v32h-16zm-32 0h16v32h-16zm-32 0h16v32h-16zm-32 0h16v32h-16zm0 0"/><path d="m120 256c0 4.417969-3.582031 8-8 8s-8-3.582031-8-8 3.582031-8 8-8 8 3.582031 8 8zm0 0"/><path d="m56 80h160v16h-160zm0 0"/><path d="m8 448h256c4.417969 0 8-3.582031 8-8v-320c0-4.417969-3.582031-8-8-8h-256c-4.417969 0-8 3.582031-8 8v320c0 4.417969 3.582031 8 8 8zm125.6875-264c21.613281-.570312 42.546875 7.589844 58.074219 22.640625 15.460937 15 24.207031 35.609375 24.25 57.148437.046875 21.542969-8.613281 42.1875-24.011719 57.25v14.960938c0 13.253906-10.746094 24-24 24h-64c-13.253906 0-24-10.746094-24-24v-14.984375c-22.933594-22.4375-30.226562-56.410156-18.519531-86.28125 11.703125-29.875 40.136719-49.851563 72.207031-50.734375zm0 0"/><path d="m93.335938 311.59375c1.695312 1.515625 2.664062 3.683594 2.664062 5.957031v18.449219c0 4.417969 3.582031 8 8 8h64c4.417969 0 8-3.582031 8-8v-18.449219c.003906-2.269531.972656-4.433593 2.664062-5.949219 19.753907-17.683593 26.546876-45.722656 17.078126-70.484374-9.464844-24.765626-33.230469-41.121094-59.742188-41.117188-.625 0-1.238281 0-1.863281 0-34.726563 1.546875-62.09375 30.128906-62.136719 64.886719.292969 17.863281 8.027344 34.792969 21.335938 46.707031zm74.664062 16.40625c0 4.417969-3.582031 8-8 8h-48c-4.417969 0-8-3.582031-8-8v-24c0-4.417969 3.582031-8 8-8h48c4.417969 0 8 3.582031 8 8zm-56-96c13.253906 0 24 10.746094 24 24 0-13.253906 10.746094-24 24-24s24 10.746094 24 24-10.746094 24-24 24-24-10.746094-24-24c0 13.253906-10.746094 24-24 24s-24-10.746094-24-24 10.746094-24 24-24zm0 0"/></svg>
