<svg id="icon" height="448pt" viewBox="0 0 448 448" width="448pt" xmlns="http://www.w3.org/2000/svg"><path d="m144 200c0 4.417969-3.582031 8-8 8s-8-3.582031-8-8 3.582031-8 8-8 8 3.582031 8 8zm0 0"/><path d="m416 0c-17.671875 0-32 14.328125-32 32v32h64v-32c0-17.671875-14.328125-32-32-32zm0 0"/><path d="m256 128c0 4.417969-3.582031 8-8 8s-8-3.582031-8-8 3.582031-8 8-8 8 3.582031 8 8zm0 0"/><path d="m368 32c.003906-11.824219 4.394531-23.226562 12.320312-32h-268.320312c-17.671875 0-32 14.328125-32 32v336h216c4.417969 0 8 3.582031 8 8v40c0 17.671875 14.328125 32 32 32s32-14.328125 32-32zm-120 72c13.253906 0 24 10.746094 24 24s-10.746094 24-24 24-24-10.746094-24-24 10.746094-24 24-24zm-136 8c8.386719.09375 16.304688 3.878906 21.648438 10.34375 3.910156 3.921875 5.832031 5.65625 10.320312 5.65625s6.398438-1.734375 10.351562-5.65625c5.289063-6.542969 13.25-10.34375 21.664063-10.34375s16.375 3.800781 21.664063 10.34375c3.925781 3.921875 5.855468 5.65625 10.351562 5.65625v16c-8.390625-.09375-16.316406-3.875-21.664062-10.34375-3.9375-3.921875-5.847657-5.65625-10.335938-5.65625s-6.398438 1.734375-10.351562 5.65625c-5.285157 6.542969-13.242188 10.34375-21.652344 10.34375s-16.367188-3.800781-21.652344-10.34375c-3.945312-3.921875-5.855469-5.65625-10.34375-5.65625zm24 64c13.253906 0 24 10.746094 24 24s-10.746094 24-24 24-24-10.746094-24-24 10.746094-24 24-24zm72 112c-8.390625-.09375-16.316406-3.875-21.664062-10.34375-3.9375-3.921875-5.847657-5.65625-10.335938-5.65625s-6.398438 1.734375-10.351562 5.65625c-5.285157 6.542969-13.242188 10.34375-21.652344 10.34375s-16.367188-3.800781-21.652344-10.34375c-3.945312-3.921875-5.855469-5.65625-10.34375-5.65625v-16c8.386719.09375 16.304688 3.878906 21.648438 10.34375 3.910156 3.921875 5.832031 5.65625 10.320312 5.65625s6.398438-1.734375 10.351562-5.65625c5.289063-6.542969 13.25-10.34375 21.664063-10.34375s16.375 3.800781 21.664063 10.34375c3.925781 3.921875 5.855468 5.65625 10.351562 5.65625zm56-8h-8v8h-16v-8h-8v-16h8v-8h16v8h8zm72 0h-48v-16h48zm0-64c-10.964844.222656-21.726562-2.972656-30.792969-9.144531-13.648437-9.140625-31.460937-9.140625-45.109375 0-18.710937 12.191406-42.851562 12.191406-61.5625 0-6.570312-4.664063-14.480468-7.070313-22.535156-6.855469v-16c10.960938-.222656 21.714844 2.972656 30.777344 9.144531 13.636718 9.140625 31.445312 9.140625 45.085937 0 18.722657-12.199219 42.878907-12.199219 61.601563 0 6.574218 4.660157 14.480468 7.0625 22.535156 6.855469zm0-80h-48v-16h48zm0 0"/><path d="m0 384v32c0 17.671875 14.328125 32 32 32h268.320312c-7.925781-8.773438-12.316406-20.175781-12.320312-32v-32zm0 0"/></svg>
