<svg id="icon" height="447pt" viewBox="0 0 447 447.69943" width="447pt" xmlns="http://www.w3.org/2000/svg"><path d="m64.039062 320.023438c0 4.417968-3.582031 8-8 8-4.417968 0-8-3.582032-8-8 0-4.421876 3.582032-8 8-8 4.417969 0 8 3.578124 8 8zm0 0"/><path d="m168.039062 384.023438c0 13.253906-10.746093 24-24 24-13.253906 0-24-10.746094-24-24 0-13.257813 10.746094-24 24-24 13.253907 0 24 10.742187 24 24zm0 0"/><path d="m220.726562 176.527344c1.953126.707031 4.101563.625 5.992188-.234375l.273438-.136719c3.378906-1.6875 5.105468-5.523438 4.128906-9.171875-.976563-3.652344-4.382813-6.113281-8.15625-5.890625-3.773438.21875-6.871094 3.0625-7.410156 6.804688-.542969 3.738281 1.617187 7.34375 5.171874 8.628906zm0 0"/><path d="m257.351562 328.726562c2.863282-.367187 5.601563-.480468 6.785157-.527343 11.976562.011719 22.945312 6.707031 28.421875 17.359375 3.769531-.96875 7.644531-1.464844 11.539062-1.472656h.125c12.84375-.398438 24.953125 5.980468 31.890625 16.800781 6.925781-10.859375 19.054688-17.265625 31.925781-16.863281 3.890626 0 7.761719.484374 11.527344 1.445312 5.464844-10.699219 16.460938-17.4375 28.472656-17.445312 2.695313.050781 5.386719.28125 8.050782.695312l-15.480469-29.824219c-18.664063 18.398438-44.800781 20.992188-64.152344 21.085938-.144531.042969-.273437.042969-.417969.042969-.144531 0-.199218 0-.3125 0h-.535156c-20 0-44.121094-2.402344-61.902344-18.402344zm0 0"/><path d="m335.902344 304.023438h.355468c4.304688-.105469 7.726563-3.652344 7.671876-7.957032-.050782-4.308594-3.554688-7.769531-7.863282-7.769531-4.304687 0-7.808594 3.460937-7.863281 7.769531-.050781 4.304688 3.371094 7.851563 7.675781 7.957032zm0 0"/><path d="m128.039062 88.023438c0 17.671874-14.324218 32-32 32-17.671874 0-32-14.328126-32-32 0-17.675782 14.328126-32 32-32 17.675782 0 32 14.324218 32 32zm0 0"/><path d="m448.039062 224.023438c.070313-83.359376-46.183593-159.851563-120.039062-198.503907-73.851562-38.652343-163.066406-33.066406-231.519531 14.503907 26.449219.242187 47.71875 21.835937 47.558593 48.289062-.160156 26.453125-21.691406 47.785156-48.144531 47.707031-26.453125-.082031-47.851562-21.546875-47.855469-47.996093 0-.800782.082032-1.648438.128907-2.472657-51.007813 64.933594-62.128907 152.675781-28.929688 228.285157 33.195313 75.605468 105.320313 126.800781 187.644531 133.191406 82.328126 6.394531 161.488282-33.054688 205.957032-102.628906-1.589844-.230469-3.195313-.355469-4.800782-.375-7.691406.019531-14.28125 5.507812-15.6875 13.070312-.445312 2.425781-1.984374 4.515625-4.171874 5.652344-2.191407 1.140625-4.785157 1.207031-7.027344.179687-4.113282-1.890625-8.585938-2.878906-13.113282-2.902343-19.199218 0-23.199218 17.511718-23.878906 28.214843.054688 1.222657.085938 2.464844.097656 3.726563-.125 4.378906-3.699218 7.871094-8.082031 7.886718-4.382812.015626-7.984375-3.449218-8.136719-7.828124 0-1.273438 0-2.523438.089844-3.761719-.703125-10.679688-4.800781-28.175781-23.90625-28.175781h-.078125c-4.542969.03125-9.023437 1.035156-13.144531 2.945312-2.242188 1.027344-4.828125.964844-7.019531-.171875-2.1875-1.132813-3.730469-3.214844-4.179688-5.636719-1.429687-7.542968-8.011719-13.007812-15.6875-13.023437h-.042969c-6.484374.140625-12.875 1.613281-18.773437 4.316406-3.007813 2.5-7.367187 2.523437-10.402344.058594-2.992187-2.425781-3.78125-6.667969-1.863281-10.007813l31.929688-54.402344c1.34375-2.296874 3.742187-3.773437 6.398437-3.941406 2.667969-.121094 5.226563 1.074219 6.847656 3.199219 8.550781 10.746094 21.085938 17.574219 34.753907 18.925781-.59375-2.054687-.902344-4.183594-.921876-6.324218 0-13.257813 10.746094-24 24-24 13.253907 0 24 10.742187 24 24-.019531 1.972656-.289062 3.9375-.800781 5.847656 14.601563-1.917969 27.746094-9.816406 36.289063-21.808594 1.582031-2.339844 4.277344-3.675781 7.097656-3.511719 2.816406.164063 5.339844 1.800781 6.640625 4.3125l18.628906 35.871094c13.300781-29.097656 20.171875-60.71875 20.144531-92.710937zm-392 120c-13.253906 0-24-10.746094-24-24 0-13.257813 10.746094-24 24-24 13.253907 0 24 10.742187 24 24 0 13.253906-10.746093 24-24 24zm88 80c-22.089843 0-40-17.910157-40-40 0-22.09375 17.910157-40 40-40 22.09375 0 40 17.90625 40 40-.027343 22.078124-17.917968 39.972656-40 40zm193.273438-249.929688c-1.792969 3.441406-5.796875 5.101562-9.496094 3.9375-6.484375.042969-12.886718 1.425781-18.808594 4.0625-6.96875 3.265625-10.625 11.027344-8.703124 18.480469.613281 2.378906.101562 4.90625-1.390626 6.859375-1.492187 1.953125-3.800781 3.109375-6.257812 3.140625-4.539062.023437-9.019531 1.023437-13.136719 2.925781-17.382812 8.105469-13.597656 25.714844-9.703125 35.691406.566406 1.078125 1.113282 2.183594 1.648438 3.316406 1.710937 3.644532.445312 7.996094-2.953125 10.152344-.347657.230469-.710938.433594-1.085938.609375-4.003906 1.867188-8.765625.136719-10.632812-3.863281-.554688-1.175781-1.058594-2.328125-1.527344-3.488281-3.113281-6.316407-7.945313-11.628907-13.9375-15.328125-6.132813-3.367188-13.5625-3.367188-19.695313 0-4.105468 1.945312-7.746093 4.753906-10.671874 8.230468-1.542969 1.929688-3.9375 2.976563-6.402344 2.792969-2.453125-.105469-4.71875-1.332031-6.152344-3.328125-4.492188-6.246094-12.796875-8.410156-19.765625-5.152344-5.824219 2.863282-10.996094 6.890626-15.199219 11.832032-1.679687 3.550781-5.628906 5.425781-9.441406 4.472656-3.734375-.9375-6.238281-4.449219-5.910156-8.289062l5.941406-62.808594c.253906-2.65625 1.816406-5.011719 4.167969-6.28125 2.347656-1.265625 5.175781-1.277344 7.535156-.027344 12.292969 6.101562 26.527344 6.988281 39.480469 2.460938-1.390625-1.601563-2.566406-3.378907-3.496094-5.285157-5.464844-11.988281-.25-26.140625 11.6875-31.710937 11.9375-5.570313 26.136719-.476563 31.808594 11.414062.816406 1.800782 1.402344 3.699219 1.746094 5.648438 12.417968-7.90625 20.992187-20.621094 23.664062-35.097656.429688-2.796876 2.308594-5.160157 4.9375-6.210938 2.632812-1.050781 5.621094-.632812 7.863281 1.097656l51.671875 39.675782c3.089844 2.367187 4.027344 6.621093 2.214844 10.070312zm0 0"/><path d="m233.921875 190.582031c-.113281.054688-.203125.128907-.3125.183594l-.242187.078125c-18.230469 8.554688-41.320313 16.800781-64.429688 9.722656l-2.96875 31.34375c1.886719-1.210937 3.84375-2.316406 5.855469-3.304687 10.875-5.097657 23.691406-3.675781 33.183593 3.679687 3.003907-2.46875 6.304688-4.554687 9.824219-6.207031 10.78125-5.558594 23.621094-5.367187 34.230469.503906.648438.351563 1.28125.726563 1.914062 1.128907 1.703126-12.734376 9.972657-23.640626 21.777344-28.714844 3.527344-1.640625 7.246094-2.839844 11.070313-3.566406.425781-11.996094 7.53125-22.746094 18.398437-27.839844 2.472656-1.089844 5.007813-2.015625 7.601563-2.769532l-26.585938-20.480468c-9.167969 24.601562-31.847656 37.992187-49.316406 46.242187zm0 0"/></svg>
