<svg id="icon" height="448pt" viewBox="-136 0 448 448.00129" width="448pt" xmlns="http://www.w3.org/2000/svg"><path d="m144.015625 324.449219-36.015625 4.902343 36.015625 3.128907zm0 0"/><path d="m132.152344 347.503906-36.136719-3.132812v3.542968zm0 0"/><path d="m144.015625 200.082031-112-18.671875v15.792969l112 18.664063zm0 0"/><path d="m144.015625 363.378906-48 .535156v12.710938l48 9.144531zm0 0"/><path d="m144.015625 232.082031-112-18.664062v26.582031h112zm0 0"/><path d="m32.015625 256h112v16h-112zm0 0"/><path d="m144.015625 288h-112v2.746094l112 9.726562zm0 0"/><path d="m144.015625 402.066406-48-9.152344v16.503907l48 9.625zm0 0"/><path d="m32.015625 448h48v-18.933594l-48 12.839844zm0 0"/><path d="m32.015625 425.34375 26.503906-7.09375-26.503906-5.296875zm0 0"/><path d="m165.976562 136.3125-164.078124 18.167969c-.492188 1.808593-.882813 3.640625-1.167969 5.488281l38.039062 6.34375 134.605469-14.953125c-1.695312-5.359375-4.1875-10.429687-7.398438-15.046875zm0 0"/><path d="m80.015625 389.855469-48-9.140625v15.925781l48 9.59375zm0 0"/><path d="m80.015625 342.984375-43.992187-3.816406-4.007813.546875v8.917968l48-.542968zm0 0"/><path d="m32.015625 306.808594v16.746094l75.082031-10.226563zm0 0"/><path d="m80.015625 364.089844-46.957031.527344 46.957031 8.953124zm0 0"/><path d="m144.015625 435.351562-48-9.621093v22.269531h48zm0 0"/><path d="m128.015625 66.777344-24.765625-4.128906-25.226562 9.351562h49.992187zm0 0"/><path d="m48.015625 66.066406 23.488281-8.707031-23.488281-3.917969zm0 0"/><path d="m160.015625 256h16v16h-16zm0 0"/><path d="m123.945312 89.257812-39.199218 22.398438c1.101562.097656 2.160156.335938 3.285156.335938 15.34375-.054688 29.300781-8.890626 35.914062-22.734376zm0 0"/><path d="m144.015625 170.722656-47.296875 5.253906 47.296875 7.890626zm0 0"/><path d="m176.015625 168c0-.292969-.0625-.535156-.0625-.796875l-15.9375 1.742187v17.601563l16 2.671875zm0 0"/><path d="m176.015625 205.417969-16-2.664063v15.773438l16 2.664062zm0 0"/><path d="m176.015625 237.417969-16-2.664063v5.246094h16zm0 0"/><path d="m151.570312 121.808594c-7.429687-5.09375-15.984374-8.304688-24.929687-9.359375-21.542969 20.710937-55.585937 20.742187-77.167969.070312-16.507812 1.894531-31.296875 11.101563-40.28125 25.082031zm0 0"/><path d="m.015625 256h16v16h-16zm0 0"/><path d="m16.015625 178.746094-16.015625-2.671875.0078125 15.792969 16.0078125 2.660156zm0 0"/><path d="m16.015625 210.753906-16.015625-2.671875.0078125 31.917969h16.0078125zm0 0"/><path d="m97.839844 1.351562c-11.613282-3.15625-24.039063-.71875-33.597656 6.59375l11.679687 1.945313zm0 0"/><path d="m115.976562 11.464844-9.191406 3.578125 14.113282 2.351562c-.378907-.546875-.707032-1.128906-1.105469-1.65625-1.085938-1.40625-2.257813-2.746093-3.511719-4-.097656-.097656-.207031-.175781-.304688-.273437zm0 0"/><path d="m64.929688 104.554688 28.96875-16.554688h-42.488282c2.929688 6.636719 7.601563 12.359375 13.519532 16.554688zm0 0"/><path d="m48.632812 33.433594c-.191406 1.269531-.3125 2.546875-.359374 3.832031l79.742187 13.296875v-10.5625c-.003906-1.757812-.125-3.511719-.359375-5.253906l-75.296875-12.5625c-1.800781 3.542968-3.058594 7.332031-3.726563 11.25zm0 0"/></svg>
