<svg id="icon" height="448pt" viewBox="-16 0 448 448" width="448pt" xmlns="http://www.w3.org/2000/svg"><path d="m259.054688 336h-22.109376l11.054688 22.113281zm0 0"/><path d="m143.390625 217.375c12.902344-5.972656 23.429687-16.097656 29.898437-28.757812l-119.351562-43.441407c-5.421875 23.824219 3.195312 48.65625 22.207031 64 19.015625 15.347657 45.105469 18.527344 67.246094 8.199219zm0 0"/><path d="m158.128906 288h19.742188l-9.871094-16.449219zm0 0"/><path d="m179.054688 336h-22.109376l11.054688 22.113281zm0 0"/><path d="m248 271.550781-9.871094 16.449219h19.742188zm0 0"/><path d="m362.0625 145.175781-119.351562 43.441407c14.71875 28.726562 48.519531 42 78.851562 30.960937 30.328125-11.039063 47.691406-42.9375 40.5-74.402344zm0 0"/><path d="m312 378.199219c.039062-13.191407 6.566406-25.519531 17.457031-32.96875 54.191407-37.277344 86.542969-94.558594 86.542969-153.230469 0-102.28125-97.191406-192-208-192s-208 89.71875-208 192c0 58.671875 32.351562 115.953125 86.542969 153.230469 10.890625 7.449219 17.417969 19.777343 17.457031 32.96875v45.800781c0 13.253906 10.746094 24 24 24h160c13.253906 0 24-10.746094 24-24zm-98.351562-293.007813-4.800782-9.597656 14.320313-7.152344 5.023437 10.0625 21.214844-9.792968-8.558594-17.117188 14.320313-7.152344 8.800781 17.558594 28.710938-13.246094 6.703124 14.527344-28.253906 13.039062 8.070313 16.105469-14.320313 7.148438-8.277344-16.558594-21.25 9.785156 11.847657 23.625-14.320313 7.148438-12-24.0625-25.464844 11.753906-6.703124-14.53125zm27.496093 166.6875c1.550781-2.261718 4.113281-3.613281 6.855469-3.613281s5.304688 1.351563 6.855469 3.613281l24 40c1.484375 2.472656 1.527343 5.550782.105469 8.058594-1.417969 2.511719-4.078126 4.0625-6.960938 4.0625h-48c-2.882812 0-5.542969-1.550781-6.960938-4.0625-1.421874-2.507812-1.378906-5.585938.105469-8.058594zm-42.183593 48.066406c-1.421876 2.503907-4.078126 4.054688-6.960938 4.054688h-48c-2.882812 0-5.542969-1.550781-6.960938-4.0625-1.421874-2.507812-1.378906-5.585938.105469-8.058594l24-40c1.550781-2.261718 4.113281-3.613281 6.855469-3.613281s5.304688 1.351563 6.855469 3.613281l24 40c1.488281 2.472656 1.527343 5.554688.105469 8.066406zm-109.984376-65.402343c-41.492187-15.144531-62.882812-61.027344-47.808593-102.542969 1.503906-4.15625 6.09375-6.304688 10.246093-4.800781l135.320313 49.257812c4.15625 1.503907 6.308594 6.089844 4.800781 10.246094-15.113281 41.515625-61.019531 62.921875-102.535156 47.808594zm215.023438 173.457031c0 13.253906-10.746094 24-24 24h-144c-13.253906 0-24-10.746094-24-24v-64c0-13.253906 10.746094-24 24-24h144c13.253906 0 24 10.746094 24 24zm-4.265625-168.625c-33.644531-.007812-63.703125-21.035156-75.246094-52.640625-1.503906-4.152344.644531-8.742187 4.800781-10.246094l135.296876-49.289062c4.152343-1.503907 8.742187.644531 10.246093 4.800781 8.921875 24.515625 5.332031 51.835938-9.621093 73.214844-14.953126 21.375-39.386719 34.117187-65.476563 34.144531zm0 0"/><path d="m280 336h-3.054688l-21.746093 43.574219c-1.351563 2.71875-4.125 4.433593-7.160157 4.433593-3.03125 0-5.804687-1.714843-7.160156-4.433593l-21.824218-43.574219h-22.109376l-21.746093 43.574219c-1.351563 2.71875-4.125 4.433593-7.160157 4.433593-3.03125 0-5.804687-1.714843-7.160156-4.433593l-21.824218-43.574219h-3.054688c-4.417969 0-8 3.582031-8 8v64c0 4.417969 3.582031 8 8 8h144c4.417969 0 8-3.582031 8-8v-64c0-4.417969-3.582031-8-8-8zm0 0"/></svg>
