<svg id="icon" height="475pt" viewBox="0 -13 475.312 475" width="475pt" xmlns="http://www.w3.org/2000/svg"><path d="m464 314.5-10.34375 10.34375v-52.6875h-16v52.6875l-18.34375-18.34375-11.3125 11.3125 26.34375 26.34375-10.34375 10.34375c-1.5 1.5-2.34375 3.535156-2.34375 5.65625v56h16v-52.6875l37.65625-37.65625zm0 0"/><path d="m56 306.5-18.34375 18.34375v-52.6875h-16v52.6875l-10.34375-10.34375-11.3125 11.3125 37.65625 37.65625v52.6875h16v-56c0-2.121094-.84375-4.15625-2.34375-5.65625l-10.34375-10.34375 26.34375-26.34375zm0 0"/><path d="m13.65625 432.15625h448v16h-448zm0 0"/><path d="m229.65625 152.15625v104h16v-104c0-4.417969 3.582031-8 8-8h32v-16h-32c-4.417969 0-8-3.582031-8-8v-24h-16v24c0 4.417969-3.582031 8-8 8h-32v16h32c4.417969 0 8 3.582031 8 8zm0 0"/><path d="m127.519531 174.355469-25.863281-10.015625v251.816406h272v-193.871094l-25.039062 15.03125-7.203126 28.800782-15.519531-3.890626 8-32c.515625-2.054687 1.824219-3.820312 3.640625-4.910156l6.21875-3.738281-23.753906-23.75 11.3125-11.3125 26.582031 26.585937 15.761719-9.472656v-67.472656c0-75.109375-60.890625-136-136-136s-136 60.890625-136 136v11.015625l34.886719 13.519531c2.074219.800782 3.71875 2.425782 4.546875 4.488282l5.964844 14.9375 13.800781-10.359376 9.601562 12.796876-17.25 12.953124 3.871094 9.671876-14.863281 5.953124zm174.136719 185.800781h-128v-16h128zm-128-240c0-4.417969 3.582031-8 8-8h32v-24c0-4.417969 3.582031-8 8-8h32c4.417969 0 8 3.582031 8 8v24h32c4.417969 0 8 3.582031 8 8v32c0 4.417969-3.582031 8-8 8h-32v104c0 4.417969-3.582031 8-8 8h-32c-4.417969 0-8-3.582031-8-8v-104h-32c-4.417969 0-8-3.582031-8-8zm-24 184h176v16h-176zm0 0"/></svg>
