<svg id="icon" height="448pt" viewBox="-64 0 448 448" width="448pt" xmlns="http://www.w3.org/2000/svg"><path d="m149.464844 146.152344c1.730468 1.621094 2.652344 3.925781 2.519531 6.296875l-7.527344 135.550781h31.085938l-7.542969-135.550781c-.132812-2.371094.792969-4.675781 2.527344-6.292969s4.09375-2.386719 6.449218-2.09375l55.023438 6.875v-29.875l-55.007812 6.875c-2.503907.308594-5.011719-.578125-6.757813-2.398438-1.75-1.820312-2.535156-4.359374-2.121094-6.851562l6.398438-38.6875h-29.0625l6.398437 38.6875c.414063 2.492188-.371094 5.03125-2.121094 6.851562-1.75 1.820313-4.253906 2.707032-6.757812 2.398438l-54.96875-6.875v29.875l55.007812-6.875c2.355469-.292969 4.71875.46875 6.457032 2.089844zm0 0"/><path d="m24 448h296v-16h-280v-16h280v-16h-296c-13.253906 0-24 10.746094-24 24s10.746094 24 24 24zm0 0"/><path d="m72 72h-20l-21.601562 28.800781c-2.546876 3.398438-7.304688 4.210938-10.839844 1.855469l-19.558594-13.054688v302.605469c6.882812-5.292969 15.316406-8.175781 24-8.207031h296v-96h-36.640625l-19.359375 19.359375.046875 28.640625h-16l-.046875-31.9375c-.003906-2.125.839844-4.167969 2.34375-5.671875l6.398438-6.398437-14.398438-14.328126c-1.503906-1.503906-2.34375-3.539062-2.34375-5.664062v-19.71875l-20.441406-13.601562 8.882812-13.3125 24 16c2.214844 1.480468 3.550782 3.96875 3.558594 6.632812v20.679688l12.046875 12 6.34375-6.335938c1.5-1.5 3.535156-2.34375 5.65625-2.34375h39.953125v-272h-296c-13.253906 0-24 10.746094-24 24v46.398438l22.144531 14.785156 19.457031-25.984375c1.507813-2.011719 3.878907-3.199219 6.398438-3.199219h20.6875l21.65625-21.65625 11.3125 11.3125-24 24c-1.5 1.5-3.535156 2.34375-5.65625 2.34375zm9.601562 268.800781-21.601562-28.800781h-20c-2.675781 0-5.171875-1.335938-6.65625-3.558594l-16-24 13.3125-8.882812 13.625 20.441406h19.71875c2.519531 0 4.890625 1.1875 6.398438 3.199219l24 32zm52.742188-230.066406-6.230469-37.421875c-.386719-2.320312.265625-4.691406 1.785157-6.484375 1.519531-1.792969 3.75-2.828125 6.101562-2.828125h48c2.351562 0 4.582031 1.035156 6.101562 2.828125 1.519532 1.792969 2.171876 4.164063 1.785157 6.484375l-6.230469 37.421875 53.351562-6.671875c2.277344-.273438 4.5625.429688 6.289063 1.9375 1.71875 1.519531 2.703125 3.703125 2.703125 6v48c0 2.292969-.984375 4.476562-2.707031 5.996094-1.71875 1.519531-4.007813 2.222656-6.285157 1.941406l-54.496093-6.808594 7.488281 134.421875c.125 2.199219-.664062 4.351563-2.179688 5.949219-1.511718 1.597656-3.617187 2.503906-5.820312 2.5h-48c-2.203125.003906-4.308594-.902344-5.820312-2.5-1.515626-1.597656-2.304688-3.75-2.179688-5.949219l7.472656-134.398437-54.496094 6.808594c-2.277343.277343-4.566406-.433594-6.285156-1.957032-1.714844-1.523437-2.695312-3.707031-2.691406-6.003906v-48c0-2.296875.984375-4.480469 2.703125-6 1.730469-1.503906 4.011719-2.207031 6.289063-1.9375zm0 0"/></svg>
