<svg id="icon" height="475pt" viewBox="0 -20 475.312 475" width="475pt" xmlns="http://www.w3.org/2000/svg"><path d="m464 301.867188-10.34375 10.34375v-52.6875h-16v52.6875l-18.34375-18.34375-11.3125 11.3125 26.34375 26.34375-10.34375 10.34375c-1.5 1.5-2.34375 3.535156-2.34375 5.65625v56h16v-52.6875l37.65625-37.65625zm0 0"/><path d="m56 293.867188-18.34375 18.34375v-52.6875h-16v52.6875l-10.34375-10.34375-11.3125 11.3125 37.65625 37.65625v52.6875h16v-56c0-2.121094-.84375-4.15625-2.34375-5.65625l-10.34375-10.34375 26.34375-26.34375zm0 0"/><path d="m196.320312 124.363281-133.953124 23.578125 6.976562 39.429688 133.960938-23.648438c4.347656-.765625 8.496093 2.140625 9.261718 6.488282l41.089844 233.3125h48.800781l-42.601562-241.65625c-.765625-4.347657 2.140625-8.496094 6.488281-9.261719l133.894531-23.578125-6.917969-39.429688-133.953124 23.644532c-4.347657.765624-8.496094-2.136719-9.261719-6.484376l-13.90625-78.777343-47.277344 8.28125 13.894531 78.839843c.765625 4.351563-2.144531 8.5-6.496094 9.261719zm0 0"/><path d="m183.792969 191.5625c4.347656-.761719 8.496093 2.140625 9.261719 6.488281l36.273437 205.472657h8.078125l-39.199219-222.65625-133.960937 23.65625c-4.347656.765624-8.496094-2.136719-9.261719-6.488282l-9.769531-55.199218c-.371094-2.09375.105468-4.246094 1.324218-5.988282 1.21875-1.742187 3.078126-2.925781 5.171876-3.292968l133.945312-23.558594-13.871094-78.847656c-.742187-4.335938 2.15625-8.457032 6.488282-9.222657l63.039062-11.042969c2.089844-.378906 4.242188.09375 5.984375 1.3125 1.738281 1.21875 2.917969 3.082032 3.269531 5.175782l13.90625 78.761718 133.984375-23.6875c2.089844-.371093 4.242188.105469 5.980469 1.324219 1.742188 1.21875 2.921875 3.078125 3.289062 5.171875l9.6875 55.199219c.765626 4.351563-2.140624 8.5-6.492187 9.261719l-133.921875 23.578125 41.6875 236.542969h8.152344l-39.199219-222.128907c-.371094-2.085937.105469-4.234375 1.320313-5.972656 1.21875-1.738281 3.078124-2.921875 5.167968-3.296875l133.925782-23.648438-15.277344-86.648437-133.976563 23.574219c-4.351562.765625-8.496093-2.136719-9.265625-6.488282l-13.894531-78.757812-94.480469 16.65625 13.894532 78.757812c.769531 4.355469-2.132813 8.507813-6.488282 9.273438l-133.964844 23.648438 15.292969 86.648437zm0 0"/><path d="m13.65625 419.523438h448v16h-448zm0 0"/></svg>
