<svg id="icon" height="448pt" viewBox="0 0 448 448" width="448pt" xmlns="http://www.w3.org/2000/svg"><path d="m270.65625 228.441406c-1.570312 2.097656-4.035156 3.332032-6.65625 3.332032s-5.085938-1.234376-6.65625-3.332032l-13.625-20.441406h-39.4375l-13.601562 20.441406c-1.570313 2.097656-4.035157 3.332032-6.65625 3.332032-2.621094 0-5.085938-1.234376-6.65625-3.332032l-13.648438-20.441406h-18.878906l6.398437 64h5.449219l21.65625-21.65625c1.707031-1.679688 4.066406-2.519531 6.449219-2.304688 2.382812.238282 4.535156 1.527344 5.863281 3.519532l13.625 20.441406h39.4375l13.601562-20.441406c1.328126-1.992188 3.480469-3.28125 5.863282-3.519532 2.386718-.226562 4.746094.621094 6.449218 2.304688l21.679688 21.65625h5.488281l6.398438-64h-18.878907zm0 0"/><path d="m262.640625 137.359375c9.945313 5.742187 22.203125 5.714844 32.125-.070313 9.917969-5.785156 15.976563-16.445312 15.875-27.929687l-59.878906 16.046875c2.8125 4.980469 6.914062 9.109375 11.878906 11.953125zm0 0"/><path d="m161.078125 140.550781c14.097656 3.785157 28.96875-2.445312 36.152344-15.152343l-59.878907-16.046876c-.128906 14.59375 9.628907 27.429688 23.726563 31.199219zm0 0"/><path d="m141.785156 448h36.429688l-18.214844-31.871094zm0 0"/><path d="m269.785156 448h36.429688l-18.214844-31.871094zm0 0"/><path d="m448 216v-80h-96c-2.285156 0-4.460938-.976562-5.976562-2.683594-1.519532-1.707031-2.234376-3.984375-1.96875-6.253906l14.945312-127.0625h-34.398438l-29.699218 52c-1.539063 2.332031-4.148438 3.738281-6.941406 3.738281-2.796876 0-5.40625-1.40625-6.945313-3.738281l-29.65625-52h-54.71875l-29.695313 52c-1.542968 2.332031-4.148437 3.738281-6.945312 3.738281s-5.402344-1.40625-6.945312-3.738281l-29.695313-52h-34.632813l15.273438 175.304688c.195312 2.238281-.558594 4.457031-2.082031 6.113281-1.523438 1.652343-3.671875 2.589843-5.917969 2.582031h-56c-4.417969 0-8-3.582031-8-8v-40h-32v80h96c2.21875-.003906 4.339844.910156 5.859375 2.53125 1.515625 1.621094 2.292969 3.796875 2.140625 6.011719l-15.433594 223.457031h34.792969l29.695313-52c1.542968-2.332031 4.148437-3.738281 6.945312-3.738281s5.402344 1.40625 6.945312 3.738281l29.695313 52h54.71875l29.695313-52c1.542968-2.332031 4.148437-3.738281 6.945312-3.738281s5.402344 1.40625 6.945312 3.738281l29.695313 52h34.886719l-15.527344-271.542969c-.125-2.199219.660156-4.355469 2.175781-5.953125 1.515625-1.601562 3.621094-2.507812 5.824219-2.503906h56c4.417969 0 8 3.582031 8 8v40zm-325-118.777344c1.144531-4.265625 5.53125-6.800781 9.800781-5.65625l77.269531 20.707032c4.269532 1.140624 6.800782 5.53125 5.65625 9.796874-4.394531 16.617188-17.335937 29.613282-33.929687 34.078126-16.597656 4.464843-34.3125-.28125-46.449219-12.449219-12.140625-12.164063-16.847656-29.890625-12.347656-46.476563zm189 183.578125c-.414062 4.101563-3.875 7.21875-8 7.199219h-16c-2.121094 0-4.15625-.84375-5.65625-2.34375l-17.105469-17.105469-10.582031 15.890625c-1.484375 2.222656-3.980469 3.558594-6.65625 3.558594h-48c-2.675781 0-5.171875-1.335938-6.65625-3.558594l-10.582031-15.890625-17.105469 17.105469c-1.5 1.5-3.535156 2.34375-5.65625 2.34375h-16c-4.125.019531-7.585938-3.097656-8-7.199219l-8-80c-.226562-2.257812.515625-4.503906 2.039062-6.183593 1.527344-1.675782 3.691407-2.628907 5.960938-2.617188h32c2.675781 0 5.171875 1.335938 6.65625 3.558594l9.34375 14.042968 9.34375-14.015624c1.480469-2.234376 3.976562-3.582032 6.65625-3.585938h48c2.675781 0 5.171875 1.335938 6.65625 3.558594l9.34375 14.042968 9.34375-14.015624c1.480469-2.234376 3.976562-3.582032 6.65625-3.585938h32c2.269531-.011719 4.433594.941406 5.960938 2.617188 1.523437 1.679687 2.265624 3.925781 2.039062 6.183593zm8.246094-147.152343c-9.703125 16.8125-28.585938 26.125-47.832032 23.59375-19.25-2.535157-35.078124-16.417969-40.101562-35.171876-1.144531-4.265624 1.386719-8.65625 5.65625-9.796874l77.230469-20.707032c4.269531-1.144531 8.65625 1.390625 9.800781 5.65625 3.332031 12.296875 1.605469 25.410156-4.792969 36.425782zm0 0"/></svg>
