<svg id="icon" height="512" viewBox="0 0 512 512" width="512" xmlns="http://www.w3.org/2000/svg"><path d="m328 208v-154.484h-35.375a8 8 0 0 1 -7.187-4.493c-5.055-10.343-16.61-17.023-29.438-17.023s-24.383 6.68-29.437 17.023a8 8 0 0 1 -7.188 4.493h-35.375v154.484zm-128-32h16.886a55.82 55.82 0 0 1 0-80h-16.886v-16h30.809a27.673 27.673 0 0 1 -2.809-12 28 28 0 0 1 56 0 27.673 27.673 0 0 1 -2.809 12h30.809v16h-16.886a55.82 55.82 0 0 1 0 80h16.886v16h-112z"/><path d="m312 448h32v32h-32z"/><circle cx="256" cy="68" r="12"/><path d="m255.584 337.6-7.1-113.6h-32.484v176h80v-176h-31.484l7.084 113.35a23.949 23.949 0 1 1 -16.016.253zm-29.068-81.1a8 8 0 0 1 7.484-8.484 8.12 8.12 0 0 1 8.484 7.484l1.5 24a8 8 0 0 1 -7.484 8.484c-.172.008-.336.016-.508.016a8 8 0 0 1 -7.976-7.5zm12.484 71.484c-.172.008-.336.016-.508.016a8 8 0 0 1 -7.976-7.5l-1-16a8 8 0 0 1 7.484-8.484 8.1 8.1 0 0 1 8.484 7.484l1 16a8 8 0 0 1 -7.484 8.484z"/><path d="m168 448h32v32h-32z"/><path d="m328 224h-16v184a8 8 0 0 1 -8 8h-96a8 8 0 0 1 -8-8v-184h-16v208h144z"/><path d="m216 448h80v32h-80z"/><path d="m256 96a40 40 0 1 0 40 40 40.047 40.047 0 0 0 -40-40zm19.578 39.156-11.578 5.789v19.055a8 8 0 0 1 -16 0v-24a8 8 0 0 1 4.422-7.156l16-8a8 8 0 0 1 7.156 14.312z"/><circle cx="264" cy="360" r="8"/></svg>
