<svg id="icon" height="512" viewBox="0 0 512 512" width="512" xmlns="http://www.w3.org/2000/svg"><path d="m50.246 368 4 16h387.508l4-16z"/><path d="m344 96h-101.294l59.274-66.684a8 8 0 1 0 -11.96-10.632l-58.02 65.273-58.02-65.273a8 8 0 1 0 -11.96 10.632l59.274 66.684h-181.294v256h304zm-16 40v184a16.016 16.016 0 0 1 -16 16h-240a16.016 16.016 0 0 1 -16-16v-192a16.016 16.016 0 0 1 16-16h240a16.016 16.016 0 0 1 16 16z"/><path d="m398.777 480h17.223v-80h-30.555z"/><path d="m304 128h-40v192h40a8.011 8.011 0 0 0 8-8v-176a8.011 8.011 0 0 0 -8-8z"/><path d="m72 136v176a8.011 8.011 0 0 0 8 8h40v-192h-40a8.011 8.011 0 0 0 -8 8z"/><path d="m136 128h48v192h-48z"/><path d="m200 128h48v192h-48z"/><path d="m80 480h17.223l13.332-80h-30.555z"/><circle cx="408" cy="224" r="16"/><path d="m360 96v256h96v-256zm72 224h-48a8 8 0 0 1 0-16h48a8 8 0 0 1 0 16zm0-32h-48a8 8 0 0 1 0-16h48a8 8 0 0 1 0 16zm-24-32a32 32 0 1 1 32-32 32.036 32.036 0 0 1 -32 32zm0-80a32 32 0 1 1 32-32 32.036 32.036 0 0 1 -32 32z"/><circle cx="408" cy="144" r="16"/></svg>
