<svg id="icon" height="512" viewBox="0 0 512 512" width="512" xmlns="http://www.w3.org/2000/svg"><path d="m296.434 216a67.17 67.17 0 0 0 0 48h31.771a39.2 39.2 0 0 1 0-48z"/><path d="m183.8 216a39.2 39.2 0 0 1 0 48h44.467a78.916 78.916 0 0 0 0-48z"/><path d="m244.825 216a92.3 92.3 0 0 1 0 48h34.824a80.75 80.75 0 0 1 0-48z"/><circle cx="152" cy="240" r="24"/><path d="m133.543 360-6 16h256.914l-6-16z"/><path d="m456 88h-400a24.027 24.027 0 0 0 -24 24v272a24.027 24.027 0 0 0 24 24h42.455l22.053-58.809a8 8 0 0 1 7.492-5.191h256a8 8 0 0 1 7.492 5.191l22.053 58.809h42.455a24.027 24.027 0 0 0 24-24v-272a24.027 24.027 0 0 0 -24-24zm-408 16h16v16h-16zm16 288h-16v-16h16zm400 0h-16v-16h16zm0-88a24.027 24.027 0 0 1 -24 24h-368a24.027 24.027 0 0 1 -24-24v-144a24.027 24.027 0 0 1 24-24h368a24.027 24.027 0 0 1 24 24zm0-184h-16v-16h16z"/><path d="m440 152h-368a8.011 8.011 0 0 0 -8 8v144a8.011 8.011 0 0 0 8 8h368a8.011 8.011 0 0 0 8-8v-144a8.011 8.011 0 0 0 -8-8zm-272 16h176v16h-176zm232 104a8 8 0 0 1 -8 8h-272a8 8 0 0 1 -8-8v-64a8 8 0 0 1 8-8h272a8 8 0 0 1 8 8z"/><circle cx="360" cy="240" r="24"/><path d="m121.543 392-6 16h280.914l-6-16z"/></svg>
