<svg id="icon" height="512" viewBox="0 0 512 512" width="512" xmlns="http://www.w3.org/2000/svg"><path d="m168 232h-99.055l-16 32h115.055z"/><circle cx="136" cy="376" r="24"/><path d="m168 200h-48.48a55.991 55.991 0 0 0 -39.12 16h87.6z"/><path d="m168 280h-120v48h8a8 8 0 0 1 8 8v24h9.754l6.484-25.938a8 8 0 0 1 7.762-6.062h80zm-16 24h-24v-16h24z"/><path d="m94.246 344-4 16h9.145a40.116 40.116 0 0 1 12.857-16z"/><path d="m32 344h16v16h-16z"/><path d="m403.055 104h-17.168a7.957 7.957 0 0 0 -7.153 4.422l-5.789 11.578h22.11z"/><path d="m472 256h-16v-16h16v-8h-16v-16h14.526a23.96 23.96 0 0 0 -22.526-16h-8v64h32z"/><path d="m424 200h-32-80v16h112z"/><path d="m432.875 152a49.591 49.591 0 0 0 -36.652-16h-156.457a87.355 87.355 0 0 0 -50.633 16z"/><path d="m312 232h112v32h-112z"/><path d="m472 280h-160v80h17.754l6.484-25.938a8 8 0 0 1 7.762-6.062h96a8 8 0 0 1 7.762 6.062l5.42 21.683 11.662-23.323a8 8 0 0 1 7.156-4.422zm-88 32h-16v-16h16zm56 0h-40v-16h40z"/><circle cx="392" cy="376" r="24"/><path d="m350.246 344-4 16h9.145a40.116 40.116 0 0 1 12.857-16z"/><path d="m476.945 344-8 16h11.055v-16z"/><path d="m415.752 344a40.116 40.116 0 0 1 12.857 16h9.145l-4-16z"/><path d="m184 200h112v16h-112z"/><path d="m184 232h112v32h-112z"/><path d="m176 344h-16.248a40.116 40.116 0 0 1 12.857 16h9.145l-4-16z"/><path d="m184 328a8 8 0 0 1 7.762 6.062l6.484 25.938h97.754v-80h-112z"/><path d="m272 168h16v16h-16z"/><path d="m384 168h16v16h-16z"/></svg>
