<svg id="icon" height="512" viewBox="0 0 512 512" width="512" xmlns="http://www.w3.org/2000/svg"><path d="m120 408v8h32v-47.191a40.067 40.067 0 0 0 -32 39.191z"/><path d="m326.336 308.75-31.936-23.95a64.42 64.42 0 0 0 -38.4-12.8h-2.2a63.814 63.814 0 0 0 -35.5 10.75l-40 26.664a73.347 73.347 0 0 0 58.594-10.289l14.672-9.781a7.979 7.979 0 0 1 8.875 0l12.152 8.1a73.82 73.82 0 0 0 53.743 11.306z"/><path d="m360 160a16 16 0 0 0 0-32h-208a16 16 0 0 0 0 32z"/><path d="m263.715 310.758-7.715-5.141-10.234 6.821a91.325 91.325 0 0 1 -8.15 4.778 63.352 63.352 0 0 0 37.358-.175 89.836 89.836 0 0 1 -11.259-6.283z"/><path d="m308.695 396.711-12.429-20.719-20.715 37.289z"/><path d="m240 334.317v17.683h32v-17.678a77.008 77.008 0 0 1 -32 0z"/><path d="m112 432h40v16h-40z"/><path d="m360 416h32v-8a40.067 40.067 0 0 0 -32-39.191z"/><path d="m264 32h-16a56.04 56.04 0 0 0 -55.361 48h126.722a56.04 56.04 0 0 0 -55.361-48z"/><path d="m120 464h32v16h-32z"/><path d="m192 96h128v16h-128z"/><path d="m229.598 368 26.402 47.523 26.402-47.523z"/><path d="m184.32 402.234a7.979 7.979 0 0 1 .821-6.351l16.729-27.883h-33.87v112h80v-43.055l-59.578-29.789a8.006 8.006 0 0 1 -4.102-4.922z"/><path d="m326.859 395.883a8 8 0 0 1 -3.281 11.273l-59.578 29.789v43.055h80v-112h-33.87z"/><path d="m360 464h32v16h-32z"/><path d="m360 432h40v16h-40z"/><path d="m215.734 375.992-12.429 20.719 33.144 16.57z"/><path d="m312 184a39.955 39.955 0 0 1 8 .809v-8.809h-128v80a64.224 64.224 0 0 0 4.061 22.347l13.365-8.909a79.756 79.756 0 0 1 23.3-10.488 7.532 7.532 0 0 1 -.456-.895 7.994 7.994 0 0 1 1.074-6.493l16-24a8 8 0 0 1 13.312 8.876l-10.972 16.462 6.375 3.186a80.471 80.471 0 0 1 45.941 15.914l11.131 8.348a63.09 63.09 0 0 0 4.385-17.108 39.978 39.978 0 1 1 -7.516-79.24zm-88 48a16 16 0 1 1 16-16 16 16 0 0 1 -16 16z"/><path d="m176 208a16 16 0 0 0 0 32z"/><circle cx="312" cy="224" r="24"/></svg>
