<svg id="icon" height="512" viewBox="0 0 512 512" width="512" xmlns="http://www.w3.org/2000/svg"><path d="m88 99.414v-35.4l-54.8 88.33a7.965 7.965 0 0 0 -1.2 4.218v220.912a23.731 23.731 0 0 1 8-1.474h8v-208a8.023 8.023 0 0 1 1.215-4.242l37.566-60.11a7.929 7.929 0 0 0 1.219-4.234z"/><path d="m32 400a8.008 8.008 0 0 0 8 8h8v-16h-8a8.008 8.008 0 0 0 -8 8z"/><path d="m166.959 431.383a39.955 39.955 0 0 0 24.586-63.925z"/><path d="m160 328a64 64 0 1 0 64 64 64.073 64.073 0 0 0 -64-64zm0 120a56 56 0 1 1 56-56 56.063 56.063 0 0 1 -56 56z"/><path d="m237.26 371.289a79.4 79.4 0 0 1 2.288 12.283 60.211 60.211 0 0 1 32.895 0 79.438 79.438 0 0 1 2.287-12.284 63.37 63.37 0 0 0 -37.47.001z"/><path d="m88 99.413v-35.338l-54.8 88.271a7.988 7.988 0 0 0 -1.2 4.218v220.814a23.889 23.889 0 0 1 8-1.376h8v-208.002a8.006 8.006 0 0 1 1.216-4.24l37.568-60.11a7.982 7.982 0 0 0 1.216-4.237z"/><path d="m97.674 341.922a74.907 74.907 0 0 0 -7.659 3.764 74.032 74.032 0 0 0 -26.015 24.6v43.43a74.692 74.692 0 0 0 33.656 28.344 79.772 79.772 0 0 1 .018-100.138z"/><path d="m304.051 328h-96.111a80.544 80.544 0 0 1 23.619 28.3 79.422 79.422 0 0 1 48.873 0 80.534 80.534 0 0 1 23.619-28.3z"/><path d="m120 392a39.758 39.758 0 0 0 5.825 20.765c12.061-29.7 19.336-48.629 23.066-59.184a40.064 40.064 0 0 0 -28.891 38.419z"/><path d="m166.1 352.468c-2.863 9.083-10.061 28.617-28.137 72.9a39.8 39.8 0 0 0 12.094 5.385l28.52-74.153a39.648 39.648 0 0 0 -12.477-4.132z"/><path d="m422 345.7a74.963 74.963 0 0 0 -7.678-3.773 79.77 79.77 0 0 1 .016 100.137 74.689 74.689 0 0 0 33.662-28.348v-43.43a74.015 74.015 0 0 0 -26-24.586z"/><path d="m472 392h-8v16h8a8 8 0 0 0 0-16z"/><path d="m478.793 152.346-54.793-88.271v35.338a7.984 7.984 0 0 0 1.215 4.238l37.569 60.111a8.006 8.006 0 0 1 1.216 4.238v208h8a23.889 23.889 0 0 1 8 1.376v-220.812a7.988 7.988 0 0 0 -1.207-4.218z"/><path d="m352 328a64 64 0 1 0 64 64 64.072 64.072 0 0 0 -64-64zm0 120a56 56 0 1 1 56-56 56.063 56.063 0 0 1 -56 56z"/><path d="m312 392a39.749 39.749 0 0 0 5.667 20.5c11.966-29.467 19.2-48.293 22.928-58.832a40.066 40.066 0 0 0 -28.595 38.332z"/><path d="m32 400a8.009 8.009 0 0 0 8 8h8v-16h-8a8.009 8.009 0 0 0 -8 8z"/><path d="m357.847 352.434c-2.852 9.06-10.033 28.555-28.092 72.8a39.86 39.86 0 0 0 12.064 5.455l28.539-74.2a39.651 39.651 0 0 0 -12.511-4.055z"/><path d="m383.367 367.231-24.693 64.2a39.956 39.956 0 0 0 24.693-64.2z"/><path d="m255.996 280.002h16v16h-16z"/><path d="m287.996 280.002h16v16h-16z"/><path d="m319.996 280.002h32v16h-32z"/><path d="m478.8 152.352-55.2-88.914.4 35.976a7.96 7.96 0 0 0 1.215 4.234l37.57 60.11a8.023 8.023 0 0 1 1.215 4.242v208h8a23.731 23.731 0 0 1 8 1.474v-220.912a7.949 7.949 0 0 0 -1.2-4.21z"/><path d="m472 392h-8v16h8a8 8 0 0 0 0-16z"/></svg>
