<svg id="icon" height="512" viewBox="0 0 512 512" width="512" xmlns="http://www.w3.org/2000/svg"><path d="m79.994 352a32 32 0 1 0 32 32 32.036 32.036 0 0 0 -32-32zm0 48a16 16 0 1 1 16-16 16.018 16.018 0 0 1 -16 16z" fill="none"/><path d="m167.994 192a16 16 0 0 0 0-32h-32v32z"/><path d="m457.6 308.809a112.868 112.868 0 0 0 -28.532-26.65c-.018-.009-.034-.02-.052-.029q-.273-.144-.534-.307c-.039-.024-.081-.043-.119-.068a110.712 110.712 0 0 0 -60.369-17.755h-104v13.57l6.089 9.1a58.756 58.756 0 0 1 2.526 61.175 8 8 0 0 1 -7.015 4.155h-92.656l8 16h115.056v-48a40.045 40.045 0 0 1 40-40h32a96.127 96.127 0 0 1 95.664 88h16.059a110.745 110.745 0 0 0 -22.117-59.191z"/><circle cx="79.994" cy="384.001" r="16"/><path d="m100.247 344h-46.712a47.481 47.481 0 0 0 -21.541 40 48 48 0 0 0 96 0 50.33 50.33 0 0 0 -.584-7.4zm-20.253 72a32 32 0 1 1 32-32 32.036 32.036 0 0 1 -32 32z"/><path d="m367.994 296h-32a24.027 24.027 0 0 0 -24 24v16h125.25a80.039 80.039 0 0 0 -69.25-40z"/><path d="m351.994 232h-88a8.009 8.009 0 0 0 -8 8v8h96z"/><path d="m415.994 240a8.009 8.009 0 0 0 -8-8h-40v16h40a8.009 8.009 0 0 0 8-8z"/><path d="m466.246 294.011 3.5-14.01h-17.181a128.905 128.905 0 0 1 13.681 14.01z"/><path d="m399.994 384h-32a16 16 0 0 0 32 0z"/><path d="m311.994 352v16h135.606a79.374 79.374 0 0 0 -3.3-16z"/><path d="m177.435 248h-2.855a403.837 403.837 0 0 0 -6.586 72.56v9.311l23.05-13.83z"/><path d="m383.994 416a32.036 32.036 0 0 1 -32-32h-16a48 48 0 0 0 96 0h-16a32.036 32.036 0 0 1 -32 32z"/><path d="m90.067 304a66.71 66.71 0 0 0 -51.043 24h64.97a8 8 0 0 1 6.146 2.879l30.934 37.121h21.975l-13.672-27.346a65.948 65.948 0 0 0 -59.31-36.654z"/><path d="m141.807 250.082a53.657 53.657 0 0 1 -21.813 26.609v16.886a81.509 81.509 0 0 1 32.027 22.494 419.716 419.716 0 0 1 8.047-77.4c.047-.233.1-.463.17-.69l6-29.985h-8.692z"/><path d="m200 106.245v5.755a8 8 0 0 0 16 0v-32a8 8 0 0 0 -16 0v9.757l-25.941 6.485a7.992 7.992 0 0 0 -5.95 6.446l-8.109 49.312h16.109l6.918-41.508z"/></svg>
