<svg id="icon" height="512" viewBox="0 0 512 512" width="512" xmlns="http://www.w3.org/2000/svg"><path d="m280 352a16.016 16.016 0 0 0 16-16v-40.844a94.879 94.879 0 0 1 -80 0v40.844a16.016 16.016 0 0 0 16 16z"/><path d="m240 216a8 8 0 0 1 0 16h-60.311a80.317 80.317 0 0 0 36.311 45.176v-21.176a8 8 0 0 1 16 0v28.311a79.49 79.49 0 0 0 16 3.284v-31.595a8 8 0 0 1 16 0v31.6a79.49 79.49 0 0 0 16-3.284v-28.316a8 8 0 0 1 16 0v21.176a80.317 80.317 0 0 0 36.311-45.176h-60.311a8 8 0 0 1 0-16h63.6c.262-2.632.4-5.3.4-8v-8h-64a8 8 0 0 1 0-16h64v-16h-64a8 8 0 0 1 0-16h64v-16h-64a8 8 0 0 1 0-16h64v-8c0-2.7-.143-5.368-.4-8h-63.6a8 8 0 0 1 0-16h60.311a80.317 80.317 0 0 0 -36.311-45.176v21.176a8 8 0 0 1 -16 0v-28.311a79.49 79.49 0 0 0 -16-3.284v31.595a8 8 0 0 1 -16 0v-31.595a79.49 79.49 0 0 0 -16 3.284v28.311a8 8 0 0 1 -16 0v-21.176a80.317 80.317 0 0 0 -36.311 45.176h60.311a8 8 0 0 1 0 16h-63.595c-.262 2.632-.405 5.3-.405 8v8h64a8 8 0 0 1 0 16h-64v16h64a8 8 0 0 1 0 16h-64v16h64a8 8 0 0 1 0 16h-64v8c0 2.7.143 5.368.405 8z"/><path d="m248 368h16v48h-16z"/><path d="m352 464h-192v16h192.012z"/><path d="m306.301 448-36-16h-28.602l-36 16z"/></svg>
