<?xml version="1.0"?>
<svg xmlns="http://www.w3.org/2000/svg" viewBox="0 0 512 512" width="512" height="512"><g id="solid"><path d="M168,256c0-.245.035-.481.037-.725l-97.123.506A183.177,183.177,0,0,0,247.656,437.668l2.99-93.939A88.038,88.038,0,0,1,168,256Z"/><path d="M256,184a72,72,0,1,0,72,72A72.081,72.081,0,0,0,256,184Zm0,110.258A38.26,38.26,0,1,1,294.266,256,38.3,38.3,0,0,1,256,294.258Z"/><path d="M256,233.738A22.26,22.26,0,1,0,278.266,256,22.287,22.287,0,0,0,256,233.738Z"/><path d="M366.18,108.6a181.869,181.869,0,0,0-98.61-37.344l-6.685,96.99A88.035,88.035,0,0,1,344,256c0,.073-.011.144-.011.217l93.863,2.986A183.318,183.318,0,0,0,366.18,108.6Z"/><path d="M477.016,219.812c-17.953-109.667-113.2-187.8-220.891-187.8a224.489,224.489,0,0,0-36.32,2.964C97.938,54.938,15.023,170.324,34.984,292.191S170.273,496.984,292.2,477.023A223.962,223.962,0,0,0,477.016,219.812ZM87.9,145.547a202.683,202.683,0,0,1,69.743-65.012,8,8,0,1,1,7.828,13.953,186.628,186.628,0,0,0-64.211,59.856,8,8,0,1,1-13.36-8.8ZM61.82,203.426a200.35,200.35,0,0,1,8.125-23.934,8,8,0,0,1,14.8,6.094A183.7,183.7,0,0,0,77.273,207.6a8,8,0,0,1-15.453-4.172Zm289.8,229.551a199.6,199.6,0,0,1-55.094,20.054,7.764,7.764,0,0,1-1.609.164,8,8,0,0,1-1.594-15.836,183.961,183.961,0,0,0,50.688-18.453,8,8,0,1,1,7.609,14.071Zm98.024-118.892a201.251,201.251,0,0,1-51.985,89.691,8,8,0,0,1-11.312-11.312,185.184,185.184,0,0,0,47.844-82.551,8,8,0,0,1,15.453,4.172Zm3.812-46.093a8,8,0,0,1-7.976,7.457c-.086,0-.172,0-.266,0l-102.767-3.268a88.115,88.115,0,0,1-75.783,71.112l-3.27,102.758a7.992,7.992,0,0,1-7.953,7.746c-.3,0-.61,0-.915,0A199.21,199.21,0,0,1,55.031,247.547a8,8,0,0,1,7.953-7.727l106.657-.554A88.129,88.129,0,0,1,244.8,168.793l7.338-106.465a8.089,8.089,0,0,1,8.218-7.445A199.214,199.214,0,0,1,453.453,267.992Z"/></g></svg>
