<svg id="icon" height="512" viewBox="0 0 512 512" width="512" xmlns="http://www.w3.org/2000/svg"><path d="m148.066 268.512-46.332-28.512h-65.734a4 4 0 0 0 0 8h52a7.952 7.952 0 0 1 3.883 1.008l70.187 38.992h17.664l-31.365-19.3c-.103-.065-.203-.12-.303-.188z"/><path d="m64 264a24 24 0 1 0 24 24 24.027 24.027 0 0 0 -24-24zm0 36a12 12 0 1 1 12-12 12 12 0 0 1 -12 12z"/><path d="m104 288h25.131l-28.4-15.778a39.724 39.724 0 0 1 3.269 15.778z"/><path d="m272 192v-32h-50.234l-10.664 32z"/><path d="m288 160h48v32h-48z"/><path d="m408 168a8.005 8.005 0 0 0 -8-8h-48v32h56z"/><path d="m408 217.872v-9.872h-56v20.23a70.915 70.915 0 0 1 56-10.358z"/><path d="m264 256a8.005 8.005 0 0 0 8-8v-40h-48v48z"/><path d="m472 272h-9.979a72.156 72.156 0 0 1 1.979 16h8a7.674 7.674 0 0 0 5.547-2.3 7.818 7.818 0 0 0 2.453-5.7 8.005 8.005 0 0 0 -8-8z"/><path d="m412.992 236.055c-21.859-8.711-47.664-2.516-62.984 14.906a47.554 47.554 0 0 0 -5.711 7.719c-.078.132-.164.265-.25.39a56.255 56.255 0 0 0 -8.047 28.93h16a40 40 0 0 1 80 0h16a55.854 55.854 0 0 0 -35.008-51.945z"/><path d="m336 208h-48v40a8.005 8.005 0 0 0 8 8h28.7l6.365-6.3a63.82 63.82 0 0 1 4.935-6.873z"/><path d="m392 264a24 24 0 1 0 24 24 24.027 24.027 0 0 0 -24-24zm0 36a12 12 0 1 1 12-12 12 12 0 0 1 -12 12z"/><path d="m184 232a24.027 24.027 0 0 0 -24 24c0 .427.085.729.1 1.131l33.672 20.722a23.96 23.96 0 0 0 -9.772-45.853zm0 36a12 12 0 1 1 12-12 12 12 0 0 1 -12 12z"/><path d="m72 208v16h16v-8h16v8a8.028 8.028 0 0 1 4.195 1.188l11.805 7.264v-16.452h16v26.3l8.873 5.461a40.058 40.058 0 0 1 39.127-31.761 39.607 39.607 0 0 1 24 8.205v-16.205z"/><path d="m280 265.758a23.816 23.816 0 0 1 -16 6.242h-43.511a40.2 40.2 0 0 1 -11.63 15.134l1.407.866h109.734a71.691 71.691 0 0 1 1.961-16h-25.961a23.816 23.816 0 0 1 -16-6.242z"/></svg>
