<svg id="icon" xmlns="http://www.w3.org/2000/svg" viewBox="0 0 512 512" width="512" height="512"><g id="solid"><path d="M259.313,160h11.058l-34.523-39.461A24.931,24.931,0,0,0,192.3,134.047a36.187,36.187,0,0,1,45.641,4.578Z"/><path d="M192.453,160h44.235l-10.059-10.062A20.292,20.292,0,0,0,192.453,160Z"/><path d="M256,336a80.042,80.042,0,0,1-16-1.613V344a23.635,23.635,0,0,1-8,17.695v1.047a100.5,100.5,0,0,0,24,65.469,100.5,100.5,0,0,0,24-65.469v-1.058A23.625,23.625,0,0,1,272,344v-9.613A80.042,80.042,0,0,1,256,336Z"/><path d="M320,256V176H192v80a64,64,0,0,0,128,0Zm-86.656-20.438,16-24a8,8,0,0,1,13.312,8.876L251.684,236.9l7.894,3.946a8,8,0,0,1-7.156,14.312l-16-8a8,8,0,0,1-3.078-11.594ZM200,216a16,16,0,1,1,16,16A16,16,0,0,1,200,216Zm82.531,63.586a84.352,84.352,0,0,1-53.062,0,8,8,0,1,1,5.062-15.172,68.4,68.4,0,0,0,42.938,0,8,8,0,1,1,5.062,15.172ZM280,216a16,16,0,1,1,16,16A16,16,0,0,1,280,216Z"/><path d="M303.8,320h29.564a31.151,31.151,0,0,0,7.727-.961l2.707-.656c16.676-4.2,26.863-20.383,23.625-37.625a31.54,31.54,0,0,0-3.984-9.969l-2.188-3.586a112.02,112.02,0,0,1-8.011-16.325A31.738,31.738,0,0,1,336,256,79.845,79.845,0,0,1,303.8,320Z"/><path d="M336,240a16,16,0,0,0,0-32Z"/><path d="M313.754,397A8,8,0,0,1,312,392V368H295.887a116.444,116.444,0,0,1-34.231,77.656,8.234,8.234,0,0,1-11.312,0A116.444,116.444,0,0,1,216.113,368H200v24a8,8,0,0,1-1.754,5l-8.781,10.977A64.109,64.109,0,0,0,177.9,465.539L182.035,480h147.93l4.133-14.461a64.109,64.109,0,0,0-11.563-57.562Z"/><path d="M176,168V137.016a41.018,41.018,0,0,1,71.887-27.008L291.627,160H328a8,8,0,0,1,8,8v24a31.593,31.593,0,0,1,8.576,1.315L344,176.266a71.684,71.684,0,0,0-70.211-72.188,8.022,8.022,0,0,1-6.039-3A55.72,55.72,0,0,0,224.02,80h-.438C192.93,80.211,168,106.406,168,138.4v54.738A31.653,31.653,0,0,1,176,192Z"/><path d="M336,368h-8V389.2l7.027,8.782A80.129,80.129,0,0,1,349.48,469.93L346.6,480H376V408A40.047,40.047,0,0,0,336,368Z"/><path d="M176.973,397.977,184,389.2V368h-8a40.047,40.047,0,0,0-40,40v72h29.4l-2.876-10.07A80.129,80.129,0,0,1,176.973,397.977Z"/><path d="M176,240V208a16,16,0,0,0,0,32Z"/><path d="M170.512,318.4l2.574.625a32.057,32.057,0,0,0,7.875.977h27.244A79.845,79.845,0,0,1,176,256a31.618,31.618,0,0,1-15.91-4.4,117.9,117.9,0,0,1-9.324,19.261,31.338,31.338,0,0,0-3.953,9.961C143.586,298,153.77,314.18,170.512,318.4Z"/></g></svg>
