<svg id="icon" height="512" viewBox="0 0 512 512" width="512" xmlns="http://www.w3.org/2000/svg"><circle cx="359.992" cy="359.992" r="8"/><path d="m120 304v-16h-16v16a8 8 0 0 1 -8 8h-16v16h16a8 8 0 0 1 8 8v16h16v-16a8 8 0 0 1 8-8h16v-16h-16a8 8 0 0 1 -8-8z"/><path d="m296 304h-96a8.005 8.005 0 0 0 -8 8v16a8.005 8.005 0 0 0 8 8h96a8.005 8.005 0 0 0 8-8v-16a8.005 8.005 0 0 0 -8-8zm-56 24h-32v-16h32zm48 0h-32v-16h32z"/><path d="m297.75 240 4-16h-107.5l4 16z"/><circle cx="359.992" cy="296.008" r="8"/><path d="m240 64h16v144h-16z"/><path d="m427.188 288.664a8 8 0 1 0 4.148 10.531 8.032 8.032 0 0 0 -4.148-10.531z"/><path d="m440 224h-121.758l-6.484 25.938a8 8 0 0 1 -7.758 6.062h-112a8 8 0 0 1 -7.758-6.062l-6.484-25.938h-105.758a24.027 24.027 0 0 0 -24 24v144a24.027 24.027 0 0 0 24 24h368a24.027 24.027 0 0 0 24-24v-144a24.027 24.027 0 0 0 -24-24zm-24 16h16v16h-16zm-64 0h16v16h-16zm-288 16a16.021 16.021 0 0 1 16-16h16v16h-16v16h-16zm32 144h-16a16.021 16.021 0 0 1 -16-16v-16h16v16h16zm32 0h-16v-16h16zm8-40a8 8 0 0 1 -8 8h-32a8 8 0 0 1 -8-8v-16h-16a8 8 0 0 1 -8-8v-32a8 8 0 0 1 8-8h16v-16a8 8 0 0 1 8-8h32a8 8 0 0 1 8 8v16h16a8 8 0 0 1 8 8v32a8 8 0 0 1 -8 8h-16zm56 40h-48v-16h48zm128-72a24.027 24.027 0 0 1 -24 24h-96a24.027 24.027 0 0 1 -24-24v-16a24.027 24.027 0 0 1 24-24h96a24.027 24.027 0 0 1 24 24zm39.992 55.992a24 24 0 1 1 24-24 24.026 24.026 0 0 1 -24 24zm0-63.984a24 24 0 1 1 24-24 24.027 24.027 0 0 1 -24 24zm86.016 49.554a24 24 0 1 1 -12.445-31.578 24.046 24.046 0 0 1 12.445 31.578zm0-63.992a24 24 0 1 1 -12.445-31.578 24.046 24.046 0 0 1 12.445 31.578z"/><path d="m427.188 352.656a8 8 0 1 0 4.148 10.532 8.042 8.042 0 0 0 -4.148-10.532z"/><path d="m272 144h16v16h-16z"/><path d="m272 112h16v16h-16z"/><path d="m272 64h16v32h-16z"/></svg>
