<svg id="icon" xmlns="http://www.w3.org/2000/svg" viewBox="0 0 512 512" width="512" height="512"><g id="solid"><path d="M120,168a8.011,8.011,0,0,1-8,8H40a8.011,8.011,0,0,1-8-8v-8h88ZM40,144v-9.113A54.835,54.835,0,0,1,94.832,80.055H112V144Zm144,32v15.668a206.725,206.725,0,0,1-55.355,140.709q.552-8.661,1.6-17.3c.3-2.506.727-4.992,1.091-7.488.476-3.291.945-6.583,1.526-9.861s1.275-6.525,1.965-9.777c.494-2.351.985-4.7,1.534-7.041.848-3.593,1.781-7.164,2.757-10.723q.9-3.261,1.858-6.5c1.011-3.394,2.066-6.773,3.191-10.131.8-2.372,1.649-4.719,2.5-7.067,1.143-3.156,2.289-6.311,3.536-9.429,1.074-2.683,2.24-5.319,3.388-7.966,1.166-2.7,2.29-5.41,3.533-8.073,2.478-5.289,5.068-10.516,7.84-15.633L180.781,176ZM160.012,448H128V432h32Zm232,0H360V432h32ZM416,392v16a8.011,8.011,0,0,1-8,8H104a8.011,8.011,0,0,1-8-8V392a8.011,8.011,0,0,1,8-8H408A8.011,8.011,0,0,1,416,392ZM128,368V355.463a222.394,222.394,0,0,0,49.728-66.973,79.818,79.818,0,0,0,114.523,54.733c.1-.044.2-.061.3-.11s.177-.114.27-.163a80.056,80.056,0,0,0,8.678-5.227c.216-.151.417-.321.632-.473a80.565,80.565,0,0,0,7.029-5.629c.477-.426.949-.85,1.416-1.287a80.462,80.462,0,0,0,12.741-15.27c.083-.128.187-.24.269-.369.037-.058.035-.131.07-.19a79.4,79.4,0,0,0,12.243-40.42A222.507,222.507,0,0,0,392,355.463V368Zm185.544-68.172-21.516-10.759A39.548,39.548,0,0,0,296,272a40.288,40.288,0,1,0-25.386,37.144l7.6,22.8a64.23,64.23,0,1,1,35.33-32.115ZM292.8,324.275c-.074.054-.145.113-.22.165l-6.88-20.647,19.074,9.539a63.933,63.933,0,0,1-5.315,5.515q-.458.425-.925.841A63.706,63.706,0,0,1,292.8,324.275Zm-15.02-42.331-2.2-1.1a8,8,0,0,0-11.168,9.687l1.152,3.456a24.265,24.265,0,1,1,12.217-12.043ZM339.219,176l15.824,29.41c2.765,5.1,5.348,10.321,7.821,15.6,1.261,2.7,2.4,5.452,3.584,8.188,1.13,2.608,2.279,5.206,3.338,7.851,1.251,3.13,2.4,6.3,3.55,9.466.849,2.339,1.7,4.677,2.491,7.041,1.124,3.35,2.176,6.723,3.184,10.109q.975,3.264,1.875,6.556c.968,3.529,1.892,7.07,2.734,10.631.562,2.4,1.066,4.8,1.571,7.208.678,3.2,1.358,6.408,1.935,9.632.591,3.327,1.068,6.667,1.55,10.007.357,2.456.776,4.9,1.074,7.367q1.038,8.643,1.605,17.313A206.725,206.725,0,0,1,336,191.668V176ZM320,176v15.668a222.061,222.061,0,0,0,3.139,36.983,79.772,79.772,0,0,0-124.548-12.24A221.966,221.966,0,0,0,200,191.668V142.639c5.333.257,10.665.518,16,.7V168a8,8,0,0,0,8,8h64a8,8,0,0,0,8-8V143.34c5.335-.183,10.667-.444,16-.7V168A8,8,0,0,0,320,176Zm.287-49.7c-.1,0-.185-.058-.287-.058-.167,0-.306.085-.47.095q-15.639.869-31.3,1.315c-.081,0-.148-.046-.229-.046-.1,0-.187.054-.288.058q-31.7.878-63.424,0c-.1,0-.186-.058-.288-.058-.081,0-.148.044-.229.046q-15.658-.441-31.3-1.315c-.164-.01-.3-.095-.47-.095-.1,0-.186.054-.287.058Q159.789,124.5,128,120.926V79.184a1145.766,1145.766,0,0,1,256,0v41.742Q352.229,124.505,320.287,126.3ZM400,128.055v-48h17.168A54.835,54.835,0,0,1,472,134.887v9.168H400Zm80,40a8.011,8.011,0,0,1-8,8H400a8.011,8.011,0,0,1-8-8v-8h88Z"/></g></svg>
