<svg id="icon" height="512" viewBox="0 0 512 512" width="512" xmlns="http://www.w3.org/2000/svg"><path d="m258.05 112.029a71.62 71.62 0 0 1 42.909 15.782l35.941-37.711a123.411 123.411 0 0 0 -77.36-30.055q-1.823-.045-3.64-.045a123 123 0 0 0 -79.056 28.547l35.836 37.945a71.372 71.372 0 0 1 45.37-14.463z"/><path d="m163.629 266.73 36.1-37.879a71.884 71.884 0 0 1 1.322-91.375l-35.835-37.944a123.991 123.991 0 0 0 -1.587 167.2zm-10.908-102.122a8 8 0 0 1 15.729 2.937 89.842 89.842 0 0 0 -1.516 16.455 88.439 88.439 0 0 0 7.329 35.442 8 8 0 1 1 -14.676 6.374 104.362 104.362 0 0 1 -8.653-41.816 105.915 105.915 0 0 1 1.787-19.392z"/><path d="m379.944 187.541a123.559 123.559 0 0 0 -31.626-86.23l-36.061 37.836a71.819 71.819 0 0 1 -1.34 91.354l35.855 37.965a123.086 123.086 0 0 0 33.172-80.925zm-35.737 8.8a90.226 90.226 0 0 0 .847-12.34 88.4 88.4 0 0 0 -7.693-36.269 8 8 0 0 1 14.61-6.522 104.281 104.281 0 0 1 9.083 42.79 106.341 106.341 0 0 1 -1 14.535 8 8 0 1 1 -15.849-2.195z"/><path d="m219.22 226.2a55.75 55.75 0 0 0 35.18 13.777c.54.015 1.084.023 1.621.023a55.961 55.961 0 0 0 40.111-95l-3.358-3.2a55.742 55.742 0 0 0 -35.176-13.777c-.547-.016-1.1-.023-1.64-.023a55.609 55.609 0 0 0 -38.41 15.287 55.935 55.935 0 0 0 -1.688 79.713zm4.787-43.115a32 32 0 1 1 32.011 32.915c-.312 0-.624 0-.938-.014a32 32 0 0 1 -31.073-32.9z"/><path d="m252.453 307.949a123.055 123.055 0 0 0 82.687-28.5l-35.865-37.974a71.63 71.63 0 0 1 -43.253 14.525q-1.039 0-2.084-.03a71.618 71.618 0 0 1 -42.909-15.783l-35.985 37.757a123.064 123.064 0 0 0 77.409 30.005z"/><circle cx="431.994" cy="408" r="16"/><path d="m255.537 199.993a16 16 0 1 0 .914-31.988c-.157 0-.313-.006-.469-.006a16 16 0 0 0 -.445 31.994z"/><path d="m63.994 392h224v32h-224z"/><circle cx="351.994" cy="408" r="16"/><path d="m31.994 448a8.009 8.009 0 0 0 8 8h432.006a8.009 8.009 0 0 0 8-8v-88h-448zm400-72a32 32 0 1 1 -32 32 32.035 32.035 0 0 1 32-32zm-80 0a32 32 0 1 1 -32 32 32.035 32.035 0 0 1 32-32zm-304 8a8 8 0 0 1 8-8h240a8 8 0 0 1 8 8v48a8 8 0 0 1 -8 8h-240a8 8 0 0 1 -8-8z"/><path d="m472 104h-101.185a139.858 139.858 0 0 1 -13.037 176.12l.16.168-5.8 5.473-.02.02-.022.02-5.8 5.473-.159-.169a138.888 138.888 0 0 1 -90.037 32.895c-1.367 0-2.73-.019-4.1-.059a139.055 139.055 0 0 1 -97.147-43.158l-2.418-2.305.134-.14a140.078 140.078 0 0 1 -11.511-174.338h-101.064a8.009 8.009 0 0 0 -8 8v232h448.006v-232a8.009 8.009 0 0 0 -8-8z"/></svg>
