<svg id="icon" height="512" viewBox="0 0 512 512" width="512" xmlns="http://www.w3.org/2000/svg"><path d="m96 253.484h16v16h-16z"/><path d="m224 245.484h48v48h-48z"/><path d="m208 388.348v67.652h16v-67.652a28.737 28.737 0 0 1 -16 0z"/><path d="m200 354.316-163.035 84.02a8 8 0 0 0 7.2 14.3l161.365-83.149a15.919 15.919 0 0 0 26.471-12v-16h-32.001z"/><circle cx="136" cy="125.484" r="16"/><path d="m80 273.203v-23.437l-18.422-12.282h-13.578v48h13.578z"/><path d="m136 197.484a72 72 0 1 0 -72-72 72.081 72.081 0 0 0 72 72zm0-128a55.747 55.747 0 0 1 30.969 9.336 8 8 0 0 1 -8.86 13.328 39.792 39.792 0 0 0 -22.109-6.664 8 8 0 0 1 0-16zm0 24a32 32 0 1 1 -32 32 32.034 32.034 0 0 1 32-32zm-55.227 41.328a56.788 56.788 0 0 1 -.773-9.328 55.9 55.9 0 0 1 14.262-37.336 8 8 0 1 1 11.922 10.672 39.921 39.921 0 0 0 -10.184 26.664 40.337 40.337 0 0 0 .555 6.672 8.005 8.005 0 0 1 -6.563 9.219 8.708 8.708 0 0 1 -1.336.109 8.007 8.007 0 0 1 -7.883-6.672z"/><path d="m128 277.484v16h17.475a22.44 22.44 0 0 1 0-16z"/><path d="m186.438 197.484h59.124a88.462 88.462 0 0 1 -29.562-35.553 88.462 88.462 0 0 1 -29.562 35.553z"/><path d="m352 237.484h16v48h-16z"/><circle cx="168" cy="285.484" r="8"/><circle cx="296" cy="125.484" r="16"/><path d="m320 245.484h16v32h-16z"/><path d="m296 53.484a72 72 0 1 0 72 72 72.081 72.081 0 0 0 -72-72zm-41.113 45.961a8 8 0 0 1 -.625-11.3 56.768 56.768 0 0 1 51.066-17.89 8 8 0 1 1 -2.656 15.781 40.625 40.625 0 0 0 -36.488 12.784 8 8 0 0 1 -11.3.625zm41.113 58.039a32 32 0 1 1 32-32 32.033 32.033 0 0 1 -32 32zm41.738 5.336a8 8 0 1 1 -11.922-10.672 40.011 40.011 0 0 0 3.524-48.773 8 8 0 0 1 13.328-8.859 56.022 56.022 0 0 1 -4.93 68.3z"/><path d="m390.871 219.445a8.032 8.032 0 0 0 -6.871 7.914v68.25a8.031 8.031 0 0 0 6.867 7.914l89.133 12.735v-109.547z"/><path d="m128 261.484h40a24 24 0 0 1 0 48h-40v16h176v-112h-176zm80-24a8 8 0 0 1 8-8h64a8 8 0 0 1 8 8v64a8 8 0 0 1 -8 8h-64a8 8 0 0 1 -8-8zm-32-8h16v16h-16zm-32 0h16v16h-16z"/></svg>
