<svg id="icon" height="512" viewBox="0 0 512 512" width="512" xmlns="http://www.w3.org/2000/svg"><path d="m144 176h25.475a23.707 23.707 0 0 1 -1.475-8v-96h-32v96a8.008 8.008 0 0 0 8 8z"/><path d="m368 240h-224a8.008 8.008 0 0 0 -8 8v184a8.008 8.008 0 0 0 8 8h224a8.008 8.008 0 0 0 8-8v-184a8.008 8.008 0 0 0 -8-8zm-24 160h-176v-16h176zm0-48h-176v-16h176zm0-48h-176v-16h176z"/><path d="m192 176h128a8.008 8.008 0 0 0 8-8v-104h-144v104a8.008 8.008 0 0 0 8 8zm56-88a8 8 0 0 1 8-8h48a8 8 0 0 1 8 8v64a8 8 0 0 1 -8 8h-48a8 8 0 0 1 -8-8z"/><path d="m264 96h32v48h-32z"/><path d="m412.688 72h-23.743l-5.789 11.578a8 8 0 0 1 -7.156 4.422h-16a8 8 0 0 1 -7.156-4.422l-5.789-11.578h-3.055v96a24.027 24.027 0 0 1 -24 24h-176a24.027 24.027 0 0 1 -24-24v-96h-39.844a8.008 8.008 0 0 0 -8 8v352a8.008 8.008 0 0 0 8 8h41.319a23.707 23.707 0 0 1 -1.475-8v-184a24.027 24.027 0 0 1 24-24h224a24.027 24.027 0 0 1 24 24v184a23.731 23.731 0 0 1 -1.474 8h41.474a8.008 8.008 0 0 0 8-8v-332.688zm-308.688 352h-16v-16h16zm0-320h-16v-16h16zm272 64h-16v-32h16zm0-48h-16v-16h16zm48 304h-16v-16h16z"/></svg>
