<svg id="icon" enable-background="new 0 0 24 24" height="512" viewBox="0 0 24 24" width="512" xmlns="http://www.w3.org/2000/svg"><path d="m15 14.5h-6v-3h6z" fill="#607d8b"/><path d="m20.25 14h-16.5c-.96 0-1.75.79-1.75 1.75v2.5c0 .96.79 1.75 1.75 1.75h16.5c.96 0 1.75-.79 1.75-1.75v-2.5c0-.96-.79-1.75-1.75-1.75z" fill="#00bcd4"/><path d="m21.25 12h-18.5c-1.517 0-2.75-1.233-2.75-2.75v-3.5c0-1.517 1.233-2.75 2.75-2.75h18.5c1.517 0 2.75 1.233 2.75 2.75v3.5c0 1.517-1.233 2.75-2.75 2.75z" fill="#00bcd4"/><path d="m12 12h-3v2h3z" fill="#546d79"/><path d="m12 14h-3-5.25c-.96 0-1.75.79-1.75 1.75v2.5c0 .96.79 1.75 1.75 1.75h8.25z" fill="#00a4b9"/><path d="m12 3h-9.25c-1.517 0-2.75 1.233-2.75 2.75v3.5c0 1.517 1.233 2.75 2.75 2.75h6.25 3z" fill="#00a4b9"/><g fill="#fff"><path d="m5 9.5c-1.103 0-2-.897-2-2s.897-2 2-2 2 .897 2 2-.897 2-2 2z"/><path d="m10.5 9.5c-1.103 0-2-.897-2-2s.897-2 2-2 2 .897 2 2-.897 2-2 2z"/><path d="m19 9.5c-1.103 0-2-.897-2-2s.897-2 2-2 2 .897 2 2-.897 2-2 2z"/><path d="m7 17c0 .55-.45 1-1 1h-4v-2h4c.55 0 1 .45 1 1z"/><path d="m17 17c0 .55.45 1 1 1h4v-2h-4c-.55 0-1 .45-1 1z"/></g><path d="m7 17h-5v1h4c.55 0 1-.45 1-1z" fill="#dedede"/><path d="m22 17h-5c0 .55.45 1 1 1h4z" fill="#dedede"/><path d="m7 7.5h-4c0 1.103.897 2 2 2s2-.897 2-2z" fill="#dedede"/><path d="m12.5 7.5h-4c0 1.103.897 2 2 2s2-.897 2-2z" fill="#dedede"/><path d="m21 7.5h-4c0 1.103.897 2 2 2s2-.897 2-2z" fill="#dedede"/></svg>
