<svg id="icon" enable-background="new 0 0 24 24" height="512" viewBox="0 0 24 24" width="512" xmlns="http://www.w3.org/2000/svg"><path d="m18.359 13c-1.631 0-3.198-.704-4.264-1.9h-4.19c-1.066 1.196-2.633 1.9-4.264 1.9-3.11 0-5.641-2.467-5.641-5.5s2.531-5.5 5.641-5.5h12.718c3.11 0 5.641 2.467 5.641 5.5s-2.531 5.5-5.641 5.5z" fill="#00bcd4"/><path d="m12 2h-6.359c-3.11 0-5.641 2.467-5.641 5.5s2.531 5.5 5.641 5.5c1.631 0 3.198-.704 4.264-1.9h2.095z" fill="#00a4b9"/><path d="m20.978 14.157c-.396-.129-.817.087-.946.481-.128.394.087.817.481.946 1.622.528 1.987 1.032 1.987 1.167 0 .443-2.057 1.678-7.148 2.103-.413.035-.719.397-.685.81.033.395.371.715.81.685 2.562-.216 8.523-.995 8.523-3.599 0-1.067-1.017-1.94-3.022-2.593z" fill="#607d8b"/><path d="m5.5 10.5c-.552 0-1-.448-1-1v-4c0-.552.448-1 1-1s1 .448 1 1v4c0 .552-.448 1-1 1z" fill="#fff"/><path d="m7.5 8.5h-4c-.552 0-1-.448-1-1s.448-1 1-1h4c.552 0 1 .448 1 1s-.448 1-1 1z" fill="#fff"/><path d="m5.5 8.5h-1v1c0 .552.448 1 1 1zm0-4c-.552 0-1 .448-1 1v1h1z" fill="#dedede"/><path d="m5.5 6.5h-1-1c-.552 0-1 .448-1 1s.448 1 1 1h1 1z" fill="#dedede"/><path d="m16.5 8.5c-.551 0-1-.449-1-1s.449-1 1-1 1 .449 1 1-.449 1-1 1z" fill="#fff"/><path d="m16.5 6.5c-.551 0-1 .449-1 1s.449 1 1 1z" fill="#dedede"/><path d="m18.5 6.5c-.551 0-1-.449-1-1s.449-1 1-1 1 .449 1 1-.449 1-1 1z" fill="#fff"/><path d="m18.5 10.5c-.551 0-1-.449-1-1s.449-1 1-1 1 .449 1 1-.449 1-1 1z" fill="#fff"/><path d="m18.5 4.5c-.551 0-1 .449-1 1s.449 1 1 1z" fill="#dedede"/><path d="m18.5 8.5c-.551 0-1 .449-1 1s.449 1 1 1z" fill="#dedede"/><path d="m20.5 8.5c-.551 0-1-.449-1-1s.449-1 1-1 1 .449 1 1-.449 1-1 1z" fill="#fff"/><path d="m20.5 6.5c-.551 0-1 .449-1 1s.449 1 1 1z" fill="#dedede"/><path d="m10.95 17.65c-.49-.368-1.2-.02-1.2.6v.686c-.614-.034-1.214-.079-1.783-.142-4.875-.502-6.467-1.69-6.467-2.044 0-.108.329-.617 1.928-1.149.332-.077.577-.375.577-.731 0-.493-.518-.865-.988-.713-2.002.655-3.017 1.527-3.017 2.593 0 2.466 5.464 3.294 7.808 3.536.62.068 1.271.119 1.942.154v.81c0 .62.71.967 1.2.6l2-1.5c.188-.142.3-.364.3-.6s-.111-.458-.3-.6z" fill="#607d8b"/><path d="m3.236 14.123c-.073 0-.147.011-.219.035-2.002.654-3.017 1.526-3.017 2.592 0 2.466 5.464 3.294 7.808 3.536.62.068 1.271.119 1.942.154v.81c0 .446.367.75.755.75.152 0 .307-.047.445-.15l1.05-.787v-2.625l-1.05-.787c-.138-.104-.293-.151-.445-.151-.388 0-.755.305-.755.751v.686c-.614-.034-1.214-.079-1.783-.142-4.875-.503-6.467-1.691-6.467-2.045 0-.108.329-.617 1.928-1.149.332-.077.577-.375.577-.731 0-.417-.37-.747-.769-.747z" fill="#546d79"/></svg>
