<svg id="icon" enable-background="new 0 0 24 24" height="512" viewBox="0 0 24 24" width="512" xmlns="http://www.w3.org/2000/svg"><path d="m12 24c-6.617 0-12-5.383-12-12s5.383-12 12-12 12 5.383 12 12-5.383 12-12 12z" fill="#00bcd4"/><path d="m12 24c-3.645 0-6.5-5.271-6.5-12s2.855-12 6.5-12 6.5 5.271 6.5 12-2.855 12-6.5 12zm0-22c-2.129 0-4.5 4.107-4.5 10s2.371 10 4.5 10 4.5-4.107 4.5-10-2.371-10-4.5-10z" fill="#0097a7"/><path d="m12 18.5c-6.729 0-12-2.855-12-6.5s5.271-6.5 12-6.5c6.728 0 12 2.855 12 6.5s-5.272 6.5-12 6.5zm0-11c-5.894 0-10 2.372-10 4.5s4.106 4.5 10 4.5 10-2.372 10-4.5-4.106-4.5-10-4.5z" fill="#0097a7"/><path d="m8.533 18.235c.888 2.354 2.219 3.765 3.467 3.765v-3.5c-1.21 0-2.373-.092-3.467-.265zm-8.533-6.235c0 6.617 5.383 12 12 12-2.512 0-4.65-2.504-5.735-6.265-3.76-1.085-6.265-3.222-6.265-5.735zm5.765-3.467c-2.354.888-3.765 2.22-3.765 3.467s1.411 2.578 3.765 3.467c-.173-1.094-.265-2.257-.265-3.467s.092-2.373.265-3.467zm6.235-1.033c-1.489 0-2.864.151-4.088.412-.261 1.224-.412 2.599-.412 4.088s.151 2.864.412 4.088c1.224.261 2.599.412 4.088.412zm0-5.5c-1.248 0-2.579 1.411-3.467 3.765 1.094-.173 2.257-.265 3.467-.265zm0-2c-6.617 0-12 5.383-12 12 0-2.513 2.505-4.65 6.265-5.735 1.085-3.761 3.223-6.265 5.735-6.265z" fill="#00a4b9"/><g fill="#008391"><path d="m6.265 17.735c1.085 3.761 3.223 6.265 5.735 6.265v-2c-1.248 0-2.579-1.411-3.467-3.765-.795-.126-1.555-.294-2.268-.5zm1.647-9.823c-.781.166-1.5.377-2.147.621-.173 1.094-.265 2.257-.265 3.467s.092 2.373.265 3.467c.648.244 1.367.455 2.147.621-.261-1.224-.412-2.599-.412-4.088s.151-2.864.412-4.088zm4.088-7.912c-2.512 0-4.65 2.504-5.735 6.265.714-.206 1.473-.374 2.268-.5.888-2.354 2.219-3.765 3.467-3.765z"/><path d="m12 5.5c-1.21 0-2.373.092-3.467.265-.795.126-1.555.294-2.268.5-3.76 1.085-6.265 3.222-6.265 5.735 0 2.513 2.505 4.65 6.265 5.735.714.206 1.473.374 2.268.5 1.094.173 2.257.265 3.467.265v-2c-1.489 0-2.864-.151-4.088-.412-.781-.166-1.5-.377-2.147-.621-2.354-.888-3.765-2.219-3.765-3.467s1.411-2.579 3.765-3.467c.648-.244 1.367-.455 2.147-.621 1.224-.261 2.599-.412 4.088-.412z"/></g></svg>
