<svg id="icon" enable-background="new 0 0 24 24" height="512" viewBox="0 0 24 24" width="512" xmlns="http://www.w3.org/2000/svg"><path d="m20.5 8.817v-1.317c0-.616-.708-.971-1.2-.6l-2 1.5c-.364.273-.403.807-.08 1.13l2 2c.429.429 1.189.203 1.267-.442.963.623 1.513 1.323 1.513 1.972 0 1.86-4.276 3.94-10 3.94-4.721 0-10-1.685-10-3.94 0-1.131 1.595-2.35 4.062-3.104.528-.161.826-.72.665-1.248-.162-.528-.721-.828-1.249-.665-3.481 1.064-5.478 2.893-5.478 5.017 0 4.327 7.36 5.94 12 5.94 5.817 0 12-2.082 12-5.94 0-1.652-1.247-3.146-3.5-4.243z" fill="#607d8b"/><path d="m12.22 4.78 2 2c.323.323.856.285 1.13-.08l1.5-2c.37-.494.017-1.2-.6-1.2h-1.135c-1.081-2.253-2.564-3.5-4.215-3.5-3.832 0-5.9 6.183-5.9 12s2.068 12 5.9 12c2.07 0 3.915-2.008 4.946-5.378.281-.668-.216-1.392-.926-1.392-.442 0-.832.291-.958.714-.736 2.464-1.938 4.056-3.062 4.056-1.841 0-3.9-4.276-3.9-10s2.059-10 3.9-10c.643 0 1.333.545 1.943 1.5h-.093c-.666 0-1.001.809-.53 1.28z" fill="#607d8b"/><path d="m7.457 16.512c.168.787.376 1.508.614 2.152 1.004.168 2.002.269 2.93.312v-2.001c-1.204-.058-2.416-.218-3.544-.463zm-2.147-8.416c-3.378 1.071-5.31 2.874-5.31 4.964 0 2.605 2.667 4.226 5.802 5.104-.202-.72-.366-1.479-.492-2.259-1.953-.705-3.31-1.702-3.31-2.845 0-.969 1.171-2.002 3.058-2.753.051-.746.135-1.488.252-2.211z" fill="#546d79"/><path d="m10.9 0c-2.971 0-4.881 3.715-5.59 8.096-.117.724-.201 1.466-.252 2.212-.039.563-.058 1.129-.058 1.692 0 1.308.105 2.634.31 3.905.126.78.291 1.539.492 2.259.931 3.326 2.656 5.836 5.098 5.836.034 0 .067-.001.101-.002v-2.003c-.034.004-.068.005-.101.005-1.001 0-2.066-1.263-2.829-3.336-.237-.644-.446-1.366-.614-2.152-.287-1.339-.457-2.866-.457-4.512 0-5.724 2.059-10 3.9-10 .033 0 .067.001.1.004v-2.002c-.033-.001-.066-.002-.1-.002z" fill="#546d79"/><path d="m13.5 9.5c0 .829-.671 1.5-1.5 1.5s-1.5-.671-1.5-1.5.671-1.5 1.5-1.5 1.5.671 1.5 1.5z" fill="#00bcd4"/><path d="m14.25 15h-4.5c-.414 0-.75-.336-.75-.75 0-1.241 1.009-2.25 2.25-2.25h1.5c1.241 0 2.25 1.009 2.25 2.25 0 .414-.336.75-.75.75z" fill="#00bcd4"/><g fill="#00a4b9"><path d="m12 8c-.829 0-1.5.671-1.5 1.5s.671 1.5 1.5 1.5z"/><path d="m12 12h-.75c-1.241 0-2.25 1.009-2.25 2.25 0 .414.336.75.75.75h2.25z"/></g></svg>
