<svg id="icon" enable-background="new 0 0 24 24" height="512" viewBox="0 0 24 24" width="512" xmlns="http://www.w3.org/2000/svg"><path d="m9.805 10.322c-.208-.077-.4-.183-.581-.305-.931.261-2.008.02-2.648-.748-.142-.17-.353-.269-.576-.269h-2.25c-.264 0-.508.139-.644.364l-3 5c-.213.355-.098.815.258 1.029.357.213.817.096 1.029-.258l2.782-4.635h1.495c.748.748 1.761 1.171 2.83 1.171.201 0 .397-.029.592-.058.118-.48.356-.929.713-1.291z" fill="#90a4ae"/><path d="m17 16c-1.442 0-2.783-.502-3.898-1.359-.419.237-.88.36-1.348.36-.239 0-.48-.031-.718-.095-.557-.15-1.038-.469-1.399-.906h-8.887c-.414 0-.75.336-.75.75v6.5c0 1.517 1.233 2.75 2.75 2.75h2.813c.818 0 1.589-.36 2.112-.989l.364-.438c.477-.57 1.443-.571 1.92.001l.364.437c.525.629 1.295.989 2.114.989h2.813c1.517 0 2.75-1.233 2.75-2.75v-5.341c-.328.054-.66.091-1 .091z" fill="#00bcd4"/><path d="m6 9h-2.25c-.264 0-.508.139-.644.364l-3 5c-.076.128-.11.269-.106.408v-.022c0-.414.336-.75.75-.75h1.325l2.1-3.5h1.495c.748.748 1.761 1.171 2.83 1.171.168 0 .335-.01.5-.031v-1.557c-.165.031-.332.046-.5.046-.723 0-1.446-.287-1.924-.86-.142-.17-.353-.269-.576-.269z" fill="#7d8f97"/><path d="m9 14h-6.925-1.325c-.414 0-.75.336-.75.75v.022 6.478c0 1.517 1.233 2.75 2.75 2.75h2.813c.818 0 1.589-.36 2.112-.989l.364-.438c.238-.285.599-.428.96-.428v-8.145z" fill="#00a4b9"/><path d="m18 21h-3.25c-.414 0-.75-.336-.75-.75v-2.5c0-.414.336-.75.75-.75h3.25z" fill="#0097a7"/><path d="m3.25 21h-3.25v-4h3.25c.414 0 .75.336.75.75v2.5c0 .414-.336.75-.75.75z" fill="#0097a7"/><path d="m2 17h-2v4h2z" fill="#008391"/><path d="m16 17h-1.25c-.414 0-.75.336-.75.75v2.5c0 .414.336.75.75.75h1.25z" fill="#008391"/><path d="m23.25 8.5h-2c-.414 0-.75-.336-.75-.75s.336-.75.75-.75h2c.414 0 .75.336.75.75s-.336.75-.75.75z"/><g fill="#607d8b"><path d="m20.519 5.5c-.26 0-.512-.134-.65-.375-.207-.359-.084-.817.274-1.024l1.732-1c.359-.208.818-.084 1.024.274.207.359.084.817-.274 1.024l-1.732 1c-.119.069-.247.101-.374.101z"/><path d="m20.519 10.5c.127 0 .256.032.374.101l1.732 1c.358.207.481.666.274 1.024-.206.359-.665.482-1.024.274l-1.732-1c-.358-.207-.481-.666-.274-1.024.138-.241.39-.375.65-.375z"/><path d="m12.75 8.5h-2c-.414 0-.75-.336-.75-.75s.336-.75.75-.75h2c.414 0 .75.336.75.75s-.336.75-.75.75z"/><path d="m13.481 5.5c-.127 0-.256-.032-.374-.101l-1.732-1c-.358-.207-.481-.666-.274-1.024.206-.359.664-.482 1.024-.274l1.732 1c.358.207.481.666.274 1.024-.138.241-.39.375-.65.375z"/><path d="m13.481 10.5c.26 0 .512.134.65.375.207.359.084.817-.274 1.024l-1.732 1c-.36.208-.817.084-1.024-.274s-.084-.817.274-1.024l1.732-1c.119-.069.248-.101.374-.101z"/><path d="m23.25 8.5h-2c-.414 0-.75-.336-.75-.75s.336-.75.75-.75h2c.414 0 .75.336.75.75s-.336.75-.75.75z"/></g><path d="m18.675 4h-3.35c-.16 0-.315-.051-.444-.146-.569-.418-.881-.987-.881-1.604 0-1.262 1.317-2.25 3-2.25s3 .988 3 2.25c0 .617-.313 1.186-.881 1.604-.129.095-.284.146-.444.146z" fill="#f44336"/><path d="m22 8c0 3.313-2.238 6-5 6s-5-2.686-5-6c0-3.313 2.238-6 5-6s5 2.687 5 6z" fill="#f44336"/><path d="m12.069 7h-1.319c-.414 0-.75.336-.75.75s.336.75.75.75h1.267c-.011-.165-.017-.332-.017-.5 0-.341.024-.675.069-1z" fill="#546d79"/><path d="m11.75 3c-.259 0-.511.135-.649.375-.207.359-.084.817.274 1.024l1.24.716c.214-.468.479-.897.785-1.279l-1.275-.736c-.119-.068-.248-.101-.375-.1z" fill="#546d79"/><path d="m12.615 10.885-1.24.716c-.358.207-.481.665-.274 1.024.138.24.39.375.649.375.127 0 .257-.033.375-.101l1.274-.736c-.306-.381-.57-.811-.784-1.278z" fill="#546d79"/><path d="m17 0c-1.683 0-3 .988-3 2.25 0 .277.063.544.183.792.803-.658 1.772-1.042 2.817-1.042z" fill="#d43a2f"/><path d="m17 2c-1.045 0-2.014.384-2.816 1.042-.284.232-.547.499-.784.794-.306.381-.571.811-.785 1.279-.264.577-.452 1.212-.546 1.885-.045.325-.069.659-.069 1 0 .168.006.335.017.5.059.859.269 1.666.598 2.385.214.468.479.898.785 1.279.909 1.132 2.186 1.836 3.6 1.836z" fill="#d43a2f"/></svg>
