<svg id="icon" enable-background="new 0 0 24 24" height="512" viewBox="0 0 24 24" width="512" xmlns="http://www.w3.org/2000/svg"><path d="m10.453 9.247c-.008.009-.021.013-.029.022-.955 1.146-2.893 1.146-3.848 0-.142-.17-.353-.269-.576-.269h-2.25c-.264 0-.508.139-.644.364l-3 5c-.213.355-.098.815.258 1.029.357.213.817.096 1.029-.258l2.782-4.635h1.495c.748.748 1.761 1.171 2.83 1.171.966 0 1.876-.36 2.596-.979-.253-.454-.469-.937-.643-1.445z" fill="#90a4ae"/><path d="m13.98 14h-13.23c-.414 0-.75.336-.75.75v6.5c0 1.517 1.233 2.75 2.75 2.75h2.813c.818 0 1.589-.36 2.112-.989l.364-.438c.477-.57 1.443-.571 1.92.001l.364.437c.525.629 1.295.989 2.114.989h2.813c1.517 0 2.75-1.233 2.75-2.75v-5.25c-.373 0-.736-.074-1.078-.221-.858-.362-1.914-.962-2.942-1.779z" fill="#00bcd4"/><path d="m6 9h-2.25c-.264 0-.508.139-.644.364l-3 5c-.076.128-.11.269-.106.408v-.022c0-.414.336-.75.75-.75h1.325l2.1-3.5h1.495c.748.748 1.761 1.171 2.83 1.171.168 0 .335-.01.5-.031v-1.557c-.165.031-.332.046-.5.046-.723 0-1.446-.287-1.924-.86-.142-.17-.353-.269-.576-.269z" fill="#7d8f97"/><path d="m9 14h-6.925-1.325c-.414 0-.75.336-.75.75v.022 6.478c0 1.517 1.233 2.75 2.75 2.75h2.813c.818 0 1.589-.36 2.112-.989l.364-.438c.238-.285.599-.428.96-.428v-8.145z" fill="#00a4b9"/><path d="m18 21h-3.25c-.414 0-.75-.336-.75-.75v-2.5c0-.414.336-.75.75-.75h3.25z" fill="#0097a7"/><path d="m3.25 21h-3.25v-4h3.25c.414 0 .75.336.75.75v2.5c0 .414-.336.75-.75.75z" fill="#0097a7"/><path d="m2 17h-2v4h2z" fill="#008391"/><path d="m16 17h-1.25c-.414 0-.75.336-.75.75v2.5c0 .414.336.75.75.75h1.25z" fill="#008391"/><path d="m23.491 1.826-5.25-1.786c-.156-.054-.326-.054-.482 0l-5.25 1.786c-.305.104-.509.389-.509.709v4.019c0 4.904 5.474 7.288 5.707 7.387.189.079.397.079.586 0 .233-.099 5.707-2.483 5.707-7.387v-4.019c0-.32-.204-.605-.509-.709z" fill="#4caf50"/><path d="m21.286 5.617-2.75 3.5c-.35.447-1.006.513-1.436.143l-1.75-1.5c-.42-.359-.469-.991-.108-1.41.359-.42.991-.468 1.409-.109l.958.821 2.105-2.679c.341-.435.969-.512 1.404-.169.434.341.51.97.168 1.403z" fill="#fff"/><path d="m18 0c-.082 0-.163.013-.241.04l-5.25 1.786c-.305.104-.509.389-.509.709v4.019c0 4.904 5.474 7.288 5.707 7.387.094.039.194.059.293.059v-4.532c-.082.021-.167.032-.252.032-.23 0-.461-.079-.649-.24l-1.75-1.5c-.42-.359-.469-.991-.108-1.41.198-.232.478-.35.76-.35.23 0 .461.079.649.24l.958.821.392-.498z" fill="#429846"/><path d="m16.001 6c-.282 0-.562.118-.76.35-.36.419-.311 1.05.109 1.41l1.75 1.5c.188.162.419.24.649.24.085 0 .17-.011.252-.032v-2.905l-.392.498-.959-.821c-.188-.161-.419-.24-.649-.24z" fill="#dedede"/></svg>
