<svg id="icon" enable-background="new 0 0 24 24" height="512" viewBox="0 0 24 24" width="512" xmlns="http://www.w3.org/2000/svg"><path d="m20 5.75c-.553 0-1-.448-1-1v-1.75c0-.551-.449-1-1-1h-12c-.551 0-1 .449-1 1v1.75c0 .552-.447 1-1 1s-1-.448-1-1v-1.75c0-1.654 1.346-3 3-3h12c1.654 0 3 1.346 3 3v1.75c0 .552-.447 1-1 1z" fill="#607d8b"/><path d="m21.25 17h-18.5c-1.517 0-2.75-1.233-2.75-2.75v-7.5c0-1.517 1.233-2.75 2.75-2.75h18.5c1.517 0 2.75 1.233 2.75 2.75v7.5c0 1.517-1.233 2.75-2.75 2.75z" fill="#00bcd4"/><path d="m14.25 8h-4.5c-.965 0-1.75-.785-1.75-1.75v-2.25h8v2.25c0 .965-.785 1.75-1.75 1.75z" fill="#fff"/><path d="m16 17h-8v-2.25c0-.965.785-1.75 1.75-1.75h4.5c.965 0 1.75.785 1.75 1.75z" fill="#fff"/><path d="m12 0h-6c-1.654 0-3 1.346-3 3v1h2v-1c0-.551.449-1 1-1h6z" fill="#546d79"/><path d="m8 4h-3-2-.25c-1.517 0-2.75 1.233-2.75 2.75v7.5c0 1.517 1.233 2.75 2.75 2.75h9.25-4v-2.25c0-.965.785-1.75 1.75-1.75h2.25v-5h-2.25c-.965 0-1.75-.785-1.75-1.75z" fill="#00a4b9"/><path d="m12 4h-4v2.25c0 .965.785 1.75 1.75 1.75h2.25z" fill="#dedede"/><path d="m12 13h-2.25c-.965 0-1.75.785-1.75 1.75v2.25h4z" fill="#dedede"/><path d="m14.667 21.663c-.035-.413.271-.775.685-.81 5.092-.425 7.148-1.66 7.148-2.103 0-.414.336-.75.75-.75s.75.336.75.75c0 2.604-5.961 3.383-8.523 3.598-.439.03-.777-.29-.81-.685z" fill="#607d8b"/><path d="m12.95 21.15-2-1.5c-.496-.37-1.2-.016-1.2.6v.686c-.614-.034-1.214-.079-1.783-.142-4.875-.501-6.467-1.69-6.467-2.044 0-.414-.336-.75-.75-.75s-.75.336-.75.75c0 2.466 5.464 3.294 7.808 3.536.62.068 1.271.119 1.942.154v.81c0 .618.707.968 1.2.6l2-1.5c.188-.142.3-.364.3-.6s-.111-.459-.3-.6z" fill="#607d8b"/><path d="m.75 18c-.414 0-.75.336-.75.75 0 2.466 5.464 3.294 7.808 3.536.62.068 1.271.119 1.942.154v.81c0 .444.366.75.754.75.152 0 .307-.047.446-.15l1.05-.787v-2.626l-1.05-.787c-.139-.104-.295-.151-.447-.151-.389 0-.753.308-.753.751v.686c-.614-.034-1.214-.079-1.783-.142-4.875-.501-6.467-1.69-6.467-2.044 0-.414-.336-.75-.75-.75z" fill="#546d79"/><path d="m21 10.5c0 .829-.672 1.5-1.5 1.5s-1.5-.671-1.5-1.5.672-1.5 1.5-1.5 1.5.671 1.5 1.5z" fill="#fff"/><path d="m19.5 9c-.828 0-1.5.671-1.5 1.5s.672 1.5 1.5 1.5z" fill="#dedede"/></svg>
