<svg id="icon" enable-background="new 0 0 24 24" height="512" viewBox="0 0 24 24" width="512" xmlns="http://www.w3.org/2000/svg"><path d="m20 5.75c-.553 0-1-.448-1-1v-1.75c0-.551-.449-1-1-1h-12c-.551 0-1 .449-1 1v1.75c0 .552-.447 1-1 1s-1-.448-1-1v-1.75c0-1.654 1.346-3 3-3h12c1.654 0 3 1.346 3 3v1.75c0 .552-.447 1-1 1z" fill="#607d8b"/><path d="m21.25 17h-5.514c-1.049 0-1.99-.583-2.46-1.52l-.158-.317c-.216-.432-.634-.69-1.118-.69s-.902.258-1.118.691l-.158.316c-.47.937-1.412 1.52-2.46 1.52h-5.514c-1.517 0-2.75-1.233-2.75-2.75v-7.5c0-1.517 1.233-2.75 2.75-2.75h18.5c1.517 0 2.75 1.233 2.75 2.75v7.5c0 1.517-1.233 2.75-2.75 2.75z" fill="#00bcd4"/><path d="m12.005 0h-6.005c-1.654 0-3 1.346-3 3v1h2v-1c0-.551.449-1 1-1h6.005z" fill="#546d79"/><path d="m12.005 4h-7.005-2-.25c-1.517 0-2.75 1.233-2.75 2.75v7.5c0 1.517 1.233 2.75 2.75 2.75h5.514c1.049 0 1.99-.583 2.46-1.52l.158-.316c.216-.433.634-.691 1.118-.691h.005z" fill="#00a4b9"/><path d="m15.413 22.35c-.386 0-.714-.296-.746-.688-.035-.413.271-.775.685-.81 5.092-.425 7.148-1.66 7.148-2.103 0-.414.336-.75.75-.75s.75.337.75.751c0 2.604-5.961 3.383-8.523 3.598-.022.001-.042.002-.064.002z" fill="#607d8b"/><path d="m12.95 21.15-2-1.5c-.496-.37-1.2-.016-1.2.6v.686c-.614-.034-1.214-.079-1.783-.142-4.875-.502-6.467-1.69-6.467-2.044 0-.414-.336-.75-.75-.75s-.75.336-.75.75c0 2.466 5.464 3.294 7.808 3.536.62.068 1.27.119 1.942.154v.81c0 .618.707.968 1.2.6l2-1.5c.188-.142.3-.364.3-.6s-.111-.459-.3-.6z" fill="#607d8b"/><path d="m.75 18c-.414 0-.75.336-.75.75 0 2.466 5.464 3.294 7.808 3.536.62.068 1.27.119 1.942.154v.81c0 .444.366.75.754.75.152 0 .307-.047.446-.15l1.055-.791v-2.618l-1.055-.791c-.139-.104-.295-.151-.447-.151-.389 0-.753.308-.753.751v.686c-.614-.034-1.214-.079-1.783-.142-4.875-.502-6.467-1.69-6.467-2.044 0-.414-.336-.75-.75-.75z" fill="#546d79"/><path d="m8.25 13h-3.5c-.965 0-1.75-.785-1.75-1.75v-2.5c0-.965.785-1.75 1.75-1.75h3.5c.965 0 1.75.785 1.75 1.75v2.5c0 .965-.785 1.75-1.75 1.75z" fill="#fff"/><path d="m19.25 13h-3.5c-.965 0-1.75-.785-1.75-1.75v-2.5c0-.965.785-1.75 1.75-1.75h3.5c.965 0 1.75.785 1.75 1.75v2.5c0 .965-.785 1.75-1.75 1.75z" fill="#fff"/><g fill="#dedede"><path d="m6.5 7h-1.75c-.965 0-1.75.785-1.75 1.75v2.5c0 .965.785 1.75 1.75 1.75h1.75z"/><path d="m17.5 7h-1.75c-.965 0-1.75.785-1.75 1.75v2.5c0 .965.785 1.75 1.75 1.75h1.75z"/></g></svg>
