<svg id="icon" enable-background="new 0 0 24 24" height="512" viewBox="0 0 24 24" width="512" xmlns="http://www.w3.org/2000/svg"><path d="m13 10.333v-1.333h-2c-.223 0-.434.099-.576.27-.955 1.146-2.893 1.146-3.848 0-.142-.171-.353-.27-.576-.27h-2.25c-.264 0-.508.139-.644.364l-3 5c-.213.355-.098.815.258 1.029.357.213.817.096 1.029-.258l2.782-4.635h1.495c.748.748 1.761 1.171 2.83 1.171s2.082-.423 2.83-1.171h1.56l.131.164c-.009-.11-.021-.218-.021-.331z" fill="#90a4ae"/><path d="m17.75 17.083c-1.359 0-2.501-.974-2.716-2.316l-.123-.767h-14.161c-.414 0-.75.336-.75.75v6.5c0 1.517 1.233 2.75 2.75 2.75h2.813c.818 0 1.589-.36 2.112-.989l.364-.438c.477-.57 1.443-.571 1.92.001l.364.437c.525.629 1.295.989 2.114.989h2.813c1.517 0 2.75-1.233 2.75-2.75v-4.167z" fill="#00bcd4"/><path d="m6 9h-2.25c-.264 0-.508.139-.644.364l-3 5c-.076.128-.11.269-.106.408v-.022c0-.414.336-.75.75-.75h1.325l2.1-3.5h1.495c.748.748 1.761 1.171 2.83 1.171.168 0 .335-.01.5-.031v-1.557c-.165.031-.332.046-.5.046-.723 0-1.446-.287-1.924-.86-.142-.17-.353-.269-.576-.269z" fill="#7d8f97"/><path d="m9 14h-6.925-1.325c-.414 0-.75.336-.75.75v.022 6.478c0 1.517 1.233 2.75 2.75 2.75h2.813c.818 0 1.589-.36 2.112-.989l.364-.438c.238-.285.599-.428.96-.428v-8.145z" fill="#00a4b9"/><path d="m18 21h-3.25c-.414 0-.75-.336-.75-.75v-2.5c0-.414.336-.75.75-.75h3.25z" fill="#0097a7"/><path d="m3.25 21h-3.25v-4h3.25c.414 0 .75.336.75.75v2.5c0 .414-.336.75-.75.75z" fill="#0097a7"/><path d="m2 17h-2v4h2z" fill="#008391"/><path d="m16 17h-1.25c-.414 0-.75.336-.75.75v2.5c0 .414.336.75.75.75h1.25z" fill="#008391"/><path d="m21.65 4.083h-4.3c-.22 0-.428-.096-.571-.263s-.205-.388-.17-.605l.4-2.5c.058-.364.372-.631.741-.631h3.5c.369 0 .683.268.741.631l.4 2.5c.035.217-.027.438-.17.605s-.351.263-.571.263z" fill="#607d8b"/><path d="m21.25 15.083h-3.5c-.369 0-.683-.268-.741-.631l-.4-2.5c-.035-.217.027-.438.17-.605s.351-.263.571-.263h4.3c.22 0 .428.096.571.263s.205.388.17.605l-.4 2.5c-.058.364-.372.631-.741.631z" fill="#607d8b"/><path d="m21.75 12.583h-4.5c-1.241 0-2.25-1.009-2.25-2.25v-5.5c0-1.241 1.009-2.25 2.25-2.25h4.5c1.241 0 2.25 1.009 2.25 2.25v5.5c0 1.241-1.009 2.25-2.25 2.25z" fill="#e0e0e0"/><path d="m19.5.084h-1.75c-.369 0-.683.268-.741.631l-.31 1.937c.176-.044.361-.068.551-.068h2.25z" fill="#546d79"/><path d="m16.699 12.515.31 1.937c.058.364.372.631.741.631h1.75v-2.5h-2.25c-.19 0-.374-.023-.551-.068z" fill="#546d79"/><path d="m19.5 2.584h-2.25c-.19 0-.374.024-.551.068-.975.246-1.699 1.131-1.699 2.181v5.5c0 1.051.724 1.936 1.699 2.182.176.044.361.068.551.068h2.25z" fill="#c3c3c3"/></svg>
