<svg id="icon" enable-background="new 0 0 24 24" height="512" viewBox="0 0 24 24" width="512" xmlns="http://www.w3.org/2000/svg"><path d="m20 9.75c-.552 0-1-.448-1-1v-1.75c0-.551-.449-1-1-1h-12c-.551 0-1 .449-1 1v1.75c0 .552-.448 1-1 1s-1-.448-1-1v-1.75c0-1.654 1.346-3 3-3h12c1.654 0 3 1.346 3 3v1.75c0 .552-.448 1-1 1z" fill="#607d8b"/><path d="m21.25 21h-18.5c-1.517 0-2.75-1.233-2.75-2.75v-7.5c0-1.517 1.233-2.75 2.75-2.75h18.5c1.517 0 2.75 1.233 2.75 2.75v7.5c0 1.517-1.233 2.75-2.75 2.75z" fill="#00bcd4"/><path d="m14.25 12h-4.5c-.965 0-1.75-.785-1.75-1.75v-2.25h8v2.25c0 .965-.785 1.75-1.75 1.75z" fill="#fff"/><path d="m16 21h-8v-2.25c0-.965.785-1.75 1.75-1.75h4.5c.965 0 1.75.785 1.75 1.75z" fill="#fff"/><path d="m12 4h-6c-1.654 0-3 1.346-3 3v1h2v-1c0-.551.449-1 1-1h6z" fill="#546d79"/><path d="m8 8h-3-2-.25c-1.517 0-2.75 1.233-2.75 2.75v7.5c0 1.517 1.233 2.75 2.75 2.75h9.25-4v-2.25c0-.965.785-1.75 1.75-1.75h2.25v-5h-2.25c-.965 0-1.75-.785-1.75-1.75z" fill="#00a4b9"/><path d="m12 8h-4v2.25c0 .965.785 1.75 1.75 1.75h2.25z" fill="#dedede"/><path d="m12 17h-2.25c-.965 0-1.75.785-1.75 1.75v2.25h4z" fill="#dedede"/><path d="m21 14.5c0 .829-.671 1.5-1.5 1.5s-1.5-.671-1.5-1.5.671-1.5 1.5-1.5 1.5.671 1.5 1.5z" fill="#fff"/><path d="m19.5 13c-.829 0-1.5.671-1.5 1.5s.671 1.5 1.5 1.5z" fill="#dedede"/></svg>
