<svg id="icon" enable-background="new 0 0 24 24" height="512" viewBox="0 0 24 24" width="512" xmlns="http://www.w3.org/2000/svg"><path d="m20 13.5c-.552 0-1-.448-1-1v-3.5c0-.552.448-1 1-1s1 .448 1 1v3.5c0 .552-.448 1-1 1z" fill="#607d8b"/><path d="m4 13.5c-.553 0-1-.448-1-1v-3.5c0-.552.447-1 1-1s1 .448 1 1v3.5c0 .552-.447 1-1 1z" fill="#607d8b"/><path d="m21.25 24h-18.5c-1.517 0-2.75-1.233-2.75-2.75v-7.5c0-1.517 1.233-2.75 2.75-2.75h18.5c1.517 0 2.75 1.233 2.75 2.75v7.5c0 1.517-1.233 2.75-2.75 2.75z" fill="#00bcd4"/><path d="m16 24h-8v-2.25c0-.965.785-1.75 1.75-1.75h4.5c.965 0 1.75.785 1.75 1.75z" fill="#fff"/><path d="m16 13.25c0 .965-.785 1.75-1.75 1.75h-4.5c-.965 0-1.75-.785-1.75-1.75v-2.25h8z" fill="#fff"/><path d="m12 0c-3.584 0-6.5 2.916-6.5 6.5s2.916 6.5 6.5 6.5 6.5-2.916 6.5-6.5-2.916-6.5-6.5-6.5zm4.305 4h-1.805v-1.805c.749.437 1.368 1.056 1.805 1.805zm.695 2.5c0 .342-.035.677-.102 1h-2.398v-2h2.398c.067.323.102.658.102 1zm-10 0c0-.342.035-.677.102-1h2.398v2h-2.398c-.067-.323-.102-.658-.102-1zm4-1h2v2h-2zm2-3.899v2.399h-2v-2.399c.323-.066.657-.101 1-.101s.677.035 1 .101zm-3.5.594v1.805h-1.805c.437-.749 1.056-1.368 1.805-1.805zm-1.805 6.805h1.805v1.805c-.749-.437-1.368-1.056-1.805-1.805zm3.305 2.399v-2.399h2v2.399c-.323.066-.657.101-1 .101s-.677-.035-1-.101zm3.5-.594v-1.805h1.805c-.437.749-1.056 1.368-1.805 1.805z" fill="#ffc107"/><path d="m4 8c-.553 0-1 .448-1 1v2h2v-2c0-.552-.447-1-1-1z" fill="#546d79"/><path d="m7.314 11h-2.314-2-.25c-1.517 0-2.75 1.233-2.75 2.75v7.5c0 1.517 1.233 2.75 2.75 2.75h9.25-4v-2.25c0-.965.785-1.75 1.75-1.75h2.25v-5h-2.25c-.965 0-1.75-.785-1.75-1.75v-1.63c-.243-.19-.472-.398-.686-.62z" fill="#00a4b9"/><path d="m12 20h-2.25c-.965 0-1.75.785-1.75 1.75v2.25h4z" fill="#dedede"/><path d="m8 11.62v1.63c0 .965.785 1.75 1.75 1.75h2.25v-2c-1.507 0-2.896-.516-4-1.38zm4-.62h-1v.399c.323.066.657.101 1 .101z" fill="#dedede"/><path d="m9.5 10.805c-.749-.437-1.368-1.056-1.805-1.805h1.805zm-2.398-3.305c-.067-.323-.102-.658-.102-1s.035-.677.102-1h2.398v2zm.593-3.5c.437-.749 1.056-1.368 1.805-1.805v1.805zm4.305-4c-3.584 0-6.5 2.916-6.5 6.5 0 1.745.691 3.331 1.814 4.5.214.222.443.43.686.62 1.104.864 2.493 1.38 4 1.38v-1.5c-.343 0-.677-.035-1-.101v-.399-2h1v-1.5h-1v-2h1v-1.5h-1v-2.399c.323-.066.657-.101 1-.101z" fill="#dea806"/><path d="m21 17.5c0 .829-.672 1.5-1.5 1.5s-1.5-.671-1.5-1.5.672-1.5 1.5-1.5 1.5.671 1.5 1.5z" fill="#fff"/><path d="m19.5 16c-.828 0-1.5.671-1.5 1.5s.672 1.5 1.5 1.5z" fill="#dedede"/></svg>
