<svg id="icon" enable-background="new 0 0 24 24" height="512" viewBox="0 0 24 24" width="512" xmlns="http://www.w3.org/2000/svg"><path d="m23 14h-2c-.552 0-1-.448-1-1v-2c0-.552.448-1 1-1h2c.552 0 1 .448 1 1v2c0 .552-.448 1-1 1z" fill="#0097a7"/><path d="m11.417 10h-5.417v-4.5h5.417z" fill="#ffcc80"/><path d="m12.01 24c-5.889 0-8.892-4.875-9.738-9.438-.101-.543.258-1.065.801-1.166.543-.102 17.335-.113 17.872-.008.543.105.897.629.792 1.172-1.508 7.802-6.123 9.44-9.727 9.44z" fill="#ffcc80"/><path d="m20.783 10.976-6.75-1.5c-2.3-.499-4.311-1.967-5.545-3.055-.54 1.277-1.491 2.582-2.561 2.989l-2.412 1.447c-.666.4-1.515-.081-1.515-.857v-1.51c0-5.833 5.188-8.49 10.01-8.49 4.811 0 9.99 2.66 9.99 8.5v1.5c0 .644-.597 1.114-1.217.976z" fill="#607d8b"/><path d="m12 20.999c-.938 0-1.874-.196-2.605-.588-.365-.196-.502-.65-.307-1.015.196-.365.65-.505 1.016-.306 1.027.551 2.764.551 3.791 0 .364-.196.819-.059 1.016.306.195.365.059.819-.307 1.015-.73.392-1.666.588-2.604.588z" fill="#fff"/><path d="m3 14h-2c-.553 0-1-.448-1-1v-2c0-.552.447-1 1-1h2c.553 0 1 .448 1 1v2c0 .552-.447 1-1 1z" fill="#0097a7"/><path d="m19.25 8h-14.5c-1.517 0-2.75 1.233-2.75 2.75v2.5c0 1.517 1.233 2.75 2.75 2.75h14.5c1.517 0 2.75-1.233 2.75-2.75v-2.5c0-1.517-1.233-2.75-2.75-2.75z" fill="#00bcd4"/><path d="m8.488 6.421c-.23.545-.536 1.096-.894 1.579h2.991c-.827-.521-1.54-1.089-2.097-1.579z" fill="#deb26f"/><path d="m2.255 14.406c.001.052.007.104.017.156.846 4.562 3.848 9.435 9.733 9.438v-3.001c-.002 0-.003 0-.005 0-.938 0-1.874-.196-2.605-.588-.365-.196-.502-.65-.307-1.015.136-.252.394-.397.661-.397.12 0 .241.029.354.091.514.275 1.205.413 1.895.413h.005v-3.503h-7.253c-1.104 0-2.058-.653-2.495-1.594z" fill="#deb26f"/><path d="m12.005 0c-4.82.002-10.005 2.659-10.005 8.49v1.51h.104c.327-1.153 1.389-2 2.646-2h2.844c.358-.483.663-1.034.894-1.579.557.49 1.27 1.058 2.097 1.579h1.419v-8z" fill="#546d79"/><path d="m9.75 18.999c-.267 0-.526.145-.661.397-.195.365-.059.819.307 1.015.73.392 1.667.588 2.605.588h.005v-1.496c-.002 0-.003 0-.005 0-.691 0-1.382-.138-1.895-.413-.114-.062-.236-.091-.356-.091z" fill="#dedede"/><path d="m2.104 10h-.104-1c-.553 0-1 .448-1 1v2c0 .552.447 1 1 1h1.104c-.068-.238-.104-.49-.104-.75v-2.5c0-.26.036-.512.104-.75z" fill="#008391"/><path d="m12.005 8h-1.419-2.992-2.844c-1.257 0-2.319.847-2.646 2-.068.238-.104.49-.104.75v2.5c0 .26.036.512.104.75.04.14.09.276.151.406.437.941 1.391 1.594 2.495 1.594h7.255z" fill="#00a4b9"/><path d="m15.5 13c-.828 0-1.5-.671-1.5-1.5s.672-1.5 1.5-1.5 1.5.671 1.5 1.5-.672 1.5-1.5 1.5z" fill="#fff"/><path d="m15.5 10c-.828 0-1.5.671-1.5 1.5s.672 1.5 1.5 1.5z" fill="#dedede"/></svg>
