<svg id="icon" enable-background="new 0 0 24 24" height="512" viewBox="0 0 24 24" width="512" xmlns="http://www.w3.org/2000/svg"><path d="m20.5 24h-9c-.276 0-.5-.224-.5-.5v-.325l-2.414.734c-.163.058-.367.091-.586.091-1.103 0-2-.897-2-2v-3h-2c-.561 0-1-.439-1-1 0-.188.053-.368.155-.534l2.338-3.71c.332-.526.507-1.132.507-1.753 0-4.965 4.037-9.003 9-9.003s9 4.038 9 9c0 1.858-.565 3.646-1.636 5.17-.892 1.269-1.364 2.757-1.364 4.305v2.025c0 .276-.224.5-.5.5z" fill="#ffcc80"/><path d="m15 3c-4.963 0-9 4.038-9 9.003 0 .621-.175 1.227-.507 1.753l-2.338 3.71c-.102.166-.155.346-.155.534 0 .561.439 1 1 1h2v3c0 1.103.897 2 2 2 .219 0 .423-.033.586-.091l2.414-.734v.325c0 .276.224.5.5.5h4v-20.986c-.166-.009-.332-.014-.5-.014z" fill="#deb26f"/><g fill="#00bcd4"><path d="m20.5 7c0 .552-.447 1-1 1s-1-.448-1-1 .447-1 1-1 1 .448 1 1z"/><path d="m21.004 5.15c-.809-.839-2.199-.839-3.008 0-.287.299-.762.307-1.061.019-.298-.288-.307-.762-.02-1.061 1.379-1.431 3.789-1.431 5.168 0 .287.298.278.773-.02 1.061-.297.288-.771.28-1.059-.019z"/><path d="m22.71 2.88c-.858-.89-1.998-1.38-3.21-1.38s-2.352.49-3.21 1.38c-.288.3-.762.307-1.061.019-.298-.288-.307-.762-.02-1.061 1.145-1.185 2.668-1.838 4.291-1.838s3.146.653 4.29 1.839c.287.298.278.773-.019 1.061-.299.288-.773.279-1.061-.02z"/></g><path d="m19.5 6c-.553 0-1 .448-1 1s.447 1 1 1z" fill="#00a4b9"/><path d="m19.5 3.036c-.947 0-1.895.358-2.584 1.073-.287.298-.278.773.02 1.061.146.14.334.21.521.21.196 0 .392-.077.539-.23.404-.419.954-.629 1.504-.629z" fill="#00a4b9"/><path d="m19.5 0c-1.623 0-3.147.653-4.29 1.839-.287.298-.278.773.02 1.061.146.141.334.211.521.211.196 0 .392-.077.539-.23.858-.89 1.998-1.38 3.21-1.38z" fill="#00a4b9"/><path d="m22.25 13.25h-13.5c-.965 0-1.75-.785-1.75-1.75v-1c0-.965.785-1.75 1.75-1.75h13.5c.965 0 1.75.785 1.75 1.75v1c0 .965-.785 1.75-1.75 1.75z" fill="#607d8b"/><path d="m10.25 16h-7.5c-1.517 0-2.75-1.233-2.75-2.75v-4.5c0-1.517 1.233-2.75 2.75-2.75h7.5c.965 0 1.75.785 1.75 1.75v6.5c0 .965-.785 1.75-1.75 1.75z" fill="#00bcd4"/><path d="m5 16h-2v-10h2z" fill="#607d8b"/><path d="m24 11h-12v2.25h10.25c.965 0 1.75-.785 1.75-1.75z" fill="#546d79"/><path d="m12 11h-7v5h-2v-5h-3v2.25c0 1.517 1.233 2.75 2.75 2.75h7.5c.965 0 1.75-.785 1.75-1.75v-1z" fill="#00a4b9"/><path d="m5 11h-2v5h2z" fill="#546d79"/></svg>
